<svg version="1.1" id="Слой_1" xmlns="http://www.w3.org/2000/svg" x="0" y="0" viewBox="0 0 363 378" style="enable-background:new 0 0 363 378" xml:space="preserve">
  <style>
    .st0{fill:#e46108}.st1{fill:#fff}.st2{fill:#ef7e01}.st4{fill:#afe2e3}.st8{fill:#93d500}.st10{fill:#feece3}
  </style>
  <path class="st0" d="M76.6 43.3c-.8.6-1.8.7-2.8.5-1.1-.3-1.9-1.2-2.3-2.2.1-.5.3-.9.5-1.4.5-1.3 1.1-2.4 1.7-3.6 0 .6.1 1.2.2 1.8.3 1.5 1.1 2.9 2 4.1.2.2.4.5.7.8z"/>
  <path class="st1" d="M78.1 151.8c2.9 1.1 6.1 1.5 9.2 1l-9.2-1z"/>
  <path class="st1" d="M87.3 190.9c-.2.1-.3 0-.5-.1-.1 0-.2-.1-.2-.2-.4-.4-.7-.8-1-1.3-3.3-4.6-5.3-10.6-5.6-16.7V169.9c.2-5.4 1.7-10.8 4.3-15.2.4-.7.8-1.3 1.2-1.9l.3-.3.1-.2v2.3h-.5c-1.8 2.5-3.1 5.3-4 8.2-.5 1.6-.9 3.3-1.2 5l-.3 2.1c.1 0 .2 0 .2.1.1 0 0 2.5 0 2.5h-.2c.3 3.1 1.1 6.2 2.3 9.2.6 1.5 1.4 3 2.3 4.4.4.7.9 1.3 1.4 2 .1.2.5.8.9.9v-.2 1.8c.3-.3.7.1.5.3z"/>
  <path class="st2" d="M78.1 96.8c0-.1 0-.1-.1-.1-.3-.1-.5-.2-.8-.3.3-.2.5-.4.7-.7h.1c0 .1.2.9.1 1.1zM119.5 87.5c0 .6-.1 1.2-.1 1.7-2.1.3-4.1.7-6.2 1-.8.1-1.5.3-2.3.4.1-.4.2-.9.2-1.3.2-1.5.2-3.1.1-4.7s-.4-3.3-1.1-4.8c-.8-1.5-2.1-2.8-3.9-2.9-.8-.1-1.7.1-2.4.6-.1.1-.3.2-.4.3.4-.8.9-1.5 1.4-2.1 2.3-2.7 5.6-2.1 8.2-.3 2.5 1.7 4.5 4.3 5.5 7.2.3.8.5 1.7.7 2.6.1.4.1.9.2 1.4 0 .3.1.6.1.9zM94.8 95.9c-.2.7-.6 1.3-1.2 1.7-.4-.1-.8-.2-1.3-.3-.3-.1-.7-.2-1-.2 1.2-.5 2.4-.9 3.5-1.2zM118.9 97.3v.1c-.3.3-.5.6-.7.9-.1.2-.3.5-.3.8-2.6 1.1-5.2 2-7.9 2.7-.3-.1-.6-.2-.8-.2-3.8-1-7.6-2-11.3-3-1.1-.3-2.2-.6-3.2-.8.2-.3.3-.6.3-.9v-1c.6-.2 1.1-.3 1.7-.5v.7c7.3 0 14.8.5 22.2 1.2zM103.5 95c-1.7-.1-3.4-.1-5.1-.2 1.4-.4 2.8-.8 4.3-1.1.2.5.5.9.8 1.3zM143.3 33.1c-.1 1.5-.2 3-.4 4.5-.3 2.8-.6 5.7-1.4 8.4-.4 1.2-.9 2.4-1.5 3.5-.3.5-.7 1.1-1.2 1.6-.2.2-.5.6-.8.8-.1.1-.2.2-.3.2v-.6l-.1-.1c-1.7-2.3-3.4-4.6-4.9-7-.2-.3-.3-.5-.5-.8 0-.1.1-.2.1-.2l.4-.4v-.2c.2-.2.4-.4.7-.6.1 0 0-.8 0-.7v-3.6c0-.1-.1-.7 0-.7-.5.3-.9.8-1.1 1.2-2.5 2.3-4 5.6-4.2 9v5.5c-.3.2-.7.3-1 .5-.6.3-1.2.7-1.8 1-.6.4-1.2.8-1.7 1.3 0-.7-.1-2.2 0-2.2-2 .5-3.9-.5-5.1-2.1-1.3-1.8-1.6-4.3-1.8-6.5-.1-.7-.1-1.4-.2-2.1.1-1.2.2-2.4.3-3.7.3-2.5.8-4.9 1.5-7.3.2-.7 0-1.8 0-2.5v-.1c.8-3.7 2-7.4 3.6-10.9 1.1-2.5 2.4-4.8 3.9-7.1.8-1.2 1.6-2.4 2.5-3.5.8-1 1.6-2 2.9-2 3.7 4.8 6.4 10 8.9 15.4v.3c0 .2-.1.6 0 .7 1.6 2.6 2.5 5.4 2.9 8.4.1.9.2 1.8.3 2.6zM77.6 97.7c-1.8-.1-3.6 0-5.3.2-.2-.3-.5-.4-.8-.5-.4-.1-.8 0-1.1.3-.1.1-.2.3-.3.4-2.2.3-4.4.8-6.5 1.4-.5-.8-.9-1.6-1.3-2.4-.5-.9-.9-1.8-1.4-2.8 5.2.1 10.4.8 15.2 2.7.5.3 1 .5 1.5.7zM77 95.3c-.3.2-.6.4-.9.5-5-2-10.4-2.7-15.8-2.7-.2-.5-.5-1.1-.7-1.6 2 .3 4.1.6 6.1 1s3.9.8 5.9 1.3c.3.1.6.2.9.2 1.6.5 3 .9 4.5 1.3zM139.1 111.3c-10.7 7.5-23.3 12.3-36.3 14-3.4.4-7 .7-10.4-.1-1-.2-1.9-.5-2.9-1v.1c-10.4-5.3-19.3-13.6-25.4-23.5 1.9-.5 3.8-.9 5.7-1.2 0 .5 0 1.1.2 1.6s.5.8 1 1.1c.6.4 1.6.5 2-.2.5.7 1.2 1.2 2 1.4 1.7.4 3.7 0 5.3-.4 1.4-.4 2.8-1 3.8-2.1 1.9 1.9 4.3 3.2 6.9 3.8 2.9.6 6.1.4 9.1.2 3.3-.3 6.5-.8 9.6-1.7 5.6 1.5 11.2 3 16.8 4.6 3.8 1.1 7.7 2.2 11.5 3.3.6-.1.8 0 1.1.1z"/>
  <path class="st1" d="M144.4 109.1c-.7.6-1.5 1.2-2.2 1.8l-1.2.9c-2.6 2-5.4 3.7-8.2 5.3-.3.2-.6.3-.9.5-9.3 5.1-19.7 8.4-30.2 9.6-3.8.4-7.9.5-11.4-1-.2-.1-.3-.1-.5-.2 0 0-.1 0-.1-.1h.1l.5-.2 2.3-.7c3.4.8 7 .5 10.4.1 13-1.6 25.5-6.5 36.3-14l1.2-.9 3.9-1.1z"/>
  <path d="m170.1 60.8-1.5.3c-1 .2-2.1.3-3.1.3h-1.2c-1.7 0-3.4-.1-4.9-.8-1.4-.6-2.6-1.6-3.2-3-.2-.4-.3-.8-.4-1.3 0-.2-.1-.4-.1-.7v-.9c-.1-2.2-.1-3 0-2.4v-.4V52.8c0 .2.1.3.1.5.1.3.2.6.4.8.1.1.1.3.2.4.2.4.5.7.8 1 1 .9 2.2 1.5 3.5 1.8 3 .7 6.3.3 9.2-.3-.1 0-.1.2-.1.5v.2c.3 1.1.5 3.1.3 3.1z"/>
  <path class="st2" d="M161.1 69.8v-.3c-.1.1-.1.1-.1.2V65.8c1.5-1.6 3-3.1 4.5-4.6h-1.2c-1.7 0-3.4-.1-4.9-.8-1.4-.6-2.6-1.6-3.2-3-.2-.4-.3-.8-.4-1.3-3.9-8.7-7.7-17.4-11.6-26.1-.3-.7-.6-1.3-.9-2 .2 3.6.2 7.2-.1 10.8-.2 3.4-.6 6.9-1.3 10.2-.3 1.6-.8 3.1-1.5 4.5-.4.8-.9 1.5-1.4 2.1-.2.3-.5.5-.8.8-.2.2-.4.3-.6.5-.1-.3-.1-.5-.2-.8-1.1-1.4-2.1-2.9-3.1-4.4-.9-1.4-2.1-2.8-2.6-4.4-.2-.6-.3-1.3-.3-1.9v-1.5c-1.5 1.7-2.6 3.8-3 6.1l.3.9c.2.5.4.9.8 1.3.5 0 1 .3 1.2.8.4.2.9.2 1.4.1-.1 0 0 2.3 0 2.5 0 .2.1 2.5 0 2.5-.5.1-.9.1-1.3-.1v.3-.1c0-.1 0-.2-.1-.2-.5-.2-.9-.5-1.2-.8-.7-.1-1.3.3-1.9.6-1.1.5-2.1 1.2-3.1 1.9-.3.2-.6.4-.8.7.3 0 .6 0 .9.1.7.1 1.4.3 2.1.4.6.1 1.2.2 1.6-.2-.1 0 0 .6 0 .7v4.3c-.4.4-1.1.3-1.6.2-.7-.2-1.3-.3-2.1-.4-1.5-.2-3-.2-4.5.1v-2.5c0-.2-.1-2.5 0-2.5h.4v-.1c.2-.8.4-1.5.8-2.2-1.7-.5-3.1-2.1-3.7-3.9-1-2.6-1.1-5.7-1.1-8.5-.1-4.7 0-9.3.8-14-7.9-4.7-18.1-3.6-24.9 2.7.1-.1 0-.6 0-.7v-1.5c-3.3-2.7-6.4-5.5-9.5-8.5.4 2.7.4 5.4.4 8.3 0 2.3-.3 4.7-1.1 6.9-.7 2.3-1.8 4.7-3.8 6.1V44.4c-.4 0-.9-.3-1.3-.7V47.8c-.8 1.1-2.2 1.2-3.4.8v.1c-3.6-.2-6.4 2.4-8.5 5.1l-.9 1.2c2-.3 4.2 0 6.2.5V58c0 .2-.1 2.5 0 2.5-.8-.2-1.7-.4-2.5-.5.7 1.6.7 3.7.7 5.2.1 2.1.1 4.3 0 6.4-.1.9-.1 1.9-.3 2.8.6-.5 1.2-1 1.9-1.4 1-.6 2.1-.9 3.2-.5 1.1.3 1.9 1.1 2.6 2 .7 1 1.2 2.2 1.7 3.3.5 1.1.9 2.3 1.3 3.5.6 2.3.7 4.7.5 7.1.1-.7 0-1.4 0-2.1v-.1c0-.3-.1-.5-.1-.7-.1-.6-.2-1.1-.4-1.7-.3-1-.7-2-1.1-3-.8-1.8-1.6-3.9-3.2-5.1-3.4-2.5-7.4 1.6-8.6 4.7v-.3c-.6 1.3-1.4 2.6-2.3 3.8-1.4 2-3.1 3.7-5 5.2.1.3.2.7.4 1 3.5.4 7 1.1 10.4 1.8-1.6-2.1-1.8-4.7-1.8-7.3V84c0-1.5.4-3 1.1-4.3.1-.2.5-.8.9-1.5v-.4c0-.1-.1-1.2 0-1.3 3.3-1.4 6.4 2.5 7.4 5.2.4 1.2.5 2.4.6 3.7V86.8c0 1.1-.1 2.1-.4 3.1-.4 1.3-1.4 2.6-2.5 3.3 1.1.3 2.1.6 3.2.9.2-.2.4-.5.6-.8v1c.3.1.7.2 1 .3 0 0 .1 1.2 0 1.3-.5.2-1 .5-1.5.7 0 .2-.1.6-.1.9.5 0 1 .1 1.5.1.3-.3.6-.7.8-1v1.3c-.1.1-.2.2-.2.3v.8c-.2 0-.4 0-.6-.1-.2.2-.3.3-.4.5v-.6c-2-.2-4-.2-6 0v.2c.1.1.1.3.2.4v.4s.1.6 0 .9c.2.3.6.6.9.8 1.2.7 2.7.5 4 .3 2.1-.3 4.3-.9 5.9-2.4 0-.2 0-.3-.1-.3l.2.2V98.7v.3c0 .1 0 .1.1.1-.1-.6-.2-1.2-.3-1.7v1.1c0-.4-.1-.8-.2-1.3-.1.2-.2.3-.3.5V96l-1.6-3.4c-.2-.3-.4-.5-.6-.7v.3c-.6-.3-1-.8-1.3-1.4-.1-.2 0-1.4 0-2v-.5H92c.2 0 .6-.1.8 0l.2.2v.1c.1.4 0 1.1 0 1.3 0 .2.1.7 0 1.1 0 .1-.1.2-.2.2v-.4c-.3-.1-.6-.1-.9-.1v.3c-.6-.1-1.2 0-1.7.1L86 94.5c-.6.7-1.2 1.5-1.8 2.3.2.8.3 1.6.5 2.4v.8c1.8 1.7 4.1 2.9 6.6 3.4 2.9.6 6.1.4 9.1.2 2.4-.2 4.8-.6 7.2-1.1-.2-.1-.5-.1-.7-.2-3.3-.9-6.6-1.7-9.9-2.6-1.1-.3-2.1-.6-3.2-.8l-.6.3v-.5c-.5-.1-1-.2-1.4-.3-.9-.2-2.3-.4-2.7.7.1-.3-.1-.8 0-1.2-.3.1-.7.2-1.1.4.1-.1-.1-1.2 0-1.3.9-.3 1.8-.7 2.8-.9V95c.5-.5.9-1.1 1.4-1.6v1.3c-.4.4-.8.8-1.2 1.3 3.8-1.2 7.5-2.4 11.4-3.3-.3-1.1-.5-2.3-.5-3.3v-1.9c0-1.9.1-3.8.4-5.7-.1.1-.2.1-.3.2v-.4c-.4 1.3-.8 2.6-1.1 3.9.2-.8-.2-1.7 0-2.5.5-2 1.1-4 1.9-5.9.7-1.6 1.5-3.3 2.9-4.4 3.2-2.5 7.3.1 9.7 2.6 3.7 3.8 4.4 9 4.2 14.1 14.1-2.1 28.5-2.8 42.8-2.6 0-1.1.1-2.2.2-3.3 0 0 0 .1-.1.1.1-.1 0-.4 0-.6V79.7c.4-1 .8-2 1.4-3 0-.1 0-.1.1-.2v.1c.4-.7.8-1.3 1.3-1.9-.3-.1-.5-.2-.8-.4-1.7-1-2.7-2.7-3.4-4.5zM97.4 92.1c-.5.5-.9 1-1.4 1.6v-1.3c.5-.5.9-1 1.4-1.6v1.3z"/>
  <path class="st2" d="M163.9 100.9c-13.8-1.2-27.6-3.1-41.5-4.5-.1-.3-.4-.5-.7-.6-.7-.3-1.3 0-1.8.3l-3.9-.3c-2.4-.2-4.9-.4-7.3-.5.9-.8 1.5-2 1.9-3.3 2.9-.6 5.8-1.1 8.7-1.5-.1 1-.3 2-.4 3-.1.8.1 1.7 0 2.5.3-1.8.6-3.7.7-5.5 4.8-.7 9.5-1.2 14.4-1.6 9.5-.8 19-1.1 28.5-.9v2.8c-.1 3.4.5 6.8 1.4 10.1zM144.4 111c.2-.2 0-1.6 0-1.9s-.2-1.7 0-1.9c-1.3 1.1-2.7 2.1-4 3.1-9.4-2.8-18.7-5.4-28.1-7.9 1.9-.6 3.8-1.3 5.6-2v.2c0 .1 0 .3.1.4.2.2.4.3.7.3.5.1 1-.1 1.5-.3.5-.3.9-.6 1.3-1s.8-.8 1-1.3c.1-.2.1-.4.1-.6v-.4c13.9 1.4 27.8 3.4 41.7 4.5.2.7.4 1.4.7 2.1 1.6 4.7 3.7 9.1 5.7 13.6l.9 2.1c-9.2-2.9-18.4-5.8-27.6-8.6l.4-.4z"/>
  <path class="st1" d="m118 203.7-1.6-.5-2.6-.8c-2.2-1.2-4.5-2.4-6.8-3.5-6.3-2.9-12.8-5.2-19.5-6.7h-.1c-.1 0-.1 0-.2-.1-.3-.1-.6-.2-1-.2-5.6-1.3-11.3-2.1-17.1-2.4l-4.9-1.4c7 0 14 .8 20.9 2.3.6.1 1.2.3 1.7.4h.6c10.2 2.4 20 6.4 28.9 11.7.6.6 1.2.9 1.7 1.2z"/>
  <path class="st0" d="M112.5 334.7c-6.3 2.2-12.7 4.2-19.2 5.8-4.1 1-8.3 2-12.5 2.8-2 .4-4.1.7-6.1 1.1-.3.1-.9.2-1.4.3-.7-.5-1.4-1-2-1.6-1.1-.9-2.1-1.7-3.1-2.7-1-.9-1.9-2-3.2-2.3-2.5-.5-5 1.7-7 3.1-2.5 1.7-4.9 3.4-7.4 5.1v.1c-.3.1-.5.3-.8.5-11.6 1.6-23.7 3.1-35.2-.2h-.2c1-3 2.3-6 4.1-8.7v-3.1c0-.1-.1-.5 0-.5-2.4 3.7-4.1 7.9-5 12.2 0 .2-.1.3-.1.5-2.5.3-5-.5-6.9-2.2 2-4.5 4.3-8.8 6.9-12.9 1.6-2.5 3.3-5 5.1-7.3 1.5-2 3.1-4.5 5.6-5.1v.5c1.5-.1 3.1.3 4.4 1.1.9.5 1.6 1.3 2.3 2v1.1c3.5-.8 6.9.6 10.3 1.3 3.4.7 6.9 1 10.3 1 3.5 0 6.9-.4 10.3-1.1 3.1-.7 6.5-1.5 9-3.7.2-.2 0-1.6 0-1.9 0-.3-.2-1.7 0-1.9-.3.2-.5.4-.8.6 0-.3 0-.6-.1-.7-1.7-2.5-2.9-5.2-3.6-8.1-.2-.7-.3-1.3-.4-2-.1-.4-.1-.7-.1-1.1.2-1.4.3-2.8.7-4.1 1.4-5.4 4.9-10.1 9.5-13.1.1 0 .1-.3.1-.6.5.2 1 .4 1.5.7v-3.7c-1.9-1.1-4-1.6-6.2-1.5 2-2.6 5.3-4 8.6-4.7 2.3-.5 4.7-.8 7.1-1.1 1.6-.2 3.6-.6 4.9.4-.4 2.1-.8 4.3-1.4 6.4-.6 2.1-1.3 4.1-2.3 6.1-.3.6-2.2 4.2-3.3 4.1h-.2c-.1 0-.2-.1-.3-.3V295.6c-.1 0-.2 0-.3-.1.1 0-.2 3.7 0 3.8.2 0 .3.1.5.1.1.1.2.2.4.1.8.3 1.4.8 2.2 1.1 1.1.6 2.3.7 3.5.4 0 3.4.3 6.6 1.3 9.8 1.1 3.5 2.8 6.8 4.9 9.8 4.2 5.4 9.6 10.3 15.6 14.1z"/>
  <path class="st2" d="M362.9 284.6v.2c-.1 1.2-.2 2.5-.4 3.7-1.2 7.4-5.3 14.3-9.5 20.4-4.3 6.2-9.3 11.9-14.7 17.1-5.3 5-11.2 9.4-17.9 12.2-14.1 5.9-29.8 5-44.7 4.2-4.1-.2-8.2-.5-12.1-1.5-3.5-.9-6.8-2.4-9.9-4.2-6.5-3.8-12.2-8.9-18-13.7-3-2.5-6.1-5.1-9.1-7.6-.3-.5-.4-1.1-.7-1.5v-.7c1.4-3.5 2-7.2 2.1-11 0-1.7 0-3.5-.1-5.2 10.4 11.8 24.8 19.9 40.4 22.5 8.6 1.4 17.5 1.2 26-.6 4.3-.9 8.5-2.2 12.6-3.9 4-1.7 8-3.7 11.3-6.5 6.4-5.3 9.6-13.4 11.4-21.3 1.7-7.6 1.9-15.8 1.1-23.5-1.6-15.6-9.3-32.3-23-40.9-6.6-4.1-14.6-5.8-22.2-4-7.8 1.9-13.1 7.6-16.4 14.7-3.2 4.5-9.4 7.8-14.9 7.6-6.2-.3-11.1-6.1-14-11.1-1.7-3.1-3-6.4-3.9-9.8-.5-1.8-.9-3.7-1.1-5.6l-.3-3c0-.1 0-.3-.1-.5v-.1c.1-.6.1-1.3.1-1.9.6-6.8 3-13.4 7-18.9 3.8-5.3 9.1-9.6 15.2-12.1 6.7-2.8 14.1-3.3 21.3-2.4 7.4.9 14.5 3.1 21.5 5.8 6.8 2.6 13.5 5.7 19.9 9.2 6.3 3.4 12.3 7.4 17.5 12.3 5.3 4.9 9.5 10.8 12.9 17.1 7.2 13.7 10 29.1 11.5 44.3.4 4.1.7 8.1 1 12.2.2 2.2.4 4.4.5 6.6-.4.5-.4.9-.3 1.4z"/>
  <path class="st1" d="m118.2 202.7 2.7-15.4c-.8 5.2-1.6 10.3-2.7 15.4 0 .3-.1.5-.1.8l.1-.8zM132.8 117.7l-.2 1.4-.2 1.4c-2.7 5.1-4.6 10.5-5.9 16.1-2.6 11.2-3 22.8-3.8 34.2-.3 4-.6 8-1.1 12l-.8 4.5c.6-4.5 1.1-8.9 1.5-13.4.8-9.6 1-19.2 2.3-28.7 1.1-8.8 3.2-17.7 7.3-25.6.3-.7.6-1.3.9-1.9z"/>
  <path class="st0" d="M83.1 30v.1c-.4 3.2-1.4 7.3-3.9 9.6 0-.2-.1-.6 0-.7-1.2 2.1-4.1-2.7-4.7-3.9v-1.4c.2-.4.5-.8.9-1.2.1-.1 0-.8 0-.7v-3.6c0-.1-.1-.7 0-.7-1 1-1.5 2.4-1.6 3.8v.4c-.8 1.4-1.5 2.9-2 4.5-.4 1.1-.5 2.2-.6 3.4 0-.1-.1.1 0 .7-.1 1.3 0 2.6 0 3.9-2 .6-3.7 2.1-5.1 3.7-.5-.2-.9-.8-1.1-1.2-.1-.1-.1-.2-.2-.3v-.6c0-.7.3-1.9 0-2.5-.6-1.3-1.1-2.6-1.4-4-.2-.7-.3-1.4-.3-2.1V37c.3-2.8.8-5.6 1.5-8.4 1.6-6 3.7-11.9 5.9-17.7 3.2 3.8 6.6 7.4 10.1 10.9v.2c1 1.8 1.7 3.7 2.2 5.6 0 .8.2 1.6.3 2.4z"/>
  <path d="M42.5 137.4c-3.8 2-7.1-1.5-6.2-5.5.4-1.6 1.3-2.5 2.3-3.3 2.2-.1 4.3-.2 6.5-.3.4.4.8.9 1.1 1.6 1.1 2.9-1.4 6.2-3.7 7.5z" style="fill:#fce200"/>
  <path class="st4" d="M28.9 114.7c-2 1.1-4 2.3-6 3.4 0-1.2.1-2.2.8-3 1.2-1.7 3.1-1.5 5.2-.4zM27.7 127.6c-.5.1-1 .1-1.6.2-.3-.6-.6-1.1-.8-1.7-.7-1.5-2-4.3-2.4-6.8 1-.6 2-1.2 2.9-1.7-.4.7-.7 1.8-.7 3.6.1 1.8 1.4 4.2 2.6 6.4zM39.1 125.6c-.2.2-.5.3-.7.5-1.5-1.9-3-3.8-4.8-5.5-1.6-1.5-4.2-3.9-6.1-3.9.4-.3.9-.5 1.3-.7.4-.2.8-.5 1.2-.7 3.6 2.5 7.5 7.4 9.1 10.3zM30.8 132.6c-.4.4-.8.8-1.1 1.2-1-1.4-1.9-2.9-2.7-4.3.6-.1 1.1-.1 1.7-.2.3.5.6 1 .9 1.4.4.6.8 1.2 1.2 1.9zM56.4 153c-2.9 2.4-8.5-2-10.6-3.4-3.8-2.5-7.3-5.4-10.4-8.7-.3-.3-.6-.7-1-1-.1-.1-.2-.2-.2-.3-1.1-1.3-2.2-2.6-3.2-3.9.6-.1 1.1-.3 1.7-.4.8 1.1 1.7 2.2 2.6 3.2.1.1.3.3.4.5.3.3.5.6.8.9 3.7 4 8.4 8.6 13.3 10.4 2.5.9 5.7.9 5.9-2.4.1-1.6-.7-3.6-1.4-5-1.4-2.9-3.7-5.1-6.1-7.1-.4-.4.1-1 .6-.8 4 1.8 6.8 5.6 8 9.8.6 2 1.6 6.5-.4 8.2z"/>
  <path d="M59.5 115.8c-2.3 3.8-4.9 7.4-8.1 10.5-.7 0-1.4 0-2 .1 2.7-3.3 5.4-6.6 7.8-10.2-4 .4-9.2 5.1-12 7.1-1 .7-1.9 1.4-2.9 2.1-.4.3-.9.7-1.3 1-.2.1-.4.3-.6.4-.8.6-1.6 1.2-2.3 1.8 0 0-.1 0-.1.1-1.2 1-2.4 2-3.5 3l-.1.1c-.7.6-1.4 1.2-2.1 1.9-.2 0-.4 0-.7.1.1.1.2.2.2.3l-1.1 1.1-.5.5-.1.1c-.9 1-5.1 5.1-4.7 6.4.9.5 1.8.9 2.6 1.4 1-.5 2-1.1 3-1.6 1.1-.6 2.2-1.4 3.2-2.1.3.4.6.7 1 1-3.1 2.8-8.2 6.7-10.9 5.1-3.3-2 1-7.3 2.3-8.9.3-.3.5-.7.8-1l1.8-2.1h.4c-.1-.1-.1-.1-.1-.2.4-.4.7-.8 1.1-1.2 1.3-1.3 2.7-2.6 4.2-3.7.8-.7 1.6-1.3 2.4-1.9.3-.3.7-.5 1-.8.2-.2.5-.4.7-.5 1-.8 2.1-1.6 3.1-2.3 4.3-3.2 11.1-9.9 16.9-8.7.7-.1.9.6.6 1.1z" style="fill:#dfbdd2"/>
  <path d="m37 139.2-.5.5c-.3-.3-.5-.6-.8-.9.1-.1.3-.2.4-.3.3.3.6.5.9.7z" style="fill:#f3b2db"/>
  <path d="M49.4 128.2s-.1.1-.2.1c-.3.3-.7.1-.8-.1.3.1.7.1 1 0z" style="fill:#edb3d2"/>
  <path class="st8" d="M34.2 134.7c-.5.2-1 .4-1.5.5-.5.2-1.1.3-1.7.4-.1-.1-.2-.3-.3-.4l1.1-1.1c-.1-.1-.2-.2-.2-.3.2 0 .4-.1.7-.1.6-.1 1.2-.1 1.8-.2v.6c0 .2 0 .4.1.6z"/>
  <path d="M31 135.6c-.3.1-.5.1-.8.2l.1-.1.5-.5c0 .1.1.3.2.4z" style="fill:#38d430"/>
  <path class="st8" d="M29.4 134c-.6.7-1.3 1.4-1.8 2.1-4.9.4-10.1-.6-14.6-2.1-.4-.1-.8-.7-.6-1.1 1.4-3.6 6.8-3.8 10.2-4.5l3.6-.6c.3.5.6 1.1.9 1.6-5.6.5-11.9 1.5-11.9 3.3 0 1 9.5 1.5 10.8 1.5 1.1 0 2.2-.1 3.4-.2zM37.4 126.9c-.8.6-1.6 1.3-2.4 1.9-1.2.1-3.6.2-6.3.4-.3-.5-.7-1.1-1-1.6 3.2-.4 6.4-.6 9.7-.7z"/>
  <path class="st8" d="M28.7 129.2c-.5.1-1.1.1-1.7.1-.3-.5-.6-1.1-.9-1.6.5-.1 1-.1 1.6-.2.4.7.7 1.2 1 1.7zM66.2 129.6c-4.5 2.2-9 3.9-13.9 4.9-.7.1-1-.8-.3-1.1 1-.4 11.7-4 11.7-4.6-.2-1.8-7.4-.8-8.4-.7-1.9.1-3.9.1-5.8.2h-1.6c-.9 0-1.8.1-2.7.1-2.2.1-4.3.2-6.5.3h-.6s.1 0 .1-.1c.8-.6 1.5-1.2 2.3-1.8h.7c1.7-.1 3.3-.1 5-.2 1.1 0 2.2-.1 3.3-.1.7 0 1.4 0 2-.1l7.5-.3c2.9-.1 5.8-.4 7.5 2.3.3.4.1 1-.3 1.2z"/>
  <g>
    <path d="M362.4 274.5c-1.2-16.4-2.6-33.1-8.4-48.6-2.6-6.9-6-13.5-10.5-19.4-4.6-5.9-10.3-10.9-16.5-15-6.2-4.1-13-7.5-19.8-10.5-7.1-3.1-14.4-6-22-7.7-7.3-1.7-15-2.4-22.3-.8-6.9 1.5-13.1 4.9-18 10-4.8 5-8.1 11.3-9.6 18-.8 3.6-.9 7.1-.9 10.8 0 3.6.2 7.2 1 10.8 1.5 6.9 4.6 14 9.9 18.8 2.3 2 5 3.8 8.2 4.1 3 .2 6-.7 8.7-2 1.5-.8 2.8-1.7 4.1-2.8-.2 1.1.4 2.5.1 3.5.7-2.1 1.5-4.2 2.5-6.3 0 0 0-.1.1-.1 1.2-2.5 2.6-4.9 4.3-6.9 1.7-2.1 3.8-3.9 6.2-5.3 6.4-3.6 14.4-3.8 21.3-1.5 14.8 5 24.2 20.3 28 34.7 1 4 1.7 8.1 2 12.2 0 .5 0 1 .1 1.5v.5c0-.4-.2-.6 0 .3v-.1.2-.1c0 1.1-.1 2.3-.2 3.4-.2 2-.5 4-.8 5.9-1.4 7.6-4.3 15.5-9.8 21.2-5.8 5.9-14.4 9.3-22.3 11.4-8.1 2.1-16.7 2.8-25 2-15.6-1.6-30.5-8.7-41.6-19.7-1.2-1.2-2.4-2.5-3.5-3.8-.1-.7-.2-1.5-.4-2.2-1.6-7.9-5.4-15-9.3-21.9 0-.2.1-.5.1-.7 0-.2 0-.5-.1-.6-5-11-9.8-22.1-14.3-33.3v-.3c0-.3 0-.6-.1-.8-4.5-11.3-7.1-23.1-8.6-35.2-1.5-12-2.7-24-5.4-35.8-1.3-5.8-2.9-11.5-4.8-17.1 0-.6.1-1.3-.1-1.7-3.1-7-6.3-14-9.4-21.1 4.7 1.5 9.5 3.1 14.2 4.7-.1 0 .1-1.2 0-1.3-4.9-1.7-9.9-3.3-14.9-4.9l-1.2-2.7c-2.3-5.2-4.9-10.4-6.9-15.8 6.3.5 12.6.8 18.9.8V102c-6.5 0-12.9-.4-19.3-.9-.9-2.5-1.7-5-2.2-7.6-.3-1.2-.5-2.4-.6-3.6-.1-.5-.1-1.1-.2-1.7v-.3c6.5.1 12.9.4 19.4.9 9 .6 18 1.6 26.9 2.8 0 0 .1-1.2 0-1.3-15.2-2-30.7-3.4-46.1-3.7.3-1.7.6-3.4 1.2-5 .1-.4.1-.9.1-1.4.6-1.1 1.3-2.1 2.2-2.8.9-.8 1.9-1.4 3.2-1.6.1 0 .1.1.2.2v-3.7c-.7-.7-1.7-.7-2.6-.8-.9-.1-1.8-.3-2.6-.8-.9-.5-1.6-1.3-2.1-2.2 2.5-2.6 5.1-5.1 7.8-7.5V57.2c-.4.4-.9.6-1.4.6v.7c-1 .9-2.1 1.9-3.1 2.9-1.5 1.5-3 3-4.5 4.6v3.2c0 .1.1.5 0 .5.1 0 .1-.1.2-.2v.3c.6 1.8 1.7 3.5 3.2 4.5.2.1.5.3.8.4-.5.6-.9 1.3-1.3 1.9v-.1c0 .1 0 .1-.1.2-.5 1-1 2-1.4 3-.1.1 0 .5 0 .5v2.7c0 .1.1.4 0 .5v-.1c-.1 1.1-.1 2.2-.2 3.3-14.3-.3-28.7.5-42.8 2.6v-1.6c0-2.3-.2-4.5-.9-6.7-.2-.5-.3-1-.6-1.6l-.3-.6c0-.1-.1-.2-.1-.3 0-.1-.1-.2-.1-.3-.1-.2-.2-.4-.3-.5-.3-.5-.6-.9-.9-1.3-.2-.2-.3-.4-.5-.6-.2-.2-.4-.4-.6-.7-2.3-2.5-6.5-5-9.7-2.5-1.4 1.1-2.2 2.8-2.9 4.4-.8 1.9-1.5 3.9-1.9 5.9-.2.8.2 1.7 0 2.5.3-1.2.6-2.6 1-3.9v.4c.1-.1.2-.1.3-.2-.3 1.9-.4 3.8-.4 5.7v1.9c0 1 .1 2.2.5 3.4-3.8 1-7.6 2.1-11.4 3.3.4-.4.8-.9 1.2-1.3v-1.3c-.5.5-1 1-1.4 1.6V96c-.9.3-1.8.6-2.8 1-.1 0 .1 1.2 0 1.3.3-.1.7-.3 1-.4-.1.4.2.9 0 1.2.4-1.1 1.8-.9 2.7-.7.5.1 1 .2 1.4.3v.5l.6-.3c1.1.3 2.1.6 3.2.8 3.3.8 6.6 1.7 9.9 2.6.2.1.5.1.7.2-2.3.5-4.8.9-7.2 1.1-3 .3-6.1.5-9.1-.2-2.5-.5-4.7-1.7-6.5-3.4v-.8c-.2-.8-.3-1.6-.5-2.4.6-.8 1.1-1.5 1.8-2.3l4.2-3.4c.5-.2 1.1-.2 1.7-.1v-.3c.3 0 .6-.1.9 0v.4c.1 0 .2-.1.2-.2.1-.3 0-.9 0-1 0-.3.1-1 0-1.3v-.1c0-.1-.1-.2-.2-.2-.2-.1-.6 0-.8 0H80.5v.5c0 .7-.1 1.9 0 2 .2.6.7 1.1 1.3 1.4v-.3c.2.2.4.5.6.7L84 96V97.7c.1-.2.2-.3.3-.5.1.4.2.8.2 1.3v-1.1c.1.6.2 1.1.3 1.7l-.1-.1v-.1.6l-.2-.2c.1.1.1.2 0 .3-1.5 1.5-3.8 2-5.9 2.4-1.3.2-2.8.3-4-.4-.3-.2-.7-.5-.9-.8v-1.3c0-.1-.1-.3-.2-.4v-.2c2-.2 4-.2 6 0v.6c.1-.2.3-.3.4-.5.2 0 .4 0 .6.1v-.8c.1-.1.2-.2.2-.3v-1.3c-.3.3-.5.7-.8 1-.5 0-1-.1-1.5-.1 0-.2.1-.6.1-.9.5-.2 1-.5 1.5-.7.1 0 0-1.2 0-1.3-.3-.1-.7-.2-1-.3v-1c-.2.3-.4.5-.6.8-1.1-.3-2.1-.6-3.2-.9 1.1-.7 2.1-2 2.5-3.3.3-1 .4-2.1.4-3.1V85.5c0-1.3-.1-2.5-.5-3.7-1-2.7-4.1-6.5-7.4-5.2-.1 0 0 1.1 0 1.3v.4c-.5.7-.9 1.3-1 1.5-.7 1.4-1 2.8-1.1 4.3v.6c0 2.6.2 5.3 1.8 7.3-3.4-.8-6.9-1.4-10.4-1.9-.1-.3-.3-.7-.4-1 1.9-1.5 3.6-3.3 5-5.2.9-1.2 1.6-2.5 2.3-3.8v.3c1.2-3.1 5.2-7.2 8.6-4.7 1.6 1.2 2.4 3.3 3.2 5.1.4 1 .8 2 1.1 3 .1.5.3 1.1.4 1.7 0 .2.1.5.1.7v.1c0 .7.1 1.4 0 2.1.2-2.3.1-4.8-.5-7.1-.3-1.2-.8-2.3-1.3-3.5-.5-1.1-1-2.3-1.7-3.3-.6-.9-1.5-1.7-2.6-2-1.1-.3-2.2 0-3.2.5-.7.4-1.3.9-1.9 1.4.2-.9.3-1.9.3-2.8.1-2.1.1-4.3 0-6.4 0-1.5-.1-3.6-.7-5.2.9.1 1.7.3 2.5.5-.1 0 0-2.3 0-2.5v-2.5c-2-.5-4.2-.9-6.2-.5l.9-1.2c2-2.7 4.8-5.3 8.5-5.1v-.1c1.2.5 2.6.3 3.4-.8.1-.1 0-.7 0-.7V43.7c.4.4.9.8 1.3.7v.1c0 .1.1.7 0 .7 2-1.4 3-3.9 3.8-6.1.7-2.2 1-4.5 1.1-6.9 0-2.8 0-5.6-.4-8.3 3.1 2.9 6.2 5.8 9.5 8.5v1.5c0 .1.1.7 0 .7 6.8-6.3 16.9-7.4 24.9-2.7-.8 4.6-.9 9.2-.8 14 .1 2.8.1 5.8 1.1 8.5.6 1.7 2 3.3 3.7 3.9-.4.7-.7 1.4-.8 2.2v.1h-.4c-.1 0 0 2.3 0 2.5 0 .2.1 2.5 0 2.5 1.5-.2 3-.3 4.5-.1.7.1 1.4.3 2 .4.6.1 1.2.2 1.6-.2.1-.1 0-.8 0-.7v-3.6c0-.1-.1-.7 0-.7-.4.4-1.1.3-1.6.2-.7-.2-1.4-.3-2-.4-.3 0-.6-.1-.9-.1.3-.2.6-.4.8-.7 1-.7 2-1.3 3.1-1.9.6-.3 1.2-.6 1.9-.6.3.4.7.7 1.2.9V58.4v-.3c.4.1.8.2 1.3.1.1 0 0-2.3 0-2.5 0-.2-.1-2.5 0-2.5-.5.1-1 0-1.4-.1-.2-.5-.7-.8-1.2-.8-.3-.4-.6-.8-.8-1.3l-.3-.9c.5-2.3 1.5-4.4 3-6.1v1.7c0 .6.1 1.3.3 1.9.6 1.6 1.7 3 2.6 4.4 1 1.5 2.1 2.9 3.1 4.4.1.3.1.5.2.8.2-.2.4-.3.6-.5l.8-.8c.5-.6 1-1.3 1.4-2.1.7-1.4 1.2-3 1.5-4.5.7-3.3 1-6.8 1.3-10.2.2-3.6.3-7.2 0-10.8.3.7.6 1.4.9 2 3.9 8.7 7.7 17.4 11.6 26.1l.6 1.5v-2.5c0-.2 0-.5.1-.7 0-.6.1-1.3-.1-1.8-4.1-9.2-8.2-18.4-12.3-27.5-3.7-8.6-7.1-17.1-12.8-24.4V.8h-.1c-.2-.3-.4-.5-.6-.8V.8c-1 .3-1.7 1.1-2.3 1.9L125.9 6c-1.5 2.3-2.9 4.8-4 7.3-2 4.5-3.4 9.3-4.2 14.2 0-.1 0-.1-.1-.2-7.7-4.9-17.6-4.1-24.5 1.7v-.1c0-.1.1-.7 0-.7-8.1-6.7-15.7-14-22.5-22v-.4c0-.2-.1-.6 0-.7-.1.3-.2.5-.3.8-.2-.2-.4-.5-.6-.7v2.4c-2.4 6.5-4.8 13.1-6.2 19.9-.6 3-.7 5.9-.8 8.9v2c0 3 .3 5.9 1.4 8.7.1.5.2 1 .4 1.4.1.2.2.5.4.7-1.7 2.2-3.3 4.7-4 7.4-.1.1-.3.2-.4.3-.1 0 0 .8 0 .7v3.6c0 .1.1.7 0 .7l.1-.1v1.4c.1-.6.2-1.1.3-1.6 1.4-1.1 3-1.5 4.7-1.6 0 .5-.1 1.5 0 1.5 2 .7 2.5 3.1 2.8 5 .1.5.1 1.1.1 1.7 0 .4-.1.7-.1 1.1-.1 1.1-.2 2.4-1 3.2v3c-.3.4-.6.8-.8 1.2v-1.2c0-.3.1-.6-.2-.7v1.1c-.2.3-.4.7-.5.9-.3.6-.6 1.1-.9 1.7-.6 1-1.3 2-2.1 3-1.6 1.9-3.4 3.6-5.5 5v3.4c-9.3-1.1-18.7-1-27.9.3-4.8.8-9.5 1.8-14.2 3.1-.1 0 .1 1.2 0 1.3 13.9-3.8 28.6-4.9 42.9-3.1l.6 1.8c-2.1 0-4.1.2-6.2.3-9.5.9-18.9 2.4-28.3 4.1-.1 0 .1 1.2 0 1.3 9.4-1.6 18.8-3.2 28.3-4.1 2.2-.2 4.4-.3 6.6-.3.8 1.9 1.6 3.8 2.5 5.6-5.5 1.7-10.8 4-15.9 6.2-5.8 2.5-11.5 5.3-17.1 8.4-2 1.1-4 2.3-6 3.4-2.3 1.4-4.7 2.8-6.9 4.3-5.4 3.5-10.7 7.2-15.8 11.2-.2.2.2 1.1 0 1.3 7.3-5.7 14.9-10.9 22.9-15.5 1-.6 2-1.1 2.9-1.7.5-.3 1-.6 1.6-.9.4-.3.9-.5 1.3-.7.4-.2.8-.5 1.2-.7 4.8-2.6 9.8-5.1 14.8-7.3s10.2-4.3 15.4-6c.8-.3 1.5-.5 2.3-.7 4.4 8.3 10.7 15.6 18.2 21.2 2.6 2 5.4 3.7 8.3 5.2.1.1.2.1.3.2 0 .3 0 .6.1.8.2.6.4 1.2.5 1.9 0 .2.1.5.1.7-.1 1-.3 2-.5 3-.5 2.3-1.3 4.6-2.4 6.7-1.1 2.1-2.4 4-3.9 5.7-.7.8-3.2 3.9-4.6 3.3-.2-.1-.4-.3-.6-.6.1.1.1.4.1.6 0 .4-.1 1-.1 1.2 0 .5-.2 1.4 0 1.9v.6c1.7.7 3.5 1 5.3 1.2-2.3 4.5-3.3 9.6-3.4 14.7v.5c-.1 0-.2 0-.3-.1v.3c-4.9.6-9.7 1.3-14.6 1.9-.2 0-.3 0-.5.1-.2 0-.5.1-.7.1h-.2c-.3 0-.6 0-.9.1-1.3-1.2-2.4-2.5-3.7-3.6-1.3-1.1-2.7-2.2-4.2-3.1-2.7-1.7-5.7-3-8.8-3.8v-.3c-2.2.1-4.4.2-6.7.4v1.6c-2.3.9-4.7 2-6.7 3.5s-3.4 3.5-3.8 6.2c-.1.8.1 1.7 0 2.5.1-.5.2-1 .3-1.4-.1 2.5 0 5.1 1 7.5.5 1.2 1.1 2.3 1.9 3.3.5.7 1.2 1.4 1.9 1.9-.2.4-.4.8-.4 1.3v2.7c0 .9.2 1.7.7 2.4v.7c0 .2 0 .3.1.3h.1V196.1v-.1c0 .5.1.9.4 1.4.5.7 1.1 1.2 1.7 1.7.7.6 1.5 1.2 2.3 1.7 1.4 1 2.9 1.9 4.6 2.6 1.5.7 3.1 1.3 4.3 2.5v-.4c7.9 4.1 15.8 8.2 23.6 12.5 6.9 3.7 13.3 7.9 19.3 12.9-.1.6-.1 1.2 0 1.7 1.9 8.8 3.2 18 3 27-.1 4.6-.4 9.3-1 13.9l-.3 2.4v-.1c-1.2-1.6-3.5-1.2-5.2-.9-2.4.3-4.9.6-7.3 1.1-4.1.9-8.4 3-10 7.1-.1.4-.1 1 0 1.5-.1 0-.3 0-.4.1-.1 0 0 1.7 0 1.9 0 .1.1 1.9 0 1.9 1.1-.2 2.3-.3 3.4-.2-4 3.7-6.6 8.8-7.2 14.2-.6 5.9 0 12 2.8 17.2-2.1 1.1-4.5 1.7-6.8 2.2-3.4.7-6.8 1.1-10.3 1.2-3.5 0-6.9-.3-10.3-1-3-.6-6-1.8-9-1.5v-.1c-1.4-.6-2.3-2-3.5-2.8-1.3-.8-2.8-1.1-4.2-1.1v-.5c-2.6.5-4.2 3-5.7 5-1.8 2.4-3.6 4.9-5.2 7.5-3.1 4.9-5.8 10.1-8.1 15.4-.1-.2-.3-.3-.4-.5v3.6c.1.1.1.2.2.3 0 .3 0 .6-.1.8.1-.2.2-.4.2-.5 2 2.8 5.8 4.1 9.1 3.2 10.6 3.1 21.7 2.1 32.5.6-.4.9-.7 1.7-1.1 2.5-1.7 3.8-3.4 7.5-5.2 11.3-.2.4 0 1.4 0 1.9v1.3c0 .1.1.4 0 .5.1-.1.1-.3.2-.4v.6c1.1 1.1 2.7 1.5 4.3 1.7 1.9.3 3.8.5 5.7.7v-.1c4.2.3 8.4-.2 12.6-.6 4.5-.4 9.1-.7 13.6-.9 8.7-.4 17.3-.4 26-.1v.1c12.6.6 25.2 1.8 37.7 3.6 6.3.9 12.5 2 18.8 3.1 6 1 12.1 1.9 18.3 1.8 6.8-.2 13.4-1.6 19.8-3.7 0 .3 0 .5-.1.5 8.2-6 15.1-13.7 20-22.5 5.2-9.4 7.9-20 8-30.8v-3.8c.1.1.1.2.2.3 0 .4 0 .7.1.8.1.1.3.2.4.3.1.2.3.4.6.6v-.1c6.1 5.1 12 10.3 18.3 15.1 6 4.7 12.6 8.8 20.3 10.3 4.1.8 8.3.9 12.5 1.2 3.9.2 7.8.4 11.8.4 7.8.1 15.7-.3 23.3-2.3 15.1-3.9 26.8-14.8 36.2-26.8 4.9-6.1 9.4-13 12-20.4 2.7-7.7 2-15.6 1.4-23.1zM101.8 87.4c0-.1 0-.1 0 0v-.6.6zm16.6-55.6c.2-.7 0-1.8 0-2.5v-.1c.8-3.7 2-7.4 3.5-10.9 1.1-2.5 2.4-4.8 3.9-7.1.8-1.2 1.6-2.3 2.5-3.5.8-1 1.6-2 2.9-2 3.7 4.8 6.4 10 8.9 15.4v.3c0 .2-.1.6 0 .7 1.5 2.6 2.5 5.4 2.9 8.4.1.8.2 1.7.3 2.5-.1 1.5-.2 3-.4 4.5-.3 2.8-.6 5.7-1.4 8.4-.4 1.2-.8 2.4-1.5 3.5-.3.5-.7 1.1-1.2 1.6-.2.2-.5.6-.8.8-.1.1-.2.2-.3.2v-.6l-.1-.1c-1.7-2.3-3.4-4.6-4.9-7-.2-.3-.3-.5-.5-.8 0-.1.1-.2.1-.2l.4-.4v-.2c.2-.2.4-.4.7-.6v-4.3c0-.1-.1-.7 0-.7-.5.3-.8.8-1.2 1.2-1.3 1.2-2.3 2.5-3 4.1-.7 1.5-1.1 3.2-1.2 4.9v5.5c-.3.1-.7.3-1 .5-.6.3-1.2.7-1.8 1-.6.4-1.2.8-1.7 1.3 0-.7-.1-2.2 0-2.2-2 .5-3.9-.5-5.1-2.1-1.3-1.9-1.6-4.3-1.9-6.5-.1-.7-.1-1.4-.1-2.1l.3-3.6c.5-2.5 1-4.9 1.7-7.3zm-44.6 12c-1.1-.3-1.9-1.2-2.3-2.2.1-.5.3-.9.5-1.4.5-1.3 1.1-2.4 1.7-3.6 0 .6.1 1.2.2 1.8.3 1.5 1.1 2.9 2 4.1.2.2.4.5.7.9-.7.6-1.8.7-2.8.4zm-9 2.8c-.1-.1-.1-.2-.1-.3v-.6c0-.7.3-1.9 0-2.5-.6-1.3-1.1-2.6-1.4-4-.2-.7-.3-1.4-.3-2.1v-.2c.3-2.8.8-5.6 1.5-8.4 1.6-6 3.7-11.9 5.9-17.7 3.2 3.8 6.6 7.4 10.1 10.9v.2c1 1.8 1.7 3.7 2.2 5.7.2.8.3 1.6.4 2.4v.2c-.4 3.2-1.5 7.3-3.9 9.6v-.7c-1.2 2.1-4.1-2.7-4.7-3.9v-1.4c.2-.4.5-.8.9-1.2.1-.1 0-.8 0-.7v-3.6c0-.1-.1-.7 0-.7-1 1-1.5 2.4-1.6 3.8v.3c-.8 1.5-1.5 2.9-2 4.5-.4 1.1-.5 2.2-.6 3.4v4.6c-2 .6-3.7 2.1-5.1 3.7-.6-.3-1-.9-1.3-1.3zm-7 43.5h-.2c.1 0 .1-.1.2-.1v.1zm107.1 14.1c1.6 4.7 3.7 9.1 5.7 13.6l.9 2.1c-9.2-3-18.4-5.8-27.6-8.5.2-.1.4-.3.5-.4.2-.2 0-1.6 0-1.9s-.2-1.7 0-1.9c-1.3 1.1-2.7 2.1-4 3.1-9.3-2.8-18.7-5.4-28.1-7.9 1.9-.6 3.8-1.3 5.6-2v.2c0 .1 0 .3.1.4.2.2.4.3.7.3.5.1 1-.1 1.5-.3.5-.3.9-.6 1.3-1s.8-.8 1-1.3c.1-.2.1-.4.1-.6v-.4c13.9 1.4 27.8 3.4 41.7 4.5.2.7.4 1.4.6 2zm-31.1-15.4c9.5-.8 19-1.1 28.5-.9v2.8c.1 3.5.6 6.9 1.5 10.2-13.8-1.2-27.6-3.1-41.5-4.5-.1-.3-.4-.5-.7-.6-.7-.3-1.3 0-1.8.3l-3.9-.3c-2.5-.2-4.9-.4-7.4-.5.9-.8 1.5-2 1.9-3.3 2.9-.6 5.8-1.1 8.7-1.5-.1 1-.3 2-.4 3-.1.8.1 1.7 0 2.5.3-1.8.5-3.7.7-5.5 4.8-.8 9.6-1.3 14.4-1.7zm-29-13c2.3-2.7 5.6-2.1 8.2-.3 2.5 1.7 4.5 4.3 5.5 7.2.3.8.5 1.7.7 2.6.1.5.1.9.2 1.4 0 .3.1.6.1.8v.1c0 .5-.1 1.1-.1 1.6-2.1.3-4.1.7-6.2 1-.8.1-1.5.3-2.3.4.1-.4.2-.9.2-1.3.2-1.5.2-3.1.1-4.7s-.4-3.3-1.1-4.8c-.8-1.5-2.1-2.8-3.9-2.9-.8-.1-1.7.1-2.4.6-.1.1-.3.2-.4.3.4-.6.8-1.3 1.4-2zm-2.1 17.9c.2.5.5.9.8 1.3-1.7-.1-3.4-.1-5.1-.2 1.4-.4 2.9-.7 4.3-1.1zm-9.1 3.8c-.4-.1-.9-.2-1.3-.3-.3-.1-.6-.2-1-.2 1.1-.4 2.3-.8 3.5-1.1-.2.7-.6 1.3-1.2 1.6zm4.2 1.1c-1.1-.3-2.2-.5-3.2-.8.2-.3.3-.6.3-.9v-1c.6-.2 1.1-.3 1.7-.5v.7c7.5.1 14.9.6 22.3 1.2v.1c-.3.3-.5.6-.7.9-.1.2-.3.5-.3.8-2.6 1.1-5.2 2-7.9 2.7-.3-.1-.5-.2-.8-.2l-11.4-3zm-19.8-3c0 .2.2 1 .1 1.2v-.1c-.3-.1-.5-.2-.8-.3.3-.3.5-.5.7-.8zm-18.4-4c2 .3 4.1.6 6.1 1s3.9.8 5.9 1.3c.3.1.6.2.9.2 1.5.4 2.9.8 4.4 1.2-.3.2-.6.4-.9.5-5-2-10.4-2.6-15.8-2.7-.1-.5-.4-1-.6-1.5zm2.6 5.6c-.5-.9-.9-1.8-1.4-2.8 5.2.1 10.3.8 15.2 2.7l1.5.6c-1.8-.1-3.6 0-5.3.2-.2-.3-.5-.4-.8-.5-.4-.1-.8 0-1 .3-.1.1-.2.3-.3.4-2.2.3-4.4.8-6.5 1.4-.5-.7-.9-1.5-1.4-2.3zm10.4 1.9v.4l-.1-.3V99c0 .1 0 .1.1.1zm-8.3 1.6c1.9-.5 3.8-.9 5.7-1.2 0 .5 0 1.1.2 1.6s.5.8 1 1.1c.6.4 1.6.5 2-.2.5.7 1.2 1.2 2 1.4 1.7.4 3.7 0 5.3-.4 1.4-.4 2.8-1 3.8-2.1 1.9 1.9 4.3 3.2 6.9 3.8 2.9.6 6.1.4 9.1.2 3.3-.3 6.5-.8 9.6-1.7 5.6 1.5 11.2 3 16.8 4.6 3.8 1.1 7.7 2.2 11.5 3.3.3.1.6.2.8.3-10.7 7.5-23.3 12.3-36.3 14-3.4.4-7 .7-10.4-.1-1-.2-1.9-.5-2.9-1v.1c-10.2-5.5-19-13.7-25.1-23.7zm20 48.5c1.8-2.3 3.2-4.9 4.2-7.6 1-2.7 1.6-5.5 1.6-8.4V130c0-.7 0-1.3-.1-2 0 0 .1 0 .1.1v-.2c3.6 1.5 7.5 1.5 11.3 1 3.8-.4 7.5-1.1 11.2-2 6.3-1.6 12.4-3.9 18.1-7-1.9 4.3-3.3 8.7-4.3 13.2s-1.7 9.2-2.2 13.8c-1.2 11.6-1.4 23.3-2.8 34.9-.8 6.6-1.9 13.1-3.3 19.6 0 .3-.1.5-.1.8-9.4-5.8-19.8-10.1-30.6-12.7V188.6s0 .1-.1.1c0-.3-.1-.4-.2-.3V188.7c-.3-.2-.7-.8-.9-.9-.5-.6-.9-1.3-1.4-2-.9-1.4-1.6-2.9-2.3-4.4-1.2-2.9-2-6-2.3-9.2h.2s.1-2.5 0-2.5-.1 0-.2-.1c0-.7.1-1.4.3-2.1.3-1.7.6-3.4 1.2-5 .9-2.9 2.3-5.7 4-8.2h.5c.4 0 .8-.1 1.3-.2.1 0 0-1.7 0-1.9v-1.9c-.5.1-.9.1-1.4.2v.5c0-.2 0-.4.1-.5-.1.2-.3.4-.4.6-.9 0-1.9 0-2.8-.1.5-.7 1-1.5 1.3-1.8zm-55 25.3V174.2v.3zm63.3 103.4c1.4-10.3 1.5-20.8.8-31.1-.4-5.4-1.1-10.7-2.2-15.9.5.4 1 .9 1.6 1.3 3.4 3 6.6 6.1 9.9 9.2v.3c2.3 1.5 5 2.3 7.8 2.3 5.6 1.3 11.3 1.9 17.1 2-.3 5.3 1.3 10.6 3.1 15.4 2.3 5.9 5.4 11.3 9.3 16.2-3.9 3.2-7.4 6.9-10.3 11.1-1.5 2-2.9 4.2-3.8 6.5-.4.9-.6 1.8-.7 2.8-.1.1-.2.1-.2.2s-.1.1-.1.2c-.1.2 0 .5 0 .7V302.1c0 .1 0 .1.1.2v-.4.8c0 .6 0 .6 0 0v-.9c0 .5 0 .3.1-.1.4-.4 1.2-.6 1.7-.9l2.1-.9c-8.1 8.5-12.6 20-12.7 31.8v.2l-3.3-.9c-2.8-1.8-5.5-3.7-8-6-2.5-2.2-4.8-4.7-6.8-7.3-2-2.7-3.7-5.5-5-8.6-.6-1.5-1.1-3-1.5-4.6-.2-.8-.3-1.6-.5-2.4-.1-.5-.1-.9-.2-1.4v-.4c2.5-.7 4-3 5.4-5v-3.1c0-.1-.1-.5 0-.5-1.4 2.1-2.9 4.3-5.5 5-1.2.3-2.4.2-3.5-.3h-.1c.1-.2.2-.3.3-.5.6-1.1 1.2-2.2 1.6-3.4 2.1-4.6 2.9-9.6 3.5-14.6zm-47.8 69.6c-.4 0-.8.1-1.2.1-.8.1-1.6.2-2.5.3-.5 0-.9.1-1.4.1-.6.1-1.1.1-1.7.2-.4 0-.7.1-1.1.1-.6 0-1.2.1-1.8.1-.5 0-1 .1-1.5.1h-.3c-.5 0-1 0-1.4.1h-3.8c-.7 0-1.3 0-1.9-.1-.4 0-.9 0-1.3-.1-.4 0-.9-.1-1.3-.1h-.1c-.7-.1-1.4-.2-2.2-.3-.3 0-.6-.1-1-.1-.3 0-.5-.1-.8-.1h-.3c-.6-.1-1.2-.2-1.8-.4l-1.2-.3c-.3-.1-.5-.1-.8-.2l-.9-.3h-.1s-.1 0-.1-.1c1-3 2.3-6 4.1-8.7v-3.1c0-.1-.1-.5 0-.5-2.4 3.7-4.1 7.9-5 12.2v.5c-.4 0-.7.1-1.1.1-2.1 0-4.2-.8-5.8-2.2 2-4.4 4.3-8.8 6.9-12.9 1.6-2.5 3.3-5 5.1-7.3 1.5-2 3.1-4.5 5.6-5.1v.5c1.5-.1 3.1.3 4.4 1.1.9.5 1.6 1.3 2.3 1.9 0 .6.1 1.1 0 1.1 3.5-.8 6.9.6 10.3 1.3 3.4.7 6.9 1 10.3 1 3.5 0 6.9-.4 10.3-1.2 3.1-.7 6.4-1.5 9-3.7.2-.2 0-1.6 0-1.9 0-.3-.2-1.7 0-1.9-.3.2-.5.4-.8.6 0-.3 0-.6-.1-.7-1.7-2.5-2.9-5.2-3.6-8.1-.2-.7-.3-1.3-.4-2 0-.4-.1-.7-.1-1.1.1-1.4.3-2.8.7-4.1 1.5-5.4 4.9-10.1 9.5-13.1.1-.1.1-.3.1-.7.5.2 1 .4 1.5.7V285.4c-1.9-1.1-4-1.6-6.2-1.5 2-2.6 5.3-4 8.5-4.7 2.3-.5 4.7-.8 7.1-1.1 1.6-.2 3.6-.6 5 .4-.4 2.2-.8 4.3-1.4 6.4-.6 2.1-1.3 4.2-2.3 6.1-.3.6-2.2 4.2-3.3 4.1h-.2c-.1 0-.2-.1-.3-.3v.2c-.1 0-.2 0-.3-.1.1 0-.2 3.7 0 3.8.2 0 .3.1.5.1.1.1.2.2.5.2.8.3 1.4.8 2.2 1.1 1.1.6 2.3.7 3.5.4 0 3.4.3 6.6 1.3 9.8 1.1 3.5 2.8 6.8 4.9 9.8 4 5.8 9.5 10.7 15.5 14.5-6.3 2.2-12.7 4.2-19.2 5.8-4.1 1.1-8.3 2-12.5 2.8-2 .4-4 .7-6.1 1.1-.3.1-.9.2-1.4.3-.7-.5-1.4-1-2-1.6-1.1-.9-2.1-1.7-3.1-2.7-1-.9-1.9-2-3.2-2.3-2.5-.5-5 1.7-7 3.1-2.5 1.7-4.9 3.4-7.4 5.1v.1c-.3.1-.5.3-.8.5-.8.1-1.6.2-2.5.3-.8.2-1.6.3-2.5.4zm180.9-37.9c-.8-11.8-8.2-21.5-17.8-27.8.1.1 0 1.7 0 1.9 0 .2-.2 1.7 0 1.9 7.3 4.8 13.4 11.6 16.2 19.7-.1.6-.1 1.3 0 1.9.6 2.4 1 4.8 1.3 7.2V317.5c.1 0 .2.1.2.2.1 1.5.1 3 0 4.6-.4 5.1-1.3 10.1-2.9 14.9-2.8 8.8-7.5 16.9-13.6 23.8-3.2 3.6-6.8 6.9-10.8 9.8 0-.1 0-.2.1-.3-5.9 1.9-11.9 3.3-18.1 3.8-6.1.4-12.2-.3-18.3-1.3-6.3-1-12.5-2.2-18.8-3.2-6.2-.9-12.3-1.7-18.5-2.3-6.7-.7-13.3-1.2-20-1.5v-.2c-9.2-.3-18.4-.3-27.5.1-4.5.2-9.1.5-13.6.9-4 .3-8.1.9-12.2.6 1.4-3 3-5.9 4.9-8.6v-3.2c0-.1-.1-.5 0-.5-2.4 3.6-4.5 7.4-6.1 11.5v.8h-.3v.1c-1.5-.2-3.1-.4-4.6-.6-1.1-.1-2.2-.4-3.2-.9 1.3-2.8 2.6-5.7 3.9-8.5.7-1.6 1.4-3.3 2.3-4.8.4-.7.9-1.4 1.6-1.8.1 0 .3 0 .4-.1v-.3c.3-.2.7-.3 1.1-.4 0 0 .1-.2.1-.4 2.1-1.5 4.2-2.9 6.4-4.4 2-1.4 4.5-3.7 7.1-3.2 1.3.3 2.2 1.3 3.1 2.1.7.6 1.3 1.2 2 1.8 0 .7-.1 1.6.2 2.2.4.8 1.4.6 2.2.5.3 0 .6-.1.9-.1 1.5 1.1 3.1 2.2 4.7 3.2-.1-.1 0-1.7 0-1.9 0-.2.2-1.8 0-1.9-.1-.1-.2-.1-.3-.2 4.2-.7 8.3-1.6 12.4-2.5 9.4-2.2 18.7-5.1 27.7-8.5.1 0 0-1.7 0-1.9 0-.2-.1-1.8 0-1.9-.1.1-.3.1-.4.2v-.5c-.3-.1-.6-.2-1-.3.9-12.7 7.5-24.9 17.5-32.8.1-.1.1-.7.1-1.2 3-1.1 5.9-2 9-2.8.1 0 0-1.7 0-1.9 0-.2-.1-1.9 0-1.9-3.9 1-7.7 2.3-11.5 3.7-1.6.6-3.2 1.3-4.8 2 .2-.4.4-.8.7-1.2 1-1.7 2.1-3.4 3.3-5 2.4-3.2 5.2-6.2 8.3-8.8 6.1-5.2 13.4-9.1 21.2-11.3 2.1-.6 4.3-1 6.5-1.4 1.6-.2 3.2-.4 4.8-.3.9.6 2 1.1 3 1.6-.1 0 0-1.7 0-1.9 0-.2.1-1.8 0-1.9-.1 0-.1 0-.2-.1 0-.4 0-.8-.1-.8-.9-.4-1.9-.6-2.9-.7-.6-.4-1.1-.9-1.6-1.4-1-1.3-1.6-2.9-1.8-4.5l.3-1.2c.3-.9.9-1.7 1.6-2.3.8-.8 1.7-1.5 2.6-2.2v.1c0 1.3-.1 2.6.2 3.8.3 1.3.8 2.5 1.5 3.6 1.3 2.3 2.9 4.5 4.6 6.6 1.9 2.3 4.1 3.8 6.4 5.5-.1-.1 0-1.7 0-1.9 0-.3.2-1.7 0-1.9-1.9-1.3-3.8-2.6-5.4-4.3-1.5-1.6-2.8-3.5-4.1-5.4-1.1-1.7-2.3-3.4-2.9-5.3.1-.2.1-.3.2-.5.3-.6.6-1 1.1-1.4.3-.2.5-.4.8-.5.2-.1 0-1.6 0-1.9 0-.2-.2-1.8 0-1.9 0 0-.1 0-.1.1-.3.1-.5.3-.7.5-1.8 1.2-3.6 2.6-4.9 4.2-1.6 2-1.3 4.8-1.3 7.2 0 1.8.1 3.5.7 5.2-.5 0-.9.1-1.4.2-2.1.3-4.2.7-6.3 1.3-4.1 1.1-8.1 2.7-11.9 4.7-2.9 1.6-5.7 3.4-8.3 5.4-3.4-4.1-6.3-8.7-8.6-13.6-1.1-2.5-2.1-5.1-2.9-7.8-.9-3.1-1.8-6.5-1.5-9.7 11 .1 22.1-1.9 32.3-6 4.4-1.8 8.7-3.9 12.7-6.4.1-.1.1-.5.1-.9 4.7-4.6 8.7-9.8 11.9-15.5.1-.2 0-.8 0-1.1l.5-.2c.1 0 0-1.1 0-1.3 0-.1-.1-1.2 0-1.3-4.8 1.6-9.6 3.1-14.4 4.6-.3.1.2 2.4 0 2.5 4.3-1.3 8.5-2.7 12.8-4.1-3.2 5.3-7 10.1-11.5 14.3-.1.1-.1.4 0 .6-13.1 7.9-28.3 12.1-43.5 12.1-1.4 0-2.7 0-4-.1-4.6-.2-9.2-.8-13.7-1.9v-.1c-2.6 0-5.1-.6-7.4-1.9-6.1-5.9-12.3-11.8-19.2-16.7-7.2-5.2-15.3-9.2-23.2-13.3-4.7-2.5-9.4-4.9-14-7.4l.1.1c-1.9-1.4-4.4-2-6.4-3.3-1.3-.8-2.5-1.7-3.7-2.6-.6-.5-1.4-1.1-1.9-1.8 3.7.8 8.2 2.4 11.2-.6.1-.1 0-1 0-1.3v-1.3c-2.9 2.9-7.2 1.5-10.8.7 0-.1 0-.3-.1-.3-.8-.5-1.2-1.2-1.5-2 .1-.2.2-.4.3-.7.4-.6.8-1.1 1-1.7 0 0 0-.1.1-.1.6-1.3 1-2.5 2-3.5.9-.9 2.1-1.5 3.4-1.7v-.3c3.8-.2 7.6 1.8 9.6 5.1v-2.6c-1.7-2.8-4.8-4.7-8-5 2.3-2.1 5-3.7 8.2-2.6v-.2c5.3 2.6 9.6 7.1 12 12.6-.1-.3 0-.9 0-1.3 0-.3.1-.9 0-1.3-2.4-5.7-7-10.3-12.6-12.9v.3c-4.2-1.1-7.8 2.7-10.2 5.6v.1c-1.1.4-2.1 1-2.9 2-.5.6-.8 1.3-1.1 2.1-.1.4-.3.7-.5 1-1-.2-1.8-.9-2.5-1.7-.7-.8-1.3-1.7-1.9-2.6-.5-.9-.9-1.9-1.2-2.9-.1-.5-.3-1-.3-1.5v-.1c.8 2.9 4 4.8 6.9 4 .1 0 0-1.2 0-1.3 0-.1-.1-1.2 0-1.3-2.8.8-6.1-1.1-6.9-3.9 1.6-4.2 6.3-6.4 10.3-7.9.4 1.7.9 3.4 1.3 5.1v-2.6c-.2-.9-.5-1.9-.7-2.8.1 0 0-1.1 0-1.3 1.6-.1 3.3-.2 4.9-.3v.1c3.4.8 6.6 2.2 9.5 4 1.4.9 2.8 1.9 4.1 3 1.2 1 2.3 2.2 3.4 3.3v.5h.5l.1.1v-.1h1.1c.2 0 .5-.1.7-.1 5.1-.6 10.2-1.3 15.3-2 0 2.4.2 4.7.7 7 .7 3.3 1.9 6.4 3.5 9.3-2.5-.5-5-1-7.5-1.3-4.2-.5-8.3-.8-12.5-.9v2.5c1.6 0 3.3.1 4.9.2 5.8.3 11.5 1.1 17.1 2.4.3.1.7.2 1 .2.1 0 .1 0 .2.1h.1c6.7 1.6 13.2 3.9 19.5 6.7 2.3 1.1 4.6 2.2 6.8 3.5.9.5 1.8 1 2.6 1.5v.3c.6.3 1.1.5 1.7.8v.3-.2c.3.2.7.3 1 .5-.6.5-1.2 1-1.7 1.5v2.6c1-1.1 2.2-1.9 3.5-2.6v-.3c.2.2.5.3.7.5v-2.6c-1-.7-1.9-1.4-3-1.9 1.3-6.7 2.3-13.3 3.1-20.1.5-4 .8-8 1.1-12 .8-11.5 1.1-23 3.8-34.2 1.3-5.6 3.2-11 5.9-16.1.2-.3.3-.6.5-.9.1-.2.1-.4.1-.7.3-.2.5-.3.8-.5 3.1-1.8 6.2-3.9 9-6.1 8 2.4 16 4.8 24 7.4 1.8.6 3.6 1.2 5.5 1.8 1.6 3.6 3.2 7.1 4.8 10.7 2.1 4.8 4.3 9.5 6.4 14.3 0 .4 0 .8.1 1.2 3.9 11.4 6.8 23.1 8.6 35 1.8 12 2.5 24.3 5.2 36.2 1.5 6.6 3.5 13.1 6 19.4-.1-.2-.1-.4-.1-.6 4.3 10.6 8.8 21.1 13.5 31.5 0 .5-.2 1.4 0 1.8 3.7 6.3 7.2 12.7 9.4 19.6.4 1.3.7 2.5 1 3.8v.1c0 .4-.2 1.6 0 1.9.1.2.3.3.4.5.2 1.3.2 2.7.4 4 0-.3-.1-.5-.1-.5 0 .1.1.8 0 1.2 0 .4-.1.9-.1 1.3-.1.9-.3 1.7-.5 2.6-.6 1.5-1 3-1.6 4.4zm0 4.4-.2-.2v-.1c0-.1.1-.2.1-.3.1.2.1.4.1.6zm-.3-1.9v.3c-.1-1.1-.2-2.2-.4-3.2l.3 1.5c0 .4.1 1 .1 1.4zm137.1-23.6c-1.2 7.4-5.3 14.3-9.5 20.4-4.3 6.2-9.3 11.9-14.7 17.1-5.3 5-11.2 9.4-17.9 12.2-14.1 5.9-29.8 5-44.7 4.2-4.1-.2-8.2-.5-12.1-1.5-3.5-.9-6.8-2.4-9.9-4.2-6.5-3.8-12.2-8.9-18-13.7-3-2.5-6.1-5.1-9.1-7.6-.3-.5-.4-1.1-.7-1.5v-.7c1.4-3.5 2-7.2 2.1-11 0-1.7 0-3.5-.1-5.2.6.6 1.1 1.3 1.8 1.9.4.5.8.9 1.3 1.3.7.7 1.4 1.4 2.1 2 .4.3.7.7 1.1 1 .7.6 1.5 1.3 2.3 1.9 3.1 2.5 6.3 4.7 9.8 6.6.4.2.9.5 1.3.7.3.2.7.4 1 .5l1.8.9c.6.3 1.2.6 1.8.8.4.2.9.4 1.3.6.8.3 1.5.6 2.3.9.4.1.8.3 1.2.4.4.1.8.3 1.2.4 0 0 .1 0 .2.1.5.2 1 .3 1.5.5.9.3 1.9.5 2.8.8s1.9.5 2.9.7c1 .2 1.9.4 2.9.6 8.6 1.4 17.5 1.2 26-.6 4.3-.9 8.5-2.2 12.6-3.9 4-1.7 8-3.7 11.3-6.5 6.4-5.3 9.6-13.4 11.4-21.3 1.7-7.6 1.9-15.8 1.1-23.5-1.6-15.6-9.3-32.3-23-40.9-6.6-4.1-14.6-5.8-22.2-4-7.8 1.9-13.1 7.6-16.4 14.7-3.1 4.4-8.9 7.6-14.3 7.6h-.6c-6.2-.3-11.1-6.1-14-11.1-1.7-3.1-3-6.4-3.9-9.8-.5-1.8-.8-3.7-1.1-5.6l-.3-3v-.6c.1-.6.1-1.3.1-1.9.6-6.8 3-13.4 7-18.9 3.8-5.3 9.1-9.6 15.1-12.1 6.7-2.8 14.1-3.3 21.3-2.4 7.4.9 14.5 3.1 21.5 5.8 6.8 2.6 13.5 5.7 19.9 9.2 6.3 3.4 12.3 7.4 17.5 12.3 5.3 4.9 9.5 10.8 12.9 17.1 7.2 13.7 10 29.1 11.5 44.3.4 4.1.7 8.2 1 12.2.2 2.2.3 4.4.5 6.6 0 .5.1.9.1 1.4v.2c-.7 1.1-.8 2.4-1 3.6z"/>
    <path class="st10" d="M130.7 120.2c-1.9 4.3-3.3 8.7-4.3 13.2s-1.7 9.2-2.2 13.8c-1.2 11.6-1.4 23.3-2.8 34.9-.8 6.6-1.9 13.1-3.3 19.6 0 .3-.1.5-.1.8-9.4-5.8-19.8-10.1-30.6-12.7V188.9s0 .1-.1.1c0-.3-.1-.4-.2-.3V189c-.3-.2-.7-.8-.9-.9-.5-.6-.9-1.3-1.4-2-.9-1.4-1.6-2.9-2.3-4.4-1.2-2.9-2-6-2.3-9.2h.2s.1-2.5 0-2.5-.1 0-.2-.1c0-.7.1-1.4.3-2.1.3-1.7.6-3.4 1.2-5 .9-2.9 2.3-5.7 4-8.2h.5c.4 0 .8-.1 1.3-.2.1 0 0-1.7 0-1.9v-1.9c-.5.1-.9.1-1.4.2v.2c0-.2 0-.4.1-.5-.1.2-.3.4-.4.6-.9 0-1.9 0-2.8-.1.7-.8 1.2-1.5 1.5-1.8 1.8-2.3 3.2-4.9 4.2-7.6 1-2.7 1.6-5.5 1.6-8.4V130c0-.7 0-1.3-.1-2 0 0 .1 0 .1.1v-.2c3.6 1.5 7.5 1.5 11.3 1 3.8-.4 7.5-1.1 11.2-2 6.1-1.4 12.2-3.7 17.9-6.7z"/>
    <path class="st2" d="M227.7 300.6c-.2-1.3-.2-2.7-.4-4-.1-.1-.3-.3-.4-.5-.2-.3 0-1.5 0-1.9v-.1c-.3-1.3-.6-2.5-1-3.8-2.1-7-5.7-13.3-9.4-19.6-.2-.4 0-1.3 0-1.8-4.7-10.4-9.2-20.9-13.5-31.5 0 .2 0 .4.1.6-2.5-6.3-4.5-12.8-6-19.4-2.7-11.9-3.4-24.1-5.2-36.2-1.8-11.9-4.6-23.6-8.6-35-.1-.3-.1-.8-.1-1.2-2.1-4.8-4.3-9.5-6.4-14.3-1.6-3.6-3.2-7.1-4.8-10.7-1.8-.6-3.6-1.2-5.5-1.8-8-2.5-16-5-24-7.4-2.9 2.2-5.9 4.3-9 6.1-.3.2-.5.3-.8.5 0 .3 0 .5-.1.7-.2.3-.3.6-.5.9-2.7 5.1-4.6 10.5-5.9 16.1-2.6 11.2-3 22.8-3.8 34.2-.3 4-.6 8-1.1 12-.7 6.7-1.8 13.4-3.1 20.1 1 .6 2 1.2 3 1.9v2.6c-.2-.2-.5-.3-.7-.5v.3c-1.3.7-2.5 1.5-3.5 2.6v-2.6c.5-.6 1.1-1.1 1.7-1.5-.3-.2-.7-.4-1-.5v.2-.3c-.5-.3-1.1-.6-1.7-.8v-.3c-.9-.5-1.7-1-2.6-1.5-2.2-1.2-4.5-2.4-6.8-3.5-6.3-2.9-12.8-5.2-19.5-6.7H87c-.1 0-.1 0-.2-.1-.3-.1-.6-.2-1-.2-5.6-1.3-11.3-2.1-17.1-2.4-1.6-.1-3.3-.1-4.9-.2v-2.5c4.2 0 8.3.3 12.5.9 2.5.3 5 .8 7.5 1.3-1.7-2.9-2.9-6-3.5-9.3-.5-2.3-.7-4.7-.7-7-5.1.7-10.2 1.4-15.3 2-.2 0-.5.1-.7.1h-1.1v.1c-.1 0-.1-.1-.1-.1h-.5v-.5c-1.1-1.1-2.2-2.2-3.4-3.3-1.3-1.1-2.6-2.1-4.1-3-3-1.8-6.2-3.2-9.5-4v-.1c-1.6.1-3.3.2-4.9.3 0 .1.1 1.2 0 1.3.2.9.5 1.9.7 2.8v2.6c-.4-1.7-.9-3.4-1.3-5.1-4.1 1.6-8.8 3.7-10.3 7.9.8 2.8 4 4.7 6.9 3.9v2.6c-2.9.8-6.1-1.1-6.9-4v.1l.3 1.5c.3 1 .7 2 1.2 2.9.5.9 1.1 1.8 1.9 2.6.7.8 1.5 1.5 2.5 1.7.2-.3.3-.7.5-1 .3-.7.6-1.5 1.1-2.1.8-.9 1.8-1.6 2.9-2v-.1c2.5-3 6-6.8 10.2-5.6v-.3c5.6 2.6 10.1 7.2 12.6 12.9.1.3 0 .9 0 1.3 0 .3-.1 1 0 1.3-2.4-5.5-6.6-10-12-12.6v.2c-3.1-1.2-5.9.4-8.2 2.6 3.2.4 6.3 2.2 8 5v2.6c-2-3.3-5.8-5.3-9.6-5.1v.3c-1.3.2-2.5.8-3.4 1.7-1 1-1.4 2.3-2 3.5 0 0 0 .1-.1.1-.3.6-.7 1.1-1 1.7-.1.2-.2.4-.3.7.3.8.7 1.5 1.5 2 0 0 .1.1.1.3 3.6.8 7.9 2.2 10.8-.7v1.3c0 .2.1 1.1 0 1.3-3 3-7.6 1.5-11.2.6.5.7 1.3 1.3 1.9 1.8 1.2.9 2.4 1.9 3.7 2.6 2 1.2 4.5 1.8 6.4 3.3 0-.1 0-.1-.1-.1 4.7 2.5 9.4 4.9 14 7.4 7.9 4.2 16 8.1 23.2 13.3 6.9 5 13 10.9 19.2 16.7 2.3 1.3 4.8 1.9 7.4 1.9v.1c4.5 1 9.1 1.6 13.7 1.9 1.3.1 2.7.1 4 .1 15.3 0 30.5-4.2 43.5-12.1v-.6c4.5-4.2 8.3-9 11.5-14.3-4.3 1.4-8.5 2.8-12.8 4.1.2-.1-.3-2.4 0-2.5 4.8-1.5 9.6-3 14.4-4.6-.1 0 0 1.1 0 1.3 0 .1.1 1.2 0 1.3l-.5.2c0 .3.1.9 0 1.1-3.2 5.7-7.2 10.9-11.9 15.5.1.4.1.8-.1.9-4.1 2.5-8.3 4.6-12.7 6.4-10.3 4.1-21.3 6.1-32.3 6-.3 3.3.6 6.6 1.5 9.7.8 2.6 1.8 5.2 2.9 7.8 2.2 4.9 5.1 9.5 8.6 13.6 2.6-2 5.4-3.8 8.3-5.4 3.8-2 7.8-3.6 11.9-4.7 2.1-.5 4.2-1 6.3-1.3.5-.1.9-.1 1.4-.2-.6-1.6-.7-3.4-.7-5.2 0-2.4-.3-5.2 1.3-7.2 1.3-1.7 3.2-3 4.9-4.2.2-.2.4-.3.7-.5 0 0 .1 0 .1-.1-.2.1 0 1.6 0 1.9 0 .2.2 1.8 0 1.9-.3.2-.5.4-.8.5-.4.4-.8.9-1.1 1.4-.1.2-.1.3-.2.5.6 2 1.8 3.7 2.9 5.3 1.2 1.9 2.5 3.7 4.1 5.4 1.6 1.7 3.5 3 5.4 4.3.2.2 0 1.6 0 1.9 0 .2-.2 1.8 0 1.9-2.4-1.7-4.6-3.3-6.4-5.5-1.7-2-3.2-4.3-4.6-6.6-.7-1.1-1.2-2.3-1.5-3.6-.3-1.2-.2-2.5-.2-3.8v-.1c-.9.7-1.8 1.4-2.6 2.2-.7.7-1.3 1.4-1.6 2.3l-.3 1.2c.2 1.6.8 3.2 1.8 4.5.5.6 1 1 1.6 1.4 1 .1 1.9.3 2.9.7.1 0 .1.4.1.8.1 0 .1 0 .2.1.2.1 0 1.7 0 1.9 0 .2-.1 1.8 0 1.9-1.1-.5-2.1-.9-3-1.6-1.6-.2-3.2 0-4.8.3-2.2.3-4.3.8-6.5 1.4-7.8 2.2-15 6.1-21.2 11.3-3.1 2.6-5.9 5.6-8.3 8.8-1.2 1.6-2.3 3.3-3.3 5-.2.4-.4.8-.7 1.2 1.6-.7 3.2-1.4 4.8-2 3.7-1.5 7.6-2.7 11.5-3.7-.1 0 0 1.7 0 1.9 0 .2.1 1.8 0 1.9-3 .8-6 1.7-9 2.8 0 .5.1 1.1-.1 1.2-10 7.8-16.6 20.1-17.5 32.8.3.1.6.2 1 .3v.5c.1 0 .3-.1.4-.2-.1 0 0 1.7 0 1.9 0 .2.1 1.8 0 1.9-9 3.5-18.3 6.3-27.7 8.5-4.1 1-8.3 1.8-12.4 2.5.1.1.2.1.3.2.2.1 0 1.6 0 1.9 0 .2-.1 1.8 0 1.9-1.6-1-3.2-2.1-4.7-3.2-.3 0-.6.1-.9.1-.7.1-1.7.2-2.2-.5-.3-.6-.2-1.5-.2-2.2-.7-.6-1.3-1.2-2-1.8-.9-.8-1.8-1.9-3.1-2.1-2.6-.5-5.2 1.8-7.1 3.2-2.1 1.5-4.2 2.9-6.4 4.4 0 .3 0 .4-.1.4-.4.1-.8.2-1.1.4v.3c-.1 0-.3 0-.4.1-.6.5-1.2 1.1-1.6 1.8-.9 1.5-1.6 3.2-2.3 4.8-1.3 2.8-2.6 5.7-3.9 8.5 1 .5 2.1.7 3.2.9 1.5.2 3.1.4 4.6.6v-.1h.3v-.8c1.6-4 3.7-7.9 6.1-11.5-.1.1 0 .4 0 .5v3.2c-1.9 2.7-3.5 5.6-4.9 8.6 4.1.2 8.1-.3 12.2-.6 4.5-.4 9.1-.7 13.6-.9 9.2-.4 18.4-.4 27.5-.1v.2c6.7.3 13.4.8 20 1.5 6.2.6 12.4 1.4 18.5 2.3 6.3.9 12.5 2.1 18.8 3.2 6 1 12.1 1.7 18.3 1.3 6.2-.4 12.3-1.8 18.1-3.8 0 0-.1.1-.1.3 3.9-2.9 7.5-6.2 10.8-9.8 6.1-6.9 10.8-15 13.6-23.8 1.5-4.8 2.5-9.8 2.9-14.9.1-1.5.1-3 0-4.6l-.2-.2V314.4c-.3-2.4-.7-4.8-1.3-7.2-.1-.6-.1-1.2 0-1.9-2.8-8.1-8.9-14.9-16.2-19.7-.2-.1 0-1.6 0-1.9 0-.2.2-1.8 0-1.9 9.7 6.3 17.1 16 17.8 27.8.6-1.4 1-2.9 1.4-4.4.2-.8.3-1.7.5-2.6 0-.4.1-.9.1-1.3v-1.2c.2.1.3.2.3.5zM46.1 172.2c-1.4.1-2.9-.3-4-1.2v-2.6c1.2.9 2.6 1.3 4 1.2v2.6zm113.2 10.5c.6-4.3 2.5-8.4 5.4-11.6-3.3.4-6.5 1.3-9.6 2.7-3.2 1.5-6.1 3.5-8.6 6-2.8 2.8-5 6.2-7.5 9.3-4.9 6-10.6 11.3-16.8 15.9.4-.3-.4-2.2 0-2.5 3.5-2.6 6.9-5.4 10-8.5 2.8-2.7 5.4-5.6 7.8-8.6 2.5-3.1 4.7-6.4 7.6-9.1 5.2-4.8 12.1-7.6 19.1-7.9v.7c.3-.2.5-.4.8-.6-.1.1 0 1.1 0 1.3 0 .2.1 1.1 0 1.3-4.4 3.5-7.3 8.6-8.1 14.2.1-.9-.2-1.7-.1-2.6zm14.4-1.7c-.5-2.4-3.5-1.7-5.1-1.3-2.2.6-4.4 1.3-6.6 2 .1 0 0-1.1 0-1.3 0-.1-.1-1.2 0-1.3 2.1-.8 4.3-1.5 6.6-2 1.6-.4 4.6-1 5.1 1.3.2.9-.1 1.8 0 2.6z"/>
    <path d="M95.9 93.7c.5-.5 1-1 1.4-1.6v-1.3c-.5.5-.9 1-1.4 1.6v1.3zM167.5 171.1c-4.4 3.5-7.3 8.6-8.1 14.2.1-.8-.1-1.7 0-2.5.6-4.3 2.5-8.4 5.4-11.6-3.3.4-6.5 1.3-9.6 2.7-3.2 1.5-6.1 3.5-8.6 6-2.8 2.8-5 6.2-7.5 9.3-4.9 6-10.6 11.3-16.8 15.9.4-.3-.4-2.2 0-2.5 3.5-2.6 6.9-5.4 10-8.5 2.8-2.7 5.4-5.6 7.8-8.6 2.5-3.1 4.7-6.4 7.6-9.1 5.2-4.8 12.1-7.6 19.1-7.9v.7c.3-.2.5-.4.8-.6-.1.1 0 1.1 0 1.3-.1.1 0 1.1-.1 1.2zM46.1 172.2c-1.4.1-2.9-.3-4-1.2v-2.6c1.2.9 2.6 1.3 4 1.2v2.6z"/>
    <path d="M173.7 181c-.5-2.4-3.5-1.7-5.1-1.3-2.2.6-4.4 1.3-6.6 2 .1 0 0-1.1 0-1.3 0-.1-.1-1.2 0-1.3 2.1-.8 4.3-1.5 6.6-2 1.6-.4 4.6-1 5.1 1.3.2.9-.1 1.8 0 2.6zM46.1 126.5c-1.1-.8-2.4-1.2-3.8-1.2-.4.3-.9.7-1.3 1-.2.1-.4.3-.6.4h.7c1.7-.1 3.3-.1 5-.2zM38.6 128.6H38c-1.2 1-2.4 2-3.5 3l-.1.1c-.2.6-.2 1.1-.3 1.7v.6c0 .2 0 .4.1.6.2 1.6.9 2.9 2 3.9.3.3.5.5.9.7 1.6 1.1 3.8 1.3 5.9.3 3.7-1.6 6.9-6.4 5.3-10.4-.1-.3-.3-.6-.4-.8-.9 0-1.8.1-2.7.1.4.4.8.9 1.1 1.6 1.2 2.8-1.3 6.2-3.7 7.5-3.8 2-7.1-1.5-6.2-5.5.2-1.6 1.1-2.6 2.2-3.4zM29.4 134h.4c-.1-.1-.1-.1-.1-.2-.1 0-.2.1-.3.2z"/>
  </g>
  <g id="Слой_2">
    <path class="st2" d="M227.7 300.6c-.2-1.3-.2-2.7-.4-4-.1-.1-.3-.3-.4-.5-.2-.3 0-1.5 0-1.9v-.1c-.3-1.3-.6-2.5-1-3.8-2.1-7-5.7-13.3-9.4-19.6-.2-.4 0-1.3 0-1.8-4.7-10.4-9.2-20.9-13.5-31.5 0 .2 0 .4.1.6-2.5-6.3-4.5-12.8-6-19.4-2.7-11.9-3.4-24.1-5.2-36.2-1.8-11.9-4.6-23.6-8.6-35-.1-.3-.1-.8-.1-1.2-2.1-4.8-4.3-9.5-6.4-14.3-1.6-3.6-3.2-7.1-4.8-10.7-1.8-.6-3.6-1.2-5.5-1.8-8-2.5-16-5-24-7.4-2.9 2.2-5.9 4.3-9 6.1-.3.2-.5.3-.8.5 0 .3 0 .5-.1.7-.2.3-.3.6-.5.9l-10.7 62.4c-.7 6.7-1.8 13.4-3.1 20.1 1 .6 2 1.2 3 1.9v2.6c-.2-.2-.5-.3-.7-.5v.3c-1.3.7-2.5 1.5-3.5 2.6V207c.5-.6 1.1-1.1 1.7-1.5-.3-.2-.7-.4-1-.5v.2-.3c-.5-.3-1.1-.6-1.7-.8v-.3c-.9-.5-1.7-1-2.6-1.5l-44.7-12.9c-1.6-.1-3.3-.1-4.9-.2v-2.5c4.2 0 8.3.3 12.5.9 2.5.3 5 .8 7.5 1.3-1.7-2.9-2.9-6-3.5-9.3-.5-2.3-.7-4.7-.7-7-5.1.7-10.2 1.4-15.3 2-.2 0-.5.1-.7.1h-1.1v.1c-.1 0-.1-.1-.1-.1H62v-.5c-1.1-1.1-2.2-2.2-3.4-3.3-1.3-1.1-2.6-2.1-4.1-3-3-1.8-6.2-3.2-9.5-4v-.1c-1.6.1-3.3.2-4.9.3 0 .1.1 1.2 0 1.3.2.9.5 1.9.7 2.8v2.6c-.4-1.7-.9-3.4-1.3-5.1-4.1 1.6-8.8 3.7-10.3 7.9.8 2.8 4 4.7 6.9 3.9v2.6c-2.9.8-6.1-1.1-6.9-4v.1l.3 1.5c.3 1 .7 2 1.2 2.9.5.9 1.1 1.8 1.9 2.6.7.8 1.5 1.5 2.5 1.7.2-.3.3-.7.5-1 .3-.7.6-1.5 1.1-2.1.8-.9 1.8-1.6 2.9-2v-.1c2.5-3 6-6.8 10.2-5.6v-.3c5.6 2.6 10.1 7.2 12.6 12.9.1.3 0 .9 0 1.3 0 .3-.1 1 0 1.3-2.4-5.5-6.6-10-12-12.6v.2c-3.1-1.2-5.9.4-8.2 2.6 3.2.4 6.3 2.2 8 5v2.6c-2-3.3-5.8-5.3-9.6-5.1v.3c-1.3.2-2.5.8-3.4 1.7-1 1-1.4 2.3-2 3.5 0 0 0 .1-.1.1-.3.6-.7 1.1-1 1.7-.1.2-.2.4-.3.7.3.8.7 1.5 1.5 2 0 0 .1.1.1.3 3.6.8 7.9 2.2 10.8-.7v1.3c0 .2.1 1.1 0 1.3-3 3-7.6 1.5-11.2.6.5.7 1.3 1.3 1.9 1.8 1.2.9 2.4 1.9 3.7 2.6 2 1.2 4.5 1.8 6.4 3.3 0-.1 0-.1-.1-.1 4.7 2.5 9.4 4.9 14 7.4 7.9 4.2 16 8.1 23.2 13.3 6.9 5 13 10.9 19.2 16.7 2.3 1.3 4.8 1.9 7.4 1.9v.1c4.5 1 9.1 1.6 13.7 1.9 16.6.8 33.4-3.4 47.6-12v-.6c4.5-4.2 8.3-9 11.5-14.3-4.3 1.4-8.5 2.8-12.8 4.1.2-.1-.3-2.4 0-2.5 4.8-1.5 9.6-3 14.4-4.6-.1 0 0 1.1 0 1.3 0 .1.1 1.2 0 1.3l-.5.2c0 .3.1.9 0 1.1-3.2 5.7-7.2 10.9-11.9 15.5.1.4.1.8-.1.9-4.1 2.5-8.3 4.6-12.7 6.4-10.3 4.1-21.3 6.1-32.3 6-.3 3.3.6 6.6 1.5 9.7.8 2.6 1.8 5.2 2.9 7.8 2.2 4.9 5.1 9.5 8.6 13.6 2.6-2 5.4-3.8 8.3-5.4 3.8-2 7.8-3.6 11.9-4.7 2.1-.5 4.2-1 6.3-1.3.5-.1.9-.1 1.4-.2-.6-1.6-.7-3.4-.7-5.2 0-2.4-.3-5.2 1.3-7.2 1.3-1.7 3.2-3 4.9-4.2.2-.2.4-.3.7-.5 0 0 .1 0 .1-.1-.2.1 0 1.6 0 1.9 0 .2.2 1.8 0 1.9-.3.2-.5.4-.8.5-.4.4-.8.9-1.1 1.4-.1.2-.1.3-.2.5.6 2 1.8 3.7 2.9 5.3 1.2 1.9 2.5 3.7 4.1 5.4 1.6 1.7 3.5 3 5.4 4.3.2.2 0 1.6 0 1.9 0 .2-.2 1.8 0 1.9-2.4-1.7-4.6-3.3-6.4-5.5-1.7-2-3.2-4.3-4.6-6.6-.7-1.1-1.2-2.3-1.5-3.6-.3-1.2-.2-2.5-.2-3.8v-.1c-.9.7-1.8 1.4-2.6 2.2-.7.7-1.3 1.4-1.6 2.3l-.3 1.2c.2 1.6.8 3.2 1.8 4.5.5.6 1 1 1.6 1.4 1 .1 1.9.3 2.9.7.1 0 .1.4.1.8.1 0 .1 0 .2.1.2.1 0 1.7 0 1.9 0 .2-.1 1.8 0 1.9-1.1-.5-2.1-.9-3-1.6-1.6-.2-3.2 0-4.8.3-2.2.3-4.3.8-6.5 1.4-7.8 2.2-15 6.1-21.2 11.3-3.1 2.6-5.9 5.6-8.3 8.8-1.2 1.6-2.3 3.3-3.3 5-.2.4-.4.8-.7 1.2 1.6-.7 3.2-1.4 4.8-2 3.7-1.5 7.6-2.7 11.5-3.7-.1 0 0 1.7 0 1.9 0 .2.1 1.8 0 1.9-3 .8-6 1.7-9 2.8 0 .5.1 1.1-.1 1.2-10 7.8-16.6 20.1-17.5 32.8.3.1.6.2 1 .3v.5c.1 0 .3-.1.4-.2-.1 0 0 1.7 0 1.9 0 .2.1 1.8 0 1.9-9 3.5-18.3 6.3-27.7 8.5-4.1 1-8.3 1.8-12.4 2.5.1.1.2.1.3.2.2.1 0 1.6 0 1.9 0 .2-.1 1.8 0 1.9-1.6-1-3.2-2.1-4.7-3.2-.3 0-.6.1-.9.1-.7.1-1.7.2-2.2-.5-.3-.6-.2-1.5-.2-2.2-.7-.6-1.3-1.2-2-1.8-.9-.8-1.8-1.9-3.1-2.1-2.6-.5-5.2 1.8-7.1 3.2-2.1 1.5-4.2 2.9-6.4 4.4 0 .3 0 .4-.1.4-.4.1-.8.2-1.1.4v.3c-.1 0-.3 0-.4.1-.6.5-1.2 1.1-1.6 1.8-.9 1.5-1.6 3.2-2.3 4.8-1.3 2.8-2.6 5.7-3.9 8.5 1 .5 2.1.7 3.2.9 1.5.2 3.1.4 4.6.6v-.1h.3v-.8c1.6-4 3.7-7.9 6.1-11.5-.1.1 0 .4 0 .5v3.2c-1.9 2.7-3.5 5.6-4.9 8.6 4.1.2 8.1-.3 12.2-.6 4.5-.4 9.1-.7 13.6-.9 9.2-.4 18.4-.4 27.5-.1v.2c6.7.3 13.4.8 20 1.5 6.2.6 12.4 1.4 18.5 2.3 6.3.9 12.5 2.1 18.8 3.2 6 1 12.1 1.7 18.3 1.3 6.2-.4 12.3-1.8 18.1-3.8 0 0-.1.1-.1.3 3.9-2.9 7.5-6.2 10.8-9.8 6.1-6.9 10.8-15 13.6-23.8 1.5-4.8 2.5-9.8 2.9-14.9.1-1.5.1-3 0-4.6l-.2-.2V314.5c-.3-2.4-.7-4.8-1.3-7.2-.1-.6-.1-1.2 0-1.9-2.8-8.1-8.9-14.9-16.2-19.7-.2-.1 0-1.6 0-1.9 0-.2.2-1.8 0-1.9 9.7 6.3 17.1 16 17.8 27.8.6-1.4 1-2.9 1.4-4.4.2-.8.3-1.7.5-2.6 0-.4.1-.9.1-1.3v-1.2s.1.1.1.4zM46.1 172.2c-1.4.1-2.9-.3-4-1.2v-2.6c1.2.9 2.6 1.3 4 1.2v2.6zm113.2 10.5c.6-4.3 2.5-8.4 5.4-11.6-3.3.4-6.5 1.3-9.6 2.7-3.2 1.5-6.1 3.5-8.6 6-2.8 2.8-5 6.2-7.5 9.3-4.9 6-10.6 11.3-16.8 15.9.4-.3-.4-2.2 0-2.5 3.5-2.6 6.9-5.4 10-8.5 2.8-2.7 5.4-5.6 7.8-8.6 2.5-3.1 4.7-6.4 7.6-9.1 5.2-4.8 12.1-7.6 19.1-7.9v.7c.3-.2.5-.4.8-.6-.1.1 0 1.1 0 1.3 0 .2.1 1.1 0 1.3-4.4 3.5-7.3 8.6-8.1 14.2.1-.9-.2-1.7-.1-2.6zm14.4-1.7c-.5-2.4-3.5-1.7-5.1-1.3-2.2.6-4.4 1.3-6.6 2 .1 0 0-1.1 0-1.3 0-.1-.1-1.2 0-1.3 2.1-.8 4.3-1.5 6.6-2 1.6-.4 4.6-1 5.1 1.3.2.9-.1 1.8 0 2.6z"/>
    <path class="st10" d="M140 277.7c-3.9 3.2-7.4 6.9-10.4 11-1.4 2-2.9 4.2-3.8 6.5-.4.9-.6 1.8-.7 2.8-.1.1-.2.1-.2.2s-.1.1-.1.2c-.1.2 0 .5 0 .7V302.1c0 .1 0 .1.1.2v-.4.8c0 .6 0 .6 0 0v-.9c0 .5 0 .3.1-.1.4-.4 1.2-.6 1.7-.9l2.1-.9c-8.1 8.5-12.6 20-12.7 31.9v.1l-3.3-.9c-5.7-3.5-10.8-8-14.8-13.3-2-2.7-3.7-5.5-5-8.6-.6-1.5-1.1-3-1.5-4.6-.2-.8-.3-1.6-.4-2.4-.1-.5-.1-.9-.2-1.4v-.4c2.5-.7 4-3 5.4-5v-3.1c0-.1-.1-.5 0-.5-1.4 2.1-2.9 4.3-5.5 5-1.2.3-2.4.2-3.5-.3h-.1c.1-.2.2-.3.3-.5.6-1.1 1.2-2.2 1.6-3.4 1.9-4.6 2.7-9.7 3.3-14.6 1.4-10.3 1.6-20.8.8-31.1-.4-5.4-1.1-10.7-2.2-15.9.5.4 1.1.9 1.6 1.3 3.4 3 6.6 6.1 9.9 9.1v.3c2.3 1.5 5 2.3 7.8 2.4 5.6 1.3 11.3 1.9 17.1 2-.3 5.3 1.3 10.6 3.1 15.4 2.4 6 5.5 11.4 9.5 16.3z"/>
  </g>
  <circle class="st1" cx="72.8" cy="88.8" r="1.5"/>
  <circle class="st1" cx="105" cy="89.3" r="1.5"/>
</svg>