<svg version="1.2" baseProfile="tiny" xmlns="http://www.w3.org/2000/svg" viewBox="0 0 479.3 460.8" overflow="visible" xml:space="preserve">
  <path d="M117.1 408.2v-.1.1z"/>
  <path fill="#FDEBE3" d="M152.9 187c-4.9-.5-9.8-.3-14.6.4v-.9c-1.5.5-3.3 1-4.7-.1-1.1-.9-1.5-2.3-1.7-3.6-.1-.4-.1-.7-.1-1.1v-.1c.1-.8.1-1.6.3-2.4.3-1.9 1.2-4.1 1.9-5.9v-.1c0 .6 0 1 .1.9v.1c0 1.3.3 2.5.9 3.6 1.3 2.2 3.8 3.3 6.3 2.9 1.1-.2 2.1-.6 2.9-1.3 1.9 1.9 3.8 3.7 5.9 5.4.9.7 1.9 1.4 2.8 2.2zM209.7 340c-.5 3-1.1 6-1.7 9.1-1.7 8.6-3.7 17.1-5.9 25.6 0-.6 0-1.1-.1-1.7-.1-.3-.4-.7-.7-.4v1.1c-.4.3-1 .4-1.4.5-.8.2-1.7.4-2.5.4-1.8 0-3.6-.6-5.1-1.7-1.4-1.1-2.4-2.6-2.9-4.3-.1-.2-.1-.4-.1-.5.2-.7.4-1.3.7-2 .1-.1 0-.5 0-.5V363c0-.1-.1-.5 0-.5-.4.7-.6 1.5-.8 2.3-1 2.6-2.4 5.8-2.5 8.2 0 2.9 0 5.8.6 8.6.6 2.9 2.1 6 4.4 8-1.4 1.6-2.6 3.4-3.5 5.3-1.8 3.5-3.4 7.2-4.4 11-.9 3.4-1.2 6.9-1.2 10.4v.8c-3-1.9-5.7-4.4-7.8-7.3-1.1-1.5-2-3.2-2.6-5-.3-.9-.6-1.8-.7-2.8-.1-.3-.1-.6-.1-1v-.1c.1-1 0-2 0-2.9.1-.4.2-.8.3-1.1.1-.5 0-1.3 0-1.9s-.2-1.3 0-1.9c-.8 3-1 6-1 9v1.6c0 1.9.1 3.8.4 5.7-9.9-6.4-12.1-20.4-12.7-31.2-.2-3.7-.2-7.4-.2-11.1 0-.7 0-1.4.1-2.2h.1c.1-.1 0-1.7 0-1.9v-.2c.1-3.4.2-6.8.2-10.2 0-4.3 0-8.7-.4-13-.6-6.6-1.9-13.1-4.6-19.1.7.3 1.4.6 2.2.7-.1 0-.1-.2-.1-.4.2 0 .5 0 .7-.1.1-.1 0-1.7 0-1.9V317c-.9.5-1.8-.6-2.1-1.3-.5-1-.9-2.2-1.2-3.3-.2-.5-.3-1.1-.4-1.7.1-.8.4-1.5.8-2.2.1-.1 0-.5 0-.5v-2.6c0-.1-.1-.5 0-.5-.7 1.2-1 2.5-1 3.9v1.9c0 1.3 0 2.5.2 3.8.1.8.4 1.5.6 2.3-2.2-1-4.1-2.5-5.8-4.2 0-.3 0-.5-.1-.5-.2-.1-.4-.1-.5-.1l-.7-.7c-3.1-3.3-5.9-6.5-7.4-10.9-.7-2-1.1-4-1.4-6-.1-1-.2-1.9-.3-2.9 0-.5.1-1 .1-1.5.5-3.9 1.9-7.6 4.4-10.6.1-.1.1-.3.1-.5h.9c.1 0-.1-3.8 0-3.8-3.1.2-6.1-.5-8.8-1.8 1.1-.6 2.2-1.4 3.1-2.2 2.4-2.2 5-4.6 6.3-7.6.3-.7.5-1.5.6-2.2h.3V258.2l.3-5.4c.2-3.6-.1-7.6 1.9-10.8.2-.3 0-1.5 0-1.9v-.1c1.4-1.4 3.1-2.6 4.9-3.4.1-.1 0-1.7 0-1.9v-1.9c-4.7 2.1-8.2 6.3-9.5 11.3v.5c-.5-.9-.9-1.9-1.2-2.9-.2-.6-.3-1.3-.4-2 0-.2 0-.3-.1-.5.1-.6 0-1.2.1-1.8.1-.7.2-1.4.4-2 .3-1.4.8-2.7 1.4-4 1.1-2.6 2.5-5.1 4-7.5 1.3-2 2.5-4.4 4.8-5.4 3-1 6-2.2 8.6-4 5.7-3.9 8.9-10.4 11.8-16.5.1-.2.1-.6.1-1.1 6.3 1.4 12.9 1 19.2.6-2.4 19.2-3.9 38.4-3.5 57.7.4 19.2 3.1 38.5 9.4 56.7 3.2 9.8 7.7 19.3 13.4 28.1z"/>
  <path fill="#EF7F07" d="M201.4 377.4c-2.3 8.8-4.7 17.6-7.2 26.4-1.5 5.1-3 10.2-4.5 15.4-.7 2.5-1.5 5-2.2 7.4-.3 1-.6 2.1-.9 3.1v-.2c0-.1.1-1 0-1.5v-.1c0-.1-.1-.2-.2-.2s-.1.1-.1.2c-.4-.2-.9-1.4-1-1.6-.4-.8-.8-1.7-1.1-2.6-.3-.8-.5-1.7-.7-2.6.1.1.2.1.3.2v-1.8c0-.4.2-1.5 0-1.9-.3-.5-.6-.9-.9-1.4 0-.6.1-1.1.2-1.7.2-1.9.6-3.7 1.1-5.6 1-3.7 2.5-7.2 4.3-10.5 1.5-2.9 3.3-5.6 6.1-7.3.6.2 1.2.3 1.9.4-.1 0 .1-3.7 0-3.8-.6 0-1.2-.1-1.7-.3 0-.1 0-.2.1-.2-.1 0-.2.1-.2.1-2.9-1-4.9-3.7-6.1-6.5-.8-2-1.3-4.2-1.5-6.3V373.9c.1-.6.1-1.2.2-1.9.2-1.2.5-2.4.9-3.6.1-.4.8-1.7 1.1-2.5v3.3c0 2 .3 3.8 1.3 5.5 2 3.1 6.1 4.5 9.6 3.3l1.2-.6zM185.5 431.4c0-.3 0-.6-.1-.7-.3-.3-.4.2-.4.5V431.5c-2-2.4-4.5-4.8-7.9-4.3-.1 0-.3.1-.4.1 1.8-1.4 3.6-2.7 5.5-4V420.4c.3.2.5.4.8.5.1 1.9.4 3.8 1 5.7.1.4 1.1 3.4 1.9 4.7-.2 0-.3.1-.4.1zM171.6 431.2c-.8.9-1.5 1.7-2.2 2.6-4.3 5.6-7.2 12.2-8.3 19.2v.1c-.1-.1-.3-.2-.4-.4v.5c-.5 0-1 .1-1.6 0-.3 0-.5-.1-.7-.2v-.5c-.2.1-.3.1-.5.2-.2-.1-.3-.3-.4-.4v-.8c0-.1-.1-.5 0-.5-.1.1-.1.2-.1.3v-.2c0-.1-.1-.5 0-.5-.3.3-.5.1-.7-.1.2-1.3.6-2.6.9-3.9.5-2.1 1.2-4.2 2-6.3v-3.1c0-.1-.1-.4 0-.5-1.2 3.1-2.1 6.4-2.7 9.7-.2 1.2-.4 2.3-.5 3.5v-.2 1.6c0 .7-.1 1.5 0 2.2-1.6.5-3.3.6-5 .5-1.2-.1-2.4-.3-3.5-.6-.6-.2-1.5-.4-2.1-.8.3-1 .7-1.9 1-2.8.3-.7.5-1.4.8-2.1.2-.2.5-.5.6-.8.1-.2.1-.6.1-.9.3-.6.5-1.2.8-1.8 1.7-3.5 3.6-6.9 5.9-10.1 2-2.8 4.3-6.3 8-6.8 2.6-.3 5 1 7.1 2.6v.2c.2.5.6.7 1.1.8.1-.1.3.1.4.3z"/>
  <path fill="#E4610E" d="M114.6 449.4c0 .4 0 .8.1 1.1-.1 0-.2-.1-.2-.2.1-1.2.1-2.4.1-3.6 0-1.1 0-2.2-.1-3.2.1 1.2-.1 2.4 0 3.6v.2c-.1.8-.2 1.6-.4 2.4 0 .1 0 .2-.1.2-.3-.2-.5-.4-.8-.6.1.1.1.6 0 1.1-.3 0-.7.1-1.1.1-.8.1-1.6.1-2.4.1-2.5-.1-5.3-1.1-6.3-3.6v3.1c-.1-1.7-.2-3.4-.2-5v-.3c.2-1.2.4-2.3.8-3.4.6-1.7 1.6-3.4 3-4.6 2.8-2.6 6.4-2.4 9.9-2-.7 4.2-1.5 8.4-2.2 12.6-.2.7-.1 1.4-.1 2z"/>
  <path fill="#E4610E" d="M181.6 419.9c-2.2 1.6-4.5 3.2-6.6 4.9-.9.7-1.8 1.5-2.8 1.9-.3.1-.7.2-1 .2-2.6-2.2-5.7-4.2-9.1-3.3-3.9 1.1-6.4 5.6-8.5 8.8-2.4 3.6-4.3 7.5-5.9 11.5-.8.8-2 1.1-3 1.5-1.8.7-3.6 1.4-5.4 2-3.1 1.1-6.1 2.3-9.2 3.5 0-.1 0-.1.1-.2-.2.1-.5.3-.7.4-.4.1-.7.3-1.1.4v.1c-4.3 1.9-9.4 1.5-13.4-1 .7-4 1.4-8 2.1-11.9.1-.6 0-1.3 0-1.9s-.1-1.3 0-1.9c.9.1 1.9.3 2.8.4v-1.7c0-.9.1-1.9 0-2.1-.3-1.2-.6-2.4-.7-3.6 0-.2-.1-.7-.2-1.2v-.1c.1-.5.1-1 .1-1.5.1-1 .3-1.9.5-2.9.1.5.3 1 .4 1.5-.3-1 .2-2.3.1-3.4.1-.3.2-.6.2-.9 0 1.6-.1 3.3.3 4.9v-3.6c0-.1-.1-.2-.1-.4.2-.8.4-1.7.8-2.4.9-1.8 2.2-3.2 4-4.1v-3.6c-2.1 1.1-3.7 3-4.4 5.2 0-.4-.1-.8 0-1.1-.6 1.4-1 2.9-1.3 4.4-.9-3.2-1.8-6.5-2.1-9.9 0-.3 0-.7-.1-1 .1-.3.1-.5.1-.7.1-1 .3-1.9.5-2.9.4-1.8.9-3.6 1.6-5.3 2.3-6.2 5.8-12.7 10.9-17.1 2.6-2.3 5.7-3.9 9.2-4.2.1 0 .1-.6 0-1.3.6.1 1.1-.1 1.6-.6.2-.2 0-1.5 0-1.9v-1.3c0-.1-.1-.5 0-.5-1.2 1.4-3.2.2-4.1-.9-1.2-1.5-1.6-3.2-1.9-5.1.1-.5.1-.9.3-1.4.2-1.1.6-2.2 1-3.2.9-2.2 2-4.2 3.2-6.3-.1 1.2-.2 2.5-.2 3.8 0 1.4-.1 2.9.1 4.3.3 1.3 1.2 2.1 2.4 2.6 5.2 2.1 11.4 1.6 16.4-.7v2.1c-.3 10.7-.3 21.4 2.9 31.6 1.9 6.1 5.3 12 11.1 15.2-.1-.1 0-1.7 0-1.9 0-.2.2-1.8 0-1.9 0 0-.1 0-.1-.1v-.2c-.7-2.3-1.2-4.7-1.3-7.1v-.2c.1-.6.1-1.3.2-1.9.1-.8.3-1.5.4-2.3-.4 4.4.1 8.9 2.1 12.8 1.6 3.4 4.5 6.3 7.8 8.7z"/>
  <path fill="#EF7F07" d="M156.9 190c-.5.1-1 .3-1.5.4 0-.4 0-.9.1-1.5.4.4.9.8 1.4 1.1z"/>
  <path fill="#EF7F07" d="M169.8 196.4c-2.6 5.3-5.6 10.7-10.6 14.1-2.6 1.8-5.5 2.9-8.5 3.9-.1 0-.1.1-.1.1l-1.8.6-11.7 3.9v-.8.8c-.1 0-.2.1-.3.1-.4.1.4 3.6 0 3.8.1 0 .2-.1.3-.1.2 5.2-.8 10.6-1.6 15.7-.8 5.3-1.5 10.5-1.6 15.9v.1l-.6.3-.2-.2v.3c-2.3 1.3-4.2 3.3-5.4 5.6-.1.1 0 .5 0 .5v2.7c0 .1.1.5 0 .5 1.3-2.4 3.3-4.4 5.7-5.7.5.4 1.1.7 1.7.8.9.2 1.9.4 2.8.5 1.5.3 2.9.5 4.4.8-1.4 2.4-3.6 4.4-5.7 6.3-2 1.8-4.6 3.4-7.3 2.9-.1 0-.1-.1-.2-.1v.1c-.5-.1-1-.3-1.5-.6.1.1 0 1.7 0 1.9 0 .2-.2 1.8 0 1.9.5.3 1.1.5 1.6.7 2.7 2.7 6.2 4.3 10 4.8-2.5 4.8-2.7 10.5-2.4 16 .2 3.5.9 7.1 2.1 10.4 1 2.6 2.6 4.8 4.4 6.9-2.2.5-4.4 1.8-6.6 2.3-4.6 1-7.5-3-10.3-6-7.1-7.4-14-14.9-20.7-22.7-1.5-1.7-3-3.4-4.1-5.3-.5-.9-1-1.7-1.3-2.7-.2-.5-.3-1-.4-1.5v-.1c.7-5.2 1.8-10.4 2.7-15.6 1.9-10.5 3.7-21 5.6-31.5 1.1-5.9 2.1-11.8 3.1-17.7.7-4.2 1-9.7 4.5-12.7 0 .4 0 .7-.1.8 11.5-6.8 25.1-9.6 38.3-8.1-5.1 1.8-9.8 4.6-13.9 8.1-.2.2.2 1.1 0 1.2 4.9-4.3 10.8-7.4 17.1-9.1.1 0 0-.4 0-.8 1.1.8 2.1 1.5 3.3 2.1-4.8 4.1-9.6 8.2-14.5 12.4-.2.2.2 1.1 0 1.2 5.1-4.4 10.2-8.7 15.3-13.1 2.2 1.3 4.6 2.4 7.1 3.1.6.1 1 .2 1.4.3z"/>
  <path fill="#EF7F07" d="M300.5 375c-2.2-2.4-3.8-5.2-5.2-8.1v1.2c0 .2.1 1.8 0 1.9-4.5 1.5-10.7 3.1-14.1-1.4-1.3-1.7-1.9-3.9-2-6-.1-2.6-.2-5.4.4-8-.1.6 0 1.3 0 1.9s.1 1.3 0 1.9l-.3 1.5.3 1.8c.5 1.7 1.4 3.4 2.9 4.5 3.6 2.8 8.5 1.5 12.5.2-1.3-2.8-2.4-5.7-3.5-8.5-2.4-6.1-4.6-12.3-6.6-18.5-2-6.1-3.8-12.3-4.9-18.7-1.1-6.4-1.5-12.8-2.2-19.2-.7-6.1-1.7-12.1-3.2-18-6-23.5-18-44.9-29.8-65.9-.2-.4 0-1.4 0-1.9 0-.4.2-1.5 0-1.9.1.2.2.4.4.7V211.5c.7-.2 1.4-.5 2.1-.8-.6-.4-1.2-.9-1.6-1.4-.1-.1 0-.4 0-.6v-1.5c-2.3-6.1-5.7-11.8-9.8-16.9-2.6-3.2-5.5-6.2-8.5-9.1-3.4 3.4-7.1 6.5-10.8 9.5.2-.1 0-1.6 0-1.9 0-.3-.2-1.7 0-1.9 3-2.4 6-4.9 8.8-7.5-6.3-5.5-13.1-10.4-20.1-14.9-12-7.8-25.3-14.8-39.9-15.4v-1.2c8.1.4 16 2.7 23.4 6.1 6.6 3 12.9 6.9 18.9 10.9 5.6 3.7 11.1 7.6 16.2 12 .8.6 1.5 1.3 2.2 1.9 1-.9 1.9-1.9 2.8-2.9 3.3-3.6 5.2-7.6 6.4-12.2.8-3.2 1.5-6.5 2.2-9.8-.3-.1-.5-.2-.8-.3-11.2-4.5-23.1-7.1-35.1-7.9-6-.4-12.1-.3-18 .4-5.1.5-10.2 1.4-15.3 1.3-.1.1-.2.3-.3.4v-.5c-1.4-.1-2.8-.2-4.2-.4-.1 0 .1-1.2 0-1.2 1.5.2 3 .4 4.5.4.1-.1.1-.2.2-.3V146.1c5.8.1 11.5-1 17.2-1.5 17.7-1.4 35.6 1.4 52 8.1.3-1.4.6-2.8.9-4.3.5-2.3.9-4.7 1.4-7-11.2-2.1-22.5-3.1-33.9-3.1-2.8 0-5.7.1-8.5.2 0 .5-.1 1-.1 1.5v-1.5c-3.9.2-7.9.5-11.8.9 0 .2-.1.4-.1.6-.3 1.2-.7 3.5-2.2 3.7-1.6.3-2.6-1.3-3.1-2.6-.1-.3-.3-.7-.4-1-1.9.3-3.8.6-5.6.9-3.4.6-6.7 1.2-9.8 2.6.3.3.8.4 1.3.4v1.2c-1 0-1.6-.5-2-1.4 0-.1-.1-1.2 0-1.2 3.7-1.8 7.8-2.4 11.9-3.1 1.3-.2 2.6-.4 4-.6-.5-2.2-.4-4.6-.3-6.8.1-1.7.5-3.4.9-5 .2-.8.8-4 2.2-3.1 0 0 0 .1.1.1.2-.1.4-.1.6-.1.9-.1 1.4.6 1.7 1.4.7 1.8 1.1 3.7 1.2 5.5.2 2.4.2 4.8-.2 7.2.5-.1 1-.1 1.5-.2 3.4-.3 6.7-.6 10.1-.7 0-.4 0-1.2.1-1.2 0-.4 0-.8-.1-1.2-.1-.9-.2-1.8-.5-2.7-.4-1.6-1-3.1-1.8-4.5-1.5-2.5-3.7-4.6-6.3-6s-6.2-2.6-8.7-.4-4.1 5.5-5.2 8.6c.2-.7-.2-1.7 0-2.5.6-1.9 1.5-3.8 2.6-5.5 1-1.5 2.2-3.3 3.8-4 3.2-1.4 7.5.9 9.9 2.9 5.1 4.1 6.4 10.4 6.2 16.6 14.3-.6 28.6.4 42.6 3 1.4-7.1 2.7-14.2 3.9-21.4-1.7-4.7-2.9-9.5-3.8-14.4-1.9-9.9-3-19.9-5.4-29.7-1.3-5.2-3-10.2-4.7-15.2-.7-1.9-1.3-3.9-2.1-5.8.4 2.6.8 5.3 1 8 .9 10.1.8 20.5-.5 30.6-.5 4.1-1.4 8.3-3.4 11.9-1.6 2.7-6 7.7-9.6 5.4-.2-.1 0-1.6 0-1.9 0-.2.2-1.8 0-1.9 2.1 1.4 4.6.2 6.6-1.7-1.2-.2-2.4-.9-3.2-1.4-1.9-1.3-3.7-3.2-4.7-5.3-.5-.9-.6-1.9-.6-2.9v-1.2c0-1.2 0-2.4.1-3.6.1-.8.3-1.6.5-2.3-1.9 1.8-3.6 3.9-5.2 5.9-1 1.2-2 2.6-2.5 4.1-.1.1-.1.3-.1.4.1.4.3.7.5 1.1.1.1 0 .4 0 .6v.6h.2v3.8c-1.4.2-2.5.9-3.4 1.8.4.1.7.3 1.1.4 1.4.7 2.7 1.6 4 2.6.1 0 0 .5 0 .6v3.2c-1.2-1-2.6-1.8-4-2.6-1.1-.6-2.8-1.1-3.6.2V106.4c1-2.3 2.3-5.1 4.9-6-.1-.6-.1-1.2-.1-1.8-9 .9-14-13.5-14.4-14.4l-.1.1v-.1c-9.4-3.4-20.3-4.9-29.8-1 .1 0 .1-.6 0-1.1-9-7.2-17.8-14.8-26.3-22.6 2.1 3.7 4.1 7.5 5.8 11.5 1.8 4.2 3.2 8.6 4 13.1.7 3.9.7 7.8.6 11.8l-.9.8c-.7 1.3-2.8.2-3.7-.2-1.5-.5-3.2-1-4.5-2-2-1.6-2.5-4.3-2.7-6.7-.3.9-.5 1.9-.7 2.9 0 .2-.1.4-.1.6 0 .3.1.5.1.8.5 2.2 1.7 4.2 3.6 5.3.1 0 0 .5 0 .6v.1h.1c-.1 0 0 1.7 0 1.9 0 .2.1 1.8 0 1.9-2.6.7-5 1.9-7.2 3.5-1.1.8-2 1.7-2.9 2.7l-.2.2c.5-.2.9-.5 1.5-.6 1.3-.4 2.6-.3 3.9 0 .1 0 0 1.7 0 1.9 0 .2-.1 1.9 0 1.9-1.9-.6-3.9-.3-5.6.7-.1.1-.2.1-.3.2.1.3 0 .8 0 1.2 0 4.8-.3 9.6-1.8 14.2-.9 2.8-2.4 5.3-3.9 7.9-.8 1.3-1.4 2.7-1.8 4.2-.1.2-.1.5-.1.7.1.2.1.3.1.4.1.4.1.7.1 1.1 5.4-1.2 10.9-2.3 16.5-2.8 1.2-.1 2.5-.2 3.8-.3-.3-.9-.5-1.8-.6-2.7-.3-1.4-.4-2.8-.4-4.2v-1.5c0-2.4.2-4.8.9-7.2-.1.2-.1.4-.1.7 0-.1 0-.2.1-.2.7-.8 1.9-1 2.8-.5-.9-1.1-2-2.1-3.2-3-1-.8-2.3-1.4-3.6-1.1-1.2.3-2.2 1.2-3 2.1-1.7 1.9-2.8 4.3-3.2 6.8.1-.8-.1-1.7 0-2.5.4-2.5 1.5-4.9 3.2-6.8.8-.9 1.8-1.9 3-2.1 1.3-.3 2.6.3 3.6 1.1 4.1 3 6.8 7.8 7.9 12.6.2.8-.2 1.7 0 2.5-.6-2.8-1.8-5.6-3.5-8 .1.3.2.5.2.8.2.9.5 1.8.6 2.7.3 1.4.3 2.8.3 4.3v.5c0 1.1 0 2.3-.3 3.4-.2.8-.4 1.5-.7 2.2h1.5c1.3.1 2.9.3 4 1.1 0 0 0-.1.1-.1v.1c.5.4 1 .9 1.2 1.6.1.4-.1.9 0 1.2-.3-.7-.7-1.2-1.3-1.6-.2.3-.5.6-.7.9v-1.2s0-.1.1-.1c-1.4-.6-3.1-.7-4.6-.7h-1c-.1.1-.1.2-.2.3-.4.5-.8 1.1-1.5 1-.5-.1-.9-.6-1.1-1.1v-.1c-2.2.1-4.5.3-6.7.5-4.6.5-9.2 1.4-13.8 2.4.4 1.5 1.1 2.9 1.8 4.3.6-.2 1.2-.4 1.8-.5 4.4-1.2 8.8-2.5 13.2-3.3 3.2-.6 6.5-.9 9.7-.4.2-.2.4-.3.6-.5V143.3c.9.2 1.8.4 2.6.6.1 0-.1 1.2 0 1.2-1.1-.3-2.1-.6-3.2-.7-.5.4-.9.8-1.4 1.2v-1.2c.1-.1.1-.1.2-.1-3.4-.3-6.9.1-10.3.9-4.2.9-8.5 2-12.7 3.2 1.3 2.2 3 4.3 4.7 6.3 2.6-1.5 5.3-2.9 8.1-4.1 3-1.4 6.1-2.5 9.2-3.4.8-.2 2.8-1.2 3.2 0v.1c.1.2.1.7 0 1v.1-.1s0 .1-.1.1v-.2c-1.3-1.7-17 5.9-18.8 6.9-.3.2-.6.3-.9.5.6.7 1.1 1.3 1.7 2 4.2 5.1 8.3 10.3 12.8 15.1 1 1 2 2.1 3 3.1.3-.2.6-.5.8-.7-.1.1 0 .5 0 .6v1c3.2 3.1 6.6 6 10.3 8.7 5 3.7 10.2 6.9 16.5 8.1 6.1 1.2 12.4.8 18.5.4v2.9c.1-1.2.3-2.3.4-3.5-.2 1.2.2 2.5 0 3.8-1.4 11.2-2.7 22.4-3.4 33.6-1.2 19.3-.6 38.8 3.3 57.8 3.5 17.2 9.7 33.8 19.3 48.6.2.2.1.8.1 1.3 2.6-15.2 4.4-30.5 5.2-45.9-.1.9.1 2.5 0 3.6-.6 11.3-1.7 22.6-3.3 33.8-2.8 20-7.3 39.6-12.6 59.1-2.6 9.8-5.4 19.5-8.3 29.1-1.4 4.8-2.9 9.6-4.3 14.4-.2.8-.4 2.4-1.1 2.9-.1 0-.1 0-.1.1 0 .4 0 .8.1.9-2.1-2.6-4.9-5.8-8.6-5.2-1.7.3-3 1.5-4.2 2.7s-2.4 2.6-3.5 4c-3.6 4.6-6.1 10-7.5 15.6h.6v1.1c3.9 2.9 9.3 3.6 13.9 1.8v-2.1c0-.9 0-1.7.1-2.6.2-1.6.7-3.3 1.4-4.8-.1.1 0 .4 0 .5v3.1c-.5 1.1-.9 2.2-1.2 3.3l-.3 1.8v.6c.1-.1.3-.1.5-.2v-.7c2.9 1.6 6.2 1.9 9.4 1.7 3.7-.2 7.3-.8 10.9-1.3 3.8-.6 7.6-1.2 11.4-2 1.8-.4 3.7-.7 5.5-1.1 5-9.7 9.4-19.8 13.3-30 7.1-18.4 12.9-37.3 18.9-56 6-18.8 12.3-37.5 20.3-55.5-.2.5 0 1.4 0 1.9s.2 1.4 0 1.9c-4.5 10.2-8.5 20.6-12.2 31.1-6.5 18.6-12.2 37.6-18.4 56.3-5.5 16.5-11.6 33-19.2 48.7v.2c4.2-.7 8.4-1 12.7-1.2 17.1-.5 34.4.8 51.3 3 0 0 0 .2.1.5 0-.1 0-.2.1-.2 1.8-2.2 3.2-4.7 4-7.5.4-1.4.8-2.7.9-4.1 0-.3.1-.6.1-1v-.7c0-.3 0-.6-.1-.9-.2-1.2.2-2.5 0-3.8.8 5.8.3 11.8-2.1 17 3.5-1.2 6.6-3.2 9.4-5.7 6.5-6 10.3-14.3 11.9-22.9 1-5.6 1.3-11.2 1.1-16.9-.1-2.7-.2-5.5-.4-8.2-.1-1.8-.6-3.7-2.3-4.6-.2-.1 0-1.7 0-1.9v-2.6c0-.2.1-1.8 0-1.9 1.7.7 3.6.3 5.1-.7 0-.1 0-.2-.1-.2l.1.1c.6-.4 1.1-.8 1.6-1.3 1.2-1.2 2-2.7 2.8-4.2-4.7-.2-9.3-2.8-12.5-6.3zM164.4 150.7v1.2c-.6.4-1.1.9-1.7 1.3v-1.3c.6-.3 1.1-.7 1.7-1.2zm-1.3-8.1v1.1c-.6.4-1.3.7-1.9 1.1v-1.3c.6-.4 1.3-.7 1.9-1.1v.2zm-15.5 4.2 1-1v1.3l-1 1v-1.3zM191 166c-14.8-6.2-30.8-9-46.8-8.2v-1.2c3.9-.2 7.8-.2 11.8.1v-.9c-.8-4-1.3-8-1.5-12.1v-.4c-1.4-4.5-3.4-8.7-6.1-12.6-.1-.2 0-.6.1-.9v-.1c0-.1 0-.2-.1-.2l.1.1c5.9-1.2 12.1-.2 17.3 2.7.2.1-.2 1.2 0 1.2-.1-.1-.2-.1-.3-.1v.1c-2.7.4-5 1.9-6.9 3.7-1 .9-1.9 1.8-2.6 2.9-.3.5-.6 1.1-.8 1.6-.1.2-.2.5-.2.7 0 .1-.1 1.1-.1.6v1.2c-.1-.2-.1-.5-.2-.7.2 4.2.8 8.3 1.7 12.4v.7c11.9.7 23.7 3.5 34.8 8.1 0 .1-.3 1.2-.2 1.3zm38.4 93.3c-.7 1.7-1.3 3.5-1.7 5.3-.4 1.6-.5 3.2-.6 4.8 0 .1 0 .3-.1.6v.2c0 .6.1 1.2.2 1.8.1.9.3 1.8.4 2.7.4 1.8.9 3.6 1.6 5.3.2.5 0 1.3 0 1.9 0 .5-.2 1.4 0 1.9-1.8-4.6-2.3-9.3-2.3-14.2 0-4.3.5-8.5 1.9-12.5-2.2 2.6-4.5 5.2-6.7 7.9-2 2.5-3.9 5.2-4.8 8.4-1 3.6-1 7.5-1.4 11.2-.2 1.9-.3 3.8-.5 5.6l-.3 3c0 .1 0 1.1-.1 1.4 0-.3-.1-1.2-.1-1.3-.1-1.2.1-2.5 0-3.8 0 .3.1.6.1.9 0 .5.1.6.1.2.1-.4.1-.8.1-1.2l.3-3c.2-2 .4-3.9.5-5.9.3-3.6.3-7.4 1.3-10.9.9-3.2 2.9-6 5-8.5 2.3-2.8 4.7-5.5 7-8.2-.2.3 0 1.5 0 1.9 0 .2 0 .6.1 1 0-.1 0-.1.1-.2 0 .1-.1.2-.1.4v.3c0 .4.1.9.1 1.2 0 .4.1 1.3-.1 1.8zm33.9 26.3v.2c0 1.9-.2 3.8-.7 5.7-1.1 3.9-3.4 7.4-6.6 9.8.2-.1 0-1.6 0-1.9 0-.2-.2-1.7 0-1.9 2.6-1.9 4.6-4.5 5.8-7.5.6-1.5 1.1-3.1 1.3-4.7 0-.2.1-.5.1-.8-.1-.6-.1-1.2-.3-1.8-.3-1.2.2-2.6 0-3.8.4 1.9.4 3.8.4 5.7v1zm3.4 5.3c-.2-.4 0-1.5 0-1.9s.2-1.6 0-1.9c2.7 4 3.7 8.6 3.7 13.4v1.7c-.1 4.3-.8 8.4-3.1 12.2.2-.4 0-1.5 0-1.9s-.2-1.5 0-1.9c1-1.6 1.8-3.4 2.3-5.3.3-.9.5-1.9.6-2.8.1-.5.1-.9.1-1.4-.3-3.5-1.5-7.1-3.6-10.2zm6.3 87.9c-.4-4.3-5.3-6.6-8.7-8-4.4-1.9-9.1-2.9-13.9-3.1-.1 0 0-3.8 0-3.8 4.8.2 9.5 1.2 13.9 3.1 3.5 1.5 8.4 3.8 8.7 8 .1 1.3-.1 2.5 0 3.8zm5.4-20.5c-2.1 3-3.2 6.4-3.6 10 0 .4.1.8.1 1.2.1.9.3 1.8.6 2.7.5 1.8 1.3 3.4 2.2 5 .2.4 0 1.4 0 1.9 0 .4-.2 1.6 0 1.9-2.6-4.1-3.1-8.6-3.1-13.4 0-4.6 1-9 3.7-12.9-.2.3 0 1.5 0 1.9s.4 1.4.1 1.7z"/>
  <path fill="#E4610E" d="M144.9 96.5c.1-.1 0-.5 0-.6v-2.7c0-.1-.1-.4 0-.6-.7 1.2-2.7.2-3.6-.1-1.5-.6-3.3-1-4.6-2-1.3-1.1-2-2.7-2.4-4.3.2-.5 0-1.3 0-1.9V83c0-.2-.1-.4 0-.6-.1.4-.3.9-.4 1.3 0-.2 0-.4-.1-.6v.7c-.3 1.2-.6 2.5-.8 3.8-.2 2-.2 4.1-.1 6 .1 1.7.6 3.4 1.6 4.8-2.4 1-4.6 2.4-6.5 4.2-.8.7-1.5 1.5-2.1 2.4-.2-4-.6-8-.9-12-.7-8-1.3-16.1-.9-24.2.2-3.8.5-7.7 1.1-11.4.2-1.5.3-3.4 1.1-4.6.2-.3.6-.6.9-.8.3 0 .6.1.9.2.7.7 1.4 1.3 2.1 2 .2.3.4.7.6 1 1 1.6 2 3.3 2.9 5 2 3.5 4 7 5.7 10.6s3.2 7.2 4.3 11c.5 1.8.9 3.6 1.3 5.5.2 1 .3 2 .4 3 .1.6.1 1.1.1 1.7 0 .5 0 2.5.1.3v3.1l-.7 1.1zM229.3 76.5c-.1 4.7-.5 9.5-1.3 14.2-.6 3.4-1.4 7-3.2 10l-.1.1v-.4c0-.1-.1-.5 0-.6-1.9 1.8-5.3-.2-6.9-1.5-1.7-1.4-3.5-3.4-4.2-5.6 0-.2.1-.3.1-.4l.6-2.1c.5-1.4 1.2-2.7 2-3.9v-3.2c0-.1-.1-.5 0-.6-.4.6-.7 1.2-1 1.8v-1.1c0-.1-.1-.5 0-.6-1.6 1.3-2.9 2.7-4.2 4.3-1.3 1.5-2.6 3.1-3.7 4.7-1 1.5-1.5 3.1-1.6 4.9 0 .6 0 1.3-.1 2-9 .9-14-13.5-14.4-14.4 3.1-2.5 5.3-6.1 7.7-9.1 2.6-3.2 5.2-6.4 7.9-9.5s5.5-6.2 8.4-9.1c2.4-2.6 5-5.2 8.3-6.5 0 .2 0 .3-.1.4.1-.2.1-.3.2-.5.2-.1.3-.1.5-.2.1 0 .1-.3.1-.6.1-.1.2-.2.3-.2v.7c0 .2 0 .4-.1.4 1.9-.6 2.2 3.2 2.4 4.3.4 2.4.8 4.7 1.1 7.1 1 5 1.5 10.1 1.3 15.2z"/>
  <path fill="#EF7F07" d="M479.1 302.6c0 .5-.1.9-.2 1.4-.2 1.2-.5 2.5-.9 3.7-1.5 4.9-4.3 9.4-6.7 13.9-2.5 4.7-4.2 9.6-5.2 14.8-1 5.1-1.4 10.3-2 15.4-.5 4.7-1.1 9.3-1.8 13.9-1.4 9.1-3.2 18.2-5.8 27.1-5.2 17.4-14 34.8-28.5 46.2-3.9 3-8.2 5.5-12.9 7-5.1 1.7-10.5 2.5-15.8 3.3-11 1.7-22.3 2.9-33.4.9-18.8-3.3-34.6-15-48.5-27.3-3.5-3.1-7.6-7-11-10.1v-6.5c-.1-3.3-.2-6.6-.4-10-.1-1.6-.1-3.5-1-4.9 1.3.1 2.6-.3 3.8-1 3.6 3.7 6.5 8 9.9 11.9 2.7 3.2 5.7 6 9 8.5 6.6 5 14.2 8.6 22.2 10.7 16.2 4.2 33.8 2 47.9-7.2 14-9.2 24-24.2 27.2-40.7 1.7-8.6 1.4-17.5.1-26-.4-2.8-.9-5.6-1.1-8.4l-.3-4.2v-.4c0-.7.1-1.4.1-2 .4-4.5 1.4-8.9 2.9-13.1 3-8.3 8.1-15.9 14.8-21.8 6.8-6 16.2-11 25.5-8.7 4 1 7.9 3.3 10.1 6.9 1.1 1.7 1.7 3.6 2 5.6-.1.1-.1.5 0 1.1z"/>
  <path d="m148.6 145.8-1 1v1.3l1-1v-1.3c.1 0 .1 0 0 0zM163.1 142.6v-.2c-.7.4-1.3.7-1.9 1.1v1.3c.6-.4 1.3-.7 1.9-1.1v-1.1zM162.7 152v1.3c.6-.4 1.1-.9 1.7-1.3v-1.2c-.6.4-1.1.8-1.7 1.2zM214.9 293.3c0 .1.2 1 .1 1.3.1-.3.1-1.3.1-1.4l.3-3c.2-1.9.3-3.8.5-5.6.3-3.7.4-7.6 1.4-11.2.9-3.1 2.8-5.8 4.8-8.3 2.2-2.7 4.5-5.3 6.7-7.9-1.4 4-1.9 8.2-1.9 12.5 0 4.9.5 9.6 2.3 14.2-.2-.5 0-1.4 0-1.9s.2-1.4 0-1.9c-.7-1.7-1.2-3.5-1.6-5.3-.2-.9-.3-1.8-.5-2.7-.1-.6-.1-1.2-.2-1.8v-.1c0-.3.1-.8.1-.8.2-1.6.3-3.2.6-4.8.4-1.8 1-3.6 1.7-5.3.2-.5 0-1.4 0-1.9 0-.3-.1-.8-.1-1.2v-.3c0-.1 0-.3.1-.4 0 .1 0 .1-.1.2 0-.4-.1-.8-.1-1 0-.3-.2-1.6 0-1.9-2.3 2.7-4.7 5.4-7 8.2-2.1 2.6-4 5.3-5 8.5-1 3.5-1 7.3-1.3 10.9-.2 2-.4 3.9-.5 5.9l-.3 3c0 .4 0 .8-.1 1.2 0 .4 0 .3-.1-.2 0-.3 0-.6-.1-.9.3 1.4.1 2.6.2 3.9z"/>
  <path d="M227.1 270c.1-.3.1-.5.1-.6-.1.2-.1.4-.1.6zM266.7 290.9c2.1 3.1 3.3 6.7 3.6 10.4 0 .5-.1.9-.1 1.3-.1 1-.3 1.9-.6 2.8-.5 1.9-1.3 3.6-2.3 5.3-.2.4 0 1.5 0 1.9s.2 1.5 0 1.9c2.3-3.8 3-7.9 3.1-12.2.1.3.1-1.4 0-1.7 0-4.8-1-9.4-3.7-13.4.2.3 0 1.5 0 1.9 0 .4-.2 1.5 0 1.8zM261.7 290c-1.3 3-3.3 5.6-5.8 7.5-.2.1 0 1.6 0 1.9 0 .2.2 1.7 0 1.9 3.2-2.4 5.5-5.9 6.6-9.8.5-1.9.7-3.8.7-5.7v-1c0-1.9 0-3.8-.4-5.7.2 1.2-.3 2.5 0 3.8l.3 1.8c0 .2 0 .5-.1.8-.2 1.5-.6 3-1.3 4.5zM274.7 367.5c0 4.8.5 9.3 3.1 13.4-.2-.3 0-1.5 0-1.9s.2-1.5 0-1.9c-1-1.5-1.7-3.2-2.2-5-.3-.9-.5-1.8-.6-2.7-.1-.4-.1-.8-.1-1.2.4-3.6 1.5-7 3.6-10 .2-.3 0-1.5 0-1.9s-.2-1.6 0-1.9c-2.8 4-3.8 8.4-3.8 13.1zM273 375c-.4-4.3-5.3-6.6-8.7-8-4.4-1.9-9.1-2.9-13.9-3.1 0 0-.1 3.8 0 3.8 4.8.2 9.5 1.2 13.9 3.1 3.5 1.5 8.4 3.8 8.7 8-.1-1.3.1-2.5 0-3.8z"/>
  <path d="M479.3 301.2c0-2.2-.2-4.3-.9-6.3-3.1-8.9-13.6-11.7-21.9-9.5-9 2.3-16.9 9-22.4 16.4-5.4 7.2-8.9 15.8-10.1 24.7-.6 4.3-.6 8.7-.4 13 .3 5.5 1.4 10.9 2 16.4.2 1.3.3 2.6.3 4v.7c0 .5 0 1-.1 1.5-.1 2.2-.4 4.4-.8 6.6-.7 4.2-1.9 8.3-3.5 12.2-3.1 7.9-7.8 15.1-13.7 21.2-5.9 6.1-13 10.9-20.9 14-7.8 3-16.3 4.2-24.7 3.7-16.8-.9-33.3-8.5-44.2-21.5-2.6-3.1-5-6.4-7.6-9.5 1.8-2.1 2.8-4.8 4.2-7.1v-.6c.5-.1 1-.2 1.4-.3.4-.1-.3-3.7 0-3.8-5.1 1.4-10.5-.7-14.3-4.1-4.2-3.9-6.6-9.3-8.8-14.5-4.9-11.9-9.4-24.2-12.2-36.7-2.8-12.4-2.7-25.2-5.4-37.6-2.6-11.8-6.8-23.1-11.8-34-5.5-11.9-11.9-23.4-18.3-34.9 2.7-1 5.3-2.1 7.8-3.3v-3.7c-2.8.7-5.8-.3-7.8-2.4v.4c-3.6-9.8-10.1-18.2-17.8-25.3 3.2-3.3 5.5-6.9 6.8-11.4 1.4-4.9 2.3-10 3.4-15 5.7 2.4 11.2 5.2 16.5 8.5-.2-.1.2-1.1 0-1.2-5.2-3.2-10.6-6-16.3-8.4.8-3.8 1.6-7.6 2.3-11.4 2.7.5 5.4 1.1 8.1 1.7 7.8 1.8 15.4 4.1 22.9 6.9.1 0 .2.1.3.1-.1-.1.1-1.2 0-1.2s-.2-.1-.3-.1c-10-3.7-20.3-6.6-30.8-8.6.1-.6.2-1.1.3-1.7 1.1-5.9 2.2-11.8 3.2-17.7.1-.4.1-.8 0-1.2.2.4.3.9.5 1.3-.2-.5 0-1.4 0-1.9s.2-1.4 0-1.9c-3.8-9.5-5.3-19.7-6.9-29.7-.8-5-1.6-9.9-2.8-14.9-1.2-5.1-2.8-10.1-4.4-15-.9-2.7-1.8-5.5-3-8.2-.3-.8-.7-1.6-1.1-2.3-.1-.3-.2-.5-.4-.8-.1-.2-.2-.4-.3-.5-.1-.2-.3-.6-.5-.8-.4-.4-.3-.4-.8-.1-.3.2-.5.5-.6.8-3.4 1.3-6 3.9-8.5 6.5-2.8 3-5.6 6-8.4 9.1-2.7 3.1-5.4 6.3-7.9 9.5-2.4 3-4.6 6.6-7.6 9 0-.6 0-1.1-.1-1.2-9.4-3.4-20.3-4.9-29.8-1v.1C150.4 69.6 140 60.5 130 51c-.3-.5-.7-1-1.1-1.4 0-.1 0-.2-.1-.3-.5-1.1-1.9-.9-2.6-.1-.9 1-1 2.9-1.2 4.2-.5 3.3-.9 6.6-1.1 9.9-.4 6.5-.4 13-.1 19.6.3 6.9.9 13.8 1.4 20.6.1.8.1 1.6.2 2.4-.2.4-.4.9-.5 1.4-.1.4-.1.8-.1 1.2v3c0 .3 0 .7.3.9.2.2.5.1.7 0 0 .7 0 .7 0 0v1.2c0-.5.1-1 0-1.2.1 0 .2-.1.3-.2 1.7-1 3.7-1.3 5.6-.7-.1 0 0-1.7 0-1.9 0-.2.1-1.8 0-1.9-1.3-.4-2.6-.4-3.9 0-.5.1-1 .4-1.5.6l.2-.2c.9-1 1.9-1.9 2.9-2.7 2.1-1.6 4.6-2.8 7.2-3.5.1 0 0-1.7 0-1.9 0-.2-.1-1.8 0-1.9h-.1v-.7c-1.9-1.2-3.1-3.2-3.6-5.3 0-.2-.1-.5-.1-.8 0-.2.1-.4.1-.6.2-1 .4-1.9.7-2.9.3 2.4.8 5.1 2.7 6.7 1.3 1 3 1.4 4.5 2 .9.3 3 1.4 3.7.2v-3.1c0-.1-.1-.5 0-.6-.7 1.2-2.7.2-3.6-.1-1.5-.6-3.3-1-4.6-2-1.3-1.1-2-2.7-2.4-4.3.2-.5 0-1.3 0-1.9v-1.3c0-.2-.1-.4 0-.5-.1.4-.3.9-.4 1.3 0-.2 0-.4-.1-.5v.7c-.3 1.2-.6 2.5-.8 3.8-.2 2-.2 4-.1 6 .1 1.7.6 3.4 1.5 4.8-2.4 1-4.6 2.4-6.5 4.2-.8.7-1.5 1.5-2.1 2.4-.2-4-.6-8-.9-12-.7-8-1.3-16.1-.9-24.1.2-3.8.5-7.7 1.1-11.4.2-1.5.3-3.4 1.1-4.6.2-.3.6-.6 1-.8.3 0 .6.1.9.2.7.7 1.4 1.3 2.1 2 .2.3.4.6.6 1 1 1.6 2 3.3 2.9 5 2 3.5 4 7 5.7 10.6s3.2 7.2 4.3 11c.5 1.8 1 3.6 1.3 5.5.2 1 .3 2 .4 3 .1.6.1 1.1.1 1.7 0 .5 0 2.5.1.3v3.1c.1-3.9 0-7.9-.6-11.8-.8-4.5-2.2-8.9-4-13.1-1.7-4-3.7-7.8-5.8-11.5 8.5 7.8 17.3 15.4 26.3 22.6v1.1c9.5-3.8 20.3-2.4 29.8 1v.1h.1c3.1-2.5 5.3-6.1 7.7-9.1 2.6-3.2 5.2-6.4 7.9-9.5s5.5-6.2 8.4-9.1c2.4-2.6 5-5.2 8.3-6.5 0 .2 0 .3-.1.4.1-.2.1-.3.2-.5.2-.1.3-.1.5-.2.1 0 .1-.3.1-.6.1-.1.2-.2.3-.2v.7c0 .2 0 .4-.1.4 2-.6 2.2 3.2 2.4 4.3.5 2.4.8 4.7 1.1 7.1.6 5 1.1 10.2.9 15.2-.1 4.7-.5 9.5-1.3 14.2-.6 3.5-1.4 7-3.2 10 0 0 0 .1-.1.1v-.4c0-.1-.1-.5 0-.5-1.9 1.8-5.3-.2-6.9-1.5-1.7-1.4-3.5-3.4-4.2-5.6 0-.2.1-.3.1-.5l.6-2.1c.5-1.4 1.2-2.7 2-3.9v-3.1c0-.1-.1-.5 0-.5-.4.6-.7 1.2-1 1.8v-1.6c-1.6 1.3-2.9 2.7-4.2 4.3-1.3 1.5-2.6 3.1-3.7 4.7-1 1.5-1.5 3.1-1.6 4.9v2c0 .6 0 1.2.1 1.8-2.5.9-3.8 3.6-4.8 6v3.6c.8-1.3 2.5-.8 3.6-.2 1.4.7 2.7 1.6 4 2.6v-3.7c-1.2-1-2.6-1.8-4-2.6-.3-.2-.7-.3-1.1-.4.9-1 2-1.7 3.4-1.8.1 0 0-1.7 0-1.9v-1.9h-.2v-1.1c-.2-.4-.4-.7-.5-1.1 0-.1.1-.3.1-.4.6-1.5 1.5-2.8 2.5-4.1 1.6-2.1 3.3-4.2 5.2-6-.2.8-.4 1.5-.5 2.3-.2 1.2-.1 2.4-.1 3.6v1.2c0 1 .2 2 .6 2.9 1 2 2.8 4 4.7 5.3.8.5 2 1.2 3.2 1.4-2 1.8-4.4 3.1-6.6 1.7.1.1 0 1.7 0 1.9 0 .2-.2 1.7 0 1.9 3.6 2.4 8-2.6 9.6-5.4 2.1-3.6 2.9-7.8 3.4-11.9 1.3-10.1 1.4-20.5.5-30.6-.2-2.7-.6-5.3-1-8 .8 1.9 1.5 3.8 2.1 5.8 1.7 5 3.4 10.1 4.7 15.2 2.4 9.8 3.5 19.9 5.4 29.7 1 4.9 2.2 9.7 3.8 14.4-1.2 7.1-2.5 14.2-3.9 21.4-14-2.6-28.3-3.6-42.6-3 .2-6.2-1.1-12.4-6.2-16.6-2.5-1.9-6.8-4.3-10-2.9-1.7.7-2.9 2.5-3.8 4-1.1 1.7-2 3.5-2.6 5.5-.2.8.2 1.8 0 2.5 1-3.1 2.7-6.4 5.2-8.6s6.1-1 8.7.4c2.6 1.4 4.8 3.5 6.3 6 .8 1.4 1.4 3 1.8 4.5.2.9.4 1.8.5 2.7 0 .4.1.8.1 1.2 0 0-.1.8-.1 1.2-3.4.2-6.8.4-10.1.7-.5 0-1 .1-1.5.2.4-2.4.4-4.8.2-7.2-.1-1.9-.5-3.8-1.2-5.5-.3-.8-.8-1.4-1.7-1.4-.2 0-.4.1-.6.1v-.1c-1.4-.9-2 2.2-2.2 3.1-.5 1.6-.8 3.3-.9 5-.2 2.2-.2 4.6.3 6.8-1.3.2-2.6.4-4 .6-4 .7-8.2 1.3-11.9 3.1-.1 0 0 1.2 0 1.2.3.9 1 1.4 2 1.4v-1.2c-.5 0-1-.2-1.3-.5 3.1-1.4 6.5-2 9.8-2.6 1.9-.3 3.7-.6 5.6-.9.1.3.2.7.4 1 .5 1.3 1.5 2.8 3.1 2.5 1.5-.2 1.9-2.5 2.2-3.7.1-.2.1-.4.1-.6 3.9-.4 7.9-.7 11.8-.9 0 .5.1 1 0 1.5 0-.5.1-1 .1-1.5 2.8-.1 5.7-.2 8.5-.2 11.4 0 22.7 1.1 33.9 3.1-.5 2.3-.9 4.7-1.4 7-.3 1.4-.6 2.8-.9 4.3-16.4-6.7-34.3-9.6-52-8.1-5.7.5-11.5 1.6-17.2 1.5V146.1c-.1.1-.1.2-.2.3-1.5 0-3-.2-4.5-.4.1 0-.1 1.2 0 1.2 1.4.2 2.8.3 4.2.4v.5c.1-.1.2-.3.3-.4 5.1.1 10.2-.8 15.3-1.3 6-.6 12-.7 18-.4 12 .7 23.9 3.4 35.1 7.9.3.1.5.2.8.3-.7 3.3-1.4 6.5-2.2 9.8-1.2 4.7-3.1 8.7-6.4 12.2-.9 1-1.9 1.9-2.8 2.9-.7-.7-1.5-1.3-2.2-2-5.1-4.3-10.6-8.3-16.2-12-6.1-4-12.3-7.8-18.9-10.9-7.4-3.4-15.2-5.7-23.4-6.1v1.2c14.6.7 27.9 7.6 39.9 15.4 7 4.5 13.9 9.3 20.1 14.9-2.8 2.7-5.8 5.1-8.8 7.5-.2.2 0 1.6 0 1.9 0 .2.2 1.7 0 1.9 3.7-3 7.4-6.1 10.8-9.5 3 2.8 5.9 5.8 8.5 9 4.1 5.1 7.5 10.7 9.8 16.9v2c.5.5 1 1 1.6 1.4-.7.3-1.4.5-2.1.8V214.4c-.1-.2-.2-.4-.4-.7.2.4 0 1.5 0 1.9 0 .5-.2 1.5 0 1.9 11.8 21 23.8 42.4 29.8 65.9 1.5 5.9 2.6 11.9 3.2 18 .7 6.4 1.1 12.9 2.2 19.2 1.1 6.4 2.9 12.6 4.9 18.7 2 6.2 4.2 12.4 6.6 18.5 1.1 2.8 2.2 5.8 3.5 8.5-4 1.3-8.9 2.6-12.5-.2-1.4-1.1-2.4-2.7-2.8-4.5-.2-.6-.3-1.2-.3-1.8l.3-1.5c.1-.6 0-1.3 0-1.9s-.1-1.3 0-1.9c-.6 2.6-.5 5.4-.4 8 .1 2.1.7 4.3 2 6 3.5 4.5 9.6 2.9 14.1 1.4.1 0 0-1.7 0-1.9v-1.2c1.4 2.9 3.1 5.7 5.2 8.1 3.2 3.5 7.8 6.1 12.6 6-.8 1.5-1.6 3-2.8 4.2-.5.5-1 .9-1.6 1.3l-.1-.1s0 .1.1.2c-1.5 1-3.4 1.4-5.1.7.1 0 0 1.7 0 1.9v2.6c0 .2-.2 1.8 0 1.9 1.7.9 2.1 2.8 2.3 4.6.2 2.7.3 5.5.4 8.2.2 5.7 0 11.3-1.1 16.9-1.6 8.6-5.4 16.9-11.9 22.9-2.7 2.5-5.9 4.5-9.4 5.7 2.4-5.2 2.9-11.2 2.1-17 .2 1.2-.2 2.5 0 3.8 0 .3.1.6.1.9-.1-1.2.1-.4 0 .6v.1c0 .3-.1.7-.1 1-.2 1.4-.5 2.8-.9 4.1-.9 2.7-2.3 5.2-4 7.5 0 0 0 .1-.1.2 0-.3 0-.5-.1-.5-16.9-2.1-34.2-3.5-51.3-3-4.2.1-8.5.5-12.7 1.2v-.2c7.6-15.7 13.7-32.1 19.2-48.7 6.3-18.7 11.9-37.7 18.4-56.3 3.7-10.5 7.7-20.9 12.2-31.1.2-.4 0-1.4 0-1.9s-.2-1.4 0-1.9c-8 18-14.3 36.8-20.3 55.5-6 18.8-11.8 37.6-19 56-4 10.2-8.3 20.2-13.3 30-1.8.5-3.7.8-5.5 1.2-3.8.7-7.6 1.4-11.4 2-3.6.5-7.3 1.1-11 1.3-3.3.2-6.6-.1-9.4-1.7v.7c-.1.1-.3.1-.5.2v-.6l.3-1.8c.3-1.2.6-2.3 1.2-3.3V447c0-.1-.1-.4 0-.5-.7 1.5-1.2 3.1-1.4 4.8-.1.9-.1 1.7-.1 2.6v2.1c-4.6 1.8-10 1.1-13.9-1.8v-1.1h-.6c1.4-5.7 3.9-11 7.5-15.6 1.1-1.4 2.2-2.7 3.5-4 1.2-1.2 2.5-2.4 4.2-2.7 3.7-.6 6.5 2.6 8.6 5.2-.1-.1-.1-.5-.1-.9 0 0 .1 0 .1-.1.8-.5.9-2.1 1.2-2.9 1.4-4.8 2.9-9.6 4.3-14.4 2.9-9.7 5.7-19.4 8.3-29.1 5.2-19.5 9.7-39.1 12.6-59.1 1.6-11.2 2.7-22.5 3.3-33.8.1-1.1-.1-2.7 0-3.6-.8 15.4-2.6 30.7-5.2 45.9 0-.5.1-1.1-.1-1.3-9.6-14.7-15.8-31.4-19.3-48.6-3.9-19-4.5-38.5-3.3-57.8.7-11.2 2-22.5 3.4-33.6.2-1.2-.2-2.5 0-3.8-.2 1.2-.3 2.3-.4 3.5 0-1.1-.1-2.9 0-2.9-6.2.4-12.4.8-18.5-.4-6.2-1.2-11.5-4.4-16.5-8.1-3.6-2.7-7-5.6-10.3-8.7v-1c0-.1-.1-.5 0-.5-.2.3-.5.5-.8.7l-3-3c-4.5-4.8-8.6-10-12.8-15.1-.5-.7-1.1-1.3-1.7-2 .3-.2.6-.3.9-.5 1.7-.9 17.4-8.6 18.8-6.9v.2s0-.1.1-.1v.1-.1c.1-.3.1-.8 0-1v-.1c-.4-1.1-2.4-.2-3.2 0-3.2.9-6.2 2.1-9.2 3.4-2.8 1.2-5.4 2.6-8.1 4.1-1.7-2-3.3-4.1-4.7-6.3 4.2-1.2 8.4-2.3 12.6-3.2 3.4-.7 6.8-1.2 10.3-.9-.1.1-.1.1-.2.1v1.2c.5-.4.9-.8 1.4-1.2 1.1.2 2.2.4 3.2.7-.1 0 .1-1.2 0-1.2-.9-.3-1.7-.5-2.6-.6V142.5c-.2.2-.4.3-.6.5-3.2-.5-6.5-.2-9.7.4-4.5.8-8.9 2.1-13.2 3.3-.6.2-1.2.4-1.8.5-.8-1.4-1.4-2.8-1.8-4.3 4.6-1 9.2-1.9 13.8-2.4 2.2-.3 4.4-.4 6.7-.5v.1c.2.4.6 1 1.1 1.1.7.2 1.2-.5 1.5-1 .1-.1.1-.2.2-.3h1c1.4 0 3.2.1 4.6.7l-.1.1v1.2c.2-.3.5-.6.7-.9.5.4 1 .9 1.3 1.6-.1-.4.1-.9 0-1.2-.3-.7-.7-1.2-1.2-1.5v-.1.1c-1.1-.8-2.6-1-4-1.1h-1.5c.3-.7.6-1.5.7-2.2.2-1.1.3-2.3.3-3.4v.1-.7V133.2v-.5c0-1.5-.1-2.9-.3-4.3-.2-.9-.4-1.8-.7-2.7-.1-.3-.1-.5-.2-.8 1.7 2.4 2.9 5.2 3.5 8-.2-.8.2-1.7 0-2.5-1-4.9-3.8-9.7-7.9-12.6-1-.8-2.3-1.4-3.6-1.1-1.2.3-2.2 1.2-3 2.1-1.7 1.9-2.8 4.3-3.2 6.8-.1.8.1 1.7 0 2.5.4-2.5 1.5-4.9 3.2-6.8.8-.9 1.8-1.8 3-2.1 1.3-.3 2.6.3 3.6 1.1 1.2.9 2.2 1.9 3.2 3-.9-.5-2.1-.2-2.8.5 0 0 0 .1-.1.2 0-.2 0-.5.1-.7-.7 2.4-.9 4.8-.9 7.2v1.5c0 1.4.1 2.8.4 4.2l.6 2.7c-1.3.1-2.5.1-3.8.3-5.5.5-11 1.5-16.4 2.8-.1-.3-.1-.7-.1-1.1 0 .5-.3.7-.2 0 0-.1.1-.3.1-.4v-.2s0 .1.1.1c0 .1.1.3.1.4 0-.1 0-.3-.1-.4 0-.2.1-.5.1-.7.4-1.5 1-2.9 1.8-4.2 1.5-2.6 3-5 3.9-7.9 1.5-4.6 1.8-9.4 1.8-14.2 0 .4-.1.8-.1 1-.1.9-.1 1.8-.2 2.7-.2 1.6-.5 3.2-.9 4.8-.7 2.9-1.9 5.6-3.4 8.2-1.6 2.7-3 5.2-3.1 8.4 0 1.2-.1 2.3 0 3.5-.7.1-1.4.3-2.1.5-12.5 3-25 6.6-37.3 10.3-7 2.1-14.1 4.3-21.1 6.5-.1 0 .1 1.2 0 1.2 12.5-3.9 25-7.7 37.6-11.3 7.6-2.1 15.2-4.3 22.9-6.1.1 1.1.2 2.2.5 3.2.1.5.3.9.4 1.4-7.6 2.3-15.1 4.9-22.5 7.9-4.8 1.9-9.4 4-14.1 6.2-.2.1.2 1.2 0 1.2 8.2-3.9 16.6-7.4 25.2-10.5 3.9-1.4 7.8-2.7 11.8-3.9.9 2.1 2.2 4.1 3.5 6 .2.3.5.7.8 1-2.5 1.5-5 3-7.5 4.6-11.1 7.2-21.7 15.3-31.5 24.3-5.5 5.1-10.8 10.5-15.8 16-.2.2.2 1 0 1.2 8.4-9.3 17.5-18 27.2-25.9 8.9-7.2 18.3-13.8 28.2-19.5 3.1 4.1 6.5 8 9.8 12-.2.5-.3 1.1-.4 1.7v.8c-.1-.3-.1.9-.1 1.9 0-.4-.3-.7-.3-1.1v-1.3c0-.1-.1-.4 0-.5-1.5 3.6-1.9 7.4-2 11.2v3c0 1.5.2 3 .8 4.4-5.7 1.4-11.2 3.6-16.3 6.6 0-.4 0-.8.1-.9-3.6 2.7-4 7.9-4.7 12-1 5.4-1.9 10.8-2.9 16.2-2 11-3.9 22-5.8 32.9-1 5.5-2.2 11.1-2.9 16.6-.3 2-.3 4.2-.1 6.3.1 2.2 1 4.2 2.2 6 1.3 2 2.9 3.7 4.4 5.5 1.8 2.1 3.6 4.1 5.4 6.1 3.5 4 7.2 8 10.8 11.9 2 2.1 4.1 4.3 6.2 6.4 1.7 1.7 3.5 3.6 6 3.7 4.1.3 7.8-3.5 11.9-2.5 1.8 1.9 3.8 3.6 6.1 4.8 0 .3-.1.6-.1.8 0 .5-.2 1.4 0 1.9 4.6 9.5 5.6 19.5 5.6 29.7 0 3.2-.1 6.5-.2 9.7v-1.2c-4.3 2-9.1 2.6-13.7 1.6-1.9-.4-4.5-1-5.1-3.1 0-.2-.1-.3-.1-.5 0-.5.1-1 .2-1.4.2-1.2.5-2.5 1-3.6.2-.5 0-1.4 0-1.9s-.2-1.4 0-1.9c-.4 1.2-.7 2.4-.9 3.6 0-.4-.1-.7-.1-.9v-1.3c0-.1-.1-.5 0-.5-1.4 2.5-2.9 5-3.8 7.8-.8 2.3-.9 4.6-.9 6.9v1.5c0 2.1.2 4.2 1.3 6.1.1.3.3.5.6.8-5.9 1.7-10.2 7-13.2 12.1-2.1 3.7-4 7.6-5.2 11.7-1 3.4-1.2 6.8-1.2 10.2v-.4.9-.3 1.3c0 3.8.9 7.5 1.9 11.2-.2 1.2-.2 2.5-.3 3.7v1.2c0-.1 0-.1.1-.2v.5-.4.7-.1.5c0 1.5.1 3 .3 4.5-2.8-.4-5.8-1-8.5-.3-2.3.6-4.2 2.3-5.4 4.3-1.8 3-2 6.4-1.9 9.8v-.3c.2-1.2.4-2.3.8-3.4.6-1.7 1.6-3.4 3-4.6 2.8-2.6 6.4-2.4 9.9-2 1 .1 1.9.3 2.8.4v-1.7c0-.9.1-1.9 0-2.1-.3-1.2-.6-2.4-.7-3.6 0-.2-.1-.7-.2-1.2v-.1c.1-.5.1-1 .1-1.5.1-1 .3-1.9.5-2.9.1.5.3 1 .4 1.5-.3-1 .2-2.3.1-3.4.1-.3.2-.6.2-.9 0 1.6-.1 3.3.3 4.9v-3.6c0-.1 0-.2-.1-.3.2-.8.4-1.7.8-2.4.9-1.8 2.2-3.2 4-4.1v-3.6c-2.1 1.1-3.7 3-4.4 5.2 0-.4-.1-.8 0-1.1-.6 1.4-1 2.9-1.3 4.4-.9-3.2-1.8-6.5-2.1-9.9 0-.3 0-.7-.1-1 0-.3.1-.5.1-.7.1-1 .3-1.9.5-2.8.4-1.8.9-3.6 1.6-5.3 2.3-6.2 5.8-12.7 10.9-17.1 2.6-2.3 5.7-3.9 9.2-4.2.1 0 .1-.6 0-1.3.5.1 1.1-.1 1.6-.7.2-.2 0-1.5 0-1.9v-1.3c0-.1-.1-.5 0-.5-1.2 1.4-3.2.2-4.1-.9-1.2-1.5-1.6-3.2-1.9-5.1.1-.5.1-.9.3-1.4.2-1.1.6-2.2 1-3.2.9-2.2 2-4.2 3.2-6.3-.2 1.2-.2 2.5-.2 3.8 0 1.4-.1 2.9.2 4.3.3 1.3 1.2 2.1 2.5 2.6 5.2 2.1 11.3 1.6 16.4-.7v2.2c0-.7 0-1.4.1-2.2h.1c.1-.1 0-1.7 0-1.9v-.2c.1-3.4.2-6.8.2-10.2 0-4.3 0-8.7-.4-13-.6-6.6-1.9-13.1-4.6-19.1.7.3 1.4.6 2.2.7 0 0-.1-.2-.1-.4.2 0 .5 0 .7-.1.1-.1 0-1.7 0-1.9v-1.8c-1 .5-1.8-.6-2.1-1.3-.5-1-.9-2.2-1.2-3.3-.2-.5-.3-1.1-.4-1.7.2-.8.4-1.5.8-2.2.1-.1 0-.5 0-.5v-2.6c0-.1-.1-.5 0-.5-.7 1.2-1 2.5-1 3.9v1.9c0 1.3 0 2.5.2 3.8.1.8.3 1.5.6 2.3-2.2-1-4-2.5-5.8-4.2 0-.3 0-.5-.1-.5-.2-.1-.3-.1-.5-.2l-.7-.7c-3.1-3.3-5.9-6.5-7.4-10.9-.7-2-1.1-4-1.4-6-.1-1-.2-1.9-.3-2.9 0-.5.1-1 .1-1.5.5-3.9 1.9-7.6 4.4-10.6.1-.1.1-.3.1-.5h.9c.1 0-.1-3.8 0-3.8-3.1.2-6.1-.5-8.8-1.8 1.1-.6 2.2-1.4 3-2.2 2.4-2.2 5-4.6 6.3-7.6.3-.7.5-1.5.7-2.2h.3V258.2l.3-5.4c.2-3.6-.1-7.6 2-10.8.2-.3 0-1.5 0-1.9v-.1c1.4-1.4 3.1-2.6 4.9-3.4.1-.1 0-1.7 0-1.9v-1.8c-4.7 2.1-8.2 6.3-9.5 11.3v.5c-.5-.9-.9-1.9-1.2-2.9-.2-.7-.3-1.3-.4-2 0-.2 0-.3-.1-.5.1-.6 0-1.2.1-1.8.1-.7.2-1.4.4-2 .3-1.4.8-2.7 1.4-4 1.1-2.6 2.5-5.1 4-7.5 1.3-2 2.5-4.4 4.8-5.4 3-1 6-2.2 8.6-4 5.7-4 8.9-10.4 11.8-16.5.1-.2.1-.7.1-1.1 6.3 1.4 12.9 1 19.2.6-2.4 19.2-3.9 38.4-3.5 57.7.4 19.2 3 38.5 9.4 56.7 3.4 9.9 7.9 19.4 13.6 28.2-.5 3-1.1 6-1.7 9.1-1.7 8.6-3.7 17.1-5.9 25.6 0-.6 0-1.1-.1-1.7-.1-.3-.4-.7-.7-.3v1.1c-.5.3-1 .4-1.4.5-.8.2-1.7.4-2.5.4-1.8 0-3.6-.6-5-1.7s-2.4-2.6-2.9-4.3c0-.2-.1-.4-.1-.5.2-.7.4-1.3.7-2v-3.1c0-.1-.1-.5 0-.5-.4.7-.6 1.5-.8 2.3-1 2.6-2.4 5.8-2.5 8.2 0 2.9 0 5.8.6 8.6.6 2.9 2.1 6 4.4 8-1.4 1.6-2.6 3.4-3.5 5.3-1.8 3.5-3.4 7.2-4.3 11-.9 3.4-1.2 6.9-1.2 10.4v.8c-3-1.9-5.7-4.4-7.8-7.3-1.1-1.5-2-3.2-2.6-5-.3-.9-.6-1.8-.7-2.8-.1-.3-.1-.6-.1-1v-.1c.1-1 0-2 0-2.9.1-.4.2-.8.3-1.1.1-.5 0-1.3 0-1.9s-.2-1.3 0-1.9c-.8 3-1 6-1 9v1.6c0 1.9.1 3.8.4 5.7-9.9-6.4-12.1-20.4-12.7-31.2-.2-3.7-.2-7.4-.2-11.1-.3 10.7-.3 21.4 3 31.6 1.9 6.1 5.3 12 11.1 15.2-.1-.1 0-1.7 0-1.9 0-.2.2-1.8 0-1.9 0 0-.1 0-.1-.1v-.2c-.7-2.3-1.2-4.7-1.3-7.1v-.2c0-.6.1-1.3.2-1.9.1-.8.3-1.5.4-2.3-.4 4.4.1 8.9 2.1 12.8 1.9 3.6 4.7 6.5 8 8.9-2.2 1.6-4.5 3.2-6.6 4.9-.9.7-1.8 1.5-2.8 1.9-.3.1-.7.2-1 .2-2.6-2.2-5.7-4.2-9.1-3.3-3.9 1.1-6.4 5.6-8.5 8.8-2.3 3.6-4.3 7.5-6 11.5-.8.8-2 1.1-3 1.5-1.8.7-3.6 1.4-5.4 2-3.1 1.1-6.1 2.3-9.2 3.5v-.2c-.2.2-.5.3-.7.4-.3.1-.7.3-1.1.4v.1c-4.3 1.9-9.5 1.5-13.4-1 .7-4 1.4-8 2.1-11.9.1-.6 0-1.3 0-1.9s-.1-1.3 0-1.9c-.7 4.2-1.5 8.4-2.2 12.6-.1.6 0 1.3 0 1.9v1.1c-.1 0-.2-.1-.2-.2.1-1.2.1-2.4.1-3.6 0-1.1 0-2.2-.1-3.2.1 1.2-.1 2.4 0 3.6v.2c-.1.8-.2 1.6-.4 2.4v.2c-.3-.2-.5-.4-.8-.6.1.1.1.6 0 1.1-.3 0-.7.1-1 .1-.8.1-1.6.1-2.4.1-2.5-.1-5.3-1.1-6.3-3.6v3.1c-.1-1.7-.2-3.3-.2-5-.2 1.3-.2 2.1-.2 3v2.6c0 .1.4.7.4 0 1.3 3.3 5.2 3.8 8.3 3.5.5 0 1-.1 1.5-.2.1 0 .5 0 .6-.1 0 0 .1-.2.1-.3 4.4 3.3 10.6 3.7 15.4 1.1 3.3-1.2 6.5-2.5 9.8-3.7 1.8-.7 3.6-1.3 5.4-2 .4-.2.9-.3 1.3-.5l-.6 1.8c-.1.4-.2.8-.2 1.1v-.1 1.2c0 .8-.1 1.8 0 2.6.2 1.1 1.9 1.5 2.8 1.8 1.1.3 2.3.6 3.5.6 2.3.1 4.5-.2 6.6-1.1.1.1.2.1.3.2.6.3 1.3.3 1.9.2h1.1c4.2 3.9 10.6 4.9 15.8 2.5 0 0 .1-.2.1-.5 3 1.6 6.3 1.8 9.6 1.6 3.8-.3 7.5-.8 11.3-1.4 3.9-.6 7.8-1.3 11.7-2 1.4-.3 3-.5 4.4-.9 0 .2 0 .3-.1.4.1-.2.2-.3.2-.5.2-.1.4-.1.6-.2.8-.3 1.4-.7 1.8-1.3 7.9-1.3 16-1.4 24-1.2 8.6.2 17.2.7 25.8 1.4 4.8.4 9.6 1 14.5 1.6-.1 0 0-1.5 0-2.6 0 .3 0 .7.1 1.1v1.8c9.4-2.2 16.5-9.6 20.6-18.1 3.4-7.3 4.5-15.3 4.7-23.3.1.5.5 1.7.7 1.9 13.9 12.9 28.5 26.4 46.5 33.3 9.9 3.8 20.3 5 30.8 4.3 5.7-.4 11.3-1.1 17-2 5.3-.8 10.6-1.7 15.6-3.6 9.1-3.4 16.5-10.4 22.5-17.9 5.7-7.2 10.1-15.3 13.4-23.8 6.9-17.5 9.7-36.2 11.7-54.8.6-5.3 1.1-10.7 2.4-15.9 1.3-5.2 3.7-9.9 6.2-14.7 2.5-4.5 4.9-9 5.8-14.2-.1-2.5-.1-4.8-.1-7zM185.9 133.5v.9c-.1-.1 0-.7 0-.9zM155.4 189c.5.3.9.7 1.4 1-.5.1-1 .3-1.5.4.1-.3.1-.9.1-1.4zm-20.9-16.8v-3.7c.6.7 1.1 1.3 1.7 2 1.8 2.1 3.6 4.2 5.5 6.2-1.4.3-3 .2-4.3-.5-1.2-.6-2.2-1.7-2.7-3-.1-.2-.2-.5-.3-.8.1 0 .1-.1.1-.2zm-2.5 10.5c-.1-.4-.1-.7-.1-1.1v-.1c.1-.8.1-1.6.3-2.4.3-1.9 1.2-4.1 1.9-5.9v-.1c0 .6 0 1 .1.9v.1c0 1.3.3 2.5.9 3.6 1.3 2.2 3.8 3.3 6.3 2.9 1.1-.2 2.1-.6 2.9-1.3 1.9 1.9 3.8 3.7 5.9 5.4.9.8 1.8 1.5 2.8 2.3-4.9-.5-9.8-.3-14.6.4v-.9c-1.5.5-3.3 1-4.7-.1-1.1-1-1.5-2.4-1.7-3.7zm12.8 38.8c-1.8 3-3.4 6.2-4.4 9.6-.8 2.9-.8 5.9-.8 8.9 0 3.1.6 6.1 2.2 8.8-.2-.3 0-1.5 0-1.9v-.6c.7-1.9 1.6-3.6 2.9-5.1-.5 2.2-.5 4.5-.6 6.7-.1 2-.2 4-.3 5.9-.1 1.1-.1 2.3-.3 3.4-1.9-.3-3.8-.7-5.7-1-.9-.2-1.8-.3-2.7-.5-.3-.1-.5-.1-.8-.2v-.2c0-1 .1-2-.1-3 0 .2.1.5.1.7 0 .3-.1.6-.3.9.4-5.7 1.4-11.3 2.1-16.9.6-4.7 1-9.4.9-14.1 2.8-1 5.7-1.9 8.5-2.9-.1.4-.4 1-.7 1.5zm14.4-11c-2.6 1.8-5.5 2.9-8.5 3.9l-.1.1-1.8.6-11.7 3.9v-.8.8c-.1 0-.2.1-.3.1-.4.1.4 3.6 0 3.8.1 0 .2-.1.3-.1.2 5.2-.8 10.6-1.6 15.7-.8 5.3-1.5 10.5-1.6 15.9v.1l-.6.3-.2-.2v.3c-2.3 1.3-4.2 3.3-5.5 5.6v3.2c0 .1.1.5 0 .5 1.3-2.4 3.3-4.4 5.7-5.7.5.4 1.1.7 1.7.8.9.2 1.9.3 2.8.5 1.5.3 2.9.5 4.4.8-1.4 2.4-3.6 4.4-5.7 6.3-2 1.8-4.6 3.4-7.3 2.9 0 0-.1-.1-.2-.1v.1c-.5-.1-1-.3-1.5-.6.1.1 0 1.7 0 1.9 0 .2-.2 1.8 0 1.9.5.3 1.1.5 1.6.7 2.7 2.7 6.2 4.3 10 4.8-2.5 4.8-2.7 10.5-2.5 16 .2 3.5.9 7.1 2.1 10.4 1 2.6 2.6 4.8 4.4 6.9-2.2.5-4.4 1.8-6.6 2.3-4.6 1-7.5-3-10.3-6-7.1-7.4-14-14.9-20.7-22.7-1.5-1.7-3-3.4-4.1-5.3-.5-.9-1-1.7-1.3-2.7-.2-.5-.3-1-.4-1.5v-.1c.7-5.2 1.8-10.4 2.7-15.6 1.9-10.5 3.7-21 5.6-31.5 1.1-5.9 2.1-11.8 3.1-17.7.7-4.2 1-9.7 4.5-12.7 0 .4 0 .7-.1.8 11.5-6.8 25.1-9.6 38.3-8.1-5.1 1.8-9.8 4.6-13.9 8.1-.2.2.2 1.1 0 1.2 4.9-4.3 10.8-7.4 17.1-9.1.1 0 0-.4 0-.8 1.1.8 2.2 1.5 3.3 2.1-4.8 4.1-9.7 8.2-14.5 12.4-.2.2.2 1.1 0 1.2 5.1-4.4 10.2-8.7 15.3-13.1 2.2 1.3 4.6 2.4 7.1 3.1l1.2.3c-2.2 5.4-5.3 10.7-10.2 14.1zM183 414.4c.2-1.9.6-3.7 1.1-5.6 1-3.7 2.5-7.2 4.3-10.5 1.5-2.8 3.3-5.6 6.1-7.3.6.2 1.2.3 1.9.4 0 0 .1-3.7 0-3.8-.6 0-1.2-.1-1.7-.3v-.2c-.1 0-.2.1-.2.1-2.9-1-4.9-3.7-6.1-6.5-.8-2-1.3-4.2-1.5-6.3V373.8c.1-.6.1-1.2.2-1.9.2-1.2.5-2.4.9-3.6.1-.4.8-1.7 1-2.5v3.3c0 2 .3 3.8 1.3 5.5 2 3.2 6.1 4.5 9.6 3.3.5-.1.9-.3 1.3-.6-2.3 8.8-4.7 17.6-7.2 26.4-1.5 5.1-3 10.2-4.5 15.4-.7 2.5-1.5 5-2.2 7.4-.3 1-.6 2.1-.9 3.1v-.2c0-.2.1-1 0-1.5v-.1c0-.1-.1-.2-.2-.2 0 0-.1.1-.1.2-.4-.2-.9-1.4-1-1.6-.4-.8-.8-1.7-1-2.6-.3-.8-.5-1.7-.7-2.6.1.1.2.1.3.2v-1.8c0-.4.2-1.5 0-1.9-.3-.5-.6-.9-.9-1.4.1-.5.1-1.1.2-1.7zm-.2 1.8c.1.2.1.4.1.7 0-.2 0-.5-.1-.7zm-.7 7V420.3c.3.2.5.4.8.5.2 1.9.4 3.8 1 5.7.1.4 1.1 3.4 1.9 4.7-.1.1-.2.2-.3.2 0-.3 0-.6-.1-.7-.3-.3-.4.2-.5.5V431.5c-2-2.4-4.5-4.8-7.9-4.3-.1 0-.3.1-.4.1 1.8-1.4 3.6-2.8 5.5-4.1zm-21 29.8c-.1 0-.3-.2-.4-.3v.5c-.5 0-1 .1-1.5 0-.3 0-.5-.1-.7-.2v-.5c-.2.1-.3.1-.5.2-.2-.1-.3-.3-.4-.4v-.8c0-.1-.1-.5 0-.5-.1.1-.1.2-.1.3v-.2c0-.1-.1-.5 0-.5-.3.3-.5.1-.7-.1.2-1.3.5-2.6.9-3.9.5-2.1 1.2-4.2 2-6.3v-3.1c0-.1-.1-.4 0-.5-1.2 3.1-2.1 6.4-2.7 9.7-.2 1.2-.4 2.3-.5 3.5v-.2 1.6c0 .7-.1 1.5 0 2.2-1.6.5-3.3.6-5 .5-1.2-.1-2.4-.3-3.5-.6-.6-.2-1.5-.4-2.2-.8.3-1 .7-1.9 1-2.8.3-.7.5-1.4.8-2.1.2-.2.5-.5.6-.8.1-.2.1-.6.1-.9.3-.6.5-1.2.8-1.8 1.7-3.5 3.6-6.9 5.9-10.1 2-2.8 4.3-6.3 8-6.8 2.6-.3 5 1 7.1 2.6v.2c.2.5.6.7 1.1.8.2.2.4.4.6.5-.8.9-1.5 1.7-2.2 2.6-4.5 5.4-7.4 12-8.5 19zm262.4-117.9v.6-.6zm55.6-32.5c0 .5-.1.9-.2 1.4-.2 1.2-.5 2.5-.9 3.7-1.5 4.9-4.3 9.4-6.7 13.9-2.5 4.7-4.2 9.6-5.2 14.8-1 5.1-1.4 10.3-2 15.4-.5 4.7-1.1 9.3-1.8 13.9-1.4 9.1-3.2 18.2-5.8 27.1-5.2 17.3-14 34.8-28.5 46.2-3.9 3-8.2 5.5-12.9 7-5.1 1.7-10.5 2.5-15.8 3.3-11 1.7-22.3 2.9-33.4.9-18.8-3.3-34.6-15-48.5-27.3-3.5-3.1-7.6-7-11-10.1v-6.5c-.1-3.3-.2-6.7-.4-10-.1-1.6-.1-3.5-1-4.9 1.3.1 2.6-.3 3.8-1 3.6 3.7 6.5 8 9.9 11.9 2.7 3.2 5.7 6 9 8.5 6.6 5 14.2 8.6 22.2 10.7 16.2 4.2 33.8 2 47.9-7.2 14-9.2 24-24.2 27.2-40.7 1.7-8.6 1.4-17.5.1-26-.4-2.8-.9-5.6-1.2-8.4l-.3-4.2v-.4c0-.7.1-1.4.1-2 .4-4.5 1.4-8.9 2.9-13.1 3-8.3 8.1-15.9 14.8-21.8 6.8-6 16.2-11 25.5-8.7 4 1 7.9 3.3 10.1 6.9 1.1 1.7 1.7 3.6 2 5.6 0-.3.2 0 .1.7v.1c0 .3 0 .8.1 1.1 0-.3-.1-.6-.1-.8z"/>
  <path d="M148.3 130.7c2.7 3.9 4.7 8.1 6.1 12.6v.3c.2 4.1.7 8.1 1.5 12.1v.9c-3.9-.2-7.8-.3-11.8-.1v1.2c16-.8 32 2 46.8 8.2-.2-.1.1-1.2 0-1.2-11.1-4.6-22.8-7.4-34.8-8.1v-.7c-.9-4.1-1.5-8.2-1.7-12.4.1.2.2.5.2.7-.1-.2 0-.4 0-.6v.6-1.2c0 .5.1-.5.1-.6.1-.2.1-.5.2-.7.2-.6.5-1.1.8-1.6.7-1.1 1.6-2.1 2.6-2.9 2-1.8 4.3-3.3 6.9-3.7v-.1c.1 0 .2.1.3.1-.2-.1.2-1.1 0-1.2-5.2-3-11.4-3.9-17.3-2.7 0 0 0-.1-.1-.1.1.1.1.2.1.2v.1c.2.2 0 .7.1.9zM479.1 302.2c0-.3-.1-.5-.1-.8 0 .2 0 .6.1 1.2v-.4z"/>
  <path fill="#FFF" d="M328.5 163.7c.5-.1.8 0 .9.4l.6 3.3v.6c-1.6.6-9.8.4-14.1-.2l-.1-.1c-.6-.7-.5-1.3.1-2 .5-.5.7-1.2 1-1.8 1.3-2.2 2.5-4.5 3.8-6.8 1.3-2.2 1.5-1.9-.7-3.6-.8-.6-1.5-1.2-2.3-1.9-.9-.8-1.8-1.6-2.3-2.9.4-.1.8-.3 1.1-.4 2.8-.4 5.7-.8 8.5-1.2h.4c.9.1 1.8.1 2.7.2.1 0 .2 0 .5.1.1.4.1.7.2 1.1.1.5.2 1.1.3 1.6.1.5-.1 1.1-.5 1.2-.4.1-.9-.3-1-.7-.1-.6-.2-1.2-.2-1.9-.4-.1-.8-.2-1.2-.2-2.1.1-4.1.2-6.2.2-.6 0-1.2.1-1.8.1-.3 0-.6.1-1.1.2.3.4.4.7.7.9l2.1 2.1c.8.9 1.6 1.7 2.4 2.6.7.8.6.9 0 1.8s-1.3 1.8-1.8 2.7c-1.4 2.4-2.7 4.9-4.1 7.4.6.4 1.2.4 1.8.5 3.3.1 6.6.1 9.9.2.2 0 .4-.1.6-.1-.1-1-.2-1.9-.3-2.8 0-.2.1-.3.1-.6zM283.3 159.1v-1c0-.2.1-.5 0-.7-.5-.6-.1-1 .4-1.4.2-.2.3-.4.4-.7.7-1.8 1.5-3.7 2.2-5.5.3-.7.9-.9 1.4-.4.4.4.7.9.8 1.5.3 1 .4 2.1.6 3.1 0 .2.1.5.2.7.1.5.4.8.8 1 .6.2.6.4.4.9-.3.7-.1 1.4.4 1.9.5.6.3 1 .2 1.5-.6.1-.8-.3-1-.6-.3-.5-.6-1.1-.8-1.6-.5-.9-.8-1.2-1.9-1.1h-.2c-1.2-.1-2.1.2-2.5 1.6-.3.7-.6 1.1-1.4.8zm4-6.4h-.2l-.6 1.5c-.2.5-.5 1-.4 1.6.7-.1 1.3 0 2-.4-.3-1-.5-1.8-.8-2.7zM339.3 159.6c-.3-1-.6-2.1-.9-3.1 0-.1-.1-.1-.1-.2 0-.3-.2-.7.2-.9.4-.2.7 0 1 .3.1.2.3.4.3.5.5-.2.9-.4 1.3-.4 1.2-.2 1.8.2 2.4 1.3.5 1.1.3 2.1-.5 2.8-.5.4-1 .7-1.5 1s-.8.7-.6 1.4c.2 1.2.5 2.3.6 3.5.1.7.4 1.4 0 2.2-.7.1-1-.4-1.1-.9-.2-.9-.5-1.9-.5-2.8 0-1-.3-1.9-.8-2.8-.7-1.1-.7-1.1.2-1.9zm1.3.5c.7-.1 1-.5 1.3-.8.7-.6.7-1.3.3-2.2-.3-.6-.8-.7-1.1-.1-.5 1-.6 2-.5 3.1zM339 180.6c-.1.1-.2.4-.3.4-.2 0-.5-.1-.6-.2-.2-.2-.2-.5-.3-.8-.3-1.1-.8-1.6-1.9-1.6-.8 0-1.6.1-2.4.2-.5.1-.9.3-1.2.8-.2.3-.4.8-1 .6-.4-.1-.4-.5-.1-1.2.5-1 1-2 1.6-2.9.4-.7.9-1.4 1-2.2.1-.5.4-.7.9-.7.5-.1.7.2.8.6.4.9.8 1.7 1.2 2.6.1.2.2.4.4.6 1.2.8 1.3 2.2 1.8 3.4.1 0 .1.1.1.4zm-4.5-5.5c-.4.9-.8 1.6-1.2 2.6 1-.2 1.9-.4 2.6-.8-.3-.9-.5-1.2-1.4-1.8zM359.2 156.5c1 .8 1.8 1.7 2.2 2.9.2.5 0 1.1-.3 1.5-.6.8-1.5 1.3-2.5 1.6-.5.1-.9.1-1.3-.3-.5-.4-.9-.9-1.4-1.3-.5.3-1 .6-1.5.8-1 .4-1.9.1-2.4-.9-.4-.7-.6-1.4-.4-2.2.1-.6.1-1.2.2-1.9 0-.2.2-.4.4-.7.4.4.4.8.4 1.2.1.8.1 1.6.2 2.4.2 1.3.8 1.5 1.8.6.3-.2.5-.5.7-.8.2-.2.3-.4.5-.6.5-.4.8-.4 1.1.3.2.5.3 1 .6 1.4.4.6 1 .9 1.6.7 1.4-.4 1.5-1.3.9-2.3-.2-.4-.6-.7-.9-1.1-.5-.4-.5-.8.1-1.3zM282.9 145.9c.2.2.5.3.5.5s-.1.6-.3.7c-1.1.4-1.8 1.4-2.5 2.3-.7 1-1 2.1-1 3.2-.1 1.8 0 3.6.5 5.4.4 1.6 1 3.1 2.1 4.4.5.6.5 1 .3 1.2-.3.2-.6.1-1.1-.5-2-2.7-3.2-5.7-3-9.2.1-1.1.2-2.2.5-3.2.4-1.7 1.5-2.9 2.8-4 .2-.4.7-.5 1.2-.8z"/>
  <path fill="#FFF" d="M291.3 163.8c-.2-.5 0-.8.2-1.2.4-.9.9-1.8 1.4-2.6 1.7-3 1.8-6.1 1-9.4-.4-1.6-.9-3.1-2-4.4-.2-.2-.4-.5-.1-.8.3-.2.6-.4 1-.1l.6.6c1.2 1.6 1.8 3.4 2 5.4.1.6.4 1.1 0 1.7v.3c.5 1.1.2 2.3-.1 3.4-.5 1.9-1.3 3.6-2.5 5.1-.3.4-.6.9-.9 1.3-.2.3-.4.5-.6.7zM317.1 176.1c1.5-.2 2.6 1.1 2.2 2.3-.1.4-.4.9-.7 1.2-1 1.1-1.9 1.2-3.1.4-.2-.1-.3-.2-.5-.3-.6-.5-1.1-.7-2-.5-2.3.5-4.1-2-3.2-3.8.2-.4.4-.9.6-1.3.2-.3.6-.5 1-.7.3-.1.6-.1.7.3 0 .2-.1.6-.2.7-.7.3-.9 1-1.1 1.6-.2.7 0 1.3.5 1.7.5.5 1 .5 1.6.2.2-.1.4-.3.5-.4.5-.3 1-.1 1.4.4.3.5.7 1 1.2 1.4s.9.3 1.4-.1c.5-.4.7-.9.5-1.4-.1-.4-.4-.6-.6-1 0-.1-.1-.4-.2-.7zM324.3 176.7c1.3.6 2.6.4 3.9 1.1-.3.2-.5.4-.7.4-.7.1-1.4.1-2.1.2-.4 0-.9.1-1.3.2.1.7.5 1.1 1 1.2.5.1 1.1.1 1.7.1.4 0 .9-.1 1.3-.2 0 .9-.1 1-.7 1.2-.5.1-.9.2-1.4.2-2.3.2-3.8-1.9-2.9-4.1.7-1.5 2.2-2.4 3.8-2.3h.2c.6.1 1.1.4.9.8-.3.5-.7.3-1.1.2-1.1-.4-1.8.3-2.6 1zM363.2 165.8c.3-.3.6-.6.8-.9.5-.7 1.2-1.4 1.6-2.2.3-.8.5-1.6.5-2.5.2-2.7-.7-5-2.1-7.2-.2-.3-.4-.6-.5-.9 0-.1 0-.4.1-.5s.3-.1.4 0c.3.2.7.4.9.7 1.1 1.8 2.1 3.7 2.3 5.8.2 2.3-.2 4.6-1.8 6.4-.5.6-1.2 1.2-2 1.4-.1.1-.1 0-.2-.1zM350.1 163.3c-.3.5-.7.5-1 .2-2.7-2.1-4.2-4.4-3-7.7.6-1.7 1.6-3.2 2.8-4.6.4-.4.7-.8 1.5-.6-.2.3-.3.6-.5.9-.7.9-1.4 1.8-2 2.8-.6.8-.9 1.7-1.1 2.7-.2 1.1 0 2.1.5 3 .7 1.3 1.6 2.4 2.8 3.3zM302.3 158.4c.2-.1.5-.4.7-.4 1.9-.3 3.9-.2 5.8.2.1 0 .4.1.4.2.1.2.2.4.1.6-.1.1-.4.3-.5.2-1.2-.6-2.5-.3-3.8-.4h-1.6c-.4 0-.7-.1-1.1-.2v-.2z"/>
  <g fill="#FFF">
    <path d="M158 16.9c-.7.1-1.4.2-2.1.2-4.5.4-9.1.3-13.6-.3-2.2-.3-4.4-.5-6.7-.5-8.3.1-16.6.1-24.9.1-2.4 0-4.8-.3-7.2-.5-1.2-.1-2.3-.3-3.5-.3s-2.4.2-3.6.2c-.2 0-.4.1-.6.2.1.5.4.8.8.8H98c1.8 0 3.5-.1 5.2.1 2.5.2 4.9.6 7.4.6 7.3-.1 14.5-.1 21.8-.2 3.6-.1 7.1.2 10.6.5 2 .2 4 .6 6.1.5 2.4-.2 4.8-.2 7.2-.4.7 0 1.3-.2 2-.3.3-.1.6-.2.6-.8-.4.1-.6 0-.9.1zM125 4.6c.2 1.9.3 3.8.9 5.6.2.6.3 1.3.4 2 .1.8.1.8 1.1.9 1.7-3.8 2-7.9 2.1-12h.7c3 .1 6.1.1 9.1.2 1.6 0 3.1.1 4.7.2.9.1 1.8.2 2.8.3.3 0 .6.1.7-.3.1-.4 0-.7-.5-.8-.3-.1-.6-.1-.9-.1-1.2-.1-2.3-.1-3.5-.2-4.2-.1-8.5-.2-12.7-.4-.7 0-.9.1-1.1.8-.2.7-.2 1.4-.3 2.2-.3 2-.6 4-1 5.9-.1.3-.2.7-.4 1h-.2c-.1-.5-.3-.9-.4-1.4-.2-1.5-.4-3.1-.6-4.6-.1-.9-.1-1.8-.5-2.7-.6.2-.7.5-.6.9.1.9.1 1.7.2 2.5zM124.6 35.4c-.5 0-1.1 0-1.6.1l-5.1.3c-.2 0-.5-.1-.8-.1.3-.4.5-.7.7-1 .7-1 1.5-1.9 2-3 .8-1.7 1-3.5.5-5.4-.2-.6-.6-1-1.1-1.3-.7-.3-1.4-.6-2.2-.7-1.4-.1-2.8.4-3 2.1-.2 1.3-.4 2.6-.7 3.9.6.3.9.1 1-.3s.2-.9.3-1.3c.2-.8.3-1.7.6-2.5.2-.6.4-.8 1-.7.7.1 1.3.2 2 .3.6.2 1 .6 1.2 1.3.2 1.4.3 2.8-.4 4.1-.9 1.6-1.9 3.2-3.2 4.5-.1.1-.2.2-.3.4-.3.5-.3.8.3 1 .4.1.9.2 1.3.2 2.5-.2 5.1-.5 7.6-.8.2 0 .4-.2.5-.4 0-.5-.2-.7-.6-.7z"/>
    <path d="M133.3 13c.7.5 1 .5 1.6.3 1.5-.6 3-.9 4.6-1 1.9-.2 2.9-1.4 3.7-3 .4-.9.3-1.7-.3-2.5-.9-1.2-2-2.2-3.3-3-.7-.4-1.5-.5-2.3-.3-.2 0-.5.1-.7.1-.8-.1-1.1.2-.9.9.5 2.3.2 4.7.3 7-1 .6-2.1.6-2.7 1.5zm4-7.2c0-1 .5-1.3 1.4-.9.5.2.9.5 1.4.8l1.5.9c.1.3.3.6.4 1 .5 1.1.2 2.2-.8 2.8-.5.3-1 .5-1.6.7-.8.2-1.5.3-2.5.5 0-.4-.1-.6-.1-.8.1-1.8.2-3.4.3-5zM106.6 7.2c0 .8 0 1.7.1 2.5 0 .3.1.6.3.8.5.5 1 1 1.7 1.4 1 .7 2.7.6 3.6-.2.6-.5 1.1-1.2.7-2-.2-.5-.4-1.1-.7-1.6-.8-1.3-1.7-1.6-3.1-1-.3.1-.6.3-1.2.5-.1-.7-.2-1.2-.3-1.8-.1-.8-.1-1.7-.2-2.5-.1-.6-.3-1.3-.6-1.9-.1-.3-.3-.9-.8-.7s-.2.7-.2 1.1c.5 1.9.7 3.6.7 5.4zm1.5 1.9c.7-.5 1.5-.9 2.3-1.4.5.5.9 1 1.3 1.5.6.8.1 1.8-.9 1.9-.5 0-1-.1-1.5-.2-.4-.2-.9-.4-1.2-.7-.5-.4-.5-.7 0-1.1zM135.6 35.7c-.2-.1-.4 0-.6 0-.7 0-1.2-.3-1.7-.7-.8-.7-1.3-1.5-1.3-2.6 0-.8-.4-1.4-1.1-1.8-.5-.2-.9-.5-1.4-.8-1.2-.6-2.3-.1-2.8 1.2-.2.8-.3 1.6-.1 2.4.2.8.7 1.4 1.3 1.8.8.5 1.6.5 2.4-.2.2-.2.4-.3.6-.5.3.3.4.5.6.8.9 1 2 1.5 3.4 1.5.3 0 .6-.1.8-.2.2-.1.3-.4.2-.5.1-.2-.1-.4-.3-.4zm-5.3-2.2c-.2.4-.6.6-1 .9-.1.1-.3 0-.4-.1-1-.6-1.5-2.2-1.1-3.3.2-.6.5-.7 1-.4.9.3 1.2 1 1 1.8.2.1.4.1.7.2 0 .3-.1.7-.2.9zM61.6 12c-.3-.4-.6-.7-.9-1.1.7-.9 1.9-1.4 2.2-2.7-1.5-.2-2 1.3-3.1 1.8-.2-.2-.5-.4-.7-.7l-1.6-1.6c-.2-.2-.4-.3-.6-.4-.3-.2-.7 0-.6.4 0 .3.2.5.3.8.4.5.9 1 1.3 1.5.3.3.6.7.9 1-.3.4-.6.7-.9 1-.5.5-1 1-1.3 1.6-.4.7-1 1.3-.7 2.3 1.3-1.4 2.6-2.7 3.8-4 1.4 1.1 2.3 2.6 3.8 3.4.5-.5.2-.8 0-1.1-.7-.7-1.3-1.4-1.9-2.2zM78.5 19.5c.2-.4.4-.7.5-1.1.2-.7.4-1.5.3-2.2-.1-1.3-1.1-1.8-2.2-1.2-.5.2-1 .4-1.2 1-.1.3-.2.7.2.9.3.2.7.1.9-.3 0-.1 0-.2.1-.3.2-.1.4-.3.6-.3s.4.3.4.5c.1.3 0 .7-.1 1-.2.6-.5 1.2-.7 1.9-.3.7-.1 1.2.7 1.6.2.1.4.2.5.2 1.4.3 2.8 0 4.1-.7.2-.1.4-.3.6-.5.2-.3.3-.6 0-.8-1.8 1.2-3.6 1.3-4.7.3zM118 5.5c.2 1-.2 2 .2 3.1.6-.5.5-1.1.6-1.6.2-.5.3-1.1.5-1.6.3-.1.7-.1.9-.2.2-.1.4-.3.4-.5s-.2-.6-.4-.6c-.8-.1-.9-.6-1.1-1.2-.1-.4-.3-.8-1-.8.1.6.2 1.3.2 1.9-1.2.3-2.3 0-3.3.7 1.1.8 2.2.4 3 .8zM68.4 13.8l-1.8 2.1c-.1.1-.1.3-.1.5.8.4.8.4 2-.8 0 .2.1.3.1.5.1 1 .2 2 .4 2.9.1.4.1.9.7 1.1.2-2.1.2-4.1-.1-6.1-.2-.5-.7-.7-1.2-.2zM96.4 9c1.8-.1 3.6-.3 5.4-.4.8-.1 1.5-.3 1.8-1.2-.9.1-1.7.2-2.6.3-1.1.1-2.2 0-3.3.1-.6 0-1.2.1-1.7.2-.4.1-.6.4-.6.7.1.3.4.3.7.3h.3zM89.3 11.8c-.2-.1-.5-.2-.7-.2-1.5 0-3-.1-4.5-.1-.2 0-.4.1-.6.2v.2c.6.2 1.1.4 1.7.5 1.2.2 2.4.5 3.7.7.5.1.7-.2.9-.5.1-.4-.2-.6-.5-.8zM120.9 10.2c-.2-.8-.2-.9-.9-.9h-.6c-1.4.2-2.7.3-4 .5-.2 0-.4.2-.6.4.9.4 5.3.4 6.1 0zM73.2 17.7c-.1.1-.2.2-.2.3-.1 1.6.1 3.2.6 4.7.1.2.3.4.6.6.6-1.9.1-4.9-1-5.6zM87.2 15.3c-.7-.2-1.4-.4-2.1-.5-.2 0-.4.1-.7.2.1.2.1.5.2.7.1.1.3.2.5.3.8.3 1.6.7 2.4 1 .7.3.8.2 1.3-.6-.3-.7-.9-1-1.6-1.1z"/>
  </g>
  <path fill="#FFF" d="M308.3 155.4c-.2.1-.3.3-.5.3-1.3.4-2.6.6-3.9.6-.5 0-1-.1-1.3-.7.7-.4 4.3-.6 5.7-.2z"/>
  <g fill="#FFF">
    <path d="M299.1 35.8c-.7 0-1.3 0-2 .1-3.8.3-7.6.2-11.5 0-2.7-.1-5.4-.4-8.1-.5-4-.1-8.1-.2-12.1-.2h-8.7c-1.4 0-2.8.2-4.2.4 0 .5.3.7.6.7h.7c2-.1 4-.3 6-.4 2.4 0 4.9.1 7.4.2 4.2.1 8.5.1 12.7.2 1.7 0 3.3 0 5 .2s3.3.3 5 .3c2.8 0 5.7-.5 8.6-.1h.5c.5 0 .7-.3.6-.9h-.5zM286.7 47.1c-.4-.2-.8-.4-1.3-.6.3-.3.5-.6.7-.8.2-.3.5-.5.7-.8.4-.7.3-1.2-.5-1.3-.9-.2-1.8-.2-2.6-.3-.3.6-.6 1.1-.9 1.6-.1.1-.1.3-.1.5.1 1.6.2 3.2.2 4.8v.1c.1.3.3.5.6.5.2 0 .4-.3.5-.5.1-.5 0-1 0-1.4s0-.8.1-1.4c1.3.6 2.5.8 3.5 1.5.2.1.4.3.6.5.4.5.4.8-.2 1.2-1 .5-2.1.8-3 .6-.8-.2-1.2.2-1.8.5-.2.2-.2.5.1.6.2.1.5.1.8.1.9-.1 1.8-.2 2.7-.2 1.1 0 2-.6 2.7-1.4.6-.7.6-.9 0-1.6-.9-1.3-1.8-1.8-2.8-2.2zm-2.6-1c0-.8.1-1.3.1-2 .6 0 1.1.1 1.8.1-.5.9-1 1.4-1.9 1.9zM254.9 30.8c.1.4.3.8.5 1.2.3.4.6.5 1 .2.3-.3.5-.5.1-.9-.1-.2-.2-.5-.2-.7-.1-1.1-.2-2.1-.3-3.3.6 0 1.2-.1 1.7-.1.7-.1 1.3-.1 2-.2 1-.2 1.7-1.1 1.7-2.2v-1.2c0-.9-.4-1.5-1-2.1-.4-.3-.9-.6-1.3-.9-1.8-.9-3.3-.2-3.8 1.7-.2 1-.5 1.9-.7 2.9-.1.6-.3 1.1-.2 1.7.1 1.3.3 2.6.5 3.9zm1.1-8.4c.1-.4.3-.8.6-1.2.3-.5.8-.6 1.4-.3.4.2.8.4 1.2.5.6.2.6.8.9 1.2.4.6.5 1.4.4 2.1-.2.9-.7 1.5-1.6 1.5-.9.1-1.8 0-2.8 0-.3-1.2-.3-2.5-.1-3.8zM206.8 20.8c-.8-.8-1.7-1.3-2.9-1.3-.3 0-.7-.1-1.1-.1-.1.2-.2.4-.4.6-.7.7-.6 1.5-.2 2.2.6 1.2.2 2.3.1 3.4-.8-.2-.8-.2-1.1.6.1.1.2.2.3.2.7.4.9.9.9 1.6 0 .6.1 1.3.2 1.9.1.4.2.8.9.6v-1.8c0-.6 0-1.2.1-1.8.5-.1.8-.2 1.1-.2 2.1-.5 2.9-1.5 2.9-3.6v-.5c0-.8-.3-1.4-.8-1.8zm-.4 3.6c-.3.8-1.4 1.3-2.7 1.2-.1-1.7-.1-3.3-.2-4.8.9-.3 1.7-.1 2.4.6s.9 2 .5 3zM269.5 40.6c-.1 0-.2 0-.2.1-.1.3-.2.5-.2.8-.3 0-.6-.1-1-.1.2.3.3.5.5.7.6 1 1.2 2 1 3.2-.3 1.1-.1 2.1.2 3.2.1.4.1.9.3 1.3.1.3.5.6.8.6.4 0 .5-.5.4-.8 0-.3-.1-.6-.1-.9 0-.3-.1-.7-.1-1 1.8-.2 3-1.3 4.1-2.5.7-.7.7-1.5 0-2-1.8-1.6-3.5-2.7-5.7-2.6zm4.6 3.8c-.4.9-2.2 1.9-3.4 1.8-.1-1.5-.2-3-.3-4.8 1.4.5 2.5 1.1 3.5 1.9.4.3.4.7.2 1.1zM287.7 31h.2c.1-.3.2-.6.2-.9.1-1.7.2-3.4.4-5.1.2-1.5.4-1.3 1.4-1 .3.1.7.2 1 .3.3.2.6.4.5.8-.2.8-.5 1.6-1.5 1.8-.5.1-.9.4-1.3.8.3.3.6.2.9.3 1 .2 2 .3 2.9.5s.9.8.2 1.4c-.2.2-.4.3-.7.4l-2.4.6c-.2 0-.5 0-.7.1-.3.1-.3.5 0 .6.2.1.4.1.5.2 1.1.3 2.1-.2 3.1-.6.8-.3 1.4-.9 1.7-1.6-.3-1.6-1.7-1.9-2.7-2.3.2-.8.5-1.6.6-2.3.1-.8-.2-1.2-1-1.4-.7-.2-1.4-.3-2.2-.3-1-.1-1.6.5-1.6 1.6.1 1.3 0 2.6-.1 3.9v1.5c.3.1.5.4.6.7zM269.6 29.8c.4-.9 1-1.5 2-1.3.3.1.6 0 .9.1.2.7.5 1.4.7 2.1.2.6.3.7 1 .4-.3-1-.9-1.9-.4-3-.6-.5-.7-1.1-.8-1.8-.1-1-.3-2-.4-3-.1-.8-.4-1.5-1.3-1.7-.6.2-.8.7-.9 1.2-.1.7-.1 1.3-.3 2-.5 1.7-1.1 3.4-1.6 5.1-.1.3-.1.7-.1 1.1.7-.3 1-.7 1.2-1.2zm1.9-5.4c.5.8.5 1.7.7 2.8-.6.1-1.1.1-1.6.2.1-1.1.6-2 .9-3zM220 27.8c-.2-.6-.4-1-.5-1.5-.4-1.2-.8-2.5-1.3-3.7-.2-.5-.6-.9-1.4-.7 0 .4 0 .7-.1 1-.3 1.7-.4 3.4-1.9 4.7.4.5.2 1.1 0 1.6-.2.4-.3.8-.1 1.3.5.2.8-.1 1-.6.2-.4.3-.8.5-1.2.2-.4.5-.5.9-.5 1.6.1 1.6 0 2.2 1.6 0 .1 0 .1.1.2.2.2.4.6.6.5.2 0 .5-.3.7-.5-.8-.7-1-1.5-.7-2.2zm-3-.6c-.1-.9.3-1.7.6-2.5.6.8.8 1.6.8 2.5H217zM211.8 32.6c-.3-.9-.5-1.9-.7-2.9-.1-.3-.1-.7-.2-1-.1-.3-.2-.7-.2-1v-2.6c.1-2.2.7-4.3 2.2-6.1.3-.3.5-.7.7-1.1.1-.2 0-.4 0-.8-.5.4-.8.6-1.1.9-1 1-1.6 2.3-2.1 3.6-1.3 3.9-.6 7.7.8 11.4.1.2.3.4.5.6.5.5 1.3.6 1.6-.2.1-.2.2-.3.4-.7-.5.2-.9.3-1.3.5-.4-.1-.6-.3-.6-.6zM278.2 30.8c0-.8 0-1.5.1-2.3.1-1.2.2-2.4.4-3.6.2-1.2.9-2.1 1.9-2.9.5-.4.9-.4 1.3 0 .8 1 1.5 2 1.3 3.4-.2 1.7-.4 3.3-.6 5v.9c.6.1.7-.2.7-.5.2-1.6.5-3.2.7-4.8.1-1.4-.2-2.7-1-3.8-.8-1.3-1.8-1.5-3-.5-1.2.9-2 2.1-2.1 3.6-.2 2-.4 4-.5 6.1 0 .2.1.3.1.6.6-.6.6-.6.7-1.2zM291.5 42.3c-.2-.2-.5-.4-.8-.6-.3-.2-.7-.3-1.1.2.2.3.5.6.8.9 1.2 1.3 2.4 2.5 2.8 4.3.2.6.3 1.2.3 1.8 0 1.6-.7 3-1.2 4.5-.6-.2-.9-.2-.9 0-.1.3.2.9.5.9.3.1.7 0 .9-.1.3-.2.5-.5.6-.8.4-1 .8-2 1.1-3.1.4-1.3.3-2.6-.1-3.8-.6-1.6-1.6-3-2.9-4.2zM277.7 50c-.2-.5-.3-1-.4-1.5-.3-2.4.2-4.4 2.3-5.9.3-.2.7-.5.4-.9-.3-.4-.7-.1-1 0-.2.1-.4.2-.5.4-.5.5-1 1.1-1.4 1.7-1 1.4-1.2 3-1.1 4.7.1.9.4 1.7 1 2.3.7.8 1.6 1 2.6.8.7-.1 1.6-1.2 1.8-2-.5 0-.8.4-1.2.7-.9 1-2 .8-2.5-.3zM265.9 32.7c.1.2.5.3.7.2.4-.2.8-.4 1-1-.5.2-.8.3-1.1.4-.6-.2-.5-.8-.7-1.2-.1-.5-.2-1.1-.4-1.5-.4-.7-.5-1.4-.5-2.2 0-.8 0-1.6.1-2.4.2-1.9.8-3.7 2-5.2.1-.2.2-.4.4-.7-1.3 0-1.9.6-2.2 1.5-.7 2-1.1 4.1-1.1 6.2 0 1.6.6 3.2 1 4.7.1.5.5.9.8 1.2zM237.2 22.2c-.1-.4-.3-.7-.5-1-.3-.5-.6-.9-.9-1.4-.1-.2-.3-.5-.6-.3-.1.1-.2.4-.1.6l1.2 2.4c.1.2.3.5.4.7.3 1.6.7 3.3 1 4.9v.4c-.5 2-1.1 4-2.3 5.7 0 0 .1.1.1.2.2-.3.5-.6.7-.9.7-.9 1-2.1 1.5-3.2.8-1.9.6-3.9.1-5.9-.2-.8-.4-1.5-.6-2.2zM223.9 20.3c0-.3-.1-.5-.1-.9-.9.7-.9 1.4-.8 2.2.2 1.8.6 3.5.8 5.3.2 1.4.3 2.7.4 4.1 0 .2-.1.5-.2.7-.2.6 0 .9.7 1.4.1-.4.2-.7.2-1 0-1-.1-2.1-.2-3.1-.3-2.9-.8-5.8-.8-8.7zM296.3 21.8c1.9 2.6 2.5 5.5 1.9 8.7-.2.9-.6 1.7-1 2.6-.1.3-.4.5-.6.8 1.3-.6 1.7-1.8 2.1-3 .2-.7.3-1.6.3-2.3 0-.8.2-1.5 0-2.3-.5-1.7-1.1-3.3-2-4.8-.2-.3-.3-.5-.5-.8-.2-.2-.4-.4-.8-.1.1.2.1.4.2.6.1.2.2.4.4.6zM247.8 27.6c-.5 0-1 0-1.4.1-1 .2-2 .3-3 .6-.1 0-.3.3-.3.5s.3.3.3.3c1.6-.2 3.1-.4 4.5-.6.1 0 .3-.3.3-.5-.1-.1-.3-.4-.4-.4zM248.1 26.1c-.5-.2-1-.2-1.5-.2-.8 0-1.6 0-2.3-.1s-1.4 0-1.8.8c1.9 0 3.7 0 5.6-.5zM232.2 28.5c-.6-.3-1.3-.6-1.9-.8-.4-.2-.8-.4-1.4-.6.9-.8 1.9-1.1 2.3-2.2-.6-.6-1.2-1.3-2.2-1.4-.4.9-.5 5.3-.2 7.4 1.3.1 2.5-.1 3.5-.9.7-.6.7-1-.1-1.5z"/>
  </g>
  <g fill="#FFF">
    <path d="M93.8 103c-1.2-.9-2.4-1.7-3.7-2.5-4-2.4-8.1-4.5-12.3-6.3-1-.4-1.9-1-2.9-1.5-.5-.3-1-.7-1.6-.9-.8-.3-1.5-.8-2.1-1.4s-1.6-.6-2.3-1.1c-1-.6-1.9-1.4-2.8-2.1-2.4-2-5.2-3.4-8-4.9-.4-.2-.9-.3-1.4-.6-4.6-2.5-9.1-5.1-13.7-7.4-3.4-1.7-6.7-3.3-10-5.2-1.5-.9-3-1.7-4.4-2.5-4.2-2.2-8.4-4.4-12.3-7.2-.2-.1-.3-.3-.5-.3-.8 0-1.3-.6-1.8-1.1-.2-.2-.4-.5-.7-.7s-.8-.4-1-.3c-.3.2-.6.6-.6 1-.1.4 0 .9 0 1.3.2 2 .5 4 .8 6 .7 6.3 1.3 12.6 1.9 18.8.2 2.3.3 4.7.6 7 .6 4 1.3 8 2 11.9.4 2.1.4 2.1 2.5 2.2 3.5.1 7.1.1 10.6.2.8 0 1.5.2 2.2.5.5.2.8.2 1.3-.1.5-.2 1-.3 1.5-.3 1.8 0 3.5.1 5.3.1 4.8-.1 9.6-.3 14.3-.5 4.2-.1 8.3-.3 12.5-.4 6.1-.1 12.2-.2 18.3.2 1.4.1 2.9.2 4.3.5.8.2 1.4.1 2.1-.3.2-.2.7-.3 1-.2.9.4 1.4-.1 1.9-.9-.3-.3-.6-.8-1-1zM14.6 72.6c-.4-4.1-.7-8.2-1.1-12.2.1 0 .2-.1.3-.2 1.4.9 2.9 1.9 4.4 2.7l2.7 1.5c.9.5 1.7 1 2.6 1.4 1.3.7 1.5 1.6.4 2.6-2.1 2.1-4.6 3.4-7.6 3.9-.5.1-1 .2-1.7.3zm15.9 31.3c-2.7-.1-5.4-.1-8-.2-2.8-.1-3.3-.4-4.1-3.2-.4-1.5-.7-3.2-1.1-4.7-.4-1.4-.6-2.7-.6-4.1v-.8c2.2-.9 4.3-.9 6.4 0 2.9 1.2 5.2 3.3 6.8 5.9.8 1.3 1 3 1.4 4.6.2.7.2 1.5.3 2.4-.6.1-.8.1-1.1.1zm36.4-1.7v1c-.5 0-.9.1-1.3.1-7.8.2-15.7.4-23.5.8-2.2.1-4.4 0-6.5-.1-.4 0-.9-.1-1.5-.2-.5-1.7-1-3.3-1.5-5-.4-1.4-.9-2.7-1.8-3.8-1.8-2.3-3.9-4.3-6.6-5.5-.7-.3-1.6-.6-2.4-.6-1.8-.2-3.6-.2-5.4-.3-.5-1.3-1.5-13-1.2-14.5 4.7-.5 8-3.3 11.2-6.7 2.2 1.2 4.3 2.4 6.4 3.5 2.6 1.4 5.3 2.9 8 4.3 3.5 1.8 7 3.7 10.5 5.5 1.5.8 3 1.6 4.6 2.4 4.4 2 8.4 4.6 12 7.8.5.4.7.8.5 1.4-.3 1-.5 1.9-.7 2.9-.6 2.3-1 4.6-.8 7zm24.1 1.6c-3.8 0-7.6-.7-11.4-.7H68.1c-.1-1.4-.2-2.7 0-4 .4-1.9.9-3.7 1.4-5.5.4-1.2.8-1.4 1.9-.7.3.2.7.5 1 .7.6.4 1.2.9 1.9 1.2 2.1.9 4.2 1.8 6.4 2.6.3.1.5.2.8.4 2.3 1.4 4.5 2.7 6.8 4 .3.2.6.3.9.4.6.4 1.3.8 1.9 1.2 0 .2-.1.3-.1.4zM110.8 107.4c0-1.3 0-1.3-1.3-1.8-.1 0-.3-.2-.4-.3.7-1.3.7-2.8.8-4.2-1.3-.6-2.6-1-4-1-1.3 0-2.1.8-2.2 2 0 .4.1.8.1 1.2.3 2 .6 4.1.8 6.1 0 .3 0 .6-.1.9-.4 1 .3 1.8.5 2.7 0 .2.4.2.8.5.2-1.1 1-1.2 1.8-1.3.7-.1 1.4-.4 2.1-.6.7-.3 1-.8 1-1.6.1-.8.1-1.7.1-2.6zm-5-1.8c-.1-1.2-.2-2.5-.1-3.7 1.5-.3 2.5.2 2.6 1.2.3 1.1-.9 2.3-2.5 2.5zm4.2 3.7c-.5.9-1.3 1.4-2.2 1.6-.8.2-1.5-.3-1.6-1.2-.1-.4-.1-.8-.1-1.2 0-1.2.2-1.3 1.4-1.3.6.1 1.1.2 1.7.3 1 .3 1.3 1 .8 1.8zM7 85.3c0-.5.1-1.1-.1-1.6-.4-1.7-2.3-3.1-4.2-1.6-.3.3-.7.5-1 .8-.1 0-.2-.1-.3-.1 0-.4-.1-.9 0-1.3.2-1.2.5-2.4.7-3.6.1-.5.3-1-.4-1.4C.5 77.7.5 79.4.2 81s-.4 3.3.3 5c.6-.7 1-.1 1.5.2.5.4 1.1.9 1.7 1.2 1.7.6 3.2-.3 3.3-2.1zm-2.8.6c-.6-.3-1.2-.7-1.9-1.1.3-.9.9-1.3 1.5-1.8h.1c.5-.2.9 0 1.2.4.5.7.7 1.8.3 2.3-.3.4-.7.4-1.2.2zM13.1 117.8c-1.6.2-3.2.3-4.8-.3-1.2-.4-2-1.2-2.1-2.5-.2-1.5.3-2.9 1.3-4 .6-.6 1.3-.9 2.1-.6.5.2 1 .3 1.5.5.4.1.8.2 1-.3.1-.3.2-.7 0-1-.2-.6-.8-.7-1.3-.8-2.1-.2-3.8.3-4.9 2.3-.3.6-.8 1.2-1 1.8-1.1 3.2.7 5.5 3.7 6.2 1.8.4 3.8 0 5.6-.4.5-.1 1.1-.2 1.3-1.1-.4 0-.6-.1-.9-.1l-1.5.3zM61.1 115.8c-1.1.1-1.6-.5-1.5-1.5 0-.9.1-1.7.1-2.6 0-1.3-.4-1.8-1.7-1.9-2.1-.3-4.3 1.4-4.6 3.5-.2 1.2.2 1.9 1.4 2.2.6.2 1.4.3 1.9.2.9-.2 1.3 0 1.9.7 1.1 1.3 3.3 1.2 4.6-.3-.4-.1-.7-.2-1-.2-.2-.2-.7-.1-1.1-.1zm-2.6-3.5c-.3.9-.7 1.7-1.7 2-.5.1-1.1.1-1.5 0-1-.4-1.1-1-.5-1.8.5-.7 1.2-1.4 2.2-1.5l.9.3c.6.1.9.4.6 1zM54.5 72.1c2 .6 3.8.1 5.5-1.1.3-.2.5-.6.7-.9-.1-.1-.2-.2-.2-.3-.4.2-.8.3-1.2.5-1.4.6-2.9.7-4.3.3-1.3-.4-1.9-1.5-1.6-2.8.4-1.8 1.4-3.1 3.2-3.8.4.4.7.7 1 1.1.6-.7.8-1.3.5-2.2-1.5-.3-2.6.1-3.7 1-1.1 1-1.9 2.3-2.3 3.8-.5 2.1.4 3.8 2.4 4.4z"/>
    <path d="M26.7 78.2c-.3-.3-.4-.7-.2-1.1.4-.9.8-1.9 1.2-2.8.3-.6.5-1.1 0-1.7-1.5-.1-2.1.8-2.3 2-.1.5-.3 1-.4 1.4-.4 1.2-.7 1.3-1.9.9-.6-.2-1.2-.4-1.9-.6-.7-.2-1.4 0-1.8.7-.7 1-1 2.1-1.1 3.3 0 .7.2 1.1.8 1.4 1.9 1 4.7.1 5.7-1.7.1-.2.3-.3.5-.6.5.3.8.6 1.2.9.5.4 1.1.8 1.7 1 1.3.5 2.3-.5 2.2-2-.6.2-1.1.4-1.8.7-.6-.5-1.3-1.2-1.9-1.8zM20 80.9c-.4-.9-.3-1.8.2-2.7.1-.2.5-.4.8-.4 1 .2 2 .6 3 .9-.7 1.8-2 2.4-4 2.2zM62.4 93.8c-.3-.2-.7-.3-1-.4-.4-.1-.8-.2-1.1-.4v-2.5c0-1-.5-1.6-1.2-2.1-.5-.3-1-.3-1.4.1s-.8.9-1.1 1.4c-1.3 2.5-1.8 5.2-1.7 8 0 1.1.3 1.2 1.6 1 .1-.5.2-1.1.2-1.6 0-1.1 0-2.1.1-3.2 0-1.3.4-2.5 1-3.7.1-.3.4-.5.6-.8.9.8 1 1.5.6 2.6-.2.5-.5 1-.7 1.6-.3.7 0 1.1.8 1.1.2 0 .5-.2.7-.2 1-.1 2 .1 2.9.8-.7 1.4-2.6 1-3.2 2.3l.2.2c.1 0 .2.1.2.1 1.2.3 2.2-.2 3.1-1 1.3-1.4 1.2-2.4-.6-3.3zM24 96.6c-1 .5-1.5.9-1.4 1.4s.4.8.9.8c.6.1 1.3-.3 1.4-.8.2-.7-.4-1-.9-1.4z"/>
  </g>
  <path fill="none" d="M206.4 98.4c-.2 0-.4.1-.6.1M191.4 84.1s0-.1 0 0"/>
  <circle fill="#FFF" cx="140" cy="131.5" r="2"/>
  <circle fill="#FFF" cx="181.4" cy="133.5" r="2"/>
</svg>
