<svg version="1.2" baseProfile="tiny" xmlns="http://www.w3.org/2000/svg" viewBox="0 0 368.3 419.9" overflow="visible" xml:space="preserve">
  <path fill="#CFD2D3" d="M368.1 252.2c-.7-3.8-3.2-6.9-5.8-9.6-2.5-2.6-5.3-5.4-9-6-3.3-.5-6.9.8-9 3.4-1.1 1.4-1.6 2.8-2 4.4.1.3.1.7.2 1 .2.8.6 1.6 1.1 2.4.1.2.1.7.1 1.2.2.4.4.7.6 1 2.2 3.3 5.3 5.6 8.9 7.2 3.4 1.4 7.6 2.8 11 .9 1.4-.7 2.4-1.9 3.1-3.3.4-.8.6-1.6.8-2.4v-.2c0 .1 0 0 0 0zm-9.2 2.1c-1.6 1.4-4 .5-5.7-.2-1.8-.8-3.6-1.9-4.7-3.6-.5-.7-.8-1.6-.9-2.4 0-.4-.1-.8-.1-1.2-.1-.1-.1-3.3 0-2.9v-.4c0-1.6.6-3.2 1.9-4.2 1.1-.9 3.6-1.3 4.1.5v2c.7 0 1.4.1 2.1.3.9.2 1.8.6 2.6 1.2s1.4 1.3 1.8 2.1c.4.9.4 2 .4 3 0 2 .2 4.3-1.5 5.8z"/>
  <path fill="#CFD2D3" d="M358.1 262.5c-12.4 11.1-24.9 22.1-37.3 33.2-13.4 11.9-26.9 23.7-40.1 35.8-7 6.4-13.8 13-20.3 20-3.6-1-7.2-2.1-10.7-3.6-5.1-2.1-9.8-4.8-14.8-7.2-4.1-2-8.4-3.5-12.8-4.6 15.7-13.9 31.3-27.9 47-41.8 4.8-4.3 9.6-8.5 14.4-12.8.1.2.3.3.4.5v-.9c11.5-10.2 23-20.4 34.4-30.8 8.8-8 17.5-16.1 25.9-24.5l-1.5 4.8c-.9 3.1-1.9 6.3-2 9.5 0 1.6-.2 3.3.1 4.9.3 2 1.1 4 2 5.8 2 4.2 5.2 7.4 9.3 9.4 1.7 1 3.8 1.9 6 2.3zM66.9 152.9c-.3.3-.6.6-.9 1-7.9 7.8-17.6 13.5-28.3 16.3-5.2 1.4-10.8 2.1-16.2 1.9-5-.2-10.2-1.6-13.2-5.9-1.4-1.9-2.2-4.2-2.7-6.5-.2-1.1-.4-2.2-.5-3.3-.1-.4 0-2.1-.1-1.7v-1c.3-5.9 1.4-11.8 3.3-17.4 3.8-11.1 11.2-21.1 21.7-26.6 4.5 6.9 9.5 13.3 14.9 19.5-4.7 2.5-9.5 5-14.2 7.5-.2.1.2 1.2 0 1.2 5-2.6 10-5.3 15-7.9 5.8 6.6 12 13 18 19.4.3.3 1.8 2.2 3.2 3.5z"/>
  <path fill="#CFD2D3" d="M187.9 311c-7.5 6.3-17.6 8.4-27.2 9.4-12.7 1.3-25.5.7-38-1.7-6.5-1.3-13-3-18.7-6.5.1 0 .1.5.1 1.1L12.3 173.5c1.3.8 2.8 1.4 4.4 1.7 5.6 1.3 11.7.6 17.2-.5 11.9-2.3 22.8-8.1 31.5-16.5 4.9-4.7 9.1-10.1 12.8-15.7 1.9-2.8 3.7-5.7 5.4-8.6.6-.9 1-1.7 1.2-2.6 7.9 16.4 16.7 32.3 26.4 47.7 2.3 3.7 4.8 7.4 7.2 11.1 0 .3 0 .5.1.6.1.1.1.1.1.2v1c0 .2-.1.6 0 .7.3.4.6.9.8 1.4 0 .6.1 1.2 0 1.9.1-.5.1-1 .2-1.5 3.3 5.4 6.7 10.8 10 16.2.7 1.2 1.4 2.3 2.1 3.5v-.2c2.1 3.4 4.2 6.7 6.1 10.2-2.3 1.7-4.8 3.1-7.6 4-10.2-7.4-20.1-15.4-28.9-24.4-2-2.1-4-4.2-5.8-6.5V196c-8-.5-15.5-2.8-22.6-6.5-1.5-.8-3.4-1.7-5.1-.8-1.4.8-2 2.4-2.4 3.8-.6 2.3-.8 4.8-.8 7.2-1.5.3-1.3 2.6-1.3 3.7 0 1.8 0 3.5.3 5.3.5 2.9 1.8 5.8 4.3 7.5 0 .6.1 1.2.1 1.3 1.8 5.6 9 4.9 13.1 8.1-.1.5-.2 1.3 0 1.6 8.1 12.9 17.4 25 27.7 36.3 2.7 2.9 5.4 5.7 8.2 8.5 0 .2 0 .3.1.3h.3l.5.5c-.1 0-.1-.2-.1-.4 6.6.5 13.1-.6 19.4-2.4 6.5-1.8 13-3.9 19.4-6.1 1.2-.4 2.4-.9 3.7-1.3v.4c0 .2-.1.6 0 .7 9 15.8 18.2 31.6 27.6 47.3z"/>
  <path fill="#E69E6C" d="M174.2 32c-1.4 2.7-2.8 5.3-4.1 8v-.2c0-.2-.1-.3-.3-.5-.7-.5-1.6-1-2.3-1.4-1.6-1-3.2-1.9-4.8-2.9-1-.6-2.1-1.1-3-1.9 1.1-2.6 2.8-4.9 4.9-6.8v-3.2s.1-.5.2-.8v1.6c0 .5-.1 1.1 0 1.6.1.2.2.3.4.5 1.3.9 2.6 1.7 3.9 2.6 1.8 1.2 3.5 2.3 5.1 3.4zM229.5 74.7c-.2.9-.4 1.7-.8 2.4-1.3 2.6-3.8 4.4-6.5 5v-.8l-9.3-6.9c.1-1.3.1-2.7.1-4 0 .1.1.2.1.3-.2-.6 0-1.8 0-2.5s.2-1.8 0-2.5c-.6-1.8-1.2-3.5-1.8-5.3 4.4 4.8 10.2 8.1 15.9 11.1v.7c0 .1.1.5 0 .6.3-.4.7-.4 1.1-.3 0 .2 0 .3-.1.3.1 0 .3-.1.4-.1l.2.2c.4.4.6 1.1.7 1.8z"/>
  <path fill="#00269A" d="M235.7 75.8c-.1.5-.2 1-.4 1.5-.4 1.2-1 2.3-1.7 3.4-1.4 2.1-3.2 4.1-5.3 5.7-.6.5-1 .3-1.6-.1-.6-.5-1.1-1-1.6-1.5l-.1-.1c2.1-1.2 3.8-3.2 4.4-5.7.2-.9.3-1.8.3-2.7V76c.1.1.1-2.9 0-2.8v-.6c.9.4 1.9.8 2.9 1.2 1.1.4 2.6.7 3.1 2z"/>
  <path fill="#FDEBE3" d="M209.5 274.4c-.7.1-1.3.2-2 .3-4.4.8-8.7 2.1-12.7 4-3.9 1.8-8 4-11.1 7-1.5 1.4-2.8 3.1-3.1 5.1-.1.9-.1 1.8-.1 2.8-6.2-10.5-12.3-21.1-18.3-31.8 10.8-3.8 21.5-7.8 32-12.2l6.3-2.7v.6c0 1.7.2 3.3.4 5 .5 3.8 1.5 7.5 2.8 11s3 7 5.1 10.2c.3.1.5.4.7.7zM172.6 195.9c-.4.3-.9.7-1.3 1-4.6 3.5-9 7.1-13.4 10.8-2.2 1.8-4.4 3.7-6.5 5.6-1 .9-2.1 1.8-3.1 2.7-1.1.9-2.3 1.7-3.4 2.6-1.9 1.4-3.7 2.9-5.5 4.4 0-.5 0-1-.1-1.5 0-.3 0-.8-.1-1.1-.1-.3 0 .1 0 .2s0 .3-.1.4c-2.6-5.1-5.6-9.9-8.6-14.7v.1c-3.2-5.1-6.4-10.3-9.6-15.4-.1-.2-.2-.3-.3-.5 1.2-4.2 3.4-8.1 6.8-11 1.2-.4 2.3-1.3 3.5-.8-.1 0 0-1.7 0-1.9 0-.2.1-1.8 0-1.9-1-.4-2 .1-2.9.6v-.3c-.2.2-.4.3-.6.5-.3.1-.5.2-.8.2-1 .1-1.9-.5-2.8-1-.8-.4-1.5-.9-2.2-1.4-.2-.1-.3-.2-.4-.3 1.5 0 3-.3 4.3-1 3.5-1.7 5.4-5.5 7.4-8.6 2.2-3.5 4.2-7.2 5.4-11.2.8-2.7 1.1-5.5 1.1-8.3 4.5.9 9.5-.1 13.9-1.4 6.1-1.8 12-4.2 17.5-7.3 0 .1-.1.2-.1.3-.6 2.2-1.2 4.4-1.6 6.7-.9 4.5-1.5 9-1.7 13.6-.5 8.8-.1 17.7 1.6 26.3.8 4.7 2 9.2 3.6 13.6z"/>
  <path fill="#E4610E" d="M164.8 324.9c-.9 1.7-1.6 3.4-2.1 5.2-.3 1.4-.4 2.7-.5 4.1v.8c-18.4 5.3-37.5 8.1-56.7 7.7-2.8 0-5.5-.2-8.3-.4-1.3-.1-2.7-.2-4-.3-.4 0-1.2 0-1.8-.2-.2-.2-.4-.4-.7-.6v-.3c0 .1-.1.1-.1.2v.1l-2.1-1.8c-1.5-1.1-3.4-2.3-5.4-2.1-2.1.2-3.8 2.1-5.2 3.4-1.6 1.4-3.1 2.9-4.6 4.4-.3.3-.6.7-.9 1v-.6s0-.1-.1-.2v.2c-.4.6-1.7.4-2.3.4h-2v-.2c0-.1.1-.6 0-.7-.2-.2-.3-.3-.4-.5 0-.3-.1-.6-.1-.9.1-.5.1-1 .2-1.6.1-.4.1-.8.2-1.1.1-.8 0-1.7 0-2.5V336c-.1.5-.2 1-.2 1.5-.3 1.7-.5 3.5-.6 5.2v2.6c-4.8 1.4-10 .8-14.3-1.9-.3-.6-.6-1.2-.8-1.9v-.1c.3-1.7.7-3.4 1.2-5.1 1-3.6 2.2-7.1 3.8-10.4 1.5-3.2 3.5-6.3 5.9-8.9 2.2-2.4 5-4.5 8.4-4.5 1.7 0 3.3.5 4.6 1.7 1.1 1.1 1.6 3 3.2 3.4-.1 0-.1-.2-.1-.4 4.2 1 8.6.8 12.9.8h13.9v-.3c4.7 2.6 9.8 4.1 15 5.3 6.1 1.3 12.3 2.1 18.5 2.5 6.4.4 12.9.4 19.3-.1 1.9 0 4.1-.2 6.2-.5z"/>
  <path fill="#EF7F07" d="M147 343.8c-1.6 1-3.3 2.1-4.9 3.2-4.2 2.9-8.4 5.8-12.4 9-7.5 6-14.3 13-18.8 21.4v-1c-.1 1.3-1.6 1.5-2.6 1.4-1.4-.1-2.9-.2-4.3-.3-2.8-.2-5.5-.4-8.3-.6h-.5v.2c-3.4 1.9-7.1 2.5-11 2.6-3.6 0-7.2-.2-10.8-.6V378.3c-.3-.1-.5-.3-.6-.5.3-1.2.7-2.5 1.1-3.7 1.2-3.2 2.9-6.2 4.9-8.9.1-.1 0-.7 0-.7v-3.6c0-.1-.1-.6 0-.7-2.6 3.4-4.5 7.2-5.7 11.3-.5 1.6-.8 3.2-.9 4.9 0-.3-.1 0 0 .7v1.6c-2.5.2-5 .3-7.5-.3-1-.3-2-.7-2.9-1.4-.3-.3-.7-.6-1-1 0-.4 0-.7-.1-1-.3-.8-.5-1.7-.7-2.5.2-1.6.6-3.1 1.2-4.6 1.3-3.5 3.2-6.7 5.4-9.7 2.2-3.1 4.7-6 7.3-8.7 1.4-1.4 2.8-2.8 4.3-4.1 1.3-1.1 2.7-2.7 4.5-3 2-.3 3.9.8 5.5 2 .8.6 1.6 1.3 2.4 2 .1.2.3.4.5.6h.1l1.8 1.8c-.1-.1-.1-.8-.1-1.5.4 0 .9 0 1.3.1 1.3.1 2.7.2 4 .3 5.2.3 10.4.4 15.6.2 10.5-.3 21-1.5 31.3-3.6.8-.3 1.4-.4 1.9-.5zM306.3 316.3c-.1 1-.4 2.1-.6 3.1-.5 2.1-1 4.2-1.7 6.2-1.1 3.5-2.6 7-4.9 9.9 0-1.1-.1-2.2-.2-3.3-.3-2.9-1.4-5.6-3.1-8v4.2c0 .2-.1.6 0 .7.7 1.1 1.1 2.2 1.4 3.5v.5c-.4 2.7-1.4 5.2-2.7 7.6-1.3 2.4-2.9 4.6-4.6 6.7-.9 1.1-1.8 2.1-2.6 3.1-.6.7-1.6 2.4-2.7 2.1v1.4c-1.2 0-2.5.1-3.7.1-6-.1-12-.8-17.8-2.1 10.9-11.4 22.7-21.8 34.4-32.3 2.8-2.5 5.5-4.9 8.3-7.4v.2c0 .8-.2 1.8 0 2.5.4.6.4.9.5 1.3z"/>
  <path fill="#00269A" d="M162.1 25.4c-1.7 2.2-2.9 4.7-3.5 7.4 0 .1 0 .2-.1.4 0-.4 0-.8-.1-1.1l-.3-1.2v.1c-.8-2.6-1.7-5.2-3-7.6.7.3 1.4.5 2.1.8 1.7.6 3.3 1 4.9 1.2z"/>
  <path fill="#EF7F07" d="M122.7 34c-1.1.8-2 1.8-2.8 2.8-.9 1-1.8 2.1-2.6 3.2.1-1.4.1-2.9.1-4.3 0-1.8-.1-3.7-.4-5.5-.2-1.1-.4-2.2-.7-3.2 2 2.3 4 4.9 6.4 7z"/>
  <path fill="#E4610E" d="M117.1 40.2c-.8 1-1.5 2.1-2.3 3.2-.3.5-.6 1-1 1.5v-1.6c-1.3-.6-2.4-1.4-3.5-2.4-1-.9-2-1.9-2.7-3.1l-.3-.6c.3-.4.6-.8 1-1.1.4-.2.8-.4 1.2-.5.2 0-.1-3.7 0-3.8-1 .1-1.8.8-2.3 1.7-.7 1-1.3 2.1-1.7 3.3-.4 1.3-.5 2.7-.5 4v2.7c0 1.5.2 3 .7 4.5-1.7-.1-3.5.5-5 1.3-.1.1-.3.2-.4.2 0-5.4.2-10.8.7-16.3.3-3.8.8-7.5 1.2-11.3.2-1.9.5-3.8.7-5.6.1-.6.2-2.7 1-3.1.2.7.8 1.2 1.3 1.7.6.7 1.2 1.4 1.9 2 1.9 2 3.7 4.1 5.6 6.2v.2c1.6 2.4 2.8 4.9 3.5 7.7.4 1.3.6 2.7.8 4.1 0 .3.1.6.1.9v.1c0 .5-.1 1.1-.2 1.7.1.8.2 1.6.2 2.4z"/>
  <path fill="#EF7F07" d="M104.2 93.4c-1.7-.2-3.4-.2-5.1-.3.1-.7.2-1.3.3-2 1.3.2 2.7.4 4 .6.2.5.4 1 .7 1.6.1 0 .1 0 .1.1zM109.9 96.8v1c-3.8 1.1-7.6 2.4-11.3 3.9-.1-.1-.1-.2-.2-.3-.3-.6-.4-1.2-.7-1.8 0-.2.1-.3.1-.3.3-1.6.7-3.2 1-4.8v-.1c2 0 4 .1 6.1.3.7 1.2 1.7 2.2 3.1 2.3 1.2.1 1.9-.6 2.5-1.5.1 0 .2.1.4.1-.4.4-.7.8-1 1.2zM108.4 73.4c0-.2 0-.4.1-.4l-.6.3c-.7 0-1.3.1-1.9.5-.1.1-.1.5-.1.9-1.8 1.7-2.9 4.1-3.2 6.5-.2 2-.2 4.1-.1 6.1.1 1 .2 1.9.5 2.9-1.2-.2-2.3-.3-3.4-.5.5-4.1.8-8.2.9-12.3 0 .1.1.3.1.4.2.5.7.3.9-.1.1-.1 0-.5 0-.6v-2.6c0-.1-.1-.5 0-.6l-.1.1c.2-.3.4-.6.7-.9 1.5-1.5 3.6-1.8 5.5-1 1 .4 1.8 1.1 2.5 1.9-.5-.1-1.1-.4-1.8-.6zM349.7 342.8c0 .6-.1 1.2-.1 1.8-.2 1.4-.4 2.8-.7 4.1-1.1 5.1-2.9 10.1-4.9 14.9-1.9 4.6-4.3 9.1-7.3 13-6 7.8-14.8 13.2-23.7 17.2-17.9 7.9-37.9 9.5-57.3 9-19.9-.5-39.7-3.2-59.7-3.7-19.5-.5-39.7 1.1-57.7 9.2-4.6 2.1-8.9 5-13.7 6.7-4.3 1.6-9 1.6-12.7-1.4-3.1-2.5-4.8-6.4-5.7-10.3-.2-1-.4-2.1-.5-3.1 0-.4-.1-.8-.1-1.2 0-.5.1-.9.1-1.4.2-2.4.7-4.8 1.4-7.2.8-2.8 1.9-5.5 3.2-8 .3-.2.6-.6.6-1.2 3.1-5.8 7.3-11 12-15.5 7.2-7 15.7-12.9 24.2-18.2 4.5-2.8 9.2-5.3 14.2-7.1.4-.1.7-.2 1.1-.4.1.4.1.8.2 1.2v-1.4c4.4-1.5 8.9-2.4 13.5-3 10.4-1.2 21-.6 31.4.6 5.3.6 10.7 1.3 15.9 2.6 5.2 1.3 10.1 3.5 14.9 6 4.6 2.4 9.2 4.7 14.1 6.5 2.5.9 5 1.7 7.6 2.4 0 .4 0 .7-.1.8.2-.2.4-.5.6-.7 2.4.6 4.8 1.2 7.2 1.6 17.6 3 37.1.7 51.8-10.1 3.4-2.5 6.4-5.5 9-8.8.2-.3 0-1.5 0-1.9 0-.4-.2-1.6 0-1.9-9.4 12.2-24.4 18.3-39.4 19.8.7-.9 1.4-1.7 2.1-2.6 2-2.7 3.8-5.5 5-8.6 1.1-3 1.4-5.9 1.5-9.1v-1.5c.3.6.5 1.2.7 1.8.2.7.4 1.4.5 2.1-.2.3-.5.6-.7.9-.3.3 0 2.1 0 2.5v1.8c0 .1.1.7 0 .7.3-.3.6-.7.8-1 3.1-3.9 4.8-8.6 6-13.3.7-2.7 1.4-5.5 1.6-8.3.1-2.3.2-4.7-.1-7.1 3.6-3.2 7.1-6.4 10.7-9.5 0 .1 0 .2.1.3 4.5 3.5 8.8 7.1 13.1 10.7 3.6 3.1 7.1 6.2 10.2 9.7 3 3.4 5.7 7.2 7.3 11.5.9 2.2 1.4 4.5 1.7 6.9.1.4.1.8.1 1.2z"/>
  <path fill="#EF7F07" d="M265.4 262.5c-.2-.2 0-1.6 0-1.9-4.2-7.2-7.5-15.1-11-22.6-6.6-14.4-13-28.8-18.4-43.7-5.5-15-9.8-30.4-12.4-46.2 0-.1 0-.3-.1-.4-1.4 1.9-2.5 3.9-3.4 6 .1-.1 0-.4 0-.5V150c1.1-2.6 2.6-5 4.4-7.2.4-.5.9-1 1.4-1.5-5.2-4.1-10.5-8.1-15.9-11.9-14-10-28.9-19.1-44.8-25.8-7.4-3.1-15.1-5.7-22.9-7.7-.6.8-1.2 1.5-2 2s-1.8.7-2.6 0c-.7-.6-1.1-1.7-1.5-2.5-.1-.3-.2-.7-.4-1-2.4-.5-4.8-.9-7.2-1.2-1.1-.2-2.2-.3-3.4-.4-.2 0-.4 0-.6-.1v.5c-.6.4-1.1.9-1.7 1.3v-1.3c.3-.2.6-.4.8-.7-.3-.1-.6-.2-.7-.5 0-.1-.1-.2-.1-.2-.1-.4-.1-.8 0-1.2v-.2.3c.3.8 1.5.8 2.2.9 1.1.1 2.2.3 3.4.4 2.3.3 4.5.7 6.8 1.1-1-3.5-1-7.2-.8-10.8.1-2.1.7-4.7 2.1-6.4 0-.4 0-.9.1-1 1.5-1.4 3.8-1.3 5.5-.2 1.8 1.3 2.6 3.7 2.9 5.8.3 2.1.2 4.3.1 6.4-.1 2.1-.6 4.2-1.4 6.1-.2.6-.6 1.2-.9 1.8 1.9.5 3.8 1 5.6 1.6 15.7 4.7 30.6 11.9 44.5 20.4 11.7 7.2 22.7 15.3 33.5 23.8l.1-.1c-1.4-1.6-2.7-3.8-3.2-4.5-8.1-12.2-12.9-26.5-14.2-41.1v-.1c-1 2.9-2.1 5.7-3.5 8.4-.9 1.8-2 3.6-2.9 5.5-.4.9-.9 1.8-1.2 2.8-.2.5-.3 1-.4 1.6.1 1.1-.2 2.3 0 3.4-.6-3.6-.3-7.5 1.2-10.8 1.7-3.8 3.9-7.3 5.4-11.1.5-1.2.9-2.4 1.3-3.7v-1.1c0 .3.1.6.1.9.9-2.6 1.6-5.3 2.2-8.1.3-1.6.6-3.2.8-4.8-.1-.1-.2-.2-.3-.2-.1 0 0-.5 0-.6v-3.2c.2.2.5.3.7.5 0-.5.1-1 .1-1.5s.1-1 .1-1.6v-1l-4.5-13.5-.1-.1c-.1-.1-.1-.2-.1-.4-4.2-12.8-8.5-25.6-12.7-38.4 1.4 9.8 2.8 19.6 3.9 29.4.3 2.5.3 5.1.3 7.6 0 2.3 0 4.6-.7 6.9-1.2 4.4-4.3 8-7.3 11.4.1-.1 0-.6 0-.7v-1.8c0-.2-.1-.6-.1-1-3.4-2.8-5.5-7.6-5.7-11.8v-1.4c-.1-.5-.1-1.8 0-2.3V53c-.8.6-1.5 1.4-2 2.2-.5.7-.9 1.5-1.1 2.3-.1.2-.1.4-.1.5.4 1.3 1 2.6 1.9 3.7.1.1 0 .6 0 .7v3.5s-.1.7 0 .7c-.7-.9-1.3-2-1.6-3.1v2.4c0-.1-.1.7 0 .7-1.1-1.1-2.7-1.6-4.3-1.5.5.5.9 1 1.3 1.5.1.1 0 .6 0 .7v3.6c0-.1-.1.7 0 .7-1.1-1.2-2.2-2.6-3.7-3.3-1.3-.6-3-.6-4.1.4v-4.9c1.5-1.5 3.3-2.9 5.4-3.4 1.7-.4 3.6-.1 5 .9 0 0-2-12.1-13.5-13.6-.1.2-.2.5-.3.7.1-.1 0-.6 0-.7v-1.8c0-.6-.2-1.9 0-2.5l.4-.8-1.5-.9c-1-.6-2.1-1.3-3.1-1.9-1.1-.7-2.1-1.3-3.2-2-.8-.5-1.6-1-2.2-1.9v-.1c-.1.2-.1.5-.2.8v-1.8c0-.4-.1-.9 0-1.3V36c-.5-1.5-.9-3.1-1.5-4.6v.2c0 .5.1 1.1-.1 1.6 0-.2.1-.3 0-.6-.5-1.2-2.1-1.7-3.2-2.2-1.4-.5-2.8-.9-4.2-1.2-2.9-.5-5.9-.4-8.8.2-5.3 1-10.2 3.5-14.7 6.5 0 .1-.1.1-.1.2v.6c-.5 0-1 .1-1.4.2-.2.2-.4.3-.6.4 0 0 .1-.1.1-.2-1.7.7-3 2.3-4.2 3.7-1.7 2.1-3.4 4.2-4.9 6.4-3.1 4.6-5.6 9.5-7.6 14.7.2-.5 0-1.4 0-1.9s-.2-1.4 0-1.9c1.6-4 3.5-7.9 5.7-11.5-1.1-.7-2.1-1.5-3.1-2.4-1.1-1.1-2.3-2.3-2.8-3.9-.2-.8-.2-1.5-.2-2.3-.4.6-.7 1.2-.9 1.8-.3.7-.5 1.3-.6 2 0 .1-.1.3-.1.4.2 1.1.5 2.2 1 3.1.7 1.3 1.7 2.7 3.3 2.6-.1 0 .1 3.7 0 3.8-.5 0-.9-.1-1.3-.2v1c-2.4-1.3-5.3-.6-7.6.7-.1.1-.3.2-.4.2v1.4c1 .4 2 1 2.8 1.5.1 0 0 .5 0 .5V60c-.8-.5-1.8-1.1-2.8-1.5.1 4.7.2 9.5.2 14.2 0-.2.1-.4.1-.5.5-1.7 1.9-3.2 3.6-3.8 1.9-.6 4 .2 5.4 1.6 1.7 1.6 2.5 3.9 3 6.1.6 2.4.8 4.9.8 7.3v1.3c1.4 2.2 2.5 4.6 3.1 7.1 0-.3.1-.7 0-1 .1.3.1.6.2.9.1-1.4.5-2.7 1.2-3.8.7-1.1 1.8-2 3-2.6.5-.2 1-.3 1.5-.5-1.3-.4-2.7-.9-4-1.3-1.5-.5-3.6-.9-4.6.6.1-.1 0-.5 0-.6s-.1-.5 0-.6c1-1.5 3.2-1.1 4.6-.6 2.2.7 4.4 1.5 6.6 2.2h.1v-.4c.1.1.2.2.3.4.2 0 .4-.1.6-.1 0 0 .1 1.2 0 1.2s-.2 0-.4.1v.3c-.2-.1-.4-.2-.7-.2-2.2.3-4.4.6-6.1 2.2-.8.8-1.4 1.7-1.8 2.7-.2.5-.3 1-.4 1.5.9 4 1.8 7.9 2.9 11.8.1.4 0 .9 0 1.2v1.3c-.1-.2-.2-.5-.3-.8-.1-.2-.1-.4-.1-.6-1.1-3.9-2-7.8-2.8-11.7V93c-.7-2.4-1.7-4.8-3.1-6.9v.7-.8c-.2-.4-.5-.7-.7-1.1-.2-.3.2-1 0-1.2.2.3.4.6.7.9-.2-2.2-.6-4.4-1.3-6.5.2.9.3 1.9.3 2.8.2 3.6.2 7.4-.7 10.9.5.1.9.2 1.4.2.1 0-.1 1.2 0 1.2l-1.8-.3c0 .1-.1.2-.1.4-.1.3-.2.7-.4 1 .2.1.5.1.8.2.2-.3.5-.6.7-.9v1.1l1.2.3c.1 0-.1 1.2 0 1.2-.7-.2-1.3-.3-1.9-.5-.6.7-1.1 1.3-1.6 1.9.5-.1.9-.3 1.4-.4-.1 0 .1 1.2 0 1.2-4.2 1.1-8.3 2.6-12.4 4.2 1 1.9 2.3 3.7 3.6 5.4 3.2 4.2 7.1 7.9 11.1 11.5 4.1 3.6 8.2 7 12.2 10.7 4.1 3.8 7.5 8.7 13.2 10v-.1.1c.1 0 .2.1.3.1 5.6 1.1 11.5-.6 16.8-2.3 5.9-1.9 11.5-4.5 16.9-7.7-.1.1-.1.7 0 1.2.1 0 .3-.1.4-.1-.1 0 .2 3.7 0 3.8-1.9.2-2.4 2.7-2.8 4.2-.6 2.1-1.1 4.3-1.6 6.5-.9 4.1-1.4 8.2-1.7 12.3-.1 1-.1 2.1-.2 3.1v2.8c.1 2.1.2 4.1.4 6.2.8 8 2.7 15.9 5.5 23.4.2.4.1 1.1 0 1.6 8.3-6.2 17-11.8 26.1-16.6-.1.1 0 1.2 0 1.7.1-.1.2-.2.4-.2V184c-3.9 2.4-6.8 6.4-8 10.9V191.1c.5-2.1 1.5-4.1 2.7-5.9-3.9 2.2-7.8 4.6-11.6 7.1-9.4 6.2-18.2 13.2-26.7 20.5-2.2 1.9-4.4 3.7-6.5 5.6-2.1 1.8-4.2 3.4-6.4 5.1-4 3.2-7.9 6.6-12.9 8.1-2.6-1.9-5.2-3.8-7.7-5.8-5.2-4.1-10.3-8.3-15.2-12.8-4.4-4-8.7-8.2-12.3-12.9-.1-.1-.1-.4-.1-.6-6.6-.5-13-2.1-19-4.9-2.3-1.1-6.1-4.1-8.6-1.9-1.1.9-1.5 2.4-1.9 3.7-.2.8-.4 1.6-.5 2.4 0 .4-.1.7-.1 1.1 0 .9.1 3.4 0 3.4-.6.1-.9.4-1.2.9 0 .1 0 .2-.1.2.2 1 .4 2.1.8 3 .9 2.5 2.6 4.6 5.1 5.6.1 0 .1 1.8.1 2.9 3.2 3.4 9.7 3 12.8 6.8.2.3 0 1.5 0 1.9v.4c2 3.1 4 6.1 6.1 9.1 8.6 12.3 18.4 23.8 29.1 34.3 7.6.7 15.1-1 22.3-3.1 6.9-2 13.7-4.2 20.6-6.5v-.2c0 .1.1.1.1.2 18.6-6.4 36.8-13.8 54.6-22.1V235.8c2.7-2.2 5.6-4.3 8.5-6.2-3.1-1.1-6.4-1.9-9.7-2.2-.1 0 .1-3.7 0-3.8 4.1.4 8.1 1.4 12 3.1v1.5l.1-.1V231.9c-3.8 2.2-7.3 4.8-10.7 7.5 0 .4 0 .9-.1.9-4.6 2.2-9.2 4.2-13.9 6.2 0 .1 0 .2-.1.2s-.4.3-.5.4c0 .5.1 1 .1 1.6l.6 4.2c.5 2.7 1.3 5.3 2.2 7.9.9 2.6 2.1 5.1 3.4 7.5.7 1.2 1.4 2.4 2.2 3.6.4.6.8 1.2 1.2 1.7.1.2.3.5.4.7h.1c.1-.6.3-1.3.1-1.7.2.3.3.7.4 1 0 .2.1.4.1.6.9-.1 1.7-.2 2.6-.2 1.2-.1 2.6-.2 3.9 0-.3-1.1-.3-2.3-.3-3.5-.1-.1-.1-1.2 0-1.4 0-1.6.1-3.2.7-4.7.7-1.8 2-3.4 3.1-5 3.6-4.7 7.6-9.7 13-12.3 1.1-.7 2.3-1.3 3.5-1.8-.1 0 0 1.7 0 1.9s.1 1.8 0 1.9c-.2.1-.5.2-.7.3 0 .2 0 .4-.1.4-.9.3-1.9.6-2.7 1.1-2 1.3-3.7 3.1-4.6 5.5l-.3 1.2c.2.8.4 1.6.8 2.3.8 1.7 1.9 3.3 3.1 4.8 2.4 3 5.5 5.5 8.6 7.6 1.6 1.1 3.4 2.1 5.4 2.2 2.1.2 4.2-.4 6.2-.9-.3.1.3 3.7 0 3.8-2.3.6-4.7 1.3-7.1.8-2.2-.4-4.1-1.8-5.9-3.1-3.5-2.6-6.9-5.6-9.2-9.4-1.1-1.8-2.1-3.7-2.2-5.9-.1-1.8-.2-3.8.1-5.6-2.2 1.9-4.2 4.1-6 6.4-2 2.5-4.4 5.1-5.3 8.2-.1.3-.1.5-.2.8.1.6.2 1.1.4 1.7.5 1.3 1.5 2.7 3.1 2.5-.1 0 .2 3.7 0 3.8-.5.1-.9 0-1.3-.2 0 .5-.1 1 0 1-1.5-1-3.5-.9-5.2-.8-2 0-3.9.2-5.9.5-3.8.5-7.6 1.5-11.3 2.9s-7.1 3.2-10.3 5.3c-1.6 1-3.2 2.2-4.5 3.5-.6.6-1.2 1.4-1.7 2.1-.4.6-.6 1.6-.7 1.9 3.4 5.8 6.8 11.5 10.3 17.2.1.1 0 .6 0 .7v3.6s-.1.6 0 .7l-1.2-2.1c0 .1-.1.3-.1.3-4.2 4.2-9.6 6.9-15.2 8.5-2.6.7-5.2 1.3-7.8 1.7v1.2s.1.6 0 .7c-1.1 2-2.3 4.1-3.1 6.2-.3.9-.6 1.8-.8 2.7v.7c7.9-2.6 16.3-3.6 24.6-3.6 5.3 0 10.6.3 15.9.8 5.2.5 10.4 1.1 15.6 2 0-.1 0-.2.1-.2 9.4-8.4 18.9-16.8 28.3-25.1 11.6-10.3 23.1-20.5 34.7-30.8-5-5.9-10.5-11.5-16.6-16.5zM133 76.6c.1-1.4.8-2.9 1.6-4.2 3-4.7 9.5-6.4 14-2.8 2.4 1.9 3.8 5.2 4.7 8 1.1 3.1 1.6 6.3 1.7 9.6v3.6c-.1-3.9-.9-7.7-2.4-11.3-1.3-3.1-3-6.1-6.2-7.4-5.5-2.2-11.6 1.4-13.1 6.9v.2c0 .3-.2 1.5-.1 1.8-.4-.5-.2-1.3-.2-1.8 0-.9-.1-1.7 0-2.6zm-19.4 23.2c.7-.5 1.3-1.2 1.7-2v1.3c-.4.8-1 1.4-1.7 2v-1.3zm-1.4 4c1-.4 1.8-1.1 2.3-2v1.3c-.5.9-1.4 1.6-2.3 2v-1.3zm7 2.9c-4.2.8-8.6.5-12.6-.8-.1 0 .1-1.2 0-1.2 4.1 1.3 8.4 1.6 12.6.8 0 0 .1 1.2 0 1.2zm-53.6 96c-.1 0 0-1.7 0-1.9v-1.9c3 .4 5.9 1.2 8.7 2.2v1.9c0 .2-.1 1.9 0 1.9-2.9-1.1-5.8-1.8-8.7-2.2zm11.6 12.2c-1.8.2-3.6.1-5.3-.2v-3.8c1.8.3 3.6.4 5.3.2v1.9c0 .2.1 1.9 0 1.9zm51-117.8c.2-.3.5-.7.8-1v1.2c4.2 1.2 8.4 2.6 12.4 4.1 24.5 8.8 47.4 22 67.4 38.8.2.2-.2 1.1 0 1.2-5.6-4.7-11.4-9.1-17.4-13.2-19.3-13.2-40.7-23.3-63.2-29.8-.3.4-.7.9-1 1.3v-1.2c.1-.1.1-.2.2-.2-2.3-.7-4.6-1.3-6.9-1.9-.1 0 .1-1.2 0-1.2 2.5.5 5.1 1.2 7.7 1.9zm-8.6-4.1v-1.2c.5-1 1.3-1.8 2.3-2.3v1.3c-1 .4-1.8 1.2-2.3 2.2zm105.8 80.6c-7.1-6.3-14.1-12.6-21.2-18.8-12.6-10.9-25.5-21.6-39.2-31.2-7.5-5.3-15.3-10.3-23.3-14.9-7.1-.7-14.3-1.4-21.4-2.1-.1 0 0-1.2 0-1.2 6.3.6 12.5 1.2 18.8 1.9-5.6-3.1-11.4-6.1-17.3-8.7-.2-.1.1-1.2 0-1.2 6.8 3.1 13.5 6.5 20 10.2 1.4.1 2.8.3 4.2.4.1 0 0 1.2 0 1.2-.5-.1-1.1-.1-1.6-.2.8.5 1.6.9 2.4 1.4 14.3 8.6 27.7 18.5 40.6 29 13.1 10.6 25.6 21.8 38.1 33 .1.1-.3 1-.1 1.2z"/>
  <path fill="#E4610E" d="M199.5 53.7c-.1.9-.2 1.9-.4 2.8-1.1 4-3.6 7.2-6.2 10.3v-.6c0-.1.1-.7 0-.7-3.4-2.1-5.6-6.1-6.5-9.9 0-.1-.1-.2-.1-.4.2-.7.4-1.3.6-1.9.3-.6.6-1.1 1-1.6.3-.1.5-.2.6-.5V51c.6-.6 1.3-1.1 2.1-1.5.2-.1 0-2.2 0-2.5 0-.2-.2-2.4 0-2.5-.9.4-1.6.9-2.2 1.5-.1-.2-.1-.2-.2-.2 0 0-.1.2-.1.5l-.3.3c-.1 0-.1 0-.2.1-.4.2-.8.4-1.1.6-.7.5-1.3 1-1.9 1.7-1.2 1.3-2 3-2.2 4.7-.2 1.1-.1 2.2-.2 3.3 0 1.3-.1 2.7.1 4.1 0 0-2-12.1-13.5-13.6 2.4-4.8 4.8-9.6 7.4-14.3.2.2.5.3.7.5V32c4.7-8.6 9.6-17 14.9-25.3.8 2.5 1.7 5 2.5 7.5.1.9.2 1.8.4 2.6.6 4.7 1.3 9.4 1.9 14 .6 4.8 1.3 9.5 1.9 14.3.3 2.3.6 4.7.9 7 0 .6.1 1.1.1 1.6z"/>
  <path d="M133.2 81c-.1-.3.1-1.5.1-1.8V79c1.5-5.5 7.6-9.1 13.1-6.9 3.2 1.3 4.9 4.4 6.2 7.4 1.5 3.6 2.3 7.4 2.4 11.3v-3.6c-.1-3.2-.6-6.5-1.7-9.6-1-2.8-2.3-6.1-4.7-8-4.5-3.6-11-1.9-14 2.8-.8 1.2-1.5 2.7-1.6 4.1-.1.9 0 1.7 0 2.6 0 .7-.2 1.4.2 1.9zM119.2 105.4c-4.2.8-8.5.5-12.6-.8.1 0-.1 1.2 0 1.2 4.1 1.3 8.4 1.6 12.6.8.1.1 0-1.1 0-1.2zM146.7 110.3c-.8-.5-1.6-.9-2.4-1.4.5.1 1.1.1 1.6.2 0 0 .1-1.2 0-1.2-1.4-.1-2.8-.3-4.2-.4-6.5-3.7-13.2-7.2-20-10.2.1.1-.2 1.2 0 1.2 5.9 2.7 11.7 5.6 17.3 8.7-6.2-.6-12.5-1.2-18.8-1.9 0 0-.1 1.2 0 1.2 7.1.7 14.3 1.4 21.4 2.1 8 4.6 15.8 9.6 23.3 14.9 13.6 9.7 26.6 20.3 39.2 31.2 7.1 6.2 14.2 12.5 21.2 18.8-.2-.2.2-1.1 0-1.2-12.5-11.2-25-22.4-38.1-33-12.8-10.5-26.2-20.4-40.5-29z"/>
  <path d="M120.4 96.3c2.3.6 4.6 1.2 7 1.9-.1.1-.1.2-.2.2v1.2c.3-.4.7-.9 1-1.3 22.4 6.6 43.8 16.7 63.2 29.8 6 4.1 11.8 8.5 17.4 13.2-.2-.2.2-1.1 0-1.2-20-16.7-42.9-29.9-67.4-38.8-4.1-1.5-8.3-2.8-12.5-4.1V96c-.2.3-.5.7-.8 1-2.6-.8-5.1-1.5-7.7-2.1.1.1-.1 1.3 0 1.4zM121.9 90.7v-1.3c-1 .5-1.8 1.3-2.3 2.3V93c.5-1 1.3-1.8 2.3-2.3zM113.6 100.8v.2c.7-.5 1.3-1.2 1.7-2v-1.2c-.4.8-1 1.4-1.7 2v1zM112.2 104.9v.2c1-.4 1.8-1.1 2.4-2v-1.3c-.5.9-1.4 1.6-2.4 2v1.1zM74.3 203v-1.8c-2.8-1-5.7-1.8-8.7-2.2v1.9c0 .1-.1 1.9 0 1.9 3 .4 5.9 1.2 8.7 2.2-.1-.1 0-1.8 0-2zM77.2 211.2c-1.8.2-3.6.1-5.3-.2v3.7c1.8.3 3.6.4 5.3.2V213c.1-.1 0-1.8 0-1.8z"/>
  <path d="M368.3 251.6v-.2c0-4.3-1.8-7.7-4.5-10.9s-6.1-6.9-10.4-7.6c-4.3-.7-8.9 1.6-10.6 5.7-.9 2.1-.8 4.4-.8 6.7v.4c-.1-.3-.2-.6-.4-.9-.3-.8-.5-1.6-.8-2.5 0-.1 0-.2-.1-.3.4-2.9 1.3-5.7 2.1-8.5.8-2.7 1.8-5.5 2-8.4.1-.1.1-.3.1-.6 0-.5-.1-1.1-.1-1.3v-1.8c0 .2 0 .5-.1.7 0-.3 0-.7.1-.8-15.4 15.4-31.7 29.9-48 44.4l-13.2 11.7c0-.5-.1-1.1-.2-1.6.1.6 0 1.2 0 1.7-.1 0-.1.1-.2.1-5-6.8-10.8-12.9-17.2-18.3 0-.5.1-1-.1-1.3-4.1-6.7-7.2-14.1-10.5-21.2s-6.6-14.3-9.7-21.5c-6.3-14.5-12-29.2-16.4-44.4-2.3-7.9-4.1-16-5.6-24.1.2-.2.3-.4.4-.6.9-1.1 1.9-2.1 2.9-3 .2-.2.4-.4.6-.5 1.8 1.4 3.6 2.9 5.4 4.3-.2-.2.2-1.1 0-1.2-1.5-1.2-3-2.5-4.6-3.7.6.2 1.2.2 1.7-.2l.1.1v-.2c.1-.1.3-.3.4-.5.3-.5 0-2 0-2.5V137c0-.2-.1-.6 0-.7-.9 1.4-2.7.9-3.7-.1-1.2-1.2-2.1-2.7-3.1-4.1-2.1-3.1-4-6.3-5.7-9.6-3.3-6.5-5.9-13.4-7.5-20.5-.7-2.9-1.2-5.8-1.5-8.7.3-.9.5-1.7.8-2.6 1.2-4.2 1.8-8.5 2.2-12.9 2.8 2.1 5.7 4.2 8.5 6.3v.7c.1.1.3.3.5.4v.4c.1 0 .2-.1.4-.1 1.2 1.1 2.4 2.1 3.6 3.2.5.4 1.2 1.3 1.8 1.4.7.1 1.3-.7 1.8-1.1 2.2-2 4.3-4.3 5.6-7.1 1.3-2.8 1.3-6.1 1.1-9.1 0-.6-.1-1.3-.6-1.8s-1.3-.7-1.9-1c-1.6-.6-3.1-1.3-4.7-1.9-7.2-3.7-14.7-7.8-19.5-14.4-4.2-12.7-8.5-25.5-12.7-38.2-.7-2.2-1.5-4.4-2.2-6.6-.1-.8-.2-1.7-.3-2.5-.1-1-.2-3.8-1.1-5V.7c0-.2-.1-.6 0-.7-.2.4-.5.8-.7 1.2h-.6c-.1 0-.1.5-.1 1.1-5.6 8.8-10.8 17.8-15.7 27-1.7-1.1-3.3-2.2-5-3.3-1-.7-2-1.3-3-2-.5-.3-1.1-.7-1.6-1.1-.2-.2-.7-.4-1-.6v-.4c-.1-.1-.2 0-.2 0v.5c-.1.1-.2.4-.2.4 0-.4 0-.6-.1-.6-2.5-.4-4.9-.8-7.3-1.6-2.3-.8-4.4-1.8-6.5-3.1 0 0 .1.3 0 .7-.2-.1-.3-.3-.5-.4v3.6c2.1 1.5 3.7 3.5 4.9 5.8-.5-.3-1.1-.5-1.5-.6-3.2-1.3-6.7-1.7-10.1-1.4-6.4.5-12.3 3.4-17.6 6.9-.2-.4-.5-.3-.6.2-.6-.2-1.5-1-1.8-1.2-.9-.7-1.6-1.5-2.4-2.4-2-2.1-3.9-4.3-5.8-6.4l-5.7-6.3c-.9-1-1.9-2-2.8-3.1-.5-.6-1-1.1-1.5-1.7-.1-.2-.4-.3-.6-.5 0-.5 0-1.1-.1-1.1-.2-.1-.3-.1-.4-.1 0-.1 0-.2-.1-.2-.2-.1-.2.1-.2.3-.7.4-.8 1.9-.9 2.5-.2 1.8-.5 3.6-.7 5.4-.4 3.4-.8 6.9-1.2 10.3-.6 6.5-.9 13.1-1 19.7v2.1c-2 1.2-4.2 3-4.5 5.4-.1.6 0 1.3 0 1.9v1.9c1.4-1.1 3.1-1 4.6-.4.2 10.2.5 20.5-1.2 30.7 0 .2-.1.5-.1.7-24.7-3.4-49.8-3.6-74.5-.5-8.2 1-16.4 2.4-24.5 4.1-.1 0 .1 1.2 0 1.2 29-6.2 59-7.8 88.6-4.8 3.4.3 6.8.8 10.2 1.2-.1.7-.3 1.4-.4 2.1-4.5-.1-9 .2-13.3.4-9.8.6-19.6 1.8-29.2 3.6-5.5 1-11 2.3-16.5 3.7-.1 0 .1 1.2 0 1.2 18.9-5 38.6-7.8 58.2-7.7h.6c-.5 2.6-.9 5.2-.5 7.8-5.9 2.4-11.7 5.2-17.3 8.1-10.6 5.5-21.1 11.1-31.6 16.7-.5.3-1.1.6-1.6.9-3.3-3.7-6.5-7.5-9.6-11.4-2.5-3.2-4.9-6.6-7.2-10v-.9c-.2.1-.3.2-.5.3l-.1-.1v.1c-10.1 5.3-17.3 14.7-21.2 25.3-1.7 5.9-2.8 12.1-3.2 18.4-.3 5-.5 10.4.8 15.2.9 3.1 2.5 5.7 4.8 7.6l92.6 140.9H91.6c-4.4 0-8.8.3-13.1-.8.1 0 .1.2.1.4-1.4-.5-1.9-2.2-2.9-3.2-1.2-1.2-2.9-1.7-4.5-1.8-3.8-.1-7 2.6-9.3 5.4-5.3 6.3-8.1 14.4-9.8 22.3-.4 1.7-.5 3.4-.5 5.2-.1.1-.1 2.1 0 2.5 0 1.1 0 2.3.3 3.4v1.6c4.6 3.2 10.5 4 15.8 2.1v.2c.1.4 0 .4.3.6h.2c-1 1.3-1.9 2.6-2.8 3.9-2.3 3.5-4.2 7.3-5 11.4-.3 1.4-.4 2.8-.4 4.2-.1 0 0 2.7 0 3.4 0 1.3.1 2.6.3 3.9v.8c0 1.1.3 2 1.1 2.8.8.8 1.9 1.3 3 1.7 2.3.7 4.7.6 7.1.5 0 .1 0 .1.1.1 4.2.7 8.5 1 12.8.9 4-.1 7.8-.7 11.3-2.8 2.9.2 5.8.4 8.6.6l4.2.3c-1.3 3.4-2.2 7-2.6 10.6-.5 4.2-.5 8.9.3 13.1.7 4 2.5 8.1 5.7 10.8 3.7 3.1 8.5 3.1 12.8 1.5 4.9-1.8 9.3-4.8 14.1-6.9 4.5-2 9.2-3.6 14-4.9 9.8-2.6 19.8-3.8 29.9-4.1 20.5-.7 40.8 1.9 61.3 3.1 20 1.2 40.6 1.1 59.9-5 9.5-3 18.8-7.5 26.5-13.9 7.9-6.7 12.6-15.9 16-25.5 1.8-5.1 3.3-10.4 3.5-15.8V342.7c0-3.7-.4-7.5-1.7-11-3.3-9-10.8-15.8-17.9-21.9-3.6-3.1-7.2-6-10.9-9 6.4-5.7 12.9-11.5 19.3-17.2 7.7-6.8 15.4-13.7 23-20.5 0 0 .1-.2.1-.4 1.1-.2 2.2-.5 3.1-1.2 3-2 3.4-5.3 3.5-8.6-.1-.5-.1-1.1-.1-1.3zm-26.1-7.7v-.3.3zM235.8 76c.2.8-.1 1.6 0 0zm-3.2-2.2c1.1.5 2.7.8 3.2 2-.1.5-.2 1-.4 1.5-.4 1.2-1 2.3-1.7 3.4-1.4 2.1-3.2 4.1-5.3 5.7-.6.5-1 .3-1.6-.1-.6-.5-1.1-1-1.7-1.5l-.1-.1c2.1-1.2 3.8-3.2 4.4-5.7.2-.9.3-1.8.3-2.7v-.4c.1.1.1-2.9 0-2.8v-.6c1 .5 1.9.9 2.9 1.3zm-5.4-2.4v.7c0 .1.1.5 0 .5.3-.4.7-.4 1.1-.3 0 .2 0 .3-.1.3.1 0 .3-.1.4-.1l.2.2c.4.5.6 1.2.7 1.9v.1c-.2.8-.4 1.6-.8 2.3-1.3 2.6-3.8 4.4-6.5 5v-.7l-9.3-6.9c0-1.3.1-2.7.1-4 0 .1.1.2.1.3-.2-.6 0-1.8 0-2.5s.2-1.8 0-2.5c-.6-1.8-1.2-3.5-1.8-5.3 4.4 4.7 10.2 8 15.9 11zm-62.5-45v-3.2s.1-.5.2-.8V24c0 .5-.1 1.1 0 1.6.1.2.2.3.4.5 1.3.9 2.6 1.7 3.9 2.6 1.7 1.1 3.4 2.2 5 3.3-1.4 2.7-2.8 5.3-4.1 8v-.2c0-.2-.1-.3-.3-.5-.7-.5-1.6-1-2.3-1.4-1.6-1-3.2-1.9-4.8-2.9-1-.6-2.1-1.1-3-1.9 1.2-2.5 2.9-4.8 5-6.7zm-9.5-2.9c.7.3 1.4.5 2.1.8 1.6.5 3.2.9 4.9 1.2-1.7 2.2-2.9 4.7-3.5 7.4v.4c0-.4 0-.8-.1-1.1l-.3-1.2v.2c-.9-2.7-1.8-5.4-3.1-7.7zM122.7 34c-1.1.8-2 1.8-2.8 2.8-.9 1-1.8 2.1-2.6 3.2.1-1.4.1-2.9.1-4.3 0-1.9-.1-3.7-.4-5.5-.2-1.1-.4-2.2-.7-3.2 2 2.4 4 4.9 6.4 7zM98.9 54.3c.5-.3.9-.7 1.4-.9v1.3c-.4-.2-.9-.3-1.4-.4zm2.2-21c.3-3.8.8-7.5 1.2-11.3.2-1.9.5-3.8.7-5.6.1-.7.2-2.7 1-3.1.2.7.8 1.2 1.3 1.7.6.7 1.2 1.4 1.9 2 1.9 2 3.7 4.1 5.6 6.2v.2c1.6 2.4 2.8 4.9 3.5 7.7.4 1.3.6 2.7.8 4.1 0 .3.1.6.1.9v.1c0 .6-.1 1.1-.2 1.7-.1.8 0 1.5 0 2.3-.8 1-1.5 2.1-2.3 3.2-.3.5-.6 1-1 1.5v-1.6c-1.3-.6-2.4-1.4-3.5-2.4-1-.9-2-1.9-2.7-3.1l-.3-.6c.3-.4.6-.8 1-1.1.4-.2.8-.4 1.2-.5.2 0-.1-3.7 0-3.8-1 .1-1.8.8-2.3 1.7-.7 1-1.3 2.1-1.7 3.3-.4 1.3-.5 2.7-.5 4v2.7c0 1.5.2 3 .7 4.5-1.7-.1-3.5.5-5 1.3-.1.1-.3.2-.4.2.2-5.4.4-10.8.9-16.2zm-.6 25.1c1 .4 1.9 1 2.8 1.5v-3.7c-.8-.5-1.8-1.1-2.8-1.5v-1.4c.1-.1.3-.2.4-.2 2.3-1.3 5.1-2 7.6-.7-.1 0-.1-.5 0-1 .4.2.8.3 1.3.2.1 0-.1-3.7 0-3.8-1.6.1-2.7-1.3-3.3-2.6-.5-1-.8-2-1-3.1 0-.2 0-.3.1-.4.1-.7.3-1.4.6-2 .2-.6.6-1.2.9-1.8 0 .8 0 1.6.2 2.3.5 1.5 1.6 2.8 2.8 3.9.9.9 1.9 1.7 3 2.4-2.2 3.7-4.1 7.5-5.7 11.5-.2.5 0 1.4 0 1.9s.2 1.4 0 1.9c2-5.1 4.6-10.1 7.6-14.7 1.5-2.2 3.1-4.4 4.9-6.4 1.2-1.4 2.5-3 4.2-3.7 0 .1 0 .2-.1.2.2-.2.4-.3.6-.4.4-.1.9-.2 1.4-.2V36s.1-.1.1-.2c4.5-3 9.4-5.5 14.7-6.5 2.9-.6 5.9-.7 8.8-.2 1.4.2 2.9.6 4.2 1.2 1.1.4 2.7 1 3.2 2.2v.6c.2-.5.1-1.1.1-1.6v-.2c.6 1.5 1.1 3.1 1.5 4.6v-2.5 3.1c.1-.2.1-.5.2-.8v.1c.5.8 1.4 1.4 2.2 1.9 1.1.7 2.1 1.3 3.2 2 1.1.6 2.1 1.3 3.1 1.9l1.5.9-.4.8c-.3.6 0 1.9 0 2.5v1.8c0 .2.1.6 0 .7.1-.2.2-.4.3-.7 2.4-4.8 4.8-9.6 7.4-14.3.2.1.5.3.7.5V32c4.7-8.6 9.6-17.1 14.9-25.3.8 2.5 1.7 5 2.5 7.5.1.9.2 1.8.4 2.6.6 4.7 1.3 9.3 1.9 14 .6 4.8 1.3 9.5 1.9 14.3.3 2.3.6 4.7.9 7 .1.5.1 1.1.1 1.6-.1.9-.2 1.8-.4 2.7-1.1 4-3.6 7.2-6.2 10.3V65.4c-3.4-2.1-5.6-6.1-6.5-9.9 0-.1-.1-.2-.1-.4.2-.7.4-1.3.6-1.9.3-.6.6-1.1 1-1.6.3-.1.5-.2.6-.5v-.2c.6-.6 1.3-1.1 2.1-1.5.2-.1 0-2.2 0-2.5 0-.2-.2-2.4 0-2.5-.9.4-1.6.9-2.2 1.5-.1-.1-.1-.2-.2-.2 0 0-.1.2-.1.5l-.3.3c-.1 0-.1 0-.2.1-.4.2-.8.4-1.1.6-.7.5-1.3 1.1-1.9 1.7-1.2 1.3-2 3-2.2 4.7-.2 1.1-.1 2.2-.2 3.3 0 1.3-.1 2.7.1 4.1-1.4-1.1-3.3-1.3-5-.9-2.1.5-3.9 1.9-5.4 3.4-.1.1 0 .8 0 .7v4.5c1.2-1 2.8-.9 4.1-.4 1.5.7 2.7 2 3.7 3.3v-4.3c0-.2.1-.6 0-.7-.4-.5-.8-1-1.3-1.5 1.6-.1 3.2.4 4.3 1.5v-3.1c.4 1.1.9 2.2 1.7 3.1v-4.2c0-.2.1-.6 0-.7-.9-1.1-1.5-2.3-1.9-3.7.1-.2.1-.4.1-.5.3-.8.7-1.6 1.1-2.3.5-.8 1.2-1.6 2-2.2v1.1c-.1.6 0 1.9 0 2.4v1.4c.1 4.2 2.3 9 5.7 11.8 0 .4.1.8.1 1v1.8c0 .1.1.7 0 .7 3-3.4 6.1-7 7.3-11.4.6-2.3.7-4.6.7-6.9 0-2.6 0-5.1-.3-7.6-1.1-9.8-2.5-19.6-3.9-29.4 4.2 12.8 8.5 25.6 12.7 38.4 0 .2 0 .3.1.4l.1.1 4.5 13.5v1c0 .5 0 1-.1 1.5 0 .5-.1 1-.1 1.5-.2-.2-.5-.3-.7-.5v3.7c.1.1.2.2.3.2-.2 1.6-.5 3.2-.8 4.8-.6 2.7-1.3 5.4-2.2 8 0-.3-.1-.6-.1-.9v1.1c-.4 1.2-.8 2.5-1.3 3.7-1.6 3.8-3.7 7.4-5.5 11.1-1.5 3.3-1.8 7.2-1.2 10.8-.2-1.1.1-2.3 0-3.4.1-.5.2-1 .4-1.6.3-1 .7-1.9 1.2-2.8.9-1.9 2-3.6 2.9-5.5 1.4-2.7 2.5-5.5 3.5-8.4 1.2 14.6 6.1 28.8 14.2 41.1.5.7 1.7 2.9 3.2 4.5-10.8-8.5-21.8-16.6-33.5-23.8-13.9-8.6-28.8-15.8-44.5-20.4-1.9-.6-3.8-1.1-5.7-1.6l.9-1.8c.8-1.9 1.3-4 1.4-6.1.1-2.1.1-4.3-.1-6.4-.3-2.2-1-4.5-2.9-5.8-1.6-1.2-4-1.3-5.5.2-.1.1-.1.6-.1 1-1.4 1.7-2 4.3-2.1 6.4-.2 3.6-.2 7.3.8 10.8-2.2-.4-4.5-.8-6.8-1.1-1.1-.2-2.2-.3-3.4-.4-.8-.1-1.9-.1-2.2-.9V90v.2c-.1.4-.1.9 0 1.2 0 .1 0 .2.1.2.1.3.4.4.7.5-.3.2-.6.5-.8.7v1.3c.6-.4 1.1-.9 1.7-1.3v-.5c.2 0 .5 0 .6.1 1.1.1 2.2.3 3.4.4 2.4.3 4.8.8 7.2 1.2.1.3.2.7.4 1 .4.8.8 1.9 1.5 2.5.8.6 1.8.5 2.6 0s1.5-1.2 2-2c7.8 1.9 15.5 4.5 22.9 7.7 15.9 6.7 30.8 15.7 44.8 25.8 5.4 3.8 10.7 7.9 15.9 11.9-.5.5-.9 1-1.4 1.5-1.8 2.2-3.3 4.6-4.4 7.2v3.2c0 .1.1.4 0 .5.9-2.1 2-4.1 3.4-6 0 .1 0 .3.1.4 2.7 15.8 7 31.2 12.4 46.2 5.4 14.8 11.8 29.3 18.4 43.7 3.5 7.6 6.7 15.4 11 22.6 0 .3-.2 1.7 0 1.9 6.1 5 11.6 10.6 16.4 16.8-11.6 10.3-23.1 20.5-34.7 30.8-9.4 8.4-18.8 16.8-28.3 25.1 0 0-.1.1-.1.2-5.2-1-10.4-1.5-15.6-2-5.3-.5-10.6-.8-15.9-.8-8.3 0-16.7 1-24.6 3.6v-.7c.2-.9.5-1.8.8-2.7.8-2.2 2-4.2 3.1-6.2.1-.1 0-.7 0-.7v-1.2c2.6-.4 5.2-1 7.8-1.7 5.7-1.6 11-4.3 15.2-8.5 0 0 .1-.2.1-.3l1.2 2.1v-4.3c0-.2.1-.6 0-.7-3.5-5.7-6.9-11.4-10.3-17.2.1-.3.3-1.3.7-1.9.4-.8 1-1.5 1.7-2.2 1.3-1.4 2.9-2.5 4.5-3.5 3.2-2.2 6.7-3.9 10.3-5.3 3.6-1.4 7.4-2.4 11.3-2.9 2-.3 3.9-.5 5.9-.5 1.8 0 3.7-.2 5.2.8-.1 0-.1-.6 0-1 .4.2.8.3 1.3.2.2 0-.1-3.7 0-3.8-1.6.2-2.5-1.2-3.1-2.5-.2-.5-.3-1.1-.4-1.7 0-.3.1-.5.2-.8.9-3.1 3.3-5.8 5.3-8.2 1.8-2.3 3.8-4.5 6-6.4-.3 1.8-.2 3.8-.1 5.6.1 2.1 1.1 4.1 2.2 5.9 2.3 3.7 5.7 6.8 9.2 9.4 1.8 1.3 3.7 2.7 5.9 3.1 2.4.4 4.8-.2 7.1-.8.3-.1-.3-3.7 0-3.8-2 .5-4.1 1.1-6.2.9-2-.2-3.8-1.1-5.4-2.2-3.2-2.2-6.2-4.7-8.6-7.6-1.2-1.5-2.3-3-3.1-4.8-.4-.8-.6-1.5-.8-2.3l.3-1.2c.9-2.4 2.6-4.2 4.6-5.5.9-.4 1.8-.8 2.7-1.1.1 0 .1-.2.1-.4.2-.1.5-.2.7-.3.1 0 0-1.7 0-1.9 0-.2-.1-1.8 0-1.9-1.2.5-2.4 1.1-3.5 1.8-5.4 2.6-9.4 7.5-13 12.3-1.2 1.6-2.4 3.1-3.1 5-.6 1.5-.6 3.1-.7 4.7-.1.3-.1 1.3 0 1.4 0 1.2 0 2.3.3 3.5-1.3-.2-2.7-.1-3.9 0-.9 0-1.7.1-2.6.2 0-.2 0-.4-.1-.6-.1-.4-.2-.7-.4-1 .2.4 0 1.1-.1 1.7h-.1c-.2-.2-.3-.5-.4-.7-.4-.6-.8-1.1-1.2-1.7-.8-1.2-1.5-2.4-2.2-3.6-1.3-2.4-2.5-4.9-3.4-7.5-.9-2.6-1.7-5.2-2.2-7.9-.3-1.4-.5-2.8-.6-4.2-.1-.5-.1-1-.1-1.6.1-.1.4-.4.5-.4v-.2c4.7-2 9.3-4.1 13.9-6.2.1 0 .1-.5.1-.9 3.4-2.8 7-5.3 10.7-7.5V227.9l-.1.1v-1.4c-3.8-1.6-7.8-2.6-12-3 .1 0-.2 3.7 0 3.8 3.3.3 6.6 1.1 9.7 2.2-3 1.9-5.8 3.9-8.5 6.2v.8c-17.8 8.3-36 15.8-54.6 22.1 0 0-.1-.1-.1-.2v.2c-6.8 2.3-13.7 4.5-20.5 6.5-7.2 2.1-14.7 3.8-22.3 3.1-10.7-10.5-20.5-22-29.1-34.3-2.1-3-4.1-6-6.1-9.1v-.4c0-.4.2-1.6 0-1.9-3.1-3.7-9.6-3.4-12.8-6.8 0-1.1 0-2.9-.1-2.9-2.5-1-4.1-3.1-5.1-5.6-.4-1-.6-2-.8-3 0-.1 0-.2.1-.2.2-.5.6-.9 1.2-.9.1 0 0-2.5 0-3.4 0-.4.1-.7.1-1.1.1-.8.3-1.6.5-2.4.4-1.3.8-2.7 1.9-3.7 2.5-2.2 6.3.8 8.6 1.9 6 2.8 12.4 4.5 19 5 0 .3 0 .5.1.6 3.6 4.7 7.9 8.9 12.3 12.9 4.9 4.5 10 8.7 15.2 12.8 2.5 2 5.1 3.9 7.7 5.8-.1-.1 0-1.1 0-1.6.1.8.1 1.6 0 1.6 5-1.5 8.9-4.9 12.9-8.1 2.1-1.7 4.3-3.3 6.4-5.1 2.2-1.9 4.3-3.8 6.5-5.6 8.6-7.3 17.4-14.3 26.7-20.5 3.8-2.5 7.6-4.9 11.6-7.1-1.2 1.8-2.2 3.8-2.7 5.9v3.2c0 .2.1.4 0 .6 1.1-4.5 4-8.4 8-10.9V180.2c-.1.1-.2.2-.3.2 0-.5-.1-1.6 0-1.7-9.2 4.8-17.8 10.4-26.1 16.6 0-.5.1-1.2 0-1.6-2.8-7.5-4.7-15.4-5.5-23.4-.2-2-.4-4.1-.4-6.2v-3c0-1 .1-2.1.2-3.1.3-4.1.9-8.2 1.7-12.3.5-2.2 1-4.3 1.6-6.5.4-1.5.9-4 2.8-4.2.2 0-.1-3.7 0-3.8-.2 0-.3.1-.4.1 0-.5-.1-1.2 0-1.2-5.3 3.2-11 5.8-16.9 7.7-5.3 1.7-11.2 3.4-16.8 2.3-.1 0-.2 0-.3-.1v-.1.1c-5.7-1.3-9.1-6.2-13.2-10-3.9-3.7-8.1-7.1-12.2-10.7-4-3.5-7.9-7.2-11.1-11.5-1.3-1.7-2.6-3.5-3.6-5.4 4.1-1.6 8.2-3 12.4-4.2.1 0-.1-1.2 0-1.2-.5.1-1 .3-1.4.4.5-.7 1.1-1.3 1.6-2 .7.2 1.3.3 2 .5-.1 0 .1-1.2 0-1.2l-1.2-.3v-1.1c-.2.3-.5.6-.7.9-.2-.1-.5-.1-.8-.2.1-.4.2-.7.4-1 0-.1.1-.2.1-.4l1.8.3c-.1 0 .1-1.2 0-1.2-.5-.1-1-.2-1.4-.2.9-3.5.9-7.3.7-10.9 0-.9-.1-1.9-.3-2.8.7 2.1 1.1 4.3 1.3 6.5-.2-.3-.4-.6-.7-1 .2.3-.2 1 0 1.2.2.3.5.7.7 1.1v.8-.7c1.4 2.1 2.4 4.5 3.1 6.9v.5c.8 3.9 1.8 7.8 2.8 11.7 0 .2 0 .4.1.6.1.2.2.5.3.8v-1.3c0-.4.1-.9 0-1.2-1.1-3.9-2.1-7.8-2.9-11.8.1-.5.2-1 .4-1.5.4-1 1-1.9 1.8-2.7 1.7-1.6 3.9-1.9 6.1-2.2.2.1.4.2.7.2v-.3c.1 0 .3 0 .4-.1.1 0 0-1.2 0-1.2-.2 0-.4.1-.6.1-.1-.1-.2-.2-.3-.4v.4h-.1c-2.2-.7-4.4-1.5-6.6-2.2-1.5-.5-3.6-.9-4.6.6-.1.1 0 .5 0 .6s.1.5 0 .6c1-1.5 3.2-1.1 4.6-.6 1.4.4 2.7.9 4 1.3-.5.1-1 .3-1.5.5-1.2.5-2.3 1.4-3 2.5-.7 1.1-1.1 2.4-1.2 3.8-.1-.3-.1-.6-.2-.9.1.3.1.6 0 1-.7-2.5-1.7-4.9-3.1-7.1V83c0-2.5-.3-4.9-.9-7.3-.5-2.2-1.3-4.5-3-6.1-1.4-1.4-3.5-2.2-5.4-1.6-1.7.5-3.1 2-3.6 3.8 0 .2-.1.4-.1.5.2-4.4.1-9.1 0-13.9zm34 26.3c0-.5.1-.7.2-.3 0 .2-.1.4-.1.6v.5c0 .2-.1.4-.1.7 0-.3 0-.6.1-.9 0-.2-.1-.4-.1-.6zm46.1 206c-.1.9-.1 1.8-.1 2.8-6.2-10.5-12.3-21.1-18.3-31.8 10.8-3.8 21.5-7.8 32-12.2l6.3-2.7v.7c0 1.7.2 3.3.4 5 .5 3.8 1.5 7.5 2.8 11s3 7 5.1 10.2c.2.3.4.5.6.8-.7.1-1.3.2-2 .3-4.4.8-8.7 2.1-12.7 4-3.9 1.8-8 4-11.1 7-1.4 1.1-2.8 2.9-3 4.9zm-50.2-84.3c-3.2-5.2-6.4-10.3-9.5-15.5-.1-.2-.2-.3-.3-.5 1.2-4.2 3.4-8.1 6.8-11 1.2-.4 2.3-1.3 3.5-.8-.1 0 0-1.7 0-1.9 0-.2.1-1.8 0-1.9-1-.4-2 .1-3 .6v-.3c-.2.2-.4.3-.6.5-.3.1-.5.2-.8.2-1 0-1.9-.5-2.8-1-.8-.4-1.5-.9-2.2-1.4-.2-.1-.3-.2-.4-.3 1.5 0 3-.3 4.3-1 3.5-1.7 5.4-5.5 7.4-8.6 2.2-3.5 4.2-7.2 5.5-11.2.8-2.7 1.1-5.5 1.1-8.3 4.5.9 9.5-.1 13.9-1.4 6.1-1.8 12-4.2 17.5-7.3 0 .1 0 .2-.1.3-.6 2.2-1.2 4.5-1.6 6.7-.9 4.5-1.5 9-1.7 13.5-.5 8.8-.1 17.7 1.5 26.3.9 4.6 2.2 9.1 3.8 13.6-.5.3-.9.7-1.3 1-4.6 3.5-9 7.1-13.4 10.8-2.2 1.8-4.4 3.7-6.5 5.6-1 .9-2.1 1.8-3.1 2.7-1.1 1-2.3 1.7-3.4 2.6-1.9 1.4-3.7 2.9-5.5 4.4v-1.5c0-.3 0-.8-.1-1.1-.1-.3 0 .1 0 .2 0 .2 0 .3-.1.5-2.5-5.1-5.6-9.9-8.6-14.7-.3.1-.3.2-.3.2zM112.6 83.9c.1.4.1.8 0 1-.1 0-.1-.5 0-1zm-12-6.3c0 .1 0 .3.1.4.2.5.7.3.9-.1.1-.1 0-.5 0-.5v-2.6c0-.1-.1-.5 0-.5.2-.3.5-.6.7-.9 1.5-1.5 3.6-1.8 5.5-1 1 .4 1.8 1.1 2.5 1.9-.5-.4-1.2-.8-1.8-.9V73l-.6.3c-.7 0-1.3.1-1.9.5-.1.1-.1.5-.1 1-1.8 1.7-2.9 4-3.2 6.5-.2 2-.2 4.1-.1 6.1.1 1 .2 1.9.5 2.9-1.2-.2-2.3-.3-3.4-.5.5-4 .8-8.1.9-12.2zm-1.1 13.5c1.3.2 2.7.4 4 .6.2.5.4 1 .7 1.6 0 .1.1.1.1.2-1.7-.2-3.4-.2-5.1-.3 0-.8.1-1.4.3-2.1zm-1.6 8.1c.3-1.6.7-3.2 1-4.8v-.1c2 0 4 .1 6 .3.7 1.2 1.7 2.2 3.1 2.3 1.2.1 1.9-.6 2.5-1.5.1 0 .2 0 .4.1-.3.4-.6.8-.9 1.1v1c-3.8 1.1-7.6 2.4-11.3 3.9-.1-.1-.1-.2-.2-.3-.3-.6-.4-1.2-.7-1.8 0 0 .1-.1.1-.2zm-.2.9v.4c-.1 0-.1-.2 0-.4zm-34.8 20.6c10.2-5.4 20.3-11 30.8-15.7 1.4-.6 2.8-1.2 4.1-1.8.2.9.5 1.8 1 2.6 2.6 5 6.3 9.2 10.2 13.1 4 3.9 8.3 7.4 12.5 11.1 2.1 1.9 4.2 3.8 6.2 5.7 2.1 2.1 4 4.4 6.4 6.1 1.5 1.1 3.2 1.7 4.9 2.1 0 .5-.1 1-.2 1.4-.2 1-.4 2-.7 2.9-.6 2-1.4 4-2.3 5.8-1.8 3.6-4 7.2-6.3 10.4-2.1 3-5.3 5.1-9.1 4.8-1.7-.1-3.3-.9-4.5-2-.3-.2-.5-.5-.8-.8-.2-.4-.5-.8-.7-1.2v.2s0-.1-.1-.1c-.2-.4-.4-.8-.5-1.3-.1-.2-.1-.4-.2-.7 0-.3-.1-.4-.1-.5v-1.2c-.2 2.9-.3 6 1.5 8.4 1.6 2.7 3.8 5.1 6.3 6.9.7.5 1.5 1 2.2 1.4.2.1.3.2.5.3-2.3 3.1-3.7 6.6-4.4 10.5 0-.4.1-.9-.1-1.1-10.4-15.3-19.9-31.2-28.4-47.7-2.2-4.2-4.3-8.5-6.4-12.8 0-.5-.2-1-.5-1.1 0 0 .1.1.1.2 0-.1-.1-.1-.1-.2l-.1-.1c.1.4-.1 1.4-.1 1.8v.5c-.4.7-.8 1.3-1.2 1.9-.7 1.2-1.5 2.4-2.2 3.6-1.4 2.3-2.9 4.5-4.5 6.7-2.4 3.3-4.9 6.6-7.7 9.6v-.5h-.1c-.1-.3-.2-.5-.3-.3 0 .1-.1.2-.1.3-1-.4-3-2.9-3.4-3.3-1.5-1.5-2.9-3.1-4.4-4.7-2.6-2.8-5.3-5.6-7.9-8.4-1.6-1.7-3.2-3.5-4.8-5.3 5.5-2.2 10.5-4.8 15.5-7.5zM8.2 166.1c-1.4-1.9-2.2-4.2-2.7-6.5-.2-1.1-.4-2.2-.5-3.3 0-.5 0-2.1-.1-1.7v-1c.3-5.9 1.4-11.8 3.3-17.4 3.8-11.1 11.2-21.1 21.7-26.6 4.5 6.9 9.5 13.3 14.9 19.5-4.7 2.5-9.5 5-14.2 7.5-.2.1.2 1.2 0 1.2 5-2.7 10-5.3 15-7.9 5.8 6.6 12 13 18 19.4.4.4 1.9 2.2 3.2 3.5-.3.3-.6.7-.9 1-7.9 7.8-17.6 13.5-28.3 16.3-5.2 1.4-10.8 2.1-16.2 1.9-5-.2-10.2-1.6-13.2-5.9zm4.1 7.4c1.3.8 2.8 1.3 4.4 1.7 5.6 1.3 11.7.6 17.2-.5 11.9-2.3 22.8-8.1 31.5-16.5 4.9-4.7 9.1-10.1 12.8-15.7 1.9-2.8 3.7-5.7 5.5-8.6.6-1 1-1.7 1.2-2.6 7.9 16.4 16.7 32.3 26.4 47.7 2.4 3.7 4.8 7.4 7.2 11 0 .3 0 .5.1.6 0 .1.1.1.1.2v1c0 .2-.1.6 0 .7.3.5.6.9.8 1.4 0 .6.1 1.2 0 1.9.1-.5.1-1 .2-1.5 3.3 5.4 6.7 10.8 10 16.2.7 1.2 1.4 2.3 2.1 3.5v-.2c2.1 3.4 4.2 6.7 6 10.2-2.3 1.7-4.8 3.1-7.6 4-10.2-7.4-20.1-15.4-28.9-24.4-2-2.1-4-4.2-5.8-6.5v-1.2c-8-.5-15.5-2.8-22.6-6.5-1.5-.8-3.4-1.7-5.1-.8-1.4.8-2 2.4-2.4 3.8-.6 2.3-.8 4.8-.8 7.2-1.5.3-1.3 2.5-1.3 3.7 0 1.8 0 3.5.3 5.3.5 2.9 1.8 5.8 4.3 7.5 0 .6.1 1.2.1 1.3 1.8 5.5 9 4.9 13.1 8.1 0 .5-.2 1.3 0 1.6 8.1 12.9 17.4 25 27.7 36.2 2.7 2.9 5.4 5.7 8.2 8.5 0 .2 0 .3.1.3h.3c.1.2.3.3.5.5-.1 0-.1-.2-.1-.4 6.6.5 13.1-.7 19.4-2.4 6.5-1.8 13-3.9 19.4-6.1 1.2-.4 2.4-.9 3.7-1.3v.4c0 .2-.1.6 0 .7 8.9 16 18.1 31.8 27.6 47.5-7.5 6.3-17.6 8.4-27.2 9.3-12.7 1.3-25.5.7-38-1.7-6.5-1.3-13-3-18.7-6.5.1 0 .1.5.1 1.1L12.3 173.5zM67.9 346v-.2c0-.1.1-.6 0-.7-.1-.2-.3-.3-.4-.5 0-.3-.1-.6-.1-.9.1-.5.1-1 .2-1.6 0-.4.1-.8.2-1.1.1-.8 0-1.7 0-2.5V336c-.1.5-.2 1-.2 1.5-.3 1.7-.5 3.5-.6 5.2v2.7c-4.8 1.4-10 .8-14.3-1.9-.3-.6-.6-1.2-.8-1.9v-.1c.3-1.7.7-3.4 1.2-5.1 1-3.6 2.2-7.1 3.8-10.4 1.5-3.2 3.5-6.3 5.9-8.9 2.2-2.4 5-4.5 8.4-4.5 1.6 0 3.3.5 4.6 1.7 1.1 1.1 1.6 3 3.2 3.4-.1 0-.1-.2-.1-.4 4.2 1 8.6.8 12.9.8h13.9v-.3c4.7 2.6 9.8 4.2 15 5.3 6.1 1.3 12.3 2.2 18.5 2.5 6.4.4 12.9.4 19.3-.1 2.2-.2 4.3-.4 6.5-.7-.9 1.7-1.6 3.4-2.1 5.2-.3 1.4-.4 2.7-.5 4.1v.8c-18.4 5.3-37.5 8.1-56.7 7.7-2.8 0-5.5-.2-8.3-.4-1.3-.1-2.7-.2-4-.3-.5 0-1.2 0-1.9-.2-.2-.2-.4-.4-.7-.6v-.3c0 .1 0 .1-.1.2v.1l-2.1-1.8c-1.5-1.2-3.4-2.3-5.5-2.1-2.1.2-3.8 2.1-5.2 3.4-1.6 1.4-3.1 2.9-4.6 4.4-.3.3-.6.7-.9 1v-.8.2c-.4.6-1.7.4-2.3.4h-1.5c-.5.2-.6.3-.7.2zm40.3 31.8c-1.4-.1-2.9-.2-4.3-.3-2.8-.2-5.5-.4-8.3-.6h-.5v.2c-3.4 1.9-7.1 2.5-11 2.6-3.6 0-7.2-.2-10.8-.7V378.2c-.3-.1-.5-.3-.6-.5.3-1.2.7-2.5 1.1-3.7 1.2-3.2 2.9-6.2 4.9-8.9.1-.1 0-.7 0-.7v-3.6c0-.1-.1-.6 0-.7-2.6 3.4-4.5 7.2-5.7 11.3-.5 1.6-.8 3.2-.9 4.9 0-.3-.1 0 0 .7v1.6c-2.5.2-5 .3-7.5-.3-1-.3-2-.7-2.9-1.4-.3-.3-.7-.6-1-1 0-.4 0-.7-.1-1-.3-.8-.5-1.7-.7-2.5.2-1.6.6-3.1 1.2-4.6 1.3-3.5 3.2-6.7 5.4-9.7 2.2-3.1 4.7-6 7.3-8.7 1.4-1.4 2.8-2.8 4.3-4.1 1.3-1.1 2.7-2.7 4.5-3 2-.3 3.9.8 5.5 2 .8.6 1.6 1.3 2.4 2 .1.2.3.4.5.6h.1l1.8 1.8c-.1-.1-.1-.8-.1-1.5.5 0 .9 0 1.3.1 1.3.1 2.7.2 4 .3 5.2.3 10.4.4 15.6.2 10.5-.3 21-1.5 31.3-3.6.5-.1 1-.2 1.6-.3-1.7 1-3.3 2.1-4.9 3.2-4.2 2.8-8.4 5.8-12.4 9-7.5 6-14.3 13-18.8 21.4v-1c.3 1.2-1.3 1.3-2.3 1.3zm222.2-64.2c3.6 3.1 7.1 6.2 10.2 9.7 3 3.4 5.7 7.2 7.3 11.5.9 2.2 1.4 4.5 1.7 6.9 0 .4 0 .8.1 1.1 0 .6-.1 1.2-.1 1.8-.2 1.4-.4 2.8-.7 4.2-1.1 5.1-2.9 10.1-4.9 14.9-1.9 4.6-4.3 9.1-7.3 13-6 7.8-14.8 13.2-23.7 17.2-17.9 7.9-37.9 9.5-57.3 9-19.9-.5-39.7-3.2-59.7-3.7-19.5-.5-39.7 1.1-57.7 9.2-4.6 2.1-9 5-13.7 6.7-4.3 1.6-9 1.6-12.7-1.4-3.1-2.5-4.8-6.4-5.7-10.3-.2-1-.4-2.1-.5-3.1 0-.4-.1-.8-.1-1.2v-.1c0-.5.1-.9.1-1.4.2-2.4.7-4.8 1.4-7.2.8-2.8 1.9-5.5 3.2-8 .3-.2.6-.6.6-1.2 3.1-5.8 7.3-11 12-15.5 7.2-7 15.7-12.9 24.2-18.2 4.5-2.8 9.2-5.3 14.2-7.1.4-.1.7-.2 1.1-.4.1.4.1.8.2 1.2v-1.4c4.4-1.5 8.9-2.4 13.5-3 10.4-1.2 21-.6 31.4.6 5.3.6 10.7 1.3 15.8 2.6 5.2 1.3 10.1 3.5 14.9 6 4.6 2.4 9.2 4.7 14.1 6.5 2.5.9 5 1.7 7.6 2.4 0 .4 0 .7-.1.8.2-.2.4-.5.6-.7 2.4.6 4.8 1.2 7.2 1.6 17.6 3 37.1.7 51.8-10.1 3.4-2.5 6.4-5.5 9-8.8.2-.3 0-1.5 0-1.9s-.2-1.6 0-1.9c-9.4 12.2-24.3 18.3-39.4 19.8.7-.9 1.4-1.7 2.1-2.6 2-2.7 3.8-5.5 5-8.7 1.1-3 1.4-5.9 1.5-9.1v-1.5c.3.6.5 1.2.7 1.8.2.7.4 1.4.5 2.1-.2.3-.5.6-.7.9-.3.3 0 2.1 0 2.5v1.8c0 .1.1.7 0 .7.3-.3.6-.7.8-1 3.1-3.9 4.8-8.6 6-13.3.7-2.7 1.4-5.5 1.6-8.3.1-2.3.2-4.7-.1-7.1 3.6-3.2 7.2-6.4 10.7-9.5 0 .1 0 .2.1.3 4.5 3.7 8.9 7.2 13.2 10.9zm-24.3 1.6c.1.4.2.7.2 1.1-.1 1-.3 2.1-.6 3.1-.5 2.1-1 4.2-1.7 6.2-1.1 3.5-2.6 7-4.9 9.9 0-1.1-.1-2.2-.2-3.3-.3-2.9-1.4-5.6-3.1-8v4.2c0 .2-.1.6 0 .7.7 1.1 1.1 2.2 1.4 3.5v.5c-.4 2.7-1.4 5.2-2.7 7.6-1.3 2.4-2.9 4.6-4.6 6.7-.9 1.1-1.8 2.1-2.6 3.1-.6.7-1.6 2.4-2.7 2.1v1.4c-1.2 0-2.5.1-3.7.1-6-.1-12-.8-17.8-2.1 10.9-11.4 22.7-21.8 34.4-32.3 2.8-2.5 5.5-4.9 8.3-7.4v.2c.2 1 .1 2 .3 2.7zm14.7-19.5c-13.4 11.9-26.9 23.7-40.1 35.8-7 6.4-13.8 13-20.3 20-3.6-1-7.2-2.1-10.7-3.6-5.1-2.1-9.8-4.8-14.8-7.2-4.1-2-8.4-3.5-12.8-4.6 15.7-13.9 31.3-27.9 47-41.8 4.8-4.3 9.6-8.5 14.4-12.8.1.2.3.3.4.5-.1-.1-.1-.4-.1-.7 0 .2 0 .5.1.7v-.9c11.5-10.2 23-20.4 34.4-30.8 8.8-8 17.5-16.1 25.9-24.5l-1.5 4.8c-.9 3.1-1.9 6.3-2 9.5 0 1.6-.2 3.3.1 4.9.3 2 1.1 4 2 5.8 2 4.2 5.2 7.4 9.3 9.4 1.8.9 3.9 1.7 6 2.1-12.5 11.2-24.9 22.3-37.3 33.4zm47.3-43.3c-.2.8-.4 1.6-.8 2.4-.7 1.4-1.7 2.6-3.1 3.3-3.5 1.8-7.7.5-11-.9-3.6-1.6-6.7-3.9-8.9-7.2-.2-.3-.4-.7-.6-1 0-.5.1-1-.1-1.2-.5-.8-.8-1.5-1.1-2.4-.1-.3-.2-.7-.2-1 .4-1.6.9-3.1 2-4.4 2.2-2.6 5.7-3.9 9-3.4 3.7.6 6.5 3.4 9 6 2.6 2.7 5.1 5.9 5.8 9.6v.2z"/>
  <path d="M360 245.5c-.4-.9-1-1.6-1.8-2.1-.8-.6-1.7-.9-2.6-1.2-.6-.2-1.4-.3-2.1-.3v-2c-.5-1.8-3-1.4-4.1-.5-1.3 1-1.8 2.6-1.9 4.2v.4c-.1-.3-.2 2.8 0 2.9 0 .4 0 .8.1 1.2.1.9.4 1.7.9 2.4 1.1 1.7 2.9 2.8 4.7 3.6 1.7.7 4.1 1.5 5.7.2 1.7-1.5 1.5-3.8 1.5-5.8-.1-1.1 0-2.1-.4-3zm-9 3.7c-1.2-.8-2.3-1.9-2.9-3.2-.1-.2-.2-.4-.2-.6.4-1.2 1.2-2.3 2.4-2.8.5-.2 1.1-.3 1.7-.2-.4.4-.5.9-.6 1.5V244.7c0 1-.1 2.1 0 3.1.1.5.3 1 .6 1.4.7.9 1.9 1.4 2.9 1.8-1.4-.5-2.7-1-3.9-1.8zm7.9 1.3c-1.1 1-2.5.9-3.9.5.7.2 1.7.2 1.9-.7.1-.6 0-1.3 0-1.9v-1.8c-.3 1.3-2.1.6-2.9.3-.6-.3-1.3-.6-1.8-1.1 1.7-.7 5.1.6 6.1 1.5.6.5 1.1 1.1 1.4 1.9 0 .4-.4.9-.8 1.3z"/>
  <path fill="#CFD2D3" d="M359.9 249.1c-.2.5-.5 1-1 1.3-1.1 1-2.5.9-3.9.5.7.2 1.7.2 1.9-.6.1-.6 0-1.3 0-1.9v-1.9c-.3 1.3-2.1.6-2.9.3-.6-.3-1.3-.6-1.8-1.1 1.7-.7 5.1.6 6.1 1.5.8.6 1.3 1.2 1.6 1.9z"/>
  <path fill="#CFD2D3" d="M354.8 250.9c-1.4-.4-2.7-.9-3.9-1.7-1.2-.8-2.3-1.9-2.9-3.2-.1-.2-.2-.4-.2-.6.4-1.2 1.2-2.3 2.4-2.8.5-.2 1.1-.3 1.7-.2-.4.4-.5.9-.6 1.4V244.6c0 1-.1 2.1 0 3.1.1.5.3 1 .6 1.4.7.9 1.9 1.5 2.9 1.8z"/>
  <circle fill="#FFF" cx="106.6" cy="88.1" r="2.3"/>
  <circle fill="#FFF" cx="138.2" cy="88.6" r="2.3"/>
</svg>
