<svg version="1.2" baseProfile="tiny" xmlns="http://www.w3.org/2000/svg" viewBox="0 0 518.4 271.56" overflow="visible" xml:space="preserve">
  <path d="M92.84 9.99c-.01.01-.02.03-.03.08h-.17c.06-.03.13-.06.2-.08zM124.94 92.43v.05l-.01-.01c.01-.01.01-.03.01-.04zM97.88 147.89c-.13-.03-.26-.05-.39-.08.1-.08.21-.17.31-.26.02.11.05.22.08.34zM152.59 216.57c-.02.01-.03.02-.05.04-.04.02-.07.04-.11.06.01-.01.01-.03 0-.04h.01c.04-.01.07-.03.1-.04.02-.01.04-.01.05-.02zM453.1 223.75c0-.09 0-.19-.01-.28v-.01c.01-.06.01.02.01.29z"/>
  <path d="M453.1 223.75c0-.09 0-.19-.01-.28v-.01c.01-.06.01.02.01.29zM372.68 97.41c-.34.71-.71 1.41-1.12 2.09.4-.68.77-1.38 1.12-2.09zM374.38 93.77v.05c0-.03-.01-.05-.01-.08.01.01.01.02.01.03z"/>
  <path d="M518.32 227.04c-15.5-4.57-31.01-9.14-46.56-13.54-1.9-.54-3.8-1.07-5.7-1.6 1.63-4.29 1.62-9.16 1.61-13.68v-.23c-.01-2.76-.1-5.42-1.21-7.99-1.08-2.53-2.74-4.8-4.28-7.07-2.7-3.99-5.59-7.93-9.32-10.99.03-.65.04-1.36-.07-1.4-7.11-2.81-14.63-4.64-22.25-5.4v-.43c0-.09.04-.71-.01-.73-1.31-.62-2.4-1.59-3.21-2.75 1.17-1.04 2.15-2.26 2.91-3.63.88-.07 1.75-.13 2.63-.19 15.22-1.06 30.45-1.97 45.69-2.88.06 0-.03-2.49 0-2.5-15.75.94-31.49 1.88-47.23 2.99.36-1.19.56-2.46.58-3.81.02-1.18.05-2.38.03-3.57 0-.32 0-.56-.01-.68 0-.07 0-.1-.01-.1-.1-2.19-.52-4.32-1.84-6.18-.61-.85-1.34-1.6-2.16-2.22 3.6-3.21 6.52-7.15 8.52-11.57.09-.07.17-.13.25-.2.03-.02.03-.23.03-.42.03-.07.06-.13.09-.2.06-.15.01-.62.01-.73.01-.59.01-1.18.01-1.77 0-.59 0-1.18-.01-1.77 0-.18-.08-.57-.01-.73-.12.28-.24.55-.37.82-1.6 1.26-3.37 2.31-5.25 3.09-1.89.78-4 1.26-5.91.29-1.55-.8-2.67-2.3-3.28-3.9-.11-.29-.2-.59-.27-.89-.03-.83-.05-1.66-.08-2.5.07-.78.02-1.6.02-2.38 0-.82-.12-1.69-.03-2.5-.05.42-.09.84-.12 1.27-.46-11.73-1.35-23.45-2.74-35.12-2.18-18.26-5.51-36.37-9.95-54.21-1.26-5.04-2.6-10.06-4.04-15.06-.61-2.12-1.03-4.51-2.2-6.42-.57-.91-1.41-1.89-2.4-2.16-.04-.63-.06-1.32.06-1.4-13.04 8.57-25.31 18.29-36.6 29.06-5.65 5.38-11.05 11.01-16.19 16.88-4.71 5.4-9.18 11.02-14.13 16.2-5.04 5.27-10.65 10.06-17.21 13.27 0-.37-.03-.67-.1-.7-8.52-3.67-17.07-7.2-26.03-9.68-8.39-2.33-16.98-3.9-25.65-4.73-17.34-1.65-34.97-.31-51.85 3.98-9.36 2.37-18.45 5.65-27.16 9.8-.03-.06-.05-.11-.08-.13-13.41-8.31-26.82-16.61-40.23-24.92-11.77-7.29-23.64-14.54-34.46-23.22-4.27-3.42-8.36-7.07-12.16-10.99-1.04-1.58-2.37-3.44-3.95-4.28-.25-.27-.48-.55-.72-.82.02.02.01.31-.01.5-.29-.08-.59-.14-.9-.15h-.18c-.42.01-.84.1-1.29.29-.05.02-.07.2-.07.46-1.92 1.4-2.82 3.78-3.21 6.17-.59 3.74-.39 7.71-.16 11.47.62 9.96 1.23 19.91 1.84 29.87 1.21 19.66 2.15 39.37 3.72 59.01.74 9.37 1.83 18.73 3.83 27.93-4.69-.97-9.39-1.88-14.11-2.74-13.24-2.42-26.55-4.44-39.91-6.07.08.01-.12 2.48 0 2.5 18.19 2.22 36.28 5.17 54.22 8.85.1-.08.21-.17.31-.26.02.11.05.22.08.34-.13-.03-.26-.05-.39-.08-1.98 1.61-4.56 2.44-7.12 2.14-2.85-.33-5.43-2-6.97-4.41.04.07-.02.75-.02.73 0 .59-.01 1.18-.01 1.77s.01 1.18.01 1.77c0 .17-.07.6.02.73.21.32.43.63.67.92 0 .4 0 .81.01 1.21 0 .14-.07.64.01.73 4.35 4.81 10.36 7.86 16.71 8.69-.44.82-.76 1.71-.96 2.62-.13.61-.19 1.24-.2 1.87-.03.86-.05 1.72-.07 2.58-1.66.22-3.33.51-4.69 1.51-.02-.54-.02-1.03.06-1.06-2.33 1.08-4.13 2.86-5.75 4.81-1.91 2.27-3.72 4.63-5.57 6.95-3.55 4.46-7.32 8.83-10.38 13.65-1.38 2.17-3.07 4.71-3.43 7.31-.06.39-.09.78-.1 1.18-.13-.18-.12.72.02 2.67-.01.03 0 .05 0 .07 0 1.2-.14 2.56.51 3.62 1.01 1.66 3.42 2.62 5.32 3.17.82 4.64 2.68 9.03 5.43 12.85-12.48 5.44-24.77 11.32-36.83 17.62-13.41 7.01-26.54 14.54-39.35 22.57-1.57.99-3.13 1.98-4.7 2.98-.39.25.37 2.27 0 2.5 12.74-8.15 25.79-15.81 39.13-22.95 13.27-7.09 26.82-13.67 40.6-19.72 8.76-3.85 17.61-7.47 26.56-10.88 1.18 2.43 2.4 4.85 3.66 7.24.66 1.26 1.34 2.52 2.02 3.76.34.63.69 1.25 1.04 1.87.16.29.32.58.49.87.09.17.18.33.28.5.02-.17.03-.34.05-.51.59-4.97 2.39-9.75 5.17-13.91h.01c2.16-.11 4.29-.5 6.3-1.35 1.04-.44 2-1 2.9-1.63.01.16.04.27.09.29 4.24 2.21 8.99 3.34 13.75 3.34-.01.2-.03.63.01.65 1.13.53 2.17 1.24 3.07 2.09-3.84 2.48-7.65 5.02-11.41 7.61-7.9 5.44-15.61 11.14-23.13 17.09-.42.33.39 2.19 0 2.5 11.55-9.14 23.55-17.69 35.96-25.62.23.3.44.61.64.93.61.97 1.09 2.03 1.42 3.13.16.53.28 1.08.36 1.63.01.06.02.12.02.18.01.15.01.3.01.44 0 .58 0 1.17.01 1.76 0 .06.01.16.02.26v.48c.01-.1.02-.19.02-.29.01.12.01.23-.02.29 1.5-2.62 2.55-5.47 3.07-8.44.24-1.36.37-2.72.4-4.1 4.64-2.86 9.34-5.65 14.09-8.34h.88l172.17.12c-.01-.01-.01-.01-.02-.01h1.2l.02.01h-1.2c18.64 8.37 36.86 17.67 54.55 27.87 10.61 6.11 21.03 12.55 31.25 19.29-.37-.24.4-2.23 0-2.5-14.34-9.45-29.08-18.31-44.17-26.52.7-1.74 1.61-3.39 2.69-4.91 1.1-1.53 2.38-2.91 3.81-4.13 2.68.13 4.98-.59 7.29-2.17 2.02-1.39 3.91-3.02 6.32-3.6 1.52.65 2.55 1.94 3.62 3.18 1.21 1.4 2.56 2.59 4.18 3.5 2.19 1.24 4.6 1.97 7.05 2.44-.01 1.27-.02 2.54.06 3.81.1 1.61.38 3.21.86 4.75.12.36.24.72.38 1.08.07.17.14.35.21.53.01.02.1.26.11.26.02 0 .1-.3.11-.34.25-.72.54-1.43.85-2.13.61-1.37 1.34-2.69 2.16-3.94.71-1.07 1.49-2.1 2.35-3.06 2.74.24 5.52.15 7.87-1.31 1.96-1.22 3.76-2.78 5.6-4.18.75-.57 1.49-1.14 2.24-1.71.12-.11.24-.2.36-.28 2.03-1.32 4.03 1.63 5.55 2.6 2.04 1.3 4.62 1.26 6.97 1.23 0 .46 0 .92.01 1.38 0 .2-.06.55.01.73.38.9.64 1.81.81 2.75 0 .04-.01.08-.02.12-.15.76-.38 1.5-.66 2.23-.06.16-.01.61-.02.73v3.53c0 .04.01.1.02.18v.56c3.2-3.64 5.75-7.79 7.54-12.28.06-.16.02-.62.02-.73v-.43c.11-.05.21-.1.32-.16 2.15-1.12 3.84-3 5-5.1.3.08.6.17.9.25 15.57 4.35 31.09 8.9 46.59 13.47 1.93.57 3.86 1.14 5.78 1.7-.21-.06.25-2.42 0-2.5zM398.89 6.46c3.05-1.3 4.64 4.25 5.22 6.22 1.24 4.22 2.42 8.46 3.52 12.71 2.24 8.59 4.22 17.24 5.94 25.94 3.41 17.32 5.78 34.84 7.09 52.44.3 4.01.54 8.03.73 12.06-.05.84-.09 1.69-.11 2.53-.01.38-.01.93-.01 1.45 0 1.09.02 2.18.08 3.26.04.83.17 1.66.39 2.45v.01c.07 2.79.1 5.58.1 8.37 0 .19 0 2.5.03 2.5s.02-2.47.02-2.5c0-2.71-.02-5.41-.07-8.11.37 1.24.98 2.38 1.92 3.33 2.13 2.15 4.92 1.95 7.55.88-2.17 2.56-4.7 4.8-7.52 6.65-.58-.1-1.18-.14-1.78-.12-.03 0-.04.52-.04 1.23-.13.08-.27.16-.4.23-.21.11-.03 2.23-.03 2.5 0 .59 0 1.18.01 1.77 0 .09.05.71.02.73.76-.42 1.5-.87 2.22-1.35h.01c2.07.35 3.97 1.42 5.43 2.98.89.96 1.59 2.09 2.04 3.32.15.41.27.82.36 1.24-.5 2.35-1.65 4.38-3.2 6.05-2.32.16-4.63.33-6.95.51-.05-.21-.1-.42-.17-.62-.74-2.17-2.48-3.58-4.24-4.92-.93-.71-1.87-1.42-2.67-2.27-.72-.78-1.12-1.72-1.76-2.54-.49-.63-1.67-1.16-2.19-.22-.08.13-.09.26-.1.4v.04c-.01.05-.01.1-.01.15-.01.55-.01 1.09-.01 1.64 0 1.05-.17 2.26.05 3.3-.02-.08-.02-.2 0-.32-.01-.01-.01-.02 0-.02.17-.55.87-.81 1.41-.65.73.23 1.11 1.07 1.46 1.67.89 1.53 2.26 2.63 3.65 3.68.4.31.81.61 1.2.94-6.91.53-13.83 1.1-20.73 1.73-2.05.19-4.11.38-6.17.58 1.66-1.41 3.31-2.81 4.97-4.21.72-.35 1.37-.87 1.87-1.58.06-.09.02-.72.02-.74 0-.58.01-1.17.01-1.76 0-.59-.01-1.18-.01-1.77 0-.04-.01-.15-.02-.26v-.47c-.54.46-1.08.91-1.62 1.37l-.25-3.93c-.13-.69-.28-1.39-.47-2.07l-.01-.02v-.01c.01-.11.02-.21.02-.31 0-1.63.16-3.31-.56-4.8 0 0 0-.01-.01-.02-3.1-11.39-12.92-20.53-24.47-22.91 1.19-2.46 2.28-4.98 3.07-7.59.72-2.36 1.16-4.79 1.22-7.26.06-2.83.17-5.75-.29-8.56.18 1.15-.03 2.36-.07 3.55-.06-.37-.13-.76-.2-1.19v.05c0-.03-.01-.05-.01-.08.01.01.01.02.01.03v-.12c0-.21-.07-.54-.01-.73-.03.09-.05.19-.08.28-.08.28-.17.56-.26.84-.04.14-.09.29-.15.43v.01l-.27.75c-.09.24-.19.49-.29.73-.1.25-.2.49-.31.73l-.33.72c-.34.71-.71 1.41-1.12 2.09-.17.28-.35.57-.53.85-.21.33-.42.65-.65.96-.1.15-.21.3-.33.45 0 .01-.01.02-.02.03-.22.3-.45.6-.69.89-.03.05-.08.11-.13.16-.24.31-.5.61-.77.9-.02.03-.05.06-.07.08l-.3.33c-.3.32-.61.63-.92.94-.3.3-.63.6-.97.91-.34.3-.7.61-1.08.91l-.57.45c-.31.23-.63.47-.96.68-.16.12-.32.22-.49.32-2.09 1.34-4.45 2.26-6.73 1.91-.05 0-.1-.01-.15-.02.08-.95.16-1.9.26-2.85.08-.9.18-1.8.28-2.7v-.04c.17-1.48.35-2.96.56-4.44.19-1.48.42-2.96.66-4.43l.36-2.13.03-.18c.12-.7.25-1.39.38-2.08v-.02c.14-.73.28-1.46.43-2.19.14-.73.29-1.46.45-2.19.27-1.3.56-2.6.87-3.89.21-.89.42-1.77.65-2.65.18-.72.36-1.45.56-2.17.22-.86.45-1.71.69-2.56.17-.58.33-1.16.5-1.75.42-1.43.85-2.86 1.3-4.28 4.66-14.69 11.15-28.8 19.3-41.89 4.59-7.37 9.71-14.41 15.3-21.06.05-.06.08-.16.11-.29zm20.72 158.31c-4.51.15-9 .68-13.41 1.61-3.19.67-6.32 1.62-9.24 3.04 0-.3.01-.51.05-.53-4.71 1.64-7.25 6.27-9.49 10.41-2.13 3.92-4.18 7.89-6.14 11.91-1.24-.25-2.49-.49-3.73-.73-15.82-3.04-31.74-5.57-47.74-7.4-7.94-.91-15.9-1.66-23.87-2.2-3.12-.21-6.29-.38-9.45-.33v-1.88c-.01-.1-.01-.2-.01-.29 0-.09 0-.18-.01-.26l-1.98 2.49c-3.51.16-6.99.63-10.37 1.63-1.73.51-3.39 1.17-5 1.97-.12.06-.12.35-.09.71-1-.32-2-.65-3-.96 11.86-4.55 24-8.36 36.35-11.35 13.09-3.17 26.38-5.43 39.71-7.28 22.63-3.14 45.38-5.29 68.16-7.01.08.1.15.2.22.31.12.2.24.41.34.62 0 .16.01.32.01.33v.17c-.46.14-.92.26-1.38.36-.32.07.12 3.55.07 4.66zm-125.05-17.3c0-3.09 2.51-5.61 5.61-5.61 3.1 0 5.61 2.52 5.61 5.61 0 3.1-2.51 5.62-5.61 5.62-3.1 0-5.61-2.52-5.61-5.62zM92 90.09c-1.15-18.67-2.29-37.33-3.44-56-.16-2.57-.32-5.14-.47-7.71-.06-.99-.13-1.99-.19-2.98v-.01c.02-.25.04-.5.07-.76.39-3.09 1.56-6.32 4.64-7.55h.01c.66-.02 1.28.18 1.87.52h.01c1.21 1.4 2.47 2.77 3.78 4.1 0 .01.01.02.02.03.08.13.17.25.25.37 2.35 3.43 4.69 6.86 7.04 10.29 4.61 6.73 9.21 13.46 13.81 20.18 4.36 6.38 8.77 12.74 12.53 19.5 3.65 6.56 6.72 13.43 9.43 20.42 2.12 5.44 4.02 10.96 5.83 16.5l-.14.98c-.01.04-.01.09-.01.14-4.96 1.74-10.18-.72-13.78-4.18-1.95-1.87-3.58-4.05-5.17-6.22-.87-1.19-1.74-2.37-2.43-3.66-.28-.51-.53-1.03-.72-1.57l-.01-.01c-.03-.08-.05-.15-.08-.23-.1-.27-.17-.54-.24-.81-.01-.15-.01-.31-.01-.45 0-.78-.19-1.74-.03-2.5-.16.75-.22 1.53-.23 2.32v.01c-.17.34-.14 2.82.05 3.05 0 .14.01.28.01.41.01.85.1 1.66.31 2.45v.26l-.11.11-.2.22.03.25c.06.4.13.79.21 1.18.02.11.05.22.08.33 0 1.05.03 2.1.17 3.14.43 3.3 1.75 6.42 3.41 9.28 1.62 2.79 3.56 5.51 5.75 7.89.53.58 1.09 1.14 1.7 1.65-2.75.86-5.2 2.97-7.17 4.97-2.89 2.93-5.27 6.36-7.03 10.08-1.77 3.72-2.93 7.73-3.39 11.82-.08.65-.13 1.3-.16 1.95-6.52-1.55-13.05-3-19.62-4.36 0-.32-.02-.63-.09-.91-4.46-17.8-5.17-36.25-6.29-54.49zm1.01 64.78c2.07-.36 4.01-1.42 5.45-2.97.06-.06.02-.76.02-.73.01-.59.01-1.18.01-1.77 0-.46 0-.93-.01-1.39 5.19 1.07 10.35 2.21 15.51 3.4 1.31.3 2.62.61 3.93.92-.01.68-.01 1.37-.01 2.05 0 1.32-.53 4.5 1.13 5.11-.1-.03.02-2.28.02-2.5v-.09c1.13-1.27 2.31-2.47 3.66-3.41 20.2 4.95 40.17 10.84 59.83 17.62 10.55 3.65 21.01 7.55 31.37 11.71v.88c0 .09.06.5.02.55.32-.35.66-.69 1.02-1.01.57.23 1.14.46 1.71.7-2.14.87-4.27 1.77-6.39 2.68-13.24 2.39-26.41 5.23-39.45 8.53-2.76.7-5.51 1.41-8.25 2.16-1.93-5.83-4.22-11.55-6.85-17.1-1.44-3.03-2.83-6.38-4.96-9-1.52-1.86-3.53-2.99-5.67-3.88-.02-.12-.05-.24-.08-.36-.27-.96-1.23-.85-2.06-.85-1.31-.01-2.62.01-3.93.03-5.15.07-10.3.26-15.45.59-5.14.32-10.27.76-15.4 1.34-1.48.16-2.95.34-4.42.53 1.1-.84 2.38-1.45 3.75-1.75.04-.01.04-1.28.04-1.46.01-1.09.01-2.18.01-3.27.33-.03.65-.08.98-.13.29-.05-.23-4.97 0-5-.34.05-.69.1-1.03.14v-.28c-.46.1-.9.24-1.34.41h-.01c-4.52.31-9.06-.54-13.15-2.4zm-7.86 69.22c-1.03.44-2.07.89-3.1 1.34.4-4.15 1.73-8.18 3.86-11.78.04-.06.04-.33.03-.52 2.47-.68 4.77-1.86 6.73-3.5 0 .05.02.09.04.12 2.63 3.78 7.01 5.58 11.59 6.58-6.43 2.47-12.81 5.06-19.15 7.76zm42.38-16.17c-4.53 1.53-9.04 3.12-13.53 4.77h-.01c-.34-.04-.67-.07-1.01-.11-5.86-.64-13.26-1.35-18.01-5.36.18-.54-.03-1.94-.03-2.35 0-.59-.01-1.18-.01-1.76 0-.13-.09-.65-.02-.74-4.54 5.57-12.53 7.81-19.34 5.67-.07-.35-.12-.71-.17-1.06.05.32.05.67.03 1.02-.69-.22-1.37-.49-2.03-.8-.93-.45-1.93-.96-2.66-1.7-.11-.11-.21-.23-.29-.35.75-1.94 1.92-3.79 3.03-5.51 2.93-4.53 6.47-8.66 9.83-12.88 1.87-2.35 3.71-4.72 5.62-7.03 1.6-1.94 3.34-3.76 5.59-4.9v.37c0 .11.07.69.02.74 1.38-1.2 3.12-1.51 4.88-1.76.05-.01.1-.01.15-.02 0 .16 0 .32.01.47-.02 2.34 0 3.06.06 2.17.02.53.04-.37.04-.53 0-.13.01-.27 0-.4.05-.6.16-1.19.33-1.77 2.07-.3 4.15-.55 6.22-.8 4.47-.53 8.95-.96 13.44-1.29 4.48-.34 8.98-.58 13.47-.73 2.29-.07 4.58-.12 6.87-.15.79-.01 1.58-.03 2.37-.03.02.14.04.23.07.24.7.25 1.4.49 2.09.77 0 .3-.01.48-.05.49.22-.04.36-.16.44-.33 2.21.89 4.28 2.03 5.84 3.94 2.14 2.62 3.52 5.97 4.96 9 1.94 4.09 3.69 8.27 5.25 12.52-8.74 2.38-17.42 4.96-26.03 7.75-.01-.05-.01-.09-.01-.12v-1.77c-.01-.13-.09-.64-.02-.73-.93 1.21-1.89 2.43-2.92 3.58h-.01c-1.49.48-2.97.98-4.46 1.48zm25.01 8.69c-.04.02-.07.04-.11.06.01-.01.01-.03 0-.04h.01c.04-.01.07-.03.1-.04.02-.01.04-.01.05-.02-.02.01-.03.02-.05.04zm5.62-8.06c-2.7 2.09-6.04 3.41-9.34 4.18-5.64 1.3-11.59.91-17-1.09 1.05-1.15 2.03-2.39 2.97-3.61 8.94-2.9 17.95-5.57 27.01-8.01.18.5.35 1.01.52 1.51l-.02 1.33c-.05.18-.11.35-.18.53-.19.52-.43 1.02-.7 1.5-.82 1.43-1.97 2.65-3.26 3.66zm1.28 3.89c.53-.52 1.02-1.09 1.44-1.71h1.47c-.97.56-1.94 1.14-2.91 1.71zm3.63-2.71h-.99c.61-1.2.99-2.5 1.11-3.89.03.08.06.17.08.25l.48-.15.48-.14c-.11-.36-.05-.97 0-1.51.03-.31.05-.6.05-.85 0-.21.02-.46.04-.71.04-.63.1-1.35-.09-1.94l-.15-.46c-.03-.12-.07-.25-.11-.38.29-.08.59-.15.88-.23l.72-.19c10.25-2.7 20.61-5.13 30.84-7.22-6.53 3.07-13.03 6.32-19.38 9.69-4.75 2.52-9.44 5.12-13.96 7.73zm6.42 0c9.18-5.11 18.57-9.92 27.93-14.3 4.1-1.92 8.34-3.82 12.97-5.81 1.4-.26 2.82-.51 4.23-.76l.64-.11c.5-.06.53-.46.47-1.38 1.33-.56 2.67-1.1 4.01-1.64.01.01.03.01.04.02l-.2.16v.37c-.01.14-.01.28-.01.42l.01 4.25 3.45-2.78.03-.18c.02-.08.02-.18.02-.22.01-.14.01-.28.01-.43v-2.65c0-.1 0-.2-.01-.29.25-.1.5-.2.75-.29.51-.21.43-.82.31-1.83-.04-.32-.09-.8-.07-.93-.01.06-.08.2-.25.26l-.18-.47-.17-.47c-.01.01-.02.01-.02.01-1.25.49-2.48.98-3.71 1.47-.52-.21-1.03-.42-1.54-.63.35-.2.71-.39 1.07-.55.36-.14.36-.44.34-1.02.01-.44.01-.88.01-1.34 0-.44 0-.88-.01-1.32v-.14c-.01-.12-.02-.28-.02-.35l-.48-.05-.01-.01-.21-.45c-1.88.88-3.55 2.06-4.97 3.5-19.92-7.99-40.51-15.13-61.19-21.23-7.95-2.34-16.07-4.56-24.16-6.62.65-.1 1.32-.17 1.97-.24 1.75-.2 3.57-.41 5.29-.99.46-.13.48-.42.4-2.67-.01-.15-.01-.26-.01-.31s-.01-.21-.02-.44c-.02-.46-.08-1.69-.04-1.91l-.46-.14-.01-.01-.16-.47c-1.64.54-3.39.74-5.09.94-1.46.16-2.97.33-4.44.72-2.02.53-3.84 1.64-5.71 3.47-.33-.09-.66-.16-.99-.24l-.11-.03c.12-.58.25-1.13.4-1.67.86-3.4 2.24-6.69 4.08-9.77 1.85-3.1 4.1-5.85 6.69-8.19 3.51-3.18 6.65-4.37 9.59-3.65l.25-.97c.19.05.28.2.29.26-.05-.2.02-1.09.08-1.83.47.04.97.03 1.48-.03.6-.07.58-.51.46-3.41-.04-.78-.08-1.76-.05-1.94l-.46-.14-.07-.5c-4.86.65-8.47-4.52-11.1-8.29l-.12-.17c-1.74-2.49-3.03-4.79-3.94-7.05-.12-.32-.24-.63-.35-.94 1.33 2.06 2.91 3.97 4.36 5.68 5.29 6.21 11.64 8.59 16.99 6.37.35-.15.43-.4.38-1.82.37 1.15.74 2.31 1.11 3.47 0 .01 0 .01.01.02l.95-.31c-.11-.34-.05-.98 0-1.49.02-.32.05-.61.05-.86 0-.21.02-.45.04-.7.04-.64.1-1.36-.09-1.95-4.71-14.82-9.52-29.22-16.54-42.48-3.6-6.81-7.83-13.14-12.22-19.56l-1.72-2.52c-3.23-4.71-6.46-9.43-9.68-14.14 4.27 3.45 9.07 6.95 14.58 10.65 9.25 6.2 18.91 12.12 28.25 17.85 3.07 1.88 6.15 3.77 9.22 5.67l22.21 13.76c-.01.12-.01.17-.02.19l.45.19.22.45c15.6-7.51 32.38-12.2 49.89-13.94 17.52-1.73 34.91-.45 51.69 3.78 9.83 2.48 19.32 6.28 27.33 9.7.03.53.08 1.49.04 1.7l.44.18.21.46c11.88-5.17 20.32-15.15 28.48-24.81.95-1.12 1.89-2.24 2.84-3.35 10.11-11.81 21.31-22.74 33.3-32.49 3.32-2.7 6.7-5.31 10.06-7.78-6.11 8.6-11.52 17.8-16.1 27.41-6.71 14.06-11.63 28.9-14.62 44.1-1.6 8.07-2.65 16.4-3.14 24.77-.25-.08-.5-.19-.75-.31h-.01l-.22.44-.04.09-.42.08c.05.23-.02 1.42-.05 1.86-.01.24-.02.41-.02.47s-.01.19-.02.36c-.12 1.95-.07 2.38.32 2.59.39.2.78.35 1.18.47.05.2.17.37.45.38l.49-.04.01-.14c4.1.59 8.31-2.53 11.19-5.33 2.23-2.16 4.07-4.68 5.45-7.45-.26.8-.57 1.62-.91 2.49-.67 1.68-1.5 3.48-2.61 5.69-.06.13-.14.3-.23.5-.28.64-.69 1.58-1.18 2.21-.25-.02-.5-.05-.75-.07l-.23-.02-.02.55-.46.06c.01.08.01.29-.01.57l-.35.07c.04.24-.02 1.42-.05 1.86-.01.23-.02.4-.02.46s-.01.2-.02.39c-.14 1.91-.09 2.34.3 2.55.39.22 1.15.45 1.97-.36 8.49 1.09 16.42 5.95 21.58 13.14-3.35-1.42-7.42-2.3-12.39-2.68l-.04.49-.01.05-.47.05c.01.16-.01 1.1-.03 1.86-.09 3.51-.09 3.51.47 3.54 4.33.33 8.31 1.18 11.81 2.51 1.59.62 2.84 1.32 3.83 2.16.57.5 1.01.98 1.32 1.5.09.14.17.32.25.51v.01c.18.67.34 1.36.46 1.99l.24 3.8c-.63.23-1.33.34-2.05.34-.99 0-2.03-.22-2.97-.64-3.05-1.37-4.91-4.59-6.57-7.47-.01-.02-.02-.03-.03-.05l-.43.27-.12.07-.36.04c.01.07-.01.33-.03.61-.01.59-.01 1.18-.01 1.77 0 .6 0 1.19.01 1.77 0 .04 0 .1-.01.16-.02.27-.05.57.09.82l.06.1c1.6 2.78 3.4 5.89 6.39 7.52l-.57.48c-.27.22-.25.8-.2 1.12l-.01 2.27c-21.52 2.06-46.76 4.91-71.25 10.41-2.03.45-3.93.9-5.76 1.35 1.64-1.99 3.07-4.47 4.18-7.26 2.21-5.58 3.65-12 4.27-19.06.34-3.89.33-7.78.29-11.42v-.53c-.02-1.55-.04-3.16-.19-4.72 1.19.54 2.43 1.19 3.76 1.98 5.17 3.06 9.79 7.34 13.36 12.4 4.07 5.76 6.71 12.43 7.64 19.27l.99-.13c-.11-.77-.06-1.56 0-2.4.06-.85.11-1.73 0-2.6-1.69-12.44-8.95-24.06-19.42-31.09-7.03-4.73-13.37-6.27-19.36-4.74-5.94 1.52-11.64 5.68-16.07 11.69-3.37 4.55-5.87 9.69-8.3 14.66-1.18 2.44-2.41 4.95-3.72 7.35-.25.46-.21 1.21-.13 2.13.02.24.04.46.04.61 0 .6 0 1.19.01 1.76 0 .07.01.17.02.29.01.09.03.26.03.31l.47.14.44.24c.68-1.25 1.35-2.57 1.97-3.81 1.26 7.01 3.47 11.95 6.92 15.5 1.75 1.8 3.8 3.19 5.99 4.1-4.63 1.43-9.26 2.98-13.8 4.62.04-.03.08-.07.13-.11l.31-.27c.18-.18.2-.61.16-.9.01-.44.01-.89.01-1.34 0-.44 0-.88-.01-1.32 0-.02 0-.09-.01-.17-.01-.09-.02-.22-.01-.29l-.46-.08-.33-.4c-.02.01-.03.02-.04.03l-.52.45c-1.34 1.16-2.67 2.32-3.97 3.46-.27.2-.26.68-.22.95l-.01 1.85-1.32.51c-.52.2-.44.84-.32 1.89l.03.25.18-.02-.12.35c-.19-.07-.27-.23-.28-.3.02.13-.03.62-.06.94-.12 1.13-.17 1.7.35 1.86 2.69.85 5.39 1.73 8.07 2.63 0 .24 0 .49.01.72v.29c0 .11 0 .21.01.32l.14 1.28.76-1.04c.25-.34.53-.67.85-.98 17.36 5.84 34.65 12.54 51.38 19.91.2.09.39.17.59.26l-166.78-.11zm139.95-14.56c-7.56-2.91-15.28-5.71-22.93-8.31v-.97c0-.4 0-.81-.01-1.2 2.34-.53 4.82-.87 7.56-1.03l.01.46c0 .1 0 .21.01.31l.15 1.18.74-.92c.29-.36.59-.73.88-1.1 1.35-.04 2.82-.04 4.49 0 8.05.24 16.28 1.09 23.54 1.84 15.26 1.58 31.33 3.92 47.77 6.94 2.85.51 5.44 1.01 7.9 1.5-.32.64-.62 1.28-.92 1.92-1.43 3.06-2.69 5.85-3.86 8.53-.08.2-.17.4-.27.6-.44.97-.9 1.97-.98 3.06-.04.57-.07 1.19-.08 1.88l-29.18-.02c-11.3-5.18-23.01-10.12-34.82-14.67zm64.51 14.69v.01c0 .01-.01.02-.01.02v-.03h.01zm5.54 13.93c-.02 1.22-.03 2.46.15 3.67.03.21.07.43.12.64-3.56-1.92-7.14-3.81-10.74-5.66-7.88-4.05-15.73-7.94-23.78-11.64l28.71.06c0 .67.03 1.33.07 1.98v.09c0-.01 0-.03.01-.04.16 2.39 2.76 3.92 4.74 4.82.35.16.7.31 1.06.45-.09.33-.15.66-.2 1-.1.72-.13 1.43-.13 2.15-.01.04-.01.07 0 .1 0 .1-.01.24-.01.42-.01.51-.01 1.28 0 1.96zm73.6-.32v-.01c.01-.06.01.02.01.29 0-.09 0-.19-.01-.28zm6.79-9.17c-2.21 1.1-4.72 1.27-7.15 1.3-2.48.04-5.29.2-7.51-1.12-.7-.42-1.51-1.27-2.37-1.97-.02-.34-.04-.63-.04-.74 0-.32-.27-2.31-.03-2.5-1.09.84-2.19 1.67-3.28 2.51-.12.08-.24.17-.36.28-.75.57-1.49 1.14-2.24 1.71-1.84 1.4-3.63 2.96-5.6 4.18-2.09 1.29-4.51 1.51-6.94 1.38V219c0-.12-.08-.67-.02-.73-.31.32-.62.65-.92.99-1.28-.11-2.55-.29-3.78-.44-3.56-.43-7.2-1.17-10.35-2.96-1.62-.92-2.97-2.1-4.18-3.5-.95-1.1-1.87-2.25-3.13-2.94.01-.22.03-.35.06-.36-.19.03-.37.07-.55.12-.17-.07-.34-.14-.52-.19.02.01.03.13.03.32-1.94.6-3.57 1.87-5.23 3.05-2.25 1.59-4.47 2.69-7.26 2.64-.02-.21-.04-.54 0-.57-.22.17-.43.35-.64.53-2.68-.15-5.5-.84-7.99-1.79-1.51-.57-3.77-1.59-4.99-3.09v-.01c.42-.95.92-1.87 1.3-2.74.88-1.98 1.77-3.94 2.69-5.9 1.18-2.51 2.38-5.02 3.63-7.5 12.23 2.43 24.41 5.15 36.54 8.1 14.26 3.46 28.45 7.22 42.6 11.14-.55.44-1.14.82-1.77 1.13zm4.57-4.19c-.25.38-.52.75-.82 1.11-12.87-3.59-25.77-7.04-38.73-10.26-13.68-3.4-27.43-6.54-41.24-9.31l.72-1.41c1.73-3.36 3.42-6.8 5.47-9.98 1.18-1.84 2.57-3.58 4.31-4.85v.56c.62 0 1.25-.01 1.87-.01.01 0 .02-.45.02-1.08 6.11-3.25 13.3-4.38 20.12-4.9 7.9-.6 15.89-.06 23.64 1.61 3.64.79 7.21 1.82 10.7 3.09.01.31.05.56.13.61 3.9 2.59 6.95 6.15 9.66 9.93 1.39 1.93 2.73 3.9 4.02 5.9 1.36 2.12 2.59 4.35 3.06 6.85.08.44.1.89.14 1.33-.09 1.38-.25 2.75-.51 4.11-.45 2.36-1.23 4.68-2.56 6.7z"/>
  <path d="M305.78 147.47c0 3.1-2.51 5.62-5.61 5.62-3.1 0-5.61-2.52-5.61-5.62 0-3.09 2.51-5.61 5.61-5.61 3.1 0 5.61 2.52 5.61 5.61z"/>
  <path fill="#CB5E16" d="m147.19 106.99-.14.98c-.01.04-.01.09-.01.14-4.96 1.74-10.18-.72-13.78-4.18-1.95-1.87-3.58-4.05-5.17-6.22-.87-1.19-1.74-2.37-2.43-3.66-.28-.51-.53-1.03-.72-1.57v-.05c0 .01 0 .03-.01.04-.03-.08-.05-.15-.08-.23-.1-.27-.17-.54-.24-.81-.01-.15-.01-.31-.01-.45 0-.78-.19-1.74-.03-2.5-.16.75-.22 1.53-.23 2.32v.01c-.17.34-.14 2.82.05 3.05 0 .14.01.28.01.41.01.85.1 1.66.31 2.45v.26l-.11.11-.2.22.03.25c.06.4.13.79.21 1.18.02.11.05.22.08.33 0 1.05.03 2.1.17 3.14.43 3.3 1.75 6.42 3.41 9.28 1.62 2.79 3.56 5.51 5.75 7.89.53.58 1.09 1.14 1.7 1.65-2.75.86-5.2 2.97-7.17 4.97-2.89 2.93-5.27 6.36-7.03 10.08-1.77 3.72-2.93 7.73-3.39 11.82-.08.65-.13 1.3-.16 1.95-6.52-1.55-13.05-3-19.62-4.36 0-.32-.02-.63-.09-.91-4.46-17.8-5.17-36.25-6.29-54.49-1.15-18.67-2.29-37.33-3.44-56-.16-2.57-.32-5.14-.47-7.71-.06-.99-.13-1.99-.19-2.98v-.01c.02-.25.04-.5.07-.76.39-3.09 1.56-6.32 4.64-7.55h.01c.66-.02 1.28.18 1.87.52h.01c1.21 1.4 2.47 2.77 3.78 4.1 0 .01.01.02.02.03.08.13.17.25.25.37 2.35 3.43 4.69 6.86 7.04 10.29 4.61 6.73 9.21 13.46 13.81 20.18 4.36 6.38 8.77 12.74 12.53 19.5 3.65 6.56 6.72 13.43 9.43 20.42 2.12 5.44 4.02 10.96 5.83 16.5z"/>
  <path d="M97.88 147.89c-.13-.03-.26-.05-.39-.08.1-.08.21-.17.31-.26.02.11.05.22.08.34z"/>
  <path fill="#E67E0A" d="M160.98 197.73c-8.74 2.38-17.42 4.96-26.03 7.75-.01-.05-.01-.09-.01-.12v-1.77c-.01-.13-.09-.64-.02-.73-.93 1.21-1.89 2.43-2.92 3.58h-.01c-1.49.48-2.97.98-4.46 1.48-4.53 1.53-9.04 3.12-13.53 4.77h-.01c-.34-.04-.67-.07-1.01-.11-5.86-.64-13.26-1.35-18.01-5.36.18-.54-.03-1.94-.03-2.35 0-.59-.01-1.18-.01-1.76 0-.13-.09-.65-.02-.74-4.54 5.57-12.53 7.81-19.34 5.67-.07-.35-.12-.71-.17-1.06.05.32.05.67.03 1.02-.69-.22-1.37-.49-2.03-.8-.93-.45-1.93-.96-2.66-1.7-.11-.11-.21-.23-.29-.35.75-1.94 1.92-3.79 3.03-5.51 2.93-4.53 6.47-8.66 9.83-12.88 1.87-2.35 3.71-4.72 5.62-7.03 1.6-1.94 3.34-3.76 5.59-4.9v.37c0 .11.07.69.02.74 1.38-1.2 3.12-1.51 4.88-1.76.05-.01.1-.01.15-.02 0 .16 0 .32.01.47-.02 2.34 0 3.06.06 2.17.02.53.04-.37.04-.53 0-.13.01-.27 0-.4.05-.6.16-1.19.33-1.77 2.07-.3 4.15-.55 6.22-.8 4.47-.53 8.95-.96 13.44-1.29 4.48-.34 8.98-.58 13.47-.73 2.29-.07 4.58-.12 6.87-.15.79-.01 1.58-.03 2.37-.03.02.14.04.23.07.24.7.25 1.4.49 2.09.77 0 .3-.01.48-.05.49.22-.04.36-.16.44-.33 2.21.89 4.28 2.03 5.84 3.94 2.14 2.62 3.52 5.97 4.96 9 1.94 4.09 3.69 8.27 5.25 12.52zM162.32 201.53l-.02 1.33c-.05.18-.11.35-.18.53-.19.52-.43 1.02-.7 1.5-.82 1.43-1.97 2.65-3.26 3.66-2.7 2.09-6.04 3.41-9.34 4.18-5.64 1.3-11.59.91-17-1.09 1.05-1.15 2.03-2.39 2.97-3.61 8.94-2.9 17.95-5.57 27.01-8.01.18.5.35 1.01.52 1.51z"/>
  <path fill="#E67E0A" d="M216.67 183.94c-2.14.87-4.27 1.77-6.39 2.68-13.24 2.39-26.41 5.23-39.45 8.53-2.76.7-5.51 1.41-8.25 2.16-1.93-5.83-4.22-11.55-6.85-17.1-1.44-3.03-2.83-6.38-4.96-9-1.52-1.86-3.53-2.99-5.67-3.88-.02-.12-.05-.24-.08-.36-.27-.96-1.23-.85-2.06-.85-1.31-.01-2.62.01-3.93.03-5.15.07-10.3.26-15.45.59-5.14.32-10.27.76-15.4 1.34-1.48.16-2.95.34-4.42.53 1.1-.84 2.38-1.45 3.75-1.75.04-.01.04-1.28.04-1.46.01-1.09.01-2.18.01-3.27.33-.03.65-.08.98-.13.29-.05-.23-4.97 0-5-.34.05-.69.1-1.03.14v-.28c-.46.1-.9.24-1.34.41h-.01c-4.52.31-9.06-.54-13.15-2.4 2.07-.36 4.01-1.42 5.45-2.97.06-.06.02-.76.02-.73.01-.59.01-1.18.01-1.77 0-.46 0-.93-.01-1.39 5.19 1.07 10.35 2.21 15.51 3.4 1.31.3 2.62.61 3.93.92-.01.68-.01 1.37-.01 2.05 0 1.32-.53 4.5 1.13 5.11-.1-.03.02-2.28.02-2.5v-.09c1.13-1.27 2.31-2.47 3.66-3.41 20.2 4.95 40.17 10.84 59.83 17.62 10.55 3.65 21.01 7.55 31.37 11.71v.88c0 .09.06.5.02.55.32-.35.66-.69 1.02-1.01.57.23 1.14.46 1.71.7z"/>
  <path d="M340.95 210.85h-1.2c-.01-.01-.01-.01-.02-.01h1.2l.02.01z"/>
  <path fill="#E67E0A" d="M467.52 199.3c-.09 1.38-.25 2.75-.51 4.11-.45 2.36-1.23 4.68-2.56 6.7-.25.38-.52.75-.82 1.11-12.87-3.59-25.77-7.04-38.73-10.26-13.68-3.4-27.43-6.54-41.24-9.31l.72-1.41c1.73-3.36 3.42-6.8 5.47-9.98 1.18-1.84 2.57-3.58 4.31-4.85v.56c.62 0 1.25-.01 1.87-.01.01 0 .02-.45.02-1.08 6.11-3.25 13.3-4.38 20.12-4.9 7.9-.6 15.89-.06 23.64 1.61 3.64.79 7.21 1.82 10.7 3.09.01.31.05.56.13.61 3.9 2.59 6.95 6.15 9.66 9.93 1.39 1.93 2.73 3.9 4.02 5.9 1.36 2.12 2.59 4.35 3.06 6.85.08.44.1.89.14 1.33zM461.65 213.17c-.55.44-1.14.82-1.77 1.13-2.21 1.1-4.72 1.27-7.15 1.3-2.48.04-5.29.2-7.51-1.12-.7-.42-1.51-1.27-2.37-1.97-.02-.34-.04-.63-.04-.74 0-.32-.27-2.31-.03-2.5-1.09.84-2.19 1.67-3.28 2.51-.12.08-.24.17-.36.28-.75.57-1.49 1.14-2.24 1.71-1.84 1.4-3.63 2.96-5.6 4.18-2.09 1.29-4.51 1.51-6.94 1.38V219c0-.12-.08-.67-.02-.73-.31.32-.62.65-.92.99-1.28-.11-2.55-.29-3.78-.44-3.56-.43-7.2-1.17-10.35-2.96-1.62-.92-2.97-2.1-4.18-3.5-.95-1.1-1.87-2.25-3.13-2.94.01-.22.03-.35.06-.36-.19.03-.37.07-.55.12-.17-.07-.34-.14-.52-.19.02.01.03.13.03.32-1.94.6-3.57 1.87-5.23 3.05-2.25 1.59-4.47 2.69-7.26 2.64-.02-.21-.04-.54 0-.57-.22.17-.43.35-.64.53-2.68-.15-5.5-.84-7.99-1.79-1.51-.57-3.77-1.59-4.99-3.09v-.01c.42-.95.92-1.87 1.3-2.74.88-1.98 1.77-3.94 2.69-5.9 1.18-2.51 2.38-5.02 3.63-7.5 12.23 2.43 24.41 5.15 36.54 8.1 14.26 3.46 28.45 7.22 42.6 11.14z"/>
  <path fill="#E67E0A" d="M419.54 160.11c-.32.07.12 3.55.07 4.66-4.51.15-9 .68-13.41 1.61-3.19.67-6.32 1.62-9.24 3.04 0-.3.01-.51.05-.53-4.71 1.64-7.25 6.27-9.49 10.41-2.13 3.92-4.18 7.89-6.14 11.91-1.24-.25-2.49-.49-3.73-.73-15.82-3.04-31.74-5.57-47.74-7.4-7.94-.91-15.9-1.66-23.87-2.2-3.12-.21-6.29-.38-9.45-.33v-1.88c-.01-.1-.01-.2-.01-.29 0-.09 0-.18-.01-.26l-1.98 2.49c-3.51.16-6.99.63-10.37 1.63-1.73.51-3.39 1.17-5 1.97-.12.06-.12.35-.09.71-1-.32-2-.65-3-.96 11.86-4.55 24-8.36 36.35-11.35 13.09-3.17 26.38-5.43 39.71-7.28 22.63-3.14 45.38-5.29 68.16-7.01.08.1.15.2.22.31.12.2.24.41.34.62 0 .16.01.32.01.33v.17c-.46.14-.92.26-1.38.36z"/>
  <path fill="#E67E0A" d="M374.37 93.74c0 .03.01.05.01.08v-.05c0-.01 0-.02-.01-.03zm20.79 51.34c-.12-.63-.28-1.32-.46-1.99v-.01c-.08-.19-.16-.37-.25-.51-.31-.52-.75-1-1.32-1.5-.99-.84-2.24-1.54-3.83-2.16-3.5-1.33-7.48-2.18-11.81-2.51-.56-.03-.56-.03-.47-3.54.02-.76.04-1.7.03-1.86l.47-.05.01-.05.04-.49c4.97.38 9.04 1.26 12.39 2.68-5.16-7.19-13.09-12.05-21.58-13.14-.82.81-1.58.58-1.97.36-.39-.21-.44-.64-.3-2.55.01-.19.02-.33.02-.39s.01-.23.02-.46c.03-.44.09-1.62.05-1.86l.35-.07c.02-.28.02-.49.01-.57l.46-.06.02-.55.23.02c.25.02.5.05.75.07.49-.63.9-1.57 1.18-2.21.09-.2.17-.37.23-.5 1.11-2.21 1.94-4.01 2.61-5.69.34-.87.65-1.69.91-2.49-1.38 2.77-3.22 5.29-5.45 7.45-2.88 2.8-7.09 5.92-11.19 5.33l-.01.14-.49.04c-.28-.01-.4-.18-.45-.38-.4-.12-.79-.27-1.18-.47-.39-.21-.44-.64-.32-2.59.01-.17.02-.3.02-.36s.01-.23.02-.47c.03-.44.1-1.63.05-1.86l.42-.08.04-.09.22-.44h.01c.25.12.5.23.75.31.49-8.37 1.54-16.7 3.14-24.77 2.99-15.2 7.91-30.04 14.62-44.1 4.58-9.61 9.99-18.81 16.1-27.41-3.36 2.47-6.74 5.08-10.06 7.78-11.99 9.75-23.19 20.68-33.3 32.49-.95 1.11-1.89 2.23-2.84 3.35-8.16 9.66-16.6 19.64-28.48 24.81l-.21-.46-.44-.18c.04-.21-.01-1.17-.04-1.7-8.01-3.42-17.5-7.22-27.33-9.7-16.78-4.23-34.17-5.51-51.69-3.78-17.51 1.74-34.29 6.43-49.89 13.94l-.22-.45-.45-.19c.01-.02.01-.07.02-.19l-22.21-13.76c-3.07-1.9-6.15-3.79-9.22-5.67-9.34-5.73-19-11.65-28.25-17.85-5.51-3.7-10.31-7.2-14.58-10.65 3.22 4.71 6.45 9.43 9.68 14.14l1.72 2.52c4.39 6.42 8.62 12.75 12.22 19.56 7.02 13.26 11.83 27.66 16.54 42.48.19.59.13 1.31.09 1.95-.02.25-.04.49-.04.7 0 .25-.03.54-.05.86-.05.51-.11 1.15 0 1.49l-.95.31c-.01-.01-.01-.01-.01-.02-.37-1.16-.74-2.32-1.11-3.47.05 1.42-.03 1.67-.38 1.82-5.35 2.22-11.7-.16-16.99-6.37-1.45-1.71-3.03-3.62-4.36-5.68.11.31.23.62.35.94.91 2.26 2.2 4.56 3.94 7.05l.12.17c2.63 3.77 6.24 8.94 11.1 8.29l.07.5.46.14c-.03.18.01 1.16.05 1.94.12 2.9.14 3.34-.46 3.41-.51.06-1.01.07-1.48.03-.06.74-.13 1.63-.08 1.83-.01-.06-.1-.21-.29-.26l-.25.97c-2.94-.72-6.08.47-9.59 3.65-2.59 2.34-4.84 5.09-6.69 8.19-1.84 3.08-3.22 6.37-4.08 9.77-.15.54-.28 1.09-.4 1.67l.11.03c.33.08.66.15.99.24 1.87-1.83 3.69-2.94 5.71-3.47 1.47-.39 2.98-.56 4.44-.72 1.7-.2 3.45-.4 5.09-.94l.16.47.01.01.46.14c-.04.22.02 1.45.04 1.91.01.23.02.39.02.44s0 .16.01.31c.08 2.25.06 2.54-.4 2.67-1.72.58-3.54.79-5.29.99-.65.07-1.32.14-1.97.24 8.09 2.06 16.21 4.28 24.16 6.62 20.68 6.1 41.27 13.24 61.19 21.23 1.42-1.44 3.09-2.62 4.97-3.5l.21.45.01.01.48.05c0 .07.01.23.02.35v.14c.01.44.01.88.01 1.32 0 .46 0 .9-.01 1.34.02.58.02.88-.34 1.02-.36.16-.72.35-1.07.55.51.21 1.02.42 1.54.63 1.23-.49 2.46-.98 3.71-1.47 0 0 .01 0 .02-.01l.17.47.18.47c.17-.06.24-.2.25-.26-.02.13.03.61.07.93.12 1.01.2 1.62-.31 1.83-.25.09-.5.19-.75.29.01.09.01.19.01.29v2.65c0 .15 0 .29-.01.43 0 .04 0 .14-.02.22l-.03.18-3.45 2.78-.01-4.25c0-.14 0-.28.01-.42v-.37l.2-.16c-.01-.01-.03-.01-.04-.02-1.34.54-2.68 1.08-4.01 1.64.06.92.03 1.32-.47 1.38l-.64.11c-1.41.25-2.83.5-4.23.76-4.63 1.99-8.87 3.89-12.97 5.81-9.36 4.38-18.75 9.19-27.93 14.3l166.78.11c-.2-.09-.39-.17-.59-.26-16.73-7.37-34.02-14.07-51.38-19.91-.32.31-.6.64-.85.98l-.76 1.04-.14-1.28c-.01-.11-.01-.21-.01-.32v-.29c-.01-.23-.01-.48-.01-.72-2.68-.9-5.38-1.78-8.07-2.63-.52-.16-.47-.73-.35-1.86.03-.32.08-.81.06-.94.01.07.09.23.28.3l.12-.35-.18.02-.03-.25c-.12-1.05-.2-1.69.32-1.89l1.32-.51.01-1.85c-.04-.27-.05-.75.22-.95 1.3-1.14 2.63-2.3 3.97-3.46l.52-.45c.01-.01.02-.02.04-.03l.33.4.46.08c-.01.07 0 .2.01.29.01.08.01.15.01.17.01.44.01.88.01 1.32 0 .45 0 .9-.01 1.34.04.29.02.72-.16.9l-.31.27c-.05.04-.09.08-.13.11 4.54-1.64 9.17-3.19 13.8-4.62-2.19-.91-4.24-2.3-5.99-4.1-3.45-3.55-5.66-8.49-6.92-15.5-.62 1.24-1.29 2.56-1.97 3.81l-.44-.24-.47-.14c0-.05-.02-.22-.03-.31-.01-.12-.02-.22-.02-.29-.01-.57-.01-1.16-.01-1.76 0-.15-.02-.37-.04-.61-.08-.92-.12-1.67.13-2.13 1.31-2.4 2.54-4.91 3.72-7.35 2.43-4.97 4.93-10.11 8.3-14.66 4.43-6.01 10.13-10.17 16.07-11.69 5.99-1.53 12.33.01 19.36 4.74 10.47 7.03 17.73 18.65 19.42 31.09.11.87.06 1.75 0 2.6-.06.84-.11 1.63 0 2.4l-.99.13c-.93-6.84-3.57-13.51-7.64-19.27-3.57-5.06-8.19-9.34-13.36-12.4-1.33-.79-2.57-1.44-3.76-1.98.15 1.56.17 3.17.19 4.72v.53c.04 3.64.05 7.53-.29 11.42-.62 7.06-2.06 13.48-4.27 19.06-1.11 2.79-2.54 5.27-4.18 7.26 1.83-.45 3.73-.9 5.76-1.35 24.49-5.5 49.73-8.35 71.25-10.41l.01-2.27c-.05-.32-.07-.9.2-1.12l.57-.48c-2.99-1.63-4.79-4.74-6.39-7.52l-.06-.1c-.14-.25-.11-.55-.09-.82.01-.06.01-.12.01-.16-.01-.58-.01-1.17-.01-1.77 0-.59 0-1.18.01-1.77.02-.28.04-.54.03-.61l.36-.04.12-.07.43-.27c.01.02.02.03.03.05 1.66 2.88 3.52 6.1 6.57 7.47.94.42 1.98.64 2.97.64.72 0 1.42-.11 2.05-.34l-.24-3.8zm-173.71 4.17c0 2.25-.18 4.57-.88 6.78-.92 2.87-2.5 5.72-4.71 8.46-3.31 4.1-7.31 6.26-11.47 6.26-.89 0-1.78-.1-2.68-.3-5.03-1.1-9.45-4.9-12.43-10.68-2.54-4.9-4.32-10.78-5.44-17.99-.71-4.55-1.01-9.61-.9-15.46-.44.06-.9.13-1.37.22-6.08 1.18-10.97 5.01-13.09 10.24-.53 1.32-.92 2.76-1.17 4.27-.12.73-.21 1.47-.26 2.21.11 1.4.29 2.88.53 4.34.02.09.04.19.05.29l.4.07.49.09c-.05.3-.07.61-.07.93 0 .46.04.94.08 1.44.07.86.14 1.76-.01 2.63-.03.21-.06.43-.1.65-.06.43-.12.88-.23 1.32-.04.12-.04.21-.05.27l-.04.4-.42.1-.41.04-.21-.68c-.06-.19-.09-.39-.12-.56-.19-.98-.35-1.89-.49-2.8-.29-1.92-.45-3.71-.49-5.48l-.01-.4c-.1-3.76-.2-7.65.63-11.36 1.52-6.67 6.22-11.61 12.89-13.54 7.83-2.25 15.65.38 20.83 2.98 11.88 5.95 21.74 16.58 27.03 29.16.24.57.17 1.33.11 2.01-.03.25-.05.49-.05.68 0 .21-.03.49-.05.8-.05.49-.12 1.23-.01 1.51l-.46.19-.46.2c-1.36-3.24-3.02-6.36-4.96-9.29zm7.81 35.55-.02.01c-1.14.5-2.11 1.29-2.81 2.31l-.75 1.1-.16-1.33c-.01-.09-.02-.2-.01-.32-.01-.1-.01-.2-.01-.29v-2.66c0-.14 0-.27.01-.42 0-.03 0-.12.02-.22l.08-.18c.8-1.17 1.92-2.09 3.23-2.66l.23.47.46.05c0 .07.01.23.02.35v1.46c.01.3.01.59 0 .89v.43c.01.65.02.87-.29 1.01zm38.47-12.55c-.03.33-.05.66-.05.95v.43c.01.35.01.71-.01 1.06.03.26.05.76-.42.83l-.48.07-.07-.37h-.06l.01-.21c-.02-.09-.03-.2-.04-.32-.12-.25-.33-.48-.64-.67-3.81 1.26-7.15 3.68-9.69 7-1.29 1.69-2.3 3.53-3.03 5.49-.34.9-.61 1.86-.82 2.83-.11.5-.2 1.02-.26 1.54-.05.38-.08.75-.11 1.12-.01.21-.04.33-.05.39l.01 1.36-.27.01-.68.27-.01-.01c-1.84-4.69-7.34-15.69-18.56-16.87-.06 0-.42-.04-.49-.55l.22-.03-.19-.33c-.09.05-.13.12-.16.17.04-.28-.03-1.33-.07-1.74-.02-.24-.03-.43-.03-.51 0-.06-.01-.2-.02-.38-.12-1.91-.08-2.31.26-2.53 5.89-3.63 12.7-5.62 19.72-5.77 3.51-.06 6.97.33 10.29 1.18l.56.14c1.19.29 2.54.61 3.65 1.24.09.05.18.1.27.16 1.44.92 1.32 2.65 1.22 4.05zm106.64-78.51c0 .03.01.05.01.08v-.05c0-.01 0-.02-.01-.03z"/>
  <path d="M356.46 107.4c-.1.95-.18 1.9-.26 2.85.05.01.1.02.15.02v-.06c.1-1.84.23-3.67.39-5.51-.1.9-.2 1.8-.28 2.7zm17.91-13.66c0 .03.01.05.01.08v-.05c0-.01 0-.02-.01-.03zm.28-2.33-.49.08c.07.46.07.94.05 1.43l-.33-.3v1.2h.14l-.14.01c0 .21.01.43 0 .64.06-.14.11-.29.15-.43.09-.28.18-.56.26-.84.03-.09.05-.19.08-.28-.06.19.01.52.01.73v.12c.07.43.14.82.2 1.19.04-1.19.25-2.4.07-3.55zm.49-.08-.49.08c.46 2.81.35 5.73.29 8.56l.5.02v-.12l.02-.56c.05-2.63.12-5.34-.32-7.98zm-34.21 119.51h-1.2c.01 0 .01 0 .02.01h1.2l-.02-.01zM267.68 173.63c.01.35.01.71-.01 1.06.03.26.05.76-.42.83l-.48.07-.07-.37h-.06l.01-.21c-.02-.09-.03-.2-.04-.32-.12-.25-.33-.48-.64-.67-3.81 1.26-7.15 3.68-9.69 7-1.29 1.69-2.3 3.53-3.03 5.49-.34.9-.61 1.86-.82 2.83-.11.5-.2 1.02-.26 1.54-.05.38-.08.75-.11 1.12-.01.21-.04.33-.05.39l.01 1.36-.27.01-.68.27-.01-.01c-1.84-4.69-7.34-15.69-18.56-16.87-.06 0-.42-.04-.49-.55l.22-.03-.19-.33c-.09.05-.13.12-.16.17.04-.28-.03-1.33-.07-1.74-.02-.24-.03-.43-.03-.51 0-.06-.01-.2-.02-.38-.12-1.91-.08-2.31.26-2.53 5.89-3.63 12.7-5.62 19.72-5.77 3.51-.06 6.97.33 10.29 1.18l.56.14c1.19.29 2.54.61 3.65 1.24.09.05.18.1.27.16 1.44.92 1.32 2.65 1.22 4.05-.03.33-.05.66-.05.95v.43zM229.26 184.8l-.02.01c-1.14.5-2.11 1.29-2.81 2.31l-.75 1.1-.16-1.33c-.01-.09-.02-.2-.01-.32-.01-.1-.01-.2-.01-.29v-2.66c0-.14 0-.27.01-.42 0-.03 0-.12.02-.22l.08-.18c.8-1.17 1.92-2.09 3.23-2.66l.23.47.46.05c0 .07.01.23.02.35v1.46c.01.3.01.59 0 .89v.43c.01.65.02.87-.29 1.01z"/>
  <path d="m251.94 189.23.01-.01v-.02c-.01.01-.01.02-.01.03zM202.76 147.47c0 3.1-2.51 5.62-5.61 5.62-3.1 0-5.61-2.52-5.61-5.62 0-3.09 2.51-5.61 5.61-5.61 3.1 0 5.61 2.52 5.61 5.61z"/>
  <path d="M227.33 153.15c-5.29-12.58-15.15-23.21-27.03-29.16-5.18-2.6-13-5.23-20.83-2.98-6.67 1.93-11.37 6.87-12.89 13.54-.83 3.71-.73 7.6-.63 11.36l.01.4c.04 1.77.2 3.56.49 5.48.14.91.3 1.82.49 2.8.03.17.06.37.12.56l.21.68.41-.04.42-.1.04-.4c.01-.06.01-.15.05-.27.11-.44.17-.89.23-1.32.04-.22.07-.44.1-.65.15-.87.08-1.77.01-2.63-.04-.5-.08-.98-.08-1.44 0-.32.02-.63.07-.93l-.49-.09-.4-.07c-.01-.1-.03-.2-.05-.29-.24-1.46-.42-2.94-.53-4.34.05-.74.14-1.48.26-2.21.25-1.51.64-2.95 1.17-4.27 2.12-5.23 7.01-9.06 13.09-10.24.47-.09.93-.16 1.37-.22-.11 5.85.19 10.91.9 15.46 1.12 7.21 2.9 13.09 5.44 17.99 2.98 5.78 7.4 9.58 12.43 10.68.9.2 1.79.3 2.68.3 4.16 0 8.16-2.16 11.47-6.26 2.21-2.74 3.79-5.59 4.71-8.46.7-2.21.88-4.53.88-6.78 1.94 2.93 3.6 6.05 4.96 9.29l.46-.2.46-.19c-.11-.28-.04-1.02.01-1.51.02-.31.05-.59.05-.8 0-.19.02-.43.05-.68.06-.68.13-1.44-.11-2.01zm-30.18-.06c-3.1 0-5.61-2.52-5.61-5.62 0-3.09 2.51-5.61 5.61-5.61 3.1 0 5.61 2.52 5.61 5.61 0 3.1-2.51 5.62-5.61 5.62z"/>
  <g>
    <path fill="#E67E0A" d="M373.95 209.86v.01c0 .01-.01.02-.01.02v-.03h.01zM379.55 193.87c-.32.64-.62 1.28-.92 1.92-1.43 3.06-2.69 5.85-3.86 8.53-.08.2-.17.4-.27.6-.44.97-.9 1.97-.98 3.06-.04.57-.07 1.19-.08 1.88l-29.18-.02c-11.3-5.18-23.01-10.12-34.82-14.67-7.56-2.91-15.28-5.71-22.93-8.31v-.97c0-.4 0-.81-.01-1.2 2.34-.53 4.82-.87 7.56-1.03l.01.46c0 .1 0 .21.01.31l.15 1.18.74-.92c.29-.36.59-.73.88-1.1 1.35-.04 2.82-.04 4.49 0 8.05.24 16.28 1.09 23.54 1.84 15.26 1.58 31.33 3.92 47.77 6.94 2.85.51 5.44 1.01 7.9 1.5z"/>
    <path d="M373.94 209.86v.03s.01-.01.01-.02v-.01h-.01z"/>
  </g>
  <path d="M373.95 209.86v.01c0 .01-.01.02-.01.02v-.03h.01z"/>
  <g>
    <path fill="#E67E0A" d="M196.41 192.31c-6.53 3.07-13.03 6.32-19.38 9.69-4.75 2.52-9.44 5.12-13.96 7.73h-.99c.61-1.2.99-2.5 1.11-3.89.03.08.06.17.08.25l.48-.15.48-.14c-.11-.36-.05-.97 0-1.51.03-.31.05-.6.05-.85 0-.21.02-.46.04-.71.04-.63.1-1.35-.09-1.94l-.15-.46c-.03-.12-.07-.25-.11-.38.29-.08.59-.15.88-.23l.72-.19c10.25-2.7 20.61-5.13 30.84-7.22z"/>
  </g>
  <path fill="#CB5E16" d="M431.61 149.18c-.5 2.35-1.65 4.38-3.2 6.05-2.32.16-4.63.33-6.95.51-.05-.21-.1-.42-.17-.62-.74-2.17-2.48-3.58-4.24-4.92-.93-.71-1.87-1.42-2.67-2.27-.72-.78-1.12-1.72-1.76-2.54-.49-.63-1.67-1.16-2.19-.22-.08.13-.09.26-.1.4v.04c-.01.05-.01.1-.01.15-.01.55-.01 1.09-.01 1.64 0 1.05-.17 2.26.05 3.3-.02-.08-.02-.2 0-.32-.01-.01-.01-.02 0-.02.17-.55.87-.81 1.41-.65.73.23 1.11 1.07 1.46 1.67.89 1.53 2.26 2.63 3.65 3.68.4.31.81.61 1.2.94-6.91.53-13.83 1.1-20.73 1.73-2.05.19-4.11.38-6.17.58 1.66-1.41 3.31-2.81 4.97-4.21.72-.35 1.37-.87 1.87-1.58.06-.09.02-.72.02-.74 0-.58.01-1.17.01-1.76 0-.59-.01-1.18-.01-1.77 0-.04-.01-.15-.02-.26v-.47c-.54.46-1.08.91-1.62 1.37l-.25-3.93c-.13-.69-.28-1.39-.47-2.07l-.01-.02v-.01c.01-.11.02-.21.02-.31 0-1.63.16-3.31-.56-4.8 0 0 0-.01-.01-.02-3.1-11.39-12.92-20.53-24.47-22.91 1.19-2.46 2.28-4.98 3.07-7.59.72-2.36 1.16-4.79 1.22-7.26.06-2.83.17-5.75-.29-8.56.18 1.15-.03 2.36-.07 3.55-.06-.37-.13-.76-.2-1.19v-.12c0-.21-.07-.54-.01-.73-.03.09-.05.19-.08.28-.08.28-.17.56-.26.84-.04.14-.09.29-.15.43v.01l-.27.75c-.09.24-.19.49-.29.73-.1.25-.2.49-.31.73l-.33.72c-.34.71-.71 1.41-1.12 2.09-.17.28-.35.57-.53.85-.21.33-.42.65-.65.96-.1.15-.21.3-.33.45 0 .01-.01.02-.02.03-.22.3-.45.6-.69.89-.03.05-.08.11-.13.16-.24.31-.5.61-.77.9-.02.03-.05.06-.07.08l-.3.33c-.3.32-.61.63-.92.94-.3.3-.63.6-.97.91-.34.3-.7.61-1.08.91l-.57.45c-.31.23-.63.47-.96.68-.16.12-.32.22-.49.32-2.09 1.34-4.45 2.26-6.73 1.91-.05 0-.1-.01-.15-.02.08-.95.16-1.9.26-2.85.08-.9.18-1.8.28-2.7v-.04c.17-1.48.35-2.96.56-4.44.19-1.48.42-2.96.66-4.43l.36-2.13.03-.18c.12-.7.25-1.39.38-2.08v-.02c.14-.73.28-1.46.43-2.19.14-.73.29-1.46.45-2.19.27-1.3.56-2.6.87-3.89.21-.89.42-1.77.65-2.65.18-.72.36-1.45.56-2.17.22-.86.45-1.71.69-2.56.17-.58.33-1.16.5-1.75.42-1.43.85-2.86 1.3-4.28 4.66-14.69 11.15-28.8 19.3-41.89 4.59-7.37 9.71-14.41 15.3-21.06.05-.06.08-.16.11-.29 3.05-1.3 4.64 4.25 5.22 6.22 1.24 4.22 2.42 8.46 3.52 12.71 2.24 8.59 4.22 17.24 5.94 25.94 3.41 17.32 5.78 34.84 7.09 52.44.3 4.01.54 8.03.73 12.06-.05.84-.09 1.69-.11 2.53-.04 1.57-.02 3.15.07 4.71.04.83.17 1.66.39 2.45v.01c.07 2.79.1 5.58.1 8.37 0 .19 0 2.5.03 2.5s.02-2.47.02-2.5c0-2.71-.02-5.41-.07-8.11.37 1.24.98 2.38 1.92 3.33 2.13 2.15 4.92 1.95 7.55.88-2.17 2.56-4.7 4.8-7.52 6.65-.58-.1-1.18-.14-1.78-.12-.03 0-.04.52-.04 1.23-.13.08-.27.16-.4.23-.21.11-.03 2.23-.03 2.5 0 .59 0 1.18.01 1.77 0 .09.05.71.02.73.76-.42 1.5-.87 2.22-1.35h.01c2.07.35 3.97 1.42 5.43 2.98.89.96 1.59 2.09 2.04 3.32.15.41.27.82.36 1.24z"/>
  <path fill="#FFF" d="M202.76 147.47c0 3.1-2.51 5.62-5.61 5.62-3.1 0-5.61-2.52-5.61-5.62 0-3.09 2.51-5.61 5.61-5.61 3.1 0 5.61 2.52 5.61 5.61zM305.78 147.47c0 3.1-2.51 5.62-5.61 5.62-3.1 0-5.61-2.52-5.61-5.62 0-3.09 2.51-5.61 5.61-5.61 3.1 0 5.61 2.52 5.61 5.61z"/>
</svg>
