<svg version="1.2" baseProfile="tiny" xmlns="http://www.w3.org/2000/svg" viewBox="0 0 465.6 443.2" overflow="visible" xml:space="preserve">
  <path fill="#CB5E16" d="M91.5 54.3c0 .7 0 1.4-.1 2-.1 1.3-.2 2.7-.3 4-.3 2.5-.7 4.9-1.2 7.3 0 .2-.1.4-.1.7-1.1.8-2.7.5-3.6-.4-1.2-1.1-1.9-2.8-2.4-4.3-.6-1.6-1-3.3-1.2-5 0-.2 0-.3-.1-.5 0-.3.1-.6.1-.8.1-.1.1-.2.2-.3s0-.7 0-.7v-.1c.2-.8 0-1.7 0-2.5V51.9c0-.3 0-.6.1-.9-.1.4-.1.8-.2 1.2-1.4 2.4-2.4 5.1-2.9 7.9-.6 3.2-.5 6.4-.5 9.6 0 2.7.3 5.6 1.3 8.1 0 .1 0 .1.1.2-3.2 1.1-6.2 2.5-8.8 4.6v-2c0-.6.1-1.2 0-1.8 0-.1 0-.2-.1-.2v.2c-.6.9-1-.3-1.1-.9-.2-1.1-.3-2.3-.4-3.4 0-.1 0-.4-.1-1.2 0-.4 0-.9.1-1.3.1-1.3.2-2.7.4-4 .6-5 1.4-9.9 2.1-14.8 1.4-10 2.9-19.9 4.4-29.9.4-2.5.6-5.2 1.3-7.7.3-1.1.7-2.1 1.2-3 .1-.2.7-1.1 1-1.2.1 0 .2 0 .3.1v.4c1.3 2 2 4.3 2.8 6.6.8 2.4 1.6 4.7 2.3 7.1 1.4 4.6 2.7 9.3 3.7 14.1.7 4.7 1.4 9.6 1.7 14.6 0 .4-.1 1.5-.1 1.7 0-.2 0-.6.1-1.7z"/>
  <path fill="#8093DC" d="M178.5 107.4c-1.8-.1-3.7-.1-5.5-.1-1.3 0-2.5 0-3.8-.1 1.6-.8 2.6-2.2 3.6-3.5 1-1.2 3.4-3.9 5.1-2.1.3.3.3.7.5 1 0 .3-.1.5-.1.8-.1.8 0 1.6 0 2.3 0 .6.1 1.1.2 1.7zM168.8 107.2h-5c.6-1.3 1.2-2.7 2-3.9.6-.8 1.9-2 3-1.6.4.1.7.4.8.8 0 0 .1.1.1.3v.1c-.1.5 0 1.1 0 1.7-.3.2-.7.4-1.1.5-.1-.1.2 1.5.2 2.1zM159.4 124.7c-2.4.2-5.8-.2-6.8-2.6.1-.3.2-.6.4-.9 2.1 1.1 4.2 2.3 6.4 3.5zM166.6 118.6c-.2.2-.4.5-.5.9-.7 1.3-1.2 2.7-2.4 3.7-.8.6-1.8 1.1-2.7 1.3-2.5-1.5-5-2.9-7.6-4.2.9-1.5 2.2-2.9 3.3-4.1.1-.1.2-.3.4-.4 3.2.8 6.4 1.7 9.5 2.8zM180.4 110.5c-.7 2.8-3.2 4.9-5.9 6-1.6.7-3.2.7-5 .7-.8 0-1.4.1-1.9.4-3.2-1.1-6.4-2.1-9.6-3 1.4-1.5 2.9-3 4.1-4.7.4-.5.7-1.1 1-1.6 3.6 0 7.2.1 10.8.1 1.8 0 3.6.1 5.4.1.2.3.5.6.7.8.2.5.3.9.4 1.2zM74.6 144.8l-.3 1.5c-.3 1.3-.8 2.7-1.3 3.9 0 .1-.1.2-.1.3-.2.5 0 1.3 0 1.9v.2c-1.4 1.7-4.2 2.4-6.2 2.4-3.6.1-6.9-1.3-10.2-2.6-1.5-.6-3.3-1.1-4.8-.2-1.1.6-1.8 1.6-2.3 2.7-.5 1.1-.6 2.3-.7 3.4-.3-3.9.1-7.7 1.8-11.4 1.4-3.1 3.6-5.8 6.5-7.5 4.8-2.9 10.9-3.2 15.9-.9 0 .7.1 1.4 0 1.4.1 0 .2-.1.4-.1v.6c0 .3 0 .6.1.8.2.6.6 1 .8 1.6.1.7.3 1.3.4 2z"/>
  <path fill="#E67E0A" d="m105.1 112-.9.6v2.1c-.4.1-.8.2-1.1.2-3.3.7-6.6 1.5-9.9 2.5-5.5 1.6-10.9 3.6-16.2 5.7-.1-.2-.2-.4-.4-.6-.4-.6-.7-1.2-1-1.8-.1-.3-.2-.8-.3-1.1.3-1.1.7-2.2 1.1-3.2.1-.4.2-.7.4-1.1 3.8-.7 7.7-1.3 11.6-1.8 4.3-.6 8.6-1 12.8-1.2 1.3-.2 2.6-.3 3.9-.3zM111 109.4c-.1.1-.3.2-.4.3v1.1c-2.6-.4-5.2-.2-7.8-.1-3.8.2-7.7.5-11.5 1-4.7.5-9.4 1.2-14.1 2.1.3-.8.5-1.6.7-2.4.2-.6.3-1.2.5-1.9 6-.6 12-.9 18-.9 4.8 0 9.8 0 14.6.8zM113.8 113c-.5.4-1 .8-1.5 1.1-2.3-.6-4.9-.2-7.2.4.2-.1.4-.3.6-.4V112c1.6-.1 3.3 0 4.9.2v.2h.1v-.1c1 .1 2.1.3 3.1.7zM161.5 108.4c-1.6 2-3.5 3.8-5.3 5.8-.3-.1-.5-.1-.8-.2-3.6-1-7.3-1.8-11.1-2.4-.8-.1-1.6-.3-2.4-.4v-1.1c-.6.1-1.2.4-1.7.9-2.4-.3-4.7-.3-7.1-.1-.1 0 0 1.2 0 1.2 2.2-.2 4.5-.2 6.8 0v1.7c.5-.6 1.2-1 2-1.2v-.2c3.8.5 7.6 1.4 11.2 2.3.7.2 1.4.4 2.2.6-.2.3-.5.6-.7.9-.8 1.1-1.7 2.3-2.1 3.7-1.5-.8-3.1-1.5-4.7-2.2-4.3-1.9-8.7-3.4-13.2-4.6v-.2c-.1 0-.1.1-.2.1-1.9-.5-3.8-.9-5.8-1.2.9-.9 3-.9 4-1.1 2.1-.4 4.1-.7 6.2-.9 3.8-.5 7.7-.8 11.5-1 3.8-.3 7.5-.4 11.2-.4z"/>
  <path fill="#E67E0A" d="M201.2 64.7c-2.1-10.8-4.5-21.6-7-32.3-1.3-5.3-2.6-10.6-3.9-16-.7-2.6-1.3-5.3-2.1-7.9-.3-1-.8-2.2-1.6-2.9 1.6 7.7 2 15.5 1.9 23.5-.1 9.1-1.4 18.2-4.1 26.9.2-.7 0-1.8 0-2.5 0-.4-.1-1-.1-1.5v-.2c-2.9-.6-5.7-4.2-6.9-6.6 1.2 2.4 2.8 5.6 5.7 6.2.3.1-.2 3.6 0 3.7-1.7-.3-2.9-1.6-3.9-3-1.1-1.6-2.2-3.5-2.7-5.4-.3-1-.3-1.9-.3-2.9v-2.5c-2.1 2-3.9 4.4-5.1 7.1-.4.8-.7 1.7-.9 2.5 0 .1.1.2.1.3.6 1.5 2 2.6 3.7 2.5 0 0 .1 3.8 0 3.8-.6 0-1.2-.1-1.7-.3v1.1c-2.6.1-5.1 1.3-6.8 3.3-.7.9-1.3 1.9-1.6 3 2.6-3.6 7.8-4.2 12-4.6-.1 0 .1 3.7 0 3.8-4.2.4-9.3 1-12 4.5V70.2c-.2-.5-.3-.9-.3-1.4-.3.4-.5.8-.7 1.3v-3.7c.1-.3.3-.7.5-1V63.7c0-1.6.4-3.1 1.1-4.5 1.2-2.2 3.3-3.7 5.6-4.3-.1-.2-.2-.5-.2-.8-.1-.6-.1-1.2-.1-1.9-.1-.3-.1-2.2 0-2.2 0-1 .1-2 .4-3 1.2-4.2 4.2-8.1 7.6-10.8-6.9 5.2-17.7 1.1-20.5.4-.2.1-.3.1-.5.2-.4.1-.8.1-1.3-.1 0 0-.1-.2-.1-.5-8-3.2-16.5-5.1-25.2-5.5-4.5-.2-9.2-.3-13.6.6-4 .8-7.6 2.8-11.1 5v.1s-.1 0-.1-.1c-.3.2-.7.4-1 .6.1-.1.1-.6 0-1.1-8.3-4.2-14.4-11.5-19.7-19 .4 1.3.8 2.5 1.2 3.8 2.6 8.5 4.7 17.3 5.3 26.3.6 8.3.5 16.9-1.3 25V73c-1.6 1.4-3.7.2-4.7-1.3-1.2-1.8-1.9-4-2.4-6-.5-2.3-.6-4.7-.6-7.1v-1c-1 1.8-1.8 3.8-2.3 5.8-.3 1.2-.5 2.3-.6 3.5v.8c.3 2.2.7 4.8 2 6.7 1.1 1.6 3.3 2.6 5.1 1.5-.2.1 0 2.2 0 2.5 0 .3.2 2.4 0 2.5-1.2.8-2.5.6-3.5 0-4.2 1.2-8.5 2.9-11.8 5.8 3.3-.3 6.7 0 9.9 1 .1 0 0 1.7 0 1.9 0 .2-.1 1.9 0 1.9-1.8-.6-3.7-.9-5.7-1.1 1.4 2.5 3 4.8 4.9 7 .1.1 0 .6 0 .7v4.3c-.1-.1-.2-.2-.3-.4-.3 2.1-.8 4.2-1.3 6.2.8-.1 1.6-.1 2.4-.2 5.8-.5 11.6-.7 17.4-.7 4.6 0 9.2.1 13.6 1.1.2-.2.5-.3.7-.5.2-.2.5-.3.7-.4v1.3c.5.1 1 .3 1.5.4.1 0-.1 1.2 0 1.2-.5-.2-1.1-.3-1.6-.5-.2.1-.5.2-.7.4-.4.2-.7.5-1.1.8.8.2 1.5.4 2.3.7.1 0 0 .4 0 .8.2-.2.4-.4.5-.6v2.6c-.9 1-2 1.9-3.2 2.5v-2c-1.3-.2-2.5-.1-3.8.1-1.9.3-3.8.7-5.7 1.1-3.7.8-7.4 1.8-11 2.9-4.5 1.4-8.9 3-13.3 4.8l1.5 2.1c1.7 2.2 3.7 4.2 6.4 5.1.1 0 .1.6.1 1.3.7.3 1.5.4 2.3.5 1.4.1 2.8.1 4.2.1 13-3.3 25.9-7.4 38.4-12.2l-6 1.2c-.1.2-.1.2-.3 0-1.5.3-3 .6-4.6.9-4.6.8-9.2 1.2-13.7-.2-.1 0 .1-1.2 0-1.2 4.5 1.3 9.2 1 13.7.2 1.2-.2 2.5-.5 3.8-.7-.3-.4-.5-.9-.6-1.4-.8-2.2-.9-4.6-1-6.9v-.1c-.2-.6-.3-1.4-.5-2.1-.4-1.4-.8-2.7-1.3-4-.9-2.4-2.1-4.8-3.4-7v.2c-.2-.1-.2-.3-.3-.5v-.1c0-.1-.1-.2-.1-.2-.2-.3.2-1 0-1.2 0 .1.1.2.2.3 0-.2.1-.4.2-.5.5-.5 1.3-.6 1.9-.8.7-.2 1.5-.3 2.2-.5 2.8-.4 5.7-.1 8.4.8l.3-.3c-.1.1-.1.2 0 .4.1 0 .2.1.4.1.1.1-.1 1.2 0 1.2-.2-.1-.4-.2-.7-.2-3.5 3.7-5.9 8.2-7 13.2-.1.3-.1.6-.2.8 0 .2-.1.3-.1.5v.1c.1 1.5.2 3 .6 4.4.2.9.5 1.7.9 2.5.2.4.4.7.7 1 0 .1.1.1.1.2h.2v-.5c0-.1.1-.6 0-.6.2.2.2.4.2.6v.4c2.7-.5 5.5-1.1 8.2-1.7.3-.1.6-.1 1-.2v.3c.1 0 .3.1.5.1h.1v.1c2.8.9 4.8 3.5 7.4 4.9 1.9 1 4.1 1.6 6.2 2.2 2.2.7 4.4 1.4 6.5 2 .1 0-.1 1.2 0 1.2-2.2-.7-4.5-1.4-6.8-2.1-2-.6-4.1-1.2-5.9-2.2-.4-.2-.9-.5-1.3-.8-4.7 2.6-9.4 5.1-14.2 7.3-8.8 4.2-17.8 7.8-26.9 11.2 5.1 1.6 10.2 3.1 15.4 4.3 10.4 2.3 21.5 3.1 31.7-.4 4.6-1.5 8.7-3.9 12.6-6.6 3.9-2.8 7.5-5.9 11.1-9.1-2.6-1.8-5.2-3.6-7.9-5.2-.1.1-.2.1-.3.1-2.6 1-7.7 1.2-9.3-1.7-.6-1.1-.4-2.7-.3-4-5.6-2.8-11.5-5.1-17.6-6.7v1.1c-.7.5-1.3 1-2 1.5v-2.6c.2-.1.4-.3.5-.4-1.9-.4-3.8-.8-5.7-1.1-.1 0 .1-1.2 0-1.2.3 0 .6.1.9.1 0-.2 0-.5.1-.7 0-.1 0-.2.1-.2.4-.8 1.6-.8 2.3-1 1.2-.2 2.4-.4 3.5-.6 4.6-.8 9.2-1.2 13.9-1.5 4.7-.3 9.5-.4 14.2-.4.9-1.4 1.6-2.8 2.2-4.3.6-1.4 1.5-3.3 3.2-3.7 2.4-.6 2.3 3.1 2 5.2 1.2-.8 2-1.9 2.9-3 1-1.2 3-3.7 4.8-2.5 1.3.8 1 3 1 4.3 0 .4-.4 2.2-.2 2.4v-.8c0 .2.1.4.2.6.1.2.2.3.3.5.3.5.8.9 1.1 1.4.1.1.1.2.1.3l8.7.3c.9-1.1 1.7-2.5 2.1-3.1 1.7-2.6 3.4-5.2 5-7.8 3-5 5.8-10.2 8.3-15.5-.5-5.4-1.6-11-2.7-16.5zm-93.7 39.7c-.5.7-1.4 1.4-2.4 1.1-.9-.2-1.6-1-1.9-1.9-.4-.9-.5-1.9-.5-2.9V99c0-.8 0-1.5.2-2.2.2-1 .6-2 1.2-2.8.2-.3.5-.5.8-.7v-.4c2.3.1 3.8 2.3 3.9 4.4.2 2.4.2 5.1-1.3 7.1zm4-7.2c-1-4.8-2.1-11.5-7.3-13.4-2.4-.9-4.8-.1-6.4 1.8-.8.9-1.5 2-2 3.1-.3.6-.5 1.2-.7 1.8v.1c0 .2.1.4.1.5.1.3 0 .9 0 1.2 0 .3-.1.9 0 1.2-.4-1.2-.3-2.5-.3-3.7 0-1.2.2-2.3.8-3.4.9-1.9 2.2-4.1 4.1-5.1 1.9-1 4.1-.6 5.9.5 4.1 2.6 5 8.3 5.9 12.7.1 1.1-.3 2-.1 2.7zm-5.6 26c-1.4.3-2.7.9-3.8 1.9v-1.2c1.1-1 2.4-1.6 3.8-1.9v1.2zm28-16.2c-.8.5-1.5 1-2.3 1.4v-2.6c.8-.5 1.5-1 2.3-1.4v2.6zm15.8-6.3c0 .5 0 1-.2 1.5-.3 1.1-.8 2.2-1.3 3.2-.3.5-.6 1-1 1.5-.3.4-.6.7-1.1.7-1 .1-1.7-.9-2.1-1.6-.4-.8-.6-1.7-.6-2.6 0-1.2-.1-2.6.2-3.8.2-.9.5-1.9 1-2.7.5-.8 1.4-1.5 2.4-1.2v.1c.4 0 .8.1 1.1.2.9.4 1.5 1.2 1.5 2.2.2.8.1 1.7.1 2.5zm7.6-1.4c-.6-1.5-.8-3.2-1.2-4.8-.4-1.5-.9-2.9-1.6-4.2-1.4-2.5-3.8-4.7-6.7-5.1-2.9-.5-5.4 1-7.3 3.1-.9 1.1-1.7 2.2-2.4 3.5-.5.9-1 1.9-1.4 3v2c0 .2-.1.4-.3.5.1-.1.1-.6 0-1.1v.5-1.8c.2-2.9 1.4-5.5 3.1-7.8 1.7-2.4 4.2-4.4 7.2-4.4 3.2.1 5.9 2.2 7.5 4.9.8 1.4 1.4 3 1.8 4.5.4 1.6.6 3.3 1.2 4.8.4.7-.2 1.7.1 2.4z"/>
  <path fill="#CB5E16" d="M188.5 26.3v.2c0 .6 0 1.1-.1 1.7-.3 7.8-1.7 15.5-4 22.9-.1.2-.1.5-.1.8-2.9-.6-5.7-4.2-6.9-6.6-.4-.8-.7-1.5-.9-2.3.5-1.5 1.5-2.8 2.4-4.1v-3.2c0-.1-.1-.5 0-.5-.4.5-.8 1-1.2 1.6v-.4c-6.9 5.2-17.7 1.1-20.5.4 1-.5 1.9-1.5 2.6-2.1 1.4-1.2 2.8-2.4 4.1-3.6 2.8-2.5 5.4-5.1 8-7.9 4.9-5.2 9.5-10.8 13.6-16.6.9 3.7 1.7 7.4 2.1 11.1.2 2 .4 3.9.6 5.9.2.8.3 1.7.3 2.7z"/>
  <path fill="#E67E0A" d="M205.2 158.5c-8.1-6.8-16.1-13.6-24.4-20.1-3.1-2.4-6.2-4.8-9.4-7.1v-.7c-.1.1-.3.3-.5.4-2.5-1.8-5-3.5-7.6-5.1.9-.7 1.6-1.6 2.2-2.7.7-1.5 1.4-3.2 3.2-3.4.4-.1.8 0 1.2 0 .8.3 1.6.6 2.4.8 8.9 3.2 17.6 6.7 26.4 10.3.8 4.3 1.7 8.5 2.7 12.8 1.1 4.9 2.3 9.9 3.8 14.8zM198.4 129.6l-4.9-2c-6.9-2.8-13.7-5.6-20.7-8.1.6-.1 1.1-.3 1.7-.5 1.8-.7 3.5-1.9 4.6-3.4 1-1.3 1.5-2.8 1.5-4.4 0-.8.1-1.6 0-2.4 2.4.1 4.7.2 7.1.3-.7.4-1.4.5-2.1.1.1.1 0 1.7 0 1.9 0 .2-.2 1.8 0 1.9 2 1.3 3.9-2 5-3.7l5.1.3c.6 6.6 1.5 13.3 2.7 20zM195.5 108.2c-1.4-.1-2.8-.2-4.1-.3 1.3-1.9 2.5-3.8 3.7-5.7v1.2c.1 1.6.3 3.2.4 4.8z"/>
  <path fill="#DCDCDD" d="M208.8 406.1c-1.7-1.9-4.3-2.6-6.7-2.2-3.6.5-6.4 3.1-8.7 5.6-5.3 5.7-9.7 12.2-12.9 19.3l-.3-.3c.1.1 0 1.6 0 1.9 0 .3-.2 1.7 0 1.9.1.1.2.2.3.2 0 .1 0 .2-.1.3 0-.1.1-.2.1-.2.9.7 1.9 1.4 2.8 2-21.9 5.8-45.4 4.7-66.7-3-5.3-1.9-10.5-4.3-15.5-7.1-.1-19.4-.2-38.8-.4-58.2 5.7-1.5 11.1-3.8 16.5-6 12.2-5.2 24.1-10.9 35.9-16.7 11.8-5.8 23.5-11.6 35.2-17.5.7-.2 1.4-.4 2.1-.7 5.9-2 13.2-4.4 17.8-9 .2 26.7.4 53.5.5 80.2.1 3.1.1 6.3.1 9.5zM178.7 328.2c-17.9 9-35.7 18-54 26.1-7.8 3.5-15.8 7.2-24.1 9.4-.1-12.6-.2-25.2-.2-37.9 0-3.4 0-6.7-.1-10.1 5.6 4.7 15.7 8.2 19.6 9.4 15.1 4.6 32.4 5.9 48.1 4.5 3.6-.3 7.2-.7 10.7-1.4z"/>
  <path fill="#CB5E16" d="M130.9 279c-2.3 3.2-4.8 6.3-7.4 9.2-1.6 1.8-3.3 3.6-5 5.4-.6.6-1.4 1.5-2.3 2.1-1 .2-2 .4-3 .7-.1 0-.2-.1-.3-.1v.2c-5.7 1.5-10.9 4.2-14.6 8.2-2.5 2.7-2.5 5.4-1 7.8v2c-7.6 7-15.4 14.4-19.3 24.2-.2.5-.4 1.1-.6 1.6-1.5 1.2-2.9 2.4-4.2 3.8 0-.1 0-.3.1-.4-.1.2-.1.3-.1.5-.2.2-.3.3-.4.5-.1.2-.1.8-.1 1.3-.6 2.1-1.1 4.2-1.7 6.3-.4 1.4-.8 2.9-1.2 4.3-.4 1.3-.7 2.7-1.6 3.8-1.3 1.7-3.4 2.7-4.8 4.3-.5.6-.8 1.1-.9 1.8v-.2.5c-.4.4-.8.8-1.1 1.2-.7.7-1.3 1.4-2.1 2-1.2.8-2.5 1.2-3.8.8v-2c0-.1-.1-.4 0-.5-.2.4-.4.7-.7 1.1v-1.3c-.7.1-1.3-.2-1.7-.8-.2-.3-.4-.6-.5-1v-.1c.1-1.2.3-2.5.7-3.7v-3.1c0-.2-.1-.4 0-.5-.6 2.1-.8 4.2-.8 6.4v1.3c0 1.3-.2 2.8.3 4 .1.2.2.3.3.5-1.1.6-2.4 1-3.7.8-2.2-.2-4.1-1.8-4.9-3.8 0-.5 0-1.1.1-1.7.1-2.4.2-4.7.5-7.1.4-4.4.9-8.8 1.6-13.1 1.4-8.6 3.5-17.1 6.2-25.5 1.5-4.8 3.3-9.5 5.3-14.1.1-.2.1-.5.1-.8 10.6-16.7 19.9-34.2 27.9-52.4 2.3-5.2 4.5-10.4 6.5-15.7.8 3.3 1.9 6.6 3.3 9.7 4.9 11.1 13.5 20.2 23.8 26.4 3.4 1.9 7.2 3.7 11.1 5.2z"/>
  <path fill="#8093DC" d="M206.8 305.7c-4.4-6.8-14.5-6-21.4-8.3-.1 0-.2-.1-.4-.2-2.9 7.1-5.8 14.2-8.6 21.4 1.6-.2 3.1-.5 4.6-.9v-.5c1.8-.2 3.4-1.6 3.8-3.5v-.2c0-.1 0-.2-.1-.3-.1-.4-.3-.9-.5-1.3-.5-.8-1.1-1.4-2-1.8-.1 0 0-.6 0-.6v-.6c1 .5 1.8 1.3 2.2 2.3.3.6.4 1.3.4 1.9v1.1c-.1 2.1-1.7 4-3.8 4.3v.5c-5.1 1.1-10.3 1.8-15.6 2.1-9.1.4-18.2-.5-27-2.8-6.5-1.7-13.7-4.9-16.1-11.7-.1-.4.1-.9 0-1.2 1.2 3.5 3.8 6.1 6.8 8 1.2-5.6 2.4-11.3 3.7-16.9-5.6 1.3-11.3 2-16.8 3.3-.2 0-.4.1-.6.1-.6.4-1.2.6-1.9.6-6.3 2-18.2 7.1-10.9 12.4 12.6 9.1 28 12 43.2 13.2 14.5 1.2 29.3.3 43.2-4.2 3.7-1.2 7.3-2.7 10.7-4.4 4.8-2.6 10.6-6.4 7.1-11.8zm-17 3.5c-.7 2.4-2.1 4.5-3.9 6V314.6c0-.1-.1-.6 0-.6 1.9-1.6 3.2-3.7 3.9-6-.1.2 0 .4 0 .6 0 .1.1.4 0 .6z"/>
  <path fill="#8093DC" d="M200.8 258.2v.2c-.1 1.2-.3 2.3-.7 3.4-.6 2-1.6 3.8-2.9 5.4v-.1c0-.5-.2-1.4 0-1.9-7.4 16.8-14.5 33.8-21.1 50.9-.2.5 0 1.4 0 1.9 0 .2 0 .5.1.8-7.4 1.2-14.9 1.5-22.4.8-4.5-.4-9-1.1-13.4-2.2-3.2-.8-6.4-1.8-9.3-3.3 0 0 .1-.1.1-.2 2.6-11.8 5.5-23.5 8-35.4.1-.3-.1-.5-.2-.7.6-1.7 1.2-3.3 1.8-5 .9-2.2 1.6-4.6 2.9-6.6 2.4-3.8 7.4-2.7 10 .2 2.9 3.3 3.5 7.9 5.5 11.7.9 1.7 2.4 3.8 4.5 4.2 2.1.4 3.6-1.5 4.7-3 4.9-7.1 3.9-16.3 7-24 1.4-3.5 3.6-6.8 7-8.6 3.2-1.7 7.1-1.5 10.5-.1 3.9 1.6 6.8 4.9 7.8 9 .1.6.3 1.2.3 1.8-.2.4-.2.6-.2.8z"/>
  <path fill="#CB5E16" d="M231.9 366.3c-.6 5.1-1.7 10.1-3.3 15-1.6 4.9-3.9 9.5-6.5 13.9-1.4 2.5-3 5-4.6 7.5-.8 1.2-1.5 2.5-2.4 3.7-.4.6-1.7 1.7-2 .4v-.2.1c-.1.5-.1 1.2-.1 1.8-.4-.2-.9-.5-1.3-.8-.1-8-.1-16-.2-24 4.1-3.3 7.9-6.9 11.6-10.6.4.2.9 0 .9-.5-.1-6.9-1.6-13.7-2-20.6-.4-6.5 0-13-.2-19.5 1.2.6 2.4 1 3.6 1.4 1.2.4 2.5.6 3.8.8.6.1 1.6.3 2.4.3.9 10.4 1.6 20.9.3 31.3z"/>
  <path fill="#E67E0A" d="M465.5 228.1v.8c-.1 3.2-.5 6.4-1 9.6-1.7 11-3.8 22.1-7 32.8-3 10.4-7 20.5-12.7 29.7-5.3 8.6-12.4 18-22.2 21.7-5.2 2-10.9 1.5-16.3 1.2-5-.3-10-.7-14.9-1.5-9.8-1.5-19.6-4.1-28.4-8.8-4.1-2.2-7.9-5-11.3-8.2 0-1-.1-1.9-.1-2.9-.7-11.3-3-22.5-6.9-33.1 8.4 10 19.4 17.7 31.7 22 5.5 1.9 11.5 3.4 17.3 2.8 4.3-.5 8.4-2.2 11.9-4.8 7.3-5.3 12-13.9 13.9-22.5.8-3.7 1.1-8.1 1.1-11.8v-3c-.1-5.8-1-11.6-2.4-17.3-2.8-12-7-23.6-9.9-35.6-2.9-12.1-5-24.4-6.1-36.8-.6-6.8-1.1-13.6-.5-20.4.5-5.2 1.5-10.2 3.3-15.1 3.2-9.1 8.5-17.4 15.3-24.3 6.7-6.7 15.2-12.6 24.4-15.2 4.5-1.3 9.9-1.7 13.9 1.4 1.8 1.4 3 3.3 3.7 5.4.4 1.1.6 2.3.8 3.5.1.5.1 1 .1 1.6 0 .3 0 .6-.1.9-1 11.5-5.1 22.4-8.4 33.4-1.6 5.5-3.1 11.1-4 16.8-.8 5.4-.9 10.9-.6 16.4.6 12.2 4.5 24 8.5 35.4 2.1 5.8 4.3 11.6 5.6 17.6.3 1.5.6 3.1.8 4.6.1.8.2 1.5.2 2.3 0 .2.1.6.1.9.2.1.2.3.2.5z"/>
  <path fill="#EEE6E2" d="M99.3 164.6c.5-6.2.6-12.4.1-18.6 1.2.4 2.4.7 3.5 1.1-.1 5.9-1.4 11.9-3.6 17.5z"/>
  <path fill="#6A3F24" d="M99.1 142.3c0-.3-.1-.6-.1-1 0 .4 0 .7.1 1l-1.5.6c-.4-.1-.8-.2-1.2-.4.1 0 .1.4 0 .8-2.6.9-5.2 1.9-7.7 2.8-4.9 1.8-9.9 3.4-14.8 5.1.5-1.7.8-3.4.8-5.2v-2.2c0-.9 0-1.8-.2-2.7-.1-.5-.2-.9-.3-1.4 15.9-3.1 31.6-7.4 46.9-12.8 4.5-1.6 8.9-3.2 13.3-5 .1-.1.1-.6 0-1.2 1.9.6 3.5 2.1 5.1 3.4-12.9 7.3-26.6 13-40.4 18.2z"/>
  <path fill="#EEE6E2" d="M159.8 142.8c-1.3 2.1-2.3 4.3-3.2 6.6-2.5 6-4.6 12.1-6.6 18.3-4.1 12.6-7.3 25.6-7.9 38.9-.3 6.4-.1 12.9.7 19.3-2.2 6.9-3.4 14.1-3.4 21.4 0 .5-.2 1.4-.4 2.2v-.1c-.6-2-1-4-1.4-6 .2-.4 0-1.4 0-1.9 0-.4-.2-1.5 0-1.9-1.9 3.3-3.5 6.8-4.6 10.4-.6 1.9-1.2 3.9-1.5 5.8-.2 1.6-.2 3.3-.2 4.9 0 1.6.1 3.2.7 4.7.6 1.7 1.6 3.3 2.3 4.9.9 2.1 1.6 4.3 2.1 6.6-20.6-6-38.2-21.6-43.6-42.8 0-.1-.1-.2-.1-.4s0-.3.1-.4c0 .1-.1.2-.1.3-.7-3-1.2-6.1-1.4-9.2 0-.3 0-.7-.1-1v-.3c.1-.9.1-1.7.1-2.6.1-1.6.4-3.3.7-4.9.1-.3.1-.5.1-.8 1.6-1.2 3.3-2.2 5.2-2.8.1 0 0-1.7 0-1.9 0-.2-.1-1.9 0-1.9-3.8 1.2-7.2 3.8-9.3 7.2-.6.9-1.1 1.8-1.4 2.8-.4 1.2-.3 2.6-.3 3.8v.9c-2.3-.4-4.4-1.7-5.8-3.7-.5-.7-.9-1.6-1.2-2.4-.1-.4-.2-.8-.3-1.1v-.2c.3-1.5 1.3-4 1.4-4.4 2.3-6.1 6.1-12 12.2-14.9.1 0 .1-.3.1-.7h.3c.2 0-.2-3.7 0-3.8-2.8.5-5.6.4-8.3-.4-.8-.2-1.5-.5-2.2-.9h.2c3.5-1.1 6-4.1 8.2-6.9 5.1-6.8 9.1-14.4 11-22.7 1-4.4 1.4-8.9 1.4-13.5v-.3c8.4 2.6 16.9 4.8 25.6 5.1 5.3.2 10.6-.2 15.7-1.6 4.9-1.4 9.5-3.7 13.7-6.6.3-.3.9-.7 1.5-1.1z"/>
  <path fill="#E67E0A" d="M351.7 309.1c0-.1 0-.1 0 0-.3-.3-.1-1.6-.1-1.9-.1-2.7-.4-5.4-.7-8.1-.7-5.9-1.9-11.8-3.5-17.5-1.6-5.7-3.7-11.3-6.3-16.7-2.7-3.8-5.1-7.8-7-12l-2.7-3.6c-8.2-4.6-16.5-9.1-24.9-13.3-14.9-7.6-30.1-14.7-45.6-21.2-7.1-3-14.3-5.6-21.4-8.8-6.4-2.9-12.5-6.4-17-11.9-3.9-4.5-7.1-9.6-9.7-15-2.9-6-5.2-12.4-7.2-18.8-3.7-3.1-7.5-6.3-11.2-9.4-7.4-6.1-15-12.5-23-18.2 0 .2 0 .4-.1.5-1.8 1.6-3.6 3.2-5.4 4.7 0 .4 0 .6-.1.8-4.8 3.2-7.4 8.4-9.6 13.6-4.4 10.9-8.2 22.3-11 33.8-1.4 5.9-2.5 11.9-3 17.9-.6 6.9-.5 13.7.5 20.6v.9c2.3-6.9 5.7-13.5 10.2-19.4-.2.3 0 1.5 0 1.9l.6-1.5c-.1.1 0 .4 0 .6v3.2c-.5 1.1-.8 2.2-1.1 3.4-.1.2-.1.5-.1.7v.2c.1.6 0 1.3 0 1.9V218.2c-.1-.8-.1-1.7-.1-2.5v-2.5c0-.6 0-1.3.1-1.9 0-.2 0-.4.1-.6-8.2 11.1-13.1 24.9-13.2 38.7 0 .1-.2 1-.4 1.6v2.3c-.8-2.9-1.4-5.8-1.9-8.7v-.1c-1.4 2.6-2.6 5.2-3.6 8-.5 1.5-1 3-1.4 4.6-.2.8-.4 1.7-.6 2.5 0 .2 0 .4-.1.6.5 3 2.5 5.7 3.5 8.6 1 2.8 1.7 5.8 2.3 8.7.3.1.6.2.9.2 1-2.8 2-5.6 3.1-8.4.9-2.3 1.7-5.6 4-7 1.9-1.2 4.4-.8 6.3.3 2.1 1.3 3.5 3.5 4.4 5.7 1.6 3.7 2.6 9.4 6.5 11.5 4.3 2.2 7.3-4.9 8.3-7.9 2.6-8 1.9-17.6 7.7-24.3 2.6-3 6.3-4.5 10.2-4.2 3.8.4 7.4 2.3 9.7 5.4 2 2.7 2.5 5.9 2.6 9.2.1-.1.1.5 0 .7v.6c.1-.5.2-1 .3-1.4-.1.2-.1.5-.1.7 2.5-5.2 4.4-10.6 5.7-16.2.6-2.8 1.1-5.7 1.4-8.5.1-.9.2-1.8.2-2.7 0-.3 0-.6.1-.9v-.3c0-.3-.1-1-.1-1.1 0-.3-.1-.6-.1-.8-.1-.7-.4-1.4-.7-2-2.1 2.2-4.3 4.3-6.3 6.6-.9 1-1.8 2.1-2.4 3.3-.3.6-.6 1.2-.8 1.8-.1.3-.2.7-.3 1 0 .1-.1.3-.1.4v.1c0 .5-.1 1 0 1.5-.1-1.5-.2-3.2.1-4.7.4-1.6 1.2-3.1 2.2-4.4 1.1-1.4 2.4-2.8 3.6-4.1 1.4-1.5 2.8-3 4.2-4.4-.1.1-.1.4 0 .7.9 2.3.8 4.9.8 7.4-.1 3.3-.5 6.5-1 9.8-1.2 7-3.4 13.7-6.4 20.1.1-.2.1-.5.1-.8-.1.5-.3 1-.3 1.5 0 0 0 .1.1.3.1.2.1.4.1.6.2 1.1.6 2.2 1 3.2.7 1.8 1.6 3.5 2.6 5.1 6.4 11 17 19.8 29.6 22.4v.1c2.9-4.8 6.2-9.2 10.3-13 6-5.6 13.2-9.8 21-12.2-2.5-3.4-2.7-8.8-2.4-12.8.6-7.7 6-13.6 11.1-18.7-.1.1-.1.2-.1.4.8-1.4 1.7-2.6 2.8-3.8-.2.2 0 1.6 0 1.9s.2 1.6 0 1.9c-2.2 2.4-3.9 5.2-4.8 8.4l-.6 2.4c-.1.4-.1.8-.2 1.1.1 1.4.5 2.9 1 4.2 2.2 5.5 7.7 9.7 13.8 9.6v3.8c-7.3.1-13.5-5.8-14.7-12.8-.2-1.3-.3-2.7-.3-4-.1.4-.1-1.9 0-1.5 0-1.6.1-3.2.4-4.7 0-.2.1-.4.1-.6-3.5 3.7-6.7 7.8-8.1 12.7-.2.7-.4 1.5-.5 2.3 0 .2 0 .5-.1.7.2 1.3.6 2.7 1.1 3.9 1 2.1 2.7 3.8 4.9 4.6.3-.1.5-.1.8-.2 0 0-.1.2-.1.4h.1c.2 0 .1 1.2 0 2.3v1c0 .3 0 .5.1.5-.3-.1-.6-.1-.9-.2-5.1 1.2-10 3.1-14.6 5.7-8.6 4.9-15.4 12.1-20.4 20.5-3.9 6.4-6.8 13.4-9.4 20.4.4-.5.8-1 1.3-1.4 3-3.1 6.6-5.7 10.6-7.4-.1.1 0 1.7 0 1.9s.1 1.8 0 1.9h-.1c0 .5.2 1.4 0 1.8-2.3 5.2-3.3 10.7-3.7 16.3.1-.1.2 0 .2.2.1.6 0 1.3 0 1.9 0 .3.2 1.7 0 1.9-.1.1-.3.2-.4.2 0 .7-.1 1.4-.1 2.1V335.1c-.2 0-.4.1-.6.1.4 5.3.6 10.6.7 15.9.1 12-.5 24-4.6 35.4-2.2 5.9-5.2 11.4-8.5 16.8-.9 1.4-1.8 2.9-2.7 4.3-.7 1-1.3 2.3-2.1 3.2-.2.2-.3.3-.5.4v2c-1.7-.8-3.3-2.1-5-2.8 0 .3 0 .6.1.7-.2-.3-.4-.6-.7-.9-.4-.1-.7-.2-1.1-.3 0 0-.1-.3-.1-.7-1.6-1.1-3.7-1.5-5.7-1.2-3.5.5-6.3 3.1-8.6 5.6-4.6 5-8.5 10.5-11.6 16.5 1.2.9 2.5 1.6 3.9 2.3v-.6c.6-6.9 6.6-11.2 11.9-14.7v1.8c0 .2.1 1.8 0 1.9-4.5 3-9.6 6.6-11.3 11.8 3.2 1.4 6.5 2.2 10 2.5v-3.5c2.1-3.3 4.6-6.4 7.3-9.2v3.6c-2.7 2.8-5.1 5.9-7.2 9.1 8.6.7 17.6-1.4 25.9-3.3 0 0-.1.1-.1.3 6.6-2.2 14.1 0 20.5-2.7 0-.3 0-.6.1-.6 7-4.5 13.8-9.2 20.3-14.3 21-16.2 39.6-35.3 57.9-54.4l.1-.1c3.1-3.5 5.9-7.1 8.5-11 8.4-12.6 13.4-27.1 14.6-42.1-3-8.1-7-15.7-11.2-23.2-.2-.4 0-1.4 0-1.9 0-.4.2-1.5 0-1.9 2.3 4.1 4.5 8.2 6.6 12.4 1.8 3.7 3.5 7.5 4.9 11.4v-.6.6c1.4 3.8 2.5 7.7 3.3 11.7 1.2 5.8 1.6 11.8 1.4 17.7 1.4-5.3 2.2-10.8 2.6-16.3.1-1.6.2-3.1.2-4.7V310.7c.3-.5.3-1.1.2-1.6zm-184.9-78.2c-1.1 5.9-2.4 11.6-3.7 17.4v.1-.1c-.1.4-.2.9-.3 1.4.2-.8 0-1.6-.1-2.4-1.9-5.8-2.7-11.8-2.7-17.9 0-5.6.2-11.3 2.2-16.6.5-1.3 1.1-2.6 1.9-3.8.7-1.1 1.5-2 2.8-1 1.8 1.3 1.8 3.7 1.8 5.7.1 5.7-.9 11.4-1.9 17.2zm26.8-.2c.4-.6-.4-1.9 0-2.5 1.1-1.8 1.7-3.7 2.1-5.7.1-.4.1-.8.2-1.2 0-.4.1-.8.1-1.2v-.1l-.3-3.3c-.6-4.5-1.8-8.8-1.9-13.4v-2.4c.1 5.8 2 11.3 2.2 17.1.1 4.4 0 8.9-2.4 12.7zm10.3-5.6c0-.6-.1-1.5 0-2.1v-.1c0-.2 0-.4-.1-.6-.1-.5-.1-1-.2-1.5-.2-1-.5-2-.9-3-.6-1.7-1.6-3.2-2.6-4.7-2-3.1-4.4-5.9-5.8-9.3-.3-.7.3-1.8 0-2.5 1.8 4.3 5 7.6 7.2 11.6 2.2 3.7 2.6 7.9 2.4 12.2z"/>
  <path fill="#8093DC" d="M168.6 214.7c0 .1 0 .1 0 0v.1c-.1.6-.1 1.3-.2 1.9-.2 1.4-.3 2.7-.5 4.1-.4 2.6-.8 5.1-1.3 7.7-1 5.4-2.2 10.7-3.4 16-1.6-4.7-2.6-9.6-2.9-14.6v-1.3c0-.5 0-1 .1-1.5.1-1.3.2-2.7.4-4 .4-2.4.9-4.7 1.7-6.9.4-1 .8-2 1.4-2.9.5-.8 1.1-2.3 2.3-2.2.8.1 1.6.8 2 1.5.2.4.4.8.5 1.2-.2.3-.1.6-.1.9z"/>
  <path fill="#EEE6E2" d="M235.6 313c-2.1 5.8-2.7 12-2.9 18.1-.3.1-.6.1-.9.1 0-.3-.1-.6-.1-1v1c-.8 0-1.7-.2-2.2-.3-1.3-.2-2.5-.4-3.8-.8-2.5-.7-4.9-1.9-7.1-3.3-3-2-5.5-4.5-7.4-7.5 0-2.4 0-4.7-.1-7.1 5.6-11.3-15.4-18.7-24.9-17.7 3.5-8.3 7-16.6 10.7-24.9 0 .2 0 .4-.1.5 2.1-2.4 3.4-5.4 3.8-8.5.1 5.6 3.2 11.1 6.3 15.6 4.1 5.9 9.5 10.9 15.8 14.4 3.2 1.8 6.6 3.1 10.1 3.9-1.7 3.1-3.3 6.2-4.7 9.5-2.3 5.2-4.2 10.6-6.1 16-.2.5 0 1.4 0 1.9s.2 1.4 0 1.9c.1-.4.3-.7.4-1.1V324.6v-.1c.1.2.2.5.4.2 0 0 0-.1.1-.1.1-.2 0-.4 0-.5v-.6c.2-.3.5-.6.7-.9l1.5-1.8c1-1.1 2.2-2.2 3.4-3.2 2.4-1.9 4.7-3.4 7.1-4.6z"/>
  <path d="M70.1 73.3v.4c0 .3 0 .6.1.8 0-.1 0-.5-.1-1.2zM102 124.9v.2c1.1-.9 2.4-1.6 3.8-1.9V122c-1.4.3-2.7.9-3.8 1.9v1zM111.5 94.7c-.9-4.3-1.8-10.1-5.9-12.7-1.7-1.1-4-1.5-5.9-.5-1.9 1-3.3 3.2-4.1 5.1-.5 1.1-.7 2.2-.8 3.4 0 1.2-.1 2.5.3 3.7-.1-.3 0-.9 0-1.2 0-.4.1-.9 0-1.2-.1-.2-.1-.3-.1-.5v-.2c.2-.6.4-1.2.7-1.8.5-1.1 1.2-2.2 2-3.1 1.7-1.9 4-2.7 6.4-1.8 5.2 1.9 6.3 8.6 7.3 13.4-.1-.8.3-1.7.1-2.6zM136.4 95.7v1-.5c0 .5.1 1 0 1.1.2-.1.2-.3.3-.5v-2c.3-1.1.9-2.1 1.4-3 .7-1.2 1.5-2.4 2.4-3.5 1.8-2.1 4.4-3.6 7.3-3.1 3 .5 5.3 2.6 6.7 5.1.7 1.3 1.2 2.8 1.6 4.2.4 1.6.6 3.3 1.2 4.8-.3-.7.3-1.8 0-2.5-.6-1.5-.8-3.2-1.2-4.8-.4-1.6-1-3.1-1.8-4.5-1.6-2.7-4.3-4.9-7.5-4.9-3.1-.1-5.5 2-7.2 4.4-1.7 2.3-3 4.9-3.1 7.8v.6c-.1 0-.1.1-.1.3zM146.5 100.5c-.8 0-1.4.6-1.4 1.4 0 .8.6 1.4 1.4 1.4.8 0 1.4-.6 1.4-1.4 0-.8-.6-1.4-1.4-1.4z"/>
  <path d="M104.9 92.9v.4c-.3.2-.6.4-.8.7-.7.8-1 1.8-1.2 2.8-.2.7-.2 1.5-.2 2.2v1.7c0 1 .1 2 .5 2.9.4.8 1 1.7 1.9 1.9 1 .2 1.8-.4 2.4-1.1 1.5-2 1.5-4.7 1.4-7.1-.2-2.2-1.6-4.4-4-4.4zM131.6 108.1v.4c.8-.5 1.5-1 2.3-1.4v-2.6c-.8.5-1.5.9-2.3 1.4v2.2zM167 207.9c-1.3-1-2.1-.1-2.8 1-.8 1.2-1.4 2.5-1.9 3.8-2 5.3-2.2 11-2.2 16.6 0 6.1.8 12.1 2.7 17.9.1.8.2 1.6 0 2.4.1-.5.2-.9.3-1.3v.1-.1c1.3-5.8 2.6-11.6 3.7-17.5 1-5.7 2-11.5 2-17.3-.1-1.9 0-4.3-1.8-5.6zm1.5 6c0 .2.1.5.1.8v.1c-.1.6-.1 1.3-.2 1.9-.2 1.4-.3 2.7-.5 4.1-.4 2.6-.8 5.1-1.3 7.7-1 5.4-2.2 10.7-3.4 16-1.6-4.7-2.6-9.6-2.9-14.6v-1.3c0-.5 0-1 .1-1.5.1-1.3.2-2.7.4-4 .4-2.4.9-4.7 1.7-7 .4-1 .8-2 1.4-2.9.5-.8 1.2-2.3 2.3-2.2.8.1 1.6.8 2 1.5 0 .6.1 1 .3 1.4zM194.3 201.2c.3.7-.3 1.8 0 2.5 1.4 3.4 3.8 6.3 5.8 9.3 1 1.5 1.9 3.1 2.6 4.7.4 1 .7 2 .9 3 .1.5.2 1 .2 1.5v2.8c.2-4.3-.2-8.5-2.3-12.3-2.2-3.9-5.4-7.2-7.2-11.5zM193.8 201v2.4c.1 4.5 1.3 8.9 1.9 13.4.2 1.1.2 2.2.3 3.3v.1c0 .4 0 .8-.1 1.2 0 .4-.1.8-.2 1.2-.3 2-1 3.9-2.1 5.7-.4.6.4 1.9 0 2.5 2.3-3.8 2.5-8.3 2.3-12.7-.1-5.8-2-11.4-2.1-17.1zM189.8 307.9c-.7 2.3-2.1 4.5-4 6-.1.1 0 .5 0 .6V315.1c1.9-1.6 3.2-3.7 4-6v-1.2z"/>
  <path d="M465.3 222c-.6-6.3-2.5-12.4-4.6-18.3-2.1-5.9-4.3-11.8-6.1-17.8-1.8-6-3.3-12.1-4-18.2-.4-3.3-.5-6.5-.2-9.7.2-2.9.7-5.7 1.3-8.5 2.3-11.6 6.8-22.6 9.5-34 1.2-5.1 2.1-10.2 2.1-15.4v-1.7c0-4.2-.4-8.6-3.2-11.9-6.9-8-19.7-2-26.9 2.3-8.4 4.9-15.6 11.8-21 19.9-5.5 8.3-9.2 17.8-10.4 27.6-1.4 12-.4 24.3 1 36.2 1.5 12.6 3.9 25.1 7.2 37.4 3.2 12 7.7 23.6 9.6 35.9.2 1.4.4 2.8.5 4.1.1.9.2 1.8.2 2.7 0 .4 0 .8.1 1.2v1.2-3c-.1-5.8-1-11.6-2.4-17.3-2.8-12-7-23.6-9.9-35.6-2.9-12.1-5-24.4-6.1-36.8-.6-6.8-1.1-13.6-.5-20.4.5-5.2 1.5-10.2 3.3-15.1 3.2-9.1 8.5-17.4 15.3-24.3 6.7-6.7 15.2-12.6 24.4-15.2 4.5-1.3 9.9-1.7 13.8 1.4 1.8 1.4 3 3.3 3.7 5.4.4 1.1.6 2.3.8 3.5.1.5.1 1 .1 1.5 0 .3 0 .6-.1.9-1 11.5-5.1 22.4-8.4 33.4-1.6 5.5-3.1 11.1-4 16.8-.8 5.4-.9 11-.6 16.4.6 12.2 4.5 24 8.5 35.4 2.1 5.8 4.3 11.6 5.6 17.6.3 1.5.6 3.1.8 4.7.1.8.2 1.5.2 2.3 0 .2.1.6.1.9v1.2c-.1 3.2-.5 6.4-1 9.6-1.7 11-3.8 22.1-6.9 32.8-3 10.4-7 20.5-12.7 29.7-5.3 8.6-12.4 18-22.2 21.7-5.2 2-10.8 1.5-16.3 1.2-5-.3-10-.7-14.9-1.5-9.8-1.5-19.6-4.1-28.4-8.8-4.1-2.2-7.9-5-11.3-8.2 0-1-.1-1.9-.1-2.9-.7-11.3-3-22.5-6.9-33.1 4.2 5 9 9.4 14.4 13.1.5.4 1.1.7 1.6 1.1.2.2.5.3.7.5.6.4 1.1.7 1.7 1.1l2.1 1.2c.7.4 1.4.8 2.2 1.2.7.4 1.4.7 2.2 1.1.7.3 1.5.7 2.2 1 .8.3 1.5.6 2.3.9s1.5.6 2.3.8c5.5 1.9 11.5 3.4 17.3 2.8 4.3-.5 8.4-2.2 11.9-4.8 7.3-5.3 12-13.8 13.9-22.5.8-3.7 1.1-8.1 1.1-11.8 0 1-.2 2.7-.3 3.6-.1 1.2-.3 2.4-.6 3.6-.9 4.5-2.6 8.9-4.9 13-4.5 7.7-11.7 14-20.8 15.2-5.9.8-11.9-.7-17.5-2.6-4.6-1.6-9.1-3.7-13.3-6.2-8.6-5.1-16.1-12-22-20.1-.1-.1-.1-.2-.2-.2-2-4.2-4.3-8.2-7-12 0-.1-.1-.1-.1-.2v.1c-.8-1.2-1.7-2.3-2.6-3.5v-.1c-14.5-8.2-29.4-15.8-44.5-22.9-7.6-3.6-15.2-7-22.9-10.3-7.3-3.1-14.7-5.9-22-9-6.6-2.8-13.1-6.1-18-11.3-8-8.5-12.9-19.2-16.6-30.1 1.7 1.4 3.3 2.8 5 4.2-.2-.2.2-1.1 0-1.2-1.9-1.6-3.7-3.1-5.6-4.7-3.1-9.4-5.5-19-7.4-28.7 3.7 1.5 7.3 3.1 11 4.6 7.2 3 14.4 6.1 21.5 9.4-.1-.1.2-1.2 0-1.2-10.8-4.9-21.7-9.5-32.7-14-.5-2.5-.9-5-1.3-7.4-.7-4.3-1.3-8.7-1.8-13 8 .6 16 1.4 24 2.8 8.5 1.4 16.9 3.4 25.1 6-.1 0 .1-1.2 0-1.2-15.5-4.9-31.6-7.4-47.8-8.6-.5 0-1-.1-1.4-.1-.2-2.1-.5-4.2-.6-6.4.3-.4.5-.8.8-1.3 3.2-5.3 6.2-10.8 8.8-16.5.2-.4 0-1.4 0-1.9s-.2-1.5 0-1.9c-.1.2-.2.3-.2.5.1-.9.2-1.9 0-2.8-3.8-21.7-8.5-43.3-13.9-64.7-.7-2.9-1.5-5.9-2.3-8.8-.5-1.8-1.3-4.7-3.6-4.5-.1 0 0 2.4 0 3.8-3.9 5.4-8.2 10.6-12.8 15.5-2.5 2.7-5.1 5.2-7.9 7.7-1.4 1.3-2.8 2.6-4.3 3.8-.8.7-2 2-3.1 2.3-4.2-1.7-8.6-3.1-13-4.2-4.4-1-9-1.7-13.5-1.9-4.5-.2-9.2-.3-13.6.6-4.1.9-7.7 2.9-11.2 5-5.1-2.4-9.3-5.9-13.1-9.9-3.8-4-7-8.6-10.1-13.1.1-.7.2-1.8-.1-2-.2-.2-1.5-1.3-1.7-1.3-.3 0-.8.9-1 1.2-.7 1.1-1.1 2.3-1.4 3.6-.6 2.6-.9 5.4-1.3 8.1-.9 6-1.8 12.1-2.7 18.1-.9 6-1.8 12.1-2.6 18.1-.8 5.8-1.5 11.5-1.6 17.3 0 3.3 0 6.6.5 9.9 0 .2 0 .6.2.9-1.2 1.2-2.3 2.5-3.2 4.1v3.2c0 .1.1.5 0 .5.1-.1.2-.3.2-.4v.2c2.1-.5 4.3-.7 6.5-.6v2.1c0 .2-.1.6 0 .7 1.4 2.9 3.1 5.6 5.2 8.1-.5 2.4-1 4.7-1.7 7-10.3 1-20.6 2.8-30.7 4.9-6.4 1.3-12.8 2.9-19.1 4.5-.1 0 .1 1.2 0 1.2 16.3-4.1 32.8-7.6 49.5-9.3l-1.5 4.5c-2.5.5-5 1-7.5 1.6-15.2 3.5-30 8.5-44.4 14.5-8.1 3.4-16.1 7.1-23.9 11.1-.2.1.2 1.2 0 1.2 13.9-7.1 28.2-13.4 43-18.5 10.6-3.6 21.4-6.6 32.3-8.7-.4 1.4-.4 2.8-.4 4.3 0 1.4 0 2.7.4 4-.5.2-1.1.4-1.6.7-12.5 5.4-24.7 11.7-36.2 18.9-6.5 4-12.7 8.3-18.8 12.9-.2.2.2 1.1 0 1.2 10.9-8.2 22.4-15.5 34.4-21.9 7.4-3.9 14.9-7.6 22.6-10.8.6 1.4 1.6 2.6 2.4 3.8 1.8 2.6 3.9 5.1 6.9 6.2-3.6.8-7.2 1.6-10.8 2.3 0-.2 0-.3-.1-.3-6.2-3.7-14.6-2.9-19.9 2-6.2 5.7-6.6 14.7-5.7 22.5V159.8c.1-.3.1-.6.2-1 .2-.6.4-1.2.7-1.8.5-1 1.4-1.9 2.4-2.3 1.6-.6 3.3 0 4.9.6 1.7.7 3.3 1.3 5.1 1.8 3.1.8 6.7 1 9.5-.7 1.2-.8 2.2-1.9 2.3-3.4v-.3c7.5-2.6 15-5.2 22.5-7.9v.1c0 .2 0 .3.1.3.8.3 1.7.5 2.5.8v.5c.2 1.5.3 3 .4 4.4 0 .7.1 1.4.1 2.1v2.7c0 .7-.1 1.4-.1 2.1-.1 1.6-.2 3.1-.4 4.6-.1.9 0 1.9 0 2.9-.6 1.6-1.4 3.1-2.1 4.5-1.8 3.5-4 6.8-6.3 10-2 2.7-4.3 5.4-7.5 6.7-1.1.5-2.5.7-3.8.6 0 0 0-.1-.1-.2v.2c-1.1-.1-2.1-.3-2.9-.9-.8-.5-1.4-1.4-1.7-2.5.2 1.2-.3 2.6 0 3.8.5 2.3 2.5 3.3 4.6 3.4.4 1.2 1.1 2.1 2 2.8.9.7 2 1.2 3.1 1.5 1.1.3 2.1.5 3.2.6-4.2 3.8-7 9.3-8.4 14.7-.4 1.6-.5 3.1-.6 4.6V216.4c0 1.8.1 3.5.8 5.2 1.7 3.7 5.6 5.8 9.7 5.3.2 0-.1-3.7 0-3.8h-.5v-.5c-.5.7-1.5-.2-1.8-.7-.1-.1-.1-.2-.2-.3.5-1.4 1.4-2.7 2.3-3.9.7-.9 1.6-1.8 2.5-2.5-.5 4.6-.5 9.3-.1 13.9.2 2 .4 3.9.8 5.8-3.7 9.2-7.6 18.3-12 27.3-4.3 8.9-9 17.7-14 26.3-2.9 5-5.9 10-9 14.8-.2.3-.1 1 0 1.5-6.2 15.2-10.2 31.3-11.8 47.6-.5 4.5-.7 9.1-.8 13.7v.1c-.1.4-.2.8-.6.4v-.2.2c-.2.5 0 1.3 0 1.9 0 .3-.2 1.6 0 1.9.2.2.3.2.4.1v.1c.6 2.4 2.7 4.4 5.2 4.7 1.8.2 3.6-.5 4.9-1.7v.1c1.5 1.3 3.5 1.1 5.1 0 .8-.5 1.4-1.2 2-1.9l1.4-1.4 1.1-1.1V368c.7-.7 1.5-1.2 2.1-1.7 1.7-1.3 2.9-2.6 3.6-4.6 1.5-4.5 2.5-9.2 3.7-13.8.9-1.1 2-2.1 3.1-3-.4 2.7-.6 5.4-.5 8.1.1 4.8 1.6 11.1 5.9 13.9 2.5 1.6 5.6 1.4 8.5 1.1 2.5-.2 5-.6 7.5-1.2l.3 44.7c0 4.8.1 9.5.1 14.3 0 .2 0 .4.1.5 0 .6 0 1.3.1 1.4 20.6 12.2 45.1 17.3 68.9 14.7 6.7-.8 13.3-2.1 19.8-4.1v-.3c.4-.2.8-.2 1.3-.2h.2c.4 0 .8 0 1.1-.3v-.3c3.3 1 6.8 1.4 10.3 1.4 7 0 14.3-1.6 21.1-3.1v.5c.8-.1 1.6-.3 2.4-.4 0 0 .1-.2.1-.4 7-1.8 14.9.6 21.3-3.4.1 0 .1-.5.1-.9 11.7-7.6 22.7-16.2 33.1-25.3 10.5-9.1 20.5-18.9 30.2-28.8 4.3-4.4 8.6-8.9 12.9-13.4l.1-.1c1.3-1.4 2.6-2.7 3.9-4.1.1-.1.1-.4.1-.7 8.8-11.2 15-24.3 17.7-38.4.8-4.3 1.3-8.7 1.5-13.1.1.2.1.3.2.5 1.5 4.3 2.7 8.6 3.5 13.1.4 2.4.7 4.7.9 7.1 0 .5.2 1.4.1 1.9v.6c-.1 1.4-.2 2.8-.3 4.1-.1.2-.1.5-.1.8 0 .4.1.8.1 1.2v1.7c0-.3.1-.5.1-.8 0 .3 0 .6-.1.8 2.7-9.3 3.5-19.2 3.3-28.9 14.7 14 36.4 17.6 56 18.5 5.6.3 11 .4 16.2-1.9 4.8-2.2 8.9-5.7 12.4-9.6 7.2-8.1 12.6-17.8 16.6-27.9 4.1-10.3 6.8-21 8.9-31.9 2.6-11.2 4.8-22.8 3.7-34.3zM43.8 367.9c-.1-.4-.1-.8 0-1.1v1.1zm157.5-224.2c1.2 5 2.4 9.9 3.8 14.9-8.1-6.8-16.2-13.6-24.4-20.1-3.1-2.4-6.2-4.8-9.4-7.1v-.7c-.1.1-.3.3-.5.4-2.5-1.8-5-3.5-7.6-5.1 1-.7 1.6-1.6 2.2-2.7.7-1.5 1.4-3.2 3.2-3.4h1.2c.8.3 1.6.6 2.4.8 8.9 3.2 17.6 6.7 26.4 10.3.9 4.2 1.7 8.4 2.7 12.7zm-66.6-30.9c-.1 0-.1.1-.2.1-1.9-.5-3.8-.9-5.8-1.2.9-.9 3-.9 4-1.1 2.1-.4 4.1-.7 6.2-1 3.8-.5 7.7-.8 11.5-1 3.7-.2 7.4-.3 11.1-.3-1.6 2-3.5 3.8-5.3 5.8-.3-.1-.5-.1-.8-.2-3.7-1-7.3-1.8-11-2.4-.8-.1-1.6-.3-2.5-.4V110c-.6.1-1.2.4-1.7.9-2.4-.3-4.7-.3-7.1-.1v1.2c2.2-.2 4.5-.2 6.8 0v1.7c.5-.6 1.2-1 2-1.2v-.2c3.8.5 7.6 1.4 11.2 2.3.7.2 1.5.4 2.2.5-.2.3-.5.6-.7.9-.8 1.1-1.7 2.3-2.1 3.7-1.5-.8-3.1-1.5-4.7-2.2-4.3-1.9-8.7-3.4-13.2-4.6.1 0 .1 0 .1-.1zm35.1-8.4c-.3.2-.7.4-1 .5-.2.1.1 1.7.1 2.3h-5c.6-1.3 1.2-2.7 2-3.9.6-.8 1.9-2 3-1.6.4.1.7.5.8.8 0 0 0 .1.1.3-.2.4-.1 1 0 1.6zm8.5 1.3c0 .6 0 1.2.2 1.7-1.8-.1-3.7-.1-5.5-.1-1.3 0-2.5 0-3.8-.1 1.6-.8 2.6-2.2 3.7-3.5 1-1.2 3.4-3.9 5.1-2.1.3.3.3.7.5 1 0 .3-.1.5-.1.8-.1.7-.1 1.5-.1 2.3zm-4.3 2.8c1.8 0 3.6.1 5.4.1.2.3.5.5.7.9.2.3.3.7.4 1-.7 2.8-3.2 4.9-5.9 6-1.6.6-3.2.7-5 .7-.8 0-1.4.1-1.9.4-3.2-1.1-6.4-2.1-9.6-3 1.4-1.5 2.9-3 4.1-4.7.2-.2.4-.5.5-.8.2-.3.3-.5.5-.8 3.6.1 7.2.1 10.8.2zm-21.1 12.7c2.2 1.1 4.3 2.3 6.4 3.5-2.4.2-5.8-.2-6.8-2.6.2-.3.3-.6.4-.9zm.5-1c.9-1.5 2.2-2.9 3.3-4.1.1-.1.2-.3.4-.4 3.2.9 6.4 1.9 9.5 2.9-.2.2-.4.5-.5.9-.7 1.3-1.2 2.7-2.4 3.7-.8.6-1.8 1.1-2.7 1.3-2.5-1.6-5-3-7.6-4.3zm45.1 9.4-4.9-2c-6.9-2.8-13.7-5.6-20.7-8.1.6-.1 1.1-.3 1.7-.5 1.8-.7 3.5-1.9 4.6-3.4 1-1.3 1.5-2.8 1.5-4.4 0-.8.1-1.6 0-2.4 2.4.1 4.7.2 7.1.3-.4.2-.8.4-1.1.4-.3 0-.6-.1-.9-.3.1.1 0 1.7 0 1.9 0 .2-.2 1.8 0 1.9 2 1.3 3.9-2 5-3.7l5.1.3c.4 6.6 1.3 13.3 2.6 20zm-3-21.4c-1.4-.1-2.8-.2-4.1-.3 1.3-1.9 2.5-3.8 3.7-5.7V103.4c.1 1.6.2 3.2.4 4.8zm-35.6-73.6c1.4-1.2 2.8-2.4 4.1-3.6 2.8-2.5 5.4-5.1 8-7.9 4.9-5.2 9.5-10.8 13.6-16.6 1 3.7 1.7 7.4 2.1 11.2.2 2 .4 3.9.5 5.9.1.9.1 1.9.1 2.8v1.9c-.3 7.8-1.7 15.5-4 22.9-.1.2-.1.5-.1.8-2.9-.6-5.7-4.2-6.9-6.6-.4-.8-.7-1.5-.9-2.3.5-1.5 1.5-2.8 2.5-4.1v-3.1c0-.1-.1-.5 0-.6-.4.5-.8 1.1-1.2 1.6v-.4c-6.9 5.2-17.7 1.1-20.5.4 1.1-.7 2-1.7 2.7-2.3zM70.6 77.9c-.2-1.1-.3-2.3-.4-3.4 0 .2-.1-.2-.1-.6v-1 .3c0-.4 0-.9.1-1.3.1-1.3.2-2.7.4-4 .6-5 1.4-9.9 2.1-14.8 1.5-10 2.9-19.9 4.4-29.8.4-2.5.6-5.2 1.3-7.7.3-1 .7-2.1 1.2-3 .1-.2.7-1.2 1-1.2 0 0 .2 0 .3.1v.4c1.3 2 2 4.3 2.8 6.6.8 2.4 1.6 4.7 2.3 7.1 1.4 4.6 2.7 9.3 3.7 14.1 1 4.8 1.6 9.7 1.9 14.6V56v-.4.8c-.1 1.3-.2 2.7-.3 4-.3 2.5-.7 4.9-1.2 7.3 0 .2-.1.4-.1.7-.4.3-.9.5-1.4.5-.8 0-1.6-.3-2.2-.9-1.2-1.1-1.9-2.8-2.4-4.3-.6-1.6-1-3.3-1.2-5 0-.2 0-.3-.1-.5 0-.3.1-.6.1-.8.1-.1.1-.2.2-.3.1-.1 0-.7 0-.7v-.1c.2-.8 0-1.7 0-2.5V51.9c0-.3 0-.6.1-.9-.1.4-.1.8-.2 1.2-1.4 2.4-2.4 5.1-2.9 7.9-.6 3.2-.5 6.4-.5 9.6 0 2.7.3 5.5 1.3 8.1 0 0 0 .1.1.2-3.2 1.1-6.2 2.5-8.8 4.6v-2c0-.6.1-1.2 0-1.8v-.2.2c-1 .9-1.4-.4-1.5-.9zm1.1 1.8v-.8c.1.2.1.5 0 .8zm6.2 31.8c.2-.6.3-1.2.5-1.9 6-.6 12-.9 18-1 4.8 0 9.8-.1 14.5.8-.1.1-.3.2-.4.4v1.1c-2.5-.4-5.2-.2-7.8-.1-3.8.2-7.7.5-11.5 1-4.7.5-9.4 1.2-14.1 2.1.4-.8.6-1.6.8-2.4zm32.7.8c.1 0 .1-.1.1-.1 1.1.2 2.1.4 3.1.8-.5.4-1 .8-1.5 1.1-2.3-.6-4.9-.2-7.2.4.2-.1.4-.3.6-.4V112c1.6 0 3.3 0 4.9.2v.1zm-34 10.3c-.4-.6-.7-1.2-1-1.8-.1-.3-.2-.8-.3-1.1.3-1.1.7-2.2 1.1-3.2.1-.4.2-.7.4-1.1 3.8-.7 7.7-1.3 11.6-1.8 4.3-.5 8.5-1 12.8-1.2 1.3-.1 2.6-.2 3.8-.2l-.9.6v2.2c-.4.1-.8.2-1.1.2-3.3.7-6.6 1.5-9.9 2.5-5.5 1.6-10.9 3.6-16.2 5.7 0-.5-.1-.7-.3-.8zM73 150.2c0 .1-.1.2-.1.3-.2.5 0 1.3 0 1.9v.2c-1.4 1.7-4.2 2.4-6.2 2.5-3.6.1-6.9-1.3-10.2-2.6-1.5-.6-3.3-1-4.8-.2-1.1.5-1.8 1.6-2.3 2.7-.5 1.1-.6 2.3-.7 3.5-.3-3.9.1-7.7 1.8-11.4 1.4-3 3.6-5.8 6.5-7.5 4.8-2.9 10.9-3.2 15.9-.9 0 .7.1 1.4 0 1.4.1 0 .2-.1.4-.1V141.3c.2.5.6 1 .8 1.6.2.6.4 1.2.5 1.8l-.3 1.5c-.3 1.4-.8 2.7-1.3 4zm26-7.8c-.5.2-1 .4-1.5.5-.4-.1-.8-.2-1.2-.4.1 0 .1.4 0 .8-2.6.9-5.2 1.9-7.7 2.8-4.9 1.8-9.9 3.4-14.8 5.1.5-1.7.8-3.4.8-5.2v-2.2c0-.9 0-1.8-.2-2.7-.1-.5-.2-.9-.4-1.4 15.9-3.1 31.6-7.4 46.9-12.8 4.5-1.6 8.9-3.2 13.3-5 .1-.1.1-.6 0-1.2 1.9.6 3.5 2.1 5.1 3.4-12.7 7.3-26.3 13-40.3 18.3v-1 1zm.4 1.1c9.1-3.4 18.1-7.1 26.9-11.2 4.8-2.3 9.6-4.7 14.2-7.3.4.3.8.6 1.3.8 1.9 1 3.9 1.5 5.9 2.2 2.2.7 4.5 1.4 6.8 2.1-.1 0 .1-1.2 0-1.2-2.2-.7-4.4-1.4-6.5-2-2.1-.6-4.2-1.2-6.2-2.2-2.6-1.4-4.6-4-7.4-4.9v-.1h-.1c-.2 0-.3-.1-.5-.1v-.3c-.3.1-.6.1-1 .2-2.7.5-5.5 1.1-8.2 1.7v-.4c0-.2-.1-.5-.2-.6.1.1 0 .5 0 .6v.5h-.2s-.1-.1-.1-.2c-.3-.3-.5-.7-.7-1-.4-.8-.7-1.6-.9-2.5-.3-1.4-.5-2.9-.6-4.4v-.1c0-.2.1-.3.1-.5.1-.3.1-.6.2-.8 1.1-4.9 3.5-9.5 7-13.2.2.1.5.2.7.2-.1 0 .1-1.2 0-1.2s-.2-.1-.4-.1v-.4l-.3.3c-2.7-.9-5.6-1.2-8.4-.8-.7.1-1.5.3-2.2.5-.6.2-1.5.3-1.9.8-.1.2-.2.3-.2.5 0-.1-.1-.2-.2-.3.2.3-.2 1 0 1.2 0 .1.1.2.1.2v.1c0 .2.1.4.3.5v-.2c1.3 2.2 2.5 4.5 3.4 7 .5 1.3.9 2.7 1.3 4 .2.7.2 1.4.5 2.1v.1c.1 2.3.2 4.7 1 6.9.2.5.4.9.6 1.4-1.2.2-2.5.5-3.8.7-4.6.8-9.2 1.2-13.7-.2.1 0-.1 1.2 0 1.2 4.5 1.3 9.2 1 13.7.2 1.5-.3 3-.5 4.6-.9.1.1.1.1.3 0l6-1.2c-12.6 4.8-25.4 8.9-38.4 12.2-1.4 0-2.8 0-4.2-.1-.8-.1-1.6-.2-2.3-.5.1-.7.1-1.2-.1-1.3-2.7-.9-4.7-2.9-6.4-5.1l-1.5-2.1c4.4-1.8 8.8-3.4 13.3-4.8 3.6-1.1 7.3-2.1 11-2.9 1.9-.4 3.8-.8 5.7-1.1 1.3-.2 2.6-.3 3.8-.1v2c1.2-.6 2.3-1.5 3.2-2.5v-2.2c0-.1-.1-.3 0-.4-.2.2-.4.4-.5.6 0-.3.1-.7 0-.8-.7-.3-1.5-.5-2.3-.7.4-.3.7-.5 1.1-.8.2-.1.4-.3.7-.4.5.1 1.1.3 1.6.5-.1 0 .1-1.2 0-1.2-.5-.2-1-.3-1.5-.4v-1.3c-.3.1-.5.2-.7.4-.2.2-.5.3-.7.5-4.4-1-9.1-1-13.6-1.1-5.8 0-11.6.2-17.4.7-.8.1-1.6.1-2.4.2.5-2 .9-4.1 1.3-6.2.1.1.2.3.3.4v-4.3c0-.1.1-.6 0-.7-1.9-2.1-3.5-4.5-4.9-7 1.9.1 3.8.5 5.7 1.1-.1 0 0-1.7 0-1.9 0-.2.1-1.8 0-1.9-3.2-1-6.6-1.4-9.9-1 3.3-2.9 7.6-4.6 11.8-5.8 1 .6 2.2.8 3.5 0 .2-.1 0-2.2 0-2.5 0-.3-.2-2.4 0-2.5-1.8 1.2-4 .2-5.1-1.5-1.3-1.9-1.7-4.5-2-6.7v-.8c.1-1.2.3-2.4.6-3.5.5-2 1.3-4 2.3-5.8v1c0 2.4.1 4.7.6 7.1.5 2.1 1.2 4.2 2.4 6 1 1.5 3.1 2.8 4.7 1.3.1 0 0-.8 0-.7V72c1.8-8.1 1.9-16.7 1.3-25-.7-8.9-2.7-17.7-5.3-26.3-.4-1.3-.8-2.6-1.2-3.8 5.4 7.5 11.4 14.8 19.7 19V37c.3-.2.7-.4 1-.6 0 0 .1 0 .1.1v-.1c3.5-2.2 7.1-4.1 11.1-5 4.4-.9 9.1-.8 13.6-.6 8.6.5 17.1 2.4 25.2 5.5 0 .3 0 .4.1.5.4.2.9.2 1.3.1.8.7 13 12.1 13 13.1-.1 0-.2 1.9 0 2.2 0 .6 0 1.3.1 1.9.1.3.1.5.2.8-2.3.6-4.4 2.2-5.6 4.3-.8 1.4-1.1 2.9-1.1 4.5V65.4c-.2.3-.3.6-.5 1v3.2c0 .1.1.4 0 .5.2-.5.4-.9.7-1.3.1.5.2.9.3 1.4V68.3c2.7-3.5 7.8-4.1 12-4.5.1 0-.1-3.7 0-3.8-4.2.4-9.4 1-12 4.6.3-1.1.9-2.1 1.6-3 1.7-2 4.2-3.2 6.8-3.3v-1.1c.5.2 1.1.4 1.7.3.1 0 0-3.7 0-3.8-1.6.1-3-1-3.7-2.5 0-.1-.1-.2-.1-.3.2-.9.6-1.7.9-2.5 1.2-2.7 3-5.1 5.1-7.1v2.5c0 1 .1 2 .3 2.9.6 1.9 1.6 3.7 2.7 5.4.9 1.4 2.1 2.7 3.9 3-.1-.2 1.1-2.5 1.2-3.2 0 .5.1 1.1.1 1.5 0 .7.2 1.8 0 2.5 2.7-8.7 4-17.8 4.1-26.9.1-7.9-.4-15.8-1.9-23.5.8.7 1.3 1.9 1.6 2.9.8 2.6 1.4 5.3 2.1 7.9 1.4 5.3 2.7 10.6 3.9 16 2.5 10.7 4.9 21.5 7 32.3 1.1 5.5 2.2 11.1 3.1 16.7-2.5 5.3-5.3 10.4-8.3 15.5-1.6 2.6-3.3 5.2-5 7.8-.5.7-1.2 2.1-2.1 3.1-2.9-.1-5.8-.3-8.7-.3 0-.1-.1-.2-.1-.3-.3-.5-.8-.9-1.1-1.4-.1-.2-.2-.3-.3-.5-.1-.2-.2-.4-.2-.6v.8c-.2-.2.2-2 .2-2.4 0-1.3.3-3.4-1-4.3-1.8-1.1-3.8 1.3-4.8 2.5-.9 1.1-1.7 2.2-2.9 3 .3-2.1.3-5.8-2-5.2-1.7.5-2.6 2.3-3.2 3.7-.7 1.5-1.3 3-2.2 4.3-4.7 0-9.5.1-14.2.4-4.6.3-9.3.8-13.9 1.5-1.2.2-2.4.4-3.5.6-.7.1-2 .2-2.3 1 0 .1-.1.1-.1.2 0 .2-.1.4-.1.7-.3 0-.6-.1-.9-.1.1 0-.1 1.2 0 1.2 1.9.3 3.9.7 5.7 1.1-.2.1-.4.3-.5.4V116.6c.7-.5 1.3-1 2-1.5V114c6.1 1.6 12 3.9 17.6 6.7-.1 1.2-.2 2.9.3 4 1.6 2.9 6.7 2.7 9.3 1.7.1 0 .2-.1.3-.1 2.7 1.6 5.3 3.4 7.9 5.2-3.5 3.2-7.2 6.3-11.1 9.1-3.9 2.8-8.1 5.1-12.6 6.6-10.2 3.4-21.3 2.7-31.7.4-5.6-1-10.7-2.5-15.8-4.1zm0 2.5c1.2.4 2.4.7 3.5 1.1-.1 6-1.5 12-3.7 17.5.6-6.1.7-12.4.2-18.6zm-20.6 70.7c-.1 0-.1-.2 0-.5v.5zm12.3 7.8v-1.3c.1-.9 0-1.7.1-2.6.1-1.7.4-3.3.7-4.9 0-.3.1-.5.1-.8 1.6-1.2 3.3-2.2 5.2-2.8.1 0 0-1.7 0-1.9 0-.2-.1-1.8 0-1.9-3.8 1.2-7.1 3.8-9.3 7.2-.6.9-1.1 1.8-1.4 2.8-.4 1.2-.3 2.6-.3 3.8v.9c-2.3-.4-4.4-1.7-5.8-3.7-.5-.7-.9-1.5-1.2-2.4-.1-.4-.2-.8-.3-1.1v-.2c.3-1.5 1.3-4 1.4-4.4 2.3-6.1 6.1-12 12.2-14.9.1 0 .1-.3.1-.7h.3c.2 0-.2-3.7 0-3.8-2.8.5-5.6.4-8.3-.5-.8-.2-1.5-.5-2.2-.9h.2c3.5-1.2 6-4.1 8.2-6.9 5.1-6.8 9.1-14.4 11-22.7 1-4.4 1.4-8.9 1.4-13.5v-.3c8.4 2.6 16.9 4.8 25.6 5.1 5.3.2 10.6-.2 15.7-1.6 4.9-1.4 9.5-3.7 13.7-6.5l1.8-1.2c-1.3 2.1-2.3 4.3-3.2 6.6-2.5 6-4.6 12.1-6.6 18.3-4.1 12.6-7.3 25.6-7.9 38.9-.3 6.5-.1 12.9.7 19.3-2.2 6.9-3.4 14.1-3.4 21.4 0 .5-.2 1.4-.3 2.2v-.1c-.6-2-1-4-1.4-6 .2-.4 0-1.4 0-1.8 0-.4-.2-1.5 0-1.9-1.9 3.3-3.5 6.8-4.6 10.4-.6 1.9-1.2 3.8-1.5 5.8-.2 1.6-.2 3.3-.2 4.9 0 1.6.1 3.2.7 4.7.6 1.7 1.6 3.3 2.3 4.9.9 2.1 1.6 4.3 2.1 6.6-20.6-6-38.2-21.6-43.6-42.8 0-.1-.1-.2-.1-.4s0-.3.1-.4c0 .1-.1.2-.1.3-1.2-3.1-1.7-6.1-1.9-9.2zm47.7 53.4c.6-1.7 1.2-3.3 1.8-5 .9-2.2 1.6-4.6 2.9-6.6.3-.4.6-.8.9-1.1.1-.1.2-.2.3-.2.1-.1.2-.1.3-.2.2-.1.4-.2.5-.3.3-.2.6-.3.9-.3.1 0 .2-.1.3-.1.2-.1.4-.1.6-.1.8-.1 1.7 0 2.5.3.2.1.5.2.8.3.2.1.5.2.7.4.6.3 1.1.7 1.6 1.1l.3.3.3.3c2.9 3.3 3.5 7.9 5.5 11.7.1.1.1.2.2.4.1.1.1.2.2.4.5.8 1 1.5 1.7 2.2.1.1.2.2.3.2.2.1.4.3.5.4.3.2.6.3.9.5.2.1.4.2.7.2.3.1.6.1.9 0 .4 0 .7-.2 1.1-.3l.9-.6c.1-.1.2-.2.3-.2l.5-.5c.4-.4.7-.9 1-1.3 4.9-7.1 3.9-16.3 7-24 .2-.4.4-.9.6-1.3.2-.4.4-.8.6-1.3.2-.4.5-.8.7-1.2.1-.2.2-.4.4-.5 0 0 0-.1.1-.1.1-.2.2-.3.3-.5.1-.2.2-.3.4-.5s.4-.5.6-.7l.5-.5.5-.5c.2-.2.3-.3.5-.4.2-.2.4-.3.6-.4.4-.3.8-.5 1.2-.7 3.2-1.7 7.1-1.5 10.5-.2.2.1.5.2.7.3.2.1.5.2.7.4.2.1.5.2.7.4.2.1.4.3.6.4.4.3.7.5 1 .8l.3.3.4.4.6.6c.2.2.4.4.5.7.2.2.3.5.5.7.1.2.3.4.4.6.1.1.1.2.2.4 0 .1.1.2.1.2.1.1.1.3.2.4.1.2.2.4.3.7.1.2.2.4.2.7.1.3.2.7.3 1 .2.6.3 1.2.3 1.8v.7c-.1 1.2-.3 2.3-.7 3.4-.6 2-1.6 3.8-2.9 5.4v-.1c0-.4-.2-1.1-.1-1.6v-.2c-.5 1.2-1 2.3-1.5 3.5-.7 1.6-1.4 3.1-2 4.7-1.3 3-2.5 5.9-3.8 8.9-1.2 2.7-2.3 5.5-3.5 8.2-1.8 4.2-3.5 8.5-5.2 12.7-1.7 4.3-3.4 8.5-5.1 12.8-.2.5 0 1.4 0 1.9 0 .2 0 .5.1.8-4.8.8-9.7 1.2-14.6 1.2-2.6 0-5.2-.1-7.8-.3-4.5-.4-9-1.1-13.4-2.2-3.2-.8-6.4-1.8-9.3-3.3 0-.1 0-.1.1-.2 2.6-11.8 5.5-23.5 8-35.4.1-.4 0-.7-.2-.8zm83.4 45c0 .5.2 1.4 0 1.9.1-.4.3-.7.4-1.1V324.6v-.1c.1.2.2.5.4.2v-1.2c.2-.3.5-.6.7-.9l1.5-1.8c1-1.2 2.2-2.2 3.3-3.2 2.1-1.8 4.4-3.2 6.9-4.5-2.1 5.8-2.7 12-2.9 18.1-.3.1-.6.1-.9.1 0-.3 0-.6-.1-1v1c-.8 0-1.7-.2-2.2-.3-1.3-.2-2.5-.4-3.8-.8-2.5-.7-4.9-1.9-7.1-3.3-3-2-5.5-4.5-7.4-7.5v-7.1c.6-1.3.9-2.5.9-3.7 0-9.2-17.5-14.8-25.9-14 3.5-8.3 7-16.6 10.7-24.9 0 .2 0 .4-.1.5 2.1-2.4 3.4-5.3 3.8-8.5.1 5.6 3.2 11.1 6.3 15.6 4.1 5.9 9.5 10.9 15.8 14.4 3.2 1.8 6.6 3.1 10.2 3.9-1.7 3.1-3.3 6.2-4.7 9.5-2.3 5.2-4.2 10.6-6.2 16 .2.4.4 1.3.4 1.8zm-8.1 84.3c-.2.1-.5.1-.6-.1l-.1-.1c0-.1-.1-.1-.1-.2V406.5c-.1.5-.1 1.2-.1 1.8-.4-.2-.9-.5-1.3-.8 0-8-.1-16-.2-23.9 4.1-3.3 7.9-6.9 11.6-10.6v-.1c.4.2.9 0 .9-.5-.1-6.9-1.6-13.7-2-20.6-.4-6.5 0-13-.2-19.4 1.2.6 2.4 1 3.7 1.4 1.2.4 2.5.6 3.8.8.6.1 1.6.3 2.5.3.8 10.4 1.5 20.8.2 31.2-.6 5.1-1.7 10.1-3.3 15-1.6 4.9-3.9 9.5-6.5 13.9-1.5 2.5-3 5-4.6 7.5-.8 1.2-1.5 2.5-2.4 3.7l-.3.3-.2.2c-.1.1-.2.1-.2.2-.3.2-.5.3-.6.3zm-2.9-84.1c1.9 3 4.4 5.5 7.4 7.5.8.5 1.6 1 2.4 1.4-.9 6.6-.7 13.3-.4 19.9.2 6 .4 12.5 1.7 18.4-3.4 3.4-6.9 6.7-10.7 9.7-.1-18.9-.2-37.9-.4-56.9zm-11.1-6c-3.4 1.8-7 3.2-10.7 4.4-13.9 4.6-28.7 5.4-43.2 4.2-1.9-.2-3.8-.3-5.7-.5-.9-.1-1.9-.2-2.8-.4-5.4-.7-10.7-1.7-15.9-3.3-1.1-.3-2.2-.7-3.3-1.1-.7-.3-1.4-.5-2.2-.8-.4-.1-.7-.3-1.1-.4-1-.4-2.1-.9-3.1-1.4-.4-.2-.7-.4-1.1-.5-.4-.2-.7-.3-1-.5-1-.5-2-1.1-3-1.7-.3-.2-.7-.4-1-.6-.4-.2-.8-.5-1.2-.8-.3-.2-.5-.3-.8-.5-.3-.2-.6-.5-1-.7-.1-.1-.2-.1-.3-.2-.3-.2-.5-.4-.8-.7l-.3-.3c-1-1.1-1.2-2.3-.7-3.3.1-.2.2-.5.3-.7.1-.1.2-.3.3-.5.1-.2.3-.4.5-.6.2-.2.4-.5.7-.7.2-.2.5-.4.8-.6l.9-.6c.3-.2.6-.4 1-.6.3-.2.7-.4 1-.6.5-.3 1.1-.5 1.6-.8.2-.1.4-.2.6-.2.2-.1.4-.2.5-.2.2-.1.4-.2.5-.2.4-.2.7-.3 1.1-.4.7-.3 1.4-.5 2.1-.7l.9-.3c.7 0 1.3-.2 1.9-.6.2 0 .4-.1.6-.1 5.6-1.3 11.3-2 16.8-3.3-1.3 5.6-2.5 11.3-3.7 16.9-3.1-1.9-5.6-4.5-6.8-8 .1.4-.1.9 0 1.2 2.4 6.8 9.6 10 16.1 11.7 8.8 2.3 17.9 3.2 27 2.8 5.2-.2 10.4-.9 15.6-2.1v-.5c1.1-.2 2-.7 2.7-1.5.7-.8 1.1-1.8 1.1-2.8v-1.1c0-.6-.1-1.3-.4-1.9-.4-1-1.2-1.8-2.2-2.3v1.2c.8.4 1.5 1 2 1.8.2.4.4.8.5 1.3 0 .1.1.2.1.3v.2c-.4 1.8-2 3.2-3.8 3.5v.5c-1.5.3-3.1.6-4.6.9 2.8-7.2 5.7-14.3 8.6-21.4.1.1.2.1.3.2.3.1.5.2.8.2.3.1.6.2.9.2.6.2 1.2.3 1.8.4.3.1.6.1.9.2.9.2 1.8.3 2.8.5l1.5.3c.6.1 1.1.2 1.7.3.4.1.9.2 1.3.3.2 0 .5.1.7.2.2.1.5.1.7.2 1.2.3 2.4.8 3.4 1.3.4.2.9.4 1.2.7.2.1.4.2.6.4.2.1.4.3.6.4.2.1.4.3.5.5l.5.5.5.5.9 1.2c.2.3.4.6.5.9.2.4.3.8.5 1.2.2.7.2 1.5 0 2.1 0 .1 0 .2-.1.3-.1.4-.3.8-.5 1.2 0 .1-.1.2-.2.3-.4.6-.9 1.3-1.5 1.8l-.3.3c-.2.2-.4.3-.6.5-.1.1-.2.2-.4.3-.1.1-.2.1-.2.2-1.2 1.1-2.6 1.9-3.9 2.5zm-66.6-22.2c-1.8-.2-3.8-.3-5.8-.3-2.3 0-4.7.1-7 .4.9-1 1.9-2 2.8-3 3.3-3.8 6.4-7.7 9.2-11.8.1-.1.1-.3.1-.5 1.4.5 2.8.9 4.2 1.3-1.3 4.6-2.4 9.2-3.5 13.9zm-43.3 70.7c-2.7.2-5.7.5-8.1-.9-2.2-1.3-3.6-3.5-4.5-5.8-.5-1.2-.9-2.4-1.2-3.7l-.3-1.8c0-.3-.1-.7-.1-1 0-.1-.1-1.2-.1-1.2 0-2.3.5-4.6 1.1-6.8 2.9-2.3 6.1-4.3 8.9-6.7 4-3.4 7.1-7.7 11.6-10.5.1 12.4.2 24.8.2 37.2-2.5.6-5 1-7.5 1.2zm-11.3-26.4c2-4.4 4.9-8.3 8.1-12 3.2-3.7 6.8-7 10.4-10.3 0 2.2 0 4.4.1 6.6-2.2 1.4-4.1 3.2-5.9 5-1.8 1.8-3.6 3.8-5.6 5.5-2.3 1.9-4.8 3.5-7.1 5.2zm19.4-34.6c-.5.6-.9 1.2-1.2 1.7-.2.3-.3.6-.4.9 0 .1-.1.2-.1.2 0 .1-.1.3-.1.4-.2 1-.2 2 .1 2.9 0 .1.1.3.1.4.1.2.2.3.2.5.1.2.2.4.4.7v2c-7.6 7-15.5 14.4-19.3 24.2-.2.6-.4 1.1-.6 1.6-1.5 1.2-2.9 2.4-4.2 3.8 0-.2 0-.3.1-.4 0 .2-.1.3-.1.5-.2.2-.3.3-.4.5-.1.2-.1.8-.1 1.3-.6 2.1-1.1 4.2-1.7 6.3-.4 1.4-.8 2.9-1.2 4.3-.4 1.3-.7 2.7-1.6 3.8-1.3 1.7-3.4 2.7-4.8 4.3-.5.6-.8 1.1-.9 1.8v-.2.5c-.4.4-.8.8-1.1 1.2-.7.7-1.3 1.4-2.1 2-1.2.8-2.5 1.2-3.8.8v-2c0-.1-.1-.4 0-.6-.2.4-.4.7-.7 1.1v-1.3c-.7.1-1.3-.2-1.7-.8-.2-.3-.4-.7-.5-1v-.1c.1-1.2.3-2.5.7-3.7V359c0-.2-.1-.4 0-.5-.6 2.1-.8 4.2-.8 6.4v1.3c0 1.3-.2 2.8.3 4 .1.2.2.3.3.5-.9.5-2 .9-3.1.9h-.6c-2.2-.2-4.1-1.8-4.9-3.8 0-.5 0-1.1.1-1.7.1-2.4.2-4.7.5-7.1.4-4.4.9-8.8 1.6-13.1 1.4-8.6 3.5-17.1 6.1-25.5 1.6-4.8 3.3-9.5 5.3-14.1.1-.2.1-.5.1-.8C68.7 288.8 78 271.3 86 253.2c2.3-5.2 4.5-10.5 6.5-15.7.8 3.3 1.9 6.6 3.3 9.7 5 11 13.5 20.2 23.8 26.4 3.5 2.2 7.3 4 11.2 5.4-2.3 3.2-4.8 6.3-7.4 9.2-1.6 1.8-3.3 3.6-5 5.4l-.2.2c-.2.2-.3.4-.5.5l-.7.7c-.1.1-.2.2-.4.3-.1.1-.3.2-.4.3-1 .2-2 .4-3 .7-.1 0-.2-.1-.3-.1v.2l-2.1.6c-2.1.7-4.1 1.5-6 2.5-.3.2-.6.3-.9.5-.3.2-.5.3-.8.5l-.9.6c-.3.2-.6.4-.8.6-.3.2-.5.4-.8.6-.5.4-1 .9-1.5 1.4-.3.5-.5.7-.8.9zm2.1 21.2c0-3.4 0-6.7-.1-10.1.9.7 1.9 1.4 2.9 2.1.2.1.4.3.6.4 2.2 1.3 4.6 2.5 6.9 3.5.5.2.9.4 1.4.6.5.2.9.4 1.3.5 2.6 1 5 1.8 6.4 2.2 15.1 4.6 32.4 5.9 48 4.5 3.6-.3 7.1-.8 10.7-1.4-17.9 9-35.7 18-54 26.1-7.8 3.5-15.8 7.2-24.1 9.4.2-12.5.1-25.2 0-37.8zm16.1 105.6c-5.3-1.9-10.5-4.3-15.5-7.1-.1-19.4-.2-38.8-.4-58.2 5.7-1.5 11.1-3.8 16.5-6 12.2-5.2 24.1-10.9 35.9-16.7 11.8-5.8 23.5-11.7 35.2-17.5h.1l2.1-.6c5.9-2 13.2-4.4 17.8-9 .2 26.7.3 53.3.5 79.9v.3c0 3.2 0 6.5.1 9.7-1.6-1.8-4.2-2.5-6.7-2.2-3.6.5-6.4 3.1-8.7 5.6-5.3 5.7-9.7 12.2-12.9 19.3l-.3-.3c.2.1 0 1.6 0 1.9 0 .3-.2 1.7 0 1.9.1.1.2.2.3.2 0 .1 0 .2-.1.3 0-.1.1-.2.1-.2.9.7 1.8 1.4 2.8 2-21.9 5.6-45.5 4.5-66.8-3.3zm235.3-120.3v.7c0 1.6-.1 3.1-.2 4.7-.4 5.5-1.2 11-2.6 16.3.3-5.9-.2-12-1.4-17.7-.8-4-2-7.9-3.3-11.7v-.6.6c-1.4-3.9-3-7.7-4.8-11.4-2-4.2-4.3-8.3-6.6-12.4.2.3 0 1.5 0 1.9 0 .5-.2 1.5 0 1.9 4.2 7.5 8.2 15.1 11.2 23.2-1.2 15-6.2 29.5-14.6 42.1-2.6 3.9-5.4 7.5-8.5 11 0 0 0 .1-.1.1C302.6 379 284 398 263 414.2c-6.6 5.1-13.3 9.9-20.3 14.3-.1 0-.1.3-.1.6-.4.2-.8.3-1.2.5-.4.1-.7.2-1.1.3-2.5.6-5.2.7-7.9.8-2 0-4 0-6 .3-.4 0-.8.1-1.2.2-.2 0-.4.1-.6.1-.8.2-1.7.4-2.5.6 0-.2 0-.2.1-.3-8.3 1.9-17.4 4-25.9 3.3 2.1-3.3 4.5-6.3 7.2-9.1v-3.2c0-.1-.1-.5 0-.5-2.7 2.8-5.1 5.9-7.3 9.2-.1.1 0 .5 0 .5v3.1c-3.4-.3-6.8-1-10-2.5 1.8-5.3 6.8-8.9 11.3-11.8.2-.1 0-1.7 0-1.9v-1.8c-5.3 3.5-11.3 7.8-11.9 14.7v.6c-1.3-.6-2.6-1.4-3.9-2.3 3.1-6 7-11.6 11.6-16.5 2.3-2.5 5.1-5 8.6-5.6 2-.3 4.1 0 5.7 1.2v.7c.4.1.7.2 1.1.3.3.3.5.6.7.9-.1-.1-.1-.4-.1-.7 1.8.8 3.3 2 5 2.8v-2c.2-.1.3-.2.5-.4.8-.9 1.4-2.2 2.1-3.2.9-1.4 1.8-2.8 2.7-4.3.4-.7.8-1.3 1.2-2 .8-1.3 1.6-2.7 2.3-4.1.6-1 1.1-2.1 1.6-3.1.2-.4.4-.9.7-1.3l1.2-2.7c.2-.4.4-.9.6-1.3.3-.7.6-1.5.9-2.2 4.1-11.3 4.7-23.4 4.6-35.4-.1-5.3-.3-10.6-.7-15.9.2 0 .4 0 .6-.1v2.3-.2c0-.7 0-1.4.1-2.1.2 0 .3-.1.4-.2.2-.2 0-1.6 0-1.9 0-.6.1-1.3 0-1.9v-.1s0-.1-.1-.1h-.1c.2-2.8.5-5.6 1.1-8.3.6-2.7 1.4-5.4 2.5-8 .2-.4 0-1.3 0-1.8h.1c.1-.2 0-1.7 0-1.9s-.1-1.6 0-1.8c-.5.2-1 .5-1.5.7-1 .5-1.9 1-2.8 1.6-2.3 1.4-4.4 3.2-6.3 5.1-.5.5-.9.9-1.3 1.4.4-1.1.8-2.1 1.2-3.2.9-2.4 1.9-4.9 3-7.2.6-1.3 1.2-2.6 1.8-3.8.4-.8.8-1.7 1.3-2.5.7-1.2 1.3-2.5 2.1-3.7l2.1-3.3c.3-.4.6-.9.9-1.3 0 0 0-.1.1-.1l.9-1.2c.1-.1.1-.2.2-.3.3-.4.7-.9 1-1.3.4-.5.8-.9 1.2-1.4.4-.5.8-.9 1.2-1.4.4-.5.8-.9 1.3-1.3l1.3-1.3c.4-.4.9-.8 1.3-1.2.4-.4.8-.7 1.2-1.1.1-.1.2-.2.3-.2l1.2-.9.2-.2c.5-.3.9-.7 1.4-1 .5-.4 1-.7 1.5-1 1-.7 2.1-1.3 3.1-2 4.6-2.6 9.5-4.5 14.6-5.7.3.1.6.2.9.2 0 0-.1-.2-.1-.5.1-.1.1-.5 0-1 .1-1 .2-2.2 0-2.3h-.1v-.4c-.3.1-.5.1-.8.2-.2-.1-.3-.1-.5-.2s-.3-.2-.5-.2c-.2-.1-.3-.2-.5-.3-.1-.1-.3-.2-.4-.3-.2-.2-.4-.3-.7-.5l-.3-.3c-.4-.4-.8-.8-1.1-1.3l-.9-1.5c-.6-1.2-1-2.6-1.2-3.9 0-.3 0-.5.1-.7.1-.8.3-1.5.5-2.3 1.4-5 4.6-9 8.1-12.7 0 .2-.1.4-.1.6-.3 1.6-.4 3.1-.4 4.7-.1-.3-.1 1.9 0 1.5 0 1.3 0 2.7.3 4 1.2 7 7.4 12.9 14.7 12.8V263c-6.1.1-11.6-4.1-13.8-9.6-.5-1.3-.9-2.8-1-4.2 0-.4.1-.8.2-1.1.1-.8.3-1.6.6-2.4.9-3.1 2.6-6 4.8-8.4.2-.2 0-1.5 0-1.9s-.2-1.6 0-1.9c-1 1.2-2 2.4-2.8 3.8 0-.2 0-.3.1-.4-5.2 5.2-10.5 11.1-11.1 18.7-.1 1.6-.2 3.5 0 5.3 0 .4.1.9.2 1.3.1.5.2 1.1.3 1.6 0 .2.1.5.2.7.2.6.3 1.1.5 1.6.3.8.7 1.5 1.2 2.1-.5.2-1 .3-1.5.5s-1 .3-1.4.5c-.5.2-.9.4-1.4.6-1 .4-1.9.8-2.8 1.2-.9.4-1.8.9-2.7 1.4-.5.2-.9.5-1.3.8-.9.5-1.8 1-2.6 1.6-.4.3-.8.6-1.3.9l-1.2.9c-.8.6-1.6 1.2-2.4 1.9-.8.6-1.5 1.3-2.3 2l-1.5 1.5c-.5.5-1 1-1.4 1.5-.5.5-.9 1-1.4 1.6l-1.2 1.5-.1.1c-.4.5-.8 1-1.2 1.6-.8 1.1-1.6 2.3-2.3 3.4-.4.6-.7 1.2-1.1 1.8v-.1c-.5-.1-1.1-.2-1.6-.4-.5-.1-1.1-.3-1.6-.4-.5-.1-1-.3-1.4-.5-.1 0-.2-.1-.3-.1-.5-.2-.9-.3-1.4-.5l-1.5-.6c-.5-.2-1-.5-1.5-.7-.5-.2-.9-.5-1.4-.7-.5-.3-1-.5-1.4-.8-.3-.2-.7-.4-1-.6-1-.6-2-1.3-3-2-.3-.2-.6-.5-1-.7l-1.8-1.5c-.6-.5-1.2-1.1-1.8-1.6-.3-.3-.6-.6-.9-.8-.4-.4-.8-.8-1.1-1.2-.3-.4-.7-.7-1-1.1l-.3-.3c-.3-.3-.6-.7-.9-1-.3-.4-.7-.8-1-1.2l-.1-.1c-.3-.4-.6-.8-.9-1.3-.4-.5-.7-1-1.1-1.5-.2-.4-.4-.7-.7-1.1-.3-.5-.6-1-.9-1.6-1-1.6-1.9-3.3-2.6-5.1-.4-1-.8-2.1-1-3.2 0-.2-.1-.4-.1-.7 0-.2-.1-.2-.1-.3 0-.5.2-1 .3-1.5 0 .3 0 .6-.1.8 3.1-6.4 5.3-13.1 6.5-20.1.5-3.2.9-6.5 1-9.8.1-2.5.2-5.1-.8-7.4v-.4c0-.2 0-.3.1-.3-1.4 1.5-2.8 3-4.2 4.4-1.2 1.3-2.5 2.6-3.6 4-1 1.3-1.8 2.8-2.2 4.4-.3 1.5-.2 3.2-.1 4.7V239c0-.2.1-.3.1-.5.1-.3.2-.7.3-1 .2-.6.5-1.2.8-1.8.7-1.2 1.5-2.3 2.4-3.3 2-2.3 4.2-4.4 6.3-6.6.3.7.5 1.3.7 2 .1.3.1.6.2.8 0 .1 0 .8.1 1.1v1.2c-.1.9-.1 1.8-.2 2.7-.3 2.9-.8 5.7-1.4 8.5-1.3 5.6-3.2 11-5.7 16.2v-.7c-.1.4-.2.9-.3 1.3V257.6c-.1-3.3-.6-6.4-2.6-9.2-.3-.4-.6-.7-.9-1.1l-.5-.5-.5-.5c-.2-.2-.4-.3-.6-.5-.2-.1-.3-.2-.5-.3l-.2-.2c-.3-.2-.6-.4-1-.6h-.1l-.6-.3c-.2-.1-.4-.2-.7-.3-.4-.2-.9-.4-1.3-.5-.9-.3-1.8-.5-2.8-.6-1.3-.1-2.5 0-3.7.2-.6.1-1.2.3-1.8.6-.2.1-.4.2-.6.2l-.6.3c-.2.1-.4.2-.5.3-.4.2-.7.5-1.1.7-.2.1-.3.3-.5.4-.1.1-.3.2-.4.4-.2.2-.4.3-.5.5l-.5.5c-5.8 6.7-5 16.3-7.7 24.3-.2.6-.5 1.3-.8 2.1 0 .1-.1.2-.1.3-.2.5-.4.9-.7 1.4-.1.1-.1.2-.2.4-.2.3-.3.6-.5.9-.1.2-.2.3-.3.4-.1.2-.2.3-.3.4-.2.3-.4.5-.6.8-.5.5-1 .9-1.5 1.2-.4.2-.8.3-1.2.4-.7.1-1.3 0-2-.4-.2-.1-.4-.2-.5-.3-.2-.1-.3-.2-.5-.3-.2-.1-.3-.3-.5-.4-.2-.1-.3-.3-.4-.4-.2-.2-.4-.4-.5-.6-.2-.3-.5-.7-.7-1-.4-.6-.7-1.2-1-1.9-.3-.8-.7-1.6-.9-2.5-.2-.5-.4-1.1-.6-1.6-.2-.5-.4-1.1-.6-1.5-.1-.2-.2-.5-.3-.7-.1-.3-.2-.6-.4-.8-.1-.2-.2-.4-.3-.7-.2-.3-.4-.7-.6-1-.1-.2-.3-.4-.4-.6l-.9-1.2-.3-.3c-.4-.4-.9-.8-1.5-1.1-1.8-1.1-4.4-1.5-6.3-.3-.1.1-.3.2-.4.3-.1.1-.3.2-.4.3-.6.6-1.1 1.4-1.6 2.2-.2.4-.4.9-.6 1.3-.1.3-.3.7-.4 1l-.3.9c-.1.4-.2.7-.4 1-1.1 2.8-2.1 5.6-3.1 8.4-.3-.1-.6-.1-.8-.2-.6-2.9-1.3-5.9-2.3-8.7-1-2.9-3-5.5-3.5-8.6 0-.2 0-.4.1-.6.1-.8.3-1.7.5-2.5.4-1.5.9-3.1 1.4-4.6 1-2.8 2.2-5.4 3.6-8v.1c.5 2.9 1.1 5.8 1.9 8.7v-2.3c.1-.3.2-.7.2-1 .1-.3.1-.6.1-.6.1-13.8 5-27.6 13.2-38.7 0 .2 0 .4-.1.6-.1.6-.1 1.3-.1 1.9v2.5c0 .8 0 1.7.1 2.5V216.3c0-.6.1-1.3 0-1.9v-.2c0-.2.1-.5.1-.7.2-1.2.6-2.3 1-3.4V207c0-.1-.1-.4 0-.5l-.6 1.5c0-.4-.2-1.6 0-1.9-4.5 5.9-7.9 12.5-10.2 19.4v-.9c-1-6.8-1.1-13.7-.5-20.5.6-6 1.6-12 3-17.9 2.7-11.5 6.5-22.8 11-33.8 2.1-5.2 4.8-10.4 9.6-13.6.1-.1.1-.4.1-.8 1.8-1.5 3.6-3.1 5.4-4.7.1 0 .1-.3.1-.5 8 5.7 15.6 12 23 18.2 3.8 3.1 7.5 6.3 11.2 9.4 2 6.5 4.3 12.8 7.2 18.8 2.6 5.4 5.8 10.4 9.7 15 4.5 5.4 10.7 9 17 11.9 7 3.2 14.3 5.8 21.3 8.8 15.5 6.5 30.7 13.6 45.6 21.2 8.4 4.3 16.7 8.7 24.9 13.3l2.7 3.6c1.9 4.2 4.3 8.2 7 12 2.6 5.4 4.7 11 6.3 16.7 1.6 5.7 2.8 11.6 3.5 17.5.3 2.7.6 5.4.7 8.1 0 .3-.2 1.6 0 1.9l.1.1c0 .6 0 1.1.1 1.7-.2-.1-.2-.1-.2.1z"/>
  <path d="M149.7 98.2c-.1-1-.6-1.8-1.5-2.2-.4-.2-.8-.2-1.1-.2v-.1c-1-.4-1.9.4-2.4 1.2-.5.8-.9 1.7-1 2.7-.2 1.2-.2 2.5-.2 3.8 0 .9.2 1.8.6 2.6.4.8 1.2 1.7 2.1 1.6.5 0 .8-.4 1.1-.7.4-.5.7-1 1-1.5.6-1 1.1-2 1.3-3.2.1-.5.2-1 .2-1.5-.1-.8 0-1.7-.1-2.5zm-3.2 5.1c-.8 0-1.4-.6-1.4-1.4 0-.8.6-1.4 1.4-1.4.8 0 1.4.6 1.4 1.4 0 .8-.6 1.4-1.4 1.4zM15.40156 93.78988 43.663 88.243l.15408.78504-28.26144 5.54688zM22.2436 64.9487l.35-.6062 25.7202 14.85-.35.6062zM50.58641 53.33717l.68593-.13958 3.40974 16.75629-.68593.13958z"/>
  <circle fill="#FFF" cx="105.7" cy="99.7" r="1.4"/>
  <path fill="#FFF" d="M147.9 101.9c0 .8-.6 1.4-1.4 1.4-.8 0-1.4-.6-1.4-1.4 0-.8.6-1.4 1.4-1.4.8 0 1.4.6 1.4 1.4z"/>
</svg>
