<svg id="Слой_1" data-name="Слой 1" xmlns="http://www.w3.org/2000/svg" viewBox="0 0 516.28 457.33">
  <defs>
    <style>
      .cls-1{fill:#cb601a}.cls-2{fill:#e77e10}.cls-3{fill:#f0e8e3}.cls-4{fill:#ef85ac}.cls-6{fill:none}.cls-8{fill:#fff}
    </style>
  </defs>
  <g id="Слой_2" data-name="Слой 2">
    <path d="M306.67 203.37a11.59 11.59 0 0 1-.43 3.47c-.9 2.89-2 5.72-2.77 8.63a112 112 0 0 0-3.47 18.42c.13-1.23-.12-2.51 0-3.75a113.75 113.75 0 0 1 2.59-15c.62-2.51 1.32-5 2.1-7.45.38-1.19.79-2.38 1.21-3.56.15-.44.31-.89.44-1.35-.08-1.05.39-2.26.09-3.23a12.93 12.93 0 0 1 .24 3.82ZM409.46 400.36a9 9 0 0 0 0 1.87l-5.74-3.61c-1.81-1.14-3.6-2.4-5.52-3.37a10.07 10.07 0 0 0-10.58.65c.17-.12 0-1.64 0-1.87s-.16-1.75 0-1.88a10.07 10.07 0 0 1 10.58-.65c1.92 1 3.71 2.23 5.52 3.37l5.74 3.61c.18.13 0 1.64 0 1.88ZM428.73 106.7a.77.77 0 0 1 0 .15 5.78 5.78 0 0 1-.08-1.19c0 .15.05.29.06.44s.01.4.02.6ZM414.07 59.14l-.63.18a.35.35 0 0 1 0 .06 9.43 9.43 0 0 0-1.44 1.07 7.47 7.47 0 0 0-.64.62 11.77 11.77 0 0 0-1.1 1.33v.05c-.16.24-.31.48-.45.73a.56.56 0 0 0 0 .08c-.12.21-.23.43-.33.65s-.25.56-.36.85a.59.59 0 0 0 0 .08.46.46 0 0 0 0 .08 2 2 0 0 0 0-.55v-2.66a2.76 2.76 0 0 1 0-.5c-.42.25-.83.5-1.23.78-1.77 1.25-3.57 2.87-4.1 5.05v.12c-.05.45-.49.49-.77.19a1.58 1.58 0 0 1-.21-1v-3.47c0 .38.1.71.33.81s.53.07.62-.17a.86.86 0 0 1 0-.17c.49-2.23 2.33-3.88 4.13-5.15a18.43 18.43 0 0 1 6.36-2.85c-.05 0 0 1.73 0 1.87a12.86 12.86 0 0 1-.18 1.92Z"/>
    <path d="M421.39 68.39v3.2c-1.79-2.19-4.84-1.33-7.1-.55a13.14 13.14 0 0 0 0-1.87 10.57 10.57 0 0 1 0-1.88c.5-.17 1.05-.35 1.61-.49-1.8-.79-3.72-.45-5.64 0 .06 0 0-1.72 0-1.87a14.43 14.43 0 0 1 0-1.88c2.16-.51 4.33-.88 6.32.35a21.15 21.15 0 0 1 4.81 4.44c.05.08 0 .44 0 .55ZM369.2 102.43a2.18 2.18 0 0 0-1.53.71v-1.07a1.07 1.07 0 0 1 0-.18 2.18 2.18 0 0 1 1.53-.71s.03 1.25 0 1.25ZM387.47 107.61v.89a1.15 1.15 0 0 1 0 .18l-1.78 1.46a1.15 1.15 0 0 0 0-.18v-.89a1.15 1.15 0 0 1 0-.18l1.78-1.46a1.15 1.15 0 0 0 0 .18ZM377.71 396.5a27.87 27.87 0 0 0-4.51-9.59c.2.27-.2 1 0 1.25a27.12 27.12 0 0 1 5.29 14.16 28 28 0 0 0-.78-5.82Zm0 0a27.87 27.87 0 0 0-4.51-9.59c.2.27-.2 1 0 1.25a27.12 27.12 0 0 1 5.29 14.16 28 28 0 0 0-.78-5.82Z"/>
    <path class="cls-1" d="M180.71 362.36c-3.45 1-6.89 2-10.35 3-.77-6.89-1.54-22.19 4.82-33.44l6.74-1.34a76 76 0 0 0-2 12.84 80.79 80.79 0 0 0 .79 18.94Z"/>
    <path class="cls-2" d="M215.69 425.27c0 .33-.07.66-.12 1a19.4 19.4 0 0 1-.82 3.19 22 22 0 0 1-3.08 5.8 29 29 0 0 1-10 8.51c-9.58 5-20.94 5.71-31.51 6.78a600.12 600.12 0 0 1-69.92 3c-19.67-.32-40.23-.71-58.95-7.45a65.05 65.05 0 0 1-23.92-14.7 83.85 83.85 0 0 1-10-12.17C4.45 415 1.89 410.41.76 405.39A25.69 25.69 0 0 1 .24 402l-.06-.39c.07-.69.1-1.38.19-2.06A32.55 32.55 0 0 1 2 392.67a40.54 40.54 0 0 1 7.22-12.51c6.55-7.82 15.34-13.32 24.2-18.16 9.77-5.34 19.82-9.91 30.76-12.27s22.43-3.15 33.66-4.55c23.2-2.89 46.2-7.15 69.13-11.67l8.19-1.63c-6.36 11.25-5.59 26.55-4.82 33.44q-26.82 7.6-53.94 14.15-7.67 1.86-15.35 3.61a224.4 224.4 0 0 0-38 9.54q-7.62 2.64-15 5.82a9 9 0 0 0 0 1.88 10.72 10.72 0 0 1 0 1.87 224.19 224.19 0 0 1 49.75-14.81c0 .13 0 .21-.06.22 1.08-.24 2.14-.5 3.22-.75q4.53-.74 9.11-1.28a222.83 222.83 0 0 1 32.36-1.52 175.61 175.61 0 0 1 32.43 3.35 57 57 0 0 1 25.77 12.74 54.78 54.78 0 0 1 9.23 10.41c2.83 4.17 5.18 8.88 5.8 13.94.02.2.02.51.03.78Z"/>
    <path class="cls-1" d="M382.13 394.67c-.51-1.58-1-3.16-1.67-4.7a10 10 0 0 0-4-5 11.8 11.8 0 0 0-11.31 0v.33c.07.8.13 1.6.2 2.41a6 6 0 0 0 .1 1.2c.18.51-.11.27.38.61.85.58 2 .89 2.9 1.43a21.47 21.47 0 0 1 9.77 13.42 17.27 17.27 0 0 1 .36 2.25 21.71 21.71 0 0 1 .66-7.21 13.61 13.61 0 0 1 2.61-4.74Zm-8.93-6.51c-.2-.27.2-1 0-1.25a27 27 0 0 1 5.29 15.41 27.12 27.12 0 0 0-5.29-14.16ZM334.87 405.75a20.36 20.36 0 0 0-2.69-.55 20.86 20.86 0 0 0-9.25.85 17.84 17.84 0 0 0-.23-4c-1-5-5.19-8.16-9.54-10.11l-1-.44a7 7 0 0 0-.07-2c-.07-.22-.18-.37-.35-.37a6.09 6.09 0 0 0 0 .91c-.33.08-.78-.3-1-.74a10.4 10.4 0 0 1-.56-2.23c0-.12 0-.25.08-.37a12.48 12.48 0 0 1 .76-2.15 16.31 16.31 0 0 1 2.46-3.86 41.23 41.23 0 0 1 7.26-6.31c.18-.13 0-1.63 0-1.87v-.72c.33.92.65 1.84 1 2.75 2.75 7.74 5.66 15.43 9.07 22.91 1.19 2.75 2.51 5.63 4.06 8.3Z"/>
    <path class="cls-3" d="M320.22 370.29v.67c-2.94 2.19-5.91 4.47-8 7.56a14.18 14.18 0 0 0-2.15 5 14.52 14.52 0 0 0-.22 1.74q-.78-3.86-1.54-7.73c-1.05-5.23-2.11-10.46-3.32-15.66-2.35-10.12-5.23-20.17-9.6-29.62a89.11 89.11 0 0 0-7.81-13.61 6.41 6.41 0 0 0 0-.88c-1.32-9.26-3.2-19-8.45-26.83l.32-.25 2.19-1.79 8.78-7.16a2.59 2.59 0 0 0 0-.55v-.56c.64 2.66 1.36 5.31 2.12 7.94 4.21 14.47 9.39 28.67 14.3 42.91 4.46 12.96 8.84 25.92 13.38 38.82Z"/>
    <path class="cls-2" d="m431.92 224.77-1.71.06s-.06-3.75 0-3.75l1.58-.05a19.48 19.48 0 0 1-1.14-2.17 25.37 25.37 0 0 1-2-8.31 59.27 59.27 0 0 1 1.11-16.23 30.22 30.22 0 0 1-8.6 8.26.38.38 0 0 1-.07.22L407.33 218c-6.78 7.48-14.2 15.63-16.49 25.76-.17.72-.3 1.45-.4 2.18 0 .27-.11.62-.17 1v.22c0 .26 0 .52.09.78a16.79 16.79 0 0 0 .32 1.72 14 14 0 0 0 3.26 6.3 8.46 8.46 0 0 0 6.1 2.9 6.37 6.37 0 0 0 2.83-.7c.09-.15.17-.29.25-.45a.86.86 0 0 0 0 .33 5.58 5.58 0 0 0 2.2-2.24c-.21.4 0 1.43 0 1.88a3.42 3.42 0 0 1-2.45 4.21c-1.7 3-5.14 4.59-8.67 5.1v2.08a14 14 0 0 1-1 5 30.36 30.36 0 0 1-5.71 8.6 50.16 50.16 0 0 1-17.39 12.7q1.67 9.3 3.25 18.61 6.58 39 11.57 78.29a14.59 14.59 0 0 1 0 1.87c0 .23.15 1.77 0 1.88a13.12 13.12 0 0 0-1.6 1.27v.92c0-.2 0-.4-.05-.6a2 2 0 0 0 .05.67c-.09-.25-.17-.51-.25-.77a13.49 13.49 0 0 0-3.85 7.06c-.05.28-.09.57-.13.85a3.47 3.47 0 0 0 .43 1.66c.26.27 1.45.36 1.82.45.6.14 1.21.27 1.82.39 1.07.22 2.14.42 3.21.59l1.68.22a8.73 8.73 0 0 1 .63-3c1.22-3.14 2.59-6.24 3.88-9.36-.14.35.15.89 0 1.25l-3.09 7.45a24.76 24.76 0 0 0-1.19 3.1c-.05.18-.08.36-.12.55q3.38.45 6.77.58a45.94 45.94 0 0 1 5.76-11.9c-.2.29.19 1 0 1.25a45.58 45.58 0 0 0-5.35 10.67 74.73 74.73 0 0 0 16.92-1.32 3 3 0 0 1 0-.64c4.65-.24 6.31-6.21 7.54-9.8 6.43-18.9 6.45-39.1 6.12-58.82v-.33l-3.27.42c.13 0-.19-3.73 0-3.75l4.22-.54c-1.77-5.63-1.8-11.69-1.53-17.57.32-7 1.61-13.9 2.49-20.82q1.47-11.52 2.43-23.1a482.12 482.12 0 0 0 1.66-48.28Zm-22.46 175.59a9 9 0 0 0 0 1.87l-5.74-3.61c-1.81-1.14-3.6-2.4-5.52-3.37a10.07 10.07 0 0 0-10.58.65c.17-.12 0-1.64 0-1.87s-.16-1.75 0-1.88a10.07 10.07 0 0 1 10.58-.65c1.92 1 3.71 2.23 5.52 3.37l5.74 3.61c.18.13 0 1.64 0 1.88ZM373.46 398.54a21.12 21.12 0 0 0-5.33-4.22c-.42-.23-.85-.45-1.28-.65a7.29 7.29 0 0 1-1-.42c-.45-.29-.19.14-.38-.61a27.13 27.13 0 0 1-.35-4.34c-.08-1.07-.14-2.15-.22-3.23s0-.06 0-.13c-1.34-19.84-1.23-39.74-1.59-59.61-.16-9.11-.44-18.22-1-27.32a.1.1 0 0 0 0-.05 303.66 303.66 0 0 0-3.92-34.29c-.13-.75-.26-1.49-.4-2.24a6.89 6.89 0 0 1 0-1.87.29.29 0 0 1 0-.09c-.28-.85-.59-1.69-.9-2.54-.66-1.86-1.33-3.71-2-5.57q-2-5.7-4.07-11.39a6.16 6.16 0 0 1 0-1.87 7.41 7.41 0 0 0 0-1.88q2.67 7.48 5.35 15c.8 2.25 1.94 4.63 2.15 7 0 .29.05.58.07.88a5 5 0 0 0 2.3-1.88 5.36 5.36 0 0 0 .37-1.22 26.84 26.84 0 0 0-1.05-5.16 34.54 34.54 0 0 0-5.57-10.41c-9-11.86-22.95-18.24-32.92-29.09a40.34 40.34 0 0 1-6.19-8.66 48.89 48.89 0 0 1-4.12-12 56.22 56.22 0 0 1-1.56-11.55c0-1.77 0-3.53.1-5.27a38.35 38.35 0 0 0-2.82 9.15c-.18 1-.31 2-.41 3-.06.62-.08 1.24-.12 1.87a58.56 58.56 0 0 0 .95 6.71 9.08 9.08 0 0 1 0 1.88v1.87a37.45 37.45 0 0 1-8.21-13.34c-3.21-8.87-3.59-18.37-3.41-27.71.21-10.42 1.93-20.87 1.59-31.26l-1.5.61c-.45 3.22-2.35 6.14-4.15 8.76a25.21 25.21 0 0 1-6 6.44 10.6 10.6 0 0 1-8 2.14l-.22-.05c2.74 2.64 6.34 4.18 10.28 2.83a5.94 5.94 0 0 0 0 1.88 1.28 1.28 0 0 0 0 .19c.08.82.14 1.6 0 1.68a123.17 123.17 0 0 1-11 20.82c-7.9 11.71-19 20.34-28.84 30.28-6.9 7-13.31 15.15-16.4 24.52a37.21 37.21 0 0 1 7-8.4c-.05 0 0 .47 0 .55v2.65a3.47 3.47 0 0 1 0 .55c-.52.46-1 .94-1.51 1.43a7.18 7.18 0 0 1 0 1c-.94 7.26-4.16 13.91-8.3 19.87-7.58 10.94-18.05 19.48-25.61 30.43a53.7 53.7 0 0 0-4.94 8.62c-1.31 2.92-2.13 6-3.32 9s-2.74 5.59-5.47 7.18a8.87 8.87 0 0 1-1.24.6 18.87 18.87 0 0 0 7 1.25s.05 3.75 0 3.75q-.93 0-1.86-.06v.39c0 .42.19 1.51 0 1.87a106.94 106.94 0 0 0-9.44 20.43c-.1.31-.19.62-.29.92a6 6 0 0 1 0 2l-.66.13a77.83 77.83 0 0 0-3 15.85c-.1 1.15-.16 2.3-.2 3.45v1.45c.07 1.52.2 3 .38 4.54a63.29 63.29 0 0 0 1.18 6.55l.17-.05c-.06 0-.08.17-.08.4.11.47.22 1 .35 1.42a53.35 53.35 0 0 0 13.88 24.37 28.5 28.5 0 0 1-.75-6.3 5.76 5.76 0 0 1 0-1.68v-.81c.09-7.12 3.36-13.49 6.6-19.65-.21.4 0 1.42 0 1.87a5.63 5.63 0 0 1 0 1.88c-2.8 5.31-5.7 10.81-6.43 16.85 0 .25 0 .5-.07.75q.06.79.18 1.59a18 18 0 0 0 .95 3.54c.18.48.4.94.62 1.39a34 34 0 0 1-.14-6c0 .83.05 2 0 2.9.15-3.71.08-.6.32.54a16.71 16.71 0 0 0 .68 2.29 19.92 19.92 0 0 0 2 3.92 24.57 24.57 0 0 0 6.71 6.65c4.76 3.23 10.33 5.26 15.77 7a117.09 117.09 0 0 0 51.83 4.63 11.29 11.29 0 0 1-1.09-4.43 30.8 30.8 0 0 1 .14-5.68c1.48-9.51 12.22-13.75 20.65-14.59-.1 0 .15 3.74 0 3.75-8.35.83-19.12 5.08-20.62 14.44a10.69 10.69 0 0 0 .31 1.27 11.68 11.68 0 0 0 1 2.32 14.78 14.78 0 0 0 1.93 2.59l.46-.06s-.05.21 0 .52q.51.54 1 1a38.9 38.9 0 0 0 4.52 3.46c1.57 1.06 3.3 2.44 5.27 2.55s3.91-1.25 5.76-1.93l.27-.08c0-.42-.09-.81-.12-1.09a21.89 21.89 0 0 0-1-4.3 22.44 22.44 0 0 0-4.42-7.72c-.21-.24.2-1 0-1.25a22.3 22.3 0 0 1 5.06 10.12 23.19 23.19 0 0 1 .45 4.23 20.21 20.21 0 0 1 6-1.17 17.35 17.35 0 0 1 6.15.94l.35.12a11.44 11.44 0 0 0 1.18-7 13.2 13.2 0 0 0-3.82-7.31c-.22-.2.2-1.06 0-1.25a13.44 13.44 0 0 1 4 9.2 16.64 16.64 0 0 1-.91 6.53c1.78.62 3.63 1.23 5.51.76a15.49 15.49 0 0 0 5.15-3 17.5 17.5 0 0 0 3.91-3.82 10.33 10.33 0 0 0 1-1.75 2 2 0 0 1 .05-.75l.26-.08v-.05a5.66 5.66 0 0 0 .13-.56 11.85 11.85 0 0 0-2.34-4.79c-2.54-3.19-6.39-4.93-10.12-6.32-4.36-1.63-8.76-3.12-13.14-4.68-.41-.15.37-3.62 0-3.75 4.36 1.55 8.84 2.93 13.15 4.64-.1-.52-.21-1-.31-1.57v.4-.54c-.3-1.46-.59-2.92-.88-4.38-4.4-22.14-8.84-45.3-22.55-63.86a1.85 1.85 0 0 1-.09-1 29.91 29.91 0 0 0-18.73-11.81c-.25 0 .19-3.71 0-3.75a29.92 29.92 0 0 1 19.19 12.45 69.13 69.13 0 0 0-3.89-14.7 37.45 37.45 0 0 0-5.58-9.57h-.05c-.28.08-.42 0-.5-.21a2.54 2.54 0 0 1-.06-.5 26.19 26.19 0 0 0-14.34-8.82 29.47 29.47 0 0 0-25.62 6.67c.15-.13.07-.94 0-1.46a14.87 14.87 0 0 1-1.13 4.87 6.25 6.25 0 0 0 0-1.88 5.85 5.85 0 0 1 0-1.87 14.3 14.3 0 0 0 1-3.38c0-.17 0-.35.07-.52-.05-.45-.11-.9-.19-1.34a19 19 0 0 0-2.44-6.2 26.19 26.19 0 0 0-4.61-5.55 25.12 25.12 0 0 1 .72 6.32v.39c0 1-.06 2-.13 3a30.85 30.85 0 0 1-3.32 11.15c-1.37 2.75-3.11 6-6.44 6.63.19 0-.24-3.71 0-3.75 2.73-.49 4.41-2.84 5.66-5.13a37.14 37.14 0 0 0 3.61-8.95c.19-.79.34-1.58.45-2.38 0-.29.07-.58.1-.87a18.17 18.17 0 0 0-.79-3.71 13.52 13.52 0 0 0-4.62-6.55c-.21-.17 0-1.61 0-1.88v-1.87c4.63 3.17 9 7.21 11 12.56a21.29 21.29 0 0 1 1.21 7.75v.79a28.81 28.81 0 0 1 13.71-6.64 27.22 27.22 0 0 1 25.36 7.88c.41.44.79.89 1.17 1.35l.3.36a5.28 5.28 0 0 0 .9-.69l1.67-1.36 3.45-2.81 6.49-5.3c-.88-3.89-1.61-7.8-2.11-11.76a107.33 107.33 0 0 1-.61-19.22 63.69 63.69 0 0 1 4.11-19.77c.64-1.65 1.41-3.21 2.15-4.82.12-.27.24-.54.34-.81a19.22 19.22 0 0 1 .23-2.85c.19-.93.19-.07.24.34v.67a15.47 15.47 0 0 1-.34 5.17c0 .11-.08.21-.12.32a57.58 57.58 0 0 0 .61 10.95c.18 1.23-.17 2.53 0 3.75a86.64 86.64 0 0 1-.78-12v-2.26c-.61 1.53-1.43 3-2.06 4.51a59 59 0 0 0-3.32 11.34 71 71 0 0 0-1.18 10.88v1.25c0 .44 0 .88.05 1.32 0 1 .1 2 .18 3 .13 1.66.3 3.32.52 5a146.66 146.66 0 0 0 5 22.38c4.41 14.94 9.76 29.61 14.84 44.33s10 29.57 15.34 44.23c2.61 7.2 5.42 14.34 8.67 21.28 1.81 3.85 3.95 9.35 7.76 12 .26.1.18.14.44 0a2 2 0 0 0 .34-.42 3.85 3.85 0 0 0 .47-1 7 7 0 0 0 0 1.88v.31a8.12 8.12 0 0 0 2.51.75 2.67 2.67 0 0 1 .05 1c5.16 2.13 10.87 2.35 16.37 2.77a36.77 36.77 0 0 0 4.92.24 9.11 9.11 0 0 0 1.39-.18 19.43 19.43 0 0 0-8.42-12.53c-.2-.13.18-1.14 0-1.25a19.42 19.42 0 0 1 8.62 13.74 17.45 17.45 0 0 0 2.86-.88l3.13-1.24a21.82 21.82 0 0 0-6.74-11.3c-.08-.06 0-.52 0-.62a2.68 2.68 0 0 0 0-.63 21.76 21.76 0 0 1 7 12.45l5.49-2.18a3.38 3.38 0 0 1 .07-1v-.05c.06-.14.14-.24.26-.22s.06.28.06.68a.57.57 0 0 0 .22-.13 21.3 21.3 0 0 0-4.97-9.31Zm-66.79-195.17a11.59 11.59 0 0 1-.43 3.47c-.9 2.89-2 5.72-2.77 8.63a112 112 0 0 0-3.47 18.42c.13-1.23-.12-2.51 0-3.75a113.75 113.75 0 0 1 2.59-15c.62-2.51 1.32-5 2.1-7.45.38-1.19.79-2.38 1.21-3.56.15-.44.31-.89.44-1.35-.08-1.05.39-2.26.09-3.23a12.93 12.93 0 0 1 .24 3.82Z"/>
    <path class="cls-4" d="M366.52 126.54c-1.26-.6-2.48-1.24-3.65-1.91-3-1.68-5.65-4.16-6.44-7.51a21.65 21.65 0 0 0 5.62.35c.64 0 1.29-.11 1.95-.19a.49.49 0 0 1 0 .12q.74 3.39 1.75 6.7c.18.59.37 1.17.57 1.76.07.14.13.43.2.68ZM386.92 127.79c-.82.28-1.66.55-2.5.78-3.76 1.05-7.52 1.57-11.34.49a41.24 41.24 0 0 1-5.45-2c.06-.09.11-.19.16-.28l.68-1.28c.6-1.13 1.18-2.27 1.76-3.42.28-.57.57-1.14.85-1.72.12-.26.36-1.13.62-1.3s1.58 0 2 0h2l3.72.06 3.73.06c.78 0 2.43-.3 3 .4s.35 2.35.42 3.18l.33 3.69c0 .41-.03.92.02 1.34ZM401.11 119.61a44.42 44.42 0 0 1-12.54 7.55l2.11-2.18 5.34-5.5c.09-.1.06-.3 0-.52a39.27 39.27 0 0 0 5.09.65Z"/>
    <path d="M395.42 118.84c-1.52 1.57-3.05 3.14-4.57 4.72-.92.94-1.84 1.89-2.75 2.84l-.69.71c-.33.52-.46.47-.39-.14a5.48 5.48 0 0 1-.13-1.47l-.36-3.94c-.08-.86.08-2.29-.34-3.06s-2.25-.51-3.06-.52l-3.73-.06-3.72-.06h-2a6.35 6.35 0 0 0-1.74 0c-.73.26-1.33 2.23-1.72 3q-.81 1.62-1.65 3.21l-.79 1.49-.46.84c-.17.57-.3.56-.39 0a6.78 6.78 0 0 1-.61-1.74c-.17-.51-.34-1-.5-1.54-.6-1.92-1.11-3.86-1.56-5.82 5.2-.73 10.92-2.93 13.8-7.3a.9.9 0 0 0 0-.59c.08-.1.16-.24.21-.3s.08-.15.13-.23a.58.58 0 0 0 .05.33 15.46 15.46 0 0 0 6.27 5.64 37.9 37.9 0 0 0 8.38 3.47c.78.17 1.55.35 2.32.52Z" style="fill:#ededed"/>
    <path class="cls-1" d="M337.44 51.69c-6.15 2.37-6.15 9.43-6.15 9.43a2 2 0 0 0-2.05-1 12.94 12.94 0 0 0-10.31.48 37.43 37.43 0 0 1 3.56-6.4 1.64 1.64 0 0 0 0-.5l.38-.1a14.43 14.43 0 0 0 0-1.88c0-.14-.08-1.86 0-1.87a20.72 20.72 0 0 0-9.82 5.32 23.38 23.38 0 0 0-6 10.6 1.61 1.61 0 0 0-.06.44 41.8 41.8 0 0 1-7.32-20.7c-.09-1-.1-2-.18-3v-.66c0-.48 0-1 .07-1.44.15-2.24.43-4.48.8-6.7a99.21 99.21 0 0 1 3-12.5c1.39-4.65 3-9.22 4.69-13.77a1.67 1.67 0 0 0 .07-.42c.61-.68 1.24-1.35 1.9-2A.24.24 0 0 0 310 5c3.45.16 5.94 2.81 7.89 5.4a62.74 62.74 0 0 1 5.66 9.18c3.36 6.53 5.88 13.43 8.82 20.14a101.51 101.51 0 0 0 5.05 10.12c.01.34.23 1.63.02 1.85Z"/>
    <path class="cls-2" d="M410.25 62.4a11.77 11.77 0 0 1 1.1-1.33 10 10 0 0 0-1.1 1.33Zm0 0a11.77 11.77 0 0 1 1.1-1.33 10 10 0 0 0-1.1 1.33Zm-13.42 34.11a1.23 1.23 0 0 1 0-.19 35.58 35.58 0 0 1-.26-4.49 6.89 6.89 0 0 1 0-1.7V90a1.68 1.68 0 0 0-1.26-.67c-1.39 0-2.52 2.24-2.52 5s1.13 5 2.52 5a2.15 2.15 0 0 0 1.69-1.41c0-.51-.11-.99-.17-1.41Zm13.42-34.11a11.77 11.77 0 0 1 1.1-1.33 10 10 0 0 0-1.1 1.33Zm2.09 36.09-.06.11h.16v-.07Zm1.16-1.56V97h.12c1.89-.38 3.79-.75 5.68-1.1Zm7.88-25.34 1-3c-.79.52-1 3-1 3Zm-11.13-9.19a11.77 11.77 0 0 1 1.1-1.33 10 10 0 0 0-1.1 1.33Zm0 0a11.77 11.77 0 0 1 1.1-1.33 10 10 0 0 0-1.1 1.33Zm0 0a11.77 11.77 0 0 1 1.1-1.33 10 10 0 0 0-1.1 1.33Z"/>
    <path class="cls-1" d="M423.76 27v.51c0 1.38-.1 2.75-.17 4.12-.16 2.8-.38 5.59-.56 8.39-.34 5.28-.62 10.57-.71 15.86-.07 4.23-.08 8.46.07 12.7-.79.5-1 3-1 3v-3.2c0-.11.05-.47 0-.55a21.15 21.15 0 0 0-4.81-4.44c-2-1.23-4.16-.86-6.32-.35-.24-.13-1 1.23-1.22 1.71.11-.29.23-.58.36-.85s.21-.44.33-.65a.56.56 0 0 1 0-.08c.14-.25.29-.49.45-.73v-.05a11.77 11.77 0 0 1 1.1-1.33 7.47 7.47 0 0 1 .64-.62 9.43 9.43 0 0 1 1.44-1.07.35.35 0 0 0 0-.06l.63-.18a12.86 12.86 0 0 0 0-1.88c0-.14-.07-1.86 0-1.87a18.43 18.43 0 0 0-6.36 2.85c-1.8 1.27-3.64 2.92-4.13 5.15a.86.86 0 0 0 0 .17c-.09.24-.33.3-.62.17s-.31-.43-.33-.81v-.57c0-.36.07-.69.07-.87 0-1.21.1-2.42.19-3.63q.24-3.6.77-7.17a99.36 99.36 0 0 1 7.9-27c1.49-3.28 3.3-7.14 7.08-8.19.11 0 .12-.45.08-1a3.49 3.49 0 0 1 3.39 1.67c1.23 2 1.3 4.82 1.49 7.07.07.86.12 1.72.16 2.58.06.44.08.84.08 1.2Z"/>
    <path class="cls-2" d="M428.16 109.7a25.19 25.19 0 0 1-2.43 5.79c-.81 1.42-1.7 2.8-2.64 4.15-2.61-.89-5.24-1.75-7.87-2.58a.76.76 0 0 0 0-.16 2.32 2.32 0 0 0-.11-.79 1.14 1.14 0 0 0-1.55-.78 5.42 5.42 0 0 0-1.24.84c-8-2.43-16.09-4.57-24.26-6.34 12.57-3 25.55-2.21 38.24-.41ZM362.18 104.64a1.19 1.19 0 0 0 0 .19v.79l-3.19-.44c-4.08-.56-8.15-1.1-12.24-1.61-8.15-1-16.34-1.86-24.54-2.38a225.25 225.25 0 0 0-30.74 0l-1.74-6.79c-.89-3.45-1.84-6.9-2.5-10.41h.6a121 121 0 0 1 25.84 3.5c8.67 2.25 17.07 5.6 25.51 8.59l12.58 4.48a10.94 10.94 0 0 0 1.34 1.19 5.3 5.3 0 0 0 4.93 1l4.47 1.59Z"/>
    <path class="cls-2" d="m365.44 107.38-.5.36a64.11 64.11 0 0 0-9.46 1c-4.12.65-8.24 1.39-12.33 2.23q-12.16 2.51-24.07 6.13-7.79 2.37-15.4 5.22c-.79-.36-1.57-.73-2.37-1.07-1.06-.45-2.13-.85-3.2-1.26-.23-.09-.47-.18-.7-.29-.05-.66-.11-1.31-.18-2 0-.38 0-.64-.06-.64-.74-.1-1 .5-1.09 1.12v.26c0 .51-.05 1.05-.06 1.59-.57-4.79-2.13-9.49-3.32-14.13-.29-1.17-.59-2.33-.89-3.49 17.3-1.23 34.87 0 52 2 4.58.54 9.15 1.14 13.71 1.76 2.63.42 5.3.71 7.92 1.21Z"/>
    <path class="cls-2" d="M422.38 120.65c-1.76 2.44-3.67 4.79-5.56 7.1q-5 6.13-10.49 11.85c-6.46 6.7-13.69 14.37-22.83 17.22a23.8 23.8 0 0 1-14.48-.45c-5.16-1.63-10.19-3.82-15.18-5.89a155.46 155.46 0 0 1-14.68-6.87c-4.31-2.33-8.45-5-12.55-7.62-7-4.55-13.95-9.27-21.45-12.93a267.51 267.51 0 0 1 35-10.16c2.53-.55 5.06-1.05 7.6-1.53a1.44 1.44 0 0 0-.34.89V113.46a1.69 1.69 0 0 0 .16.67 2.09 2.09 0 0 0 .95.93 2.65 2.65 0 0 0 2.25-.07 8.75 8.75 0 0 0 2.32 1.14 17.32 17.32 0 0 0 3.15 1v.08c.3 3.42 2.6 6.11 5.37 8a46.5 46.5 0 0 0 9.95 4.71 19.31 19.31 0 0 0 11.46.37 43.3 43.3 0 0 0 9.77-3.67 44.15 44.15 0 0 0 9.66-6.84 39 39 0 0 0 8.68-.73 2 2 0 0 0 0-.64l.49-.37a1.2 1.2 0 0 1 0 .19v.44a2.57 2.57 0 0 0 0 .62 1.58 1.58 0 0 0 1.79 1 2.31 2.31 0 0 0 1.69-1.53 1.83 1.83 0 0 0 .09-.39q3.59 1.07 7.18 2.28Z"/>
    <path class="cls-3" d="M437.56 171.34c0 .19.06.38.08.57s0 .48-.07.71a37.46 37.46 0 0 1-3.75 11 41.39 41.39 0 0 1-7.48 11 26.12 26.12 0 0 0 2.13-8.49 42.55 42.55 0 0 0-.21-9.37A23.47 23.47 0 0 0 427 172c-.25-.65-1.84-4.39-2.74-2.31a6.23 6.23 0 0 0 0 1.88 5.87 5.87 0 0 1 0 1.87c.76-1.74 2.12.8 2.41 1.48a23.19 23.19 0 0 1 1.25 3.89 25.29 25.29 0 0 1 .53 3.65c0 .25 0 .5-.06.75-.07.71-.18 1.42-.31 2.12a24.87 24.87 0 0 1-7.82 14.07 1.18 1.18 0 0 0-.09.67l-12.4 13.67a118.31 118.31 0 0 0-11 13.44c-3.06 4.57-5.6 9.69-6.32 15.2a45 45 0 0 0-.19 7.25 16.56 16.56 0 0 0 1.75 7.18 10.68 10.68 0 0 0 5.88 5.41 18.56 18.56 0 0 1-5.9 1.11c-2.59.09-5.17-.2-6.81-2.44a8.12 8.12 0 0 1-1.38-3.19c-.05-.25-.08-.51-.11-.77.05-.61.1-1.22.16-1.84.14-1.23-.13-2.52 0-3.75a46.9 46.9 0 0 0-.29 4.73c-.12-.39-.11 2.07 0 2.11a17.77 17.77 0 0 0 .2 2.92c.51 3.05 2.47 5.53 5.65 5.91a19.09 19.09 0 0 0 4.65 0v.34c0 .27-.09.55-.15.81a16 16 0 0 1-.94 2.78 26.19 26.19 0 0 1-3.09 5.09 49 49 0 0 1-7.78 8.18 50.73 50.73 0 0 1-19.74 10.16 310.49 310.49 0 0 0-3.45-31.47c2.79-1.39 2.58-6 2.52-8.53a26.52 26.52 0 0 0-2.11-9.66c-2.8-6.69-7.85-12.23-13.26-16.95-10.79-9.41-24.71-16.44-31.11-29.93a56.8 56.8 0 0 1-4.08-13.45c-.09-.5-.74-4.88-.92-6.64 0-.36 0-.73.07-1.09.06-.59.14-1.18.25-1.76a20.75 20.75 0 0 1 .95-3.45 6.5 6.5 0 0 0 0-1.87V167.69l-.06.2a.43.43 0 0 1 0-.11 38.59 38.59 0 0 0-4.51 15.44 58 58 0 0 0 .13 10.62c-6.12-6.78-9.1-15.67-10.23-24.64-.32-2.5-.5-5-.57-7.55v-.85c0-.83 0-1.67.07-2.5.06-1.56.14-3.11.24-4.66.38-6 1-11.91 1.25-17.88.14-3.24.22-6.51.17-9.77l2.94-1.14s51.45 46.38 75.84 42.07c24-4.23 43.22-38.64 43.82-39.71a26.4 26.4 0 0 0-.46 4.08 43.45 43.45 0 0 0 .65 11.27 21.75 21.75 0 0 0 4.8 9.57c2.64 2.93 6.52 4.35 10.29 5.13a15.42 15.42 0 0 0 3.6.32 16.43 16.43 0 0 1-3.4 2.37 18.74 18.74 0 0 1-1.71.78c-.14-.15-.25-.3-.39-.44a1.14 1.14 0 0 1 .06.54 17.48 17.48 0 0 1-5.15 1 17.17 17.17 0 0 1-3.92-.26c-.66-.12-2-.2-2.5-.76a1.7 1.7 0 0 0 0-.59c-.35-.25-.23.59-.24.77v3.43c0 .41-.1 1 .19 1.39s1.37.51 1.83.61A17.49 17.49 0 0 0 433 166a16.6 16.6 0 0 0 1.86-.71 12.82 12.82 0 0 1 2 3.37 13 13 0 0 1 .7 2.68Z"/>
    <path d="M397.81 94.28a7.87 7.87 0 0 1-.79 3.63 2.15 2.15 0 0 1-1.73 1.36c-1.39 0-2.52-2.24-2.52-5s1.13-5 2.52-5a1.68 1.68 0 0 1 1.26.67 6.83 6.83 0 0 1 1.26 4.34ZM393.9 101.72l-.28.1ZM358.25 88.42c-1.4 0-2.52 2.24-2.52 5s1.12 5 2.52 5 2.52-2.24 2.52-5-1.13-5-2.52-5Zm54.09 10.07-.06.11h.16v-.07Zm1.16-1.56V97h.12c1.89-.38 3.79-.75 5.68-1.1Z"/>
    <path d="M486.75 91.71q14.79.33 29.51 2s0-1.24 0-1.25a332.28 332.28 0 0 0-89.19 2.13c-1.1-4.23-2.33-8.41-3.07-12.74a123.73 123.73 0 0 1-1.63-17.08c-.35-11.69 1.25-23.29 1.42-35 .08-5.05.28-10.47-1-15.41-.53-2.12-2-3.95-4.39-3.59-2.2.33-4.13 2-5.61 3.57-7.71 8.14-15.41 16.18-23.74 23.7-2 1.84-4.1 3.64-6.18 5.44a43.5 43.5 0 0 0-4.62-2.12 31.18 31.18 0 0 0-10-2.74 50.07 50.07 0 0 0-20.89 3 25.23 25.23 0 0 0-9.36 5.73.85.85 0 0 0-.1-.38c-7.48-12.5-10.7-27.19-19.18-39.14-1.9-2.67-4.25-5.69-7.57-6.42-.05-.52-.12-1.28 0-1.41-8.81 8.08-13.15 19.53-16.03 30.9-1.58 6.29-2.78 12.67-4.06 19l-2.25 11.19c-.74 3.68-1.58 7.35-2 11.07a50.32 50.32 0 0 0-.16 10.55c-7.23-.23-14.48 0-21.69.26q-15.36.65-30.72 1.74s0 1.25 0 1.25q13.53-1 27.09-1.58c8.47-.39 17-.7 25.45-.43a59.94 59.94 0 0 0 1.43 8c.75 3.09 1.54 6.16 2.34 9.24-5.08.4-10.13 1-15.16 1.89a131.7 131.7 0 0 0-25 6.86c-.14.06.14 1.2 0 1.25a141.25 141.25 0 0 1 40.49-8.75l3 11.49c.47 1.84.95 3.67 1.42 5.51.21.85.43 1.7.59 2.56.07.35.12.71.17 1.06a21.42 21.42 0 0 1-.83 2.57q-11.33 4.65-22.2 10.31l-.11.06c-.29-.79-.55-1.58-.8-2.39a13.07 13.07 0 0 0-.7-2.43l-.12-.41a6.26 6.26 0 0 0-.21.61 5 5 0 0 0-.18.94 19 19 0 0 0 0 4.77q-11.35 6-22.1 13.16c-.2.13.18 1.13 0 1.25q10.85-7.2 22.36-13.31a6.53 6.53 0 0 0 .53 1.31 8.44 8.44 0 0 0 2 2.5 16.18 16.18 0 0 0 5.14 6.78 10.54 10.54 0 0 0 7.24 2.1 118.31 118.31 0 0 1-7.71 14.44 93.87 93.87 0 0 1-13.15 16.2c-9.6 9.59-20.58 18-28 29.53a44.75 44.75 0 0 0-7.06 17.89c-.51 1-1 2-1.39 3.08a2 2 0 0 0 0 .55V235.22a2 2 0 0 1 0 .55c.34-.87.72-1.72 1.12-2.56a12.34 12.34 0 0 1 0 1.72c.06-.75.15-1.49.25-2.22a37.07 37.07 0 0 1 6.42-9.13c-2.68 11.7-10.87 21.3-18.88 29.95a183.67 183.67 0 0 0-13 14.91 60.15 60.15 0 0 0-5.31 8.41 71.23 71.23 0 0 0-3.68 9.27c-1.11 3.18-2.49 6.51-5.3 8.55-2.47 1.8-5.83 2.58-8.54.85v1.81c0 .32-.22 1.65 0 1.88a18.89 18.89 0 0 0 10.8 5.16 103.6 103.6 0 0 0-9.65 22.21l-4.81 1c-21.67 4.33-43.36 8.58-65.21 11.82-11.62 1.73-23.29 2.9-34.95 4.36a145.2 145.2 0 0 0-17 3 92.3 92.3 0 0 0-15.91 5.64c-5.13 2.33-10.12 5-15 7.77a98.72 98.72 0 0 0-12.92 8.53C9.34 375 2.84 383.36.76 393.41a41.77 41.77 0 0 0-.42 13.34c.67 5.21 3 10 5.8 14.36 5.62 8.73 12.71 16.65 21.57 22.18 16.51 10.31 36.69 12.56 55.72 13.44a589.9 589.9 0 0 0 71.23-1.09q9-.67 17.92-1.61c5.47-.58 11-1.12 16.36-2.23 9.5-1.95 19.1-6.22 24.14-15a20.54 20.54 0 0 0 2.35-6.11 28.75 28.75 0 0 0 .4-6.15 4.2 4.2 0 0 0 0-.55 28.68 28.68 0 0 0-4.17-14.34 51.19 51.19 0 0 0-6.41-8.75 45.87 45.87 0 0 0 11 5.75 117.29 117.29 0 0 0 60.13 6.4 35.49 35.49 0 0 0 7.11 5.65c2.05 1.35 4 2.33 6.41 1.42a48.87 48.87 0 0 1 6.42-2.36 18.3 18.3 0 0 1 6.8-.2c2.36.4 4.51 1.62 6.89 1.89s4.47-1.07 6.4-2.44a20.23 20.23 0 0 0 4.51-4 9.48 9.48 0 0 0 1.59-3 20.67 20.67 0 0 1 14.43.21 18.73 18.73 0 0 1 2.36 1.1 1 1 0 0 0 .34.16 8.51 8.51 0 0 0 2.13 1.07c0 .37 0 .71.07.75 5.52 2.74 11.8 3 17.83 3.42a43.21 43.21 0 0 0 4.69.25 14 14 0 0 0 4.68-1.11c3.14-1.22 6.26-2.49 9.39-3.73 0 0 .05-.17.05-.38.23-.14.36-.62.43-1.25v.24-.5a25.14 25.14 0 0 0 0-3c0 .28 0 .55.05.82a12.16 12.16 0 0 0 .38 2.25c.14.55.27.55.82.68l1.59.38c2 .44 4 .8 6 1.08a73.67 73.67 0 0 0 12.33.68 74.46 74.46 0 0 0 13.64-1.67c.08 0 .1-.29.09-.67 3.53-1.29 5-6.31 6-9.49a104.94 104.94 0 0 0 4-15.8 191.51 191.51 0 0 0 2.32-31.64c0-5.16 0-10.31-.1-15.47l2.29-.29a31.18 31.18 0 0 0 0-3.75 30.64 30.64 0 0 1-2.73-9.74c-.11-1-.14-1.94-.22-2.91v-1.07c.09-1.94.26-3.88.48-5.8.85-7.43 2.05-14.82 2.89-22.25q2.58-22.86 3.13-45.89c.18-7.28.2-14.55.11-21.83l3.05-.1a1.64 1.64 0 0 0 1.07 0 9.33 9.33 0 0 0 0-2.59v-1.16h-1.07c-1.6-.45-2.94-3-3.58-4.18a22.8 22.8 0 0 1-2.38-6.65 28 28 0 0 1-.48-3.76s0-.08 0-.13v-.32c0-.78.12-1.56.21-2.33a69 69 0 0 1 1.6-8.56 5.18 5.18 0 0 0 0-1.67 52.15 52.15 0 0 0 4.77-9 35 35 0 0 0 2.14-6.62 30.16 30.16 0 0 0 .44-6.07 18.64 18.64 0 0 0-1.26-7.19 17.61 17.61 0 0 0 7.08-8 7.06 7.06 0 0 0 3-2.94 7.47 7.47 0 0 0 0-2.5v-1.77a2.56 2.56 0 0 1 0-.73 7.13 7.13 0 0 1-2.31 2.52 4.57 4.57 0 0 1 0-1.58 17.37 17.37 0 0 1-.77 2 12 12 0 0 1-7.56.82c-4.31-.79-8.61-2.47-11.4-6a22.9 22.9 0 0 1-4.56-11c0-.31-.07-.63-.1-.94.08-.81.18-1.62.34-2.42a24.54 24.54 0 0 1 2-5.85 4.23 4.23 0 0 0 .08-1.78c.71-1 1.4-2 2.06-3q5 1.73 10 3.58c7.55 2.83 15 5.88 22.42 9.08 7 3 14 6.09 20.76 9.62 7.21 3.77 14.1 8.28 19.59 14.36-.21-.23.21-1 0-1.25-9.94-11-24.25-16.9-37.55-22.75-11.34-5-22.85-9.62-34.55-13.67a26 26 0 0 0 3.22-7.4 18.33 18.33 0 0 0 .45-3.12c5.66.86 11.31 1.88 17 2.85 6.34 1.1 12.7 2 19 3a120.4 120.4 0 0 1 20.77 5c-.12 0 .14-1.2 0-1.25-12.06-4.3-24.9-5.5-37.45-7.64-6.4-1.09-12.81-2.29-19.25-3.27v-2.93a34.53 34.53 0 0 0-.87-7.44c-.19-.81-.39-1.62-.59-2.43q3.42-.54 6.85-1a334.19 334.19 0 0 1 52.6-2.99Zm-215.83 43.78q.07-.3.18-.6c.3 1.82-.42 1.36-.18.6Zm.55 0a4.63 4.63 0 0 1-.32-.82c.07-.22.13-.15.18.27a4 4 0 0 1 .33.87c-.06-.06-.14-.16-.19-.27Zm18.26-41.15c-.89-3.45-1.84-6.9-2.5-10.41h.6a121 121 0 0 1 25.84 3.5c8.67 2.25 17.07 5.6 25.51 8.59l12.58 4.48a10.94 10.94 0 0 0 1.34 1.19 5.3 5.3 0 0 0 4.93 1l4.47 1.59-.32.26a1.19 1.19 0 0 0 0 .19v.79l-3.19-.44c-4.08-.56-8.15-1.1-12.24-1.61-8.15-1-16.34-1.86-24.54-2.38a225.25 225.25 0 0 0-30.74 0Zm66-1c0-2.76 1.12-5 2.52-5s2.52 2.24 2.52 5-1.13 5-2.52 5-2.52-2.16-2.52-4.92Zm-63.05 12.5c-.29-1.17-.59-2.33-.89-3.49 17.3-1.23 34.87 0 52 2 4.58.54 9.15 1.14 13.71 1.76 2.63.36 5.3.65 7.92 1.15l-.5.36a64.11 64.11 0 0 0-9.46 1c-4.12.65-8.24 1.39-12.33 2.23q-12.16 2.51-24.07 6.13-7.79 2.37-15.4 5.22c-.79-.36-1.57-.73-2.37-1.07-1.06-.45-2.13-.85-3.2-1.26-.23-.09-.47-.18-.7-.29-.05-.66-.11-1.31-.18-2 0-.38 0-.64-.06-.64-.74-.1-1 .5-1.09 1.12v.26c0 .51-.05 1.05-.06 1.59-.57-4.65-2.13-9.35-3.32-13.99Zm-19 32.29-.09-.17c-.13-.3-.24-.61-.36-.92q9.51-5 19.39-9.14l1.83-.75a33.87 33.87 0 0 1-2.59 4.37c-3 4.34-7.84 9.6-13.71 8.64a9.64 9.64 0 0 1-4.46-1.95Zm-63.82 272.42c2.83 4.17 5.18 8.88 5.8 13.94v.78c0 .29-.07.66-.12 1a19.4 19.4 0 0 1-.82 3.19 22 22 0 0 1-3.08 5.8 29 29 0 0 1-10 8.51c-9.58 5-20.94 5.71-31.51 6.78a600.12 600.12 0 0 1-69.92 3c-19.67-.32-40.23-.71-58.95-7.45a65.05 65.05 0 0 1-23.92-14.7 83.85 83.85 0 0 1-10-12.17C4.45 415 1.89 410.41.76 405.39A25.69 25.69 0 0 1 .24 402l-.06-.39c.07-.69.1-1.38.19-2.06A32.55 32.55 0 0 1 2 392.67a40.54 40.54 0 0 1 7.22-12.51c6.55-7.82 15.34-13.32 24.2-18.16 9.77-5.34 19.82-9.91 30.76-12.27s22.43-3.15 33.66-4.55c23.2-2.89 46.2-7.15 69.13-11.67l8.19-1.63 6.74-1.34a76 76 0 0 0-2 12.84 80.79 80.79 0 0 0 .82 19c-3.45 1-6.89 2-10.35 3q-26.82 7.6-53.94 14.15-7.67 1.86-15.35 3.61a224.4 224.4 0 0 0-38 9.54q-7.62 2.64-15 5.82a9 9 0 0 0 0 1.88 10.72 10.72 0 0 1 0 1.87 224.19 224.19 0 0 1 49.72-14.87c0 .13 0 .21-.06.22 1.08-.24 2.14-.5 3.22-.75q4.53-.74 9.11-1.28a222.83 222.83 0 0 1 32.36-1.52 175.61 175.61 0 0 1 32.43 3.35 57 57 0 0 1 25.77 12.74 54.78 54.78 0 0 1 9.23 10.41Zm-28.43-44.65a56.49 56.49 0 0 0 5.32 14.26 49.08 49.08 0 0 0 11.89 14.56 56.34 56.34 0 0 0-7.28-4.92c-9.41-5.34-20-7.12-30.61-8.28a223.45 223.45 0 0 0-32.92-1.12q17.69-4.41 35.26-9.28l7.77-2.18q5.29-1.5 10.57-3.04Zm17.46 29c.44.36.88.73 1.34 1.08v-.06l.21.28c-.51-.43-1.03-.86-1.55-1.29Zm133.29 10.3a20.86 20.86 0 0 0-9.25.85 17.84 17.84 0 0 0-.23-4c-1-5-5.19-8.16-9.54-10.11l-1-.44a7 7 0 0 0-.07-2c-.07-.22-.18-.37-.35-.37a6.09 6.09 0 0 0 0 .91c-.33.08-.78-.3-1-.74a10.4 10.4 0 0 1-.56-2.23c0-.12 0-.25.08-.37a12.48 12.48 0 0 1 .76-2.15 16.31 16.31 0 0 1 2.46-3.86 41.23 41.23 0 0 1 7.26-6.31c.18-.13 0-1.63 0-1.87v-.72c.33.92.65 1.84 1 2.75 2.75 7.74 5.66 15.43 9.07 22.91 1.27 2.8 2.55 5.68 4.1 8.35a20.36 20.36 0 0 0-2.73-.6Zm-41.77-124v-.56c.64 2.66 1.36 5.31 2.12 7.94 4.21 14.47 9.39 28.67 14.3 42.91 4.46 12.94 8.84 25.9 13.38 38.8v.67c-2.94 2.19-5.91 4.47-8 7.56a14.18 14.18 0 0 0-2.15 5 14.52 14.52 0 0 0-.22 1.74q-.78-3.86-1.54-7.73c-1.05-5.23-2.11-10.46-3.32-15.66-2.35-10.12-5.23-20.17-9.6-29.62a89.11 89.11 0 0 0-7.81-13.61 6.41 6.41 0 0 0 0-.88c-1.32-9.26-3.2-19-8.45-26.83l.32-.25 2.19-1.79 8.78-7.16a2.59 2.59 0 0 0 0-.53ZM378.26 408c0-.4 0-.68-.06-.68s-.2.08-.26.22v.05a3.38 3.38 0 0 0-.07 1l-5.49 2.18a21.76 21.76 0 0 0-7-12.45 2.68 2.68 0 0 1 0 .63c0 .1-.07.56 0 .62a21.82 21.82 0 0 1 6.74 11.3l-3.12 1.19a17.45 17.45 0 0 1-2.86.88 19.42 19.42 0 0 0-8.62-13.74c.18.11-.2 1.12 0 1.25a19.43 19.43 0 0 1 8.42 12.55 9.11 9.11 0 0 1-1.39.18 36.77 36.77 0 0 1-4.92-.24c-5.5-.42-11.21-.64-16.37-2.77a2.67 2.67 0 0 0-.05-1 8.12 8.12 0 0 1-2.51-.75v-.31a7 7 0 0 1 0-1.88 3.85 3.85 0 0 1-.47 1 2 2 0 0 1-.34.42c-.26.18-.18.14-.44 0-3.81-2.66-5.95-8.16-7.76-12-3.25-6.94-6.06-14.08-8.67-21.28-5.34-14.66-10.26-29.48-15.34-44.23s-10.43-29.39-14.84-44.33a146.66 146.66 0 0 1-5-22.38c-.22-1.65-.39-3.31-.52-5-.08-1-.14-2-.18-3 0-.44 0-.88-.05-1.32v-1.25a71 71 0 0 1 1.18-10.88 59 59 0 0 1 3.32-11.34c.63-1.52 1.45-3 2.06-4.51v2.26a86.64 86.64 0 0 0 .78 12c-.17-1.22.18-2.52 0-3.75a57.58 57.58 0 0 1-.61-10.95c0-.11.09-.21.12-.32a15.47 15.47 0 0 0 .34-5.17v-.67c-.05-.41-.05-1.27-.24-.34a19.22 19.22 0 0 0-.23 2.85c-.1.27-.22.54-.34.81-.74 1.61-1.51 3.17-2.15 4.82a63.69 63.69 0 0 0-4.11 19.77 107.33 107.33 0 0 0 .61 19.22c.5 4 1.23 7.87 2.11 11.76l-6.49 5.3-3.44 2.8-1.67 1.36a5.28 5.28 0 0 1-.9.69l-.3-.36c-.38-.46-.76-.91-1.17-1.35a27.22 27.22 0 0 0-25.43-7.86 28.81 28.81 0 0 0-13.67 6.69v-.79a21.29 21.29 0 0 0-1.21-7.75c-2.05-5.35-6.41-9.39-11-12.56v1.87c0 .27-.19 1.71 0 1.88a13.52 13.52 0 0 1 4.62 6.55 18.17 18.17 0 0 1 .79 3.71c0 .29-.06.58-.1.87-.11.8-.26 1.59-.45 2.38a37.14 37.14 0 0 1-3.61 8.95c-1.25 2.29-2.93 4.64-5.66 5.13-.24 0 .19 3.71 0 3.75 3.33-.59 5.07-3.88 6.44-6.63a30.85 30.85 0 0 0 3.43-11.15c.07-1 .12-2 .13-3v-.39a25.12 25.12 0 0 0-.72-6.32 26.19 26.19 0 0 1 4.61 5.55 19 19 0 0 1 2.44 6.2c.08.44.14.89.19 1.34 0 .17 0 .35-.07.52a14.3 14.3 0 0 1-1 3.38 5.85 5.85 0 0 0 0 1.87 6.25 6.25 0 0 1 0 1.88 14.87 14.87 0 0 0 1.13-4.87c0 .52.13 1.33 0 1.46a29.47 29.47 0 0 1 25.62-6.67 26.19 26.19 0 0 1 14.34 8.82 2.54 2.54 0 0 0 .06.5c.08.24.22.29.5.21h.05a37.45 37.45 0 0 1 5.58 9.57 69.13 69.13 0 0 1 3.89 14.7 29.92 29.92 0 0 0-19.19-12.45c.19 0-.25 3.71 0 3.75a29.91 29.91 0 0 1 18.73 11.81 1.85 1.85 0 0 0 .09 1c13.71 18.56 18.15 41.72 22.55 63.86.29 1.46.58 2.92.88 4.38v.54-.4c.1.53.21 1.05.31 1.57-4.31-1.71-8.79-3.09-13.15-4.64.37.13-.41 3.6 0 3.75 4.38 1.56 8.78 3.05 13.14 4.68 3.73 1.39 7.58 3.13 10.12 6.32a11.85 11.85 0 0 1 2.34 4.79 5.66 5.66 0 0 1-.13.56s0 0 0 .05l-.26.08a2 2 0 0 0-.05.75 10.33 10.33 0 0 1-1 1.75 17.5 17.5 0 0 1-3.91 3.82 15.49 15.49 0 0 1-5.15 3c-1.88.47-3.73-.14-5.51-.76a16.64 16.64 0 0 0 .91-6.53 13.44 13.44 0 0 0-4-9.2c.2.19-.22 1.05 0 1.25a13.2 13.2 0 0 1 3.82 7.31 11.44 11.44 0 0 1-1.18 7l-.35-.12a17.35 17.35 0 0 0-6.15-.94 20.21 20.21 0 0 0-6 1.17 23.19 23.19 0 0 0-.45-4.23 22.3 22.3 0 0 0-5.06-10.12c.2.23-.21 1 0 1.25a22.44 22.44 0 0 1 4.42 7.72 21.89 21.89 0 0 1 1 4.3c0 .28.09.67.12 1.09l-.27.08c-1.85.68-3.72 2-5.76 1.93s-3.7-1.49-5.27-2.55a38.9 38.9 0 0 1-4.52-3.46q-.54-.48-1-1v-.52l-.46.06a14.78 14.78 0 0 1-1.93-2.59 11.68 11.68 0 0 1-1-2.32 10.69 10.69 0 0 1-.31-1.27c1.5-9.36 12.27-13.61 20.62-14.44.15 0-.1-3.74 0-3.75-8.43.84-19.17 5.08-20.65 14.59a30.8 30.8 0 0 0-.14 5.68 11.29 11.29 0 0 0 1.09 4.43 117.09 117.09 0 0 1-51.98-4.68c-5.44-1.76-11-3.79-15.77-7a24.57 24.57 0 0 1-6.71-6.58 19.92 19.92 0 0 1-2-3.92 16.71 16.71 0 0 1-.68-2.29c-.24-1.14-.17-4.25-.32-.54v-2.9a34 34 0 0 0 .14 6c-.22-.45-.44-.91-.62-1.39a18 18 0 0 1-.95-3.54q-.12-.8-.18-1.59c0-.25 0-.5.07-.75.73-6 3.63-11.54 6.43-16.85a5.63 5.63 0 0 0 0-1.88c0-.45-.23-1.47 0-1.87-3.24 6.16-6.51 12.53-6.6 19.65v.81a5.76 5.76 0 0 0 0 1.68 28.5 28.5 0 0 0 .75 6.3 53.35 53.35 0 0 1-13.88-24.37c-.13-.47-.24-.95-.35-1.42 0-.23 0-.38.08-.4l-.17.05a63.29 63.29 0 0 1-1.18-6.55c-.18-1.51-.31-3-.38-4.54v-1.45c0-1.15.1-2.3.2-3.45a77.83 77.83 0 0 1 3-15.85l.66-.13a6 6 0 0 0 0-2c.1-.3.19-.61.29-.92a106.94 106.94 0 0 1 9.52-20.47c.21-.36 0-1.45 0-1.87v-.39q.93.08 1.86.06c.05 0 0-3.75 0-3.75a18.87 18.87 0 0 1-7-1.25 8.87 8.87 0 0 0 1.24-.6c2.73-1.59 4.33-4.32 5.47-7.18s2-6.06 3.32-9a53.7 53.7 0 0 1 4.94-8.62c7.56-10.95 18-19.49 25.61-30.43 4.14-6 7.36-12.61 8.3-19.87a7.18 7.18 0 0 0 0-1c.49-.49 1-1 1.51-1.43a3.47 3.47 0 0 0 0-.55v-2.65c0-.08-.06-.51 0-.55a37.21 37.21 0 0 0-7 8.4c3.09-9.37 9.5-17.55 16.4-24.52 9.84-9.94 20.94-18.57 28.84-30.28a123.17 123.17 0 0 0 11-20.82c.17-.08.11-.86 0-1.68a1.28 1.28 0 0 1 0-.19 5.94 5.94 0 0 1 0-1.88 1.33 1.33 0 0 1-.09.21c0-.11 0-.19.09-.21-3.94 1.35-7.54-.19-10.28-2.83l.22.05a10.6 10.6 0 0 0 8-2.14 25.21 25.21 0 0 0 6-6.44c1.8-2.62 3.7-5.54 4.15-8.76l1.5-.61c.34 10.39-1.38 20.84-1.59 31.26-.18 9.34.2 18.84 3.41 27.71a37.45 37.45 0 0 0 8.19 13.39.57.57 0 0 1-.07-.35c0 .12 0 .23.07.35v-1.87a9.08 9.08 0 0 0 0-1.88 58.56 58.56 0 0 1-.95-6.71c0-.63.06-1.25.12-1.87.1-1 .23-2 .41-3a38.35 38.35 0 0 1 2.82-9.15c-.12 1.74-.12 3.5-.1 5.27a56.22 56.22 0 0 0 1.56 11.55 48.89 48.89 0 0 0 4.12 12 40.34 40.34 0 0 0 6.19 8.66c10 10.85 23.93 17.23 32.92 29.09a34.54 34.54 0 0 1 5.57 10.41 26.84 26.84 0 0 1 1.05 5.16 5.36 5.36 0 0 1-.37 1.22 5 5 0 0 1-2.3 1.88v.18c.12.42.63 1.39.63 1.54a14.61 14.61 0 0 1-.35 1.9c-.07-.46-.15-.93-.23-1.39 0-.69 0-1.38-.05-2.05v-.18c0-.3 0-.59-.07-.88-.21-2.41-1.35-4.79-2.15-7q-2.69-7.48-5.35-15a7.41 7.41 0 0 1 0 1.88 6.16 6.16 0 0 0 0 1.87q2 5.7 4.07 11.39c.66 1.86 1.33 3.71 2 5.57.31.85.62 1.69.9 2.54a.29.29 0 0 0 0 .09 6.89 6.89 0 0 0 0 1.87c.14.75.27 1.49.4 2.24a303.66 303.66 0 0 1 3.86 34.25.1.1 0 0 1 0 .05c.56 9.1.84 18.21 1 27.32.36 19.87.25 39.77 1.59 59.61v.13c.08 1.08.14 2.16.22 3.23a27.13 27.13 0 0 0 .35 4.34c.19.75-.07.32.38.61a7.29 7.29 0 0 0 1 .42c.43.2.86.42 1.28.65a21.54 21.54 0 0 1 10.35 13.53.57.57 0 0 1-.22.11Zm-68.37-230.56v-.51a1.63 1.63 0 0 1 0 .51Zm73.3 216v.14l-.15.14c-.81-2.45-1.57-4.94-2.52-7.33a10.1 10.1 0 0 0-4.06-5.14 11.82 11.82 0 0 0-11.55.09c-.31-4.69-.57-9.39-.75-14.09-.87-23.08-.4-46.19-1.63-69.25a49.26 49.26 0 0 0 6.93-2.38s0 .11 0 .16q7 38.94 12.48 78.14 1.31 9.32 2.49 18.64a11.71 11.71 0 0 0-1.22 1v-.3c-.02-.21-.03.07-.02.16Zm-4.31 13.2a17.27 17.27 0 0 0-.36-2.25 21.47 21.47 0 0 0-9.77-13.42c-.9-.54-2.05-.85-2.9-1.43-.49-.34-.2-.1-.38-.61a6 6 0 0 1-.1-1.2c-.07-.81-.13-1.61-.2-2.41v-.33a11.8 11.8 0 0 1 11.31 0 10 10 0 0 1 4 5c.63 1.54 1.16 3.12 1.67 4.7a13.61 13.61 0 0 0-2.59 4.74 21.71 21.71 0 0 0-.68 7.19Zm49.75-196.07a25.37 25.37 0 0 0 2 8.31 19.48 19.48 0 0 0 1.14 2.17l-1.58.05c-.06 0 0 3.75 0 3.75l1.71-.06a482.12 482.12 0 0 1-1.61 48.21q-1 11.58-2.43 23.1c-.88 6.92-2.17 13.84-2.49 20.82-.27 5.88-.24 11.94 1.53 17.57l-4.22.54c-.19 0 .13 3.73 0 3.75l3.27-.42v.33c.33 19.72.31 39.92-6.12 58.82-1.23 3.59-2.89 9.56-7.54 9.8a3 3 0 0 0 0 .64 74.73 74.73 0 0 1-16.95 1.35 45.58 45.58 0 0 1 5.35-10.67c.19-.29-.2-1 0-1.25a45.94 45.94 0 0 0-5.76 11.9q-3.39-.13-6.77-.58c0-.19.07-.37.12-.55a24.76 24.76 0 0 1 1.19-3.1l3.09-7.45c.15-.36-.14-.9 0-1.25-1.29 3.12-2.66 6.22-3.88 9.36a8.73 8.73 0 0 0-.63 3l-1.68-.22c-1.07-.17-2.14-.37-3.21-.59-.61-.12-1.22-.25-1.82-.39-.37-.09-1.56-.18-1.82-.45a3.47 3.47 0 0 1-.43-1.66c0-.28.08-.57.13-.85a13.49 13.49 0 0 1 3.85-7.06c.08.26.16.52.25.77a2 2 0 0 1-.05-.67c0 .2 0 .4.05.6v-.92a13.12 13.12 0 0 1 1.6-1.27c.17-.11 0-1.65 0-1.88a14.59 14.59 0 0 0 0-1.87q-5-39.25-11.57-78.29-1.57-9.31-3.25-18.61a50.16 50.16 0 0 0 17.39-12.7 30.36 30.36 0 0 0 5.71-8.6 14 14 0 0 0 1-5v-2.08c3.53-.51 7-2.06 8.67-5.1a3.42 3.42 0 0 0 2.45-4.21c0-.45-.23-1.48 0-1.88a5.58 5.58 0 0 1-2.2 2.24.86.86 0 0 1 0-.33c-.08.16-.16.3-.25.45a6.37 6.37 0 0 1-2.83.7 8.46 8.46 0 0 1-6.1-2.9 14 14 0 0 1-3.26-6.3 16.79 16.79 0 0 1-.32-1.72c0-.26-.06-.52-.09-.78v-.22c.06-.35.13-.7.17-1 .1-.73.23-1.46.4-2.18 2.29-10.13 9.71-18.28 16.49-25.76l13.74-15.15a.38.38 0 0 0 .07-.22 30.22 30.22 0 0 0 8.6-8.26 59.27 59.27 0 0 0-1.11 16.2Zm-8.35-83.42a26.4 26.4 0 0 0-.46 4.08 43.45 43.45 0 0 0 .65 11.27 21.75 21.75 0 0 0 4.8 9.57c2.64 2.93 6.52 4.35 10.29 5.13a15.42 15.42 0 0 0 3.6.32 16.43 16.43 0 0 1-3.4 2.37 18.74 18.74 0 0 1-1.71.78c-.14-.15-.25-.3-.39-.44a1.14 1.14 0 0 1 .06.54 17.48 17.48 0 0 1-5.15 1 17.17 17.17 0 0 1-3.92-.26c-.66-.12-2-.2-2.5-.76a1.7 1.7 0 0 0 0-.59c-.35-.25-.23.59-.24.77v3.43c0 .41-.1 1 .19 1.39s1.37.51 1.83.61A17.49 17.49 0 0 0 433 166a16.6 16.6 0 0 0 1.86-.71 12.82 12.82 0 0 1 2 3.37 13 13 0 0 1 .73 2.67c0 .19.06.38.08.57s0 .48-.07.71a37.46 37.46 0 0 1-3.75 11 41.39 41.39 0 0 1-7.48 11 26.12 26.12 0 0 0 2.13-8.49 42.55 42.55 0 0 0-.21-9.37A23.47 23.47 0 0 0 427 172c-.25-.65-1.84-4.39-2.74-2.31a6.23 6.23 0 0 0 0 1.88 5.87 5.87 0 0 1 0 1.87c.76-1.74 2.12.8 2.41 1.48a23.19 23.19 0 0 1 1.25 3.89 25.29 25.29 0 0 1 .53 3.65c0 .25 0 .5-.06.75-.07.71-.18 1.42-.31 2.12a24.87 24.87 0 0 1-7.82 14.07 1.18 1.18 0 0 0-.09.67l-12.4 13.67a118.31 118.31 0 0 0-11 13.44c-3.06 4.57-5.6 9.69-6.32 15.2a45 45 0 0 0-.19 7.25 16.56 16.56 0 0 0 1.75 7.18 10.68 10.68 0 0 0 5.88 5.41 18.56 18.56 0 0 1-5.9 1.11c-2.59.09-5.17-.2-6.81-2.44a8.12 8.12 0 0 1-1.38-3.19c-.05-.25-.08-.51-.11-.77.05-.61.1-1.22.16-1.84.14-1.23-.13-2.52 0-3.75a46.9 46.9 0 0 0-.29 4.73c-.12-.39-.11 2.07 0 2.11a17.77 17.77 0 0 0 .2 2.92c.51 3.05 2.47 5.53 5.65 5.91a19.09 19.09 0 0 0 4.65 0v.34c0 .27-.09.55-.15.81a16 16 0 0 1-.94 2.78 26.19 26.19 0 0 1-3.09 5.09 49 49 0 0 1-7.78 8.18 50.73 50.73 0 0 1-19.74 10.16 310.49 310.49 0 0 0-3.45-31.47c2.79-1.39 2.58-6 2.52-8.53a26.52 26.52 0 0 0-2.11-9.66c-2.8-6.69-7.85-12.23-13.26-16.95-10.79-9.41-24.71-16.44-31.11-29.93a56.8 56.8 0 0 1-4.08-13.45c-.09-.5-.74-4.88-.92-6.64 0-.36 0-.73.07-1.09.06-.59.14-1.18.25-1.76a20.75 20.75 0 0 1 .95-3.45 6.5 6.5 0 0 0 0-1.87V167.69l-.06.2a.43.43 0 0 1 0-.11 38.59 38.59 0 0 0-4.51 15.44 58 58 0 0 0 .13 10.62c-6.12-6.78-9.1-15.67-10.23-24.64-.32-2.5-.5-5-.57-7.55v-.85c0-.83 0-1.67.07-2.5.06-1.56.14-3.11.24-4.66.38-6 1-11.91 1.25-17.88.14-3.24.22-6.51.17-9.77l2.94-1.14.69.27a103.13 103.13 0 0 1 13.48 7.1c8.85 5.41 17.24 11.58 26.48 16.34 5.08 2.62 10.36 4.87 15.66 7 5.09 2 10.26 4.46 15.65 5.57 10.4 2.13 19.2-3.84 26.49-10.58a184.46 184.46 0 0 0 21.22-23.38.08.08 0 0 1-.04-.04Zm-3.46.62q-5 6.13-10.49 11.85c-6.46 6.7-13.69 14.37-22.83 17.22a23.8 23.8 0 0 1-14.48-.45c-5.16-1.63-10.19-3.82-15.18-5.89a155.46 155.46 0 0 1-14.68-6.87c-4.31-2.33-8.45-5-12.55-7.62-7-4.55-13.95-9.27-21.45-12.93a267.51 267.51 0 0 1 35-10.16c2.53-.55 5.06-1.05 7.6-1.53a1.44 1.44 0 0 0-.34.89V113.48a1.69 1.69 0 0 0 .16.67 2.09 2.09 0 0 0 .95.93 2.65 2.65 0 0 0 2.25-.07 8.75 8.75 0 0 0 2.32 1.14 17.32 17.32 0 0 0 3.15 1v.08c.3 3.42 2.6 6.11 5.37 8a46.5 46.5 0 0 0 9.95 4.71 19.31 19.31 0 0 0 11.46.37 43.3 43.3 0 0 0 9.77-3.67 44.15 44.15 0 0 0 9.66-6.84 39 39 0 0 0 8.68-.73 2 2 0 0 0 0-.64l.49-.37a1.2 1.2 0 0 1 0 .19v.44a2.57 2.57 0 0 0 0 .62 1.58 1.58 0 0 0 1.79 1 2.31 2.31 0 0 0 1.69-1.53 1.83 1.83 0 0 0 .09-.39q3.61 1.13 7.2 2.34c-1.78 2.36-3.69 4.71-5.58 7.02Zm-38.74-18.39c.08-.1.16-.24.21-.3s.08-.15.13-.23a.58.58 0 0 0 .05.33 15.46 15.46 0 0 0 6.27 5.64 37.9 37.9 0 0 0 8.38 3.47c.76.22 1.53.4 2.3.57-1.52 1.57-3.05 3.14-4.57 4.72-.92.94-1.84 1.89-2.75 2.84l-.69.71c-.33.52-.46.47-.39-.14a5.48 5.48 0 0 1-.13-1.47l-.36-3.94c-.08-.86.08-2.29-.34-3.06s-2.25-.51-3.06-.52l-3.73-.06-3.72-.06h-2a6.35 6.35 0 0 0-1.74 0c-.73.26-1.33 2.23-1.72 3q-.81 1.62-1.65 3.21l-.79 1.49-.46.84c-.17.57-.3.56-.39 0a6.78 6.78 0 0 1-.61-1.74c-.17-.51-.34-1-.5-1.54-.6-1.92-1.11-3.86-1.56-5.82 5.2-.73 10.92-2.93 13.8-7.3a.9.9 0 0 0 .02-.66Zm18 9.6a39.27 39.27 0 0 0 5.07.65 44.42 44.42 0 0 1-12.54 7.55l2.11-2.18 5.34-5.5c.05-.12.02-.32-.06-.5Zm-9.12 8.83c-.82.28-1.66.55-2.5.78-3.76 1.05-7.52 1.57-11.34.49a41.24 41.24 0 0 1-5.45-2c.06-.09.11-.19.16-.28l.68-1.28c.6-1.13 1.18-2.27 1.76-3.42.28-.57.57-1.14.85-1.72.12-.26.36-1.13.62-1.3s1.58 0 2 0h2l3.72.06 3.73.06c.78 0 2.43-.3 3 .4s.35 2.35.42 3.18l.33 3.69c-.04.39-.07.9-.02 1.32Zm-21.16-3.69c.18.59.37 1.17.57 1.76.06.18.12.43.19.68-1.26-.6-2.48-1.24-3.65-1.91-3-1.68-5.65-4.16-6.44-7.51a21.65 21.65 0 0 0 5.62.35c.64 0 1.29-.11 1.95-.19a.49.49 0 0 1 0 .12q.71 3.37 1.72 6.68Zm60-8.61c-.81 1.42-1.7 2.8-2.64 4.15-2.61-.89-5.24-1.75-7.87-2.58a.76.76 0 0 0 0-.16 2.32 2.32 0 0 0-.11-.79 1.14 1.14 0 0 0-1.55-.78 5.42 5.42 0 0 0-1.24.84c-8-2.43-16.09-4.57-24.26-6.34 12.57-3 25.55-2.21 38.24-.41l1.88.28a25.19 25.19 0 0 1-2.52 5.77Zm2.34-13.11a33 33 0 0 1 .56 3.28c0-.24.17.27.12.89v.15a5.82 5.82 0 0 0 .07.73c0-.22-.06-.41-.09-.58a14.91 14.91 0 0 1-.25 1.63 159.15 159.15 0 0 0-19.26-1.88 83 83 0 0 0-21.54 2.06c-.11 0 .08 1.23 0 1.25l.3-.06a10.24 10.24 0 0 0 0 1.21c7.82 1.68 15.55 3.7 23.2 6l-.45.34a1.15 1.15 0 0 0 0 .18v.19a38.64 38.64 0 0 1-8.1.66.23.23 0 0 1 .05-.17l-.19.17a38.3 38.3 0 0 1-9.32-1.41 37.52 37.52 0 0 1-8.2-3.36 16.47 16.47 0 0 1-6.19-5.33 14 14 0 0 0 1-2.6 13.38 13.38 0 0 1 1.15-3.35c.74-1.15 1.74-2.1 2.55-3.2a7.18 7.18 0 0 0 1.45-4.29h.19c-.1 0 .11-1.22 0-1.25l-.37-.09c-.05-.15-.09-.3-.15-.44a1.38 1.38 0 0 1 0 .4 34.29 34.29 0 0 0-8.91-1.08 36 36 0 0 0-4.75.4c-.79.13-1.57.28-2.34.46-.25 0-.58.18-.92.29l-.77-.32c.05 0 0 .22 0 .46h-.18a.3.3 0 0 0 0-.13c-.06-.14-.15 0-.18.06a4.35 4.35 0 0 0 0 1.25 1.59 1.59 0 0 0 1.14-.07c4.71 2 7.53 6.67 9.15 11.38.22.64.43 1.29.62 1.93.08.3.15.64.26.94-2.94 4-8.33 6-13.09 6.78a23.47 23.47 0 0 1-7.8 0 18.44 18.44 0 0 1-3.79-1.08c-.3-.12-.78-.29-1.26-.5a.18.18 0 0 0 .07 0 1.09 1.09 0 0 0 0-.18v-.88a1.34 1.34 0 0 1 0-.19 5.6 5.6 0 0 1-.92.55.61.61 0 0 0 .08-.3c-.05.19-.31.19-.15-.54 0 0 .06.08.08.13a.84.84 0 0 1 .07.26.17.17 0 0 1 0 .07 2.54 2.54 0 0 0 0-.39 2.39 2.39 0 0 0-.25-1.49 1.45 1.45 0 0 0-.56-.45c1.24-.21 2.47-.45 3.7-.65A78.28 78.28 0 0 1 364.2 109v.26a1.21 1.21 0 0 1 0 .18 7.17 7.17 0 0 0 .8-.44 23.86 23.86 0 0 1 3.78.27s0-.77 0-1.1c.53.15 1.05.31 1.57.49-.12 0 .13-1.21 0-1.25a43.06 43.06 0 0 0-7.86-1.72 7.09 7.09 0 0 1 1.26-.84l4.68 1.66c-.12 0 .14-1.2 0-1.25l-3.18-1.13V103.02a7.09 7.09 0 0 0-1.49.58l-4.44-1.6a9.51 9.51 0 0 0 2.4-4 34.72 34.72 0 0 0 2.33-7.55v-.4a6.12 6.12 0 0 1 0 2.13 20 20 0 0 0 .31-5.13 11.75 11.75 0 0 0-1-4.92c-1.61-3.46-4.67-6.57-7.49-9.07s-6-3.82-9.43-2.2c-3.22 1.52-5.51 4.73-7.08 7.83a26.19 26.19 0 0 0-2.72 11.76v2.65c0 .54 0 .72 0 0a24.44 24.44 0 0 1 3.61-12.33c1.86-3 4.68-6.37 8.45-6.84a7.39 7.39 0 0 1 4.77 1.07l-.37.48a22.35 22.35 0 0 0-1.83 2.69 22 22 0 0 0-2.39 6.06 27.92 27.92 0 0 0-.5 6.52v.24a.58.58 0 0 0 0 .15 15 15 0 0 0 2.06 7.69l-7.78-2.76c-8.55-3-17.05-6.35-25.75-8.93a119 119 0 0 0-29.91-4.4c-.1-.64-.21-1.29-.29-1.94 0-.47-.1-.94-.14-1.41v-.43c.07-.5 0-1.2.07-1.58s.1-1 .16-1.45c.12-1 .27-1.92.43-2.88.67-3.88 1.52-7.73 2.3-11.59 1.41-7 2.75-14.07 4.28-21.07 2.34-10.69 5.49-21.79 12-30.64A115.4 115.4 0 0 0 300 32a83.85 83.85 0 0 0-.61 12.77A51.77 51.77 0 0 0 301 56.94a38.82 38.82 0 0 0 6.14 13.23 1.3 1.3 0 0 1-.08-.66c0-.22 0-.45.05-.67a2.4 2.4 0 0 1-.05.67 23.3 23.3 0 0 1 6-10.59 20.74 20.74 0 0 1 7-4.47 37.79 37.79 0 0 0-2.77 6.68 2.06 2.06 0 0 0 0 .55v2.66a2.46 2.46 0 0 1 0 .54c.07-.24.17-.48.25-.72v.41a2.58 2.58 0 0 1 0 .55A12.79 12.79 0 0 1 325.2 63c-.44.55-.85 1.11-1.25 1.64a2.58 2.58 0 0 0 0 .55V67.84c0 .1.07.48 0 .55a16.89 16.89 0 0 1 3.68-4 3.41 3.41 0 0 1 1.6-.55 11.24 11.24 0 0 1 2.06 1v-1.51a2.69 2.69 0 0 0 0-.34v-1.32c0-.14.05-.44 0-.55a2 2 0 0 0-2.05-1 12.94 12.94 0 0 0-10.31.48 37.43 37.43 0 0 1 3.56-6.4 1.64 1.64 0 0 0 0-.5l.38-.1a14.43 14.43 0 0 0 0-1.88c0-.14-.08-1.86 0-1.87a20.72 20.72 0 0 0-9.82 5.32 23.38 23.38 0 0 0-6 10.6 1.61 1.61 0 0 0-.06.44 41.8 41.8 0 0 1-7.32-20.7c-.09-1-.1-2-.18-3v-.66c0-.48 0-1 .07-1.44.15-2.24.43-4.48.8-6.7a99.21 99.21 0 0 1 3-12.5c1.39-4.65 3-9.22 4.69-13.77a1.67 1.67 0 0 0 .07-.42c.61-.68 1.24-1.35 1.9-2A.24.24 0 0 0 310 5c3.45.16 5.94 2.81 7.89 5.4a62.74 62.74 0 0 1 5.66 9.18c3.36 6.53 5.88 13.43 8.82 20.14a101.51 101.51 0 0 0 5.05 10.12c0 .34.23 1.63 0 1.85 5.54-6 14.21-8.18 22.06-9.11a39.26 39.26 0 0 1 12.24.27 24.89 24.89 0 0 1 5.51 1.75 21.43 21.43 0 0 1 2.7 1.48 4.57 4.57 0 0 1 1.83 1.62 1.83 1.83 0 0 1 0 .65.92.92 0 0 0 .14-.39l1-.71q12.24-10.51 23.42-22.16 2.78-2.88 5.47-5.84L412 19a98.79 98.79 0 0 0-4.68 12 99.8 99.8 0 0 0-4.55 25.28c-.1 2-.13 4-.13 6.08 0-.36.07-.69.07-.87 0-1.21.1-2.42.19-3.63q.24-3.6.77-7.17a99.36 99.36 0 0 1 7.9-27c1.49-3.28 3.3-7.14 7.08-8.19.11 0 .12-.45.08-1a3.49 3.49 0 0 1 3.39 1.67c1.23 2 1.3 4.82 1.49 7.07.07.86.12 1.72.16 2.58v1.69c0 1.38-.1 2.75-.17 4.12-.16 2.8-.38 5.59-.56 8.39-.34 5.28-.62 10.57-.71 15.86-.07 4.23-.08 8.46.07 12.7a124.86 124.86 0 0 0 1.82 18.1c.5 2.7 1.19 5.34 1.91 8l-.43.07-1 .16-1.16.2-2 .35-2.24.4c-1.89.35-3.79.72-5.68 1.1h-.12v-.07l-7.39 1.39c.11-.65.18-1.27.26-1.81a35 35 0 0 0 .28-4.68 6.89 6.89 0 0 0 0-1.7 27.54 27.54 0 0 0-.48-5.51 17.57 17.57 0 0 0-3.33-7.19A7 7 0 0 1 407 79.3a24.71 24.71 0 0 1 3.83 4.8 28.63 28.63 0 0 1 2 3.34c0 .37-.09.72-.09.88 0 .34-.19 1.61 0 1.87.43.54.64.15.73-.33a1.42 1.42 0 0 0 0-.2v.22-.93a26.16 26.16 0 0 0 0-2.8V86c-.29-2.23-2-4.57-3.22-6.38-2.08-3-4.79-6.42-8.75-6a7.82 7.82 0 0 0-.8.13c-3.83.87-6.76 4.3-8.57 7.6a22 22 0 0 0-2.54 8.53c-.07.67-.1 1.34-.11 2 0 1.73 0 3.44.12 5.13h-.12c.36.55.77 1 1.17 1.55v-.07h.13a10.18 10.18 0 0 0 2.75 3.32l.29-.09-.28.1-.55.17-.63.22c-.86.29-1.71.6-2.56.93s-1.88.75-2.81 1.16q-.69.3-1.38.63a3 3 0 0 1 1.51-.76s0-.58 0-.63v-.62a3 3 0 0 0-1.75 1 .59.59 0 0 0 0 .18v.9a.15.15 0 0 0 0 .06c-.36.17-.72.32-1.07.5-.17.08.16 1.17 0 1.25a57.1 57.1 0 0 1 5.51-2.41v.46l1.3-.93q1.85-.66 3.72-1.23a9.43 9.43 0 0 0 3.65 1.16 10.75 10.75 0 0 0 3-.1 5.73 5.73 0 0 0 2.73-1.18 3.39 3.39 0 0 0 .67-.83l.23.07a4.42 4.42 0 0 0 .86-1l-.53-.16 6.71-2 .06-.11h.13v.07c0 .02 0 0 0 0l.92-.27q6.51-1.32 13.07-2.38c.67 2.08 1.27 4.23 1.74 6.41Zm-77.05 10a.25.25 0 0 0 0-.07.13.13 0 0 1 0 .06l-.09-.06Zm15.33-4.56.1-.11v-.07c.41.08.81.18 1.22.28-.5-.12-.95-.15-1.39-.17ZM364.11 88a2.56 2.56 0 0 1 .05.27 1.29 1.29 0 0 0 0 .19c-.05-.19-.05-.34-.05-.46Zm28.66 6.32c0-2.76 1.13-5 2.52-5a1.68 1.68 0 0 1 1.26.67 6.83 6.83 0 0 1 1.26 4.33 7.87 7.87 0 0 1-.79 3.63 2.15 2.15 0 0 1-1.73 1.36c-1.39-.03-2.52-2.31-2.52-5.03Z"/>
    <path class="cls-2" d="M350.46 98.85a15 15 0 0 1-2.06-7.69.58.58 0 0 1 0-.15v-.24a27.92 27.92 0 0 1 .5-6.52 22 22 0 0 1 2.39-6.06 22.35 22.35 0 0 1 1.83-2.69l.37-.48a7.39 7.39 0 0 0-4.7-1.02c-3.77.47-6.59 3.8-8.45 6.84a24.44 24.44 0 0 0-3.61 12.33c0 .72 0 .54 0 0v-2.65a26.19 26.19 0 0 1 2.72-11.76c1.57-3.1 3.86-6.31 7.08-7.83 3.45-1.62 6.76-.16 9.43 2.2s5.88 5.61 7.49 9.07a11.75 11.75 0 0 1 1 4.92 20 20 0 0 1-.31 5.13 6.12 6.12 0 0 0 0-2.13v.4a34.72 34.72 0 0 1-2.42 7.48 9.51 9.51 0 0 1-2.4 4l4.41 1.57a7.09 7.09 0 0 1 1.49-.58s0 .58 0 .63v.48l3.18 1.13c.14 0-.12 1.21 0 1.25l-4.68-1.66a7.09 7.09 0 0 0-1.26.84 43.06 43.06 0 0 1 7.86 1.72c.13 0-.12 1.21 0 1.25-.52-.18-1-.34-1.57-.49 0 .33-.06 1.09 0 1.1A23.86 23.86 0 0 0 365 109a7.17 7.17 0 0 1-.75.46 1.21 1.21 0 0 0 0-.18V109a78.28 78.28 0 0 0-10.25 1.27c-1.23.2-2.46.44-3.7.65a1.45 1.45 0 0 1 .56.45 2.39 2.39 0 0 1 .25 1.49 2.54 2.54 0 0 1 0 .39.17.17 0 0 0 0-.07.84.84 0 0 0-.07-.26s-.06-.08-.08-.13c-.16.73.1.73.15.54a.61.61 0 0 1-.08.3 5.6 5.6 0 0 0 .92-.55 1.34 1.34 0 0 0 0 .19v.88a1.09 1.09 0 0 1 0 .18.18.18 0 0 1-.07 0c.48.21 1 .38 1.26.5a18.44 18.44 0 0 0 3.79 1.08 23.47 23.47 0 0 0 7.8 0c4.76-.79 10.15-2.74 13.09-6.78-.11-.3-.18-.64-.26-.94-.19-.64-.4-1.29-.62-1.93-1.62-4.71-4.44-9.35-9.15-11.38a1.59 1.59 0 0 1-1.14.07 4.35 4.35 0 0 1 0-1.25c0-.1.12-.2.18-.06a.3.3 0 0 1 0 .13h.17v-.46l.77.32c.34-.11.67-.24.92-.29.77-.18 1.55-.33 2.34-.46a36 36 0 0 1 4.75-.4 34.29 34.29 0 0 1 8.91 1.08 1.38 1.38 0 0 0 0-.4c.06.14.1.29.15.44l.37.09c.11 0-.1 1.22 0 1.25h-.19a7.18 7.18 0 0 1-1.41 4.29c-.81 1.1-1.81 2-2.55 3.2a13.38 13.38 0 0 0-1.35 3.33 14 14 0 0 1-1 2.6 16.47 16.47 0 0 0 6.19 5.33 37.52 37.52 0 0 0 8.2 3.36 38.3 38.3 0 0 0 9.32 1.41l.19-.17a.23.23 0 0 0-.05.17 38.64 38.64 0 0 0 8.1-.66v-.19a1.15 1.15 0 0 1 0-.18l.45-.34c-7.65-2.3-15.38-4.32-23.2-6a10.24 10.24 0 0 1 0-1.21l-.3.06c.08 0-.11-1.22 0-1.25a83 83 0 0 1 21.54-2.06 159.15 159.15 0 0 1 19.26 1.88 14.91 14.91 0 0 0 .25-1.63 5.78 5.78 0 0 1-.08-1.19 33 33 0 0 0-.56-3.28c-.47-2.18-1.05-4.33-1.64-6.48q-6.56 1-13.07 2.38l-.92.27h-.16l-6.71 2-.56 1.14a3.39 3.39 0 0 1-.67.83 5.73 5.73 0 0 1-2.73 1.18 10.75 10.75 0 0 1-3 .1 9.43 9.43 0 0 1-3.65-1.16q-1.87.57-3.72 1.23l-1.3.93v-.46a57.1 57.1 0 0 0-5.51 2.41c.16-.08-.17-1.17 0-1.25.35-.18.71-.33 1.07-.5a.15.15 0 0 1 0-.06v-.89a.59.59 0 0 1 0-.18 3 3 0 0 1 1.75-1v1.25a3 3 0 0 0-1.51.76q.69-.33 1.38-.63c.93-.41 1.86-.8 2.81-1.16s1.7-.64 2.56-.93l.63-.22.54-.18a10.18 10.18 0 0 1-2.75-3.32h-.13v.07c-.4-.51-.81-1-1.17-1.55h.12c-.14-1.69-.15-3.4-.12-5.13 0-.67 0-1.34.11-2a22 22 0 0 1 2.54-8.53C394 78 397 74.6 400.8 73.73a7.82 7.82 0 0 1 .8-.13c4-.42 6.67 3 8.75 6 1.24 1.81 2.93 4.15 3.22 6.38v.15a26.16 26.16 0 0 1 0 2.8v.93-.22a1.42 1.42 0 0 1 0 .2c-.09.48-.3.87-.73.33-.21-.26 0-1.53 0-1.87 0-.16.05-.51.09-.88a28.63 28.63 0 0 0-2-3.34A24.71 24.71 0 0 0 407 79.3a7 7 0 0 0-4.18-1.87 17.57 17.57 0 0 1 3.33 7.19 27.54 27.54 0 0 1 .48 5.51 6.89 6.89 0 0 1 0 1.7 35 35 0 0 1-.28 4.68c-.08.54-.15 1.16-.26 1.81l7.39-1.39 5.8-1.05 2.24-.4 2-.35 1.16-.2 1-.16.43-.07c-.72-2.64-1.41-5.28-1.91-8a124.86 124.86 0 0 1-1.82-18.1l-1 3c-1.79-2.19-4.84-1.33-7.1-.55a13.14 13.14 0 0 0 0-1.87 10.57 10.57 0 0 1 0-1.88c.5-.17 1.05-.35 1.61-.49-1.8-.79-3.72-.45-5.64 0 .06 0 0-1.72 0-1.87a14.43 14.43 0 0 1 0-1.88c-.24-.13-1 1.23-1.22 1.71a.59.59 0 0 0 0 .08.46.46 0 0 0 0 .08 2 2 0 0 0 0-.55v-2.66a2.76 2.76 0 0 1 0-.5c-.42.25-.83.5-1.23.78-1.77 1.25-3.57 2.87-4.1 5.05v.12c-.05.45-.49.49-.77.19a1.58 1.58 0 0 1-.21-1v-4.04c0-2 0-4.05.13-6.08A99.8 99.8 0 0 1 407.28 31 98.79 98.79 0 0 1 412 19l-.17.19q-2.7 3-5.47 5.84-11.2 11.67-23.46 22.19l-1 .71a.92.92 0 0 1-.14.39 1.83 1.83 0 0 0 0-.65 4.57 4.57 0 0 0-1.76-1.59 21.43 21.43 0 0 0-2.7-1.48 24.89 24.89 0 0 0-5.51-1.75 39.26 39.26 0 0 0-12.24-.27c-7.85.93-16.52 3.07-22.06 9.11-6.15 2.37-6.15 9.43-6.15 9.43V63a2.69 2.69 0 0 1 0 .34v1.54a11.24 11.24 0 0 0-2.06-1 3.41 3.41 0 0 0-1.6.55 16.89 16.89 0 0 0-3.68 4c.06-.07 0-.45 0-.55V65.23a2.58 2.58 0 0 1 0-.55c.4-.53.81-1.09 1.25-1.64a12.79 12.79 0 0 0-7.62 2.09 2.58 2.58 0 0 0 0-.55v-.41c-.08.24-.18.48-.25.72a2.46 2.46 0 0 0 0-.54v-2.68a2.06 2.06 0 0 1 0-.55 37.79 37.79 0 0 1 2.77-6.68 20.74 20.74 0 0 0-7 4.47 23.3 23.3 0 0 0-6 10.59 1.3 1.3 0 0 0 .08.66A38.82 38.82 0 0 1 301 56.94a51.77 51.77 0 0 1-1.54-12.21A83.85 83.85 0 0 1 300 32a115.4 115.4 0 0 1 5.79-22.21c-6.55 8.85-9.7 20-12 30.64-1.53 7-2.87 14-4.28 21.07-.78 3.86-1.63 7.71-2.3 11.59-.16 1-.31 1.92-.43 2.88-.06.49-.12 1-.16 1.45s0 1.08-.07 1.58v.43c0 .47.09.94.14 1.41.08.65.19 1.3.29 1.94a119 119 0 0 1 29.93 4.42c8.7 2.58 17.2 5.89 25.75 8.93l7.78 2.76m17.21 3a2.18 2.18 0 0 1 1.53-.71s0 1.25 0 1.25a2.18 2.18 0 0 0-1.53.71v-1.07a1.07 1.07 0 0 1 .02-.18Zm19.8 6.61a1.15 1.15 0 0 1 0 .18l-1.78 1.46a1.15 1.15 0 0 0 0-.18v-.89a1.15 1.15 0 0 1 0-.18l1.78-1.46a1.15 1.15 0 0 0 0 .18Z"/>
    <path class="cls-2" d="m422.38 68.61-1 3s.21-2.5 1-3Z"/>
    <path class="cls-6" d="M178.18 327.54a28 28 0 0 0-3 4.34M170.86 368.94s-.25-1.36-.5-3.62"/>
    <path d="M420.29 127.1c-.6 1.07-19.81 35.48-43.82 39.71-24.39 4.31-75.84-42.07-75.84-42.07l.69.27a103.13 103.13 0 0 1 13.48 7.1c8.85 5.41 17.24 11.58 26.48 16.34 5.08 2.62 10.36 4.87 15.66 7 5.09 2 10.26 4.46 15.65 5.57 10.4 2.13 19.2-3.84 26.49-10.58a184.46 184.46 0 0 0 21.21-23.34Z" style="fill:#ddd6d2"/>
    <ellipse class="cls-8" cx="358.25" cy="93.42" rx="2.52" ry="5"/>
    <path class="cls-8" d="M397.81 94.28a7.87 7.87 0 0 1-.79 3.63 2.15 2.15 0 0 1-1.73 1.36c-1.39 0-2.52-2.24-2.52-5s1.13-5 2.52-5a1.68 1.68 0 0 1 1.26.67 6.83 6.83 0 0 1 1.26 4.34Z"/>
  </g>
</svg>
