<svg version="1.2" baseProfile="tiny" xmlns="http://www.w3.org/2000/svg" viewBox="0 0 365.3 498.2" overflow="visible" xml:space="preserve">
  <path d="M170 101.6c-.8-6.2-2-13.7-7.3-17.5-.9-.6-1.8-1.1-2.9-1.5-3.4-1.2-6.9-.4-9.5 2.1-3 2.9-4.1 7.1-5.1 10.9-.2.8.2 1.7 0 2.5 1-3.9 2.1-8 5.1-10.9 2.6-2.5 6.1-3.3 9.5-2.1.2.1.3.2.5.2-1.6 1.5-2.3 4-2.8 6.1-.9 3.5-1.1 7.1-1.1 10.7 0 2.9.3 6.2 2.7 8.2 2.6 2.2 6.7 1.7 8.9-.8 1.6-1.8 2-4.5 1.8-7 .1.6.2 1.1.2 1.7-.1-.9.1-1.8 0-2.6zm-13.6.1v-.5.5zm13 2.5c-.2.8-.6 1.5-1 2.2-.9 1.3-2.3 2.3-4 2.6-3.3.7-6.3-1.2-7.4-4.4-.2-.7-.4-1.5-.5-2.2 0-.2-.1-.5-.1-.7v-.7c0-.5.1-1.1.1-1.1.2-2 .5-4.1 1-6.1.7-2.8 1.8-6.7 5.2-7.3 4.4 3.1 6 8.8 6.8 14.1 0 .7-.2 1.5 0 2.2 0 .2.1.3.1.4-.1.4-.1.7-.2 1z"/>
  <path d="M169.6 103.3c0 .3-.1.6-.2.9-.2.8-.6 1.5-1 2.2-.9 1.3-2.3 2.3-4 2.6-3.3.7-6.3-1.2-7.4-4.4-.2-.7-.4-1.5-.5-2.2 0-.2-.1-.5-.1-.7v-.7c0-.5.1-1.1.1-1.1.2-2 .5-4.1 1-6.1.7-2.8 1.8-6.7 5.2-7.3 4.4 3.1 6 8.8 6.8 14.1 0 .7-.2 1.5 0 2.2 0 .2.1.4.1.5zM216.6 106.1v-.4c.1.1.1.3 0 .4zM174.3 115.7v.2l-2.4 2.1v-1.3l2.4-2.1v1.1zM188.3 116.9c-.6.7-1.3 1.4-1.9 2.1v-1.2c.6-.7 1.3-1.4 1.9-2.1V116.9zM194.3 111.8v.2c-.7.5-1.3 1-2 1.5v-1.2c.7-.5 1.3-1 2-1.5V111.4c.1.1.1.2 0 .4zM164.7 61.8V65c-.3-.9-.8-1.6-1.5-2.3h-.4c-.8.1-1.6.3-2.4.6-1.7.5-3.4 1.3-4.9 2.3V62c1.2-.8 2.4-1.4 3.8-1.9-.5-.2-1-.5-1.5-.7-2.7-1-6.6-1.1-7.9 2.1v-3.6c1.3-3.2 5.2-3.2 7.9-2.1 1.9.8 4 1.8 5.5 3.4.5 0 1.1.2 1.4.7.1.1 0 .4 0 .5V61.8zM222.3 63.5c0 .6-.1 1.3 0 1.9-.5-2.5-3.7-2.9-5.8-2.6-.9.1-1.8.4-2.6.7 1.8 1.7 3.1 4.1 5.7 4.8v1.8c0 .2-.1 1.9 0 1.9-3.3-.9-4.5-4.9-7.7-6.1v-1.4c-.9.6-1.8 1.3-2.5 2.1.1-.1 0-.5 0-.5v-3.2c1.9-2.1 4.4-3.4 7.2-3.8 2.1-.3 5.3.1 5.8 2.6 0 .5-.1 1.2-.1 1.8zM138.3 194.2c-.1.3-.5.5-.8.4-.4-.1-.7-.5-.8-1-.3-1.1-.3-2.3-.3-3.4-.2-3.1-.2-6.2 0-9.2v4.8c0 .8.1 1.7.2 2.5.1.7 0 1.6.5 2.2.3.4 1.1.5 1.3-.1v3.2c-.1.2-.1.5-.1.6zM160.2 184.6c-2.3 3.1-4.3 6.5-5.7 10.2v-3.7c.9-2.1 1.9-4.2 3-6.1-5.1 2.2-9.4 6-12.1 10.8v-3.7c3-5.4 8.1-9.6 14-11.5-.1 0 0 1.1 0 1.6.3-.4.5-.8.8-1.2v3.6zM64.8 202.7c0 .7-.2 1.3-.5 2-.5.8-1.1 1.5-1.8 2.2-.7.6-1.4 1.4-2.4 1.5-.8.1-1.6-.4-2.1-1.1-.7-1-.5-2.4-.5-3.6 0-1.1.2-2 .7-3 .8-1.4 2.2-2.5 3.8-2.9h.1c.1 0 .2-.1.3-.1.6 0 1.1.3 1.5.8.8.8.8 1.8.8 2.8.2 1.3.2 1.8.1 1.4zM235.8 199.6v3.2c-2.2-1.3-3.9-3.4-4.7-5.8-.4-1.2-.6-2.5-.6-3.8v-1.9c0-1.2 0-2.5.3-3.7v1.8c0 .6.1 1.3 0 1.9v.3c.2 1 .5 2 1 2.9.9 1.9 2.4 3.5 4.2 4.5-.2.1-.2.5-.2.6zM229.7 191.6c-.7 1.1-1.1 2.2-1.4 3.5.1.5.2 1 .4 1.4v3.6-.2c-.1-.2-.1-.4-.2-.6 0-.1-.1-.3-.1-.4 0-.1-.1-.3-.1-.4 0-.1 0-.3-.1-.4 0-.2 0-.4-.1-.6v-1s-.1-.7-.1-1.4v-2.4c.1-1.8.6-3.5 1.6-5v3.5c.1.3.1.4.1.4zM222.6 285.4c.1 0-.2 3.7 0 3.8 0 0 .3-1.4.8-3.7-.3-.1-.5-.1-.8-.1zm-34-165.3zm-60.4 218.7c-.5-.8-.8-1.5-1-2.4.2.9.6 1.7 1.1 2.5v-.7c-.1 0-.1.5-.1.6z"/>
  <path d="M365 438.7c-1.2-12.6-7.5-24.9-15.7-34.4-9-10.3-20.9-17.8-33.9-21.9-8.8-2.8-18-4.1-27.2-4.1 0-.2 0-.4-.1-.6-.1-.4-.1-.9-.2-1.3v.5c-2.1-10-6.8-19.3-13.5-27 0-.5.1-1.5 0-1.6-3.1-2-5.7-4.8-8.8-7-2.9-2-6.1-3.5-9.5-4.3 3.2-5.4 5.7-11.4 6.2-17.8.5-6.6 0-13.4-3.7-19.1-1.5-2.4-3.5-4.4-5.8-6 2.4-2.1 4.9-4 7.6-5.6 1.7 0 3.5-.4 3.8-2.1.2-1.2-.2-2.5 0-3.8-.3 1.4-1.6 1.9-3 2 0-.2 0-.4.1-.5-.3.2-.5.4-.8.5-.5 0-1 0-1.5-.1-2.3-.2-4.6-1-6.6-2.3-2-1.3-3.6-3.1-4.7-5.2-.5-1-.9-2.1-1.2-3.2-.1-.3-.1-.5-.1-.8 5-8.1 9.2-17 12.9-25.8 2.2-5.3 4.3-10.6 6.2-16 1.4 1.7 2.7 3.4 4.3 4.8 2.9 2.4 6.3 2.9 9.9 2.3 1.7-.3 3.7-.9 3.9-2.8v-.9c4 1.6 8.9.3 11.2-3.6 1-1.7 1.3-3.5 1.3-5.4v-.2c.1-.1.1-1.5 0-1.8v-1.4c0-.4-.1-.7-.2-1 .5-.7 1.3-1.1 2-1.7 1-.9 2.1-1.8 2.8-2.9 1.4-2.1 1.2-4.6 1.1-7-.2-2.7-2.5-4.4-4.7-5.7-2.7-1.5-5.6-2.3-8.6-2.6v.1c-3.4-2.1-6.8-4.4-9.9-6.9-3.3-2.6-6.2-5.6-9.4-8.4-2.7-2.4-6-4.6-9.8-3.8-4 .9-6.9 4.5-9.7 7.2l-1 1c-.3-3.2-1-6.3-2.4-9.3-1.2-2.7-2.7-5.2-4.3-7.7-.8-1.3-1.7-2.7-2.5-4-.4-.6-.7-1.1-1.1-1.7.9-1.1 1.8-2.1 2.9-2.9 1.7-1.3 3.8-2.2 5.2-3.9v-.2c.2-.2.5-.4.7-.7v-3.2c0-.1-.1-.5 0-.5-1.1 1.4-2.8 1.9-4.5 1.8-1.9-.2-3.5-1.3-4.7-2.6-1.4-1.5-2.5-3.3-3.3-5.2-.4-1-.8-2-1-3.1.1-.1.2-.1.3 0v-1c1.8-1 3.5-2.2 4.9-3.6 1.2-1.2 2-2.6 2.5-4.1.1 0 .2.1.3.1 15.8 7.1 31 15.8 44.4 26.8 7.3 6.1 14.1 12.9 19.9 20.4-.2-.3.2-1 0-1.2-10.4-13.4-23.6-24.4-38-33.4-8.4-5.3-17.3-9.8-26.4-13.9.2-.9.4-1.8.5-2.8.2-3.1.1-6.2-.7-9.2-.6-2.3-1.5-4.5-2.2-6.8 14.7 1 29.3 3.1 43.6 6.4 9 2.1 17.8 4.6 26.5 7.5-.1 0 .1-1.2 0-1.2-16.4-5.5-33.3-9.6-50.4-11.9-6.7-.9-13.4-1.6-20.1-2.1-.1-.5-.3-.9-.4-1.4 1.1-1.9 2.1-3.7 3.1-5.6 15.5-.6 31 0 46.4 1.8 9.3 1.1 18.5 2.7 27.7 4.7-.1 0 .1-1.2 0-1.2-16.1-3.5-32.5-5.7-49-6.5-8.1-.4-16.3-.4-24.4-.1 5.5-10.3 10-21.1 13.7-32.2.3-.2.5-.7.5-.9.2-1 .1-2.1.1-3.1V72v.1c-.2-2-.7-4-1.2-5.9-1.1-5.2-2.3-10.3-3.7-15.4-2.7-10.3-5.8-20.5-9.4-30.5-2-5.7-4.2-11.2-6.4-16.8.2.4 0 1.4 0 1.9 0 .3-.1.8-.1 1.2v-.7c0-.4-.2-1.6 0-1.9-4.9 6.5-9.6 13.2-14 20-2.1 3.2-4 6.4-6.1 9.5-1.6 2.4-3.5 4.6-6.1 5.9 0-.1 0-.2-.1-.3-15.5-7.6-33.6-8.9-50-3.8 0-.1 0-.2-.1-.3C149 25 142 12.3 134.5.2c0-.1 0-.1.1-.2l-.1.1c0-.1-.1-.2-.2-.2 0 .1.1.2.1.3l-.2.2c0-.3 0-.5.1-.7-.2.4-.3.8-.5 1.1-4.4 4.3-7.2 9.9-9.3 15.6-2.4 6.7-3.9 13.7-5.4 20.7-1.7 7.6-3.4 15.4-3.5 23.3-.1 3.4 0 6.8.3 10.2.4 4 1.2 7.9 2.2 11.8 1.8 7.6 3.9 15.1 5.9 22.7-1.2-.1-2.5-.2-3.7-.3-16.5-1.1-33.1.1-49.2 3.6-9.1 2-18.1 4.7-26.8 8.1-.1.1.1 1.2 0 1.2 15.4-6.1 31.7-9.9 48.2-11.4 10.6-1 21.2-.9 31.8 0 .1.5.2.9.4 1.4-.2 1.8-.5 3.6-.7 5.4-11.9-.2-23.9-.1-35.7 1.7-7.2 1.1-14.3 2.9-21.1 5.7-.2.1.1 1.2 0 1.2 12.1-4.9 25.1-6.7 38.1-7.3 6.2-.3 12.4-.3 18.5-.2 0 .4-.1.8-.2 1.2-.3 2.2-.4 4.3-.5 6.5-6.8 1.6-13.4 3.6-20 5.8-19.8 6.6-38.8 15.5-56.5 26.4-9.9 6.2-19.4 13-28.5 20.4-.2.2.2 1.1 0 1.2 16.1-13.2 33.8-24.5 52.5-33.6 16.6-8.1 34.3-14.7 52.3-18.9v2.4c0 3.3.4 6.7 1.9 9.7 1.4 2.8 3.5 5.1 5.8 7 1.2 1 2.5 1.9 3.7 2.7-.8 4.9-2.7 10.1-6.4 13.4-1.9 1.7-4.4 2.7-7 2.5-1.2-.1-2.5-.5-3.5-1.2-.4-.3-.7-.6-1-1v-.1c0-.2 0-.4-.1-.6 0-.1.1-.1.1-.2.2-.2 0-1.6 0-1.9v-1.3c0-.1-.1-.5 0-.5-1.1 1.2-1 2.7-1 4.2 0 1.6-.1 3 .9 4.2 0 .3.1.5.1.8.3 1.4.9 2.8 1.7 4 1 1.5 2.4 2.8 3.9 3.8-.8 1-1.6 1.9-2.3 3-1.5 2.1-2.7 4.3-3.5 6.8-.7 2-.9 4.1-.9 6.2v.8c0 1.5 0 3 .2 4.5-5.2-8.4-11-16.5-21.1-19-8-1.9-16.3-.4-24.2 1.1v-.1c-4.2.7-8.3 1.8-12.3 3.2-3.8 1.4-7.8 3.1-11.1 5.4-3.1 2.1-5.2 5.2-5.6 8.9-.2 1.6-.1 3.4-.1 5s.3 3.2 1 4.6c1.4 3 4.2 5.2 7.4 5.9v.2c1.5 0 1.9 2 2.4 3.1.8 1.5 2.2 2.7 3.8 3.3 3 1.2 6.4.6 9.4-.3v.8c.4 3.2 4.1 3.4 6.5 2.7 3.2-1 6.3-2.5 9.4-3.9 1.5-.7 3.1-1.4 4.6-2.2 0 .2 0 .5.1.6 5.7 10.9 11.5 21.7 17.3 32.5 3 5.4 5.9 10.8 8.9 16.2.1.1.2.3.2.4-1.9 6.4-4.5 13.5-9.4 18.3-4 4-10.7 6-15.6 2.6v-1c-.3.1-.6.2-.9.4-.1 0-.2 3.6 0 3.8.9.8 1.8 1.3 2.8 1.7v.1c.8 2.4 2.8 4.2 5 5.3 1.7.9 3.6 1.5 5.5 1.8-2 2.7-3.5 5.6-4.7 8.8-1.6 4.3-2.9 8.8-3.6 13.3-.4 2.1-.5 4.2-.5 6.4 0 2.1 0 4.2.4 6.3.5 2.7 1.8 5.3 3.7 7.2-1.1.2-2.2.5-3.3 1-3.3 1.5-6 4-7.7 7.2-.2 0-.4.1-.7.1-.1 0 0 1.7 0 1.9v1.4c-2.6 2-4.8 4.9-6.4 7.5-3.7 5.7-6.5 11.9-8.5 18.4-1.1 3.6-1.8 7.2-2.2 10.9-24 4.3-47.3 19.8-59.4 42-3.2 5.9-5.6 12.5-6.3 19.2-.5 5.3-.5 11.1 1.1 16.2 2.1 6.7 6.9 11.5 12.2 15.9 5.7 4.6 11.5 9.2 17.9 12.8 6.7 3.8 14 5.6 21.7 6.5 7.8.8 15.8 1.2 23.8 1.4 8 .2 16.1-.2 24-1.5 7.8-1.3 15.5-3.5 23-5.9 15.1-4.9 30-10.3 45.4-14.5 15-4.2 30.2-7.8 45.4-11.4v.3c1.5-.6 3.1 1.7 4 2.6l3.7 3.7c2.7 2.6 5.3 5.1 8.1 7.6 5.5 4.8 11.3 9.2 17.8 12.6-.1 0 0-.6 0-1.1 1.8 1.5 4.6 1.9 6.7 2.3 2.1.4 4.1.5 6.2.6 1.9 0 4 .1 5.8-.5.9-.3 1.5-.8 2.1-1.4 6.8 2.2 14.2 2.7 21.3 1.1 1-.2 2.2-.5 3.3-.9v.1c3.4.4 6.9.2 10.3-.6 2.4-.6 6.3-1.4 6.6-4.4.1-1 0-2 0-2.9 0-.6 0-1.2-.1-1.9-.3-1.6-1.4-2.9-2.3-4.2-1.6-2.3-3.1-4.6-4.7-6.9 0-.2 0-.3-.1-.4-3.8-5.5-9.4-9.6-15.7-11.8v-.2c-2.8-1.9-5.4-4.1-7.9-6.4 10.4-1.1 20.9-1.4 31.2 0 7.3 1 14.4 3 21.2 6 6 2.7 12.6 6.2 19.4 5.7 6.2-.5 10.6-4.7 12.4-10.5 1.4-4.6 1.3-9.9.9-14.7zM116.9 158.9l-.1-.1s-.1-.1-.1-.2c.1-.1.1-.2.2-.2v.5zm147.3 185.4c1.4.9 2.7 1.9 4 3-3.3.7-6.3 3.3-8.7 5.5v3.2c0 .1.1.5 0 .5 3.6-3.3 8.7-7.5 13.9-4.8v-.2c.1 0 .1.1.2.1 0 .5-.1 1.1.1 1.3 6.5 7.2 11.2 16 13.7 25.4-5.2.1-10.4.5-15.6 1.3-15.8 2.5-31.1 7.8-46.2 13-15 5.2-29.7 11-44.2 17.3-4-6.1-5.6-13.4-5.8-20.6v-1c0-.5 0-.9.1-1.4 0-1.1.1-2.2.2-3.2l.6-6c.1-.9.2-1.9.3-2.8 0-.2 0-.4.1-.6 0-.3-.1-.9.1-.3.2.5.2 1.4.3 1.9.3 2.4.7 4.7 1 7.1.6 4.7 1.2 9.4 1.8 14.2.3 2.4.5 4.7.8 7.1 0 .1 0 .7.1.7l.3-.8c.2-.4.3-.8.5-1.1l1.5-3c3.7-7.2 8.3-13.9 13.6-19.9 3-3.4 6.2-6.5 9.6-9.5 2.2-2 4.6-4.2 5.8-6.9 1.1-2.1 1.9-4.2 2.4-6.5.7-2.9.7-5.8.7-8.8 0-2.8-.3-5.6-1-8.3-.1-.5-.3-1-.5-1.5l3.6 1.5c1.9.9 3.8 1.8 5.5 3.1.8.6 1.6 1.3 2.2 2.1-.1.1-.3.2-.4.3-.2.2 0 1.6 0 1.9 0 .2.1.8.1 1.3-.1 0-.1.1-.2.2-.2.1 0 1.6 0 1.9v1.9c1.6-1.2 1.8-2.9 1.8-4.7 7.7-6 17.6-9.3 27.1-7.9 0 .4 0 .8-.1 1l.6-.9c3.4.6 6.9 1.8 10.1 3.9zm-38.1 4.1.2-.2c.1 1-.2 1.3-.2.2zm20.3-70.8c.6 2.7 2 5.2 4.1 7.2 1.6 1.5 3.5 2.5 5.5 3.2-2 1.5-3.9 3.1-5.6 4.9-.2.2-.1 3.7 0 3.8 7 3.1 11.1 10.4 11.9 17.8 0 .3 0 .7.1 1v.6c-.1 1.1-.3 2.2-.5 3.4-.4 2.1-1 4.1-1.8 6.1-1.5 4-3.6 7.7-6 11.2-6.4-1.1-13-.2-19 2.5-2 .9-3.9 2-5.7 3.1 7-9.6 9.8-21.9 8.5-33.8-.3-2.3-.9-4.8-2.3-6.7 2.1-1.4 4.1-2.8 6.1-4.4.1-.1.1-.5.1-.9.5-.3.8-.7 1.1-1.2v-3.2c0-.1-.1-.5 0-.5-1 1.8-3.2 2.2-5.1 1.7-2.3-.6-3.8-2.5-4.4-4.8-.1-.4-.2-.7-.2-1.1v-.3c5-2.6 9.2-7.2 12.2-12 .3-.4.5-.8.8-1.2v.1c-.1 1 0 2.3.2 3.5zm-5.3-150c.4 1.3.8 2.7 1.1 4.1 0 .2 0 .4.1.6-.1.6-.2 1.2-.4 1.7-.3 1.1-.8 2.1-1.3 3-7.2-3.2-14.5-6.1-21.9-8.8-7.9-2.9-15.9-5.6-23.8-8.2v-.5l3.6-.3c4-.3 8.1-.6 12.1-.7 8.1-.3 16.2-.2 24.3.2 1.1.1 2.3.1 3.4.2.7 2.9 1.9 5.8 2.8 8.7zm-3.3-10.1c.2-.3.4-.7.6-1 0 .3-.1.7-.1 1h-.5zM125.2 109v.1-.1c0-.3 0-.5.1-.7v-1.6c5.6.5 11.2 1.3 16.7 2.4 7.1 1.4 14 3.2 20.9 5.4-11.8-.4-23.6-.7-35.4-1-.9 0-1.8 0-2.8-.1.2-1.4.4-2.9.5-4.4zm-1.4 11c.2-1.8.5-3.6.7-5.3 7.1.1 14.2.4 21.2.6 7 .2 14.1.4 21.1.6.5.2 1 .4 1.5.5-.5.6-1.3 1.1-2.1 1.2v1.1c-14.3-1.6-28.7.1-42.8 3.5.2-.7.3-1.4.4-2.2zm1.1 11.1c-.8-1.8-1.2-3.8-1.4-5.7 0-.4 0-1-.1-1.4v-.4c2.7-.6 5.4-1.2 8.1-1.7 12.3-2.3 24.9-3.2 37.4-1.5l-.2.2v1.3l1.5-1.5v-1.3c-.1.1-.2.2-.4.3v-.2c-1.1-.2-2.3-.3-3.4-.4 1-.3 1.9-1 2.4-1.9v-.4h.1c-.1 0 0-.4 0-.7h.9v-1.2c-1 0-2.1-.1-3.1-.1-13.4-4.8-27.4-7.8-41.6-9.2v-.7.5c-1.9-7.2-3.8-14.4-5.7-21.7-.9-3.6-1.8-7.1-2.5-10.7-.3-1.7-.6-3.5-.8-5.2-.1-.9-.2-1.9-.3-2.8 0-.5 0-1-.1-1.4v-.8c.3-7.6 2-15.1 3.6-22.4 1.4-6.4 2.8-12.8 4.9-19 1.6-4.7 3.7-9.3 6.7-13.2-2.5 7.1-4 14.6-4.4 22.1-.4 9.5.1 19.5 5.8 27.5 2.8 4 6.7 7.2 11.4 8.9-.4-.1.4-3.6 0-3.8h-.1v-.2c0-.4.1-.8.2-1.2.1-.8.3-1.7.6-2.5.5-1.7 1.2-3.2 2.2-4.7.6-1 1.3-1.9 2.1-2.7-.2.7-.4 1.5-.6 2.2-.3 1.4-.4 2.9-.4 4.3 0 1.9-.1 3.8.1 5.7-.1-1.2.1-2.5 0-3.8v-.1c0-.5.1-.9.2-1.4.2-1.2.4-2.3.8-3.4.7-2.2 1.8-4.3 3.1-6.2v-.3c.8-.5 1.6-.9 1.7-.3-.1-.5 0-1.3 0-1.9 0-.6.1-1.3 0-1.9-.3-1.2-3.9 2.1-4.4 2.5-1.5 1.5-2.7 3.2-3.6 5-1.7 3.3-2 6.9-2 10.6-7.3-2.6-12.6-9.1-15-16.4-1.5-4.3-2.2-9.1-1.9-13.7.3-4.7 1.1-9.4 2.2-14 1.2-4.7 2.8-9.3 4.9-13.8.3-.2.5-.5.8-.8 7.2 11.7 14 23.8 23.6 33.7v.6c0 .2.1 2.5 0 2.5 16.7-5.6 35.4-4.4 51.2 3.4 0 0-.1-.4 0-.9 2.6-1.3 4.6-3.6 6.2-6 2.1-3.1 4-6.4 6.1-9.5 4.4-6.8 9.1-13.5 14-20 .1-.2.1-.6.1-1 0 .2 0 .3.1.4 0 .1.1.2.1.2v.2c2.4 7.8 3.2 16.1 3.2 24.2 0 8.1.2 16.6-2.1 24.5-1.1 3.8-2.8 7.4-4.8 10.7.1-1 .2-2.3 0-2.3-1.6-.4-2.8-1.5-3.7-2.9-1.1-1.5-2-3.2-2.8-4.9-.8-1.5-1.2-3-1.5-4.6.1-.3.2-.7.3-1 .3-.9.8-1.6 1.4-2.3.2-.2 0-1.5 0-1.9v-1.3c0-.1-.1-.5 0-.5-.3.3-.6.7-.8 1.1v-.3c0-.1-.1-.5 0-.5-1 1.6-1.7 3.4-2.2 5.2-.3 1.2-.4 2.5-.4 3.8 0 3.6 0 7.1 1.5 10.5V61c-.5-1.1-.9-2.3-1.2-3.5-.1-.5-.2-1-.2-1.5.2-1.7.7-3.3 1.3-4.8v1.9c0 1.6.2 3.1.7 4.7.7 2.3 2 4.5 3.2 6.5.9 1.6 2.1 3.1 3.8 3.8 0 .5.1 1.1.1 1.4 0 .4.2 1.5 0 1.9 2.4-3.7 4.2-7.7 5.4-11.9 1.2-4.4 1.6-9 1.8-13.6.3-8.9.6-17.9-.1-26.8-.2-2.2-.4-4.5-.8-6.7 6 15.4 11.1 31.3 15 47.4.6 2.5 1.2 5.1 1.8 7.6.3 1.2.5 2.5.8 3.7.1.6.3 1.2.4 1.8 0 0 0 .1-.1.1v-.1.1c-.2.2-.4.2-.6-.1.2.3 0 1.5 0 1.9-4 11.8-9.1 23.3-15.2 34.3-7.7.4-15.3 1-22.9 1.9-.6.1-1.3.2-1.9.3.1-.3.2-.5.3-.8.6-1.5.7-3 .7-4.6v.1-.7.2c0-1.4-.1-2.7-.4-4.1-.9-6.9-4.3-14.8-12.2-15.7-3.7-.4-6.7 1.2-8.8 4.2-2.4 3.5-4 7.5-4.8 11.6-.2.8.2 1.7 0 2.5.8-4.1 2.4-8 4.7-11.4 2.1-3.1 5.1-4.8 8.9-4.3.4 0 .7.1 1 .2-2.1 2.1-2.8 5.3-3.1 8.3-.1 1.3-.2 2.6-.2 3.9 0 1.8.1 3.5.3 5.2.4 2.5 1.3 5.1 2.9 7.1-5.1.9-10.2 1.9-15.2 3-.1 0 .1 1.2 0 1.2 5.4-1.2 10.8-2.2 16.2-3.2.4.4.7.7 1.2 1 2.9 2 5.8.2 7.6-2.3 8-1.1 16-1.8 24-2.2h.9c-.7 1.2-1.3 2.3-2 3.5-.2.4 0 1.5 0 1.9 0 .3.1 1.1.1 1.6-10.2-.6-20.4-.7-30.6-.2-4.8.2-9.6.6-14.5 1.1-.6.1-1.3.1-1.9.2-.9-.3-1.8-.6-2.8-.9.1 0-.1 1.2 0 1.2s.2.1.3.1c-.3.1-.5.3-.6.7V121v-.1c.1.6.4 1.1.9.6.2-.2-.2-1 0-1.2-.1.1-.3.2-.4.1.1-.1.2-.1.4-.1.3-.1.5-.1.8-.2.5-.1.9-.1 1.4-.1.7.2 1.5.5 2.2.7 0 0-.1.1-.1.2v1.2l1.1-1.1c15.5 5.2 31 10.5 46 17-1.9 2.5-4.7 4.3-7.6 5.7 0-.3 0-.6.1-.7-10 8.3-21.6 14.9-34.4 18-6.7 1.6-13.7 2.2-20.6 1.5-6.8-.6-13.3-2.6-19.4-5.5-6.5-3.1-12.7-7-18-11.9 0-.1 0-.2-.1-.2-5.6-3.5-12.1-7.3-14.8-13.8zM148 60c.1 2-.1 1.2 0 .5V60zm46 59.5-.1.1c-.1 0-.2 0-.2-.1h.3zM92.3 326.8c-.2-.8-.4-1.6-.5-2.4-.1-.5 0-1.1-.1-1.6.2-2.2.7-4.5 1.2-6.6 1.8-7.3 4.2-14.8 9.5-20.4.1-.1.1-.7.1-1.2h.4v-3.8c-2.8 0-5.5-.6-8-2-.6-.3-1.1-.6-1.6-1 3.8.1 7.6-1.7 10.3-4.3 5.1-5 7.7-12.5 9.6-19.2.2-.8 0-1.7-.1-2.6 2.5 4.7 5 9.7 9 13.3 2.5 2.2 5.2 4 7.9 5.9 1.3.9 2.6 1.9 3.8 2.8-1.9 1-4.1 1.7-6.3 1.3-2.7-.5-5.3-2.7-5.4-5.6V283c0 .9.3 1.7.8 2.5 0 1.8.2 3.5.8 5.2.6 1.6 1.5 3.1 2.6 4.4 1.1 1.3 2.4 2.3 3.8 3.1-.9 1.3-1.8 2.7-2.5 4.2-1.5 3.2-2.6 6.6-3 10.1-.4 3-.4 6.2-.2 9.3.1 1.4.4 3 1.2 4.2-.5.5-.9.9-1.3 1.4-2 2.5-3.3 5.5-3.8 8.7-.4 2.8-.4 5.8-.1 8.6.1.5.2 1.1.3 1.7-.3-.4-.7-.8-1-1.2-1.2-1.5-2.4-2.8-4-4-3.3-2.3-7.2-3.5-11.1-4.5-2-.5-4-.8-6-.8 0-.5.1-1.3 0-1.3-3.3-1.5-5.3-4.5-6.3-7.8zm-25.5 61.6c.2 0 .4-.1.6-.1.2 0-.2-3.7 0-3.8.5-2.8 1.2-5.5 2-8.1 1.9-6 4.5-11.7 7.9-17 3.1-4.9 7.9-11.3 14.5-10.1v-.3c2.4 1 4.4 2.8 5.7 5v-3.7c-2-3.6-5.9-5.8-10-6.1 1.4-1.3 3-2.4 4.8-3.2 4-1.8 8.1-1.5 12.2-.5 3.9.9 7.8 2.1 11.1 4.5 1.6 1.1 2.8 2.5 4 4 1.2 1.5 2.3 2.9 4.2 3.5-.1 0-.1-.7 0-1.4.3.2.7.3 1 .3-.2 0 .2-3.7 0-3.8-2.4-.4-3.7-2.8-4.2-5l-.3-1.8v-.2c.2-1.3.4-2.6.9-3.8 1-2.9 3.1-6.4 5.9-8.3-.4 1.5-.3 3-.3 4.5v1.8c0 .3 0 .6.1.8 0 .3.1.6.2.9.2.8.6 1.6 1 2.4v-3.7c-.6-.9-.9-1.8-1.1-2.7.1-.2.1-.4.2-.6.2-.7.6-1.4 1-2 .9-1.3 2.2-2.3 3.7-2.9h.5v-.2c1-.3 2-.5 3-.4-.1 0 .1-3.8 0-3.8-1.2-.1-2.4.1-3.5.6-1.4 0-2.8.4-4 1.1-2-.6-2.9-2.6-3.3-4.5 0-.2-.1-.5-.1-.8 0 .2-.1-.3-.1-.8v-.3.2c0-.5.1-.9.1-1.3.2-1.5.4-2.9.8-4.3.7-2.8 1.8-5.4 3.2-7.9.4-.7 4-6.7 4.8-4.9-.1-.1-.1-.4-.1-.6.3-.1.6-.4.6-.8.1-.6 0-1.3 0-1.9 0-.6-.1-1.3 0-1.9-.3 1.5-2.5.8-3.3.3-1.5-.7-2.8-1.7-3.9-2.9s-2-2.6-2.7-4.1c-.2-.5-.4-.9-.5-1.4 1 1.1 2.3 2 3.8 2.3 3.3.7 6.6-1 9.1-3v-.1c.7.5 1.4 1 2 1.5-.1-.1 0-1.6 0-1.9 0-.3.2-1.7 0-1.9-.5-.3-1-.7-1.4-1-4.5-3.2-9-6.4-13.3-9.7-4.5-3.6-7.1-8.4-9.9-13.4-6-10.7-11.8-21.5-17.6-32.3L87.7 211c4.1-2.1 8.2-4.3 12.2-6.6.2-.1 0-1.7 0-1.9 0-.2-.2-1.8 0-1.9C94 204 88 207.2 81.7 210c-3.1 1.4-6.2 2.9-9.4 3.9-2.1.7-5.2.6-6.2-1.5v-.2c0-.2-.1-1.8 0-1.9-3.1 1-6.6 1.6-9.7.4-1.5-.6-2.9-1.7-3.7-3.2-.3-.5-.5-1.3-.8-2v-1.2c-3.9-.2-7.4-2.7-9-6.2-.4-.9-.7-1.7-.8-2.7 0-.3.1-.6.2-1 .5-2 1.5-3.8 2.8-5.3 3.1-3.3 7.8-5.2 11.9-6.9 4.4-1.8 9-3 13.8-3.9v.1c7.2-1.4 14.6-2.7 21.9-1.7 6.3.9 11.7 3.9 16 8.5 7.9 8.5 11.6 19.9 19.9 28.1.6.6 1.5 1.7 2.5 2.1v.9-.9c.5.2 1 .2 1.5-.1 1-.5 1.7-1.6 2.5-2.4.8-.8 1.6-1.6 2.4-2.5 2.7-2.8 5.5-5.5 8.2-8.3l.9-.9c-.7 4.5-.7 9.2-.2 13.7.6 6.7 2.8 13.3 6.2 19.1 2 3.3 4.4 6.3 7.3 9V241.1c0-.3.2-1.6 0-1.9-1-1-1.7-2.2-2.2-3.5-.2-.7-.4-1.5-.6-2.3-.1-.3-.1-.7-.1-1 0-.1 0-.6-.1-1v-.4c0-.5.1-.9.2-1.3.1-.8.3-1.7.5-2.5.4-1.5.8-2.9 1.4-4.3 1 4 2.1 8 4.2 11.6 2.3 3.9 5.8 6.2 9.2 9.1 3.1 2.7 5.8 5.9 7.6 9.6.9 1.8 1.6 3.8 2 5.8.2.9.3 1.9.4 2.8v.2c0 .5-.1 1.1-.2 1.6-.4 2.2-1.1 4.4-2.2 6.3-.4.8-.9 1.7-1.5 2.3-.4.2-.8.3-1.2.5 0 0 0 .1-.1.3-.4.1-.7 0-.8-.5.3 1.1-.4 2.6 0 3.8.2.8 1.1.5 1.6.1.2-.1.3-.3.5-.4 9.1-3.9 16-10.8 20.9-19.1 2.4-1.5 4.8-3 7.1-4.6 2.2-1.5 4.3-3 6.1-5 2.8-3.2 4.7-7.2 6-11.2v.6l-.1.1c-.1.1 0 1.7 0 1.9 0 .2.2 1.8 0 1.9 3-1.5 5.5-3.7 7.5-6.4 2.4-3.3 4-7.2 4.3-11.3.3-3.6.2-7.4-.6-10.8-1-3.8-2.9-7.2-5.6-10-2.5-2.6-5.3-4.9-7.3-7.9 0-.7 0-1.3-.2-2-.1-.3-.2-.7-.3-1 1.9 1 3.8 1.9 5.7 2.9 2.1 1 4.5 2 5.6 4.2v-3.1c0-.1.1-.4 0-.6-1.1-2.2-3.5-3.2-5.6-4.2-2.7-1.4-5.4-2.7-8.1-4.1V190.1c.5 1.3 1.3 2.5 1.9 3.8v.5c0 .5-.2 1.4 0 1.9l.3.6v1.8c0 .1.1.5 0 .5.3-.5.4-1 .5-1.5 1.5 2.3 3.5 4.2 5.5 6.2 2.5 2.4 4.7 4.9 6.1 8 .7 1.6 1.3 3.2 1.6 4.9.2.8.3 1.5.3 2.3 0 .4 0 .9-.1 1.3-.4 3.2-1.6 6.4-3.5 9.1-2 2.9-4.6 5.4-7.7 7.1.1-.7.1-1.4.1-2.1.1-.2.1-.4.2-.6.3-1.2-.3-2.6 0-3.8l-.2.6c0-1.7-.2-3.4-.4-5-.4-2.5-1-5.1-2-7.5-.8-2.1-1.8-4.9-3.7-6.2.1.1 0 1.7 0 1.9 0 .2-.2 1.7 0 1.9 1.4 1 2.2 2.8 2.9 4.3.8 1.8 1.5 3.6 2 5.5s.8 3.8 1 5.8v.1c-1.4 4.5-3.3 8.8-6.4 12.4-1.8 2-3.9 3.6-6.1 5l-4.2 2.7c2.1-4.6 3.7-9.5 4.7-14.4 1.1-5.2 1.7-10.4 1.9-15.7.1-1.1 0-2.7 0-3.6-.6 12.3-3.2 25-9.5 35.6-.2.1-.4.2-.6.4-.1 0-.1.4-.1.7-2.6 4.3-5.8 8.2-9.8 11.6-2.4 2-5 3.8-7.8 5.3.4-1.1.7-2.3.9-3.4.3-1.7.4-3.4.4-5.1v-1.3c0-2.1-.1-4.2-.6-6.3-1-4.4-3.2-8.4-6.2-11.8-3.2-3.6-7.6-5.9-10.7-9.7-3.1-3.8-4.5-8.6-5.7-13.3 0-.5-.1-1.2 0-1.5-.1.2-.2.4-.2.6 0-.1 0-.2-.1-.3 0 .1.1.2.1.3-1.7 4-2.2 8.1-2.2 12.5 0 1.5 0 3 .2 4.5-4-4.5-7-9.9-8.8-15.7-1.1-3.6-1.8-7.4-2-11.2v-.3c0-.3 0-.6.1-.9l.3-3.3c.2-1.5.5-3 .9-4.5.1-.1.1-.3.1-.5 0-.1.1-.3.1-.4.3-1.2-.3-2.6 0-3.8-.1.3-.2.6-.2 1-2.9 3-5.9 6-8.8 8.9-1.5 1.5-3 3-4.5 4.6-.6.6-1.2 1.4-2 1.7-.4.1-.8.1-1.1-.1-.2-5.1.1-10.1.6-15.2.2-2.3.4-4.6.9-6.8.3-1.9 1-3.6 2.4-4.9.2-.2 0-1.6 0-1.9 0-.3-.2-1.7 0-1.9-2 1.8-2.4 4.6-2.8 7.1-.4 3.1-.7 6.3-.9 9.5-.3 4.6-.4 9.3-.3 13.9-.3-.2-.6-.4-.8-.6-4.4-3.7-7.6-8.6-10.6-13.5l-2.4-3.9v-.1c0-.5.2-1.4 0-1.9-.4-1-.6-2-.8-3v-.2c0-.2 0-.5.1-.7.3-2.1 1-4 1.9-5.9.9-1.8 2-3.5 3.2-5.2.6-.8 1.3-1.6 1.9-2.4.6-.7 1.2-1.4 2.2-1.3v-.7c.1 0 .2.1.3.1v-1.9c0-.2.1-1.8 0-1.9-2.5-.6-4.6-2.1-6.2-4.1-.1-.1-.2-.3-.3-.4 2 .8 4.4.6 6.3-.2 3-1.2 5.1-3.9 6.5-6.7 1.6-3.2 2.6-6.7 3-10.3.1-.6 0-1.1 0-1.7 1.5.9 2.9 1.8 4.4 2.7 0 0 0 .1.1.1 9.6 9 22.4 15.7 35.5 17.5 13.3 1.8 26.9-1.2 38.8-7.1 6.1-3 11.7-6.8 17-11 0 .1 0 .2-.1.2l2.4-1.2c-.1 1-.1 1.4.1 1.1 0 1 0 2 .2 3 .5 2.5 1.7 4.9 3.2 7 1.1 1.5 2.5 3 4.3 3.8-1.3 1.1-2.5 2.4-3.5 3.8-.2-.3-.3-.1-.4.4 0-.1-.1-.1-.1-.2v.6s0 .1-.1.1v3.1c0 .1.1.5 0 .5.1-.1.2-.2.3-.4.1.3.3.7.5 1.1 1.7 2.7 3.4 5.3 5 8 1.5 2.5 2.9 5 4 7.6.5 1.3 1 2.7 1.3 4.1.1.2.1.5.1.7-3.4 3.5-6.9 6.9-10.3 10.4-.2.2 0 1.6 0 1.9s.2 1.7 0 1.9c3.4-3.5 6.9-6.9 10.3-10.4.1-.1.2-.3.4-.4 0 .8.1 1.6 0 2.5.1-.9.1-1.8.1-2.6 2.7-2.8 5.5-6.1 9.1-7.6 3.7-1.5 7.2 0 10.1 2.4 3.2 2.6 6 5.7 9.2 8.3 3.8 3.2 7.9 6 12.1 8.5 0 0-.1-.3 0-.6 2.6.3 5.1 1 7.5 2.3 1.8 1 3.8 2.3 4.6 4.2-.9 2.2-3 3.7-4.8 5.2-.8.6-1.1 1.3-1.2 2.1v-.2 4.1c.1.6.3 1.2.5 1.9v.2c-.2.7-.4 1.4-.8 2-.7 1.3-1.6 2.4-2.9 3.2-2.6 1.7-6 1.9-8.8.7V232.6c-.5 1.3-1.9 1.9-3.4 2.1-1.7.3-3.6.5-5.3.1-2.7-.4-4.8-2-6.6-4-.8-.9-1.6-1.9-2.4-2.9 0-.4-.1-.8 0-1.1-.1.3-.2.5-.3.8-2.3-2.9-4.6-5.8-8.3-6.8.3.1-.3 3.7 0 3.8 3.2.9 5.3 3.1 7.4 5.6-3.2 8.8-6.8 17.5-11 25.9-2.3 4.6-4.7 9.2-7.3 13.6l-.1.1v-.6c0 .2 0 .5-.1.7-2.4 4-5.3 7.8-9 10.7-1.2 1-2.6 1.8-4 2.5v-.3.3c-3 1.5-6.3 2.3-9.7 2.1-.5 2.3-.8 3.7-.8 3.7 3.7.4 7.2-.4 10.3-2v2.2c0 1.5.2 2.9.9 4.3.7 1.5 1.9 2.7 3.4 3.2-1.4 1-2.8 1.9-4.3 2.8-.2.1-.1 3.7 0 3.8 3.2 1.6 4.4 5.1 4.8 8.5.1.6.1 1.1.2 1.7v1c0 .7-.1 1.4-.2 2.2-.2 2-.5 4-1 5.9-1.8 7.5-5.6 14.5-11 20.1-.3-.7-.8-1.4-1.4-2-1.6-1.7-3.8-2.8-5.9-3.8-2.2-1.1-4.4-2-6.6-2.8-.5-.8-1.1-1.3-2-1.2-.2 0 .2 3.7 0 3.8.4-.1.7 0 1 .2 0 .4 0 .7.1.7l.9.3c.2.3.4.6.5.9.6 1 1 2.1 1.4 3.2.9 2.4 1.4 4.9 1.5 7.4 0 .7-.1 1.3-.2 2-.2 1.2-.4 2.4-.8 3.6-.3 1.1-.7 2.2-1.2 3.2v-1.3c-.1 1.3-.5 2.4-1.1 3.5-.2.4-.5.9-.8 1.3-1.2 1.8-2.7 3.3-4.3 4.7-3.2 2.9-6.3 5.7-9.2 8.9-5.9 6.5-10.9 13.8-14.9 21.6-.5.9-.9 1.9-1.4 2.8-.2.4-.3 1.1-.6 1.3-.3.3-.1-.2-.2-.5 0-.4-.1-.8-.1-1.2-.3-2.5-.5-5.1-.8-7.6-.6-5-1.2-10.1-2-15.1-.2-1.2-.4-2.4-.5-3.6-.1-.7-.2-1.3-.3-2 0-.1-.1-.9-.1-1-.1.1-.1.7-.1.8-.3 2.1-.5 4.3-.7 6.4-.4 4-.6 8-.6 12 0 6.5.6 13.1 3 19.1-12.9-10.6-23.1-24.5-29.2-40.1-1.3-3.2-2.4-6.6-3.3-9.9v-.3c-1.3-9.8-8.3-18.5-17.7-21.8.1 0 0 1.7 0 1.9v1.9c7.7 2.7 13.8 9 16.4 16.5 0 .3 0 .5.1.8 4 17.8 13 34.4 25.8 47.5 2.3 2.4 4.8 4.6 7.4 6.8-13 5.6-26 11.2-39.6 15-7.4 2.1-14.9 3.6-22.6 4.4-8.3.8-16.6.6-24.9.1-4-.3-8-.6-12-1 0-.5.1-1.2 0-1.5-7.6-9.6-11.9-21.7-12.4-33.9v-1.5c0-.9.1-1.8.2-2.7.6-.7.6-1.3.7-2zm115.5-127.1v.3-.3zM294 465.4c3.1 1.8 5.8 4.2 8 6.9v.1c1.6 2.4 3.2 4.7 4.8 7.1 1.1 1.5 2.5 3.2 3.2 5-.1.2-.2.4-.4.5-.5.5-1 .8-1.6 1.1-1.4.7-3 1.1-4.5 1.4-2.1.5-4.3.7-6.5.7.2-1.4.2-3 0-4.4-.2-1.7-1.3-3.1-2.4-4.4.2.2 0 1.6 0 1.9 0 .4-.2 1.6 0 1.9.8.9 1.3 1.8 1.8 2.7 0 .1-.1.1-.1.2-.3.4-.8.8-1.2 1.1-2.3 1.4-5.6 1.9-8.2 2.2-5.5.7-11 .3-16.3-1.2.9-2.1 1.6-4.3 2.2-6.5.3-1.2-.3-2.6 0-3.8-.7 2.4-1.5 4.8-2.5 7-.4 1-.8 1.9-1.4 2.7-.2-.1-.4-.1-.6-.2.1 0 .1.3.1.8-.5.4-1 .7-1.7.9-2.1.6-4.4.5-6.5.4-2.3-.1-4.6-.4-6.9-.9-1.8-.4-3.8-.8-5.2-2-.8-.7-1.1-1.4-1.5-2.4 0-.3 0-.6.1-.9.4-3.6 1.5-7 3-10.2 0 .4.1.8 0 1.1 1.9-3.6 5.2-5.9 8.7-7.7 4-2 8.4-3.8 12.8-4.8 7.9-1.8 16-.4 22.8 3.7zm-12.6-8c-7.4-.8-14.6 1.5-21.4 4.7-3.3 1.5-6.5 3.5-8.7 6.3 0-.5-.2-1.2 0-1.5-2 3.4-3.4 7.1-4.1 11-.3 1.7-.5 3.4-.5 5.2 0 1.2-.1 2.6 0 3.9-5.8-3.2-11-7.3-16-11.6-2.7-2.4-5.3-4.9-7.9-7.4-1.3-1.3-2.6-2.5-3.9-3.8l-.1-.1c15.1-3.5 30.1-7.1 45.4-9.6 4-.7 8.1-1.3 12.3-1.8 1.5 1.5 3.1 3.2 4.9 4.7zm83.6-12.2c-.1.7-.2 1.3-.3 2-.3 1.4-.6 2.8-1.2 4.2-2.2 5.4-7 8.9-12.9 8.9-6.8 0-13.1-3.5-19.1-6.1-13.6-6-28.5-7.1-43.1-6.3-4 .2-7.9.6-11.8 1l-1-1v1.1c-11.3 1.3-22.5 3.5-33.7 5.9-30.8 6.7-61.8 13.8-91.9 23.4-14.6 4.7-28.9 10.5-44 13.7-15.5 3.3-31.2 2.7-46.9 1.5-7.5-.6-15-1.4-22-4.2-6.7-2.7-12.5-7-18.2-11.4-5.4-4.2-11.2-8.3-14.9-14.2-1.7-2.7-2.8-5.7-3.4-8.8-.1-.7-.3-1.5-.3-2.2-.1-.5-.1-1.1-.1-1.6v-.3c0-1.5.3-3.2.6-4.7 2.2-12.5 9.6-23.8 18.4-32.8 8.7-8.9 19.3-15.9 30.9-20.3 3.4-1.3 6.8-2.3 10.3-3.2 2.1-.5 4.2-.9 6.3-1.2-.1 1.6-.1 3.2-.2 4.9 0 6.4.5 12.7 2.3 18.9 1.8 6.3 4.6 12.2 8.3 17.5-3.2-.3-6.5-.7-9.7-1-1.5-.2-3-.4-4.5-.5-5.7-.7-11.4-1.7-17-3-6.9-1.7-13.7-4.1-19.9-7.6.5.3-.6 3.4 0 3.8 12.6 7 27 9.6 41.2 11.1 15.5 1.8 31.4 3.5 47 2.2 23.6-1.8 45.4-11.4 67-20.8.4.3.7.6 1.1.8v-1.3c5.7-2.5 11.3-4.9 17-7.1 14.6-5.8 29.4-11.1 44.4-15.8 14.5-4.6 29.5-8.5 44.9-8.5 27 0 54 12.3 68.2 36 3.2 5.3 5.7 11.1 7.2 17.2.4 1.5.7 3 1 4.6.1.6.2 1.3.3 2 0 .3.1.7.1 1 0 .4-.1 2.1.1 1v.1c-.4.1-.5.6-.5 1.1z"/>
  <path fill="#EF800B" d="M310.1 484.5c-.1.2-.2.4-.4.5-.5.5-1 .8-1.6 1.1-1.4.7-3 1.1-4.5 1.4-2.1.5-4.3.7-6.5.7.2-1.4.2-3 0-4.4-.2-1.7-1.3-3.1-2.4-4.4.2.2 0 1.6 0 1.9 0 .4-.2 1.6 0 1.9.8.9 1.3 1.8 1.8 2.7 0 .1-.1.1-.1.2-.3.4-.8.8-1.2 1.1-2.3 1.4-5.6 1.9-8.2 2.2-5.5.7-11 .3-16.3-1.2.9-2.1 1.6-4.3 2.2-6.5.3-1.2-.3-2.6 0-3.8-.7 2.4-1.5 4.8-2.5 7-.4 1-.8 1.9-1.4 2.7-.2-.1-.4-.1-.6-.2.1 0 .1.3.1.8-.5.4-1 .7-1.7.9-2.1.6-4.4.5-6.5.4-2.3-.1-4.6-.4-6.9-.9-1.8-.4-3.8-.8-5.2-2-.8-.7-1.1-1.4-1.5-2.4 0-.3 0-.6.1-.9.4-3.6 1.5-7 3-10.2 0 .4.1.8 0 1.1 1.9-3.6 5.2-5.9 8.7-7.7 4-2 8.4-3.8 12.8-4.8 7.7-1.8 15.9-.4 22.7 3.7 3.1 1.8 5.8 4.2 8 6.9v.1c1.6 2.4 3.2 4.7 4.8 7.1 1.2 1.6 2.6 3.2 3.3 5z"/>
  <path fill="#E4610E" d="M281.4 457.4c-6-2.2-58.7 10.4-58.7 10.4-1.3-1.3-2.6-2.5-3.9-3.8l-.1-.1c15.1-3.5 30.1-7.1 45.4-9.6 4-.7 8.1-1.3 12.3-1.8 1.6 1.7 3.2 3.4 5 4.9z"/>
  <path fill="#EF800B" d="M281.4 457.4c-7.4-.8-14.6 1.5-21.4 4.7-3.3 1.5-6.5 3.5-8.7 6.3 0-.5-.2-1.2 0-1.5-2 3.4-3.4 7.1-4.1 11-.3 1.7-.5 3.4-.5 5.2 0 1.2-.1 2.6 0 3.9-5.8-3.2-11-7.3-16-11.6-2.7-2.4-5.3-4.9-7.9-7.4-.1-.2 52.6-12.8 58.6-10.6z"/>
  <path fill="#E4610E" d="M77 429.8c-3.2-.3-6.5-.7-9.7-1-1.5-.2-3-.4-4.5-.5-7.9-7.1-2.4-38.5-2.4-38.5 2.1-.5 4.2-.9 6.3-1.2-.1 1.6-.1 3.2-.2 4.9 0 6.4.5 12.7 2.3 18.9 1.6 6.1 4.4 12.1 8.2 17.4z"/>
  <path fill="#EF800B" d="M365.1 443.6v.1c0 .5-.1 1-.1 1.4-.1.7-.2 1.3-.3 2-.3 1.4-.6 2.8-1.2 4.2-2.2 5.4-7 8.9-12.9 8.9-6.8 0-13.1-3.5-19.1-6.1-13.6-6-28.5-7.1-43.1-6.3-4 .2-7.9.6-11.8 1l-1-1v1.1c-11.3 1.3-22.5 3.5-33.7 5.9-30.8 6.7-61.8 13.8-91.9 23.4-14.6 4.7-28.9 10.5-44 13.7-15.5 3.3-31.2 2.7-46.9 1.5-7.5-.6-15-1.4-22-4.2-6.7-2.7-12.5-7-18.2-11.4-5.4-4.2-11.2-8.3-14.9-14.2-1.7-2.7-2.8-5.7-3.4-8.8-.1-.7-.3-1.5-.3-2.2-.1-.5-.1-1.1-.1-1.6v-.3c0-1.5.3-3.2.6-4.7 2.2-12.5 9.6-23.8 18.4-32.8 8.7-8.9 19.3-15.9 30.9-20.3 3.4-1.3 6.8-2.3 10.3-3.2 0 0-5.5 31.4 2.4 38.5-5.7-.7-11.4-1.7-17-3-6.9-1.7-13.7-4.1-19.9-7.6.5.3-.6 3.4 0 3.8 12.6 7 27 9.6 41.2 11.1 15.5 1.8 31.4 3.5 47 2.2 23.6-1.8 45.4-11.4 67-20.8.4.3.7.6 1.1.8v-1.3c5.7-2.5 11.3-4.9 17-7.1 14.6-5.8 29.4-11.1 44.4-15.8 14.5-4.6 29.5-8.5 44.9-8.5 27 0 54 12.3 68.2 36 3.2 5.3 5.7 11.1 7.2 17.2.4 1.5.7 3 1 4.6.1.6.2 1.3.3 2 0 .3.1.7.1 1-.3.3-.4 2-.2.8z"/>
  <path fill="#EF800B" d="M287.3 378.3c-5.2.1-10.4.5-15.6 1.3-15.8 2.5-31.1 7.8-46.2 13-15 5.2-29.7 11-44.2 17.3-4-6.1-5.6-13.4-5.8-20.6v-1c0-.5 0-.9.1-1.4 0-1.1.1-2.2.2-3.2l.6-6c.1-.9.2-1.9.3-2.8 0-.2 0-.4.1-.6 0-.3-.1-.9.1-.3.2.5.2 1.4.3 1.9.3 2.4.7 4.7 1 7.1.6 4.7 1.2 9.4 1.8 14.2.3 2.4.5 4.7.8 7.1 0 .1 0 .7.1.7l.3-.8c.2-.4.3-.8.5-1.1l1.5-3c3.7-7.2 8.3-13.9 13.6-19.9 3-3.4 6.2-6.5 9.6-9.5 2.2-2 4.6-4.2 5.8-6.9 1.1-2.1 1.9-4.2 2.4-6.5.7-2.9.7-5.8.7-8.8 0-2.8-.3-5.6-1-8.3-.1-.5-.3-1-.5-1.5l3.6 1.5c1.9.9 3.8 1.8 5.5 3.1.8.6 1.6 1.3 2.2 2.1-.1.1-.3.2-.4.3-.2.2 0 1.6 0 1.9 0 .2.1.8.1 1.3-.1 0-.1.1-.2.2-.2.1 0 1.6 0 1.9v1.9c1.6-1.2 1.8-2.9 1.8-4.7 7.7-6 17.6-9.3 27.1-7.9 0 .4 0 .8-.1 1l.6-.9c3.5.6 7 1.9 10.2 3.9 1.4.9 2.7 1.9 4 3-3.3.7-6.3 3.3-8.7 5.5v3.2c0 .1.1.5 0 .5 3.6-3.3 8.7-7.5 13.9-4.8v-.2c.1 0 .1.1.2.1 0 .5-.1 1.1.1 1.3 6.5 7.2 11.2 16 13.6 25.4z"/>
  <path fill="#EF800B" d="M262.4 315.4v.6c-.1 1.1-.3 2.2-.5 3.4-.4 2.1-1 4.1-1.8 6.1-1.5 4-3.6 7.7-6 11.2-6.4-1.1-13-.2-19 2.5-2 .9-3.9 2-5.7 3.1 7-9.6 9.8-21.9 8.5-33.8-.3-2.3-.9-4.8-2.3-6.7 2.1-1.4 4.1-2.8 6.1-4.4.1-.1.1-.5.1-.9.5-.3.8-.7 1.1-1.2v-3.2c0-.1-.1-.5 0-.5-1 1.8-3.2 2.2-5.1 1.7-2.3-.6-3.8-2.5-4.4-4.8-.1-.4-.2-.7-.2-1.1v-.3c5-2.6 9.2-7.2 12.2-12 .3-.4.5-.8.8-1.2v.1c0 1.2.1 2.5.4 3.7.6 2.7 2 5.2 4.1 7.2 1.6 1.5 3.5 2.5 5.5 3.2-2 1.5-3.9 3.1-5.6 4.9-.2.2-.1 3.7 0 3.8 7 3.1 11.1 10.4 11.9 17.8-.2.1-.2.5-.1.8zM130.1 298.3c-.9 1.3-1.8 2.7-2.5 4.2-1.5 3.2-2.6 6.6-3 10.1-.4 3-.4 6.2-.2 9.3.1 1.4.4 3 1.2 4.2-.5.5-.9.9-1.3 1.4-2 2.5-3.3 5.5-3.8 8.7-.4 2.8-.4 5.8-.1 8.6.1.5.2 1.1.3 1.7-.3-.4-.7-.8-1-1.2-1.2-1.5-2.4-2.8-4-4-3.3-2.3-7.2-3.5-11.1-4.5-2-.5-4-.8-6-.8 0-.5.1-1.3 0-1.3-3.1-1.6-5.2-4.6-6.2-7.9-.2-.8-.4-1.6-.5-2.4-.1-.5 0-1.1-.1-1.6.2-2.2.7-4.5 1.2-6.6 1.8-7.3 4.2-14.8 9.5-20.4.1-.1.1-.7.1-1.2h.4v-3.8c-2.8 0-5.5-.6-8-2-.6-.3-1.1-.6-1.6-1 3.8.1 7.6-1.7 10.3-4.3 5.1-5 7.7-12.5 9.6-19.2.2-.8 0-1.7-.1-2.6 2.5 4.7 5 9.7 9 13.3 2.5 2.2 5.2 4 7.9 5.9 1.3.9 2.6 1.9 3.8 2.8-1.9 1-4.1 1.7-6.3 1.3-2.7-.5-5.3-2.7-5.4-5.6V283c0 .9.3 1.7.8 2.5 0 1.8.2 3.5.8 5.2.6 1.6 1.5 3.1 2.6 4.4.9 1.3 2.2 2.4 3.7 3.2z"/>
  <path fill="#EF800B" d="M296.8 207.6c-2.3-1.3-4.8-2-7.5-2.3v.6c-4.3-2.5-8.3-5.3-12.1-8.5-3.2-2.6-6-5.7-9.2-8.3-2.9-2.3-6.4-3.9-10.1-2.4-3.6 1.5-6.4 4.8-9.1 7.6 0 .9-.1 1.7-.1 2.6.1-.8 0-1.6 0-2.5-.1.1-.2.3-.4.4-3.4 3.5-6.9 6.9-10.3 10.4-.3-.8-2.3-2.5-2.3-2.5-2.2-1.3-3.9-3.4-4.7-5.8-.4-1.2-.6-2.5-.6-3.8v-1.9c-.3.1-.5.2-.6.2l-.1-.2v.2c-.7 1.1-1.1 2.2-1.4 3.5.1.5.2 1 .4 1.4v3.6-.2c-.2-.5-1.3-1.5-1.3-1.5-1.1-2.2-3.5-3.2-5.6-4.2-1.9-1-3.8-1.9-5.7-2.9.1.3.2.6.3 1 .1.6.2 1.3.2 2 2 3 4.8 5.3 7.3 7.9 2.7 2.8 4.7 6.2 5.6 10 .9 3.5.9 7.3.6 10.8-.3 4.1-1.9 8-4.3 11.3 4.9 13.1-.3 40.9-2.4 50.9 3.4.2 6.7-.6 9.7-2.1v-.3.3c1.4-.7 2.8-1.6 4-2.5 3.7-2.9 6.5-6.7 9-10.7 0-.2 0-.5.1-.7v.6s0-.1.1-.1c2.7-4.4 5-9 7.3-13.6 4.2-8.4 7.8-17.1 11-25.9-2-2.5-4.2-4.8-7.4-5.6-.3-.1.3-3.7 0-3.8 3.6 1 6 3.9 8.3 6.8.1-.3.2-.5.3-.8-.1.3-.1.7 0 1.1.8 1 1.6 2 2.4 2.9 1.8 1.9 4 3.5 6.6 4 1.8.3 3.6.2 5.3-.1 1.4-.3 2.8-.8 3.4-2.1V230.8c2.8 1.2 6.2 1 8.8-.7 1.2-.8 2.2-1.9 2.9-3.2.3-.6.6-1.3.8-2v-.2c-.2-.6-.4-1.2-.5-1.9v-4.1.2c.1-.8.4-1.4 1.2-2.1 1.8-1.5 3.9-3 4.8-5.2-.9-1.7-2.9-3-4.7-4zm-18.6 22c0 .8-.2 1.7-.6 2.3-.6.8-1.6.7-2.3.2-.8-.6-1.3-1.5-1.8-2.4-.9-2-.9-4.1-.9-6.3v1.1c0 .1 0 .2.1.3v-.2c.1-1.1.3-2.3.9-3.3.1-.1.2-.3.2-.4.1-.2.1-.2.2-.2.2 0 .4.2.6.3.4.2.8.5 1.1.8 1.2 1.1 2.1 2.6 2.3 4.3.3 1.1.2 2.3.2 3.5zm1.3-18.1v.7c0 1.4-.2 2.9-.7 4.2-.5 1.2-1.3 2.3-2.7 2.5-1.5.1-2.8-.8-3.7-1.9-1-1.2-1.8-2.7-2.5-4.1-.7-1.4-1-2.8-1-4.4 0-1.5-.1-3 .9-4.2.9-1 2.2-1.4 3.5-1.2 1.1-.3 2.2-.2 3.4.5 1.4.8 2.3 2.2 2.7 3.7.2 1 .3 2 .3 3-.1.3-.1 1.2-.2 1.2zm11.4 13.6c0 .4 0 .7-.1 1.1-.2.8-.6 1.6-1.5 1.5-.9-.1-1.8-.9-2.3-1.5-.6-.7-1-1.5-1.3-2.3-.2-.7-.3-1.5-.3-2.2v-2.4c-.5.2-1 .6-1.3 1.2v-2.6c.7-1.7 3.1-1.8 4.5-.9 1.7 1.1 2.1 3.4 2.3 5.3v2.8zm5.7-13c0 .9 0 1.7-.6 2.4-1 1.2-2.9 1.2-4.1.4-.7-.4-1.2-1.1-1.6-1.8-.2-.4-.4-.8-.5-1.2-.1-.3-.1-.7-.1-1.1 0 .3-.1-.1 0-1.2 0-.5 0-1.1.1-1.6.1-.4.3-.8.5-1 .4-.4 1-.6 1.6-.3 1.7 0 3.6.5 4.4 2.2.5.9.3 2.1.3 3.2zM170.5 404.7c-12.8-13.1-21.8-29.7-25.8-47.5 0-.2-.1-.5-.1-.8-2.7-7.6-8.8-13.9-16.4-16.5-.1 0-.1-.5 0-1v-.7.5c-.5-.8-.8-1.5-1-2.4-.1-.3-.1-.6-.2-.9 0-.3-.1-.6-.1-.8v-1.8c0-1.5-.1-3 .3-4.5-2.8 2-4.9 5.4-5.9 8.3-.4 1.2-.7 2.5-.9 3.8v.2l.3 1.8c.5 2.2 1.8 4.6 4.2 5 .2 0-.2 3.7 0 3.8-.4-.1-.7-.2-1-.3-.1.7-.1 1.4 0 1.4-1.8-.6-3-2.1-4.2-3.5-1.2-1.5-2.4-2.8-4-4-3.3-2.3-7.2-3.5-11.1-4.5-4.1-1-8.3-1.2-12.2.5-1.8.8-3.4 1.9-4.8 3.2 4 .2 7.9 2.5 10 6.1.1.1 0 .4 0 .5v3.2c-1.3-2.3-3.3-4-5.7-5v.3c-6.6-1.2-11.4 5.2-14.5 10.1-3.4 5.3-6 11-7.9 17-.8 2.7-1.5 5.4-2 8.1-.2 0 .2 3.7 0 3.8-.2 0-.4.1-.6.1-.1.7-.1 1.3-.2 2-.1.9-.1 1.8-.2 2.7v1.5c.5 12.2 4.7 24.3 12.4 33.9.2.2.1 1 0 1.5 4 .4 8 .7 12 1 8.3.5 16.6.7 24.9-.1 7.6-.7 15.2-2.3 22.6-4.4 13.6-3.8 26.6-9.4 39.6-15-2.7-2-5.2-4.2-7.5-6.6zm-24.9-202.2c-2.7 2.8-5.5 5.5-8.2 8.3-.8.8-1.6 1.6-2.4 2.5-.8.8-1.5 1.8-2.5 2.4-.5.3-1 .2-1.5.1v.9-.9c-1-.4-1.9-1.5-2.5-2.1-8.3-8.1-12.1-19.6-19.9-28.1-4.3-4.6-9.7-7.6-16-8.5-7.3-1.1-14.7.3-21.9 1.7v-.1c-4.7.8-9.3 2.1-13.8 3.9-4.1 1.6-8.8 3.6-11.9 6.9-1.4 1.5-2.4 3.3-2.8 5.3-.1.3-.1.6-.2 1 .2.9.4 1.8.8 2.7 1.7 3.5 5.2 5.9 9 6.2v1.2c.3.7.6 1.5.8 2 .8 1.5 2.1 2.6 3.7 3.2 3.1 1.2 6.7.6 9.7-.4-.1 0 0 1.7 0 1.9v.2c1 2.1 4.1 2.2 6.2 1.5 3.2-1 6.3-2.5 9.4-3.9 6.2-2.8 12.2-6 18.1-9.5-.2.1 0 1.7 0 1.9 0 .2.1 1.8 0 1.9-4 2.4-8 4.6-12.2 6.6l8.4 15.9c5.8 10.8 11.7 21.6 17.6 32.3 2.8 5 5.3 9.8 9.9 13.4 4.3 3.4 8.9 6.5 13.3 9.7-4.9-20.3 6.2-68.9 8.9-80.1zm-88.3-6.1c-.4 1-1.5 1.6-2.4 2-1.9 1.1-4.4 2.1-6.4.6-.8-.6-1-1.4-1-2.3-.1.2-.1-.2 0-1.1 0-.6 0-1.1.1-1.6.1-.6.4-1.1.7-1.6 1-1.4 2.6-2.8 4.3-3 .7-.2 1.6.1 2.3.5 1 .7 2.2 1.6 2.5 2.8.2.7.1 1.5.1 2.2-.1.4 0 1-.2 1.5zm7.5 6.3c0 .7-.2 1.3-.5 2-.5.8-1.1 1.5-1.8 2.2-.7.6-1.4 1.4-2.4 1.5-.8.1-1.6-.4-2.1-1.1-.7-1-.5-2.4-.5-3.6 0-1.1.2-2 .7-3 .8-1.4 2.2-2.5 3.8-2.9h.1c.1 0 .2-.1.3-.1.6 0 1.1.3 1.5.8.8.8.8 1.8.8 2.8.2 1.3.2 1.8.1 1.4zm12.3 4.8c-.1.4-.3.9-.5 1.2-.5.8-1.2 1.5-2 2.1-.7.6-1.6 1.1-2.5 1.4-.7.2-1.7.2-2-.6-.1-.2-.1-.5-.1-.7v-2.2c0-.4.1-.7.2-1 .4-1.1.9-2 1.6-2.8v-1c.6-.8 1.3-1.6 2.2-2 .9-.4 1.9-.1 2.5.6.7.8.6 1.9.6 2.9.1.8.2 1.5 0 2.1zm7.1-15.7c0 1-.2 1.9-.6 2.8-.8 1.5-2.1 2.6-3.6 3.4-2.7 1.4-6.7 1.8-9.2-.2-1.2-.9-1.7-2.2-1.7-3.7s-.2-3.1.4-4.6c1-2.7 3.6-4.1 6.3-4.8v-.1h.5c.3-.1.6-.1.9-.2v.2c1.6.1 3.2.4 4.6 1.2 1.4.9 2.4 2.3 2.4 4v.4c.1.2.1 1.6 0 1.6z"/>
  <path fill="#FDEAE3" d="M238.1 201.6c3.4-3.5 6.9-6.9 10.3-10.4 0-.2-.1-.5-.1-.7-.3-1.4-.8-2.8-1.3-4.1-1.1-2.7-2.5-5.2-4-7.6-1.6-2.7-3.3-5.4-5-8-.3-.4-.4-.8-.5-1.1-.1.1-.2.2-.3.4.1-.1 0-.4 0-.5v-3.1s0-.1.1-.1v-.6c0 .1.1.1.1.2.1-.4.2-.7.4-.4 1-1.4 2.1-2.7 3.5-3.8-1.8-.7-3.2-2.2-4.3-3.8-1.5-2.1-2.6-4.5-3.2-7-.2-1-.2-2-.2-3-.2.3-.2-.1-.1-1.1l-2.4 1.2s0-.1.1-.2c-5.3 4.2-11 8-17 11-12 5.9-25.5 8.9-38.8 7.1-13.1-1.8-25.9-8.5-35.5-17.5 0 0 0-.1-.1-.1-1.5-.9-3-1.7-4.4-2.7 0 .6.1 1.2 0 1.7-.5 3.5-1.4 7.1-3 10.3-1.4 2.8-3.5 5.4-6.5 6.7-1.9.8-4.4 1-6.3.2.1.1.2.3.3.4 1.6 2 3.8 3.5 6.2 4.1.1 0 0 1.7 0 1.9 0 .1-.1 1.9 0 1.9-.1 0-.2-.1-.3-.1v.7c-1-.1-1.6.6-2.2 1.3-.7.8-1.3 1.6-1.9 2.4-1.2 1.6-2.4 3.3-3.2 5.2-.9 1.9-1.6 3.9-1.9 5.9 0 .2-.1.5-.1.7v.2c.2 1 .4 2 .8 3 .2.5 0 1.3 0 1.9v.1l2.4 3.9c3 4.8 6.2 9.8 10.6 13.5.2.2.5.4.8.6-.1-4.7 0-9.3.3-13.9.2-3.2.5-6.3.9-9.5.3-2.6.7-5.3 2.8-7.1-.2.2 0 1.6 0 1.9 0 .3.2 1.7 0 1.9-1.5 1.3-2.1 3.1-2.4 4.9-.4 2.2-.6 4.5-.9 6.8-.5 5-.7 10.1-.6 15.2.3.2.7.2 1.1.1.8-.2 1.4-1.1 2-1.7 1.5-1.5 3-3 4.5-4.6 2.9-3 5.9-6 8.8-8.9.1-.3.2-.6.2-1-.3 1.2.3 2.6 0 3.8 0 .1-.1.3-.1.4 0 .2 0 .4-.1.5-.4 1.5-.7 3-.9 4.5-.2 1.1-.3 2.2-.3 3.3 0 .3 0 .6-.1.9v.3c.2 3.8.9 7.5 2 11.2 1.8 5.8 4.8 11.1 8.8 15.7-.2-1.5-.2-3-.2-4.5 0-4.3.5-8.5 2.2-12.5 0-.1 0-.2-.1-.3 0 .1.1.2.1.3.1-.2.2-.4.2-.6-.1.4 0 1 0 1.5 1.2 4.7 2.6 9.5 5.7 13.3 3 3.8 7.5 6 10.7 9.7 3 3.4 5.2 7.4 6.2 11.8.5 2.1.6 4.2.6 6.3v1.3c0 1.7-.1 3.4-.4 5.1-.2 1.2-.5 2.3-.9 3.4 2.8-1.5 5.4-3.2 7.8-5.3 4-3.4 7.2-7.3 9.8-11.6 0-.3 0-.6.1-.7.2-.1.4-.2.6-.4 6.2-10.6 8.8-23.3 9.5-35.6 0 .9.1 2.5 0 3.6-.3 5.3-.8 10.5-1.9 15.7-1 4.9-2.6 9.8-4.7 14.4l4.2-2.7c2.2-1.5 4.3-3 6.1-5 3.1-3.5 5-7.9 6.4-12.4v-.1c-.2-1.9-.5-3.9-1-5.8s-1.2-3.7-2-5.5c-.7-1.6-1.5-3.3-2.9-4.3-.2-.2 0-1.6 0-1.9 0-.2.1-1.8 0-1.9 1.9 1.4 2.9 4.1 3.7 6.2.9 2.4 1.6 4.9 2 7.5.2 1.6.4 3.3.4 5l.2-.6c-.3 1.1.3 2.6 0 3.8-.1.2-.1.4-.2.6 0 .7-.1 1.4-.1 2.1 3.1-1.7 5.7-4.1 7.7-7.1 1.8-2.7 3-5.8 3.5-9.1 0-.4 0-.9.1-1.3-.1-.8-.2-1.5-.3-2.3-.3-1.7-.9-3.3-1.6-4.9-1.5-3.1-3.7-5.6-6.1-8-2-1.9-4-3.8-5.5-6.2-.1.5-.2 1-.5 1.5.1-.1 0-.4 0-.5v-1.8l-.3-.6c-.2-.5 0-1.4 0-1.9v-.5c-.6-1.3-1.4-2.5-1.9-3.8-.1-.2 0-.4 0-.6v-3.2c2.7 1.4 5.4 2.7 8.1 4.1 2.1 1 4.5 2 5.6 4.2.1.1 0 .4 0 .6v3.1s1.1 1.1 1.3 1.5c-.1-.2-.1-.4-.2-.6 0-.1-.1-.3-.1-.4 0-.1-.1-.3-.1-.4 0-.1 0-.3-.1-.4 0-.2 0-.4-.1-.6v-1s-.1-.7-.1-1.4v-2.4c.1-1.8.6-3.5 1.6-5v3.5l.1.2c.1 0 .3-.1.6-.2 0-1.2 0-2.5.3-3.7v1.8c0 .6.1 1.3 0 1.9v.3c.2 1 .5 2 1 2.9.9 1.9 2.4 3.5 4.2 4.5v3.7s2 1.8 2.3 2.5c.2-.2 0-1.6 0-1.9s-.8-1.5-.6-1.7zm-99.8-7.4c-.1.3-.5.5-.8.4-.4-.1-.7-.5-.8-1-.3-1.1-.3-2.3-.3-3.4-.2-3.1-.2-6.2 0-9.2v4.8c0 .8.1 1.7.2 2.5.1.7 0 1.6.5 2.2.3.4 1.1.5 1.3-.1v3.2c-.1.2-.1.5-.1.6zm21.9-9.6c-2.3 3.1-4.3 6.5-5.7 10.2v-3.7c.9-2.1 1.9-4.2 3-6.1-5.1 2.2-9.4 6-12.1 10.8v-3.7c3-5.4 8.1-9.6 14-11.5-.1 0 0 1.1 0 1.6.3-.4.5-.8.8-1.2v3.6z"/>
  <path d="M57.4 194.8c0 .5 0 1.1-.2 1.6-.4 1-1.5 1.6-2.4 2-1.9 1.1-4.4 2.1-6.4.6-.8-.6-1-1.4-1-2.3-.1.2-.1-.2 0-1.1 0-.6 0-1.1.1-1.6.1-.6.4-1.1.7-1.6 1-1.4 2.6-2.8 4.3-3 .7-.2 1.6.1 2.3.5 1 .7 2.2 1.6 2.5 2.8.2.5.1 1.4.1 2.1zM77.1 207.5c-.1.4-.3.9-.5 1.2-.5.8-1.2 1.5-2 2.1-.7.6-1.6 1.1-2.5 1.4-.7.2-1.7.2-2-.6-.1-.2-.1-.5-.1-.7v-2.2c0-.4.1-.7.2-1 .4-1.1.9-2 1.6-2.8v-1c.6-.8 1.3-1.6 2.2-2 .9-.4 1.9-.1 2.5.6.7.8.6 1.9.6 2.9.1.8.2 1.5 0 2.1zM84.2 190.3v-.4c-.1-1.7-1-3.1-2.4-4-1.4-.8-3-1.1-4.6-1.2v-.2c-.3 0-.6.1-.9.2h-.5v.1c-2.7.6-5.3 2-6.3 4.8-.5 1.5-.4 3.1-.4 4.6 0 1.4.6 2.8 1.7 3.7 2.5 2 6.5 1.6 9.2.2 1.5-.7 2.8-1.9 3.6-3.4.5-.9.6-1.9.6-2.8.1-.1.1-1.5 0-1.6zm-14.9 2.4c0-.1-.1-.3-.1-.4-.1-.8.1-.8.1.4z"/>
  <path fill="#FDEAE3" d="M237.9 314.5c0 .7-.1 1.4-.2 2.2-.2 2-.5 4-1 5.9-1.8 7.5-5.6 14.5-11 20.1-.3-.7-.8-1.4-1.4-2-1.6-1.7-3.8-2.8-5.9-3.8-2.2-1.1-4.4-2-6.6-2.8-.5-.8-1.1-1.3-2-1.2-.2 0 .2 3.7 0 3.8.4-.1.7 0 1 .2 0 .4 0 .7.1.7l.9.3c.2.3.4.6.5.9.6 1 1 2.1 1.4 3.2.9 2.4 1.4 4.9 1.5 7.4 0 .7-.1 1.3-.2 2-.2 1.2-.4 2.4-.8 3.6-.3 1.1-.7 2.2-1.2 3.2v-1.3c-.1 1.3-.5 2.4-1.1 3.5-.2.4-.5.9-.8 1.3-1.2 1.8-2.7 3.3-4.3 4.7-3.2 2.9-6.3 5.7-9.2 8.9-5.9 6.5-10.9 13.8-14.9 21.6-.5.9-.9 1.9-1.4 2.8-.2.4-.3 1.1-.6 1.3-.3.3-.1-.2-.2-.5 0-.4-.1-.8-.1-1.2-.3-2.5-.5-5.1-.8-7.6-.6-5-1.2-10.1-2-15.1-.2-1.2-.4-2.4-.5-3.6-.1-.7-.2-1.3-.3-2 0-.1-.1-.9-.1-1-.1.1-.1.7-.1.8-.3 2.1-.5 4.3-.7 6.4-.4 4-.6 8-.6 12 0 6.5.6 13.1 3 19.1-12.9-10.6-23.1-24.5-29.2-40.1-1.3-3.2-2.4-6.6-3.3-9.9v-.3c-1.3-9.8-8.3-18.5-17.7-21.8.1 0 0 1.7 0 1.9v.9V335.1c-.6-.9-.9-1.8-1.1-2.7.1-.2.1-.4.2-.6.2-.7.6-1.4 1-2 .9-1.3 2.2-2.3 3.7-2.9h.5v-.2c1-.3 2-.5 3-.4-.1 0 .1-3.8 0-3.8-1.2-.1-2.4.1-3.5.6-1.4 0-2.8.4-4 1.1-2-.6-2.9-2.6-3.3-4.5 0-.2-.1-.5-.1-.8 0-.1 0-.3-.1-.8 0-.5.1-.9.1-1.3.2-1.5.4-2.9.8-4.3.7-2.8 1.8-5.4 3.2-7.9.4-.7 4-6.7 4.8-4.9-.1-.1-.1-.4-.1-.6.3-.1.6-.4.6-.8.1-.6 0-1.3 0-1.9 0-.6-.1-1.3 0-1.9-.3 1.5-2.5.8-3.3.3-1.5-.7-2.8-1.7-3.9-2.9s-2-2.6-2.7-4.1c-.2-.5-.4-.9-.5-1.4 1 1.1 2.3 2 3.8 2.3 3.3.7 6.6-1 9.1-3v-.1c.7.5 1.4 1 2 1.5-.1-.1 0-1.6 0-1.9 0-.3.2-1.7 0-1.9-.5-.3-1-.7-1.4-1-5.2-19.9 5.9-68.5 8.6-79.7l.9-.9c-.7 4.5-.7 9.2-.2 13.7.6 6.7 2.8 13.3 6.2 19.1 2 3.3 4.4 6.3 7.3 9V241.6c0-.3.2-1.6 0-1.9-1-1-1.7-2.2-2.2-3.5-.2-.7-.4-1.5-.6-2.3-.1-.3-.1-.7-.1-1 0-.1 0-.6-.1-1v-.4c0-.5.1-.9.2-1.3.1-.8.3-1.7.5-2.5.4-1.5.8-2.9 1.4-4.3 1 4 2.1 8 4.2 11.6 2.3 3.9 5.8 6.2 9.2 9.1 3.1 2.7 5.8 5.9 7.6 9.6.9 1.8 1.6 3.8 2 5.8.2.9.3 1.9.4 2.8v.2c0 .5-.1 1.1-.2 1.6-.4 2.2-1.1 4.4-2.2 6.3-.4.8-.9 1.7-1.5 2.3-.4.2-.8.3-1.2.5 0 0 0 .1-.1.3-.4.1-.7 0-.8-.5.3 1.1-.4 2.6 0 3.8.2.8 1.1.5 1.6.1.2-.1.3-.3.5-.4 9.1-3.9 16-10.8 20.9-19.1 2.4-1.5 4.8-3 7.1-4.6 2.2-1.5 4.3-3 6.1-5 2.8-3.2 4.7-7.2 6-11.2v.6l-.1.1c-.1.1 0 1.7 0 1.9 0 .2.2 1.8 0 1.9 3-1.5 5.5-3.7 7.5-6.4 4.9 13.1-.3 40.9-2.4 50.9-.3 0-.5 0-.8-.1.1 0-.2 3.7 0 3.8 3.7.4 7.2-.4 10.3-2v2.2c0 1.5.2 2.9.9 4.3.7 1.5 1.9 2.7 3.4 3.2-1.4 1-2.8 1.9-4.3 2.8-.2.1-.1 3.7 0 3.8 3.2 1.6 4.4 5.1 4.8 8.5.1.6.1 1.1.2 1.7v.7z"/>
  <path fill="#EF800B" d="M166.3 118.3v.5c-14.3-1.6-28.7.1-42.8 3.5.1-.8.2-1.5.2-2.3.2-1.8.5-3.6.7-5.3 7.1.1 14.2.4 21.2.6 7 .2 14.1.4 21.1.6.5.2 1 .4 1.5.5-.5.6-1.3 1.1-2.1 1.2.2.1.2.6.2.7zM162.9 114.5c-11.8-.4-23.6-.7-35.4-1-.9 0-1.8 0-2.8-.1.2-1.5.4-3 .5-4.4v.1-2.4c5.6.5 11.2 1.3 16.7 2.4 7.2 1.3 14.1 3.2 21 5.4zM242.2 132.2c-.1.6-.2 1.2-.4 1.7-.3 1.1-.8 2.1-1.3 3-7.2-3.2-14.5-6.1-21.9-8.8-7.9-2.9-15.9-5.6-23.8-8.2v-.5l3.6-.3c4-.3 8.1-.6 12.1-.7 8.1-.3 16.2-.2 24.3.2 1.1.1 2.3.1 3.4.2.7 3 1.8 5.9 2.7 8.8.4 1.3.8 2.7 1.1 4.1.2.1.2.3.2.5zM188.6 120.1c-.1.1-.3.2-.4.1.1 0 .3 0 .4-.1z"/>
  <path fill="#EF800B" d="M256.3 73.1c-.1-.6-.3-1.2-.4-1.8-.3-1.2-.5-2.5-.8-3.7-.6-2.5-1.1-5.1-1.8-7.6-3.9-16.1-9-32-15-47.4.4 2.2.6 4.5.8 6.7.7 8.9.4 17.9.1 26.8-.2 4.6-.5 9.2-1.8 13.6-1.2 4.2-3 8.2-5.4 11.9.2-.3 0-1.5 0-1.9 0-.3-.1-.9-.1-1.4-1.7-.7-2.9-2.2-3.8-3.8-1.2-2-2.5-4.2-3.2-6.5-.5-1.5-.6-3.1-.7-4.7v-1.9c-.7 1.5-1.1 3.1-1.3 4.8.1.5.1 1 .2 1.5.3 1.2.7 2.4 1.2 3.5.1.1 0 .4 0 .6v3.1c-1.6-3.4-1.6-6.8-1.5-10.5 0-1.3.2-2.6.4-3.8-3-3.7-13.5-7.3-13.5-7.3v.9c-15.8-7.7-34.5-9-51.2-3.4-.7.2-4.7 3.7-4.7 3.7.1.6 0 1.3 0 1.9 0 .5-.2 1.3 0 1.9-.1-.6-.9-.2-1.7.3v.3c-1.4 1.9-2.4 4-3.1 6.2-.4 1.1-.6 2.2-.8 3.4-.1.5-.1.9-.2 1.4v.1c.1 1.2-.1 2.5 0 3.8-.2-1.9-.1-3.8-.1-5.7 0-1.5.2-2.9.4-4.3.2-.8.3-1.5.6-2.2-.8.8-1.5 1.7-2.1 2.7-.9 1.5-1.7 3-2.2 4.7-.2.8-.4 1.6-.6 2.5-.1.4-.1.8-.2 1.2v.2h.1c.4.1-.4 3.6 0 3.8-4.7-1.6-8.6-4.8-11.4-8.9-5.6-8-6.2-18-5.8-27.5.3-7.5 1.9-15 4.4-22.1-3 3.9-5.1 8.5-6.7 13.2-2.1 6.2-3.5 12.6-4.9 19-1.6 7.4-3.3 14.9-3.6 22.4v.8c0 .5 0 1 .1 1.4.1.9.1 1.9.3 2.8.2 1.7.5 3.5.8 5.2.7 3.6 1.6 7.2 2.5 10.7 1.9 7.2 3.8 14.5 5.7 21.7v-.5.7c14.2 1.3 28.2 4.4 41.6 9.2 1 0 2.1.1 3.1.1v1.2h-.9c0 .3-.1.7 0 .7h-.1v.4c-.5.9-1.4 1.6-2.4 1.9 1.1.1 2.3.3 3.4.4v.2c.1-.1.2-.2.4-.3v1.3l-1.5 1.5v-1.3l.2-.2c-12.4-1.8-25.1-.9-37.4 1.5-2.7.5-5.4 1.1-8.1 1.7v.4c.1.4 0 1 .1 1.4.2 2 .6 3.9 1.4 5.7 2.7 6.5 9.2 10.3 15 13.7 0 0 0 .1.1.2 5.3 4.9 11.5 8.8 18 11.9 6.2 2.9 12.7 4.9 19.4 5.5 6.9.7 13.8.1 20.6-1.5 12.7-3 24.3-9.7 34.4-18-.1.1-.1.3-.1.7 2.9-1.5 5.7-3.2 7.6-5.7-15-6.6-30.4-11.9-46-17l-1.1 1.1v-1.2c0-.1.1-.1.1-.2-.7-.2-1.5-.5-2.2-.7-.5 0-.9.1-1.4.1-.3 0-.5.1-.8.2-.2.2.2 1 0 1.2-.5.5-.8 0-.9-.6v.1-1.3c.1-.4.3-.6.6-.7-.1 0-.2-.1-.3-.1-.1 0 .1-1.2 0-1.2.9.3 1.8.6 2.8.9.6-.1 1.3-.1 1.9-.2 4.8-.5 9.6-.9 14.5-1.1 10.2-.5 20.4-.4 30.6.2 0-.5-.1-1.2-.1-1.6 0-.4-.2-1.5 0-1.9.7-1.1 1.3-2.3 2-3.5h-.9c-8 .4-16 1.2-24 2.2-1.7 2.5-4.7 4.3-7.6 2.3-.4-.3-.8-.6-1.2-1-5.4.9-10.8 2-16.2 3.2.1 0-.1-1.2 0-1.2 5.1-1.1 10.1-2.1 15.2-3-1.6-2-2.5-4.6-2.9-7.1-.3-1.7-.3-3.5-.3-5.2 0-1.3.1-2.6.2-3.9.3-3 1-6.1 3.1-8.3-.3-.1-.7-.1-1-.2-3.8-.5-6.8 1.2-8.9 4.3-2.3 3.4-3.9 7.4-4.7 11.4.2-.8-.2-1.7 0-2.5.8-4.1 2.4-8.1 4.8-11.6 2.1-3 5.1-4.6 8.8-4.2 7.8.9 11.2 8.8 12.2 15.7.3 1.3.4 2.7.4 4.1v.4c0 1.6-.2 3.1-.7 4.6-.1.3-.2.5-.3.8.6-.1 1.3-.2 1.9-.3 7.6-.9 15.3-1.6 22.9-1.9 6.1-10.9 11.1-22.4 15.2-34.3 0-.4.2-1.5 0-1.9.2.3.4.3.6.1-.2 0-.2-.1-.1-.1-.1 0-.1 0 0 0-.1.1-.1 0 0 0zM149.8 57.6c1.3-3.2 5.2-3.2 7.9-2.1 1.9.8 4 1.8 5.5 3.4.5 0 1.1.2 1.4.7.1.1 0 .4 0 .5v1.1c.1.2 0 .4 0 .5v3.2c-.3-.9-.8-1.6-1.5-2.3h-.4c-.8.1-1.6.3-2.4.6-1.7.5-3.4 1.3-4.9 2.3v-3.6c1.2-.8 2.4-1.4 3.8-1.9-.5-.2-1-.5-1.5-.7-2.7-1-6.6-1.1-7.9 2.1v-3.8zm20.2 46.5c-.1-.6-.1-1.1-.2-1.7.2 2.5-.3 5.2-1.8 7-2.2 2.5-6.3 3-8.9.8-2.4-2-2.6-5.3-2.7-8.2 0-3.6.3-7.2 1.1-10.7.5-2 1.2-4.6 2.8-6.1-.2-.1-.3-.1-.5-.2-3.4-1.2-6.9-.4-9.5 2.1-3 2.9-4.1 7-5.1 10.9.2-.8-.2-1.7 0-2.5 1-3.9 2.1-8 5.1-10.9 2.6-2.5 6.1-3.3 9.5-2.1 1.1.4 2 .9 2.9 1.5 5.3 3.8 6.5 11.3 7.3 17.5.1.9-.1 1.8 0 2.6zm18.3 12.8c-.6.7-1.3 1.4-1.9 2.1v-1.2c.6-.7 1.3-1.4 1.9-2.1V116.9zm4-4.7c.7-.5 1.3-1 2-1.5v1.2c-.7.5-1.3 1-2 1.5v-1.2zm-1.7-5.9v.5c0 .3.1.7 0 .8v.1h-.2c-4.7 2.1-7.8 6.3-10.3 10.6-.1.1-.2.3-.2.4-.1.4-.2.4-.3 0-.1-.1-.2-.4-.3-.6 0 3.6 0 7.1.1 10.7 8.1-1 16.5-.3 24.4 2.1.1 0-.1 1.2 0 1.2-13.6-4.1-28.4-3.2-41.4 2.5.1-.1-.2-1.2 0-1.2 5.4-2.4 11.2-3.9 17-4.6 0-3.6 0-7.2-.1-10.7 0-.1 0-.2-.1-.2-.2-.6-.5-1.2-.8-1.7-.6-1.1-1.3-2.2-2-3.2-1.6-2.1-3.5-3.9-5.7-5.4-.1-.1 0-.5 0-.8v-.7c6.5-1.6 13.3-1.5 19.7.4 0-.2.1-.2.2-.2zm-16.3 8.5v1l-2.4 2.1v-1.3l2.4-2.1v.3zm48-51.3c0 .6-.1 1.3 0 1.9-.5-2.5-3.7-2.9-5.8-2.6-.9.1-1.8.4-2.6.7 1.8 1.7 3.1 4.1 5.7 4.8v1.8c0 .2-.1 1.9 0 1.9-3.3-.9-4.5-4.9-7.7-6.1v-1.4c-.9.6-1.8 1.3-2.5 2.1.1-.1 0-.5 0-.5v-3.2c1.9-2.1 4.4-3.4 7.2-3.8 2.1-.3 5.3.1 5.8 2.6 0 .5-.1 1.2-.1 1.8z"/>
  <path fill="#E4610E" d="M158.5 40.9c-.7.2-4.7 3.7-4.7 3.7-.3-1.2-3.9 2.1-4.4 2.5-1.5 1.5-2.7 3.2-3.6 5-1.7 3.3-2 6.9-2 10.6-7.3-2.6-12.6-9.1-15-16.4-1.5-4.3-2.2-9.1-1.9-13.7.3-4.7 1.1-9.4 2.2-14 1.2-4.7 2.8-9.3 4.9-13.8.3-.2.5-.5.8-.8 7.2 11.7 14 23.8 23.6 33.7v.6c0 .4.2 2.6.1 2.6zM239.4 31.9c0 8.1.2 16.6-2.1 24.5-1.1 3.8-2.8 7.4-4.8 10.7.1-1 .2-2.3 0-2.3-1.6-.4-2.8-1.5-3.7-2.9-1.1-1.5-2-3.2-2.8-4.9-.8-1.5-1.2-3-1.5-4.6.1-.3.2-.7.3-1 .3-.9.8-1.6 1.4-2.3.2-.2 0-1.5 0-1.9v-1.3c0-.1-.1-.5 0-.5-.3.3-.6.7-.8 1.1v-.3c0-.1-.1-.5 0-.5-1 1.6-1.7 3.4-2.2 5.2-3-3.7-13.5-7.3-13.5-7.3 2.6-1.3 4.6-3.6 6.2-6 2.1-3.1 4-6.4 6.1-9.5 4.4-6.8 9.1-13.5 14-20 .1-.2.1-.6.1-1 0 .2 0 .3.1.4 0 .1.1.2.1.2v.2c2.4 7.6 3.1 15.8 3.1 24z"/>
  <path d="M203.7 132.1c-13.6-4.1-28.4-3.2-41.4 2.5.1-.1-.2-1.2 0-1.2 5.4-2.4 11.2-3.9 17-4.6 0-3.6 0-7.2-.1-10.7 0-.1 0-.2-.1-.2-.2-.6-.5-1.2-.8-1.7-.6-1.1-1.3-2.2-2-3.2-1.6-2.1-3.5-3.9-5.7-5.4-.1-.1 0-.5 0-.8v-.7c6.5-1.6 13.3-1.5 19.7.4h.2v.5c0 .3.1.7 0 .8v.1h-.2c-4.7 2.1-7.8 6.3-10.3 10.6-.1.1-.2.3-.2.4-.1.4-.2.4-.3 0-.1-.1-.2-.4-.3-.6 0 3.6 0 7.1.1 10.7 8.1-1 16.5-.3 24.4 2.1.2-.2-.1.9 0 1z"/>
  <path fill="#EF800B" d="M188.6 120.1z"/>
  <path d="M124.5 318.9c0-.3-.1-.5-.1-.8.1.5.1.7.1.8zM279.5 211.5v.7c0 1.4-.2 2.9-.7 4.2-.5 1.2-1.3 2.3-2.7 2.5-1.5.1-2.8-.8-3.7-1.9-1-1.2-1.8-2.7-2.5-4.1-.7-1.4-1-2.8-1-4.4 0-1.5-.1-3 .9-4.2.9-1 2.2-1.4 3.5-1.2 1.1-.3 2.2-.2 3.4.5 1.4.8 2.3 2.2 2.7 3.7.2 1 .3 2 .3 3-.1.3-.1 1.2-.2 1.2zM278.2 229.6c0 .8-.2 1.7-.6 2.3-.6.8-1.6.7-2.3.2-.8-.6-1.3-1.5-1.8-2.4-.9-2-.9-4.1-.9-6.3v1.1c0 .1 0 .2.1.3v-.2c.1-1.1.3-2.3.9-3.3.1-.1.2-.3.2-.4.1-.2.1-.2.2-.2.2 0 .4.2.6.3.4.2.8.5 1.1.8 1.2 1.1 2.1 2.6 2.3 4.3.3 1.1.2 2.3.2 3.5zM290.9 224.3v.8c0 .4 0 .7-.1 1.1-.2.8-.6 1.6-1.5 1.5-.9-.1-1.8-.9-2.3-1.5-.6-.7-1-1.5-1.3-2.3-.2-.7-.3-1.5-.3-2.2v-2.4c-.5.2-1 .6-1.3 1.2v-2.6c.7-1.7 3.1-1.8 4.5-.9 1.7 1.1 2.1 3.4 2.3 5.3v2zM296.6 212.1c0 .9 0 1.7-.6 2.4-1 1.2-2.9 1.2-4.1.4-.7-.4-1.2-1.1-1.6-1.8-.2-.4-.4-.8-.5-1.2-.1-.3-.1-.7-.1-1.1 0 .3-.1-.1 0-1.2 0-.5 0-1.1.1-1.6.1-.4.3-.8.5-1 .4-.4 1-.6 1.6-.3 1.7 0 3.6.5 4.4 2.2.5.9.3 2.1.3 3.2z"/>
  <path fill="none" stroke="#000" stroke-width="2" stroke-miterlimit="10" d="M137.4 283.8c-.2-.5-.3-1-.5-1.6M146.1 200.2s-.2.8-.6 2.3"/>
  <path fill="none" d="M228.7 200.1v.1"/>
  <path fill="#EF800B" d="M229.7 191.6z"/>
  <path fill="none" d="M229.8 191.6h-.1"/>
  <path fill="none" stroke="#000" stroke-width="2" stroke-miterlimit="10" d="M225.8 234.5c-.1-.4-.3-.7-.4-1.1"/>
  <ellipse fill="#FFF" cx="209.6" cy="100.8" rx="2.6" ry="4"/>
  <ellipse fill="#FFF" cx="164.7" cy="100.8" rx="2.6" ry="4"/>
  <path fill="none" d="m230.4 193.2-.6-1.6"/>
</svg>
