<svg version="1.1" id="_Слой_2" xmlns="http://www.w3.org/2000/svg" x="0" y="0" viewBox="0 0 376 470.6" style="enable-background:new 0 0 376 470.6" xml:space="preserve">
  <style>
    .st0{fill:#1d1d1b}.st1{fill:#a88565}.st3{fill:#e4610e}.st4{fill:#ef800b}.st6{fill:#d8d6c7}.st7{fill:#efecdb}.st10{fill:#fff}
  </style>
  <path class="st0" d="M324.4 89.5c0-1.3-.1-2.6-.1-3.8v-1.4c.1 1.7.1 3.5.1 5.2zM286.6 132.5c-.9-.3-2 .6-2.6 2-.6 1.5-.3 2.9.5 3.3.9.3 2-.6 2.6-2s.4-2.9-.5-3.3zm-18.9-6.7c-.9-.2-2 .8-2.4 2.3-.4 1.5 0 2.9.9 3.2.9.2 2-.8 2.4-2.3.4-1.5 0-3-.9-3.2z"/>
  <path class="st0" d="M365.7 144.8c3.8-8.4 7.8-17.2 9.5-26.4.7-3.7.9-7.4.8-11.1-.1-2.1-.2-4.3-.9-6.3-.4-1.1-1-1.5-1.7-1.6v-.1.1c-.9-.1-1.9.3-2.9.7-9.6 4.5-19 9.6-27.9 15.4-1.5-1.3-2.3-3.4-3.5-4.8-1.7-2-3.7-3.6-6-4.9-2.4-1.4-5.1-2.4-7.8-3.1v-.2.1c0-.2-.1-.3-.2-.3s-.1.1-.1.3c-.1-.1-.2-.3-.3-.4-.2-.6 0-1.6-.1-2.3 0-1.5-.1-3-.1-4.5 0-1.9-.1-3.8-.1-5.6v3.8c.1 3 0 6 .1 9-2.5-.6-5.1-.9-7.6-1.1 3.9-8.2 5.1-17.8 3.6-26.8.1 0 .1.1.2.2.3.2.6.6.8.9.4.5.8 1.1 1.1 1.6.7 1.3 1.2 2.8 1.4 4.2.1.9.2 1.9.3 2.9 0-2.2 0-4.5-.5-6.7-.3-1.1-.7-2.3-1.4-3.3-.3-.6-.7-1.1-1.2-1.6-.2-.2-.3-.4-.5-.6-.1-.3-.3-.4-.5-.1-.2.1-.4.3-.6.4-.1 0-.1.1-.1.3-3.5 2-6.5 4.7-9.3 7.6-3.1 3.1-6.1 6.3-9.1 9.6-2.8 3-5.4 6.1-8 9.3-.3.3-.6.5-.9.8 0 .1-.1.2-.1.4-2.7 3.3-5.3 6.7-7.9 10.2-.1.1-.1.4-.1.6-4.8 3.7-9 8.1-13.1 12.6-.2-.2-.3-.4-.5-.6 0 0-.1-.1-.2-.1 0-.1 0-.2-.1-.2v.2c-.7-.5-1.7-.7-2.5-.4v-.3c-1.8 1.4-3.4 3.4-4.1 5.6-.2.7-.3 1.5-.3 2.2-.1.1-.1 1.3 0 1.7-.6-.1-1.1-.1-1.7-.1v1.3c-.1-.5-.2-.9-.4-1.4.1.3 0 .9 0 1.3s-.1.9 0 1.3c.5 1.6.9 3.3 1.1 5 .1.9.2 1.7.3 2.5 0 .4.1.7.1 1.1-1.2 3.8-2.3 7.6-3.2 11.4v-.5c-5 1-10 2-15.1 3-2.1.4-4.6.6-6.2 2.2-1.5 1.5-2.7 3.4-3.9 5.2-4.8 6.9-8.5 14.3-11.3 22.2-.4.8-.8 1.6-1.2 2.5-.3.7-.6 1.4-.8 2.1-.1.4-.3.7-.4 1.1 0 .1-.2.8-.3.5v-.1.5l-12.9 9.6v-.1c-8.7 1-17.4 1.2-26.1 1.3-4.2.1-8.5.3-12.7-.1-3.8-.3-7.8-2.1-11.6-.9-3.6 1.1-6.2 4.3-8.5 7.2v.1c-.6.1-1.3.3-1.9.6-.1 0-.1.2-.1.4-2.9.7-5.4 2.5-7.2 5-.1.2-.1 2.5 0 2.5.5.3.9.6 1.2 1.1 0 0 .1.2.1.3v.2c-.4 1.4-1.4 2.5-2.2 3.7-.8 1.2-1.4 2.3-1.4 3.8 0 1.1-.1 2.4.2 3.5.5 1.6 1.8 3.1 2.9 4.4.8 1 1.6 2 2.5 2.9h-6.4v-.2c.1-.8-.1-1.7 0-2.5 0 .4-.2 1-.5 1.3-.3.3-.3.2-.3-.2-.1-.3 0-.6-.1-.9-.1-1.2-.1-2.4-.1-3.6 0-2.5.2-5.1.4-7.6v-.1c.2 0 .4 0 .6.1-.1 0 .1-2.5 0-2.5-6-.8-12.1-.8-18.1-.7-6.1.1-12.3.2-18.4.3-12.3.2-24.5.4-36.8.6-7 .1-13.9.3-20.9.4v.4c-9-22.9-15.9-46.5-22.5-70.2-1.8-6.5-3.6-13-5.4-19.4v-.2c0-.2 0-.4-.1-.5v.6c0 .1 0 .1 0 0s-.1-.2-.1-.3c0 .1 0 .2.1.3-2.6 1.4-4.7 3.7-6.7 5.8-2.4 2.4-4.8 4.8-7.1 7.2-.1.1 0 1 0 1.3v1.3c2.4-2.4 4.8-4.8 7.1-7.2 2.1-2.1 4.1-4.4 6.8-5.9 6.6 23.6 12.9 47.3 20.9 70.4 2 5.9 4.2 11.8 6.4 17.6-7.3-.2-14.5-.1-21.8.2v1.3c7.4-.4 14.8-.4 22.2-.2v-.1c.1.3.2.6.3.8-.1-.2-.1-.4-.1-.6 24.5-.5 49.1-.9 73.6-1.3 6.6-.1 13.3-.3 19.9.6-.3 4.6-.4 9.3-.1 13.9h-4c-11.2 0-22.5-.1-33.7-.1-13.6-.1-27.1-.1-40.7-.2-11.6 0-23.3-.1-34.9-.1 0-.2-.1-.5 0-.6-.1.2-.1.4-.2.6h.1-.5c-.1-.4-.2-.7-.3-1-.3-1.2-.8-2.4-1.3-3.5 0-.2 0-.5-.1-.7-6.6-21.8-12.1-44-16.5-66.4-1.1-5.8-2.2-11.7-3.1-17.5-.1-.5-.2-1.1-.3-1.6.1.8-.1 1.7 0 2.5 3.7 22.5 8.5 44.9 14.5 66.9 1.7 6.2 3.5 12.5 5.4 18.7-.1-.3-.1-.5-.1-.8.6 1.1 1 2.3 1.4 3.5-4.7 0-9.5-.1-14.2-.1-.4-1.5-4.6 0-4.6 1.6v38.2c0 .2.1.3.1.5v180.7c0 2-.1 4.1-.1 6.2-.1.2-.2.3-.2.5-.1.4 0 .7.3 1v.1c0 .9 1.1.8 1.8.6h18.5c1 0 2.6-.5 2.8-1.7.2-.8-.5-1.3-1.2-1.5V434c.2.1.5.2.8.2h12.1c9.6 0 19.3-.1 28.9-.1 11.7 0 23.3-.1 35-.1 10 0 20.1 0 30.2-.1 4.6 0 9.2.1 13.8 0l.3 12v2.2c-2.9 3.2-5.8 6.4-8.6 9.6-.2.2-.1 2.3 0 2.5 2.1 2.9 4.3 5.7 6.6 8.4.4.5.9 1 1.3 1.5.1.4.3.6.7.8.2.3.5.5.7.2.4.1.9.1 1.2.1h15.9c1.3.3 2.7 0 2.7-1.3 0-.1.1-.3.1-.4 0-.1 0-.2-.1-.3 0-1.5 0-3-.1-4.4 0-4.7-.1-9.3-.2-14v-1.7c13.5-17.2 27.5-33.9 42-50.2 4.3-4.8 8.6-9.6 13-14.3 0-.1.1-.2.1-.4 2.2 0 4.4 0 6.6.1v-.3c.3 0 .6 0 .9-.1h.4c0-.2.1-.5.1-.7.1-.4.1-.8.2-1.2.3-1.6.6-3.1 1-4.7.7-3 1.4-6 2.2-9 1.4-5.4 3.1-10.8 4.9-16.1v.6c0 .2.1 1.1 0 1.3 8.9-9.5 17.8-18.9 26.7-28.4 8.6-9.1 17-18.5 25.9-27.3 4.8-4.8 9.8-9.4 15.1-13.6.2-.1.1-.5.1-.9 2.3-1.8 5-3.1 7.9-3.7 0 0 .1-2.5 0-2.5-.1-.1-.2-.1-.3-.2 4.7-5.4 10.1-10 15.6-14.5 3.2-2.6 6.4-5.1 9.5-7.7 1.6-1.3 3.2-2.7 4.8-4.1.7-.6 1.5-1.3 2.2-2l.9-.9c.4.4.9.7 1.3 1.1-.1-.1 0-1.1 0-1.3 0-.2.1-1.1 0-1.3 0-.4 0-.8-.1-1v-.1.1c-.2-.5-.6-.4-1.2 0-7.8-6.4-15.1-13.3-21.9-20.8 1-1.9 2-3.7 3-5.6 2.6 4.3 5.2 8.5 7.8 12.8-.2-.3.2-.9 0-1.3-2.5-4.1-5-8.1-7.5-12.2 1.3-2.2 2.6-4.4 4-6.5 1.2.8 2.8 1.9 3.9 2.9 0 .2 0 .5.1.7.3.6.3-.1.4-.5.3-1 .6-2 .9-2.9 1.3-3.8 3.5-6.7 5.9-9.8 2.4-3.2 4.3-6.6 6-10.2 1.9-3.9 3.8-7.8 5.6-11.8.1-.2.1-.3.1-.5 6.6 5.1 12.9 10.6 18.8 16.5-.2-.2.2-1 0-1.3-5.9-5.9-12.2-11.3-18.7-16.4.2-1.1.2-2.3.2-3.5 0-1.9-.5-3.7-2-4.8.1-.1.2-.3.3-.4 5.2-8.8 9.6-17 13.4-25.4zm-64.5-52.4c3-3.3 6-6.5 9.1-9.6 2.9-2.9 5.9-5.8 9.6-7.7.1 0 .1-.1.1-.3.1-.1.1-.1.2-.1v.3c.9 4.5 1 9 .1 13.5-.8 4.1-2.2 8-4.1 11.7v-.6c0 .1 0 .2-.1.3-.1.2 0 .2-.3.2s-.6-.1-.9-.2c-.6-.2-1.1-.6-1.6-1.1-1-1-1.9-2.1-2.6-3.3-.3-.6-.6-1.2-.8-1.9-.1-.2-.1-.5-.2-.7.1-.4.2-.7.3-1 .2-.3.4-.5.7-.7 0 0 .1-.2.1-.4.2-.2.3-.4.5-.5.1-.1 0-1.1 0-1.3s-.1-1.1 0-1.3c-.5.4-1 1-1.2 1.6-1.8 2.1-3 4.8-3.2 7.5v2.3c-1.1-.6-2.1-1.5-3.4-1.9-1.4-.4-2.8-.3-4.2 0-.9.2-1.8.3-2.8.6 1.6-1.9 3.1-3.7 4.7-5.4zm7 6.9V99.9c0 .1-.1.2-.2.2-.2 0-.4-.3-.5-.5-.2-.4-.4-.9-.5-1.3.1-.6.2-1.1.4-1.6.5-1.5 1.2-3 2.2-4.2 0 1.4 0 2.7.5 4 .6 1.6 1.6 3 2.8 4.3.1.2.3.3.4.5-1.7 0-3.3 0-5 .1v-.8c0-.5 0-1-.1-1.3zm-1 2zm-7.9-1.7c1.4-.3 2.8-.4 4.1 0 1.2.4 2.1 1.2 3.2 1.8-2.8.3-5.5.9-8.2 1.8 0-.3 0-.6-.1-.6-1-.6-2-1.4-3-2 1.3-.5 2.7-.8 4-1zm-6.7 2.8c.9-.3 1.8.1 2.7.6.5.3.9.6 1.3.9-3.2 1.3-6.1 3-9 4.9 1.6-2.2 3.3-4.3 5-6.4zm-27.2 25.7c.4-1.5 1.5-2.5 2.4-2.3.9.2 1.3 1.7.9 3.2-.4 1.5-1.5 2.5-2.4 2.3-1-.3-1.4-1.7-.9-3.2zm-30.8 38.6c1.2-1.8 2.4-3.6 3.9-5.2 1.6-1.7 4-1.8 6.2-2.2 4.9-1 9.7-1.9 14.6-2.9-.1.3-.1.6-.2.9-.7 3.7-.5 7.5 1.1 10.9.5.9.9 1.8 1.4 2.8-.7 1.2-1.5 2.4-2.7 3.1-1.2.8-2.8 1-4.2.6-1.4-.4-2.6-1.4-3.1-2.7-.1-.3-.2-.5-.3-.8.1-.6.4-1.2.8-1.7v-2.6c-.4.6-.6 1.2-.8 1.8v-1.1c-.9 1.6-1.6 3.4-2 5.2-.3 1.4-.4 2.7-.4 4.1v2.8c-1.9-.7-4.1-.9-6.1-.3.3-1.1.5-2.3.7-3.4.1-.8.1-.8 0 0-.2 1.1 0-.1 0-.1.4-2.5.7-5 .8-7.5.1-.1.2-.1.2-.3V166.9h-.2v-1c0 .3 0 .6-.1 1l-.9.3c0-.3 0-.5.1-.5-5.5 2.6-10.4 6.3-14.4 10.9-1 1.2-2 2.5-2.9 3.8 2.5-5.2 5.2-10.1 8.5-14.7zm24.2-4.9v.4c-.1-.1-.1-.2 0-.4zm3.2 11c.1-.3 0-.8 0-1.1 1.7 3.2 3.6 6.4 5.3 9.6.6 1.1 1.3 2.3 1.9 3.4v.1c-6.4 4-12.9 7.7-19.6 11.1 0-.3.1-.8 0-1-.1-.2-.2-.3-.3-.5v-.2.5c-2.6-1.9-5.2-3.8-7.9-5.5l-1.5-.9c.9-2 1.6-4 2.3-6.1 2.4-.9 5.2-.7 7.5.4.1.1.2.3.3.4.9 1.1 2.5 1.7 3.8.9.1-.1 0-1.1 0-1.3 0-.1-.1-1.2 0-1.3-.6.4-1.2.5-1.9.4v-.2c-.7-.6-1.4-1-2.2-1.4-.4-.7-.6-1.5-.7-2.3 0-.3 0-.6.1-1 .1-.8.3-1.5.5-2.3.4-1.4.9-2.7 1.6-3.9v1.5c0 1.1.2 2.1.9 3.1 1.5 2.2 4.7 2.8 6.9 1.3 1.2-.8 2.1-2.1 2.8-3.4v.6c0-.3.1-.6.2-.9zm-24.9 31.3v1.6-.3c.1 1.4.5 2.7.9 4.2s.8 2.9 1.2 4.4c-7.3 1.1-14.8 1.1-22.1 0-.5-.3-1.1-.5-1.8-.6 1.7-1.2 3.3-2.6 4.7-4.1 1.1-1.1 2.1-2.3 3-3.5.5-.6.9-1.2 1.4-1.9.2-.4.5-.7.7-1.1 0-.1.1-.2.1-.2 0 .1.1.3.1.4v.5c.1-.1.2-.2.2-.3.3.4.7.7 1 1.1 1.3 1.3 2.6 2.5 3.9 3.7 1.6 1.5 4.6 5.6 7.1 3.4.1-.1 0-1.1 0-1.3s-.1-1.1 0-1.3c-2.2 1.9-4.7-1-6.1-2.4-1.1-1.1-2.2-2.2-3.4-3.2-.6-.6-1.7-1.4-2.3-2.2.5-.7 1.1-1.4 1.6-2 .9-1.1 1.7-2.3 2.5-3.5 1.4-2.1 2.7-4.4 3.8-6.7 1.9 0 3.7.5 5.3 1.4v.1-.1c.8.4 1.6.9 2.4 1.5l6.9 4.8-2.4 1.2-6.6 3c-.8.4-1.7.8-2.1 1.6-.1.5 0 1.2 0 1.8zm-18.4 13.7c-3.5.1-7 .1-10.5 0 1.5-1.5 3.6-2.3 5.8-2.3 1 0 2.1.3 3.1.8v.1h.1c.5.3 1 .7 1.4 1.2.1.1.1.2.1.2zm3.6-26.9c.1-.3.3-.6.4-.9 0 .2 0 .4-.1.6.2-.6.4-1.1.6-1.7 1.3-2.4 2.7-4.8 4.4-6.9 4.2-5.5 9.7-9.9 15.9-12.8.1 0 .1-.4.1-.7.2-.1.5-.1.7-.2-.2 2.4-.5 4.8-1 7.2-.2.3-.3.6-.5.9 0-.1 0-.2.1-.3-7 5.4-14 10.7-21 16 .1-.5.2-.9.4-1.2zm8.5-3.2c3.3-2.5 6.5-5 9.7-7.4.2-.1.4-.3.6-.5.4-.3.9-.7 1.3-1-.1.3-.1.5-.2.8h-.1v.5c-.7 2.2-1.5 4.3-2.5 6.4 0-.3 0-.5.1-.7l-.6 1.8c-1.6-.8-3.3-1.4-5-1.4 0-.3 0-.6.1-.8-.1.3-.3.5-.4.8h-.3v.6c-1.3 2.5-2.6 4.9-4.2 7.2-1 1.4-2 2.8-3.1 4.1-.5.6-.7 1.2-.8 1.8v-.1.3c0 .1-.1.1-.1.2-.1.2-.3.4-.4.6-1 1.6-2.2 3-3.4 4.4l-.7.7-.1-.1c-.3-.3-.6-.5-.8-.9-.5-.7-.9-1.4-1.3-2.1-.8-1.4-1.5-2.8-2.3-4.2 4.8-3.6 9.7-7.3 14.5-11zm-15.1 11.4c1.1 2 2.1 4.1 3.3 6.1.3.5.7 1.1 1.1 1.5-2.1 2.1-4.4 4-6.8 5.5 0-.1 0-.2-.1-.2v.3l-.1.1c-1.7-2.5-3.5-4.9-5.4-7.3 2.6-2 5.3-4 8-6zm-3 14c-2.6.4-5 1.9-5.9 4.5v.1c-5-.2-10-.5-15-1.1 5.1-3.7 10.2-7.4 15.2-11.1 2 2.5 3.9 5 5.7 7.6zm-56.7-7.4c3.7-1.7 7.4-.3 11.2.3 4.2.5 8.4.3 12.6.3 4.4 0 8.7-.1 13.1-.3 3.7-.1 7.4-.4 11.1-.7-1.1.8-2.3 1.7-3.4 2.5-3.9 2.9-7.8 5.7-11.7 8.5-4.3-.6-8.6-1.3-12.9-2.3-4.7-1-9.3-2.2-14-3-2.7-.5-5.4-.9-8-1.1-1-.1-2-.1-3-.1 1.4-1.6 3-3.1 5-4.1zM22 427.1v36.8H6.9V283.6c0-1.9.1-3.8.1-5.7h15v130.4c0 6-.2 12.1 0 18.1v.7zm-10.9-151H7v-36.3h14.5c0 .1.1.3.1.4 0 .1 0 .2.1.3 0 .1 0 .1 0 0s0-.1.1-.2c.1-.2.1-.4.2-.5 10.1 0 20.3.1 30.4.1 13.6.1 27.1.1 40.7.2 11.7 0 23.5.1 35.2.1 5.6 0 11.2.2 16.8.1 2.5 1.6 5.4 2.2 8.4 2.5 2.1.2 4.3.3 6.4.5-.3 10.5-.5 20.9-.8 31.4v1.3h-15v-.3c0-.3-2.5-.3-2.5 0v.4H11.1zm124.1 155.8c-9.7 0-19.3 0-28.9.1-11.7 0-23.3.1-35 .1-10.1 0-20.1.1-30.2.1-4.9 0-9.8-.2-14.7 0l-1.9-.1V295.7c0-5.9.2-11.8 0-17.7h117.1c0 1 0 1.9.1 2.9.1 4.7.2 9.4.3 14 .2 6.9.3 13.9.5 20.8.2 8.5.4 17 .6 25.4.2 9.2.4 18.5.7 27.7.2 9.4.4 18.7.7 28.1.2 8.7.4 17.5.6 26.2.1 2.9.1 5.8.2 8.7-3.4 0-6.8.1-10.1.1zm10.8 35.9s-.1 0-.1.1c-.6-.4-1.5-1.6-1.7-1.8-.9-1-1.7-2-2.5-3-1.3-1.5-2.5-3.1-3.6-4.7 2.6-2.8 5.1-5.7 7.7-8.6.1 3.8.2 7.5.3 11.3 0 1.7.1 3.3.1 4.9-.2.6-.2 1.2-.2 1.8zm2.6-.3c0-1.2-.1-2.4-.1-3.7-.1-4.7-.2-9.3-.3-14 0-.9 0-1.8-.1-2.7l.2-.2c.1-.2 0-1 0-1.3s-.2-1.1 0-1.3l-.3.3c-.1-4-.2-8.1-.3-12.1.3-.3.3-.5 0-.6 0-1 0-1.9-.1-2.9-.2-8.5-.4-16.9-.6-25.4-.2-9.2-.5-18.5-.7-27.7-.2-9.4-.5-18.7-.7-28.1-.2-8.7-.4-17.5-.6-26.2-.2-7.4-.4-14.7-.5-22-.1-5.3-.3-10.6-.4-15.9 0-1.6-.1-3.3-.1-4.9v-.7h14.8v3.9c0 4.6.1 9.3.2 14 .1 6.9.2 13.8.3 20.6l.3 25.2c.1 9.2.2 18.5.3 27.7.1 9.3.2 18.6.3 27.8.1 8.7.2 17.3.3 26 .1 7.3.2 14.6.3 22 .1 5.3.1 10.5.2 15.8 0 2.2-.1 4.4 0 6.5h-12.4v-.1zm13.9-227.4c-.8-.2-1.8.1-2.3.8l-3-.3c-2.6-.2-5.3-.3-7.9-.9-2.9-.7-5.3-2.2-7.3-4.3-1-1.1-2-2.3-2.8-3.6-.7-1-1.5-2-1.8-3.1.8-2.5 3.2-4.2 3.6-6.9.1-1.3.3-3.3-.3-4.6 2-2.1 4.6-3.5 7.5-3.9v-.6c3.7-1 8.1-.1 11.8.5 4.7.8 9.4 1.9 14.1 3 4.7 1 9.5 1.9 14.3 2.6 0 .2 0 .4-.1.5l.5-.4c4.6.6 9.3 1.1 13.9 1.4 5.5.3 11 .4 16.4.2 0 .9-.1 1.7-.1 2.6-.1 4.7-.3 9.5-.5 14.2-.1 2.3-.1 4.5-.2 6.8 0 1.1-.1 2.1-.1 3.2-.1.3-.2.6-.3 1-.1-.1-.1-.1-.2.1v.4c-.9.3-2.5-.1-3.2-.1-1.6-.1-3.2-.2-4.8-.4-3-.3-6.1-.7-9.1-1.2s-6-1.1-9-1.8c-2.9-.7-5.8-1.4-8.8-1.8-3-.4-6-.1-9-.1-3 .1-5.8-.5-8.6-1.3-.3-.1-.6-.2-1-.2-.2-1-.8-1.6-1.7-1.8zm-21.6-19.9c0 .1.1.2 0 .2v-.2zm62.9 62.5c-.3 0-.6-.1-.9-.3-1.8-1.1-1.8-3.7-1.9-5.6-.2-3.1-.3-6.3-.2-9.4.2-5.5.9-11 2-16.5.1-.4 0-.9 0-1.3 3.3.5 6.6.9 10 1.1 1.2.1 2.4.2 3.6.2.2 0 .5.1.9.1-2.4 7.5-5 15-7.8 22.3-.9 2.2-1.7 4.5-2.6 6.7-.4.9-.9 1.8-1.6 2.3-.5-.1-.9-.1-1.3-.2-.2.1-.2.3-.2.6zm-26-27.9c.1.3.2.5.3.3.3.2.6.5.6.5l1 1c.6.6 1.2 1.3 1.8 2 1.2 1.4 2.3 2.9 3.4 4.5 1.9 2.8 3.4 5.8 4.6 9-1.1 1.1-2.2 2.3-3 3.6.1-4.8-1.1-9.7-4.1-13.4-2.3-2.8-5.5-4.7-8.5-6.6l3.9-1.5v.6c-.1 0-.1 0 0 0zm-2.3-2.3c-.6.2-4 1.8-4.5 1v-.2l-.1.1v.1c0 .1-.1.2-.1.3-2.1-1.4-4.3-2.8-6.5-4.1v-2c0-1.1.1-2.3.1-3.5 1 .3 2.1.6 3.1.8h.2c.6.1 1.2.3 1.8.4 2 .3 3.9.3 5.9.2 4-.2 7.7.1 11.5.9-2.2 1.4-4.5 2.7-6.8 3.9-1.3.8-3 1.5-4.6 2.1zm-10.8 103c.5 1.1 1 2.1 1.6 3.2.7 1.2 1.5 2.3 2.5 3.3h-.1c-2.1-1-3.2-3.1-4-5.3v-1.2zm.1 12.1c.4.7.9 1.4 1.6 1.9 5.4 4.5 13.1.3 19.3 1.5v3.8-3.8c.2 0 .4 0 .5.1-.2 0 .2-2.5 0-2.5-5.8-1.4-11.7 1.8-17.4-.2-1.8-.6-3.2-1.8-4.1-3.3 0-1.9 0-3.9-.1-5.8.8 2.1 1.9 4.2 4 5.2 1.2.6 2.8.7 4.1.2.8.3 1.6.5 2.5.5 0 0 .1-2.5 0-2.5h-.3v-.1c.1-.3 0-.9 0-1.3V360c-.4 1.1-1.2 1.8-2.2 2.1-2.8-1-5-3.5-6.5-6-.6-1-1.1-2.1-1.6-3.2v-4.2c-.1-8.7-.2-17.3-.3-26-.1-7.3-.2-14.6-.3-22-.1-5.3-.1-10.5-.2-15.8 0-2.5.1-5-.1-7.4l.6-25.5c2.4 1.4 4.6 2.9 7 4.4 2.8 1.8 5.8 3.5 8.4 5.7 2.3 1.9 4 4.3 5.2 7 .5 1.3.9 2.6 1.1 3.9 0 .3.1.6.1 1v.5c-.1.4 0 1-.1 1.3v.2c-.4.6-.7 1.2-1 1.8-.1.3 0 1 0 1.3s.1 1 0 1.3c.3-.5.6-1.1.9-1.6v.7c0-.3.1-.6.1-.9 1.5-2.4 3.5-4.4 5.8-6 1.3-.9 3.7-2.5 5.7-2.7-.4.6-.7 1.2-1 1.8-.8 2.1-1.3 4.3-1.4 6.5-.2 3.8-.3 8.7 2.6 11.5-.1-.1 0-1.1 0-1.3 0-.2.1-1.1 0-1.3-1-1-1.7-2.3-2.1-3.7.3.1.7.3 1 .4v.1c.7.6 1.5 1.2 2.2 1.8.3.3.5.6.7 1 .5.8.9 1.6 1.1 2.5.1.5.3.9.3 1.4 0 .3.1.6.1.9v1.1c-.3 5-1.3 9.9-2.1 14.8-1.6 10-3.4 19.9-5.4 29.9-1.9 9.8-4 19.6-6.1 29.3-1.6 7.4-3.6 15.5-9.2 21-.5.5-1.1 1.2-1.8 1.6-.4.1-.8.2-1.2.2v.2c-.5 0-.9-.2-1.3-.6v-1.2c-.2.1-.5.2-.7.3-1.4-2.4-2.7-4.8-4-7.2-1-1.8-2-3.6-3-5.3v-1.1c-.1.1-.2.2-.4.3-.5-.9-1-1.7-1.5-2.6.6-1.5.5-3 .5-4.6zm.1 7.3c.2.3.4.6.5.9l-.5.5v-1.4zm.1 3.9 1.4-1.4c.9 1.6 1.8 3.3 2.8 4.9 1.2 2.2 2.5 4.4 3.7 6.7-1.6 1.3-3.2 2.8-4.6 4.3-.9 1-1.8 2-2.6 3.1-.1.2-.3.3-.4.5-.2-6-.3-12.1-.3-18.1zm.3 25.5c0-1.6 0-3.3-.1-4.9l.1-.1c.5-.7 1-1.3 1.6-2 2.1-2.5 4.4-4.7 6.9-6.6.3.4.5.8.9 1.1.7.6 1.5.3 2.1-.1 4-.7 7.9-1.6 11.6-2.9 3-1 5.8-2.5 8.8-3.6-10.6 11.7-21.2 23.5-31.8 35.2 0-5.3-.1-10.7-.1-16.1zm10.6 29c-3.4 4.2-6.8 8.4-10.1 12.7-.1-5.5-.1-11-.2-16.4 0-2.2 0-4.3-.1-6.5 11.7-12.9 23.3-25.8 35-38.8 4.2-1.2 8.8-.8 13.1-.8h5.4c-14.9 16.1-29.3 32.7-43.1 49.8zm168.3-187-.4.4c-2.7 2.5-5.5 4.8-8.4 7.1-5.6 4.6-11.4 9-16.7 14-2.7 2.5-5.2 5.2-7.6 8.1-.1-.1-.3-.2-.4-.3-1.1-4.4-.6-8.5.2-13.1.8-4.4 1.7-8.8 2.9-13.1 2.3-8.1 5.3-16.1 9-23.7 6.8 7.4 13.8 14.3 21.4 20.6zm-21.2-23-.4-.4c.1.1 0 1 0 1.3-1.8 3.7-3.4 7.5-4.9 11.3-3.5 9.3-6.2 19.2-7.3 29.1-.4 3.5-.6 7.2-.1 10.8-4.1-2.6-7.9-5.9-11-9.7.1.1 0 1 0 1.3 0 .3-.1 1 0 1.3 3.1 3.8 6.8 7.1 10.9 9.7-2.6 1-5 2.5-7 4.5-.1.1-.1.5 0 .8-8.7 7.1-16.5 15.3-24.1 23.5-8.9 9.5-17.8 18.9-26.6 28.4-4.9 5.2-9.8 10.5-14.8 15.7l.3-.9c.3-.8-.3-1.8 0-2.5-2.1 5.9-4 11.9-5.6 18-.8 3-1.5 6-2.2 9-.4 1.5-.7 3.1-1 4.7-.1.3-.1.6-.2.9-.1.5 0 .8-.4.9-.2.1-.6.1-1 .1v-.1c-2.5-15.1-5.3-30.1-8.5-45.1.2.8-.2 1.7 0 2.5 3 14.2 5.6 28.4 8 42.7-.4 0-.8-.1-1-.1v.3c-4.2 0-8.4-.1-12.6-.1-4.3 0-8.8-.4-13 .7v-.2c0 .1-.1.1-.2.2h-.1c-4.1 1.2-7.9 3.3-11.9 4.7-2.7.9-5.5 1.7-8.4 2.3 4.4-5.3 6.3-12.5 7.7-19.2 4.5-20.6 8.7-41.4 12-62.2.8-5.2 1.7-10.4 1.7-15.6 0-1.4-.1-2.9-.5-4.3 13.3 11.1 26 23 37.9 35.6-.2-.2.2-1 0-1.3-12.1-12.8-24.9-24.8-38.4-36.1-.5-1.2-1.2-2.3-2.1-3.2 0-.4 0-.7-.1-.7l-2.7-.9v1.1c-.1-.6-.1-1.2-.2-1.8v-.6c0-.5.1-1 .2-1.5.4-2.5 1.5-7 4.5-7.6v.7c.1-.1.2-.3.3-.4l.1.1v-.1c.1-.1.1-.2.2-.3.1-.1 0-1.1 0-1.8v-.7c-.2 0-.3 0-.5.1-2.2-2-6.4.7-8.3 2-.8.5-1.5 1.1-2.1 1.7v-1.1.8c-2.5-6.6-6.4-12.6-11.5-17.5.1 0 .1-.1.2-.1 4-1.7 7.7-3.9 11.3-6.5v-.2c3.2.7 6.4 1.5 9.6 2 1.1.2 2.2.4 3.3.5-1.8 9.4-2.3 19.1-1.7 28.6.1 2-.1 5 1.7 6.4 1 .8 1.8.7 2.5.2 4.1.7 8.3 1.2 12.5 1.3 4.5.1 9.1-.1 13.5 1 .3.1 1.3.5 1.5.5.1 0 .1-.2.2-.3 7.3-.4 14.9-1.3 22.2-.3 1.8.3 3.6.6 5.3 1.2.8.3 1.7.8 2.6 1 .9.2 1.2-.6 1.6-1.3 1.8-3.5 3.5-7.1 5.1-10.7 1.9-4.2 3.6-8.5 5.1-12.8.3-.7-.3-1.8 0-2.5-2.7 7.5-5.9 14.9-9.5 22.1-.4.7-.7 1.7-1.2 2.3-.3.4-.7.5-1 .4v-.8c-.7-8.8-1.1-17.5-1.3-26.3v2.2c.2 8.3.6 16.7 1.2 25l-.9-.3c-1.8-.7-3.6-1.2-5.5-1.6-3.6-.7-7.4-.7-11.1-.6-4 .1-7.9.4-11.9.6.2-.6.3-1.2.5-1.9.5-2 .8-4 .9-6 .2-3.6.1-7.2-.5-10.7.1.8-.1 1.7 0 2.5.7 3.9.6 7.7-.3 11.5-.2 1-.5 1.9-.8 2.8-.1.4-.3.9-.4 1.3 0 .1-.1.3-.1.4v.1h-.8v.1c-.8-.1-1.7-.5-2.5-.6-.9-.2-1.8-.3-2.7-.4-3.7-.4-7.4-.2-11.1-.4-3-.2-6-.5-9-1 .1-.2.2-.4.2-.5 2.1-5.1 4-10.3 5.9-15.5 1.8-5.2 3.6-10.4 5.2-15.6 0 .5.1 1 .3 1.4 0-.7.1-1.4.1-2.1v-.5c.1-.3.2-.6.3-.8.1-.4 0-.9 0-1.3v-1.3c-.1.1-.1.2-.1.3l.6-18.6c.1-3.4.3-6.8.2-10.2 0-.5 0-.9-.1-1.3 6.5.8 13.2.7 19.7-.2 0 .3 0 .4.1.5h.2c-1.1 6.1-4.5 11.6-4.9 17.8v2.4c.5-7 4.8-13.2 5.2-20.2 5.1 1 10.4-1.4 15.4.3-.2-.1.3-2.4 0-2.5-4.8-1.6-9.8.5-14.6-.2v-.2c-.5-1.9-1-3.7-1.6-5.6-.4-1.4-.9-2.8-1.2-4.2.5-.8 1.6-1.3 2.5-1.7 1.6-.7 3.1-1.4 4.7-2.1 3.1-1.5 6.2-3 9.2-4.6 5.6-3 11.1-6.2 16.5-9.6.3.5.6.8.9.8-.7 3.5-2.3 6.8-4.4 9.7-2.5 3.3-5.5 6.2-8.6 8.9-.2 0-.5.1-.7.1v.5c-.1.1-.2.2-.4.3-.1.1 0 1.1 0 1.3 0 .2.1 1.1 0 1.3.4-.3.7-.6 1.1-1 10.7-1.5 21.4-2.6 32.1-3.2 5.5-.3 11-.5 16.5-.6 4.1 0 8.2.1 12.2 1 1.1 1.6 2.1 3.3 3.2 4.9 1.4 2.2 2.8 4.4 4.1 6.5-1.4 2.1-2.4 4.1-3.4 6.1zm-103.7-4.1V218.9v.3zm52.2-32c11.9 1.1 23.8 2.1 35.7 2.2 3.4 4.5 6.5 9 9.6 13.6-2.7-.5-5.4-.7-8.1-.7-11 0-22 .6-32.9 1.6-4.9.5-9.8 1-14.6 1.7 2-1.9 4-4 5.6-6.3 2.7-3.5 4.3-7.6 4.7-12.1zm55 29.5c-2.2-3.6-4.4-7.1-6.7-10.6.5.1 1.1.3 1.6.5 3.1 1 6 2.4 8.8 4.1-1.4 2-2.6 4-3.7 6zm22.9-29.6c-1.5 3.1-3 6.3-4.8 9.2-1.8 2.8-4.1 5.1-5.8 8-.8 1.4-1.5 2.9-2 4.4-.3.8-.6 1.7-.8 2.5l-.3 1.2c-.1-.6-.3-1.2-.1-1.7-.2.4-.3.7-.3 1.1-1.1-1-2.5-1.9-3.8-2.8 0-.2 0-.4.1-.5-.1.1-.2.3-.3.4-2.5-1.7-5.2-3.1-8.1-4.2-1.8-.6-3.5-1.1-5.3-1.5-2-3-4.1-6-6.2-9-1.1-1.6-2.3-3.2-3.5-4.8 2 0 3.9 0 5.8-.1 7.1-.2 14.1-.8 21.1-2 3.5-.6 7-1.3 10.3-2.3 2.2-.6 4.5-1.5 6.3-2.9-.8 1.7-1.5 3.4-2.3 5zm1.3-6.6c-2.3 1.5-5.1 2.2-7.7 2.8-.3.1-.6.1-1 .2 1.1-.8 2.2-1.7 3.2-2.7 1.5-1.6 2.7-3.4 3.9-5.3 1.3 1 2.6 2 3.9 2.9-.6.8-1.4 1.5-2.3 2.1zm2.8-7.2c.3.4.5.8.6 1.2.1.3.2.5.2.8-.2.8-.3 1.5-.8 2.3-1.3-1-2.6-2-4-3 .6-1 1.2-1.9 1.8-2.9.9.3 1.7.8 2.2 1.6zm-2.1-4.1h-.1.1c-1 1.6-1.9 3.1-2.9 4.6-3.3-2.4-6.7-4.7-10.1-6.9-12.7-8.1-26.4-14.9-40.6-19.9-3.5-1.2-7-2.3-10.6-3.3.9-.4 1.7-1.1 2.2-1.9 1.4-2 1.9-4.5 2.1-6.9.1-1.2.1-2.5.1-3.8v-1.2c.4.1.7.3 1 .4 2 1 3.5 2.6 4.7 4.5 1.3 2.3 2.6 4.7 3.9 7.1-.1-.3 0-.9 0-1.2 0-.3.1-1 0-1.3-1.3-2.3-2.5-4.7-3.8-7-1.1-2-2.7-3.7-4.8-4.7-4-2-8.9-1-12 2.3-.1.1 0 1 0 1.3 0 .2.1 1.1 0 1.3.5-.5 1.1-1 1.7-1.4-.3 1.8-.3 3.7-.3 5.5 0 1.2.1 2.5.3 3.7.1.8.3 1.6.6 2.2-3.8-.9-7.7-1.6-11.6-2 0 0-.1 1.3 0 1.3.4 0 .9.1 1.3.2-.3.1-.5.2-.8.4v1.2c.8-.4 1.6-.7 2.5-1.1V142.3c14.6 2.1 28.6 7.3 41.9 13.6 11.1 5.3 21.7 11.6 31.6 18.7-.7 1-1.5 2-2.2 3-3 3.5-7 5.8-11.6 6.2v1.2c-.3 0-.6.1-.9.1-2.6.4-5.2.7-7.9 1 0-.3.1-.6 0-.8-11.3-14.1-25.2-26.1-40.9-35.1-4.4-2.5-9-4.9-13.6-6.9.1.1-.2 1.2 0 1.3.5.2 1 .5 1.5.7-.3.1-.5.3-.7.6V147.2c.3-.5.9-.8 1.5-.8v-.7c15.6 7.3 29.9 17.3 42 29.5 3.5 3.5 6.7 7.2 9.8 11-6.3.6-12.5.8-18.8.7-6.8-8.8-14.2-17.1-21.9-25.2-5.4-5.8-10.8-11.5-15.9-17.6.2-.2.5-.3.7-.5v-1.2c-.5.3-1 .7-1.5 1v1.2c.1 0 .2-.1.3-.2 0 .1 0 .3.1.3 9.2 11.1 19.5 21.2 29 32 2.9 3.3 5.6 6.6 8.2 10.1-3.9-.1-7.8-.2-11.7-.4-7.4-.4-14.7-1.1-22-1.7v-1.1c0 .4-.1.7-.1 1.1v-.2.1-.1c-.1-.5-.1-.9 0-1-.4.2-.8.5-1.1.7-.5-.8-.9-1.6-1.3-2.4-1-1.7-1.9-3.4-2.8-5.2-1.9-3.5-3.9-6.9-5.7-10.4-.4-.8-.8-1.6-1.1-2.4-.1-.4-.3-.8-.4-1.2 0-.1-.2-.7-.3-.9 0-.1 0-.3.1-.6 0-.2.1-.5.1-.7.1-.5.2-1 .3-1.4.2-.9.4-1.9.7-2.8.9-3.8 2-7.5 3.1-11.1v.3c1.5-3.4 4.6-5.9 8.2-6.6 0 0 0-.1.1-.3.1.1.1.2.2.2.1.1.2.1.3.2v.3c0 .1 0 .2.1.2 0 0 .1 0 .1-.1v-2.6c0-.3-.2-.3-.4-.5-.5-.4-.9-.9-1.4-1.4-.2-.2-.4-.3-.6-.5.5-.9.9-1.9 1.1-3 .3-1.6.3-3.2.3-4.8v-.7c0 .1.1.1.1.2v.1c.8 1 1.1 2.4 2 3.4v-2.6c-.5-.5-.8-1.2-1.1-1.8 7-7.6 14.9-15 24.6-19 5.4-2.2 11.1-2.9 17-2.8 3.8.1 7.7.4 11.4 1.3 0 .1.1.1.2.1 2.1.5 4.1 1.2 6 2.1 2.7 1.3 5.2 3 7.3 5.2 1 1 1.8 2.2 2.5 3.4.5.7.9 1.4 1.5 2 0 .1 0 .3-.1.3.1-.1.2-.1.3-.2.3.3.7.6 1.1.8-.2-.1 0-.8 0-1.5 7.1-4.5 14.4-8.6 21.9-12.3 1.9-1 3.9-2 5.9-2.8.7-.3 1.3-.4 1.9-.3.4 1.1.6 2 .6 2.8 0-.9 0-1.7-.1-2.6.7.4 1.1 1.1 1.4 2.1 1.1 4.5.6 9.1-.5 13.6-2 8.6-5.6 16.8-9.2 24.8-3.6 8-7.7 15.7-12.1 23.3-.6 1.5-1.3 2.7-2 3.8zm-64.2-33.4c-.6 1.5-1.7 2.4-2.6 2-.9-.3-1.1-1.8-.5-3.3.6-1.5 1.7-2.4 2.6-2 .8.4 1 1.8.5 3.3z"/>
  <path class="st1" d="M172.8 389c-1.6 1.3-3.2 2.8-4.6 4.3-.9 1-1.8 2-2.6 3.1-.1.2-.3.3-.4.5-.1-6.1-.1-12.1-.2-18.2l1.4-1.4c.9 1.6 1.8 3.3 2.8 4.9 1.1 2.4 2.4 4.6 3.6 6.8z"/>
  <path d="M145.2 431.8h-10c-9.7 0-19.3 0-28.9.1-11.7 0-23.3.1-35 .1-10.1 0-20.1.1-30.2.1-4.9 0-9.8-.2-14.7 0l-1.9-.1V295.7c0-5.9.2-11.8 0-17.7h117.1c0 1 0 1.9.1 2.9.1 4.7.2 9.4.3 14 .2 6.9.3 13.9.5 20.8.2 8.5.4 17 .6 25.4.2 9.2.4 18.5.7 27.7.2 9.4.4 18.7.7 28.1.2 8.7.4 17.5.6 26.2 0 2.9 0 5.8.1 8.7z" style="fill:#cea67d"/>
  <path class="st1" d="M146 466.1v1.7s-.1 0-.1.1c-.6-.4-1.5-1.6-1.7-1.8-.9-1-1.7-2-2.5-3-1.3-1.5-2.5-3.1-3.6-4.7 2.6-2.8 5.1-5.7 7.7-8.6.1 3.8.2 7.5.3 11.3-.2 1.7-.1 3.3-.1 5z"/>
  <path class="st3" d="M204 205.3c-1.1.8-2.3 1.7-3.4 2.5-3.9 2.9-7.8 5.7-11.7 8.5-4.3-.6-8.6-1.3-12.9-2.3-4.7-1-9.3-2.2-14-3-2.7-.5-5.4-.9-8-1.1-1-.1-2-.1-3-.1 1.5-1.6 3.1-3.1 5.1-4.1 3.7-1.7 7.4-.3 11.2.3 4.2.5 8.4.3 12.6.3 4.4 0 8.7-.1 13.1-.3 3.6-.2 7.3-.4 11-.7z"/>
  <path class="st4" d="M202.8 220.1c-4.7-.3-9.3-.7-13.9-1.4l-.5.4c.1-.1.1-.2.1-.5-4.8-.7-9.6-1.5-14.3-2.6-4.7-1-9.3-2.2-14.1-3-3.7-.6-8.1-1.5-11.8-.5v.6c-2.9.4-5.6 1.8-7.5 3.9.7 1.3.5 3.2.3 4.6-.3 2.7-2.8 4.5-3.6 6.9.4 1.1 1.1 2.1 1.8 3.1.9 1.2 1.8 2.5 2.8 3.6 2 2.1 4.4 3.6 7.3 4.3 2.6.6 5.2.8 7.9.9l3 .3c.5-.7 1.5-1 2.3-.8.9.2 1.5.8 1.8 1.5.3.1.6.1 1 .2 2.9.8 5.6 1.4 8.6 1.3 3-.1 6-.3 9 .1s5.9 1.2 8.8 1.8c3 .7 6 1.3 9 1.8s6 .9 9.1 1.2c1.6.1 3.2.3 4.8.4.7 0 2.3.4 3.2.1v-.4c.1-.2.1-.2.2-.1 0-.3.2-.6.3-1 0-1.1.1-2.1.1-3.2.1-2.3.1-4.5.2-6.8.1-4.7.3-9.5.5-14.2 0-.9.1-1.7.1-2.6-5.5.5-11 .4-16.5.1zm-60.8-1c3-.5 6-.8 9-1.1v1.3c-3 .3-6 .6-9 1.1.1-.1-.1-1.3 0-1.3zm12.4 9.3c-4.4.9-9 .3-13-1.7-.2-.1.2-1.2 0-1.3 4 2 8.6 2.5 13 1.7-.1.1.1 1.3 0 1.3z"/>
  <path d="M135.6 238.4h-4c-11.2 0-22.5-.1-33.7-.1-13.6-.1-27.1-.1-40.7-.2-11.6 0-23.3-.1-34.9-.1 0-.2-.1-.5 0-.6-.1.2-.1.4-.2.6h-.6c-.1-.4-.2-.7-.3-1-.3-1.2-.8-2.4-1.3-3.5 0-.2 0-.5-.1-.7-6.6-21.8-12.1-44-16.5-66.4-1.1-5.8-2.2-11.7-3.1-17.5 2.4-2.4 4.8-4.8 7.1-7.2 2.1-2.1 4.1-4.4 6.8-5.9 6.6 23.6 12.9 47.3 20.9 70.4 2 5.9 4.2 11.8 6.4 17.6-7.3-.2-14.5-.1-21.8.2v1.3c7.4-.4 14.8-.4 22.2-.2v-.1c.1.3.2.6.3.8-.1-.2-.1-.4-.1-.6 24.5-.5 49.1-.9 73.6-1.3 6.6-.1 13.3-.3 19.9.6-.2 4.7-.2 9.3.1 13.9z" style="fill:#afaeb5"/>
  <path class="st1" d="M22 426.9c0 .1-.1.1-.1.2v36.8h-15V283.6c0-1.9.1-3.8.1-5.7h15v130.4c0 6-.2 12.1 0 18.1v.5zM218.9 383.5c-14.8 16.1-29.2 32.7-43 49.8-3.4 4.2-6.8 8.4-10.1 12.7-.1-5.5-.1-11-.2-16.4 0-2.2 0-4.3-.1-6.5 11.7-12.9 23.3-25.8 35-38.8 4.2-1.2 8.8-.8 13.1-.8h5.3zM161.1 467.5h-12.6c0-1.2-.1-2.4-.1-3.7-.1-4.7-.2-9.3-.3-14 0-.9 0-1.8-.1-2.7l.2-.2c.1-.2 0-1 0-1.3s-.2-1.1 0-1.3l-.3.3c-.1-4-.2-8.1-.3-12.1.3-.3.3-.5 0-.6 0-1 0-1.9-.1-2.9-.2-8.5-.4-16.9-.6-25.4-.2-9.2-.5-18.5-.7-27.7-.2-9.4-.5-18.7-.7-28.1-.2-8.7-.4-17.5-.6-26.2-.2-7.4-.4-14.7-.5-22-.1-5.3-.3-10.6-.4-15.9 0-1.6-.1-3.3-.1-4.9v-.7h14.8v3.9c0 4.6.1 9.3.2 14 .1 6.9.2 13.8.3 20.6l.3 25.2c.1 9.2.2 18.5.3 27.7.1 9.3.2 18.6.3 27.8.1 8.7.2 17.3.3 26 .1 7.3.2 14.6.3 22 .1 5.3.1 10.5.2 15.8.2 2 .1 4.2.2 6.4zM159.8 243.3c-.3 10.5-.5 20.9-.8 31.4v1.3h-15v-.3c0-.3-2.5-.3-2.5 0v.4H7v-36.3h14.5c0 .1.1.3.1.4 0 .1 0 .2.1.3 0 .1 0 .1 0 0s0-.1.1-.2c.1-.2.1-.4.2-.5 10.1 0 20.3.1 30.4.1 13.6.1 27.1.1 40.7.2 11.8 0 23.5.1 35.3.1 5.6 0 11.2.2 16.8.1 2.5 1.6 5.4 2.2 8.4 2.5 2 .2 4.1.3 6.2.5zM344.2 246.3l-.4.4c-2.7 2.5-5.5 4.8-8.4 7.1-5.6 4.6-11.4 9-16.7 14-2.7 2.5-5.2 5.2-7.6 8.1-.1-.1-.3-.2-.4-.3-1.1-4.4-.6-8.5.2-13.1.8-4.4 1.7-8.8 2.9-13.1 2.3-8.1 5.3-16.1 9-23.7 6.8 7.4 13.8 14.3 21.4 20.6z"/>
  <path class="st6" d="M218.7 217.8c-3.5.1-7 .1-10.5 0 1.5-1.5 3.6-2.3 5.8-2.3 1 0 2.1.3 3.1.8v.1h.1c.5.3 1 .7 1.4 1.2.1.1.1.2.1.2zM189.4 272c-1.1 1.1-2.2 2.3-3 3.6.1-4.8-1.1-9.7-4.1-13.4-2.3-2.8-5.5-4.7-8.5-6.6l3.9-1.5v.7h.1c.1.3.2.5.3.3.3.2.6.5.6.5l1 1c.6.6 1.2 1.3 1.8 2 1.2 1.4 2.3 2.9 3.4 4.5 1.8 2.7 3.3 5.8 4.5 8.9zM217.2 251.1c-2.4 7.5-5 15-7.8 22.3-.9 2.2-1.7 4.5-2.6 6.7-.4.9-.9 1.8-1.6 2.3-.5-.1-.9-.1-1.3-.2v.5c-.3 0-.6-.1-.9-.3-1.8-1.1-1.8-3.7-1.9-5.6-.2-3.1-.3-6.3-.2-9.4.2-5.5.9-11 2-16.5.1-.4 0-.9 0-1.3 3.3.5 6.6.9 10 1.1 1.2.1 2.4.2 3.6.2.1.1.4.2.7.2zM244.3 168.2c-.2 2.4-.5 4.8-1 7.2-.2.3-.3.6-.5.9 0-.1 0-.2.1-.3-7 5.4-14 10.7-21 16 .2-.4.3-.8.5-1.2.1-.3.3-.6.4-.9 0 .2 0 .4-.1.6.2-.6.4-1.1.6-1.7 1.3-2.4 2.7-4.8 4.4-6.9 4.2-5.5 9.7-9.9 15.9-12.8.1 0 .1-.4.1-.7.2-.1.4-.1.6-.2zM354.4 175.3c-.2.8-.3 1.5-.8 2.3-1.3-1-2.6-2-4-3 .6-1 1.2-1.9 1.8-2.9.9.3 1.6.8 2.1 1.5.3.4.5.8.6 1.2.1.4.2.6.3.9zM353 178.4c-.7.8-1.5 1.5-2.4 2.1-2.3 1.5-5.1 2.2-7.7 2.8-.3.1-.6.1-1 .2 1.1-.8 2.2-1.7 3.2-2.7 1.5-1.6 2.7-3.4 3.9-5.3 1.4.9 2.7 1.9 4 2.9z"/>
  <path class="st6" d="M261.6 170.9c-.7 1.2-1.5 2.4-2.7 3.1-1.2.8-2.8 1-4.2.6-1.4-.4-2.6-1.4-3.1-2.7-.1-.3-.2-.5-.3-.8.1-.6.4-1.2.8-1.7v-2.6c-.4.6-.6 1.2-.8 1.8v-1.1c-.9 1.6-1.6 3.4-2 5.2-.3 1.4-.4 2.7-.4 4.1v2.8c-1.9-.7-4.1-.9-6.1-.3.3-1.1.5-2.3.7-3.4.1-.8.1-.8 0 0-.2 1.1 0-.1 0-.1.4-2.5.7-5 .8-7.5.1-.1.2-.1.2-.3V166.8h-.2v-1c0 .3 0 .6-.1 1l-.9.3c0-.3 0-.5.1-.5-5.5 2.6-10.4 6.3-14.4 10.9-1 1.2-2 2.5-2.9 3.8 2.3-5.1 5.1-10 8.3-14.6 1.2-1.8 2.4-3.6 3.9-5.2 1.6-1.7 4-1.8 6.2-2.2 4.9-1 9.7-1.9 14.6-2.9-.1.3-.1.6-.2.9-.7 3.7-.5 7.5 1.1 10.9.6.9 1.1 1.8 1.6 2.7z"/>
  <path class="st4" d="M201.3 292.7c-.3 5-1.3 9.9-2.1 14.8-1.6 10-3.4 19.9-5.4 29.9-1.9 9.8-4 19.6-6.1 29.3-1.6 7.4-3.6 15.5-9.2 21-.5.5-1.1 1.2-1.8 1.6-.4.1-.8.2-1.2.2v.2c-.5 0-.9-.2-1.3-.6v-1.3c-.2.1-.5.2-.7.3-1.4-2.4-2.7-4.8-4-7.2-1-1.8-2-3.6-3-5.3v-1.1c-.1.1-.2.2-.4.3-.5-.9-1-1.7-1.5-2.6 0-1.6 0-3.1-.1-4.7.4.7.9 1.4 1.6 1.9 5.4 4.5 13.1.3 19.3 1.5v3.8-3.7c.2 0 .4 0 .5.1-.2 0 .2-2.5 0-2.5-5.8-1.4-11.7 1.8-17.4-.2-1.8-.6-3.2-1.8-4.1-3.3 0-1.9 0-3.9-.1-5.8.8 2.1 1.9 4.2 4 5.2 1.2.6 2.8.7 4.1.2.8.3 1.6.5 2.5.5 0 0 .1-2.5 0-2.5h-.3v-.1c.1-.3 0-.9 0-1.3V360c-.4 1.1-1.2 1.8-2.2 2.1-2.8-1-5-3.5-6.5-6-.6-1-1.1-2.1-1.6-3.2v-4.2c-.1-8.7-.2-17.3-.3-26-.1-7.3-.2-14.6-.3-22-.1-5.3-.1-10.5-.2-15.8 0-2.5.1-5-.1-7.4l.6-25.5c2.4 1.4 4.6 2.9 7 4.4 2.8 1.8 5.8 3.5 8.4 5.7 2.3 1.9 4 4.3 5.2 7 .5 1.3.9 2.6 1.1 3.9 0 .3.1.6.1 1v.5c-.1.4 0 1-.1 1.3v.2c-.4.6-.7 1.2-1 1.8-.1.3 0 1 0 1.3s.1 1 0 1.3c.3-.5.6-1.1.9-1.6v.7c0-.3.1-.6.1-.9 1.5-2.4 3.5-4.4 5.8-6 1.3-.9 3.7-2.5 5.7-2.7-.4.6-.7 1.2-1 1.8-.8 2.1-1.3 4.3-1.4 6.5-.2 3.8-.3 8.7 2.6 11.5-.1-.1 0-1.1 0-1.3 0-.2.1-1.1 0-1.3-1-1-1.7-2.3-2.1-3.7.3.1.7.3 1 .4v.1c.7.6 1.5 1.2 2.2 1.8.3.3.5.6.7 1 .5.8.9 1.6 1.1 2.5.1.5.3.9.3 1.4 0 .3.1.6.1.9.7.4.6 1.4.6 1.2z"/>
  <path class="st7" d="M242.4 178.9c-.1.3-.1.5-.2.8h-.1v.5c-.7 2.2-1.5 4.3-2.5 6.4 0-.3 0-.5.1-.7l-.6 1.8c-1.6-.8-3.3-1.4-5-1.4 0-.3 0-.6.1-.8-.1.3-.3.5-.4.8h-.3v.6c-1.3 2.5-2.6 4.9-4.2 7.2-1 1.4-2 2.8-3.1 4.1-.5.6-.7 1.2-.8 1.8v-.1.3c0 .1-.1.1-.1.2-.1.2-.3.4-.4.6-1 1.6-2.2 3-3.4 4.4l-.7.7-.1-.1c-.3-.3-.6-.5-.8-.9-.5-.7-.9-1.4-1.3-2.1-.8-1.4-1.5-2.8-2.3-4.2 4.9-3.6 9.8-7.3 14.6-11 3.3-2.5 6.5-5 9.7-7.4.2-.1.4-.3.6-.5.4-.4.8-.7 1.2-1zM213.2 212.3c0-.1 0-.2-.1-.2.1 0 .1.1.1.2-.1.1-.1.1-.2.1-1.7-2.5-3.5-4.9-5.4-7.3 2.7-2 5.4-4 8-6 1.1 2 2.1 4.1 3.3 6.1.3.5.7 1.1 1.1 1.5-2 2.1-4.3 4-6.8 5.6zM212.7 213.2c-2.6.4-5 1.9-5.9 4.5v.1c-5-.2-10-.5-15-1.1 5.1-3.7 10.2-7.4 15.2-11.1 2 2.4 3.9 4.9 5.7 7.6 0-.1 0-.1 0 0zM330.1 210.7c-1.3 2-2.5 4-3.7 6.1-2.2-3.6-4.4-7.1-6.7-10.6.5.1 1.1.3 1.6.5 3.2.9 6.1 2.2 8.8 4zM351.7 182.2c-.8 1.6-1.6 3.3-2.4 4.9-1.5 3.1-3 6.3-4.8 9.2-1.8 2.8-4.1 5.1-5.8 8-.8 1.4-1.5 2.9-2 4.4-.3.8-.6 1.7-.8 2.5l-.3 1.2c-.1-.6-.3-1.2-.1-1.7-.2.4-.3.7-.3 1.1-1.1-1-2.5-1.9-3.8-2.8 0-.2 0-.4.1-.5-.1.1-.2.3-.3.4-2.5-1.7-5.2-3.1-8.1-4.2-1.8-.6-3.5-1.1-5.3-1.5-2-3-4.1-6-6.2-9-1.1-1.6-2.3-3.2-3.5-4.8 2 0 3.9 0 5.8-.1 7.1-.2 14.1-.8 21.1-2 3.5-.6 7-1.3 10.3-2.3 2.3-.5 4.6-1.3 6.4-2.8zM316.9 203.1c-2.7-.5-5.4-.7-8.1-.7-11 0-22 .6-32.9 1.6-4.9.5-9.8 1-14.6 1.7 2-1.9 4-4 5.6-6.3 2.6-3.6 4.2-7.8 4.6-12.2 11.9 1.1 23.8 2.1 35.7 2.2 3.4 4.5 6.6 9 9.7 13.7z"/>
  <path d="m248.4 196.5-2.4 1.2-6.6 3c-.8.4-1.7.8-2.1 1.6-.3.6-.2 1.2-.2 1.8v1.6-.3c.1 1.4.5 2.7.9 4.2s.8 2.9 1.2 4.4c-7.3 1.1-14.8 1.1-22.1 0-.5-.3-1.1-.5-1.8-.6 1.7-1.2 3.3-2.6 4.7-4.1 1.1-1.1 2.1-2.3 3-3.5.5-.6.9-1.2 1.4-1.9.2-.4.5-.7.7-1.1 0-.1.1-.2.1-.2 0 .1.1.3.1.4v.5c.1-.1.2-.2.2-.3.3.4.7.7 1 1.1 1.3 1.3 2.6 2.5 3.9 3.7 1.6 1.5 4.6 5.6 7.1 3.4.1-.1 0-1.1 0-1.3s-.1-1.1 0-1.3c-2.2 1.9-4.7-1-6.1-2.4-1.1-1.1-2.2-2.2-3.4-3.2-.6-.6-1.7-1.4-2.3-2.2.5-.7 1.1-1.4 1.6-2 .9-1.1 1.7-2.3 2.5-3.5 1.4-2.1 2.7-4.4 3.8-6.7 1.9 0 3.7.5 5.3 1.4v.1-.1c.8.4 1.6.9 2.4 1.5 2.5 1.5 4.8 3.2 7.1 4.8z" style="fill:#c90c0f"/>
  <path class="st7" d="M326.1 217.4c-1.4-2.2-2.7-4.4-4.1-6.5-1-1.6-2.1-3.3-3.2-4.9-4-.9-8.1-1.1-12.2-1-5.5.1-11 .3-16.5.6-10.8.6-21.5 1.7-32.1 3.2-.4.3-.7.6-1.1 1 .1-.1 0-1.1 0-1.3 0-.2-.1-1.1 0-1.3s.2-.2.4-.3v-.5c.2 0 .5-.1.7-.1 3.1-2.7 6.2-5.6 8.6-8.9 2.2-2.9 3.7-6.2 4.4-9.8-.3 0-.6-.3-.9-.8-5.4 3.4-10.9 6.6-16.5 9.6-3 1.6-6.1 3.1-9.2 4.6-1.5.7-3.1 1.4-4.7 2.1-.9.4-2 .8-2.5 1.7.3 1.4.8 2.8 1.2 4.2.5 1.9 1 3.7 1.6 5.6v.2c4.9.7 9.9-1.4 14.6.2.3.1-.2 2.4 0 2.5-5-1.7-10.3.7-15.4-.3-.5 7-4.8 13.1-5.2 20.2 0-.6-.1-1.7 0-2.4.4-6.3 3.8-11.8 4.9-17.8h-.2c-.1 0-.1-.2-.1-.5-6.5.9-13.1 1-19.7.2.1.4.1.9.1 1.3.1 3.4-.1 6.8-.2 10.2-.2 6.2-.3 12.4-.6 18.6 0-.1.1-.2.1-.3v1.3c0 .4.1.9 0 1.3-.1.3-.2.6-.3.8v.5c0 .7-.1 1.4-.1 2.1-.2-.5-.2-.9-.3-1.4-1.6 5.2-3.4 10.4-5.2 15.6-1.9 5.2-3.8 10.4-5.9 15.5-.1.2-.1.4-.2.5 3 .5 6 .8 9 1 3.7.2 7.4.1 11.1.4.9.1 1.8.2 2.7.4.7.1 1.7.6 2.5.6v-.1h.8v-.1c0-.1.1-.3.1-.4.2-.4.3-.9.4-1.3.3-.9.5-1.9.8-2.8.9-3.9 1-7.6.3-11.5-.1-.8.1-1.7 0-2.5.6 3.5.7 7.2.5 10.7-.1 2-.4 4-.9 6-.1.6-.3 1.2-.5 1.9 4-.2 7.9-.5 11.9-.6 3.7-.1 7.4-.1 11.1.6 1.9.3 3.7.9 5.5 1.6.3.1.6.3.9.3-.6-8.3-1-16.6-1.2-25v-2.2c.2 8.8.6 17.6 1.3 26.3v.8c.4.1.7 0 1-.4.5-.6.9-1.6 1.2-2.3 3.6-7.2 6.8-14.5 9.5-22.1-.3.7.3 1.8 0 2.5-1.6 4.3-3.3 8.6-5.1 12.8-1.6 3.6-3.3 7.2-5.1 10.7-.4.7-.7 1.5-1.6 1.3-.9-.2-1.7-.7-2.6-1-1.7-.6-3.5-1-5.3-1.2-7.3-1-14.9-.2-22.2.3-.1.2-.1.3-.2.3-.2.1-1.3-.4-1.5-.5-4.4-1.1-9-.9-13.5-1-4.2-.1-8.4-.6-12.5-1.3-.7.5-1.5.5-2.5-.2-1.8-1.4-1.5-4.4-1.7-6.4-.6-9.6-.1-19.2 1.7-28.6-1.1-.2-2.2-.3-3.3-.5-3.2-.6-6.4-1.3-9.6-2v.2c-3.5 2.6-7.3 4.7-11.3 6.5-.1 0-.1.1-.2.1 5.1 4.9 9 10.9 11.5 17.5v-.8 1.1c.7-.6 1.4-1.2 2.1-1.7 1.9-1.3 6-4 8.3-2 .1 0 .3-.1.5-.1v.7c0 .7.1 1.7 0 1.8-.1.1-.1.2-.2.3v.1l-.1-.1c-.1.1-.2.3-.3.4.1-.1.1-.4 0-.7-3 .5-4.1 5.1-4.5 7.6-.1.5-.2 1-.2 1.5v.6c0 .6.1 1.2.2 1.8v-1.1l2.7.9c.1 0 .1.3.1.7 1 .9 1.6 2 2.1 3.2 13.5 11.3 26.3 23.3 38.4 36.1.2.2-.2 1 0 1.3-11.9-12.6-24.6-24.5-37.9-35.6.4 1.4.5 2.9.5 4.3 0 5.3-.9 10.4-1.7 15.6-3.2 20.9-7.5 41.6-12 62.2-1.4 6.6-3.3 13.8-7.7 19.2 2.8-.6 5.6-1.4 8.4-2.3 4-1.4 7.8-3.5 11.9-4.7h.1l.2-.2v.2c4.2-1.1 8.7-.8 13-.7 4.2 0 8.4.1 12.6.1v-.3c.2 0 .6 0 1 .1-2.4-14.3-5.1-28.5-8-42.7-.2-.8.2-1.7 0-2.5 3.1 15 5.9 30 8.5 45.1v.1c.4 0 .8 0 1-.1.4-.2.3-.5.4-.9.1-.3.1-.6.2-.9.3-1.6.6-3.1 1-4.7.7-3 1.4-6 2.2-9 1.6-6.1 3.5-12.1 5.6-18-.3.7.3 1.8 0 2.5l-.3.9c4.9-5.2 9.8-10.5 14.8-15.7 8.9-9.5 17.7-18.9 26.6-28.4 7.7-8.2 15.5-16.3 24.1-23.5v-.8c2-2 4.4-3.5 7-4.5-4.1-2.6-7.8-5.9-10.9-9.7-.2-.2 0-1 0-1.3 0-.2.1-1.1 0-1.3 3.1 3.8 6.8 7.1 11 9.7-.5-3.6-.3-7.3.1-10.8 1.1-9.9 3.8-19.8 7.3-29.1 1.5-3.9 3.1-7.6 4.9-11.3 0-.2.1-1.1 0-1.3l.4.4c1.3-2.1 2.3-4.1 3.4-6zM224.7 276c-.4 1.1-.9 2.3-1.6 3.4-.5.8-1.2 1.7-2.3 1.9-1.1.1-2.2-.7-2.6-1.7-.5-1.1-.5-2.3-.6-3.5V275.5c0-1.2 0-2.5.3-3.6s.9-2.1 1.9-2.8c.9-.6 2-.8 3-.3v.4c.3 0 .6 0 1 .1 1.4.5 1.5 1.8 1.5 3-.1 1.2-.1 2.4-.6 3.7zm-28-12.9c-3.9-3.3-8.1-6.3-12.3-9.1 1.8 3.5 3.4 7 4.8 10.6.1.4-.1.9 0 1.3-1.6-4.3-3.6-8.5-5.8-12.6-.1-.1-.2-.1-.3-.2-.2-.1.2-1.1 0-1.3.1.1.2.1.3.2 4.6 3 9.1 6.3 13.4 9.8.1.3-.3 1.2-.1 1.3zm37.4 38c-9.3-5.3-19.2-9.5-29.4-12.7-.1 0 .1-1.2 0-1.3 10.2 3.2 20.1 7.5 29.4 12.7.1.2-.2 1.2 0 1.3zm34.2-54.1c-1.2-5-3.1-9.7-5.9-14-.2-.3 0-1 0-1.3 0-.3.1-1 0-1.3 2.7 4.3 4.7 9 5.9 14 .1.9-.2 1.9 0 2.6zm14.6-12.8c-2.6 2-5 4.1-7.3 6.4-1.1 1.2-2.2 2.4-3.2 3.6-1 1.2-1.9 2.4-2.3 4 .2-.8-.2-1.7 0-2.5.4-1.6 1.4-2.9 2.4-4.1 1-1.2 2.1-2.4 3.1-3.5 2.3-2.3 4.7-4.5 7.3-6.4-.1.1 0 1.1 0 1.3 0 .1.1 1.1 0 1.2z"/>
  <path d="M249.6 195.9c0-.3.1-.8 0-1-.1-.2-.2-.3-.3-.5v-.2.5c-2.6-1.9-5.2-3.8-7.9-5.5l-1.5-.9c.9-2 1.6-4 2.3-6.1 2.4-.9 5.2-.7 7.5.4.1.1.2.3.3.4.9 1.1 2.5 1.7 3.8.9.1-.1 0-1.1 0-1.3 0-.1-.1-1.2 0-1.3-.6.4-1.2.5-1.9.4v-.2c-.7-.6-1.4-1-2.2-1.4-.4-.7-.6-1.5-.7-2.3 0-.3 0-.6.1-1 .1-.8.3-1.5.5-2.3.4-1.4.9-2.7 1.6-3.9v1.5c0 1.1.2 2.1.9 3.1 1.5 2.2 4.7 2.8 6.9 1.3 1.2-.8 2.1-2.1 2.8-3.4v.6c.1-.3.1-.6.2-.9.1-.3 0-.8 0-1.1 1.7 3.2 3.6 6.4 5.3 9.6.6 1.1 1.3 2.3 1.9 3.4v.1c-6.3 4-12.9 7.7-19.6 11.1z" style="fill:#fdeae3"/>
  <path class="st4" d="M316.9 101.3c3.9-8.2 5.1-17.8 3.6-26.8.1 0 .1.1.2.2.3.2.6.6.8.9.4.5.8 1.1 1.1 1.6.7 1.3 1.2 2.8 1.4 4.2.1.9.2 1.9.3 2.9v1.4c0 1.3.1 2.6.1 3.8v3.8c.1 3 0 6 .1 9-2.5-.5-5-.9-7.6-1z"/>
  <path class="st3" d="M296.6 103.8c-3.2 1.3-6.1 3-9 4.9 1.6-2.1 3.3-4.2 5-6.3.9-.3 1.8.1 2.7.6.4.3.8.5 1.3.8zM320.3 88.5c-.8 4.1-2.2 8-4.1 11.7v-.6c0 .1 0 .2-.1.3-.1.2 0 .2-.3.2s-.6-.1-.9-.2c-.6-.2-1.1-.6-1.6-1.1-1-1-1.9-2.1-2.6-3.3-.3-.6-.6-1.2-.8-1.9-.1-.2-.1-.5-.2-.7.1-.4.2-.7.3-1 .2-.3.4-.5.7-.7 0 0 .1-.2.1-.4.2-.2.3-.4.5-.5.1-.1 0-1.1 0-1.3s-.1-1.1 0-1.3c-.5.4-1 1-1.2 1.6-1.8 2.1-3 4.8-3.2 7.5v2.3c-1.1-.6-2.1-1.5-3.4-1.9-1.4-.4-2.8-.3-4.2 0-.9.2-1.8.3-2.8.6 1.5-1.8 3.1-3.5 4.6-5.3 3-3.3 6-6.5 9.1-9.6 2.9-2.9 5.9-5.8 9.6-7.7.1 0 .1-.1.1-.3.1-.1.1-.1.2-.1v.3c1 4.4 1.1 8.8.2 13.4z"/>
  <path class="st4" d="M313.2 101.1c-1.7 0-3.3 0-5 .1v-.8c0-.4.1-.8-.1-1.2V99.8c0 .1-.1.2-.2.2-.2 0-.4-.3-.5-.5-.2-.4-.4-.9-.5-1.3.1-.6.2-1.1.4-1.6.5-1.5 1.2-3 2.2-4.2 0 1.4 0 2.7.5 4 .6 1.6 1.6 3 2.8 4.3.1.1.3.2.4.4zM298.4 103.2c0-.3 0-.6-.1-.6-1-.6-2-1.4-3-2 1.3-.5 2.7-.8 4-1 1.4-.3 2.8-.4 4.1 0 1.2.4 2.1 1.2 3.2 1.8-2.8.3-5.5.8-8.2 1.8zM375.3 104.1c-.3-1-.7-1.8-1.4-2.1.1.9.1 1.8.1 2.6 0-.8-.2-1.7-.6-2.8-.5-.1-1.2 0-1.9.3-2 .8-4 1.9-5.9 2.8-7.5 3.7-14.8 7.8-21.9 12.3-.1.7-.2 1.4 0 1.5-.4-.2-.8-.5-1.1-.8-.1 0-.2.1-.3.2.1 0 .1-.2.1-.3-.6-.6-1.1-1.3-1.5-2-.8-1.2-1.5-2.3-2.5-3.4-2-2.2-4.5-3.9-7.3-5.2-1.9-.9-4-1.6-6-2.1-.1 0-.2 0-.2-.1-3.7-.9-7.6-1.2-11.4-1.3-5.8-.1-11.5.6-17 2.8-9.7 3.9-17.5 11.4-24.6 19 .3.6.6 1.3 1.1 1.8v2.6c-.9-1-1.2-2.3-2-3.4v-.1c0-.1-.1-.1-.1-.2v.7c0 1.6.1 3.2-.3 4.8-.2 1-.6 2-1.1 3 .2.2.4.3.6.5.5.4.9 1 1.4 1.4.2.2.4.2.4.5.1.4 0 .9 0 1.3v1.3c0 .1-.1.1-.1.1-.1 0-.1-.1-.1-.2v-.3c-.1-.1-.2-.1-.3-.2l-.2-.2c0 .1 0 .3-.1.3-3.6.8-6.7 3.3-8.2 6.6v-.3c-1.1 3.7-2.2 7.4-3.1 11.1-.2.9-.5 1.9-.7 2.8-.1.5-.2 1-.3 1.4 0 .2-.1.5-.1.7 0 .2 0 .4-.1.6.1.2.2.8.3.9.1.4.2.8.4 1.2.3.8.7 1.6 1.1 2.4 1.8 3.5 3.8 6.9 5.7 10.4.9 1.7 1.9 3.4 2.8 5.2.4.8.8 1.6 1.3 2.4.4-.2.8-.5 1.1-.7-.2.1-.1.5 0 1v.1-.1.2c0-.4.1-.7.1-1.1v1.1c7.3.7 14.7 1.3 22 1.7 3.9.2 7.8.4 11.7.4-2.6-3.4-5.4-6.8-8.2-10.1-9.5-10.9-19.8-21-29-32-.1-.1-.1-.2-.1-.3-.1.1-.2.1-.3.2v-1.2c.5-.3 1-.7 1.5-1v1.2c-.2.2-.5.3-.7.5 5.1 6 10.5 11.8 15.9 17.6 7.6 8.1 15 16.4 21.9 25.2 6.3.1 12.6-.1 18.8-.7-3.1-3.8-6.4-7.5-9.8-11-12.1-12.2-26.4-22.3-42-29.5v.7c-.6 0-1.2.3-1.5.8v-1.3c.2-.3.4-.5.7-.6-.5-.2-1-.5-1.5-.7-.2-.1.1-1.2 0-1.3 4.7 2.1 9.2 4.4 13.6 6.9 15.7 9 29.6 21 40.9 35.1.1.1 0 .5 0 .8 2.6-.3 5.3-.6 7.9-1 .3 0 .6-.1.9-.1v-1.2c4.6-.5 8.7-2.7 11.6-6.2.8-1 1.5-1.9 2.2-3-10-7.2-20.6-13.4-31.6-18.7-13.3-6.3-27.3-11.5-41.9-13.6V143c-.8.4-1.6.7-2.5 1.1v-1.2c.3-.1.5-.2.8-.4-.4 0-.9-.1-1.3-.2-.1 0 0-1.2 0-1.3 3.9.5 7.8 1.1 11.6 2-.4-.7-.5-1.5-.6-2.2-.2-1.2-.3-2.5-.3-3.7 0-1.9 0-3.7.3-5.5-.6.4-1.2.9-1.7 1.4.1-.1 0-1 0-1.3s-.1-1.1 0-1.3c3.1-3.3 7.9-4.3 12-2.3 2.1 1 3.6 2.7 4.8 4.7 1.3 2.3 2.5 4.6 3.8 7 .1.3 0 .9 0 1.3 0 .3-.1.9 0 1.2-1.3-2.4-2.5-4.7-3.9-7.1-1.1-1.9-2.6-3.5-4.7-4.5-.3-.2-.7-.3-1-.4v1.2c0 1.3 0 2.5-.1 3.8-.2 2.4-.7 4.9-2.1 6.9-.6.8-1.3 1.5-2.2 1.9 3.6 1 7.1 2 10.6 3.3 14.2 5 27.9 11.8 40.6 19.9 3.4 2.2 6.8 4.5 10.1 6.9 1-1.5 1.9-3 2.8-4.5v-.1h.1c.7-1.2 1.4-2.4 2.1-3.5 4.5-7.5 8.5-15.3 12.1-23.3s7.3-16.2 9.2-24.8c.9-4.8 1.5-9.4.4-13.9zM267 158.3v1.1c-1.2-1.7-2.8-3.1-4.5-4.2V154c1.8 1.1 3.3 2.5 4.5 4.2v.1zm62.5-38.2c-.1-.4-.2-.8-.2-1.2v-.4c-.1.2-.1-.9-.1-1.5-1.4 1.3-2.4 3.1-2.7 5v.1c.1.3.1.5.3.8.3.7.9 1.2 1.7 1-.1 0 .2 2.5 0 2.5h-.6v.1c-1.2-.4-2.5 0-3.4.9 1.2.3 2.3.8 3.3 1.5v2.6c-1.1-.8-2.4-1.4-3.7-1.6v-2c-.3.4-.5.9-.5 1.4v.1-2.3c0-.5.1-1 .4-1.5.3-.4.6-.8 1-1.1.4-.3.9-.5 1.4-.6v-3.2c.1-2.4 1.2-4.6 2.9-6.3v2-.3c0-.8.3-1.6.9-2.2v2.6c-.3.3-.5.7-.6 1 .2.7.6 1.4 1.2 1.9 1.7 1.6 4.3 1.7 6.4 1.4v2.6c-1.1.2-2.3.2-3.5 0-1.9-.4-3.6-1.5-4.2-3.3zm44.1-9.1c-1.5 8.5-6.3 16-11.5 22.7-2.7 3.5-5.5 7.2-9.1 9.8-.9.6-1.8 1.2-2.7 1.7-.5.2-1 .6-1.5.7-.4.1-.2.3-.6 0-.1-.1-.2-.3-.3-.4v-.1c-3.3-.8-5.1-4.7-5.4-7.9-.2-1.6-.2-3.2 0-4.8-.9 1.2-1.6 2.5-2.1 4-.2.5-.3 1-.4 1.6.2 1 .6 1.8 1.4 2.5.1.1.1.5 0 .8 0 0 0 .1.1.1v2.6c-1-1.6-2.7-2.8-4.6-3.1-1-.1-2 0-2.9.4 1.9 1 3.6 2.4 4.8 4.2v2.6c-1.7-2.5-4.2-4.3-7.1-5.1-.1 0 0-1.1 0-1.3v-1.3c1.3-1.5 3.3-2.2 5.3-2 1.1.1 2.1.6 2.9 1.2v-1.4c0-.9 0-1.9.2-2.7.4-2.3 1.6-4.5 3.2-6.4.3-.9.7-1.8 1.2-2.6-.1.3 0 .9 0 1.2 0 .3.1 1 0 1.3 0 .2.1 1.1 0 1.3-.4.4-.9.9-1.3 1.4-.2.6-.4 1.3-.5 2-.1.4-.1.7-.1 1.1v.4c.1.7.2 1.4.4 2 .7 2.4 2.3 4.9 4.8 5.7 0-.3.1-.6.1-.9v.5c0 .1 0 .3.1.4.3.1.6.1.9.1v.4c.4-.2.9-.5 1.1-.6 1-.5 2-1.1 2.9-1.7 1.9-1.3 3.5-2.9 5-4.6 2.9-3.4 5.7-7 8.1-10.7 2.5-3.7 4.7-7.6 6.1-11.8.7-1.9 1.2-3.9 1.5-6 .2-1.1.3-2 .4-2.9 0 1.7-.1 3.6-.4 5.6z"/>
  <path class="st0" d="M374 105.2c0 1.9-.1 3.9-.4 5.8-1.5 8.5-6.3 16-11.5 22.7-2.7 3.5-5.5 7.2-9.1 9.8-.9.6-1.8 1.2-2.7 1.7-.5.2-1 .6-1.5.7-.4.1-.2.3-.6 0-.1-.1-.2-.3-.3-.4v-.1c-3.3-.8-5.1-4.7-5.4-7.9-.2-1.6-.2-3.2 0-4.8-.9 1.2-1.6 2.5-2.1 4-.2.5-.3 1-.4 1.6.2 1 .6 1.8 1.4 2.5.1.1.1.5 0 .8 0 0 0 .1.1.1v2.6c-1-1.6-2.7-2.8-4.6-3.1-1-.1-2 0-2.9.4 1.9 1 3.6 2.4 4.8 4.2v2.6c-1.7-2.5-4.2-4.3-7.1-5.1-.1 0 0-1.1 0-1.3v-1.3c1.3-1.5 3.3-2.2 5.3-2 1.1.1 2.1.6 2.9 1.2v-1.4c0-.9 0-1.9.2-2.7.4-2.3 1.6-4.5 3.2-6.4.3-.9.7-1.8 1.2-2.6-.1.3 0 .9 0 1.2 0 .3.1 1 0 1.3 0 .2.1 1.1 0 1.3-.4.4-.9.9-1.3 1.4-.2.6-.4 1.3-.5 2-.1.4-.1.7-.1 1.1 0-.2 0-.4-.1-.6v.7c0 .6.1 1.2 0 .3.1.7.2 1.4.4 2 .7 2.4 2.3 4.9 4.8 5.7 0-.3.1-.6.1-.9v.5c0 .1 0 .3.1.4.3.1.6.1.9.1v.4c.4-.2.9-.5 1.1-.6 1-.5 2-1.1 2.9-1.7 1.9-1.3 3.5-2.9 5-4.6 2.9-3.4 5.7-7 8.1-10.7 2.5-3.7 4.7-7.6 6.1-11.8.7-1.9 1.2-3.9 1.5-6 .3-1.4.4-2.3.5-3.1zM342.4 135.2v-.4.4zM337.1 123.3c-1.1.2-2.3.2-3.5 0-1.9-.3-3.5-1.4-4.1-3.2-.1-.4-.2-.8-.2-1.2v-.4c-.1.2-.1-.9-.1-1.5-1.4 1.3-2.4 3.1-2.7 5v.1c.1.3.1.5.3.8.3.7.9 1.2 1.7 1-.1 0 .2 2.5 0 2.5h-.6v.1c-1.2-.4-2.5 0-3.4.9 1.2.3 2.3.8 3.3 1.5v2.6c-1.1-.8-2.4-1.4-3.7-1.6v-2c-.3.4-.5.9-.5 1.4v.1-2.3c0-.5.1-1 .4-1.5.3-.4.6-.8 1-1.1.4-.3.9-.5 1.4-.6v-3.2c.1-2.4 1.2-4.6 2.9-6.3v2-.3c0-.8.3-1.6.9-2.2v2.6c-.3.3-.5.7-.6 1 .2.7.6 1.4 1.2 1.9 1.7 1.6 4.3 1.7 6.4 1.4v1.3c-.1.1-.1 1.2-.1 1.2zM220.7 192.3c0 .1-.1.1-.1.2 0 0 0-.1.1-.2zM223.7 269.2c-.3-.1-.6-.1-1-.1v-.4c-1-.4-2.1-.2-3 .3-1 .6-1.6 1.6-1.9 2.8-.3 1.2-.3 2.4-.3 3.6V276c0 1.2 0 2.4.6 3.5.5 1 1.5 1.8 2.6 1.7 1-.1 1.8-1 2.3-1.9.6-1.1 1.1-2.3 1.6-3.4.5-1.3.5-2.4.5-3.8.1-1.1 0-2.4-1.4-2.9zm-.4 7.3c-.4.8-.9 1.6-1.7 2-.8.4-1.7.3-2.4-.2-.9-.6-1.2-1.6-1.4-2.6v-.4c0-.4.1-.9.3-1.3.4-1.1 1.2-2.2 2.3-2.7v.9c1.4-.6 3.8-1.2 4.6.6-.1.2-.1.5-.2.7-.5 1-.9 2-1.5 3z"/>
  <path class="st6" d="M224.9 272.8c-.1.2-.1.5-.2.7-.4 1-.8 2.1-1.4 3-.4.8-.9 1.6-1.7 2-.8.4-1.7.3-2.4-.2-.9-.6-1.2-1.6-1.4-2.6v-.4c0-.4.1-.9.3-1.3.4-1.1 1.2-2.2 2.3-2.7v.9c1.3-.6 3.7-1.2 4.5.6z"/>
  <path class="st0" d="M268.3 247c-1.2-5-3.1-9.7-5.9-14-.2-.3 0-1 0-1.3 0-.3.1-1 0-1.3 2.7 4.3 4.7 9 5.9 14 .1.9-.2 1.9 0 2.6zM282.9 234.2c-2.6 2-5 4.1-7.3 6.4-1.1 1.2-2.2 2.4-3.2 3.6-1 1.2-1.9 2.4-2.3 4 .2-.8-.2-1.7 0-2.5.4-1.6 1.4-2.9 2.4-4.1 1-1.2 2.1-2.4 3.1-3.5 2.3-2.3 4.7-4.5 7.3-6.4-.1.1 0 1.1 0 1.3 0 .1.1 1.1 0 1.2zM151 219.2c-3 .3-6 .6-9 1.1.1 0-.1-1.2 0-1.3 3-.5 6-.8 9-1.1 0 .1.1 1.3 0 1.3zM154.4 228.4c-4.4.9-9 .3-13-1.7-.2-.1.2-1.2 0-1.3 4 2 8.6 2.5 13 1.7-.1.1.1 1.3 0 1.3zM216.4 120.6c8.4 1 16.9 2 25.1 4.1 3.7.9 7.3 2.2 10.4 4.4 3.3 2.2 5.9 5.2 8.5 8.2-.2-.2.2-1 0-1.3-2.6-3-5.2-6-8.5-8.2-3.1-2.1-6.8-3.5-10.4-4.4-8.2-2.1-16.8-3-25.1-4.1.1 0 0 1.3 0 1.3zM209.5 140.5c16.7-3.6 34.3-2.8 50.6 2.4-.1 0 .1-1.2 0-1.3-16.3-5.2-33.8-6-50.6-2.4-.1 0 .1 1.3 0 1.3zM258.6 137.6c-11.2-5.6-23.6-8.5-36.1-8.4v1.3c12.5-.2 25 2.7 36.1 8.4-.1-.2.2-1.2 0-1.3zM267 158.3v1.1c-1.2-1.7-2.8-3.1-4.5-4.2V154c1.8 1.1 3.3 2.5 4.5 4.2v.1zM234.1 301.1c-9.3-5.3-19.2-9.5-29.4-12.7-.1 0 .1-1.2 0-1.3 10.2 3.2 20.1 7.5 29.4 12.7.1.2-.2 1.2 0 1.3zM196.7 263.1c-3.9-3.3-8.1-6.3-12.3-9.1 1.8 3.5 3.4 7 4.8 10.6.1.4-.1.9 0 1.3-1.6-4.3-3.6-8.5-5.8-12.6-.1-.1-.2-.1-.3-.2-.2-.1.2-1.1 0-1.3.1.1.2.1.3.2 4.6 3 9.1 6.3 13.4 9.8.1.3-.3 1.2-.1 1.3zM97.7 0C67.5 0 42.9 24.6 42.9 54.8s24.6 54.8 54.8 54.8 54.8-24.6 54.8-54.8S127.9 0 97.7 0zm0 106.6c-28.6 0-51.8-23.2-51.8-51.8S69.1 3 97.7 3s51.8 23.2 51.8 51.8-23.2 51.8-51.8 51.8z"/>
  <path class="st10" d="M97.7 3C69.1 3 45.9 26.2 45.9 54.8s23.2 51.8 51.8 51.8 51.8-23.2 51.8-51.8S126.3 3 97.7 3zm2.5 54.6c-.5.9-1.4 1.5-2.5 1.5-1.6 0-2.8-1.3-2.8-2.8 0-1 .5-1.9 1.3-2.4V23.5h3V54c.3.2.5.4.7.6l39.5-9.8.7 2.9-39.9 9.9z"/>
  <path class="st0" d="m140.1 47.7-39.9 9.9c-.5.9-1.4 1.5-2.5 1.5-1.6 0-2.8-1.3-2.8-2.8 0-1 .5-1.9 1.3-2.4V23.5h3V54c.3.2.5.4.7.6l39.5-9.8.7 2.9z"/>
  <path class="st10" d="M287.2 135.8c-.6 1.5-1.7 2.4-2.6 2-.9-.3-1.1-1.8-.5-3.3.6-1.5 1.7-2.4 2.6-2 .8.4 1 1.8.5 3.3zM268.6 129c-.4 1.5-1.5 2.5-2.4 2.3-.9-.2-1.3-1.7-.9-3.2.4-1.5 1.5-2.5 2.4-2.3.9.2 1.3 1.7.9 3.2z"/>
</svg>
