<svg id="_Слой_2" data-name="Слой 2" xmlns="http://www.w3.org/2000/svg" viewBox="0 0 501.13 494.06">
  <defs>
    <style>
      .cls-3{fill:#fff}.cls-4{fill:#e77e0c}.cls-8{fill:#cb5f18}.cls-9{fill:#1d1d1b}
    </style>
  </defs>
  <path class="cls-9" d="M274.92 233.67c-.84-7.24-3.65-14.13-8.11-19.89-.07-.09-.01-.44-.01-.55-.01-.45-.01-.89-.01-1.33 0-.33.21-1.63.02-1.87 4.46 5.76 7.27 12.65 8.11 19.89.14 1.24-.14 2.52 0 3.75Z"/>
  <path class="cls-9" d="M498.5 417.56c-2.06-4.45-5.16-8.4-8.81-11.66-8.04-7.18-18.62-10.66-28.94-13.04-21.78-5.03-44.14-7.33-66.23-10.59-21.78-3.2-43.62-7.16-64.31-14.89-4.56-1.71-9.04-3.61-13.44-5.69.02-1.62.01-3.25-.14-4.85-.39-4.37-1.86-8.56-3.91-12.41-3.19-5.98-7.57-11.42-12.37-16.29 3.38-.25 6.07-1.79 7.62-4.99.88-1.84 1.66-3.7 2.7-5.46 1.03-1.75 2.19-3.42 3.4-5.05 2.6-3.51 5.38-6.9 8.09-10.33 6.13-7.76 12.27-15.53 18.41-23.3.19-.04.38-.09.58-.14.23.03.63-.51.76-.69-.01.16-.03.3-.08.36 9.47-10.36 18.17-21.41 26-33.05.02-.03.02-.06.04-.09 4.8.32 8.85-2.26 10.46-6.91.73-2.12.93-4.35.96-6.57v-.83c.04-.41.06-1.88 0-1.75-.01-1.5-.06-2.99-.25-4.47-1.27-10.22-7.09-21.24-17.64-24.21.08.02.1.29.08.68-7.86-5.15-18.75-5.32-26.54.11-2.16 1.5-4.09 3.46-5.22 5.86-1.1 2.33-1.05 4.76-1.04 7.28.02 1.7.21 3.32.89 4.78-4.84 4.85-9.67 9.7-14.51 14.54-2.82 2.83-5.64 5.65-8.46 8.48-1.35 1.35-2.7 2.71-4.05 4.06-.7.71-1.41 1.42-2.11 2.12-.61.62-1.34 1.62-2.11 2.03-.05.03-.06.24-.07.51-2.96-5.93-5.93-11.86-8.89-17.78-1.55-3.08-3.09-6.17-4.91-9.1-.86-1.4-1.78-2.76-2.79-4.06-.53-.67-1.07-1.33-1.64-1.97-.21-.22-.49-.47-.74-.73.04-.4.05-.82-.04-1.1-.04-2.07-.21-4.15-.6-6.15-.81-4.16-2.48-8.11-4.52-11.81-1.94-3.51-4.13-7.03-6.72-10.1-1.38-1.64-2.95-3.12-4.81-4.2-.9-.53-1.85-.95-2.75-1.46 4.01-2.05 7.81-4.52 11.3-7.39.19-.16.02-1.61.02-1.87s-.21-1.72-.02-1.88c-.06.06-.13.11-.2.16v-.54c0-.12-.07-.46-.01-.55-1.12 1.87-4.23.36-5.64-.33-2.05-.99-3.89-2.41-5.42-4.09-1.5-1.66-2.71-3.59-3.56-5.66-.34-.85-.61-1.72-.82-2.61 2.39-2.28 4.37-5.02 6.26-7.71 2.16-3.07 4.16-6.39 5.06-10.06.03-.1.04-.2.06-.3 11.06 2.23 22.08 4.63 33.04 7.33 26.13 6.44 51.94 14.55 76.39 25.88 13.77 6.39 27.06 13.81 39.59 22.39-.19-.13.2-1.11 0-1.25-22.28-15.25-46.89-26.72-72.35-35.53-24.92-8.63-50.61-14.8-76.43-20.03.46-2.8.39-5.87 0-8.6-.07-.45-.15-.91-.24-1.36 12.67.27 25.34.96 37.96 2.11 22.94 2.09 45.75 5.62 68.24 10.57 12.69 2.79 25.28 6.04 37.74 9.73-.11-.03.12-1.22 0-1.25-22.17-6.56-44.74-11.72-67.56-15.43-22.73-3.7-45.7-5.97-68.72-6.78-2.64-.1-5.29-.16-7.94-.21-.25-1.08-.53-2.14-.79-3.21-.11-.48-.22-.95-.32-1.43 11.31-1.13 22.65-2.03 34-2.69 28.62-1.66 57.32-1.84 85.95-.52 16.11.74 32.19 1.96 48.23 3.64-.03 0 .05-1.24 0-1.25-28.67-3-57.49-4.52-86.32-4.51-27.41 0-54.81 1.38-82.08 4.11 0-.06-.02-.11-.03-.17-.05-.29-.08-.58-.1-.88.65-5.99 4.09-11.28 6.94-16.44 1.63-2.96 3.21-6 4.1-9.28.67-2.47.84-5.08.77-7.66.19.7.38 1.41.57 2.11-.31-1.15.32-2.57 0-3.75-3.19-11.82-6.38-23.65-9.57-35.48-3.09-11.47-6.05-22.99-9.6-34.33-1.86-5.97-4.31-11.42-9.07-15.65.16.15-.02 1.62-.02 1.88 0 .08-.02.26-.04.48-.01-.21-.03-.39-.03-.49 0-.07.04-.59-.01-1.02V.72l-.02.01c-.05-.23-.13-.41-.27-.44 0-.08.02-.14.05-.16l-.21.18s-.09.04-.14.08c-.02.02-.03.05-.04.07-5.57 4.53-8.49 11.21-10.85 17.83-1.27 3.55-2.4 7.15-3.77 10.66-1.56 4-3.46 7.86-5.67 11.53-1.24 2.06-2.57 4.06-4 5.99-.69.93-1.4 1.85-2.14 2.75-.17.21-.67.88-1.15 1.27-.27.07-.54.1-.81.09 0-.29.01-.52.06-.54-.1.05-.16.16-.21.29 0-.01-.01-.01-.01-.02v.04c-.02.07-.04.15-.05.23-1.04-.09-1.98-.66-2.92-1.21-1.38-.81-2.74-1.36-4.31-1.68-3.28-.68-6.64-1.17-9.96-1.52-6.27-.65-12.78-.35-18.46 2.6-5.87-4.01-8.89-10.75-11.88-16.97-3.69-7.68-7.95-15.08-12.79-22.1-1.37-2-2.8-3.97-4.26-5.9-.3-.4-1.37-1.63-2.27-2-.03-.42-.05-.84.07-.98-.24.29-.45.6-.68.9-.25.05-.47.25-.59.66-.02.06-.02.11-.04.17-4.11 5.63-6.97 11.9-8.88 18.63-2.3 8.13-4.21 16.39-6.29 24.58-2.09 8.26-4.19 16.53-6.28 24.8-1.04 4.09-2.08 8.18-3.12 12.28-.88 3.47-1.28 6.87-1.01 10.46.16 2.04 1.01 3.91 1.89 5.72.95 1.95 1.85 3.91 2.68 5.92 1.74 4.23 3.2 8.56 4.65 12.89.01.13.01.25.02.37.05.6.09 1.2.13 1.8.01.17 0 .73.02.83-.05 1.14-.13 2.28-.26 3.42-.22 1.94-.56 3.86-1.02 5.75-.36 1.51-.93 3.02-1.2 4.56-5.7 1-11.39 2.08-17.06 3.27-24.06 5.01-47.78 11.63-70.95 19.81-13.12 4.63-26.06 9.77-38.78 15.38-.17.07.14 1.18 0 1.25 22.62-9.98 45.92-18.43 69.68-25.27 18.74-5.4 37.77-9.78 56.97-13.16-.09 1.4-.1 2.86.01 4.25.03.43.11.85.21 1.28-11.15 3.08-22.26 6.31-33.32 9.7-7.81 2.38-15.59 4.85-23.36 7.38-.13.04.12 1.21 0 1.25 18.88-6.16 37.9-11.88 57.04-17.17.85 2.24 2.46 4.38 3.7 6.22.79 1.16 1.62 2.29 2.47 3.4-9.6 3.84-19.14 7.83-28.58 12.05-12.93 5.78-25.69 11.99-38.14 18.77-12.36 6.74-24.41 14.05-35.98 22.08-11.62 8.06-22.75 16.83-33.18 26.39-1.3 1.18-2.58 2.39-3.86 3.6-.21.2.21 1.05 0 1.25 10.22-9.7 21.14-18.64 32.58-26.85 11.49-8.24 23.5-15.76 35.83-22.67 12.36-6.93 25.04-13.25 37.92-19.14 11.26-5.14 22.67-9.94 34.17-14.52.88 1.09 1.79 2.17 2.74 3.21 3.51 3.83 7.47 7.25 11.76 10.2-1 2.88-2.72 5.38-5.02 7.46-2.86 2.58-6.04 5.07-9.42 6.91-3.32 1.81-7.2 2.96-11 2.29-2.41-.43-4.92-1.87-5.86-4.16-.05-.35-.1-.69-.12-1.04v.75c-.12-.36-.21-.75-.25-1.15v-.13c0-.71-.02.61-.02.68-.01.85-.01 1.71 0 2.56.01.67.15 1.29.36 1.86.49 3.73 2.24 7.21 4.9 9.88 1.03 1.03 2.18 1.93 3.43 2.67-.66.59-1.27 1.23-1.81 1.94-1.3 1.73-2.2 3.72-3.13 5.66-1.05 2.2-2.1 4.39-3.14 6.59-.1.2-.11.52-.09.86-3.86-.23-7.72-.45-11.58-.66-4.3-.23-8.6-.55-12.9-.62-4.08-.07-8.17.23-12.05 1.59-.15.05-.15.5-.1 1.07-.04.6.02 3.63.01 3.63h.69c1.83 6.42 3.04 13.01 3.56 19.66.15 1.88.25 3.77.29 5.66v.81c-.37-.2-.43.31-.2 1.51-1.56.59-3.12 1.18-4.69 1.76-.14.06-.15.44-.11.95-1.01.41-3.02 2.85-3.39 3.28-2.38 2.8-3.61 5.88-3.64 9.56-.01 1.73-.07 3.49.18 5.22.28 1.9.89 3.75 1.56 5.55.7 1.86 1.48 3.69 2.14 5.56.65 1.81.96 3.68 1.51 5.51.68 2.25 2.29 2.58 4.13 3.59.85.47 1.22 1.17 1.83 1.87.35.4 1.02.7 1.47.46 1.35 1.15 2.88 2.25 4.48 3.03 0 .05 0 .11.01.17.88 5.39.78 10.81.73 16.26-.04 4.68 0 9.37.14 14.06.31 9.81 1.17 19.61 2.55 29.33.8 5.61 1.78 11.19 2.93 16.74-.11-.53-.07-1.09-.02-1.66 1.38 2.11 3.23 3.68 5.32 4.92-1.53.84-3.35 1.31-4.98 1.7-1.79.43-3.76.76-5.54.12-1.48-.53-2.73-1.67-3.03-3.25.11.57-.02 1.3-.02 1.88 0 .11-.01.22-.01.33-.26-.21-.52-.41-.77-.63.02.02-.02.56-.02.56v2.64c0 .09-.04.5.02.55 3.87 3.28 7.99 6.23 12.31 8.89-.27.4-.52.79-.75 1.16-1.11 1.76-2.02 3.63-2.92 5.49-1.86 3.83-3.57 7.66-3.63 11.99-.02 1.89-.07 3.81.16 5.68.28 2.27.94 4.48 1.65 6.65 1.16 3.59 2.32 7.5 5.43 9.91-.06-.05-.07-.29-.06-.59.1.05.17.12.22.21v.64c.04-.1.06-.22.08-.33v.04-.08c.03-.13.05-.27.06-.41.07-.34.12-.68.2-1.01.86.41.87 2.4 1.01 3.11.34 1.68.73 3.34 1.18 4.98.5 1.83 1.09 3.64 1.73 5.42-5.08 1.34-10.33 3.36-12.27 8.68-.6 1.65-.74 3.35-.77 5.06-.11-.31-.1 2.4 0 2.34v.06c.02 2.34.36 4.59 1.44 6.69 2.86 5.52 9.13 6.58 14.75 7.1 3.28.3 6.48.68 9.69 1.42 3.56.83 7.01 1.52 10.69 1.26 8.32-.59 16.72-2.65 24.66-5.13 6.71 2.33 13.41 4.68 20.13 6.96 6.74 2.29 13.56 4.44 20.58 5.72 6.94 1.27 13.97 1.51 20.99.72 7.03-.8 13.94-2.49 20.7-4.53 7.81-2.36 15.49-5.15 23.19-7.84.05-.02.08-.08.1-.17 2.26-.79 4.53-1.58 6.79-2.36 2 4.05 5.33 7.54 8.65 10.47 3.91 3.45 8.32 6.29 12.92 8.72 9.84 5.2 20.55 8.77 31.42 11.05 22.55 4.74 45.88 3.83 68.49.04 11.94-2.01 23.74-4.79 35.42-7.94 11.18-3.01 22.45-6.07 33.3-10.15 9.87-3.71 19.76-8.48 27.55-15.72 3.55-3.3 6.67-7.14 8.8-11.5 1.97-4.05 2.7-8.19 2.81-12.6v-.28c.01-.3.02-.6.02-.9.01-4.99-.5-9.63-2.63-14.22Zm-187.69-71.39c1.99 3.13 3.68 6.48 4.74 10.05.51 1.72.86 3.49 1.04 5.29v.1c-.45-.22-.9-.42-1.35-.64.07.04.06.71.03 1.36-2.98-4.43-6.17-8.81-9.79-12.71-3.75-4.05-8.51-7.44-14.2-7.68.01 0 .01.39 0 .95-5.39-.31-10.85-.5-16.13-1.56-2.63-.53-5.22-1.33-7.62-2.54.02-.8 0-1.51-.11-1.56-.04-.01-.08-.03-.11-.05.02.01.03.12.03.27-.16.07-.46-.99-.48-1.09-.12-.81-.23-1.62-.33-2.44-.19-1.61-.33-3.23-.44-4.85-.23-3.22-.35-6.45-.56-9.67-.25-3.95-.64-7.9-1.47-11.76 2.84 1.78 5.67 3.58 8.35 5.61 5.66 4.29 10.85 9.4 17.3 12.53 1.98.96 4.09 1.7 6.26 2.09v.36c0 .12-.06.66.02.73 5.6 5.08 10.76 10.83 14.82 17.21Zm31.74-72.85c-.08.15-.78 1.35-1.22 1.69-.03-.35-.02-.69.08-.81-.28.34-.55.69-.83 1.04-7.9 1.77-15.11-4.76-20.83-9.32-2.95-2.35-6.09-5.14-8.59-8.34-.01-.29.01-.55.09-.66-.1.13-.21.25-.31.37-1.79-2.36-3.2-4.93-3.93-7.71.06-.07.11-.13.17-.19.12-.06.27-.08.46-.06-.03 0-.04-.15-.04-.38 4.11-4.13 10.01-6.46 15.86-5.88.85.09 1.65.28 2.48.49.94.23 1.23.01 1.91-.67 1.41-1.4 2.79-2.82 4.19-4.23 2.79-2.83 5.58-5.66 8.37-8.48.07-.08.09-.31.09-.59 3.68 3 7.43 5.91 11.38 8.56.14.1.3.21.45.31-3.09 3.59-6.49 6.88-10.23 9.81-.19.14-.02 1.62-.02 1.87 0 .38-.22 1.57.02 1.88 1.31 1.64 1.88 3.63 2.15 5.69.15 1.16.22 2.33.29 3.49l.09 1.65c.01.28.03.55.04.83 0 .07 0 .25.01.42 0 .13-.01.27-.01.32l-.06.99c-.05.61-.11 1.2-.2 1.8-.15 1.06-.37 2.12-.67 3.15-.31 1.02-.7 2.02-1.19 2.96Zm-11.1 4.42c-.41.37-.82.73-1.25 1.07-.99.78-2.23 1.98-3.58 1.46-1.28-.5-2.5-1.48-3.67-2.2-1.32-.8-2.65-1.6-3.95-2.43-2.49-1.58-4.42-3.6-6.37-5.78-1.07-1.18-2.13-2.37-3.19-3.56-.48-.53-.96-1.07-1.44-1.6-.03-.04-.07-.07-.1-.11.28-.31.57-.6.81-.88.75-.91 1.51-1.81 2.27-2.71.24.32.48.64.73.95 2.37 2.98 5.25 5.5 8.22 7.86 2.95 2.34 5.94 4.76 9.17 6.7.76.45 1.54.86 2.35 1.23Zm12.76-5.61c.51-2.64.53-5.33.53-8.01s-.1-5.45-.3-8.16c-.13-1.74-.34-3.5-.93-5.12 3.88-3.19 7.42-6.75 10.55-10.68.06-.08.09-.27.09-.49 3.52 2.3 7.33 4.5 11.4 5.38-6.55 9.46-13.68 18.5-21.34 27.08Zm18.89-65.88c-.1-.08-.06-.76-.02-1.28 7.6 2.91 12.54 10.25 14.77 17.9.6 2.05 1.03 4.16 1.26 6.28.04.39.06.79.09 1.18l-.03.33c-.1 1.11-.29 2.2-.59 3.26-1.21 4.3-4.47 7.52-9.08 7.76-5.12.27-9.97-2.47-14.18-5.06-.87-.53-1.72-1.09-2.57-1.65 3.59-5.13 7.11-10.31 10.54-15.54.2-.29-.18-.96 0-1.25-3.62 5.53-7.33 10.99-11.13 16.4-3.63-2.42-7.11-5.06-10.5-7.79-1.24-1-2.46-2.01-3.68-3.03.5-.58 1.11-1.12 1.55-1.65.81-.96 1.59-1.95 2.35-2.95 1.49-1.95 2.91-3.95 4.36-5.93 2.84-3.89 5.82-7.7 9.49-10.85 2.66.85 5.17 2.13 7.37 3.87Zm-34.25 7.56c.02-.1.05-.2.07-.3.12.84-.23 1.24-.07.3Zm.08-.36c.04-.19.08-.39.13-.58.16-.62.39-1.23.66-1.81 1.02-2.16 2.68-3.96 4.57-5.39 5.78-4.39 13.51-5.49 20.4-3.61-3.94 3.65-7.08 8.03-10.23 12.36-1.73 2.39-3.49 4.77-5.41 7.01-.49.57-1.27 1.17-1.62 1.87-.7-.58-1.4-1.17-2.09-1.76-1.07-.9-2.27-1.79-3.35-2.78-.02-.4-.21-1.61-.01-1.8l-.89.89c-.54-.58-1.02-1.2-1.39-1.89-.44-.82-.54-1.67-.77-2.51Zm-13.87 24.21c5.35-5.35 10.69-10.71 16.04-16.07 1.87 2.02 4.24 3.71 6.33 5.47.43.36.87.71 1.3 1.07l-6.69 6.78c-1.34 1.35-2.68 2.7-4.02 4.06-.64.65-.97 1.12-1.92.88-.89-.21-1.73-.44-2.64-.53-6.06-.6-12.16 1.92-16.28 6.32-.08.04-.15.08-.21.14 2.7-2.71 5.39-5.41 8.09-8.12Zm-35.47-16.18c.68.73 1.33 1.49 1.95 2.27 2.48 3.16 4.44 6.69 6.27 10.25 4.12 8.01 8.08 16.11 12.11 24.17-.19-.38.02-1.44.02-1.88 0-.48.2-1.43-.02-1.87-.17-.34-.33-.67-.5-1 .3-.32.57-.65.84-.92l2.12-2.12c1.4-1.41 2.81-2.83 4.22-4.24.11-.1.21-.21.32-.31-.08.08-.14.18-.19.3-.03.04-.07.08-.11.12-.12.14-.11.61-.08 1.05-.01.32 0 .62 0 .83 0 .74-.01 1.46.03 2.17 0 .12-.01.24-.01.37.01-.05.01-.1.02-.15.04.7.13 1.4.31 2.11.55 2.22 1.49 4.31 2.68 6.25-.87 1-1.72 2-2.51 3.04-.19.25-.31.55-.39.87 0-.03-.01-.05-.01-.08v.12c-.25 1.04-.05 2.35-.02 3.31v.25s.01-.03.02-.04c.07.65.38 1.04.85 1.57.74.83 1.49 1.66 2.23 2.49 1.41 1.57 2.81 3.15 4.23 4.7 2.8 3.08 6.25 5.05 9.77 7.2.83.51 1.65 1.08 2.52 1.53.96.5 1.61.33 2.48-.22 1.75-1.12 3.32-2.58 4.72-4.11.11-.12.11-.54.08-.96 1.26.41 2.54.66 3.85.72-4.31 5.46-8.62 10.91-12.93 16.37-2.83 3.58-5.67 7.14-8.48 10.74-2.54 3.25-5.01 6.6-6.8 10.33-.81 1.67-1.4 3.51-2.61 4.95-1.13 1.34-2.75 2.13-4.44 2.5-1.93.42-3.95.36-5.92.02-.08-.07-.16-.15-.23-.22.03.03.05.1.06.19-1.36-.25-2.7-.63-3.97-1.1-6.61-2.47-11.95-7.43-17.38-11.77-3.78-3.01-7.81-5.71-11.92-8.3-.19-.57-.38-1.14-.6-1.71.12.32.06.87.01 1.35-2.91-1.82-5.85-3.6-8.77-5.38 1.57-1.81 2.71-4.03 3.73-6.2 2.06-4.37 4-8.82 5.51-13.42.3-.92.58-1.85.84-2.78v1.18c4.51-7.61 9.09-15.33 11.68-23.84 1.24-4.04 2-8.23 2.1-12.46.02-.71.03-1.41.03-2.12.06.08.06-.73 0-.76 0-2.43-.12-4.85-.5-7.25 1.36-2.67 2.12-5.6 2.31-8.61.15.16.3.32.47.5Zm-14.24 36.65c.12.5.24 1 .33 1.52.13.7.22 1.42.29 2.13.03.33.05.67.07 1v.07c-.04.21-.08.42-.09.55-.18 1.81-.57 3.58-1.1 5.3.23-1.49.4-3 .46-4.52.09-2.01.13-4.04.04-6.05Zm-.03 2.67v-.16c.02.19.04.36.04.46-.01-.06-.03-.16-.04-.3Zm.24-133.95.12.51c-10.03-.19-20.07-.11-30.1.24-.03 0 0 1.25 0 1.25 10.13-.36 20.27-.42 30.4-.22.32 1.27.66 2.54.91 3.83.14.7.14 1.51.24 2.24-.05.36-.1.71-.17 1.06-.19.91-.45 1.79-.77 2.66-.41-.08-.83-.17-1.24-.25-12.42-2.49-24.87-4.76-37.33-6.98.93-.57 1.75-1.37 2.45-2.25.53-.67.97-1.36 1.34-2.07 11.18-1.58 22.39-2.95 33.63-4.07.08 1.36.24 2.72.52 4.05ZM126.41 90.48c-.08-.61.04-.87 0 0Zm6.92 47.22c-.03.26-.07.55-.17.92.04-.22.05-.45.1-.67.02-.09.05-.16.07-.25-.05-.16-.11-.32-.15-.47-.23-.79.29-.81.16.44.1-.41.21-.83.32-1.24.07-.24.14-.49.21-.73 4.73-.82 9.46-1.6 14.21-2.3 8.13-1.2 16.3-2.19 24.48-3.03.9.47 1.88.72 2.88.78-4.13.43-8.23 1.33-12.27 2.33-7.05 1.74-14.07 3.59-21.08 5.48-2.45.65-4.89 1.33-7.33 2-.58-1.05-1.07-2.14-1.43-3.26Zm11.01 15.97c-.48-.5-.94-1-1.4-1.51.94-.37 1.87-.75 2.81-1.12 7.7-3.02 15.43-5.93 23.18-8.79 8.14 2.73 17.05-.32 24.29-4.53 1.03-.61 2.06-1.24 3.07-1.88.96-.62 2.04-1.61 3.21-1.77 1.16-.15 2.38.62 3.42 1.03 1.19.47 2.39.91 3.6 1.31 4.78 1.56 9.75 2.56 14.76 2.95 5.7.45 11.43.11 17.04-.97.08-.01-.07-1.23 0-1.25-9.9 1.91-20.19 1.45-29.87-1.38-2.46-.73-4.8-1.69-7.2-2.6-.3-.11-.58-.2-.85-.24.11-.28.2-.56.29-.76.31-.7.63-1.38.97-2.06.73-1.47 1.56-2.89 2.55-4.2 1.55-2.03 3.53-3.72 5.91-4.68-.01.01-.01.02-.01.02.21-.09.43-.18.65-.27.08-.03.04-.37 0-.69v-.56c-.14.05-.27.11-.41.16-.01-.19-.02-.33-.02-.33-1.9-.58-3.8-1.16-5.71-1.73-1.73-.53-3.51-1.25-5.32-1.44-1.78-.18-3.58.31-5.29.74-1.46.38-2.87.88-4.1 1.77-.04-.04-.09-.09-.14-.13.04.04.05.11.05.2-.08.06-.17.11-.26.18-.07.06-.03.37 0 .66v.59c.17-.06.28-.13.39-.21 1.27 1.17 2.54 2.35 3.81 3.52 1.05.98 2.22 1.92 3 3.14.77 1.21 1 2.64 1.29 4.01.08.37.27 1.49.63 2.27-.19.08-.37.17-.56.28-1.07.65-2.1 1.37-3.17 2.02-4.22 2.6-8.72 4.92-13.6 6-3.44.76-7.03.86-10.45.1 5.01-1.84 10.02-3.66 15.04-5.46 1.66-.6 3.32-1.19 4.98-1.78.14-.05-.12-1.21 0-1.25-7.33 2.61-14.66 5.26-21.97 7.96-1.01-.34-2.01-.74-2.97-1.25.17.09-.18 1.16 0 1.25.43.23.87.43 1.3.62-5.47 2.02-10.93 4.07-16.37 6.17-2.94 1.14-5.86 2.29-8.79 3.45-1.42-1.65-2.78-3.36-4.04-5.14-.91-1.29-1.86-2.64-2.71-4.05 8.46-2.32 16.94-4.57 25.44-6.72 7.79-1.97 15.77-3.91 23.86-2.92-.04 0 .06-1.24 0-1.25-2.27-.28-4.53-.3-6.78-.18 1.15-.26 2.25-.73 3.21-1.4 2.11-.19 4.22-.35 6.33-.51-.43.41-.86.82-1.28 1.23-.02.02 0 .2 0 .19v.88s.02.17 0 .18c.89-.86 1.79-1.73 2.69-2.59.23-.02.47-.04.71-.06.02 0 .01-.32.01-.64 0-.01.01-.02.02-.02.02-.02.01-.2.01-.19v-.88s-.02-.17-.01-.18c-.25.24-.5.48-.74.72-2.07.14-4.13.31-6.19.49 0-.01.01-.02.02-.03 1.53-1.8 2.32-4.12 2.49-6.45.04-.65.08-1.31.1-1.98.04-.37.05-1.14.02-1.6-.02-1.28-.12-2.56-.38-3.78-.63-2.97-2.21-5.67-4.18-7.95-1.67-1.95-3.91-4.48-6.59-3.53-1.46-.24-3.15 1.12-3.96 2.31-1.6 2.35-2.91 5.05-3.16 7.92-.23 2.57-.24 5.38.25 7.93.5 2.66 1.51 5.77 3.34 7.83.13.15.27.27.41.4-12.32 1.29-24.58 3-36.78 5.11.11-.43.22-.86.32-1.3.5-2.21.84-4.45 1.02-6.7.28-3.59.28-7.27.02-10.87.03-.45.07-.95-.05-1.32-1.25-3.7-2.49-7.4-3.91-11.04-1.34-3.43-3.11-6.68-4.47-10.1-.3-.75-.55-1.52-.71-2.32-.01-.05-.02-.09-.03-.14.02-.13.03-.25.05-.38.33-2.03.93-4.03 1.43-6.02.98-3.85 1.96-7.71 2.93-11.56 3.9-15.35 7.59-30.77 11.71-46.07 2.05-7.64 5.12-14.72 9.9-21.01.11-.03.23-.04.35-.03-2.88 9.48-5.66 19.01-7.4 28.77-.93 5.23-1.56 10.53-1.73 15.85-.14 4.4-.33 8.99.39 13.36.36 2.19 1.01 4.4 2.25 6.28.5.77 3.86 4.74 4.69 2.52.06-.17.08-.38.08-.61 2.46-4.74 4.24-9.82 5.21-15.07.43-2.38.71-4.75.73-7.16v-1.56c.81 1.61 1.49 3.29 2 5.03.33 1.13.6 2.27.8 3.43.1.54.17 1.09.23 1.63l-.42.09c-.28.06.22 3.71 0 3.75.03 0 .06-.01.09-.02v.68s.02-.1.04-.15c0-.04 0-.09.02-.13.07.43.21.71.47.02.05-.17.08-.36.1-.55 3.08-.67 6.21-1.47 9.36-.93 1.18.19 2.33.55 3.42 1.03-2.11 1.26-3.96 2.91-5.45 4.87-.22.28-.02 1.51-.02 1.87v1.33c.01.1.07.48.02.55 1.34-1.76 2.96-3.28 4.82-4.49.51-.33 2.65-1.66 4.11-1.94.29.25.57.51.84.78.28.29.42.61.57.07.08-.26.02-.66.02-.92.01-.91.07-1.86-.01-2.76 0-.01 0-.02-.01-.03v-.04c-.11-.86-.73-1-1.42-.86-.61-.52-1.26-.99-1.95-1.4-1.35-.8-2.84-1.38-4.37-1.71-3.38-.71-6.7.14-10 .84-.01-.66-.02-1.32-.07-1.98-.3-4.82-1.74-9.47-4.17-13.64v1.59c-.01.11-.02.22-.02.29 0 .48-.2 1.44.02 1.87.45.88.64 1.73.83 2.67-.06.57-.13 1.13-.2 1.69-.29 2.08-.69 4.13-1.22 6.15-1.09 4.2-2.69 8.24-4.74 12.06-.06.1-.08.24-.09.41-.92.59-2.76-1.12-3.28-1.68-1.17-1.27-1.98-2.84-2.53-4.48-1.33-4-1.26-8.3-.98-12.45.66-9.73 2.75-19.29 5.31-28.67 1.43-5.23 3.01-10.42 4.59-15.6.03-.08.04-.17.05-.26.38.23.71.52.9.74 1.43 1.65 2.66 3.53 3.91 5.31 2.49 3.54 4.84 7.17 7.04 10.89 2.17 3.65 4.19 7.39 6.06 11.2 1.64 3.34 3.16 6.75 5.06 9.96 1.89 3.2 4.2 6.14 7.22 8.3.05.7.09 1.59-.03 1.65 5.76-3.12 12.42-3.44 18.82-2.78 3.32.35 6.68.84 9.96 1.52 1.56.32 2.94.87 4.31 1.68 1.27.75 2.54 1.53 4.05 1.1.07-.02.07-.71.06-1.36 1.26-1.07 3.13-3.9 3.51-4.42 2.77-3.83 5.19-7.91 7.21-12.18 3.56-7.54 5.35-15.77 9.03-23.25 1.87-3.81 4.3-7.3 7.59-9.99v.14s.03-.05.05-.08c.06.43.2.84.51 1.31 2.66 4.13 4.59 8.63 5.82 13.38 1.24 4.81 1.97 10.11 1.76 14.92-.25 5.77-1.12 11.49-2.24 17.15-.63 3.15-1.33 6.27-2.06 9.4-.01-.16-.01-.29-.01-.33 0-.15-.1-1.85-.02-1.87-1.35.42-2.76.59-4.17.49-1.31-.1-2.76-.4-3.92-1.07-.28-.16-.53-.37-.74-.61.47-.93 1.17-1.73 2.03-2.33.03-.02.01-.6.01-.54.01-.45.01-.89.01-1.33s0-.88-.01-1.33c0-.07-.04-.52-.01-.55-.97.68-1.76 1.63-2.21 2.73v-1.62c0-.1-.07-.5-.02-.55-2.11 2.4-4.02 4.94-4.07 8.26-.02 1.47-.15 3.06.14 4.54-3.15-.34-6.37.72-8.61 3.06-1.23 1.28-2.15 2.89-2.59 4.63-.33 1.29-.17 2.71-.16 4.03.01.09.01.2.02.31v.24s.01-.06.01-.09c.07.68.33 1.53 1.16 1.1.15-.08.02-1.68.02-1.88v-1.32c-.01-.07-.04-.54-.02-.55-.15.07-.28.1-.41.08.24-.5.52-.98.84-1.44-.01 1.06 0 3.12.02 3.12h10.67s.03-3.75 0-3.75h-10.21c.71-.87 1.54-1.62 2.4-2.2 2.6-1.71 5.91-2.12 8.87-1.19-.03 0-.03-.29-.02-.62.34.31.7.6 1.1.84-.11-.07.02-1.68.02-1.88v-1.33c0-.07.03-.52-.02-.54-1-.59-1.82-1.42-2.39-2.43-.23-.41-.4-.84-.54-1.28.58-2.07 1.95-3.84 3.35-5.46-.13.33-.1 3.19.05 2.99 0 .65.05 1.31.43 1.86.41.6 1.07.92 1.72 1.17.76.28 1.55.48 2.36.6 1.53.21 3.08.09 4.57-.33-.47 2.36-.96 4.89-2.42 6.74-.21.28-.02 1.53-.02 1.88s.24 1.6.02 1.87c1.53-1.94 1.87-4.55 2.42-6.9.61-2.59 1.21-5.18 1.77-7.79 1.13-5.27 2.08-10.59 2.59-15.97.83-8.94.76-18.36-1.58-27.09-.69-2.56-1.57-5.07-2.67-7.48-.25-.53-.51-1.06-.77-1.58 2.94 3.28 4.91 7.15 6.34 11.41 1.88 5.63 3.46 11.37 5.04 17.09 3.2 11.57 6.28 23.18 9.4 34.78 1.58 5.84 3.15 11.68 4.73 17.53-.01.29-.01.58-.02.87 0 .16-.01.32-.03.47-.07.71-.2 1.41-.35 2.1-.32 1.4-.78 2.77-1.32 4.1-1.1 2.71-2.53 5.27-3.96 7.81-2.74 4.88-5.74 9.99-6.09 15.71-.08 1.29-.1 2.59-.06 3.88-1.16.12-2.32.22-3.48.34-9.85 1.03-19.68 2.27-29.5 3.65.79-2.01 1.09-4.15 1.17-6.34.03.05.03-.48.02-1.06 0-.79-.01-1.59-.03-2.38-.09-2.54-.78-5.06-2.19-7.19-1.61-2.4-4.46-4.16-7.35-2.92-.02.01-.03.09-.04.2-4.01.04-6.77 5.16-7.3 8.7-.33 2.23-.29 4.67-.1 6.92.17 2.17.86 4.3 2.02 6.14-1.54.24-3.09.47-4.63.72-.03 0-.02.25 0 .51-.53.31-1.1.55-1.71.68-.02 0 0 .57 0 .62s.02.62 0 .63c.93-.2 1.8-.63 2.52-1.24.01 0 .01-.04.01-.07 1.54-.25 3.08-.49 4.62-.73.31.39.65.76 1.01 1.11-.13-.02-.26-.05-.39-.07.07 0-.08 1.24 0 1.25l3.03.54c.38.15.76.28 1.17.37.46.09.89.1 1.32.07 13.55 2.41 27.09 4.88 40.58 7.59-.89 2.09-2.08 4.07-3.35 5.95-2.04 3.01-4.23 6.08-6.87 8.6-.13.13-.28.25-.42.38-.02-.63-.06-1.25-.04-1.87-.07.68-.1 1.35-.12 2.02-3.11 2.8-6.88 4.92-10.35 7.21-4.01 2.63-8.02 5.27-12.03 7.9-6.68 4.39-31.26 3.45-31.26 3.45-4.11-.68-8.09.97-12.18 1.09-3.72.1-7.48-.55-11.09-1.38-6.39-1.48-12.55-3.93-18.23-7.19-5.69-3.26-10.92-7.34-15.45-12.08Zm98.56-97.92v.07c-.01-.01-.02-.02-.03-.02.02-.02.03-.03.04-.05Zm-26.63 62.7c-.04-.32-.07-.63-.1-.95-.07-.83.29-1.4.1.95Zm-106.91 94.63c7.73.41 15.45.85 23.17 1.35 15.6.99 31.19 2.22 46.73 3.9 8.35.91 16.68 1.95 24.99 3.16-.26.64-.5 1.29-.68 1.96-.57 2.15-.55 4.31-.55 6.51 0 .38 0 .74.01 1.11 0 0 0 .38.02.23 0 .11-.05.47.01.55.94 1.12 1.67 2.38 2.17 3.75.17.46.3.93.41 1.41-13.83-2.91-27.82-5.02-41.77-7.31-16.64-2.74-33.31-5.78-49.42-10.87-4.49-1.42-8.87-3.11-13.31-4.69-1.57-.56-3.17-1.08-4.78-1.51 4.33-.19 8.74.22 13 .45ZM92.9 282.61c0-.26.02-.51.08-.75-.07.28-.19.45-.32.55-.71-.6-1.38-1.2-1.99-1.78.07.07.08.4.06.77-.5-.53-.93-1.07-1.12-1.19-1.42-.92-3.14-1.09-4.01-2.71-.87-1.61-.96-3.64-1.52-5.37-.63-1.96-1.43-3.86-2.17-5.77-.72-1.87-1.42-3.77-1.8-5.75-.06-.33-.11-.66-.16-.99.12-.81.31-1.61.6-2.38.65-1.74 1.69-3.29 2.88-4.7.61-.72 1.26-1.39 1.93-2.05.29-.28 1.6-1.83 1.93-1.12-.01.05-.02.1-.03.13.03-.03.04-.05.05-.08 0 .01.01.02.01.03v-.08c.11-.33.08-.81.05-1.22 2.62-.98 5.24-1.95 7.86-2.93 2.22-.82 4.46-1.76 6.84-1.93 2.12-.14 4.24.49 5.27 2.49.9 1.76 1.11 4 1.26 6.09-9.93.54-19.6 3.61-28.03 8.9-.2.12.18 1.14 0 1.25 8.46-5.31 18.16-8.38 28.13-8.91.02.26.04.51.06.75.64 6.29 1.23 12.78.97 19.11-.16 4.05-.7 9.07-4.07 11.85-4.21 3.47-9.07.82-12.76-2.21Zm10.39 77.48c.13.2.08.76.04 1.24-1.95-9.55-3.41-19.2-4.32-28.91-.97-10.31-1.14-20.58-1.08-30.93.02-4.04.03-8.09-.35-12.12 2.61 1.14 5.38 1.32 7.96-.71 3.85-3.03 4.12-8.84 4.25-13.32.17-6.31-.08-12.62-.5-18.92-.11-1.52-.23-3.03-.36-4.55v-.02c-.16-1.7-.33-3.4-.54-5.1-.32-2.47-.53-5.52-3.11-6.73-2.39-1.12-5.36-.26-7.7.58-1.68.6-3.35 1.22-5.03 1.85.01-.46-.02-.88-.1-1.12v-.06s-.01 0-.01.02c-.03-.08-.07-.14-.11-.15.02.04.03.13.04.25-.06.06-.12.1-.15.16-.08.02-.14-.01-.18-.09-.07-.06-.13-.1-.18-.14 0-1.2 0-2.4-.02-3.61-.04-2.85-.2-5.69-.48-8.53-.46-4.72-1.28-9.4-2.4-14.01 7.79.26 15.13 3.97 22.41 6.41 7.96 2.66 16.08 4.79 24.27 6.6 16.54 3.66 33.32 6 50.01 8.82 6.79 1.15 13.56 2.39 20.3 3.82v.07s0-.04.02-.06c2.14.45 4.27.93 6.4 1.42.01.43.02.84-.04.87.2-.09.41-.19.62-.28v.15c1.78 19.21 3.52 38.47 4.46 57.74.49 10.15.47 20.24-.14 30.37-.57 9.52-1.43 19.03-1.83 28.55-.22 5.07-.28 10.13-.23 15.2.03 2.45.11 4.89.23 7.33.07 1.36.14 2.73.2 4.1.03.64.05 1.28.07 1.93.01.24.02.49.02.73 0 0-.01.25-.02.52-.34-.31-.57-.7-.69-1.23.12.53.08 1.08.02 1.65-12.13-.47-24.16-1.73-36.05-4.02-.27-.18-.55-.37-.83-.55.04.03.05.18.05.39-3.27-.64-6.54-1.35-9.8-2.16-15.68-3.9-31.07-8.66-46.51-13.41-3.31-1.02-7-1.96-10.35-3.45-.01-.15-.04-.37 0-.45-.06.12-.15.23-.22.35-3.23-1.46-6.12-3.44-8.04-6.49Zm91.53 109.83c-4.38-1.05-8.69-2.37-12.96-3.79-7.51-2.49-14.96-5.14-22.43-7.73.02-.07.04-.12.07-.13-.08.03-.16.05-.23.07-.27-.09-.55-.19-.82-.28.08.02.1.22.1.49-6.38 1.95-12.9 3.44-19.5 4.4-1.19.17-2.38.33-3.57.43.01-.38.03-.76.05-1.14-.02.39-.06.76-.07 1.14-2.15.19-4.3.22-6.46-.1-3.35-.5-6.6-1.57-9.97-2.01-.76-.1-1.54-.18-2.32-.25v-.15c-.75-5.82.55-11.77 3.28-16.94.17-.33-.17-.93 0-1.25-2.96 5.62-4 12.04-3.38 18.33-4.81-.43-9.93-.59-13.91-3.52-1.82-1.34-3.14-3.25-3.89-5.38-.3-.85-.48-1.73-.6-2.62.09-.64.23-1.25.41-1.85 1.9-6.19 8.11-8.22 13.8-9.61l.27.66c-.03-.09.01-.51.02-.55v-.18c.06-.02.13-.04.2-.05.05-.02.07-.13.08-.29 8.42-.32 16.86-.42 25.28-.15 7.12.23 15.35 1.15 19.96 7.29 1.07 1.43 1.91 3.07 2.35 4.82.07.26.12.53.16.8-.16.81-.43 1.58-.79 2.32-.2.42-.02 1.41-.02 1.88s.23 1.45.02 1.87c.72-1.46.98-2.97 1-4.59.02-1.78.12-3.62-.22-5.37-.69-3.53-2.97-6.75-5.91-8.77-3.54-2.44-7.9-3.35-12.11-3.74-4.72-.44-9.52-.39-14.26-.4-5.4-.01-10.79.11-16.18.32-1.14-2.76-2.12-5.58-2.91-8.46-.44-1.59-.82-3.2-1.14-4.81-.09-.42-.13-1.29-.32-2.05 2.59-7.58 8.43-13.64 14.16-19.14.21-.19.02-1.58.02-1.87s-.22-1.68-.02-1.88c-6.35 6.09-12.86 12.87-14.89 21.66-.1-.05-.22-.09-.35-.08-.01 0-.02.57-.02 1.27-.05-.1-.11-.18-.2-.25.06.05.07.3.07.61-.01 0-.01-.02-.01-.02-2.59-2.01-3.81-5.05-4.82-8.06-.62-1.81-1.22-3.63-1.68-5.49-.25-.99-.45-1.99-.58-3.01 0-.05-.01-.1-.02-.15.1-.34.08-.86.13-1.16.68-3.7 2.48-7.12 4.14-10.46.79-1.59 1.63-3.16 2.63-4.63.94-1.4 2.05-3.01 3.82-3.33.25-.05-.2-3.72 0-3.75-.6.1-1.12.38-1.6.73 0-.16.01-.36-.02-.38-2.35-1.37-4.63-2.85-6.85-4.4.66-.09 1.33-.23 1.97-.38 2.75-.66 6.04-1.51 7.57-4.11 2.5 1.12 5.19 1.93 7.73 2.71 7.85 2.41 15.7 4.84 23.56 7.24 11.98 3.65 24.15 7.05 36.48 9.44 7.09 4.67 13.02 11.3 15.54 19.34-.28-.48-.59-.94-.99-1.35-1.26-1.31-2.81-2.42-4.25-3.52-2.87-2.19-5.97-4.16-9.52-4.99.04.01-.02 1.73-.02 1.88s-.08 1.85.02 1.87c3.55.83 6.65 2.8 9.52 4.99.57.44 1.16.88 1.74 1.34-.02.42-.03.84.03 1.26.2 1.58 1.18 2.74 2.19 3.91 1.23 1.42 2.17 2.88 2.84 4.65 1.43 3.8 2.5 7.84 3.44 11.78.47 1.98.87 3.99 1.13 6 .14 1.06.19 2.12.28 3.18v.46c-.05.78-.11 1.56-.2 2.33-.46 4.25-1.37 8.45-2.3 12.61-1.06 4.73-2.29 9.42-3.66 14.07-.04.14-.07.28-.08.42Zm28.47 1.52c-6.98.98-14.03 1.04-21.01-.03-2.18-.34-4.34-.77-6.49-1.27 1.02-3.62 1.95-7.28 2.77-10.96 1.05-4.71 2.1-9.49 2.46-14.32.3-4.12.26-8.37-.34-12.45-.68-4.75-2.06-9.36-3.45-13.94-.41-1.36-.82-2.74-1.39-4.05 0-.95.09-1.92.02-2.86-.63-8.22-4.81-15.29-10.61-20.78 1.35.22 2.7.45 4.06.64 8.75 1.25 17.57 1.92 26.41 2.24l.81.03v-1.1c.06-1.08.15-2.59 0-2.65-.3-.1-.53-.25-.74-.42 0-3.17-.11-6.35-.27-9.51-.27-5.51-.31-10.98-.08-16.49.42-10.19 1.37-20.35 1.94-30.52 1.11-19.8 0-39.54-1.52-59.29-.79-10.34-1.66-20.68-2.6-31.01.12-.05.24-.11.37-.16.16-.07.02-3.75 0-3.75-2.45-.58-4.91-1.13-7.37-1.65v-.35c-.01-.15-.06-.41-.02-.55-.07.23-.15.46-.22.69 0-.32-.02-.63-.03-.95-.02-.94-.13-1.88-.35-2.79-.43-1.74-1.23-3.36-2.34-4.77.13-.69.3-1.37.51-2.03.46-1.41 1.11-2.74 1.93-3.96.05-.07.02-.53.02-.55v-2.65s-.01-.09-.02-.15c.03-.63.03-1.12-.05-1.14-26.64-3.92-53.49-6.09-80.37-7.71.61-1.26 1.21-2.52 1.81-3.78.93-1.94 1.83-3.93 3.13-5.66 1.36-1.8 3.16-3.19 5.19-4.11 1.45.52 3.09.83 4.23.05.11-.08.09-.7.06-1.21l.21-.03c.14-.01-.07-3.74 0-3.75-1.56.14-3.09.55-4.5 1.19-.65-.23-1.27-.49-1.78-.72-1.8-.83-3.45-1.98-4.87-3.37-1.01-.99-1.89-2.1-2.64-3.3.77.53 1.64.94 2.57 1.19 3.78 1.05 7.92-.04 11.31-1.78 3.5-1.79 6.72-4.34 9.66-6.93 2.93-2.57 5.01-5.73 5.89-9.55.12-.5.09-1.03.04-1.56 6.22 4.18 13.12 7.36 20.37 9.28 3.79 1 7.75 1.78 11.69 1.88 4.56.11 9.05-1.84 13.6-1.09 0 0 23.64 2.87 31.26-3.45 3.73-2.45 7.47-4.9 11.2-7.36 3.49-2.29 7.2-4.43 10.43-7.1.29-.23.57-.48.84-.74.32 3.44 1.3 6.74 3.36 9.69 1.51 2.16 3.46 4.01 5.74 5.35.61.36 1.64.95 2.73 1.37-4.72 3.24-9.86 5.83-15.3 7.68-.11.03-.02 1.7-.02 1.87 0 .16.11 1.85.02 1.88 1.95-.67 3.87-1.43 5.74-2.28 0 .23.03.42.11.53 1 1.29 2.4 1.99 3.83 2.71 1.49.75 2.86 1.62 4.1 2.75 2.54 2.3 4.46 5.23 6.3 8.1 2.02 3.16 3.87 6.45 5.24 9.95.66 1.71 1.22 3.46 1.62 5.25.17.79.32 1.58.43 2.39.02.15.03.3.05.45-.15-.02-.26.24-.32.49-.02-.07-.04-.13-.05-.19v.4c-.01.06-.01.11-.01.15-.02.98-.04 1.97 0 2.94 0 .02.01.03.01.05v.21s.02-.02.03-.04c.02.11.04.23.08.33-.14.69-.3 1.39-.5 2.07-.56 1.86-1.39 3.61-2.45 5.24-.22.33-.02 1.48-.02 1.88s.24 1.54.02 1.87c.21-.33.41-.67.61-1.01-.01.33 0 .64.07.95.43 1.94.58 3.84.8 5.81 0 .01-.01.02-.01.04-.07.58-.07 1.18-.13 1.76-.08.92-.2 1.83-.35 2.74-.59 3.71-1.64 7.34-3 10.84-2.14 5.55-5.01 10.77-8 15.91.22-1.51.34-3.05.35-4.6.01-.49 0-.97 0-1.45-.01.11-.02.22-.04.34 0-.19 0-.44-.01-.79.04.07.04.16.05.25-.04-3.72-.36-7.31-1.63-10.88v1.56c-.01.11-.02.23-.02.32 0 .58-.12 1.3.02 1.87.24 1.03.44 2.07.59 3.12.06.45.11.9.15 1.34 0 .02.05.52.09.97 0 .07 0 .16-.01.28-.02.43-.05.85-.08 1.28-.04.45-.09.9-.14 1.34-.12 1.05-.29 2.1-.49 3.14-.75 3.92-1.97 7.75-3.41 11.47-1.39 3.61-2.95 7.18-4.68 10.65-1.36 2.71-3.02 5.36-5.58 7.02-.15-.09-.31-.19-.46-.28.04.02.05.25.05.53-.17.1-.33.21-.5.29-.15.08-.02 1.68-.02 1.88s.15 1.81.02 1.87c.31-.16.61-.35.9-.54 3.66 2.28 7.31 4.56 10.97 6.84.32.19.64.39.96.59 1.82 5.5 2.41 11.28 2.75 17.05.18 3.08.3 6.17.53 9.25.11 1.5.24 3 .42 4.5.03.21.06.42.08.63-1.57-.91-2.98-2.09-3.67-3.72.11-.48-.02-1.26-.02-1.69 0-.49-.22-1.43-.02-1.88-.15.33-.24.67-.31 1.02-.05-.04-.11-.05-.19.01-.14.11-.08 1-.04 1.52-.13.35-.27.7-.37 1.04-.18.69-.32 1.39-.41 2.09-.19 1.34-.2 2.69-.2 4.04-.01 3.06.15 6.03.8 9.03.23 1.08.46 2.61.97 3.93-2.45 1.21-4.63 2.9-6.63 4.8-2.89 2.74-5.55 5.77-8.1 8.83-5.25 6.31-9.84 13.32-11.84 21.37-.29 1.18.29 2.58 0 3.75.03-.13.07-.26.1-.38 0 .13 0 .26.03.38.02.09.04.17.1.22-.02-.07-.03-.19-.03-.33.31-.58 1.14-.95 1.65-1.31.37-.24.73-.49 1.09-.74-12.28 17.77-11.48 42.76-4.41 62.6 1.7 4.77 3.72 10.77 7.99 13.93-6.49 2.01-13.07 3.69-19.81 4.63Zm40.99-12.01s-.01.07-.01.15c-6.08 2.13-12.18 4.36-18.35 6.35.07-.7.1-1.31-.08-1.37-4.82-1.76-7.27-6.66-9.09-11.13-2.4-5.89-4.28-12.01-5.42-18.27-.58-3.21-.97-6.45-1.13-9.71-.12-2.48.14-5.8.6-8.86.83-5.44 2.42-10.78 4.79-15.75 2.68-5.61 6.37-10.7 10.99-14.87.06-.05.08-.24.09-.46 2.65-1.72 5.33-3.39 8.08-4.93.15-.09.02-1.67.02-1.88s-.17-1.79-.02-1.87c-3.9 2.19-7.68 4.6-11.4 7.09-1.72 1.16-3.44 2.34-5.16 3.52 2.38-6 6.1-11.4 10.23-16.37 2.55-3.06 5.2-6.09 8.1-8.83 2.72-2.58 5.79-4.79 9.39-5.9 1.33.19 2.76-.45 3.99-.84 1.64-.54 3.28-1.07 4.93-1.61.1-.03.02-1.71.02-1.88 0-.15-.11-1.84-.02-1.87-1.65.54-3.29 1.07-4.93 1.61-1.04.33-2.19.82-3.32.86.01-.14.03-.23.07-.25-.25.07-.48.15-.73.23-.05 0-.11 0-.17-.02-2.58-.48-3.04-4.14-3.5-6.2-.31-1.43-.57-2.86-.72-4.32-.02-.23-.03-.47-.05-.71.07-.78.18-1.54.35-2.3.17-.77.51-1.53.72-2.29.08.87.3 1.7.82 2.51 1.73 2.64 5.32 4.01 8.2 4.91 6.3 1.98 13.11 2.1 19.68 2.48 0 .17.02.29.03.29 5.69.24 10.45 3.63 14.2 7.68 3.92 4.22 7.32 8.99 10.51 13.78.05.55.09 1.12-.03 1.57.1-.4.19-.8.27-1.21.07.11.14.21.21.32-.04-.07.02-.76.02-.73v-.76c4.28 4.46 7.75 9.67 10.22 15.34 1.34 3.07 2.38 6.26 3.11 9.52.37 1.63.66 3.28.87 4.94.11.9.2 1.81.27 2.72.02.4.05.8.07 1.2 0 .19.01.37.02.56-1.8-6.99-6.11-13.13-12.1-17.16v1.55c-.01.15-.02.27-.02.32 0 .35-.22 1.6.02 1.88 3.7 4.18 6.48 9.1 8.19 14.42.83 2.59 1.41 5.26 1.71 7.96.1.83.17 1.67.21 2.51 0 .04 0 .09.01.16-.01.08-.01.15-.01.2-.04.73-.1 1.46-.19 2.2-6.13 1.1-12.21 2.57-18.2 4.51-10.14 3.26-19.89 7.76-28.81 13.59-3.99 2.61-8.24 5.58-10.46 9.94-.97 1.91-1.25 3.85-1.3 5.93-.19-.87-.18 2.86-.02 3.18.03 1.42.13 2.82.46 4.21-2.07.72-4.15 1.44-6.23 2.16Zm232.57-16.23c-5.13 8.44-13.44 14.42-22.06 18.92-9.73 5.07-20.23 8.4-30.72 11.47-11.36 3.32-22.78 6.45-34.34 9.03-22.31 4.98-45.28 7.86-68.13 5.73-10.93-1.01-21.78-3.16-32.17-6.7-9.85-3.36-19.7-7.84-27.77-14.51-3.5-2.9-6.91-6.33-9.21-10.31-.01-.12-.01-.23 0-.23-.04.01-.08.02-.11.03-.21-.36-.42-.73-.61-1.11-.55-1.1-1.01-2.26-1.3-3.46-.02-.12-.05-.24-.07-.35.52-2.25 1.73-4.27 3.23-6.01 3.23-3.73 7.64-6.42 11.83-8.94 4.41-2.65 9.01-4.99 13.73-7.03 9.42-4.07 19.31-6.95 29.39-8.82.02.29.03.58.01.86.04-.29.08-.59.12-.88 10.45-1.93 21.13-2.78 31.73-2.74 23.06.09 46.11 4.41 69.16 1.99 5.59-.58 11.12-1.58 16.53-3.1.12-.03.02-2.28.02-2.5 0-.2-.12-2.47-.02-2.5-23.1 6.47-47.23 3.06-70.75 1.65-12.39-.74-24.82-.64-37.08.82-3.08.36-6.15.82-9.2 1.36.03-1.23.05-2.45.04-3.69-.02-3.17-.31-6.31-1-9.4-.68-3.06-1.72-6.01-3.07-8.82 2.93 3.5 5.04 7.66 6.12 12.15-.28-1.18.28-2.56 0-3.75-.03-.1-.06-.2-.08-.3-.04-6.8-.84-13.43-3.2-19.9-1.82-4.98-4.4-9.66-7.61-13.87 8.97 3.98 18.25 7.16 27.7 9.77 9.62 2.65 19.42 4.72 29.24 6.45 21.55 3.78 43.34 6.06 64.91 9.73 10.57 1.79 21.38 3.58 31.45 7.35 9.38 3.51 18.08 9.18 23.32 17.92 1.21 2.02 2.22 4.17 2.94 6.42.33 1.02.6 2.06.81 3.11.12.62.22 1.25.3 1.87.01.11.02.21.03.31-.47 4.27-1.85 8.28-4.11 11.98Z"/>
  <path d="M331.45 277.74c-.41.37-.82.73-1.25 1.07-.99.78-2.23 1.98-3.58 1.46-1.28-.5-2.5-1.48-3.67-2.2-1.32-.8-2.65-1.6-3.95-2.43-2.49-1.58-4.42-3.6-6.37-5.78-1.07-1.18-2.13-2.37-3.19-3.56-.48-.53-.96-1.07-1.44-1.6-.03-.04-.07-.07-.1-.11.28-.31.57-.6.81-.88.75-.91 1.51-1.81 2.27-2.71.24.32.48.64.73.95 2.37 2.98 5.25 5.5 8.22 7.86 2.95 2.34 5.94 4.76 9.17 6.7.76.45 1.54.86 2.35 1.23Z" style="fill:#201846"/>
  <path d="M342.1 248.27c-.19.14-.02 1.62-.02 1.87 0 .38-.22 1.57.02 1.88 1.31 1.64 1.88 3.63 2.15 5.69.15 1.16.22 2.33.29 3.49l.09 1.65c.01.28.03.55.04.83 0 .07 0 .25.01.42 0 .13-.01.27-.01.32l-.06.99c-.05.61-.11 1.2-.2 1.8-.15 1.06-.37 2.12-.67 3.15-.31 1.02-.7 2.02-1.19 2.96-.08.15-.78 1.35-1.22 1.69-.03-.35-.02-.69.08-.81-.28.34-.55.69-.83 1.04-7.9 1.77-15.11-4.76-20.83-9.32-2.95-2.35-6.09-5.14-8.59-8.34-.01-.29.01-.55.09-.66-.1.13-.21.25-.31.37-1.79-2.36-3.2-4.93-3.93-7.71.06-.07.11-.13.17-.19.12-.06.27-.08.46-.06-.03 0-.04-.15-.04-.38 4.11-4.13 10.01-6.46 15.86-5.88.85.09 1.65.28 2.48.49.94.23 1.23.01 1.91-.67 1.41-1.4 2.79-2.82 4.19-4.23 2.79-2.83 5.58-5.66 8.37-8.48.07-.08.09-.31.09-.59 3.68 3 7.43 5.91 11.38 8.56.14.1.3.21.45.31-3.09 3.59-6.49 6.88-10.23 9.81Z" style="fill:#29235c"/>
  <path d="M205.64 237.01c-13.83-2.91-27.82-5.02-41.77-7.31-16.64-2.74-33.31-5.78-49.42-10.87-4.49-1.42-8.87-3.11-13.31-4.69-1.57-.56-3.17-1.08-4.78-1.51 4.33-.19 8.74.22 13 .45 7.73.41 15.45.85 23.17 1.35 15.6.99 31.19 2.22 46.73 3.9 8.35.91 16.68 1.95 24.99 3.16-.26.64-.5 1.29-.68 1.96-.57 2.15-.55 4.31-.55 6.51 0 .38 0 .74.01 1.11 0 0 0 .38.02.23 0 .11-.05.47.01.55.94 1.12 1.67 2.38 2.17 3.75.17.46.3.93.41 1.41Z" style="fill:#ad987e"/>
  <path d="M215.44 359.65c-.22 5.07-.28 10.13-.23 15.2.03 2.45.11 4.89.23 7.33.07 1.36.14 2.73.2 4.1.03.64.05 1.28.07 1.93.01.24.02.49.02.73 0 0-.01.25-.02.52-.34-.31-.57-.7-.69-1.23.12.53.08 1.08.02 1.65-12.13-.47-24.16-1.73-36.05-4.02-.27-.18-.55-.37-.83-.55.04.03.05.18.05.39-3.27-.64-6.54-1.35-9.8-2.16-15.68-3.9-31.07-8.66-46.51-13.41-3.31-1.02-7-1.96-10.35-3.45-.01-.15-.04-.37 0-.45-.06.12-.15.23-.22.35-3.23-1.46-6.12-3.44-8.04-6.49.13.2.08.76.04 1.24-1.95-9.55-3.41-19.2-4.32-28.91-.97-10.31-1.14-20.58-1.08-30.93.02-4.04.03-8.09-.35-12.12 2.61 1.14 5.38 1.32 7.96-.71 3.85-3.03 4.12-8.84 4.25-13.32.17-6.31-.08-12.62-.5-18.92-.11-1.52-.23-3.03-.36-4.55v-.02c-.16-1.7-.33-3.4-.54-5.1-.32-2.47-.53-5.52-3.11-6.73-2.39-1.12-5.36-.26-7.7.58-1.68.6-3.35 1.22-5.03 1.85.01-.46-.02-.88-.1-1.12v-.06s-.01 0-.01.02c-.03-.08-.07-.14-.11-.15.02.04.03.13.04.25-.06.06-.12.1-.15.16-.08.02-.14-.01-.18-.09-.07-.06-.13-.1-.18-.14 0-1.2 0-2.4-.02-3.61-.04-2.85-.2-5.69-.48-8.53-.46-4.72-1.28-9.4-2.4-14.01 7.79.26 15.13 3.97 22.41 6.41 7.96 2.66 16.08 4.79 24.27 6.6 16.54 3.66 33.32 6 50.01 8.82 6.79 1.15 13.56 2.39 20.3 3.82v.07s0-.04.02-.06c2.14.45 4.27.93 6.4 1.42.01.43.02.84-.04.87.2-.09.41-.19.62-.28v.15c1.78 19.21 3.52 38.47 4.46 57.74.49 10.15.47 20.24-.14 30.37-.57 9.52-1.43 19.03-1.83 28.55Z" style="fill:#ddc2a0"/>
  <path class="cls-8" d="M256.62 33.94c-.25 5.77-1.12 11.49-2.24 17.15-.63 3.15-1.33 6.27-2.06 9.4-.01-.16-.01-.29-.01-.33 0-.15-.1-1.85-.02-1.87-1.35.42-2.76.59-4.17.49-1.31-.1-2.76-.4-3.92-1.07-.28-.16-.53-.37-.74-.61.47-.93 1.17-1.73 2.03-2.33.03-.02.01-.6.01-.54.01-.45.01-.89.01-1.33s0-.88-.01-1.33c0-.07-.04-.52-.01-.55-.97.68-1.76 1.63-2.21 2.73v-1.62c0-.1-.07-.5-.02-.55-2.11 2.4-4.02 4.94-4.07 8.26-.02 1.47-.15 3.06.14 4.54-3.12-2.49-18.25-8.91-18.25-8.91.07-.02.07-.71.06-1.36 1.26-1.07 3.13-3.9 3.51-4.42 2.77-3.83 5.19-7.91 7.21-12.18 3.56-7.54 5.35-15.77 9.03-23.25 1.87-3.81 4.3-7.3 7.59-9.99v.14s.03-.05.05-.08c.06.43.2.84.51 1.31 2.66 4.13 4.59 8.63 5.82 13.38 1.24 4.81 1.97 10.11 1.76 14.92ZM183.94 53.95c-2.1-1.22-5.92 7.11-5.92 7.11-.11-.86-.73-1-1.42-.86-.61-.52-1.26-.99-1.95-1.4-1.35-.8-2.84-1.38-4.37-1.71-3.38-.71-6.7.14-10 .84-.01-.66-.02-1.32-.07-1.98-.3-4.82-1.74-9.47-4.17-13.64v1.59c-.01.11-.02.22-.02.29 0 .48-.2 1.44.02 1.87.45.88.64 1.73.83 2.67-.06.57-.13 1.13-.2 1.69-.29 2.08-.69 4.13-1.22 6.15-1.09 4.2-2.69 8.24-4.74 12.06-.06.1-.08.24-.09.41-.92.59-2.76-1.12-3.28-1.68-1.17-1.27-1.98-2.84-2.53-4.48-1.33-4-1.26-8.3-.98-12.45.66-9.73 2.75-19.29 5.31-28.67 1.43-5.23 3.01-10.42 4.59-15.6.03-.08.04-.17.05-.26.38.23.71.52.9.74 1.43 1.65 2.66 3.53 3.91 5.31 2.49 3.54 4.84 7.17 7.04 10.89 2.17 3.65 4.19 7.39 6.06 11.2 1.64 3.34 3.16 6.75 5.06 9.96 1.89 3.2 4.2 6.14 7.22 8.3.05.7.09 1.59-.03 1.65ZM347.96 378.06s-3.05 28.35-9.7 36.45c-3.08.36-6.15.82-9.2 1.36.03-1.23.05-2.45.04-3.69-.02-3.17-.31-6.31-1-9.4-.68-3.06-1.72-6.01-3.07-8.82 2.93 3.5 5.04 7.66 6.12 12.15-.28-1.18.28-2.56 0-3.75-.03-.1-.06-.2-.08-.3-.04-6.8-.84-13.43-3.2-19.9-1.82-4.98-4.4-9.66-7.61-13.87 8.97 3.98 18.25 7.16 27.7 9.77Z"/>
  <path class="cls-4" d="M500.96 431.22c-.47 4.27-1.85 8.28-4.11 11.98-5.13 8.44-13.44 14.42-22.06 18.92-9.73 5.07-20.23 8.4-30.72 11.47-11.36 3.32-22.78 6.45-34.34 9.03-22.31 4.98-45.28 7.86-68.13 5.73-10.93-1.01-21.78-3.16-32.17-6.7-9.85-3.36-19.7-7.84-27.77-14.51-3.5-2.9-6.91-6.33-9.21-10.31-.01-.12-.01-.23 0-.23-.04.01-.08.02-.11.03-.21-.36-.42-.73-.61-1.11-.55-1.1-1.01-2.26-1.3-3.46-.02-.12-.05-.24-.07-.35.52-2.25 1.73-4.27 3.23-6.01 3.23-3.73 7.64-6.42 11.83-8.94 4.41-2.65 9.01-4.99 13.73-7.03 9.42-4.07 19.31-6.95 29.39-8.82.02.29.03.58.01.86.04-.29.08-.59.12-.88 10.45-1.93 21.13-2.78 31.73-2.74 23.06.09 46.11 4.41 69.16 1.99 5.59-.58 11.12-1.58 16.53-3.1.12-.03.02-2.28.02-2.5 0-.2-.12-2.47-.02-2.5-23.1 6.47-47.23 3.06-70.75 1.65-12.39-.74-24.82-.64-37.08.82 6.65-8.1 9.7-36.45 9.7-36.45 9.62 2.65 19.42 4.72 29.24 6.45 21.55 3.78 43.34 6.06 64.91 9.73 10.57 1.79 21.38 3.58 31.45 7.35 9.38 3.51 18.08 9.18 23.32 17.92 1.21 2.02 2.22 4.17 2.94 6.42.33 1.02.6 2.06.81 3.11.12.62.22 1.25.3 1.87.01.11.02.21.03.31ZM316.59 361.61c-.45-.22-.9-.42-1.35-.64.07.04.06.71.03 1.36-2.98-4.43-6.17-8.81-9.79-12.71-3.75-4.05-8.51-7.44-14.2-7.68.01 0 .01.39 0 .95-5.39-.31-10.85-.5-16.13-1.56-2.63-.53-5.22-1.33-7.62-2.54.02-.8 0-1.51-.11-1.56-.04-.01-.08-.03-.11-.05.02.01.03.12.03.27-.16.07-.46-.99-.48-1.09-.12-.81-.23-1.62-.33-2.44-.19-1.61-.33-3.23-.44-4.85-.23-3.22-.35-6.45-.56-9.67-.25-3.95-.64-7.9-1.47-11.76 2.84 1.78 5.67 3.58 8.35 5.61 5.66 4.29 10.85 9.4 17.3 12.53 1.98.96 4.09 1.7 6.26 2.09v.36c0 .12-.06.66.02.73 5.6 5.08 10.76 10.83 14.82 17.21 1.99 3.13 3.68 6.48 4.74 10.05.51 1.72.86 3.49 1.04 5.29v.1Z"/>
  <path class="cls-4" d="M329.03 413.35s0 .09.01.16c-.01.08-.01.15-.01.2-.04.73-.1 1.46-.19 2.2-6.13 1.1-12.21 2.57-18.2 4.51-10.14 3.26-19.89 7.76-28.81 13.59-3.99 2.61-8.24 5.58-10.46 9.94-.97 1.91-1.25 3.85-1.3 5.93-.19-.87-.18 2.86-.02 3.18.03 1.42.13 2.82.46 4.21-2.07.72-4.15 1.44-6.23 2.16-.01.01-.01.07-.01.15-6.08 2.13-12.18 4.36-18.35 6.35.07-.7.1-1.31-.08-1.37-4.82-1.76-7.27-6.66-9.09-11.13-2.4-5.89-4.28-12.01-5.42-18.27-.58-3.21-.97-6.45-1.13-9.71-.12-2.48.14-5.8.6-8.86.83-5.44 2.42-10.78 4.79-15.75 2.68-5.61 6.37-10.7 10.99-14.87.06-.05.08-.24.09-.46 2.65-1.72 5.33-3.39 8.08-4.93.15-.09.02-1.67.02-1.88s-.17-1.79-.02-1.87c-3.9 2.19-7.68 4.6-11.4 7.09-1.72 1.16-3.44 2.34-5.16 3.52 2.38-6 6.1-11.4 10.23-16.37 2.55-3.06 5.2-6.09 8.1-8.83 2.72-2.58 5.79-4.79 9.39-5.9 1.33.19 2.76-.45 3.99-.84 1.64-.54 3.28-1.07 4.93-1.61.1-.03.02-1.71.02-1.88 0-.15-.11-1.84-.02-1.87-1.65.54-3.29 1.07-4.93 1.61-1.04.33-2.19.82-3.32.86.01-.14.03-.23.07-.25-.25.07-.48.15-.73.23-.05 0-.11 0-.17-.02-2.58-.48-3.04-4.14-3.5-6.2-.31-1.43-.57-2.86-.72-4.32-.02-.23-.03-.47-.05-.71.07-.78.18-1.54.35-2.3.17-.77.51-1.53.72-2.29.08.87.3 1.7.82 2.51 1.73 2.64 5.32 4.01 8.2 4.91 6.3 1.98 13.11 2.1 19.68 2.48 0 .17.02.29.03.29 5.69.24 10.45 3.63 14.2 7.68 3.92 4.22 7.32 8.99 10.51 13.78.05.55.09 1.12-.03 1.57.1-.4.19-.8.27-1.21.07.11.14.21.21.32-.04-.07.02-.76.02-.73v-.76c4.28 4.46 7.75 9.67 10.22 15.34 1.34 3.07 2.38 6.26 3.11 9.52.37 1.63.66 3.28.87 4.94.11.9.2 1.81.27 2.72.02.4.05.8.07 1.2 0 .19.01.37.02.56-1.8-6.99-6.11-13.13-12.1-17.16v1.55c-.01.15-.02.27-.02.32 0 .35-.22 1.6.02 1.88 3.7 4.18 6.48 9.1 8.19 14.42.83 2.59 1.41 5.26 1.71 7.96.1.83.17 1.67.21 2.51ZM200.78 436.85c-.26-2.01-.66-4.02-1.13-6-.94-3.94-2.01-7.98-3.44-11.78-.67-1.77-1.61-3.23-2.84-4.65-1.01-1.17-1.99-2.33-2.19-3.91-.06-.42-.05-.84-.03-1.26-.58-.46-1.17-.9-1.74-1.34-2.87-2.19-5.97-4.16-9.52-4.99-.1-.02-.02-1.72-.02-1.87s.06-1.87.02-1.88c3.55.83 6.65 2.8 9.52 4.99 1.44 1.1 2.99 2.21 4.25 3.52.4.41.71.87.99 1.35-2.52-8.04-8.45-14.67-15.54-19.34-12.33-2.39-24.5-5.79-36.48-9.44-7.86-2.4-15.71-4.83-23.56-7.24-2.54-.78-5.23-1.59-7.73-2.71-1.53 2.6-4.82 3.45-7.57 4.11-.64.15-1.31.29-1.97.38 2.22 1.55 4.5 3.03 6.85 4.4.03.02.02.22.02.38.48-.35 1-.63 1.6-.73-.2.03.25 3.7 0 3.75-1.77.32-2.88 1.93-3.82 3.33-1 1.47-1.84 3.04-2.63 4.63-1.66 3.34-3.46 6.76-4.14 10.46-.05.3-.03.82-.13 1.16.01.05.02.1.02.15.13 1.02.33 2.02.58 3.01.46 1.86 1.06 3.68 1.68 5.49 1.01 3.01 2.23 6.05 4.82 8.06 0 0 0 .01.01.02 0-.31-.01-.56-.07-.61.09.07.15.15.2.25 0-.7.01-1.27.02-1.27.13-.01.25.03.35.08 2.03-8.79 8.54-15.57 14.89-21.66-.2.2.02 1.59.02 1.88s.19 1.68-.02 1.87c-5.73 5.5-11.57 11.56-14.16 19.14.19.76.23 1.63.32 2.05.32 1.61.7 3.22 1.14 4.81.79 2.88 1.77 5.7 2.91 8.46 5.39-.21 10.78-.33 16.18-.32 4.74 0 9.54-.04 14.26.4 4.21.39 8.57 1.3 12.11 3.74 2.94 2.02 5.22 5.24 5.91 8.77.34 1.75.24 3.59.22 5.37-.02 1.62-.28 3.13-1 4.59.21-.42-.02-1.4-.02-1.87s-.18-1.46.02-1.88c.36-.74.63-1.51.79-2.32-.04-.27-.09-.54-.16-.8-.44-1.75-1.28-3.39-2.35-4.82-4.61-6.14-12.84-7.06-19.96-7.29-8.42-.27-16.86-.17-25.28.15-.01.16-.03.27-.08.29-.07.01-.14.03-.2.05v.18s-.05.46-.02.55l-.27-.66c-5.69 1.39-11.9 3.42-13.8 9.61-.18.6-.32 1.21-.41 1.84.12.9.3 1.78.6 2.63.75 2.13 2.07 4.04 3.89 5.38 3.98 2.93 9.1 3.09 13.91 3.52-.62-6.29.42-12.71 3.38-18.33-.17.32.17.92 0 1.25-2.73 5.17-4.03 11.12-3.28 16.94v.15c.78.07 1.56.15 2.32.25 3.37.44 6.62 1.51 9.97 2.01 2.16.32 4.31.29 6.46.1.01-.38.05-.75.07-1.14-.02.38-.04.76-.05 1.14 1.19-.1 2.38-.26 3.57-.43 6.6-.96 13.12-2.45 19.5-4.4 0-.27-.02-.47-.1-.49.27.09.55.19.82.28.07-.02.15-.04.23-.07-.03 0-.05.06-.07.13 7.47 2.59 14.92 5.24 22.43 7.73 4.27 1.42 8.58 2.74 12.96 3.79 0-.14.04-.28.08-.42 1.37-4.65 2.6-9.34 3.66-14.07.93-4.16 1.84-8.36 2.3-12.61.09-.77.15-1.55.2-2.33v-.46c-.09-1.06-.14-2.12-.28-3.18Zm-58.36 5.34c-3.88 5.73-6.41 12.62-6.87 19.59.44-7.42 2.63-14.58 6.87-20.84-.19.28.2.96 0 1.25ZM108.76 253.86c-.02-.24-.04-.49-.06-.75-9.97.53-19.67 3.6-28.13 8.91.18-.11-.2-1.13 0-1.25 8.43-5.29 18.1-8.36 28.03-8.9-.15-2.09-.36-4.33-1.26-6.09-1.03-2-3.15-2.63-5.27-2.49-2.38.17-4.62 1.11-6.84 1.93-2.62.98-5.24 1.95-7.86 2.93.03.41.06.89-.05 1.22v.08s-.01-.02-.01-.03c-.01.03-.02.05-.05.08 0-.03.02-.08.03-.13-.33-.71-1.64.84-1.93 1.12-.67.66-1.32 1.33-1.93 2.05-1.19 1.41-2.23 2.96-2.88 4.7-.29.77-.48 1.57-.6 2.38.05.33.1.66.16.99.38 1.98 1.08 3.88 1.8 5.75.74 1.91 1.54 3.81 2.17 5.77.56 1.73.65 3.76 1.52 5.37.87 1.62 2.59 1.79 4.01 2.71.19.12.62.66 1.12 1.19.02-.37.01-.7-.06-.77.61.58 1.28 1.18 1.99 1.78.13-.1.25-.27.32-.55-.06.24-.08.49-.08.75 3.69 3.03 8.55 5.68 12.76 2.21 3.37-2.78 3.91-7.8 4.07-11.85.26-6.33-.33-12.82-.97-19.11Zm-1.12 11.36c.06-.06.06-.18.05-.32-.71-1.24-3.15-.25-4.07.17-1.55.71-3.06 1.5-4.56 2.29-3.08 1.63-6.08 3.4-9.01 5.29.19-.12-.19-1.12 0-1.25 3.58-2.31 7.27-4.43 11.07-6.35 1.63-.83 3.78-2.29 5.7-1.91.55.11.82.31.9.75 0-.01.01-.01.02-.02v.17s.01.04.01.07c0 .31.12.88-.11 1.11ZM344.21 272.13c.51-2.64.53-5.33.53-8.01s-.1-5.45-.3-8.16c-.13-1.74-.34-3.5-.93-5.12 3.88-3.19 7.42-6.75 10.55-10.68.06-.08.09-.27.09-.49 3.52 2.3 7.33 4.5 11.4 5.38-6.55 9.46-13.68 18.5-21.34 27.08ZM338.73 228.13l-6.69 6.78c-1.34 1.35-2.68 2.7-4.02 4.06-.64.65-.97 1.12-1.92.88-.89-.21-1.73-.44-2.64-.53-6.06-.6-12.16 1.92-16.28 6.32-.08.04-.15.08-.21.14 2.7-2.71 5.39-5.41 8.09-8.12 5.35-5.35 10.69-10.71 16.04-16.07 1.87 2.02 4.24 3.71 6.33 5.47.43.36.87.71 1.3 1.07ZM337.4 279.27c-4.31 5.46-8.62 10.91-12.93 16.37-2.83 3.58-5.67 7.14-8.48 10.74-2.54 3.25-5.01 6.6-6.8 10.33-.81 1.67-1.4 3.51-2.61 4.95-1.13 1.34-2.75 2.13-4.44 2.5-1.93.42-3.95.36-5.92.02-.08-.07-.16-.15-.23-.22.03.03.05.1.06.19-1.36-.25-2.7-.63-3.97-1.1-6.61-2.47-11.95-7.43-17.38-11.77-3.78-3.01-7.81-5.71-11.92-8.3-.19-.57-.38-1.14-.6-1.71.12.32.06.87.01 1.35-2.91-1.82-5.85-3.6-8.77-5.38 1.57-1.81 2.71-4.03 3.73-6.2 2.06-4.37 4-8.82 5.51-13.42.3-.92.58-1.85.84-2.78v1.18c4.51-7.61 9.09-15.33 11.68-23.84 1.24-4.04 2-8.23 2.1-12.46.02-.71.03-1.41.03-2.12.06.08.06-.73 0-.76 0-2.43-.12-4.85-.5-7.25 1.36-2.67 2.12-5.6 2.31-8.61.15.16.3.32.47.5.68.73 1.33 1.49 1.95 2.27 2.48 3.16 4.44 6.69 6.27 10.25 4.12 8.01 8.08 16.11 12.11 24.17-.19-.38.02-1.44.02-1.88 0-.48.2-1.43-.02-1.87-.17-.34-.33-.67-.5-1 .3-.32.57-.65.84-.92l2.12-2.12c1.4-1.41 2.81-2.83 4.22-4.24.11-.1.21-.21.32-.31-.08.08-.14.18-.19.3-.03.04-.07.08-.11.12-.12.14-.11.61-.08 1.05-.01.32 0 .62 0 .83 0 .74-.01 1.46.03 2.17 0 .12-.01.24-.01.37.01-.05.01-.1.02-.15.04.7.13 1.4.31 2.11.55 2.22 1.49 4.31 2.68 6.25-.87 1-1.72 2-2.51 3.04-.19.25-.31.55-.39.87 0-.03-.01-.05-.01-.08v.12c-.25 1.04-.05 2.35-.02 3.31v.25s.01-.03.02-.04c.07.65.38 1.04.85 1.57.74.83 1.49 1.66 2.23 2.49 1.41 1.57 2.81 3.15 4.23 4.7 2.8 3.08 6.25 5.05 9.77 7.2.83.51 1.65 1.08 2.52 1.53.96.5 1.61.33 2.48-.22 1.75-1.12 3.32-2.58 4.72-4.11.11-.12.11-.54.08-.96 1.26.41 2.54.66 3.85.72ZM354.69 202.06c-3.94 3.65-7.08 8.03-10.23 12.36-1.73 2.39-3.49 4.77-5.41 7.01-.49.57-1.27 1.17-1.62 1.87-.7-.58-1.4-1.17-2.09-1.76-1.07-.9-2.27-1.79-3.35-2.78-.02-.4-.21-1.61-.01-1.8l-.89.89c-.54-.58-1.02-1.2-1.39-1.89-.44-.82-.54-1.67-.77-2.51.04-.19.08-.39.13-.58.16-.62.39-1.23.66-1.81 1.02-2.16 2.68-3.96 4.57-5.39 5.78-4.39 13.51-5.49 20.4-3.61ZM379.2 230.33l-.03.33c-.1 1.11-.29 2.2-.59 3.26-1.21 4.3-4.47 7.52-9.08 7.76-5.12.27-9.97-2.47-14.18-5.06-.87-.53-1.72-1.09-2.57-1.65 3.59-5.13 7.11-10.31 10.54-15.54.2-.29-.18-.96 0-1.25-3.62 5.53-7.33 10.99-11.13 16.4-3.63-2.42-7.11-5.06-10.5-7.79-1.24-1-2.46-2.01-3.68-3.03.5-.58 1.11-1.12 1.55-1.65.81-.96 1.59-1.95 2.35-2.95 1.49-1.95 2.91-3.95 4.36-5.93 2.84-3.89 5.82-7.7 9.49-10.85 2.66.85 5.17 2.13 7.37 3.87-.1-.08-.06-.76-.02-1.28 7.6 2.91 12.54 10.25 14.77 17.9.6 2.05 1.03 4.16 1.26 6.28.04.39.06.79.09 1.18ZM267.13 134.7c-.05.36-.1.71-.17 1.06-.19.91-.45 1.79-.77 2.66-.41-.08-.83-.17-1.24-.25-12.42-2.49-24.87-4.76-37.33-6.98.93-.57 1.75-1.37 2.45-2.25.53-.67.97-1.36 1.34-2.07 11.18-1.58 22.39-2.95 33.63-4.07.08 1.36.24 2.72.52 4.05l.12.51c-10.03-.19-20.07-.11-30.1.24-.03 0 0 1.25 0 1.25 10.13-.36 20.27-.42 30.4-.22.32 1.27.66 2.54.91 3.83.14.7.14 1.51.24 2.24ZM175.44 131.15c-4.13.43-8.23 1.33-12.27 2.33-7.05 1.74-14.07 3.59-21.08 5.48-2.45.65-4.89 1.33-7.33 2-.58-1.05-1.07-2.14-1.43-3.26-.05-.16-.11-.32-.15-.47-.23-.79.29-.81.16.44.1-.41.21-.83.32-1.24.07-.24.14-.49.21-.73 4.73-.82 9.46-1.6 14.21-2.3 8.13-1.2 16.3-2.19 24.48-3.03.9.47 1.88.72 2.88.78Z"/>
  <path class="cls-4" d="M272.09 69.08c-3.12-11.6-6.2-23.21-9.4-34.78-1.58-5.72-3.16-11.46-5.04-17.09-1.43-4.26-3.4-8.13-6.34-11.41.26.52.52 1.05.77 1.58 1.1 2.41 1.98 4.92 2.67 7.48 2.34 8.73 2.41 18.15 1.58 27.09-.51 5.38-1.46 10.7-2.59 15.97-.56 2.61-1.16 5.2-1.77 7.79-.55 2.35-.89 4.96-2.42 6.9.22-.27-.02-1.52-.02-1.87s-.19-1.6.02-1.88c1.46-1.85 1.95-4.38 2.42-6.74-1.49.42-3.04.54-4.57.33-.81-.12-1.6-.32-2.36-.6-.65-.25-1.31-.57-1.72-1.17-.38-.55-.43-1.21-.43-1.86-.15.2-.18-2.66-.05-2.99-1.4 1.62-2.77 3.39-3.35 5.46.14.44.31.87.54 1.28.57 1.01 1.39 1.84 2.39 2.43.05.02.02.47.02.54v1.33c0 .2-.13 1.81-.02 1.88-.4-.24-.76-.53-1.1-.84-.01.33-.01.61.02.62-2.96-.93-6.27-.52-8.87 1.19-.86.58-1.69 1.33-2.4 2.2h10.21s.02 3.75 0 3.75h-10.67s-.03-2.06-.02-3.12c-.32.46-.6.94-.84 1.44.13.02.26-.01.41-.08-.02.01.01.48.02.55v1.32c0 .2.13 1.8-.02 1.88-.83.43-1.09-.42-1.16-1.1 0 .03-.01.06-.01.09v-.24c-.01-.11-.01-.22-.02-.31-.01-1.32-.17-2.74.16-4.03.44-1.74 1.36-3.35 2.59-4.63 2.24-2.34 5.46-3.4 8.61-3.06-3.12-2.49-18.25-8.91-18.25-8.91-1.51.43-2.78-.35-4.05-1.1-1.37-.81-2.75-1.36-4.31-1.68-3.28-.68-6.64-1.17-9.96-1.52-6.4-.66-13.06-.34-18.82 2.78-2.1-1.22-5.92 7.11-5.92 7.11v.04s.01.02.01.03c.08.9.02 1.85.01 2.76 0 .26.06.66-.02.92-.15.54-.29.22-.57-.07-.27-.27-.55-.53-.84-.78-1.46.28-3.6 1.61-4.11 1.94-1.86 1.21-3.48 2.73-4.82 4.49.05-.07-.01-.45-.02-.55v-1.33c0-.36-.2-1.59.02-1.87 1.49-1.96 3.34-3.61 5.45-4.87-1.09-.48-2.24-.84-3.42-1.03-3.15-.54-6.28.26-9.36.93-.02.19-.05.38-.1.55-.26.69-.4.41-.47-.02-.01.04-.01.09-.02.13-.02.05-.03.1-.04.15v-.68s-.06.02-.09.02c.22-.04-.28-3.69 0-3.75l.42-.09c-.06-.54-.13-1.09-.23-1.63-.2-1.16-.47-2.3-.8-3.43-.51-1.74-1.19-3.42-2-5.03v1.56c-.02 2.41-.3 4.78-.73 7.16-.97 5.25-2.75 10.33-5.21 15.07 0 .23-.02.44-.08.61-.83 2.22-4.19-1.75-4.69-2.52-1.24-1.88-1.89-4.09-2.25-6.28-.72-4.37-.53-8.96-.39-13.36.17-5.32.8-10.62 1.73-15.85 1.74-9.76 4.52-19.29 7.4-28.77-.12-.01-.24 0-.35.03-4.78 6.29-7.85 13.37-9.9 21.01-4.12 15.3-7.81 30.72-11.71 46.07-.97 3.85-1.95 7.71-2.93 11.56-.5 1.99-1.1 3.99-1.43 6.02-.02.13-.03.25-.05.38.01.05.02.09.03.14.16.8.41 1.57.71 2.32 1.36 3.42 3.13 6.67 4.47 10.1 1.42 3.64 2.66 7.34 3.91 11.04.12.37.08.87.05 1.32.26 3.6.26 7.28-.02 10.87-.18 2.25-.52 4.49-1.02 6.7-.1.44-.21.87-.32 1.3 12.2-2.11 24.46-3.82 36.78-5.11-.14-.13-.28-.25-.41-.4-1.83-2.06-2.84-5.17-3.34-7.83-.49-2.55-.48-5.36-.25-7.93.25-2.87 1.56-5.57 3.16-7.92.81-1.19 2.5-2.55 3.96-2.31 2.68-.95 4.92 1.58 6.59 3.53 1.97 2.28 3.55 4.98 4.18 7.95.26 1.22.36 2.5.38 3.78.03.46.02 1.23-.02 1.6-.02.67-.06 1.33-.1 1.98-.17 2.33-.96 4.65-2.49 6.45-.01.01-.02.02-.02.03 2.06-.18 4.12-.35 6.19-.49.24-.24.49-.48.74-.72 0 .01.01.15.01.18v.88s.01.17-.01.19c0 0-.02.01-.02.02 0 .32.01.64-.01.64-.24.02-.48.04-.71.06-.9.86-1.8 1.73-2.69 2.59.01-.01 0-.15 0-.18v-.88s-.01-.17 0-.19c.42-.41.85-.82 1.28-1.23-2.11.16-4.22.32-6.33.51-.96.67-2.06 1.14-3.21 1.4 2.25-.12 4.51-.1 6.78.18.06.01-.04 1.25 0 1.25-8.09-.99-16.07.95-23.86 2.92-8.5 2.15-16.98 4.4-25.44 6.72.85 1.41 1.8 2.76 2.71 4.05 1.26 1.78 2.62 3.49 4.04 5.14 2.93-1.16 5.85-2.31 8.79-3.45 5.44-2.1 10.9-4.15 16.37-6.17-.43-.19-.87-.39-1.3-.62-.18-.09.17-1.16 0-1.25.96.51 1.96.91 2.97 1.25 7.31-2.7 14.64-5.35 21.97-7.96-.12.04.14 1.2 0 1.25-1.66.59-3.32 1.18-4.98 1.78-5.02 1.8-10.03 3.62-15.04 5.46 3.42.76 7.01.66 10.45-.1 4.88-1.08 9.38-3.4 13.6-6 1.07-.65 2.1-1.37 3.17-2.02.19-.11.37-.2.56-.28-.36-.78-.55-1.9-.63-2.27-.29-1.37-.52-2.8-1.29-4.01-.78-1.22-1.95-2.16-3-3.14-1.27-1.17-2.54-2.35-3.81-3.52-.11.08-.22.15-.39.21v-.59c-.03-.29-.07-.6 0-.66.09-.07.18-.12.26-.18 0-.09-.01-.16-.05-.2.05.04.1.09.14.13 1.23-.89 2.64-1.39 4.1-1.77 1.71-.43 3.51-.92 5.29-.74 1.81.19 3.59.91 5.32 1.44 1.91.57 3.81 1.15 5.71 1.73 0 0 .01.14.02.33.14-.05.27-.11.41-.16v.56c.04.32.08.66 0 .69-.22.09-.44.18-.65.27 0 0 0-.01.01-.02-2.38.96-4.36 2.65-5.91 4.68-.99 1.31-1.82 2.73-2.55 4.2-.34.68-.66 1.36-.97 2.06-.09.2-.18.48-.29.76.27.04.55.13.85.24 2.4.91 4.74 1.87 7.2 2.6 9.68 2.83 19.97 3.29 29.87 1.38-.07.02.08 1.24 0 1.25-5.61 1.08-11.34 1.42-17.04.97-5.01-.39-9.98-1.39-14.76-2.95-1.21-.4-2.41-.84-3.6-1.31-1.04-.41-2.26-1.18-3.42-1.03-1.17.16-2.25 1.15-3.21 1.77-1.01.64-2.04 1.27-3.07 1.88-7.24 4.21-16.15 7.26-24.29 4.53-7.75 2.86-15.48 5.77-23.18 8.79-.94.37-1.87.75-2.81 1.12.46.51.92 1.01 1.4 1.51 4.53 4.74 9.76 8.82 15.45 12.08 5.68 3.26 11.84 5.71 18.23 7.19 3.61.83 7.37 1.48 11.09 1.38 4.09-.12 8.07-1.77 12.18-1.09 0 0 24.58.94 31.26-3.45 4.01-2.63 8.02-5.27 12.03-7.9 3.47-2.29 7.24-4.41 10.35-7.21.02-.67.05-1.34.12-2.02-.02.62.02 1.24.04 1.87.14-.13.29-.25.42-.38 2.64-2.52 4.83-5.59 6.87-8.6 1.27-1.88 2.46-3.86 3.35-5.95-13.49-2.71-27.03-5.18-40.58-7.59-.43.03-.86.02-1.32-.07-.41-.09-.79-.22-1.17-.37l-3.03-.54c-.08-.01.07-1.24 0-1.25.13.02.26.05.39.07-.36-.35-.7-.72-1.01-1.11-1.54.24-3.08.48-4.62.73 0 .03 0 .06-.01.07-.72.61-1.59 1.04-2.52 1.24.02-.01 0-.58 0-.63s-.02-.62 0-.62c.61-.13 1.18-.37 1.71-.68-.01-.26-.02-.5 0-.51 1.54-.25 3.09-.48 4.63-.72-1.16-1.84-1.85-3.97-2.02-6.14-.19-2.25-.23-4.69.1-6.92.53-3.54 3.29-8.66 7.3-8.7.01-.11.02-.19.04-.2 2.89-1.24 5.74.52 7.35 2.92 1.41 2.13 2.1 4.65 2.19 7.19.02.79.04 1.59.03 2.38 0 .58 0 1.11-.02 1.06-.08 2.19-.38 4.33-1.17 6.34 9.82-1.38 19.65-2.62 29.5-3.65 1.16-.12 2.32-.22 3.48-.34-.04-1.29-.02-2.59.06-3.88.35-5.72 3.35-10.83 6.09-15.71 1.43-2.54 2.86-5.1 3.96-7.81.54-1.33 1-2.7 1.32-4.1.15-.69.28-1.39.35-2.1.02-.15.03-.31.03-.47.01-.29.01-.58.02-.87-1.58-5.85-3.15-11.69-4.73-17.53Zm-84.11 47.8c-.15-3.89-2.85-7.64-5.38-10.42-2.6-2.84-6-5.04-9.88-5.53-8.06-1.01-13.24 6.23-16.07 12.76.2-.45-.02-1.39-.02-1.88s-.18-1.42.02-1.87c2.89-6.67 8.25-14 16.48-12.7 3.86.62 7.19 2.89 9.74 5.77 2.47 2.8 4.97 6.41 5.12 10.25.04 1.14-.04 2.72-.01 3.62Zm5.18 13.13v.88s0 .18-.01.18c-1.1.66-2.3 1.1-3.56 1.32.01 0-.01-.58-.01-.62 0-.05 0-.62.01-.63 1.26-.22 2.46-.66 3.56-1.32 0 .01 0 .16.01.19Zm-2.3-6.74s.01.58.01.63.01.62-.01.62c-.93.14-1.78.67-2.3 1.45.01-.03-.01-.15-.01-.18v-.89s-.01-.16.01-.18c.52-.78 1.37-1.31 2.3-1.45Zm17.17 4.88s0-.15-.01-.18v-.88s0-.18.01-.19c.9-.7 1.96-1.17 3.09-1.34-.01 0 0 .58 0 .62 0 .05.02.62 0 .63-1.13.17-2.19.64-3.09 1.34Zm3.1 3.39c-.85.46-1.71.93-2.56 1.39v-1.06s-.01-.18 0-.19c.85-.46 1.71-.93 2.56-1.39-.01 0 0 .16 0 .18 0 .15.01.3.01.44 0 .15-.01.3-.01.45 0-.02.01.17 0 .18Zm31.36-8.89c.18-1.22-.18-2.52 0-3.75.05-.32.08-.65.11-.97-.01-.14-.02-.28-.04-.42-.11-.92-.3-1.83-.54-2.72-.49-1.8-1.23-3.53-2.17-5.14-1.85-3.15-4.54-6.03-7.93-7.51-3.47-1.53-7.04-.97-9.83 1.62-1.39 1.3-2.5 2.87-3.59 4.41-1.37 1.94-2.74 3.87-4.11 5.81.22-.31-.02-1.5-.02-1.88s-.19-1.57.02-1.87c1.42-2 2.83-4.01 4.25-6.01 1.05-1.48 2.12-2.97 3.45-4.21 5.64-5.25 12.87-1.08 16.67 4.22 3.81 5.3 4.68 12.07 3.73 18.42Z"/>
  <path d="M278.6 216.72v-.4c.01.06.03.12.05.19.06-.25.17-.51.32-.49-.02-.15-.03-.3-.05-.45-.11-.81-.26-1.6-.43-2.39-.4-1.79-.96-3.54-1.62-5.25-1.37-3.5-3.22-6.79-5.24-9.95-1.84-2.87-3.76-5.8-6.3-8.1-1.24-1.13-2.61-2-4.1-2.75-1.43-.72-2.83-1.42-3.83-2.71-.08-.11-.11-.3-.11-.53-1.87.85-3.79 1.61-5.74 2.28.09-.03-.02-1.72-.02-1.88 0-.17-.09-1.84.02-1.87 5.44-1.85 10.58-4.44 15.3-7.68-1.09-.42-2.12-1.01-2.73-1.37-2.28-1.34-4.23-3.19-5.74-5.35-2.06-2.95-3.04-6.25-3.36-9.69-.27.26-.55.51-.84.74-3.23 2.67-6.94 4.81-10.43 7.1-3.73 2.46-7.47 4.91-11.2 7.36-7.62 6.32-31.26 3.45-31.26 3.45-4.55-.75-9.04 1.2-13.6 1.09-3.94-.1-7.9-.88-11.69-1.88-7.25-1.92-14.15-5.1-20.37-9.28.05.53.08 1.06-.04 1.56-.88 3.82-2.96 6.98-5.89 9.55-2.94 2.59-6.16 5.14-9.66 6.93-3.39 1.74-7.53 2.83-11.31 1.78-.93-.25-1.8-.66-2.57-1.19.75 1.2 1.63 2.31 2.64 3.3 1.42 1.39 3.07 2.54 4.87 3.37.51.23 1.13.49 1.78.72 1.41-.64 2.94-1.05 4.5-1.19-.07.01.14 3.74 0 3.75l-.21.03c.03.51.05 1.13-.06 1.21-1.14.78-2.78.47-4.23-.05-2.03.92-3.83 2.31-5.19 4.11-1.3 1.73-2.2 3.72-3.13 5.66-.6 1.26-1.2 2.52-1.81 3.78 26.88 1.62 53.73 3.79 80.37 7.71.08.02.08.51.05 1.14.01.06.02.12.02.15v2.65s.03.48-.02.55c-.82 1.22-1.47 2.55-1.93 3.96-.21.66-.38 1.34-.51 2.03 1.11 1.41 1.91 3.03 2.34 4.77.22.91.33 1.85.35 2.79.01.32.02.63.03.95.07-.23.15-.46.22-.69-.04.14.01.4.02.55v.35c2.46.52 4.92 1.07 7.37 1.65.02 0 .16 3.68 0 3.75-.13.05-.25.11-.37.16.94 10.33 1.81 20.67 2.6 31.01 1.52 19.75 2.63 39.49 1.52 59.29-.57 10.17-1.52 20.33-1.94 30.52-.23 5.51-.19 10.98.08 16.49.16 3.16.27 6.34.27 9.51.21.17.44.32.74.42.15.06.06 1.57 0 2.65v1.1l-.81-.03c-8.84-.32-17.66-.99-26.41-2.24-1.36-.19-2.71-.42-4.06-.64 5.8 5.49 9.98 12.56 10.61 20.78.07.94-.02 1.91-.02 2.86.57 1.31.98 2.69 1.39 4.05 1.39 4.58 2.77 9.19 3.45 13.94.6 4.08.64 8.33.34 12.45-.36 4.83-1.41 9.61-2.46 14.32-.82 3.68-1.75 7.34-2.77 10.96 2.15.5 4.31.93 6.49 1.27 6.98 1.07 14.03 1.01 21.01.03 6.74-.94 13.32-2.62 19.81-4.63-4.27-3.16-6.29-9.16-7.99-13.93-7.07-19.84-7.87-44.83 4.41-62.6-.36.25-.72.5-1.09.74-.51.36-1.34.73-1.65 1.31 0 .14.01.26.03.33-.06-.05-.08-.13-.1-.21-.03-.13-.03-.26-.03-.39-.03.12-.07.25-.1.38.29-1.17-.29-2.57 0-3.75 2-8.05 6.59-15.06 11.84-21.37 2.55-3.06 5.21-6.09 8.1-8.83 2-1.9 4.18-3.59 6.63-4.8-.51-1.32-.74-2.85-.97-3.93-.65-3-.81-5.97-.8-9.03 0-1.35.01-2.7.2-4.04.09-.7.23-1.4.41-2.09.1-.34.24-.69.37-1.04-.04-.52-.1-1.41.04-1.52.08-.06.14-.05.19-.01.07-.35.16-.69.31-1.02-.2.45.02 1.39.02 1.88 0 .43.13 1.21.02 1.69.69 1.63 2.1 2.81 3.67 3.72-.02-.21-.05-.42-.08-.63-.18-1.5-.31-3-.42-4.5-.23-3.08-.35-6.17-.53-9.25-.34-5.77-.93-11.55-2.75-17.05-.32-.2-.64-.4-.96-.59-3.66-2.28-7.31-4.56-10.97-6.84-.29.19-.59.38-.9.54.13-.06-.02-1.68-.02-1.87 0-.2-.13-1.8.02-1.88.17-.08.33-.19.5-.29 0-.28-.01-.51-.05-.53.15.09.31.19.46.28 2.56-1.66 4.22-4.31 5.58-7.02 1.73-3.47 3.29-7.04 4.68-10.65 1.44-3.72 2.66-7.55 3.41-11.47.2-1.04.37-2.09.49-3.14.05-.44.1-.89.14-1.34.03-.43.06-.85.08-1.28.01-.12.01-.21.01-.28-.04-.45-.09-.95-.09-.97-.04-.44-.09-.89-.15-1.34-.15-1.05-.35-2.09-.59-3.12-.14-.57-.02-1.29-.02-1.87 0-.09 0-.21.02-.32v-1.56c1.27 3.57 1.59 7.16 1.63 10.88-.01-.09-.01-.18-.05-.25.01.35.01.6.01.79.02-.12.03-.23.04-.34 0 .48.01.96 0 1.45-.01 1.55-.13 3.09-.35 4.6 2.99-5.14 5.86-10.36 8-15.91 1.36-3.5 2.41-7.13 3-10.84.15-.91.27-1.82.35-2.74.06-.58.06-1.18.13-1.76 0-.02.01-.03.01-.04-.22-1.97-.37-3.87-.8-5.81-.07-.31-.08-.62-.07-.95-.2.34-.4.68-.61 1.01.22-.33-.02-1.48-.02-1.87s-.2-1.55.02-1.88c1.06-1.63 1.89-3.38 2.45-5.24.2-.68.36-1.38.5-2.07-.04-.1-.06-.22-.08-.33-.01.02-.02.02-.03.04v-.21s-.01-.03-.01-.05c-.04-.97-.02-1.96 0-2.94 0-.04 0-.09.01-.15Zm-3.68 16.95c-.84-7.24-3.65-14.13-8.11-19.89-.07-.09-.01-.44-.01-.55-.01-.45-.01-.89-.01-1.33 0-.33.21-1.63.02-1.87 4.46 5.76 7.27 12.65 8.11 19.89.14 1.24-.14 2.52 0 3.75Z" style="fill:#efe7e2"/>
  <path class="cls-9" d="M142.42 442.19c-3.88 5.73-6.41 12.62-6.87 19.59.44-7.42 2.63-14.58 6.87-20.84-.19.28.2.96 0 1.25ZM135.53 462.24c0-.15.02-.31.03-.46-.01.15-.02.31-.03.46ZM187.98 116.88c-.15-3.89-2.85-7.64-5.38-10.42-2.6-2.84-6-5.04-9.88-5.53-8.06-1.01-13.24 6.23-16.07 12.76.2-.45-.02-1.39-.02-1.88s-.18-1.42.02-1.87c2.89-6.67 8.25-14 16.48-12.7 3.86.62 7.19 2.89 9.74 5.77 2.47 2.8 4.97 6.41 5.12 10.25.04 1.14-.04 2.72-.01 3.62ZM242.49 122.65c.18-1.22-.18-2.52 0-3.75.05-.32.08-.65.11-.97-.01-.14-.02-.28-.04-.42-.11-.92-.3-1.83-.54-2.72-.49-1.8-1.23-3.53-2.17-5.14-1.85-3.15-4.54-6.03-7.93-7.51-3.47-1.53-7.04-.97-9.83 1.62-1.39 1.3-2.5 2.87-3.59 4.41-1.37 1.94-2.74 3.87-4.11 5.81.22-.31-.02-1.5-.02-1.88s-.19-1.57.02-1.87c1.42-2 2.83-4.01 4.25-6.01 1.05-1.48 2.12-2.97 3.45-4.21 5.64-5.25 12.87-1.08 16.67 4.22 3.81 5.3 4.68 12.07 3.73 18.42ZM107.64 265.22c.06-.06.06-.18.05-.32-.71-1.24-3.15-.25-4.07.17-1.55.71-3.06 1.5-4.56 2.29-3.08 1.63-6.08 3.4-9.01 5.29.19-.12-.19-1.12 0-1.25 3.58-2.31 7.27-4.43 11.07-6.35 1.63-.83 3.78-2.29 5.7-1.91.55.11.82.31.9.75 0-.01.01-.01.02-.02v.17s.01.04.01.07c0 .31.12.88-.11 1.11ZM190.86 124.52c-.93.14-1.78.67-2.3 1.45.01-.03-.01-.15-.01-.18v-.89s-.01-.16.01-.18c.52-.78 1.37-1.31 2.3-1.45-.01 0 .01.58.01.63s.01.62-.01.62ZM193.16 130.01v.88s0 .18-.01.18c-1.1.66-2.3 1.1-3.56 1.32.01 0-.01-.58-.01-.62 0-.05 0-.62.01-.63 1.26-.22 2.46-.66 3.56-1.32 0 .01 0 .16.01.19ZM211.12 126.81c-1.13.17-2.19.64-3.09 1.34.01 0 0-.15-.01-.18v-.88s0-.18.01-.19c.9-.7 1.96-1.17 3.09-1.34-.01 0 0 .58 0 .62 0 .05.02.62 0 .63ZM211.13 131.36s.01.17 0 .18c-.85.46-1.71.93-2.56 1.39v-1.06s-.01-.18 0-.19c.85-.46 1.71-.93 2.56-1.39-.01 0 0 .16 0 .18 0 .15.01.3.01.44 0 .15-.01.3-.01.45Z"/>
  <ellipse class="cls-3" cx="178.26" cy="121.79" rx="2.82" ry="4.18"/>
  <ellipse class="cls-3" cx="224.8" cy="121.79" rx="2.82" ry="4.18"/>
</svg>
