<svg version="1.1" id="Слой_1" xmlns="http://www.w3.org/2000/svg" x="0" y="0" viewBox="0 0 327.9 362.7" style="enable-background:new 0 0 327.9 362.7" xml:space="preserve">
  <style>
    .st3{fill:#e46108}.st4{fill:#ef7e01}.st6{fill:#fdce1e}.st7{fill:#feece3}.st9{fill:#e3d5cd}
  </style>
  <g id="Слой_2_00000008106987197878470520000011409481990228947115_">
    <path d="M181.4 30.9c0 .3-.2 1.6 0 1.9l-.1-.1c0-1-.4-3.1-.1-3.2.1 0 .2-.1.3-.1 0 .4-.1 1.2-.1 1.5z"/>
    <path d="M181.4 30.9c0 .3-.2 1.6 0 1.9l-.1-.1c0-1-.4-3.1-.1-3.2.1 0 .2-.1.3-.1 0 .4-.1 1.2-.1 1.5z"/>
    <path d="M257.6 46.5c-1.1-8-2.7-15.8-5-23.5-1-3.4-2-6.8-3.7-10-.5-1-2.5-4.3-4.3-5.1-5 4.5-7.2 11-8.2 17.4-.6 3.7-1 7.5-1.2 11.3 0 .5 0 .9-.1 1.4v.6c0 .9.1 1.8.2 2.7.2 1.8.6 3.5 1.2 5.3.2.5 0 1.3 0 1.9 0 .5-.2 1.4 0 1.9-1.3-3.9-1.5-8-1.5-12.1 0-4 .3-8 .7-12 .6-5.1 1.5-10.5 3.7-15.1-9.1 7.5-18.4 14.8-27.6 22.1 0 .2 0 .3.1.3-.1 0-.2-.1-.3-.1-.2.2-.5.4-.7.6.1-.1.1-.4.1-.8-4.7-1.4-9.7-3-14.6-2.6-5 .3-10.3 1-15.2 2.6.1 0 .1-.2.1-.5 0 .1.1.1.1.1-.2-.2 0-1.6 0-1.9 0-.3.1-1.1.1-1.6 4.8-1.5 9.9-2.2 14.8-2.5 5.1-.3 10.4 1.4 15.3 2.8 10.4-8.2 20.7-16.5 31-24.9.5-.9 1.2-1 2-.7l.2-.2s-.1.1-.1.2c1.8.9 3.7 4.2 4.2 5.1 1.7 3.1 2.7 6.6 3.7 10 2.2 7.7 3.9 15.5 5 23.5 0 .7-.1 1.4 0 2.1v.1c-.1.5-.1 1.1 0 1.6z"/>
    <path d="M257.5 44.9v-.1c-.1-.7 0-1.4 0-2.1v.1c.2.7.1 1.4 0 2.1zM160.1 47.1v.7c-.1-.2-.1-.4 0-.7z"/>
    <path d="M160.1 47.1v.7c-.1-.2-.1-.4 0-.7zM141.7 49.9c0 .1 0 .1-.1.1l.1-.1zM246.9 48.7v-.5c.1 0 .1 0 .2-.1-.1.3-.1.5-.2.6zM257.5 44.9v-.1c-.1-.7 0-1.4 0-2.1v.1c.2.7.1 1.4 0 2.1zM186.1 63.7c-12.6 1.6-24.1 5.8-36.3 8.9-.2 0-.3-.2-.1-.3 10.6-6.8 24.1-9 36.4-9.5.5.1.5.8 0 .9zM186.2 79.8c-5.6 1.2-11.2 1.4-16.9 1.1-2.6-.1-5.1-.4-7.7-.8-3.3-.5-7-2-10.4-1.8-.3 0-.4-.5-.1-.6 5.1-1.1 11.1 1 16.2 1.4 6.2.4 12.4.1 18.7-.1.6-.1.7.7.2.8zM244.6 73.7s0-.1 0 0c0-.1 0 0 0 0zM251.5 72c-7.4 1.1-15.2.7-22.6 1.1-7.6.4-15.1.6-22.6-.8-.6-.1-.4-1 .1-1 7.8.2 15.6 0 23.4-.4 7-.3 14.8-1.5 21.7.3.3.2.4.7 0 .8zM251.6 70.3c-1.8-.7-3.3-1.9-5-2.7-1.9-.8-4-1.3-6.1-1.8-.5-.1-.3-.8.1-.8 3.9-.3 9.3 1.3 11.2 5 .1.1 0 .3-.2.3zM249.2 76.1c-3.6.8-7.5 1-11.1.7-.5-.1-.6-.8-.1-.9 3.6-.9 7.6-1.1 11.2-.5.4 0 .3.6 0 .7z"/>
    <path class="st3" d="M164 31c-.1 1.8-.3 3.6-.6 5.4 0 .2-.1.4-.1.7-.6 3.3-2.1 6.9-3.1 10.1v-.5c0-.1-.1-.2-.2-.3v.6c-.6.1-2.3-1.2-2.6-1.5-.9-.8-1.6-1.9-2.1-3-.1-.3-.2-.7-.3-1.1.3-1.2.9-2.4 1.7-3.4v-3.2c0-.1-.1-.5 0-.5-.5.7-.9 1.3-1.2 2.1v-.5c0-.1-.1-.5 0-.5-1.9 2.1-4 4.4-4.1 7.4V46.6c-1.4-.6-3-.8-4.5-.5-1.5.3-2.8 1-3.8 2.1-.2-.7-.4-1.4-.5-2.1-.1-.4-.1-.8-.1-1.1v-.3c.2-2.2.6-4.4 1.1-6.5 1.1-4.6 2.1-9.3 3.3-13.9 1.2-4.4 2.3-8.9 4.1-13.1.8-2 1.9-4 3.2-5.7.5-.6 1.5-1.4 2.3-1.5 1 .5 1.8 1.2 2.6 1.9 0 .3 0 .5.1.6 2 2.7 2.8 5.9 3.5 9.2.7 3.5 1.2 7 1.4 10.6.1 1.6 0 2.6-.1 4.7zM258 49.4c-.1 0-.1 0-.2-.1-.7-1.8-2.4-3.1-4.2-3.8-1.1-.4-2.2-.7-3.3-1-.7-.2-1.5-.3-2.2-.3.2-.7.4-1.3.5-2 .1-.4.1-.8.2-1.3v-3.3c0-.9-.1-1.8-.8-2.6v1.7c-.5 2-1.8 3.7-3.1 5.2-1.5 1.7-3.7 4.5-6.3 3.6v.2c-.6-1.7-3-2.8-3.2-4.6-.1-.9-.2-1.8-.2-2.7v-.6c0-.5 0-.9.1-1.4.2-3.8.6-7.6 1.2-11.3 1-6.4 3.2-12.9 8.2-17.4 1.8.8 3.8 4.2 4.3 5.1 1.7 3.1 2.7 6.6 3.7 10 2.2 7.7 3.9 15.6 5 23.5-.1-.5 0-1.1 0-1.7 0 1.8.1 3.3.3 4.8z"/>
    <path class="st4" d="M258 53.5c-.1.3-.1.6-.2.8 0 .1-.1.3-.1.4v-.1c0-.2-.1-.4-.1-.7 0-.3-.1-.6-.1-.8v3.7c-.4 0-.9-.1-1.3-.1-.4-.1-.8-.2-1.2-.2v.1c-28.8-2.9-57.8-5.6-86.6-3-8 .7-16 1.9-23.9 3.5 0-.8 0-1.6-.1-2.4l3.6 1.5v-3.7c-1.3-.6-2.5-1.1-3.8-1.6.7-.5 1.6-.8 2.5-1 2.2-.4 4.4.2 6.1 1.6V50c.5.3 1 .4 1.6.3.1 0 0-1.7 0-1.9 0-.1-.1-1.9 0-1.9-1 .3-1.9-.3-2.5-1.1-.2-.2-.3-.5-.4-.8.6-1.8 1.8-3.4 3.1-4.8V43.7c0 .8.2 1.7.5 2.5.6 1.6 1.8 3 3.2 4 .3.2.8.6 1.2.6.4 0 .5-.1.5-.4v.1-3.2c1-3.1 2.5-6.8 3.1-10.1-.5 3.2-1.3 6.4-2.3 9.6-.4 1.1.3 2.5 0 3.6 2.5-7.9 3.3-15.9 3.2-24.2 0-4-.3-8-1-11.9-.3-1.6-.6-3.2-1-4.8.1.1.2.2.3.4l6.3 7.7c4.2 5.1 8.4 10.2 12.5 15.3 0 .3 0 .5-.1.5 4.8-1.6 10.1-2.2 15.2-2.6 4.9-.3 9.9 1.2 14.6 2.6 0 .4 0 .7-.1.8.2-.2.5-.4.7-.6.1 0 .2.1.3.1 0 0-.1-.1-.1-.3 9.3-7.3 18.5-14.7 27.6-22.1-2.2 4.6-3.1 10-3.7 15.1-.4 4-.7 8-.7 12 0 4.1.2 8.2 1.5 12.1-.2-.5 0-1.4 0-1.9s.2-1.3 0-1.9c-.6-1.7-1-3.5-1.2-5.3.2 1.8 2.6 2.9 3.2 4.6 0 .5-.1 1.4-.1 1.5v1.8c2.7.9 4.9-2 6.5-3.7 1.6-1.8 3.1-3.9 3.3-6.5V39c.1.1.1.2.2.3 0 .1 0 .1-.1.2-.4 1.6-.9 3.2-1.3 4.8-.1 0-.2 0-.2.1-.1.1 0 1.7 0 1.9v1.8h.1c0 .1.1.4 0 .5 0-.2.1-.4.2-.6 1-.4 2.1-.1 3.2.1 1.1.3 2.3.6 3.4 1 .2.1.5.2.7.3-1.2.2-2.4.4-3.5.5-.1 0 0 1.7 0 1.9v1.9c1.5-.2 2.9-.5 4.4-.7.8-.1 1.8-.4 2.6-.2.2.4.3.6.3.7z"/>
    <path d="M259.6 58.7c-.1-.2-.2-.3-.3-.5.1.2.2.3.3.5z"/>
    <path d="M259.6 62.5c0 .1 0 .1-.1.1h-.2c-.1-.1 0-.4 0-.5-.1 0-.1-.1-.1-.1-.2-.1-.3-.3-.5-.4-.3-.3-.7-.5-1.1-.7-.4-.2-.9-.4-1.3-.5-7.8-.8-15.5-1.6-23.3-2.2-29.4-2.5-59.3-3.5-88.3 2.6v.6c0 .1-.1.3-.3.2-.2-.1-.1-.5-.1-.7V62c-.5 0-1.1.1-1.6.3v.4c.9 1.7 1.8 3.4 2.6 5.1 1 2.4 2.2 4.9 2.4 7.5.2 2 .3 4.4-.1 6.4s-1.7 3.6-2.4 5.5c.6 1.1 1.7 1.8 3 1.5-.1 0-.1.2-.1.4 7.6-1.6 15.3-3 23-4.1 1.6-.2 3.3-.4 4.9-.6.8-.1 1.6-.2 2.3-.3.6-.1 1.2-.1 1.8-.2.8-.1 1.5-.2 2.3-.2.9-.1 1.9-.2 2.8-.3 2.8-.2 5.7-.4 8.5-.6l6.9-.3h1.6c1.4 0 2.8-.1 4.2-.1H212.8c6.9 0 13.8.3 20.7.9 6.1.5 12.5.8 18.1 3.4.5-.2.9-.4 1.3-.6.6-.3 1.2-.7 1.7-1.2-.3-.3-.5-.7-.7-1.1-.3-.8-.3-1.7-.3-2.6v-2.4.2c.1-1.5.3-2.8.8-4.3.7-2.4 1.7-4.7 2.9-6.9.6-1.1 1.3-2.2 2-3.2.3-.4.6-.8.8-1.2-.1-.3-.3-.6-.5-.9zm-109.9 9.9c10.6-6.8 24.1-9 36.4-9.5.5 0 .5.7 0 .8-12.6 1.6-24.1 5.8-36.3 8.9-.1.1-.2-.2-.1-.2zm36.5 7.4c-5.6 1.2-11.2 1.4-16.9 1.1-2.6-.1-5.1-.4-7.7-.8-3.3-.5-7-2-10.4-1.9-.3 0-.4-.5-.1-.5 5.1-1.1 11.1 1 16.2 1.4 6.2.4 12.5.1 18.7-.1.6-.1.7.7.2.8zm63-3.7c-3.5.8-7.5 1-11.1.7-.5 0-.7-.8-.1-.9 3.6-.9 7.6-1.1 11.2-.5.4 0 .3.6 0 .7zm2.3-4.1c-7.4 1.1-15.2.7-22.6 1.1-7.6.4-15.1.6-22.6-.8-.5-.1-.4-1 .1-1 7.8.2 15.6 0 23.4-.4 7-.3 14.8-1.5 21.7.3.3.2.4.7 0 .8zm.1-1.7c-1.8-.7-3.3-1.9-5-2.7-1.9-.8-4-1.3-6.1-1.8-.5-.1-.3-.8.1-.8 3.9-.3 9.3 1.3 11.2 5 .1.1 0 .3-.2.3z" style="fill:#e3e3e3"/>
    <path class="st4" d="M164.6 89.8c-4.8 1.9-9.4 4-14 6.3-.6-1.1-1.2-2.2-1.7-3.4 5.1-1.1 10.4-2 15.7-2.9zM166.4 90.4c-4.7 2.9-9.3 6-13.7 9.3-.5-.9-1.1-1.7-1.6-2.6 1.5-.7 3-1.5 4.5-2.2 3.6-1.6 7.2-3.1 10.8-4.5zM164.1 93.1c-3.5 2.7-6.9 5.5-10.2 8.6-.2-.4-.5-.7-.7-1.1 2.1-1.5 4.1-3 6.2-4.4 1.6-1.1 3.2-2.2 4.7-3.1zM252.5 94.8c0 .2-.1.3-.1.5-.2.6-.5 1.2-.8 1.8-4.7-2.5-9.7-4.4-14.8-6-4.8-1.5-9.7-2.8-14.5-4.5 2.9.1 5.9.3 8.8.5 6 .4 12.6.6 18.4 2.7-.1.6-.2 1.5 0 1.9 0 .3.2.3.4 0 0 .2 0 .3.1.4 1.2.3 2.1 1.4 2.5 2.7zM246.4 103.1c-1 1-2 1.9-3 2.8-.1.1-.2.2-.3.2-5.1-4.1-10.5-7.8-15.9-11.4-2.3-1.6-4.7-3.2-7-4.8-1.2-.8-2.3-1.6-3.5-2.4-.5-.4-1.2-.7-1.6-1.2h1.3c0 .3-.1.7 0 .7.5.2.9.5 1.2 1-.1-.2 0-.5 0-.7 7.9 2.3 15 7.1 21.9 11.4 2.3 1.4 4.6 2.9 6.9 4.4zM250.9 97.9c-1.1 1.6-2.4 3-3.8 4.4-2.5-1.7-5.1-3.3-7.7-4.9-5.6-3.5-11.4-7.3-17.7-9.9 4.2 1.5 8.5 2.7 12.7 4 5.8 1.7 11.3 3.7 16.5 6.4zM159.2 245.9c-.9.4-1.9.8-2.8 1.2-2.4 1-5 1.8-7.6 2.1 0-2.2-.1-4.4-.2-6.6-.2-3.2-.4-6.5-.7-9.7 1.9 1.4 3.8 2.7 5.4 4.4 1.7 1.6 3 3.4 4.1 5.4.1.2.2.4.3.5.6 1 1.1 1.9 1.5 2.7z"/>
    <path d="M240.8 108.2v-.2c-.1.1 0 .1 0 .2zM253.7 125.3v.5l-.1.1c.1-.2 0-1.7 0-1.9 0-.2-.1-1.9 0-1.9l.1-.1c-.1.1 0 .5 0 .6v2.7zM244.6 131.5zM258.3 166.2c0 .2-.1.4-.1.6 0 .1 0 .2-.1.3 0-.1 0-.2.1-.3v-.9s.1.1.1.3zM258.5 165.9v.5c0-.1-.1-.2-.1-.3.1-.2.1-.5.1-.7v.5z"/>
    <path class="st4" d="M148.6 249.3h-.4c.1-.5.1-1 0-1.1-.5-.3-1.1-.5-1.6-.7-.1-.1-.1-.3-.2-.4-.1-.3-.3-.7-.4-1v-.1c-.1-.3-.2-.5-.3-.8-.1-.3-.2-.7-.3-1-.1-.3-.2-.7-.2-1-.1-.3-.1-.5-.2-.8-.4-2.1-.6-4.2-.6-6.3 1-1.4 2-2.7 3-4 .1 1.3.3 2.5.4 3.8v1.4c.1 1 .2 1.9.2 2.9v.2c.1.8.1 1.7.2 2.5 0 .5.1.9.1 1.4 0 .4.1.8.1 1.2v.2c.2 1.1.2 2.4.2 3.6.1 0 .1 0 0 0z"/>
    <path class="st4" d="M145.6 247.4c-2.5-.4-5.1.3-7.5 1.3-.3.1-.6.2-.9.4.2-.6.5-1.1.8-1.7.2-.4.4-.8.5-1.2.1-.3.3-.6.4-.8l.6-1.2c.3-.7.7-1.3 1-2 .1-.1.1-.2.2-.3l.9-1.5.3-.6c.3-.4.5-.9.8-1.3.5-.8 1-1.6 1.5-2.3v2.5c0 .4 0 .8.1 1.2 0 .4 0 .7.1 1.1v.2c0 .2 0 .5.1.7 0 .3.1.7.1 1v.2c.1.4.1.9.2 1.3 0 .2.1.5.1.8.1.3.1.6.2.9.2.5.4.8.5 1.3z"/>
    <path d="M99.1 176.5c-.1 0-.1.1-.2.1v-.2c.1 0 .1 0 .2.1zM98 177.4c0-.1-.1-.1-.1-.2h.1v.2z"/>
    <path d="M99.1 176.5c-.1 0-.1.1-.2.1v-.2c.1 0 .1 0 .2.1zM167.9 163c-.1 0-.1 0 0 0-.1 0-.1 0 0 0zM167.9 163.4v-.4.4zM167.9 164.3c-.1 0-.1 0 0 0-.1-.1-.1 0 0 0z"/>
    <path class="st6" d="M106.6 200.2c-.3-4.6-.6-9.3-1.6-13.8-.8-3.4-2.2-8.1-5.6-9.8.2-.1.3-.1.5-.1.6-.1 1.2-.3 1.8-.4.3-.1.5-.1.8-.2 1.4 2.2 2.1 5 2.6 7.2.9 4.4 1.3 9 1.6 13.5 0 1.1-.1 2.7-.1 3.6zM72.7 212.5c0 .1 0 .2-.1.3.1-.1.1-.2.1-.3z"/>
    <path d="M72.7 208.8z"/>
    <path class="st6" d="M86 217.6c-.3.4-.7.7-1.1.8.4-.2.8-.5 1.1-.8zM89.8 212.4c0-.1 0-.1 0 0v-.2.2zM84.9 218.4c-.2.2-.5.3-.7.5v-.2c.3 0 .5-.1.7-.3zM89.8 208.6c0-.1-.1-.1-.1-.1s.1-.1.1-.2v.3zM89.8 212.1v-3.2 3.2z"/>
    <path class="st6" d="M173.7 259.2v-1.7c-.1-.7-.2-1.3-.8-1.9-1-1.2-2.7-1.9-4.1-2.7-1.5-.8-2.9-1.7-4.4-2.5-.6-1.1-1.2-2.3-1.9-3.4-.2-.4-.4-.7-.6-1l-.3-.6v-.1c0-.1-.1-.1-.1-.2-1.2-2.2-2.4-4.4-3.7-6.6-1.2-2.1-2.5-4.1-4.3-5.8-1.3-1.3-2.8-2.5-4.3-3.6-.1-.5-.6-1-1.3-1.5v-.3c0-.1-.1-.7 0-.7-.2.2-.3.4-.5.6l-.1.1c-.4-.2-.8-.4-1.4-.6-.2-.1-.3-.1-.5-.2-.1-.1-.3-.1-.4-.1-8.8-2.5-18.4.9-27.3 1-5.4 0-11.5-.2-16.8-1.7-5.8-1.6-9.2-6.2-12.4-10.9l.1-.1c2 2.2 4.9 4.4 7.9 5.7-.8-.2-1.5-.3-2.1-.5-.6-.1-1.1.8-.5 1.1 4.7 2.6 10.4 2.9 15.6 1.9 2.5-.5 7.2-2 6-5.6-1.1-3.3-4.6-1.6-6.6-.5-3.8 2.1-7 3.7-11.4 1.9-3.2-1.3-5.8-2.9-8.4-4.9.2-.4.4-.9.6-1.4 0 0 0-.1.1-.1V209l-.1-.1c-.9-1.1-1.1-2.6-1.5-4-.5-1.5-1.1-2.9-1.9-4.2-.8-1.3-1.6-2.5-2.7-3.6-.4-.4-.8-.7-1.4-1-.4-3.3-.1-6.5.5-9.9.4-2.3.8-4.8 1.8-7 .7-.7 1.5-1.3 2.5-1.7 0 0 .1-.2.1-.5-.4-.2-.7-.4-1-.7H86c-.9.5-1.8.9-2.7 1.2-.1 0-.2.1-.3.1-.1.3-.3.6-.4.8-1 1.6-1.4 3.7-1.9 5.5-1.1 4.2-1.5 8.5-1 12.8-.7.5-1.3 1.3-1.5 1.5-.9 1-1.8 2.1-2.5 3.3-1.4 2.3-2.4 4.8-3 7.4v.2c-.1.6 0 1.3 0 1.9V212.7c.2.4.3.9.5 1.3-1.3 1.1-2.4 2.4-3.8 3.5-1.9 1.6-4.2 2.9-6.8 2.1-1.7-.5-3.1-3.2-4.2-4.5-1.9-2.2-5.3-5.7-8.6-5.3-2.3.3-3.2 2.5-2.6 4.6 1.1 3.5 5.8 6.6 9.3 7.1.5.1 1-.5.5-.9-1.2-1-2.4-1.7-3.7-2.6-.6-.4-2.9-1.9-3-2.7l1.8-2.7c.5.3 1 .6 1.4.9 3.6 1.3 4.7 6.4 8.2 8.1 2.1 1 4.2.7 6.2-.4-.7.8-1.5 1.5-2.3 2.2-5.1 4.3-11 3.4-16.8 1.4-7.7-2.7-16.7-6.5-25.1-4.7-4.2.9-5.8 5-1.5 7.1.1 0 .1.1.2.1-6.1 7.2-10.7 15.6-13.5 24.6-4.8.1-10.6 2.7-8.4 8.5 2.7 7.2 12.3 8 18.9 8.2 7.1.2 18.3.4 24-4.8 5.3-4.9.8-9.9-4.9-10.8-2.7-5-5.2-10-7.6-15.2-1.2-2.6-2.3-5.2-3.4-7.8-.2-.6-.5-1.2-.8-1.8 1.9.2 3.8.1 5.4.1 4.7 0 9.2 0 13.8 1.1.6.2 1-.7.4-1-5.5-3.1-11.4-1.8-17.4-2.2-1.5 0-3-.2-4.4-.6-.7-3.1.1-4.4 2.6-3.9 1.9-.6 5.6.3 7.2.5 4 .6 7.7 1.9 11.5 3.3 5.4 2 11.4 4.1 17 1.8 4.9-2.1 8.6-7.1 11.5-11.6.1.1.2.2.3.4 1 1 2.5 1.7 3.8 2.2 1.8.8 4 1.1 5.9.5.2-.1.5-.2.7-.3.4-.3.7-.5 1.1-.8.8-.7 1.4-1.4 2-2.2 2.5 4.6 5.9 9 10.8 10.9 6.8 2.7 16.3 3 23.5 2.4 4-.3 7.9-1 11.9-1.3 2.6-.2 6.1-.6 8.7.2.6.1 1.2.3 1.7.4l.1.1c.1.1.2.2.3.2.3.2.6.5.8.7-.4.5-.8 1-1.1 1.5-.1.1-.2.3-.3.4-.1.1-.1.2-.2.3-1.3.5-3.4.5-4.7.8-2.8.4-5.7.6-8.6.7-4.1.1-8.2-.1-12.3-.6-.5-.1-.6.8-.1.9 7.9 2 16.2 2.2 24.2.5-3.2 5-5.8 10.3-7.7 15.9-1.4-.2-2.6.3-3.9.8-1.3.6-2.6 1.3-3.1 2.7-.1.2-.1.4-.2.6-.2.8-.1 1.7-.1 2.6v.2c-.1 1.8-.1 2.7 0 2.5 0 .8.1 1.5.3 2.2 1.4 4.9 7 7.2 11.6 8.1 5.8 1.1 12 .8 17.9.1 3.1-.4 6.2-1 9.2-1.8 2.3-.6 5.5-1.4 6.7-3.7.5-1.3.2-3.2.2-4.6zm-66.9-39.1c.9-.4 1.7-1 2.5-1.5 1.2-.7 2.2-2.1 1.6.4-.5 2.4-3.9 2.7-7.5 2.3 1.2-.1 2.3-.7 3.4-1.2zm-81.4 11.6c1.1.6 1.5 1.9 1.9 2.9 1.1 2.7 2.2 5.4 3.4 8 2.4 5.3 5 10.5 7.8 15.6v-2.7c.4.3.9.6 1.5 1.1 1.3 1 2.7 2.3 1.5 4.3-.6 1-2.5 1.8-3.6 2.2-4.9 1.8-10.6 2.1-15.8 2.2-4.6.1-9.8.1-14.1-1.8-1.3-.6-2.8-1.3-3.6-2.5-1.2-1.7-.5-4.9 1.2-6 .9-.6 2.1-.8 3.1-1.2v.5c0 .7.2 1.8 0 2.5.4-1.2.8-2.5 1.2-3.7 0 0 .1 0 .1-.1.3-.2.4-.6.3-.9 2.9-7.6 7.2-14.6 12.5-20.7 0 .2.1.5 0 .6.2-.2.4-.3.6-.4-.1 3.7-.2 7.3-.3 11-.1 2.6-.1 5.1-.1 7.7h-2.1c-3.1 0-6.2.1-9.2.2-.1 0 0 5 0 5 3.1 0 6.2-.1 9.2-.2h2.4c.1 1.1.3 2.1.5 3.2-.2-1 0-2.1 0-3.1 1.8 0 3.5.3 5.2 1-.1-.1 0-2.3 0-2.5v-2.5c-1.8-.8-3.7-1-5.7-1-.1-.9-.2-1.9-.2-2.8v-1.8c0-1 .1-2 .1-2.9.1-3.8.2-7.5.3-11.3.8-.3 1.4-.2 1.9.1zm62.1-19.4-.2-.2c-.2-.2-.5 0-.3.3.1.1.1.2.2.3-.7.8-1.4 1.4-2.3 2-2 1.1-4.5.7-6.5-.2-1.1-.4-2.2-1-3.2-1.7.1-.2-.1-.5-.3-.3-.1 0-.1-.1-.2-.2-.6-.6-1-1.3-1.4-2.1.6-1.8 1.4-3.5 2.4-5.1.7-1.1 1.5-2.2 2.4-3.2.3-.3 1.4-1.7 2.2-1.9v.9-1c.2 0 .4 0 .5.2v-.9c1-.2 2 .5 2.7 1.2 1.1 1 2 2.3 2.8 3.6.8 1.3 1.4 2.7 1.8 4.1.2.7.4 1.5.6 2.2-.3.8-.7 1.4-1.2 2zm65.9 25.1c1.7 1.6 3 3.4 4.1 5.4.1.2.2.4.3.5.5.9 1 1.7 1.5 2.6-.9.4-1.9.8-2.8 1.2-2.4 1-5 1.8-7.6 2.1 0-2.2-.1-4.4-.2-6.6-.2-3.2-.4-6.5-.7-9.7 1.8 1.5 3.7 2.8 5.4 4.5zm-6-5.4c.1 1.2.3 2.5.4 3.8v1.4c.1 1 .2 1.9.2 2.9v.2c.1.8.1 1.7.2 2.5 0 .5.1.9.1 1.4 0 .4.1.8.1 1.2v.2c.1 1.3.1 2.5.2 3.8l-.1-.1v.1h-.4c.1-.5.1-1 0-1.1-.5-.3-1.1-.5-1.6-.7-.1-.1-.1-.3-.2-.4-.1-.3-.3-.7-.4-1v-.1c-.1-.3-.2-.5-.3-.8-.1-.3-.2-.7-.3-1-.1-.3-.2-.7-.2-1-.1-.3-.1-.5-.2-.8-.4-2.1-.6-4.2-.6-6.3 1-1.5 2-2.9 3.1-4.2zm-.7 18.3c-1.2-.1-2.5-.4-3.8-.5 1.2-.1 2.5-.1 3.6.3.2 0 .2.1.2.2zm-9.6-1.3c.2-.6.5-1.1.8-1.7.2-.4.4-.8.5-1.2.1-.3.3-.6.4-.8l.6-1.2c.3-.7.7-1.3 1-2 .1-.1.1-.2.2-.3l.9-1.5.3-.6c.3-.4.5-.9.8-1.3.5-.8 1-1.6 1.5-2.3v2.5c0 .4 0 .8.1 1.2 0 .4 0 .7.1 1.1v.2c0 .2 0 .5.1.7 0 .3.1.7.1 1v.2c.1.4.1.9.2 1.3 0 .2.1.5.1.8.1.3.1.6.2.9l.3 1.2c-2.5-.4-5.1.3-7.5 1.3-.1.3-.4.4-.7.5zm29.2 13.5c-3.9 1.1-7.9 1.7-12 2-6.5.5-14.1.8-20.2-2.1-2.3-1.1-4.7-3-5.8-5.3 0 0 0-.1.1-.1.5-.6 1.2-1.1 1.9-1.4 1.4-.7 3-1.3 4.6-1.2v.3c0-.1.1-.2.1-.2.1 0 .3 0 .4.1-.1 0-.1-.5-.1-1.1.2-.4.3-.9.5-1.3.6-.3 1.2-.5 1.8-.8h.1v1.4c0 .2.1 2.5 0 2.5 3.5-1.2 7.2.2 10.8.3h.3v3.4c.1-1.1 0-2.3 0-3.4 3.4 0 6.9-.6 10.1.8-.1-.1 0-2.3 0-2.5 0-.2.2-2.4 0-2.5-1.4-.6-2.9-.8-4.4-.9.7-.3 1.4-.5 2.1-.8 1.2-.5 2.4-1 3.5-1.6 1.1 2 2.2 4.1 3.4 6.1 0 .5 0 .8.1.9.2.1.4.2.5.3.5.9 1 1.8 1.4 2.6v-1.7l4.2 2.4c.8.4 1.6.9 2.3 1.4-1.3 1.3-4 1.9-5.7 2.4z"/>
    <path class="st3" d="M146.7 250.3c-1.2-.1-2.5-.4-3.8-.5 1.2-.1 2.5-.1 3.6.3.2 0 .2.1.2.2zM145.6 247.4c-2.5-.4-5.1.3-7.5 1.3-.3.1-.6.2-.9.4.2-.6.5-1.1.8-1.7.2-.4.4-.8.5-1.2.1-.3.3-.6.4-.8l.6-1.2c.7-.2 2.7-.6 5.2-1 .1.4.1.9.2 1.3 0 .2.1.5.1.8.1.3.1.6.2.9.1.4.3.7.4 1.2zM148.6 249.3h-.4c.1-.5.1-1 0-1.1-.5-.3-1.1-.5-1.6-.7-.1-.1-.1-.3-.2-.4-.1-.3-.3-.7-.4-1v-.1c-.1-.3-.2-.5-.3-.8-.1-.3-.2-.7-.3-1-.1-.3-.2-.7-.2-1 1-.2 2.1-.3 3.2-.4 0 .5.1.9.1 1.4 0 .4.1.8.1 1.2V249.3c.1 0 .1 0 0 0zM159.2 245.9c-.9.4-1.9.8-2.8 1.2-2.4 1-5 1.8-7.6 2.1 0-2.2-.1-4.4-.2-6.6 3.1-.3 6.4-.4 8.9.1.1.2.2.4.3.5.5 1 1 1.9 1.4 2.7z"/>
    <path d="M258.2 166.7c0 .1 0 .2-.1.3.1-.1.1-.2.1-.3zM226.3 295.6v.5h-.1c0-.2.1-.4.1-.5zM226.4 296h-.1.1zM226.4 296h-.1.1z"/>
    <path class="st4" d="M145.8 229c-.4.5-.8 1-1.1 1.5v-.3l.3-1.8c.4.2.6.4.8.6z"/>
    <path d="M144.7 228.1c-.1.9-.2 1.9-.3 2.8.1-.1.2-.3.3-.4v-.3l.3-1.8c0-.1-.2-.2-.3-.3z"/>
    <path class="st4" d="M172.3 260c-1.6 1.4-4.3 2-6 2.5-3.9 1.1-7.9 1.7-12 2-6.5.5-14.1.8-20.2-2.1-2.3-1.1-4.7-3-5.8-5.3 0 0 0-.1.1-.1.5-.6 1.2-1.1 1.9-1.4 1.4-.7 3-1.3 4.6-1.2v.3c0-.1.1-.2.1-.2.1 0 .3 0 .4.1-.1 0-.1-.5-.1-1.1.2-.4.3-.9.5-1.3.6-.3 1.2-.5 1.8-.8h.1v1.4c0 .2.1 2.5 0 2.5 3.5-1.2 7.2.2 10.8.3h.3v3.4c.1-1.1 0-2.3 0-3.4 3.4 0 6.9-.6 10.1.8-.1-.1 0-2.3 0-2.5 0-.2.2-2.4 0-2.5-1.4-.6-2.9-.8-4.4-.9.7-.3 1.4-.5 2.1-.8 1.2-.5 2.4-1 3.5-1.6 1.1 2 2.2 4.1 3.4 6.1 0 .5 0 .8.1.9.2.1.4.2.5.3.5.9 1 1.8 1.4 2.6v-1.7l4.2 2.4c1.1.3 1.9.7 2.6 1.3z"/>
    <path class="st4" d="M146.7 250.3c-1.2-.1-2.5-.4-3.8-.5 1.2-.1 2.5-.1 3.6.3.2 0 .2.1.2.2z"/>
    <path d="M325.9 315.6c-4.6-8.1-13.1-13.9-21.6-17.3-.4-.2-.9-.3-1.3-.5.4-3.2.7-6.5.8-9.7-.3 3.2-.7 6.5-1.1 9.6-14.2-5.3-29.2-4.6-43.9-1.7 1.3-16.1 2.5-32.1 3.7-48.2 17.4-3.3 37.3 9 40.9 26.7.3 1.7.5 3.3.7 5-.1-5.1-.8-9.9-3-14.5-4.4-9.1-13.2-15.9-22.8-18.7-5-1.5-10.3-1.9-15.5-1 .5-6.2.9-12.4 1.4-18.5.8-10.9 1.6-21.5-.2-32.4-1.5-9.2-3.5-18.5-5.7-27.6 0 .1 0 .2-.1.3 0-.1 0-.2.1-.3-.2-.7-.3-1.4-.5-2.1.2.4.4.8.5 1.2.1.1.1.2.2.4.1-.2.1-.5.1-.7.6-3 .7-6.1.6-9.2 0-3.6-.6-7.1-2-10.4-1.2-3-3.1-5.9-5.3-8.3-1.2-1.2-2.4-2.4-3.8-3.3-.4-.3-1-.6-1.5-.9 2.4-2.5 4.8-5 7.1-7.5.1-.2 0-1.7 0-1.9 0-.2-.1-1.9 0-1.9-3.7 1.2-6.3-2.4-8.2-4.9-1.4-1.9-2.8-3.9-3.7-6.1l3-2.7c1 .8 2 1.6 2.9 2.5 4.3 3.8 8.2 7.9 12 12.2 4.5 5.1 9 10.3 13.6 15.4-.2-.2.2-1 0-1.2-7.2-8.2-14.1-16.7-21.9-24.2-1.9-1.8-3.8-3.6-5.9-5.3l.6-.6 2.8-2.8c4.4 2.9 8.8 6 13.1 9.1-.2-.1.2-1.1 0-1.2-4.1-3-8.2-5.8-12.4-8.6 1.4-1.5 2.6-3.2 3.1-5 9.5 5.1 18.1 11.7 26.9 17.9 5.2 3.6 10.4 7.2 15.9 10.2-.2-.1.2-1.2 0-1.2-9.9-5.5-18.8-12.5-28.1-18.9-4.6-3.2-9.2-6.3-14.1-8.9-.1 0-.2-.1-.3-.1v-.4c.2-1.9.3-4.4-.4-6.3 0 0 .1 0 .2.1v-.8c.8-.4 1.5-.7 2.1-1.3.6-.6.9-1.4 1-2.2v-.1c.1-.9 0-2 0-2.9v-.7.1c0-.5-.2-1-.5-1.5-.4-.6-.7-1-1-1.5 0-.1 0-.2.1-.3.2-.6.4-1.3.6-1.9.4-1.3.9-2.6 1.5-3.9.6-1.3 1.2-2.5 2-3.7.7-1.1 1.6-2.2 2.2-3.3.3-.5.4-1 .4-1.5v-1.2c0-1.1.2-2.3-.2-3.3-.2-.8-.7-1.4-1.1-2.1-.1-.2-.2-.3-.3-.5-.2-.2-.3-.5-.5-.7l-.6-1.2v-.1c.2-.8.3-1.5.5-2.3v-.5c.1.6.2 1.2.4 1.8v-1.8c0-.6.1-1.3 0-1.9-.8-3.5-1.3-7-1.6-10.5v1.8c.1.7 0 1.4 0 2.1.1 1.5.3 3 .5 4.5-.1 0-.1 0-.2-.1-.7-1.8-2.4-3.1-4.2-3.8-1.1-.4-2.2-.7-3.3-1-.7-.2-1.5-.3-2.2-.3.2-.7.4-1.3.5-2 .1-.4.1-.8.2-1.3V38c0-.9-.1-1.8-.8-2.6v1.7c-.5 2-1.8 3.7-3.1 5.2-1.5 1.7-3.7 4.5-6.3 3.6V46.2c0 .5-.1 1.4-.1 1.5v1.8c2.7.9 4.9-2 6.5-3.7 1.6-1.8 3.1-3.9 3.3-6.5v-.1c.1.1.1.2.2.3 0 .1 0 .1-.1.2-.4 1.6-.9 3.2-1.3 4.8-.1 0-.2 0-.2.1-.1.1 0 1.7 0 1.9v1.8h.1c.1 0 .1 0 .2-.1 1-.4 2.1-.1 3.2.1 1.1.3 2.3.6 3.4 1 .2.1.5.2.7.3-1.2.2-2.4.4-3.5.5-.1 0 0 1.7 0 1.9v1.9c1.5-.2 2.9-.5 4.4-.7.8-.1 1.8-.4 2.6-.2 0 .1.1.3.2.4V53h.1c0 .1 0 .2-.1.4-.1.3-.1.5-.2.8 0 .1-.1.3-.1.4v-.1c0-.2-.1-.4-.1-.7 0-.3-.1-.6-.1-.8v3.7c-.4 0-.9-.1-1.3-.1-.4-.1-.8-.2-1.2-.2v.1c-28.8-2.9-57.8-5.6-86.6-3-8 .7-16 1.9-23.9 3.5 0-.8 0-1.6-.1-2.4l3.6 1.5v-3.6c-1.3-.6-2.5-1.1-3.8-1.6.7-.5 1.6-.8 2.5-1 2.2-.4 4.4.2 6.1 1.6V50c.5.3 1 .4 1.6.3.1 0 0-1.7 0-1.9 0-.1-.1-1.9 0-1.9-1 .3-1.9-.3-2.5-1.1-.2-.2-.3-.5-.4-.8.6-1.8 1.8-3.4 3.1-4.8V43.7c0 .8.2 1.7.5 2.5.6 1.6 1.8 3 3.2 4 .3.2.8.6 1.2.6.4 0 .5-.1.5-.4v.1V48c-.1-.2-.1-.5 0-.7v-.5c0-.1-.1-.2-.2-.3v.6c-.6.1-2.3-1.2-2.6-1.5-.9-.8-1.6-1.9-2.1-3-.1-.3-.2-.7-.3-1.1.3-1.2.9-2.4 1.7-3.4v-3.2c0-.1-.1-.5 0-.5-.5.7-.9 1.3-1.2 2.1V36c0-.1-.1-.5 0-.5-1.9 2.1-4 4.4-4.1 7.4V46.7c-1.4-.6-3-.8-4.5-.5-1.5.3-2.8 1-3.8 2.1-.2-.7-.4-1.4-.5-2.1-.1-.4-.1-.8-.1-1.1v-.3c.2-2.2.6-4.4 1.1-6.5 1.1-4.6 2.1-9.3 3.3-13.9 1.2-4.4 2.3-8.9 4.1-13.1.8-2 1.9-4 3.2-5.7.5-.6 1.5-1.4 2.3-1.5 1 .5 1.8 1.2 2.6 1.9 0 .3 0 .5.1.6 2 2.7 2.8 5.9 3.5 9.2.7 3.5 1.2 7 1.4 10.6.1 1.8 0 2.8-.1 4.8-.1 1.8-.3 3.6-.6 5.4 0 .2-.1.4-.1.7-.5 3.2-1.3 6.4-2.3 9.6-.4 1.1.3 2.5 0 3.6 2.5-7.9 3.3-15.9 3.2-24.2 0-4-.3-8-1-11.9-.3-1.6-.6-3.2-1-4.8.1.1.2.2.3.4l6.3 7.7c4.2 5.1 8.4 10.2 12.5 15.3 0-1-.4-3.1-.1-3.2.1 0 .2-.1.3-.1 0-.1 0-.2-.1-.3-4.2-5.1-8.4-10.3-12.7-15.4-2.1-2.5-4.1-5-6.2-7.5-1.5-1.8-2.9-3.7-4.8-5.1 0-.1 0-.2-.1-.2-.3-.4-.7-.6-1.1-.6-.1-.1-.2-.1-.3-.2v.2c-.6.1-1.2.5-1.7 1-1.3 1.3-2.2 3.1-3 4.8-1.7 3.6-2.8 7.5-3.9 11.4-1.2 4.1-2.2 8.3-3.2 12.5-.9 3.8-1.9 7.6-2.2 11.5-.2 2.4-.3 5.1 0 7.6-.2.3-.4.7-.6 1 0 .1 0 .1-.1.1 0 .1-.1.2-.1.3v3.1c0 .1.1.4 0 .5.1-.1.1-.3.2-.4.2.1.5.1.7.2.6.6 1.1 1.4 1.4 2.2.2.3.3.7.4 1.1-.3.1-.6.1-.9.2-.1 0-.1.5-.1 1-.6.1-1.1.3-1.5.7-.1.1-.2.3-.2.4v1.4c-.1-.2-.2-.3-.3-.5.2.3 0 1.5 0 1.9 0 .5-.2 1.5 0 1.9 1.6 2.7 3.1 5.6 4.3 8.5.6 1.5 1.2 3 1.6 4.5.1.3.1.6.2.9 0 .1 0 .3-.1.4-.1.4-.3.8-.5 1.2-.6 1.4-1.5 2.6-2 4-.2.7-.3 1.4-.3 2.2v1.7c0 1.1-.2 2.5.4 3.5.5.8 1.3 1.4 2.2 1.5v.1c.6 1.4 1.2 2.8 1.9 4.2-14.6 7.4-28.2 16.6-40.5 27.3-5.5 4.8-10.8 9.9-15.7 15.3-.2.2.2 1 0 1.2 16.1-17.6 35.4-32.2 56.7-42.9.5 1 1.1 2 1.6 3-8.4 6.3-16.2 13.4-23.5 21-3.8 4-7.5 8.2-11 12.5-.2.2.2 1 0 1.2 10.2-12.7 22-24.1 35-33.9.3.4.5.9.8 1.3-4.1 3.9-7.9 8.1-11.5 12.4-2.6 3.2-5.1 6.6-7.4 10-.2.3.2 1 0 1.2 5.6-8.3 12.1-16 19.4-22.9 3.2 4.9 7 9.3 11.3 13.2-.6 1.6-1.5 3.2-2.5 4.5-1.6 2.2-3.4 4.5-5.5 6.3-1.9 1.6-4.1 2.8-6.6 2.8-2.2 0-4.3-1-5.4-2.9.2.3 0 1.5 0 1.9 0 .5-.2 1.5 0 1.9.5 1 1.4 1.7 2.3 2.2v.4c1.8 1.9 3.9 3.3 6.2 4.4-2.4 1.5-4.8 3.4-6.7 5.4-2 2-3.5 4.5-3.8 7.3-.2 1.5-.1 3.1-.1 4.6 0 1.3.3 2.4.9 3.5v-.3l.1.1v-.8c.1-.2.4-.5.5-.7.3-.4.6-.8.9-1.1.4-.4.7-.8 1.1-1.2v4.3c-8.3 0-16.4-1.9-24.4-4-4.1-1.1-8.3-2.3-12.4-3.3-4.3-1.1-8.8-2.1-13.2-1.3 0 0-.1.1-.1.3-2.2-.1-4.3.5-6.1 1.8-2 1.4-3.4 3.3-4.8 5.3-3 4.2-5.6 8.6-7.8 13.3-.2.4 0 1.4 0 1.9s.2 1.4 0 1.9c.1-.1.1-.2.2-.4.8 1.4 2.2 2.5 3.9 2.6.7 0 1.3 0 1.9-.2.1 0 .2 0 .3-.1 1-.3 1.8-.7 2.7-1.2h.1c.3.2.7.5 1 .7 3.2 1.8 7.3 2 10.7.5h.1c.3-.2.6-.3 1-.5v-.2c.1 0 .1 0 .2.1-.1 0-.1.1-.2.1 0 .2.1.4 0 .5.1-.3.2-.4.5-.5.2-.1.3-.1.5-.1.6-.1 1.2-.3 1.8-.4.3-.1.5-.1.8-.2.5-.1 1.1-.3 1.6-.4 0 .2 0 .5.1.6 4.7 6.9 11.1 12.3 17.3 17.9 3.4 3.1 6.8 6.1 10.2 9.2 3 2.7 6 5.6 9.3 7.9.8.6 3.8 2.5 6.3 3.3 0 .2.1.4.1.6v.2c-.1.5-.2 1.1-.3 1.6-.2 1.1-.5 2.1-.8 3.2-.5 2.1-1 4.3-1.3 6.4.1 0 .3.1.4.1.5-2.3 1.1-4.7 1.6-7 .4-1.6.6-3.4.5-5.1 1.6.4 2.9.3 3.2-1 .3-1.2-.3-2.6 0-3.8-.8 3.2-7.3-.6-8.6-1.5-3.3-2.1-6.2-4.9-9.2-7.5-6.6-5.9-13.3-11.7-19.7-17.8-2.6-2.5-5-5-7.2-7.8 2-.6 4-1.2 5.9-1.9.1-.1 0-1.7 0-1.9 0-.2-.1-1.8 0-1.9-2.3.8-4.6 1.6-6.9 2.2-1.1.3-2.2.6-3.4.9-.6.1-1.1.3-1.7.4-.2 0-.4.1-.6.2v-.3c-.1.1-.2.1-.3.2-.1 0-.1-.1-.2-.1v.2c-.3.2-.7.4-1.1.6-.3-.5-.5-1.1-.7-1.7.1-.5.3-1 .5-1.4v-3.1c0-.1-.1-.4 0-.5-.6 1.1-.8 2.4-.8 3.6-.1 0-.1 3.2 0 3.2v.4c-3.4 1.2-7.3.8-10.3-1.2v-.6c-.2.1-.3.2-.5.3v-.1c.3-1 .9-2 1.5-2.8v-3.2c0-.1-.1-.5 0-.5-.9 1.1-1.5 2.4-1.8 3.8-.1.7-.2 1.4-.2 2.1v1.1c-1.4.7-2.9 1.4-4.5 1.2-1-.1-2-.5-2.7-1.2 1.9-3.7 4-7.3 6.5-10.7 1.4-1.9 2.8-3.8 4.7-5.2 2-1.5 4.5-2.1 7-1.8v-.5c4.2-.5 8.4.4 12.5 1.4 4.2 1 8.3 2.2 12.4 3.3 8.3 2.2 16.7 4.1 25.4 4v-.1c.1.2.3.5.4.7 1.1 1.6 2.6 2.9 4.3 3.7-.1 0 0-.6 0-1.1 4.4-2.1 9.3-3 14.2-2.5v.7c.1.5.2 1 .3 1.6.1.5.2.9.3 1.4v.2c.1.4.2.9.3 1.3.2.6.3 1.2.5 1.8.1.5.3.9.5 1.4.1.2.1.3.2.5.2.5.3 1 .5 1.5 0 .1.1.2.1.3.2.5.4.9.6 1.4 0 .1.1.3.2.4.2.5.5 1 .7 1.5 0 .1.1.2.1.3.3.6.6 1.1.9 1.7.2.3.3.6.5.9.1.3.3.5.5.8.7 1.1 1.4 2.2 2.2 3.3l.9 1.2c.3.4.6.8 1 1.2.4.4.7.8 1.1 1.2.3.4.7.7 1 1.1.6.7 1.3 1.3 1.9 1.9l.3.3c.4.3.8.7 1.2 1 .8.7 1.6 1.3 2.5 1.9.3.3.7.5 1 .8.1 0 .2.1.2.1.4.3.9.6 1.3.9.4.3.9.5 1.3.8.4.2.8.4 1.2.7.6.3 1.1.6 1.7.9.4.2.9.4 1.3.6.8.4 1.6.7 2.5 1 .3.1.5.2.8.3.4.1.8.3 1.2.4 3.6 1.2 7.3 1.9 11 2.2h.9-.1c1 2.6 2 5.2 2.9 7.8.3.8.5 1.6.8 2.4.2.7.5 1.4.7 2.1.1.2.1.4.2.5.2.5.3 1 .4 1.4.6 2 1.1 3.9 1.6 5.9.2.7.4 1.5.5 2.2 0 .1 0 .2.1.2.1.4.2.9.3 1.3v.2c.2.8.4 1.6.6 2.5v.2c.1.4.2.8.2 1.1.2.9.3 1.7.5 2.5.1.3.1.5.1.8.2 1.2.5 2.5.7 3.7.1.9.3 1.8.4 2.7.2 1.1.3 2.2.5 3.3.1.4.1.8.1 1.2l.6 5.4c0 .4.1.8.1 1.2.1 1 .2 2 .2 3v.6c.1 1 .1 2.1.2 3.1-1.2.9-2.2 2.1-3.1 3.2-1.1 1.3-2.5 2.9-2.9 4.6-.1.3.3.5.5.3.2-.1.3-.2.5-.4h.1c.8 0 1.6-.7 2.5-.8.9-.2 1.8 0 2.7.1.1 9.3-.5 18.7-1.8 28v.5c-.9.6-1.8 1.3-2.5 2-.3.3-.5.6-.8.9-.2.3-.4.5-.6.8l-.9 1.2-.6.9c-.2.4-.4.8-.7 1.2-.2.3-.3.6-.4.8-.3.6-.6 1.3-.9 1.9-.2.5-.5 1.1-.7 1.6-.1.3-.2.5-.4.8-.2.4 0 1.4 0 1.9v.5h.1l-.1.3v-.7c-5.9 1.7-11.8 3.2-17.7 4.8.1-.5.2-1 .3-1.6.1-.2.1-.5.1-.7.1-.5.2-1.1.3-1.6.1-.5.2-1 .2-1.5.1-.6.2-1.1.2-1.7 0-.3.1-.7.1-1 0-.5.1-.9.1-1.4.1-.7.1-1.4.1-2.1.1-1.2.1-2.5.1-3.7 0-1.8-.1-3.6-.2-5.4-.5-7.9-2.7-15.7-7.5-22.1-1.1-1.5-2.3-2.9-3.6-4.1v-.5c-.3-9.2-8-15.1-15.8-18.4 1.4-2.3 2.4-4.8 3-7.5.5-2 .6-4.2.6-6.3 0-.4.1-.9.1-1.3v-2.2c0 .5 0 1-.1 1.5v-1 1.4c-.6 4.4-3 8.5-6.8 10.8-.6.4-1.2.7-1.7 1 2.4-8.8 4.4-17.8 6-26.8.8-4.7 1.7-9.5 2.1-14.3.1-1.8.4-4.6-.6-6.4v-1.2c-.1.1-.3.2-.4.3-.1 0-.1.1-.2.1-.2-.2-.5-.4-.9-.6.1.1.1.7 0 1.3-2.4 1.8-4.7 3.6-7.1 5.4-1.4 1.1-2.8 2.2-4.2 3.2-1.2.9-2.5 1.9-3.9 2.4-.1 0 0 1.7 0 1.9 0 .2.1 1.8 0 1.9 1.4-.5 2.6-1.4 3.8-2.3 1.5-1.1 2.9-2.2 4.3-3.3 2.8-2.2 5.7-4.4 8.5-6.6.1.2.2.5.3.8 0 .2.1.9.2 1.1v.2c-.1.6-.1 1.1-.2 1.7-.1 1-.3 2.1-.4 3.1-.6 4.3-1.3 8.6-2.1 12.9-1.6 8.5-3.6 17-6 25.3v-1.3 1.7s-.1 0-.1.1.1.1.1.2v.1l.3.6c.2.4.4.7.6 1 .8-.4 1.5-.9 2.2-1.3 3.1-2.1 5-5.3 5.8-8.8-.2 1.2-.5 2.3-.8 3.4-.7 2.4-1.8 4.6-3.2 6.7-.1.1-.1.5 0 .8-.2-.1-.3-.1-.5-.2.3.1-.3 2.4 0 2.5 7.1 2.8 14.6 7.6 16.6 15.2-.4-.7-1.3-1.2-2.1-1.4v.8l-.1-.1v-.8c-1.5-1.2-2.9-2.4-4.4-3.5v2.6c.6.5 1.2.9 1.8 1.4-.1.5-.1.9 0 1 7 4.6 12.1 11.5 14.5 19.5 1.4 4.5 2 9.2 2 13.9v1.9c0 .5 0 .9-.1 1.4v.1c0 .2 0 .5-.1.7 0 .5-.1 1.1-.1 1.6-.1.6-.2 1.3-.2 1.9-.1.5-.1.9-.2 1.4 0 .1 0 .3-.1.4-.1.7-.3 1.5-.4 2.2l-.3 1.5c0 .1-.1.3-.1.4-.1.6-.3 1.2-.5 1.7v.3c-6 1.5-12.1 3-18.2 4.4-11.4 2.5-22.8 4.8-34.4 6.3-4.6.6-9.5 1-14.2.5v-.8c-9.4-8.4-13.4-20.9-14.4-33.1-.6-7.2-.1-14.4 3.1-21 2.2-4.4 5.3-8.2 9.2-11.2.2-.1.3-.1.5-.2 0 0 .1-.1.1-.3 1-.8 2.1-1.5 3.2-2.2.2-.1.4-.3.7-.4 0-.8 0-1.7.1-2.6-.1 0-.1.1-.2.1-1.5.9-3 1.8-4.4 2.9-18.1 5.8-34.5 16.8-46.8 31.4-6.4 7.7-12.6 16.6-14.7 26.5-1.8 8.5-.9 18.6 5.1 25.4 6.5 7.2 16.6 9.7 25.5 12.1 11 2.9 22.1 5.1 33.3 6.8 22.5 3.4 45.2 4.4 67.9 3.7 22.8-.8 45.6-3.3 68.1-7.3 11.2-2 22.4-4.3 33.5-6.9 8.6-2 18.1-3.9 25.2-9.7 3.4-2.8 6.2-6.6 7-11 1.7-3.9 1.3-8.3-.7-11.9zm-82.5-209.7c-.1.1-.2.2-.3.2-5.1-4.1-10.5-7.8-15.9-11.4-2.3-1.6-4.7-3.2-7-4.8-1.2-.8-2.3-1.6-3.5-2.4-.5-.4-1.2-.7-1.6-1.2h1.3c0 .3-.1.7 0 .7.5.2.9.5 1.2 1-.1-.2 0-.5 0-.7 7.9 2.3 15 7.1 21.9 11.4 2.3 1.4 4.6 2.9 6.9 4.4-1 .9-2 1.9-3 2.8zm3.8-3.6c-2.5-1.7-5.1-3.3-7.7-4.9-5.6-3.5-11.4-7.3-17.7-9.9 4.2 1.5 8.5 2.7 12.7 4 5.6 1.7 11.1 3.7 16.4 6.4-1.1 1.6-2.4 3-3.7 4.4zm5.3-7.5c0 .2-.1.3-.1.5-.2.6-.5 1.2-.8 1.8-4.7-2.5-9.7-4.4-14.8-6-4.8-1.5-9.7-2.8-14.5-4.5 2.9.1 5.9.3 8.8.5 6 .4 12.6.6 18.4 2.7-.1.6-.2 1.5 0 1.9 0 .3.2.3.4 0 0 .2 0 .3.1.4 1.2.3 2.1 1.4 2.5 2.7zM145 87.3c.7-1.9 2-3.5 2.4-5.5.4-2 .3-4.4.1-6.4-.3-2.6-1.4-5.2-2.4-7.5-.8-1.8-1.6-3.5-2.6-5.1v-.4c.5-.2 1.1-.2 1.6-.3V61c0 .2-.1.6.1.7.2.1.3 0 .3-.2v-.6c29-6 58.9-5.1 88.3-2.6 7.8.7 15.6 1.4 23.3 2.2.5.1.9.3 1.3.5s.8.4 1.1.7c.2.1.3.2.5.4l.1.1c0 .1-.1.4 0 .5.1.1.1.1.2 0 0 0 0-.1.1-.1.2.3.4.6.6 1-.2.4-.5.8-.8 1.2-.7 1-1.4 2.1-2 3.2-1.2 2.2-2.2 4.5-2.9 6.9-.5 1.5-.7 2.9-.8 4.3V79v.3c0 .1-.1 1.7 0 2.1 0 .9-.1 1.8.3 2.6.2.4.5.8.7 1.1-.5.5-1.1.9-1.7 1.2-.4.2-.9.4-1.3.6-5.6-2.6-12-2.9-18.1-3.4-6.9-.5-13.8-.8-20.7-.9H206.3c-1.4 0-2.8.1-4.2.1h-1.6l-6.9.3c-2.8.2-5.7.4-8.5.6-.9.1-1.9.2-2.8.3-.8.1-1.5.2-2.3.2-.6.1-1.2.1-1.8.2-.8.1-1.6.2-2.3.3-1.6.2-3.3.4-4.9.6-7.7 1.1-15.4 2.4-23 4.1 0-.2 0-.4.1-.4-1.5.2-2.6-.5-3.1-1.6zm3.8 5.4c5.2-1.1 10.5-2.1 15.7-2.9-4.8 1.9-9.4 4-14 6.3-.5-1.1-1.1-2.2-1.7-3.4zm3.9 7c-.5-.9-1.1-1.7-1.6-2.6 1.5-.7 3-1.5 4.5-2.2 3.5-1.6 7.1-3.2 10.8-4.6-4.7 3-9.3 6.1-13.7 9.4zm.5.8c2.1-1.5 4.1-3 6.2-4.4 1.5-1 3.1-2.1 4.6-3-3.5 2.7-6.9 5.5-10.2 8.6-.1-.4-.3-.8-.6-1.2zm1.3 1.9c2.9-2.7 5.9-5.2 9-7.7 2.7-2.1 5.4-4.1 8.3-5.9 7.2-1 14.5-1.7 21.8-2.1 1.6.7 2.4 2.3 3.1 3.8.5 1 .9 2.1 1.3 3.1.2.5.4 1 .5 1.5.1.2.1.4.2.6v.8c.1.7.2 1.5.3 2.2h-.6c-8 .5-17-.4-24.8 1.9-.3.1-.3.7.1.6 8.4-1 17-1.1 25.5-1.2 0 .2.1.5.1.8v-.8c9.1-.2 18.1-.4 27-2 .5-.1.4-.9-.1-.9-8.9-.3-18 1-26.9 1.6v-1.6c0-.4-.1-.8-.2-1.1.2-.3.3-.8.5-1.2.2-.5.4-1 .6-1.4.4-1 .9-2 1.4-2.9.9-1.6 2.2-3 3.8-3.7 0 0 .1-.2.1-.4 2.9-.1 5.8-.1 8.8 0 .1.3.2.6.3.8.6.9 1.7 1.5 2.6 2 1.2.8 2.3 1.6 3.5 2.4 4.5 3.1 9.2 6.2 13.7 9.3 2.7 1.9 5.4 3.9 8 5.9-.5.5-1.1.9-1.6 1.4-4 3.4-8.2 6.4-12.8 8.8 0-.3-.1-.8 0-.9-.6.6-1.3 1.2-1.9 1.8-.5.3-1 .5-1.6.8-.1 0-.1.3-.1.6-10.3 8.3-24.1 11.4-37.1 8.1-3.6-.9-7-2.3-10.2-4.1 0-.5 0-1.1-.1-1.2-4.4-2.3-8.5-5.2-12.2-8.4-3.8-3.3-7.3-7.1-10.3-11.3zm54.1 98.4h-.9c-.2 0-.5-.1-.8-.2 0 0 .1 0 .1.1-15.7-1.4-29.9-10.9-36.9-25.2-1.8-3.6-3.1-7.5-3.9-11.5.6 0 1.1.1 1.7.2V163c-.8-.2-1.4-.7-1.9-1.3-.2-.3-.4-.7-.6-1-.1-.2-.1-.4-.2-.6v-.8.3c0 .6 0 1.2.1 1.8.1.4.3.9.5 1.2l.1.1c-4.9-.4-9.8.4-14.2 2.5 0-.5.1-1.3 0-1.4-2.6-1.2-4.7-3.5-5.4-6.3 0-.1 0-.2.1-.3.2-.7.5-1.4.9-2 .8-1.3 2-2.2 3.5-2.7v-.5c.6-.3 1.3-.5 2-.8.1 0 0-1.7 0-1.9 0-.2-.1-1.8 0-1.9-2.4.8-4.6 2-6.5 3.7-.9.8-1.8 1.7-2.5 2.7-.2.2-.4.5-.5.7 0 .2-.1.3-.1.5-.3-.6-.4-1.1-.6-1.7.1-.5.2-.9.4-1.3.7-2 2-3.6 3.5-5.1 1.5-1.5 3.2-2.7 4.8-3.9.8-.6 1.7-1.2 2.6-1.7.5-.2 1.9-1 2.4-.5v.3l.1-.1v-.1c0-.1 0-.1.1-.2V139.3c.4.1.9.2 1.3.3v-1.9c0-.2.1-1.9 0-1.9-2-.3-4-1-5.8-1.9 1.9-.5 3.7-1.7 5.1-3.1 2-1.9 3.9-4.2 5.4-6.5 1.4-2.2 2.3-4.4 2.4-7 3.7 3.2 7.8 6.1 12.2 8.4v-.1c12.6 7 28.2 7.2 41 .3 2.3-1.2 4.4-2.7 6.5-4.3v.7c5.9-2.7 11.4-6.3 16.3-10.5.5 3.5 2.5 6.4 4.6 9.1 1.3 1.7 2.9 3.8 4.9 4.7-1.8 1.9-3.7 3.9-5.6 5.8-.5.6-1.1 1.1-1.7 1.7v3.2c0 .1.1.5 0 .5.6-.5 1.1-1.1 1.7-1.7.3 1.2 1.8 1.7 2.7 2.4 1.1.7 2.1 1.6 3 2.4 2 1.9 3.8 4.1 5.2 6.5 1.5 2.6 2.5 5.4 3 8.3.2.8.3 1.6.4 2.4v1.2c-.1 1.3-.3 2.7-.6 4-2.4-6.4-8.9-10.4-15.7-9.4-.2 0 .2 3.7 0 3.8h.3c-2.9 14.9-11.4 28.5-23.3 37.9-1.8 1.4-3.6 2.7-5.6 3.9-1.8 1-3.7 2.2-5.6 2.3zm9.2 64c-.3.1-.8.2-1.2.4.6-.8 1.2-1.7 1.8-2.4.7-.8 1.4-1.4 2.1-2.1.1 1.4.1 2.8.1 4.3-.9-.4-1.9-.4-2.8-.2zm-6.4-62.3c.6-.3 1.2-.6 1.8-1 1.7-1 3.4-2.1 5-3.3 3.3-2.4 6.3-5.2 9.1-8.2 5.5-6 9.9-13.1 12.8-20.8 1.5-4 2.6-8.2 3.2-12.4 4.9-.5 9.5 1.6 12.5 5.2 1.8 10.4 4.3 20.6 6.2 31 2.2 12 1.2 23.7.3 35.8-1.8 22.6-3.7 45.1-5.4 67.7-2.2.5-4.5 1-6.7 1.5 0-.4 0-.8-.1-1.1v-.4.1c-.1-.2-.1-.4-.3-.3 0 0-.1.2-.1.4-.6-.1-1.5-.9-1.8-1.1-.9-.6-1.9-1.1-2.9-1.5-1.9-.9-4-1.5-6.1-1.9-4.2-.8-8.5-.7-12.6.3-1.5 0-3 .2-4.5.7 4-30.8 1.1-61.9-10.4-90.7zm23.1 97.9v.2c0 .5 0 1 .1 1.5-2.7.8-5.5 1.6-8.2 2.3v-2.6c-.1-.4-.2-.9-.3-1.3.2-1.3.6-2.5 1.2-3.6v-1c2.4-.5 4.9-.7 7.4-.6-.1.9-.1 1.8-.1 2.6v.2c-.1.5-.1 2-.1 2.3zm.4-3.1v-2c2.3.1 4.6.5 6.9 1.2 1.8.6 3.6 1.3 5.3 2.2-1.7.5-3.4.9-5.1 1.4-2.3.6-4.6 1.3-6.8 1.9-.3-.9-.5-1.9-.6-2.9l.3-1.8zm-18.6 3c2.6-2.7 6.2-4.2 9.9-4.2 0-.2.1-.3.1-.5v.5h.1-.2c-.2.7-.2 1.5-.3 2.2v4.7c0 .5.1 1.1.2 1.6-5 1.4-10 2.9-15 4.3 1.4-3.2 2.9-6.2 5.2-8.6zm110.9 26.1c-2.4 8.6-10.8 13.2-18.7 15.8-4.5 1.5-9.1 2.5-13.7 3.6-5.4 1.3-10.9 2.5-16.3 3.6-21.8 4.5-43.9 7.8-66.1 9.5-22.1 1.7-44.3 1.7-66.4-.3-11-1-22-2.5-32.9-4.6-10.4-2-21-4.2-31-7.7-8.8-3-17-8.1-19.8-17.5-.3-1.1-.6-2.2-.8-3.4-.1-.6-.2-1.1-.2-1.7 0-.4-.1-.8-.1-1.2v-.4c.1-2.6.6-5.1 1.3-7.6 1.4-5 3.9-9.7 6.7-14.1 10.2-15.8 25-28.5 41.9-36.6 2.6-1.2 5.3-2.4 8-3.4-2.2 2.4-4 5.1-5.4 8.1-2.9 6.4-3.1 13.4-2.9 20.3.1 6.5 1 13 2.9 19.1 2 6.2 5.1 12.1 9.6 16.8-4.8-.8-9.3-2.6-13-6.1-3.1-3-5.3-7-5.4-11.3v2.4c.2 9 8.3 15.4 16.5 17.2 5.4 1.2 11 .9 16.4.3 5.7-.7 11.3-1.6 16.9-2.7 22.6-4.1 44.8-9.9 66.9-16.2 4.4-1.3 8.8-2.6 13.3-4 .1.5.2.9.3 1.4v-1.5c16.8-5 34-9.6 51.4-7.9 5.4.5 10.8 1.7 15.9 3.6v1.2c0-.4.1-.8.2-1.2 3.3 1.2 6.5 2.7 9.5 4.6 3.8 2.4 7.3 5.2 10.2 8.6 1.6 1.9 3.1 3.9 4.2 6.1 1.1 2.6 1.3 4.8.6 7.2z"/>
    <path class="st4" d="M258.1 53.1c0 .1 0 .2-.1.4 0-.1 0-.3.1-.4-.1 0 0 0 0 0z"/>
    <path d="M303.8 288.1c.1-2.5.2-5 .2-7.6v-1c.2 2.8.1 5.7-.2 8.6z"/>
    <path class="st4" d="M327.2 326.4c-2.4 8.6-10.8 13.2-18.7 15.8-4.5 1.5-9.1 2.5-13.7 3.6-5.4 1.3-10.9 2.5-16.3 3.6-21.8 4.5-43.9 7.8-66.1 9.5-22.1 1.7-44.3 1.7-66.4-.3-11-1-22-2.5-32.9-4.6-10.4-2-21-4.2-31-7.7-8.8-3-17-8.1-19.8-17.5-.3-1.1-.6-2.2-.8-3.4-.1-.6-.2-1.1-.2-1.7 0-.4-.1-.8-.1-1.2v-.4c.1-2.6.6-5.1 1.3-7.6 1.4-5 3.9-9.7 6.7-14.1 10.2-15.8 25-28.5 41.9-36.6 2.6-1.2 5.3-2.4 8-3.4-2.2 2.4-4 5.1-5.4 8.1-2.9 6.4-3.1 13.4-2.9 20.3.1 6.5 1 13 2.9 19.1 2 6.2 5.1 12.1 9.6 16.8-4.8-.8-9.3-2.6-13-6.1-3.1-3-5.3-7-5.4-11.3v2.4c.2 9 8.3 15.4 16.5 17.2 5.4 1.2 11 .9 16.4.3 5.7-.7 11.3-1.6 16.9-2.7 22.6-4.1 44.8-9.9 66.9-16.2 4.4-1.3 8.8-2.6 13.3-4 .1.5.2.9.3 1.4v-1.5c16.8-5 34-9.6 51.4-7.9 5.4.5 10.8 1.7 15.9 3.6v1.2c0-.4.1-.8.2-1.2 3.3 1.2 6.5 2.7 9.5 4.6 3.8 2.4 7.3 5.2 10.2 8.6 1.6 1.9 3.1 3.9 4.2 6.1 1.1 2.6 1.3 4.8.6 7.2z"/>
    <path class="st4" d="M225.9 303c0 .5.1 1.1.2 1.6-5 1.4-10 2.9-15 4.3 1.4-3.1 2.9-6.1 5.2-8.6 2.6-2.7 6.2-4.2 9.9-4.2-.2.7-.2 1.5-.3 2.2v4.7z"/>
    <path class="st4" d="M234.5 300.6c0 .5 0 1 .1 1.5-2.7.8-5.5 1.6-8.2 2.3v-2.6c-.1-.4-.2-.9-.3-1.3.2-1.3.6-2.5 1.2-3.6v-1c2.4-.5 4.9-.7 7.4-.6-.1.9-.1 1.8-.1 2.6v2.7z"/>
    <path class="st4" d="M247.1 298.7c-1.7.5-3.4.9-5.1 1.4-2.3.6-4.6 1.3-6.8 1.9-.3-.9-.5-1.9-.6-2.9l.3-1.8v-2c2.3.1 4.6.5 6.9 1.2 1.9.5 3.6 1.2 5.3 2.2zM304 280.5c0 2.5 0 5.1-.2 7.6-.3 3.2-.7 6.5-1.1 9.6-14.2-5.3-29.2-4.6-43.9-1.7 1.3-16.1 2.5-32.1 3.7-48.2 17.4-3.3 37.3 9 40.9 26.7.3 1.7.5 3.3.7 5-.1.3-.1.6-.1 1zM220.6 265c-.9-.4-1.9-.4-2.8-.2-.3.1-.8.2-1.2.4.6-.8 1.2-1.7 1.8-2.4.7-.8 1.4-1.4 2.1-2.1 0 1.4.1 2.9.1 4.3z"/>
    <path d="M219.7 268.3c-.1 1.2-1.2 2.3-1.8 3.3-.7 1.2-1.4 2.4-2.3 3.5-.2.2-.6 0-.5-.3.3-1.4 1.1-2.6 1.8-3.8.6-1 1.3-2.5 2.4-2.9.2-.2.5-.1.4.2z"/>
    <path class="st4" d="M262.3 228.7c-1.8 22.6-3.7 45.1-5.4 67.7-2.2.5-4.5 1-6.7 1.5 0-.4 0-.8-.1-1.1v-.4.1c-.1-.2-.1-.4-.3-.3 0 0-.1.2-.1.4-.6-.1-1.5-.9-1.8-1.1-.9-.6-1.9-1.1-2.9-1.5-1.9-.9-4-1.5-6.1-1.9-4.2-.8-8.5-.7-12.6.3-1.5 0-3 .2-4.5.7 3.9-30.6.9-61.7-10.5-90.5.6-.3 1.2-.6 1.8-1 1.7-1 3.4-2.1 5-3.3 3.3-2.4 6.3-5.2 9.1-8.2 5.5-6 9.9-13.1 12.8-20.8 1.5-4 2.6-8.2 3.2-12.4 4.9-.5 9.5 1.6 12.5 5.2 1.8 10.4 4.3 20.6 6.2 31 2.4 11.8 1.4 23.5.4 35.6z"/>
    <path d="M208.6 203.3c-.3 0-.6 0-.9-.1.3.1.5.1.9.1-.1 0-.1 0 0 0z"/>
    <path class="st4" d="M240.8 108.2v-.2c-.1.1-.1.1 0 .2-.1 0-.1 0 0 0-4 3.4-8.3 6.4-12.9 8.8 0-.3-.1-.8 0-.9-.6.6-1.3 1.2-1.9 1.8-.5.3-1 .5-1.6.8-.1 0-.1.3-.1.6-10.3 8.3-24.1 11.4-37.1 8.1-3.6-.9-7-2.3-10.2-4.1 0-.5 0-1.1-.1-1.2-4.4-2.3-8.5-5.2-12.2-8.4-3.9-3.4-7.4-7.2-10.4-11.4 2.9-2.7 5.9-5.2 9-7.7 2.7-2.1 5.4-4.1 8.3-5.9 7.2-1 14.5-1.7 21.8-2.1 1.6.7 2.4 2.3 3.1 3.8.5 1 .9 2.1 1.3 3.1.2.5.4 1 .5 1.5.1.2.1.4.2.6v.9c.1.7.2 1.5.3 2.2h-.6c-8 .5-17-.4-24.8 1.9-.3.1-.3.7.1.6 8.4-1 17-1.1 25.5-1.2 0 .2.1.5.1.8v-.8c9.1-.2 18.1-.4 27-2 .5-.1.4-.9-.1-.9-8.9-.3-18 1-26.9 1.6v-1.6c0-.4-.1-.8-.2-1.1.2-.3.3-.8.5-1.2.2-.5.4-1 .6-1.4.4-1 .9-2 1.4-2.9.9-1.6 2.2-3 3.8-3.7 0 0 .1-.2.1-.4 2.9-.1 5.8-.1 8.8 0 .1.3.2.6.3.8.6.9 1.7 1.5 2.6 2 1.2.8 2.3 1.6 3.5 2.4 4.5 3.1 9.2 6.2 13.7 9.3 2.7 1.9 5.4 3.9 8 5.9l-1.4 1.4z"/>
    <path class="st7" d="M259 158.2v.2c-.1 1.3-.3 2.7-.6 4-2.4-6.4-8.9-10.4-15.7-9.4-.2 0 .2 3.7 0 3.8h.3c-2.9 14.9-11.4 28.5-23.3 37.9-1.8 1.4-3.6 2.7-5.6 3.9-1.7 1-3.5 2.2-5.5 2.3h-.9c-.2 0-.5-.1-.8-.2 0 0 .1 0 .1.1-15.7-1.4-29.9-10.9-36.9-25.2-1.8-3.6-3.1-7.5-3.9-11.5.6 0 1.1.1 1.7.2V163.1c-.8-.2-1.4-.7-1.9-1.3-.2-.3-.4-.7-.6-1-.1-.2-.1-.4-.2-.6v-.8.3c0 .6 0 1.2.1 1.8.1.4.3.9.5 1.2l.1.1c-4.9-.4-9.8.4-14.2 2.5 0-.5.1-1.3 0-1.4-2.6-1.2-4.7-3.5-5.4-6.3 0-.1 0-.2.1-.3.2-.7.5-1.4.9-2 .8-1.3 2-2.2 3.5-2.7v-.5c.6-.3 1.3-.5 2-.8.1 0 0-1.7 0-1.9 0-.2-.1-1.8 0-1.9-2.4.8-4.6 2-6.5 3.7-.9.8-1.8 1.7-2.5 2.7-.2.2-.4.5-.5.7 0 .2-.1.3-.1.5-.3-.6-.4-1.1-.6-1.7.1-.5.2-.9.4-1.3.7-2 2-3.6 3.5-5.1 1.5-1.5 3.2-2.7 4.8-3.9.8-.6 1.7-1.2 2.6-1.7.5-.2 1.9-1 2.4-.5v.3l.1-.1v-.1c0-.1 0-.2.1-.2V139.4c.4.1.9.2 1.3.3v-1.9c0-.2.1-1.9 0-1.9-2-.3-4-1-5.8-1.9 1.9-.5 3.7-1.7 5.1-3.1 2-1.9 3.9-4.2 5.4-6.5 1.4-2.2 2.3-4.4 2.4-7 3.7 3.2 7.8 6.1 12.2 8.4v-.1c12.6 7 28.2 7.2 41 .3 2.3-1.2 4.4-2.7 6.5-4.3v.7c5.9-2.7 11.4-6.3 16.3-10.5.5 3.5 2.5 6.4 4.6 9.1 1.3 1.7 2.9 3.8 4.9 4.7-1.8 1.9-3.7 3.9-5.6 5.8-.5.6-1.1 1.1-1.7 1.7v3.2c0 .1.1.5 0 .5.6-.5 1.1-1.1 1.7-1.7.3 1.2 1.8 1.7 2.7 2.4 1.1.7 2.1 1.6 3 2.4 2 1.9 3.8 4.1 5.2 6.5 1.5 2.6 2.5 5.4 3 8.3.2.8.3 1.6.4 2.4-.1.4-.1.7-.1 1z"/>
    <path class="st4" d="M194.3 298.3v1.9c0 .5 0 .9-.1 1.4v.1c0 .2 0 .5-.1.7 0 .5-.1 1.1-.1 1.6-.1.6-.2 1.3-.2 1.9-.1.5-.1.9-.2 1.4 0 .1 0 .3-.1.4-.1.7-.3 1.5-.4 2.2l-.3 1.5c0 .1-.1.3-.1.4-.1.6-.3 1.2-.5 1.7v.3c-6 1.5-12.1 3-18.2 4.4-11.4 2.5-22.8 4.8-34.4 6.3-4.6.6-9.5 1-14.2.5v-.8c-9.4-8.4-13.4-20.9-14.4-33.1-.6-7.2-.1-14.4 3.1-21 2.2-4.4 5.3-8.2 9.2-11.2.2-.1.3-.1.5-.2 0 0 .1-.1.1-.3 1-.8 2.1-1.5 3.2-2.2.2-.1.4-.3.7-.4v.2c-.1 1.8-.1 2.7 0 2.5 0 .8.1 1.5.3 2.2 1.4 4.9 7 7.2 11.6 8.1 5.8 1.1 12 .8 17.9.1 3.1-.4 6.2-1 9.2-1.8 2.3-.6 5.5-1.4 6.7-3.7.7-1.3.4-3.2.4-4.6v-1.7c-.1-.7-.2-1.3-.8-1.9-1-1.2-2.7-1.9-4.1-2.7-1.5-.8-2.9-1.7-4.4-2.5-.6-1.1-1.2-2.3-1.9-3.4.8-.4 1.5-.9 2.2-1.3 3.1-2.1 5-5.3 5.8-8.8-.2 1.2-.5 2.3-.8 3.4-.7 2.4-1.8 4.6-3.2 6.7-.1.1-.1.5 0 .8-.2-.1-.3-.1-.5-.2.3.1-.3 2.4 0 2.5 7.1 2.8 14.6 7.6 16.6 15.2-.4-.7-1.3-1.2-2.1-1.4v.8l-.1-.1v-.8c-1.5-1.2-2.9-2.4-4.4-3.5v2.6c.6.5 1.2.9 1.8 1.4-.1.5-.1.9 0 1 7 4.6 12.1 11.5 14.5 19.5 1.1 4.6 1.8 9.2 1.8 13.9z"/>
    <path class="st4" d="M170.2 200.2c0 .2.1.9.2 1.1v.2c-.1.6-.1 1.1-.2 1.7-.1 1-.3 2.1-.4 3.1-.6 4.3-1.3 8.6-2.1 12.9-1.6 8.5-3.6 17-6 25.3v-1.3 1.7s-.1 0-.1.1c-1.2-2.2-2.4-4.4-3.7-6.6-1.2-2.1-2.5-4.1-4.3-5.8-1.3-1.3-2.8-2.5-4.3-3.6-.1-.5-.6-1-1.3-1.5v-.3c0-.1-.1-.7 0-.7-.2.2-.3.4-.5.6l-.1.1c-.4-.2-.8-.4-1.4-.6-.2-.1-.3-.1-.5-.2.5-2.3 1.1-4.7 1.6-7 .4-1.6.6-3.4.5-5.1 1.6.4 2.9.3 3.2-1 .3-1.2-.3-2.6 0-3.8-.8 3.2-7.3-.6-8.6-1.5-3.3-2.1-6.2-4.9-9.2-7.5-6.6-5.9-13.3-11.7-19.7-17.8-2.6-2.5-5-5-7.2-7.8 2-.6 4-1.2 5.9-1.9.1-.1 0-1.7 0-1.9 0-.2-.1-1.8 0-1.9-2.3.8-4.6 1.6-6.9 2.2-1.1.3-2.2.6-3.4.9-.6.1-1.1.3-1.7.4-.2 0-.4.1-.6.2v-.3c-.1.1-.2.1-.3.2-.1 0-.1-.1-.2-.1v.2c-.3.2-.7.4-1.1.6-.3-.5-.5-1.1-.7-1.7.1-.5.3-1 .5-1.4v-3.1c0-.1-.1-.4 0-.5-.6 1.1-.8 2.4-.8 3.6-.1 0-.1 3.2 0 3.2v.4c-3.4 1.2-7.3.8-10.3-1.2v-.6c-.2.1-.3.2-.5.3v-.1c.3-1 .9-2 1.5-2.8v-3.2c0-.1-.1-.5 0-.5-.9 1.1-1.5 2.4-1.8 3.8-.1.7-.2 1.4-.2 2.1v1.1c-1.4.7-2.9 1.4-4.5 1.2-1-.1-2-.5-2.7-1.2 1.9-3.7 4-7.3 6.5-10.7 1.4-1.9 2.8-3.8 4.7-5.2 2-1.5 4.5-2.1 7-1.8v-.5c4.2-.5 8.4.4 12.5 1.4 4.2 1 8.3 2.2 12.4 3.3 8.3 2.2 16.7 4.1 25.4 4v-.1c.1.2.3.5.4.7 1.1 1.6 2.6 2.9 4.3 3.7-.1 0 0-.6 0-1.1 4.4-2.1 9.3-3 14.2-2.5v.7c.1.5.2 1 .3 1.6.1.5.2.9.3 1.4v.2c.1.4.2.9.3 1.3.2.6.3 1.2.5 1.8.1.5.3.9.5 1.4.1.2.1.3.2.5.2.5.3 1 .5 1.5 0 .1.1.2.1.3.2.5.4.9.6 1.4 0 .1.1.3.2.4.2.5.5 1 .7 1.5 0 .1.1.2.1.3.3.6.6 1.1.9 1.7-.1 3.5-.4 12.7-1.6 16.2-.1 0-.1.1-.2.1-.2-.2-.5-.4-.9-.6.1.1.1.7 0 1.3-2.4 1.8-4.7 3.6-7.1 5.4-1.4 1.1-2.8 2.2-4.2 3.2-1.2.9-2.5 1.9-3.9 2.4-.1 0 0 1.7 0 1.9 0 .2.1 1.8 0 1.9 1.4-.5 2.6-1.4 3.8-2.3 1.5-1.1 2.9-2.2 4.3-3.3 2.8-2.2 5.7-4.4 8.5-6.6.4-.1.5.2.6.5z"/>
    <path class="st7" d="M220.6 265.9c-.9-.1-1.8-.3-2.7-.1-.8.2-1.7.9-2.5.8h-.1c-.1.1-.3.3-.5.4-.2.2-.6 0-.5-.3.4-1.7 1.8-3.3 2.9-4.6 1-1.1 2-2.3 3.1-3.2 0-1-.1-2.1-.2-3.1v-.6c-.1-1-.1-2-.2-3 0-.4-.1-.8-.1-1.2l-.6-5.4c0-.4-.1-.8-.1-1.2-.1-1.1-.3-2.2-.5-3.3-.1-.9-.3-1.8-.4-2.7-.2-1.2-.4-2.5-.7-3.7 0-.3-.1-.5-.1-.8-.2-.8-.3-1.7-.5-2.5-.1-.4-.2-.8-.2-1.1v-.2c-.2-.8-.4-1.7-.6-2.5v-.2c-.1-.5-.2-.9-.3-1.3 0-.1 0-.2-.1-.2-.2-.7-.4-1.5-.5-2.2-.5-2-1-3.9-1.6-5.9-.1-.5-.3-.9-.4-1.4 0-.2-.1-.3-.2-.5-.2-.7-.4-1.4-.7-2.1-.2-.8-.5-1.6-.8-2.4-.9-2.6-1.8-5.2-2.9-7.8-.3 0-.5 0-.8-.1-3.7-.3-7.4-1-11-2.2-.4-.1-.8-.3-1.2-.4-.3-.1-.5-.2-.8-.3-.8-.3-1.7-.7-2.5-1-.4-.2-.9-.4-1.3-.6-.6-.3-1.1-.6-1.7-.9-.4-.2-.8-.4-1.2-.7-.4-.3-.9-.5-1.3-.8-.4-.3-.9-.6-1.3-.9-.1 0-.2-.1-.2-.1-.3-.2-.7-.5-1-.8-.8-.6-1.7-1.2-2.5-1.9-.4-.3-.8-.7-1.2-1l-.3-.3c-.7-.6-1.3-1.2-1.9-1.9-.3-.3-.7-.7-1-1.1-.4-.4-.7-.8-1.1-1.2-.3-.4-.7-.8-1-1.2l-.9-1.2c-.8-1.1-1.5-2.2-2.2-3.3-.2-.3-.3-.5-.5-.8-.2-.3-.4-.6-.5-.9-.1 3.5-.4 12.7-1.6 16.2.1-.1.3-.2.4-.3v1.2c1 1.8.7 4.6.6 6.4-.4 4.8-1.3 9.6-2.1 14.3-1.6 9-3.6 18-6 26.8.6-.3 1.2-.6 1.7-1 3.8-2.4 6.2-6.4 6.8-10.8v-1.4 1c.1-.5.1-1 .1-1.5v2.2c0 .4 0 .9-.1 1.3 0 2.1-.2 4.2-.6 6.3-.6 2.6-1.6 5.2-3 7.5 7.8 3.3 15.5 9.2 15.8 18.4v.5c1.3 1.3 2.5 2.6 3.6 4.1 4.8 6.4 6.9 14.2 7.5 22.1.1 1.8.2 3.6.2 5.4 0 1.2 0 2.5-.1 3.7 0 .7-.1 1.4-.1 2.1 0 .5-.1.9-.1 1.4 0 .3-.1.7-.1 1-.1.6-.1 1.1-.2 1.7-.1.5-.1 1-.2 1.5s-.2 1.1-.3 1.6c0 .2-.1.5-.1.7-.1.5-.2 1-.3 1.6 5.9-1.5 11.8-3.1 17.7-4.8v-.5c0-.5-.2-1.4 0-1.9.1-.3.2-.5.4-.8.2-.5.5-1.1.7-1.6.3-.6.6-1.3.9-1.9.1-.3.3-.6.4-.8.2-.4.4-.8.7-1.2l.6-.9.9-1.2c.2-.3.4-.5.6-.8.2-.3.5-.6.8-.9.8-.8 1.6-1.5 2.5-2v-.5c.9-9.6 1.5-18.9 1.4-28.3zm-2.7 5.6c-.7 1.2-1.4 2.4-2.3 3.5-.2.2-.6 0-.5-.3.3-1.4 1.1-2.6 1.8-3.8.6-1 1.3-2.5 2.4-2.9.2-.1.5 0 .5.3-.2 1.2-1.3 2.2-1.9 3.2z"/>
    <path d="M169.3 196.2c-.1.4-.3.7-.5.9" style="fill:none"/>
    <path class="st9" d="M211.4 211.1c-32-2.4-40.1-30.3-40.3-31.2.2.3.3.6.5.9.1.3.3.5.5.8.7 1.1 1.4 2.2 2.2 3.3l.9 1.2c.3.4.6.8 1 1.2.4.4.7.8 1.1 1.2.3.4.7.7 1 1.1.6.7 1.3 1.3 1.9 1.9l.3.3c.4.3.8.7 1.2 1 .8.7 1.6 1.3 2.5 1.9.3.3.7.5 1 .8.1 0 .2.1.2.1.4.3.9.6 1.3.9.4.3.9.5 1.3.8.4.2.8.4 1.2.7.6.3 1.1.6 1.7.9.4.2.9.4 1.3.6.8.4 1.6.7 2.5 1 .3.1.5.2.8.3.4.1.8.3 1.2.4 3.6 1.2 7.3 1.9 11 2.2h.9-.1c1 2.5 2 5 2.9 7.7zM210.5 309l-.1.3.1-.3c-.1 0 0 0 0 0zM213.5 300.3c-.2.4-.4.8-.7 1.2-.2.3-.3.6-.4.8-.3.6-.6 1.3-.9 1.9-.2.5-.5 1.1-.7 1.6-.1.3-.2.5-.4.8-.2.4 0 1.4 0 1.9v.5c-5.9 1.7-11.8 3.2-17.7 4.8.1-.5.2-1 .3-1.6.1-.2.1-.5.1-.7.1-.5.2-1.1.3-1.6.1-.5.2-1 .2-1.5.1-.6.2-1.1.2-1.7 0-.3.1-.7.1-1 0-.5.1-.9.1-1.4.2-.1 14.8.3 19.5-4z"/>
    <path d="m210.5 309-.1.3.1-.3c-.1 0 0 0 0 0zM226.3 295.6v.5h-.1c0-.2.1-.4.1-.5zM227.3 296.1v-.2c-.1.1-.1.2 0 .2z"/>
    <path d="m210.5 309-.1.3.1-.3c-.1 0 0 0 0 0zM208.6 203.3c-.1 0-.1 0 0 0z"/>
  </g>
</svg>
