<svg version="1.2" baseProfile="tiny" xmlns="http://www.w3.org/2000/svg" viewBox="0 0 406.6 350.5" overflow="visible" xml:space="preserve">
  <path fill="#1D1D1B" d="M31.3 70.9v-.7c.2 1.4 0 1.2 0 .7zM66.7 68c-.8.4-1.7 0-2.3-.6 0 0-.1-.1-.1-.2v.7c-3-.3-6-2-7.5-4.7-.4-.7-.6-1.4-.7-2.1-.1-1.2-.1-2.5 0-3.7-2.3-.3-4.5-1.6-5.7-3.5-1-1.6-1.2-3.4-1.3-5.2-.1.3-.1-2.2 0-2.6 0 0 0-.1 0 0 0-1.8.3-3.5 1.1-5.2V44.7c-.3.6-.5 1.2-.7 1.8-.1.2-.1.5-.2.6v.2c.3 1.5 1 2.9 2 4 2.1 2.2 5.6 3.1 8.5 1.7v1.8c0 .2.1 1.8 0 1.9-.5.3-1.1.4-1.7.5v.2c-.7.3-1.2.8-1.5 1.4.3.6.6 1.1 1 1.6 1.5 1.8 3.6 3 6 3.4v-2.5c0-.2 0-.5.1-.7.1-.5.3-1 .6-1.4.6-.9 1.3-1.7 2.1-2.4v3.6c-.7.6-1.3 1.2-1.8 2-.1.2-.2.3-.4.5.6.8 1.6 1.3 2.5.9V68zM88.6 121.6c-.3 1.2-1.4 2.2-2.6 2.4v-1.2c1.2-.2 2.3-1.2 2.6-2.4V121.6zM93.3 115.7c-.5.4-.9.9-1.3 1.3v-1.3l1.3-1.3v1.3zM94.4 126.3c-.4.7-.9 1.3-1.3 2V127c.4-.7.9-1.3 1.3-2v1.3zM39.5 198.5c-1.9 5.7-3.2 11.6-4.1 17.6-.1.4.1.8 0 1.2 3-21 12.5-40.9 26.8-56.6 4.1-4.4 8.5-8.5 13.3-12.2.2-.2-.2-1.1 0-1.2-16.8 12.9-29.4 31-36 51.2zM75.4 194c-.1-.4.1-.8 0-1.2-3.2-14-2.3-28.6 2.4-42.2.1-.4-.1-.9 0-1.2-4.9 14.2-5.7 29.9-2.4 44.6zM80.1 150.3c3.7 9.3 7 18.9 11.4 27.8 3.7 7.5 8.7 16.3 17.1 19.1-.1 0 .1-1.2 0-1.2-8.4-2.8-13.5-11.6-17.1-19.1-4.4-9-7.7-18.5-11.4-27.8.1.3-.2.8 0 1.2zM245.7 107.8v1.6c0 .4-.1.8-.4 1.2-.7 1.2-1.8 2.2-2.6 3.3-.9 1.1-1.8 2.3-2.7 3.4-3.8 4.7-7.6 9.3-11.4 13.8.2-.2 0-1.5 0-1.9 0-.3-.2-1.6 0-1.9 3.1-3.6 6.1-7.3 9.1-11 1.5-1.9 3-3.7 4.5-5.6.7-.9 1.5-1.8 2.2-2.7.3-.3.6-.7.8-1.1v.1c0-.2.1-1.8 0-1.9.9.4.5 2.1.5 2.7z"/>
  <path fill="#1D1D1B" d="M327.4 251.3c-.1-.1-.1.1 0 .7v-.7zm0 0c-.1-.1-.1.1 0 .7v-.7zm0 0c-.1-.1-.1.1 0 .7v-.7zm0 0c-.1-.1-.1.1 0 .7v-.7zm0 0c-.1-.1-.1.1 0 .7v-.7zm0 0c-.1-.1-.1.1 0 .7v-.7zm0 0c-.1-.1-.1.1 0 .7v-.7zm0 0c-.1-.1-.1.1 0 .7v-.7zm0 0c-.1-.1-.1.1 0 .7v-.7zm0 0c-.1-.1-.1.1 0 .7v-.7zm79 31.9c-.4-4.9-2-9.7-4.5-14-2.4-4.2-5.6-7.8-9.6-10.5-4.1-2.8-8.8-4.6-13.5-6.4-18.9-7.2-36.7-16.7-53-28.7-2.8-2.1-5.6-4.2-8.3-6.4 1.9-.7 3.8-1.5 5.7-2.2 2-.8 4-1.5 6-2.3 1.5-.6 2.9-1.3 3.6-2.8.1-.2.1-.4.1-.7.7-.2 1.3-.8 1.6-1.8.3-1.2-.3-2.6 0-3.8-1 4.1-6.9.8-9.1-.2-3.3-1.5-6.5-3-9.6-4.9-5.3-3.2-10.1-7.1-13.8-12V185c-2.2-17.6-4.4-35.3-8.4-52.6-3.6-15.7-8.8-31.1-16.4-45.3-3.9-7.3-8.5-14.2-13.9-20.6 1.6-3.2 3.2-6.4 4.9-9.6V53c-1.5 2.1-3.7 3.7-6.1 4.5-1.2.4-2.5.6-3.7.6-.6 0-1.2 0-1.8-.1 0-.2 0-.3-.1-.4-5.4-4.5-11.5-8.1-17.7-11.4-6.4-3.4-12.9-6.9-19.5-9.8-13.4-5.9-27.7-9.6-41.9-13.2-7.8-2-16-3.6-24-2 .3-2 .5-4 .5-6.1.1-.1.1-1.8 0-1.4-.1-3.7-.5-7.2-1.6-10.7V1.4c-.1-1-.4-1.9-1.2-1.1-.2.2 0 1.6 0 1.9 0 .3.2 1.7 0 1.9.1-.1.2-.1.3-.2 0 .2 0 .4.1.6v.1c-1.9 4.6-6.4 7.9-10.9 10-3.1 1.4-6.4 2.5-9.6 3.3-3.4.9-6.7.7-10-.6v.2c-5.1-3-10.6-5.3-16.2-6.8C83 4.8 60.4 9.2 39.1 14.2c-12.4 2.9-24.7 6-37.3 7.7 0 0-.1.1-.1.2-.7.2-.9.7-1 1.4v.2c0-.1-.1-.1-.1-.2.1.5-.1 1.3-.1 1.8s-.2 1.4 0 1.9c6.3 14.3 17.3 26.3 31 33.8-.3 4.2-.4 8.4-.3 12.5-4.5 4.7-9.5 10.1-14.6 14.2-2.5 2-5.2 3.9-8 5.5-1 .5-3.1 1.2-3.4 2.3v.1c0-.5-.1-1 0-1.1-.5.6-.5 1.2-.5 2h-.2c-.4.1.3 3.7 0 3.8.1 0 .2 0 .3-.1.4 1.6 1.4 2.9 2.3 4.2 2.3 3.2 5.1 6.1 8.2 8.6 3.1 2.4 6.5 4.4 10.1 5.9 4.3 1.7 8.8 2.6 13.3 3.7 5 1.2 10 2.9 14.7 5 .5.5 1.1.9 1.7 1.3 5.9 4.5 12.7 7.7 19.9 9.5v.3h-.1c-.1 0 0 1.7 0 1.9 0 .2.1 1.8 0 1.9.3-.1.5-.2.8-.2.1.2.1.4.2.5v-.6c3.2-1 6.5-1.7 9.9-2.1.8 0 1.5 0 2.2-.2v.1c11.9-2.6 23.4-6.6 34.3-11.8 2.7-1.3 5.4-2.7 8-4.2 1.9-1.1 4.3-2.1 6-3.7 1.6 1.8 1.8 4.4 1.9 6.7 0 .2 0 .5-.1.8l-.3 1.8c-.3 1.2-.8 2.3-1.5 3.3-1.2 1.7-3.1 2.9-5.2 3.2-.5.1-.9 0-1.4 0-.6-.4-1.2-.8-1.7-1.3v.8c-.9-.5-1.6-1.3-1.8-2.4.2 1.2-.2 2.5 0 3.8.2 1.8 1.8 2.8 3.5 3 1.6 1 3.4 1.5 5.2 1.6 2.2.1 4.3-.8 6.4-1.3-.1 1.4-.1 2.9-.1 4.4 0 3.2 1.1 6 3 8.5 1.1 1.4 2.4 2.9 3.9 4.4-2.7 12.6-5.5 25.2-8.2 37.8-2.8 13-5.4 26.1-8.6 39.1-1.7 7-3.7 13.8-6.5 20.4-.2.3-.1 1 0 1.5L28.4 251v.8c0-.5-.2-1.3 0-1.7C20 265.7 10.8 280.8 1 295.4c-.2.3 0 1.5 0 1.9v.2l-.1.8L0 309l1 .1-.1 1 164.6 10.2.1-1 1 .3 2.9-9.3c.8-.2 1.6-.5 2.4-.8.1 0 .1-.7 0-1.3 5-.1 10-.2 15-.1 1.3 0 2.5 0 3.8.1h1.3c-.8 1.5-1.7 3-2.4 4.5-2 4.1-3.7 8.4-4.9 12.8-1.2 4.4-2.1 9.1-1.4 13.7.6 4 3.4 7.2 6.9 9.1 3.9 2.1 8.3 2.5 12.7 1.9 5.3-.8 10.2-2.8 15.2-4.5 5.2-1.8 10.6-3.4 16-4.7 10.7-2.6 21.7-4.2 32.7-5 11.3-.7 22.6-.7 34-.7 20.6 0 41.4-.4 61.3-6.3 9-2.7 17.7-6.5 25.5-11.8 7.5-5.1 15.2-11.8 18-20.8 1.1-4.1 1.2-8.8.8-13.2zM18.6 89.9c4.3-3.7 8.2-7.8 12.1-12 .2-.2.6-1.3.6-1.6v-1c0 .8.1 1.5.1 2.3.3 6.4 1.2 12.9 2.9 19.1.1.4.2.8.4 1.2-2.8-2.9-7.7-3.4-11.5-3.6-3.7-.2-7.5 0-11.1.6 2.1-1.5 4.4-3.2 6.5-5zM42 119.8c-4.1-1.2-8.3-1.9-12.4-3.2-7-2.1-13.4-6-18.4-11.2-1.4-1.4-2.6-2.9-3.8-4.5-.3-.4-.5-.7-.8-1.1 5.4-1.4 11-2 16.5-1.7 4.5.2 10.6.8 12.8 5.4-.2-.3 0-1.1 0-1.6 2.6 7.2 6.3 13.9 11.3 19.6-1.8-.6-3.5-1.2-5.2-1.7zm99.5 23.2c.1 1.1-.1.7 0 0zm-6.3 78.3 8.7-39.9c1.6-7.5 3.2-14.9 4.8-22.3.1-.4.1-.8 0-1.2 3.1 2.9 6.8 5.1 10.8 4.2.6 14.7-1.4 29.4-3.7 43.9-2.3 14.4-5.3 28.7-7.4 43.1-.4 2.8-.8 5.5-1.1 8.3l-21.4-1.1c4.4-11.3 6.7-23.3 9.3-35zM28.4 253.9c.1-.2.1-.5.1-.9l2.5.1 39.8 2.1c-.8.2-1.5.8-1.6 1.8-.1.5 0 1 0 1.5.1.8.7 1.4.9 2.2v.3c0 .2-.2.5-.2.6-.1.4-.3.8-.5 1.2-.5.8-1.1 1.6-1.5 2.4-.4.6-.8 1.3-.8 2.1 0 .5-.1 1.2.2 1.6-.1-.3.2-1 0-1.2l-.1-.1c0-.1.1-.2.1-.3l.9-1.5c.7-1 1.4-2 1.7-3.2.2-.8.2-1.6.1-2.4 0-.5-.1-1-.4-1.4-.2-.3-.4-.6-.5-.9.5-1.5 2.3-1.9 3.7-1.2-.2-.1.2-1.2 0-1.2-.1-.1-.2-.1-.3-.1l52.4 2.8v.3c0-.1.1-.2.1-.3l22 1.2c-.4 3.7-.8 7.5-1.1 11.2-.1 1.7-.2 3.5-.3 5.2 0 .8-.1 1.6-.1 2.3 0 .2.1 1.3 0 1.4-.4.3-.7-.3-1-.6-1.7-2.2-1.7-5.2-3-7.6-1.2-2.3-3.6-4.5-6.2-3-1.3.7-2.2 2-3.1 3.1-1.2 1.4-2.3 2.9-3.3 4.4-.6.8-1.1 1.6-1.7 2.5l-9.8-.7v-.1c-.1 0-.2.1-.3.1l-10.5-.8v-.4c-.1.1-.1.3-.2.4l-45-3.3v-.3l-.3.3-1-.1v-.3c0-.1-.1-.6 0-.6-1 1-2.2-.3-2.5-1.3-.1-.3-.2-.6-.2-.9v-.1c.2-.5.6-.7 1.2-.8 2.8-.7 3.2-4 3.4-6.4v-1.2c-.1 1.6-.3 3.3-1.2 4.7-.4.5-.9 1-1.5 1.4-.5.3-1.4.2-1.8.8-.3.3-.3.8-.3 1.2-.1-.1-.1.8 0 .6 0 .5 0 .9.1 1.4.1.5.2 1 .5 1.4l-13.3-1c.8-1.1 1.5-2.1 2.3-3.2v-1.2c-.2-.1-.5-.3-.6-.5 0 0-.1-.3-.2-.5 0-.1.1-.3.2-.4.1-.3.4-.6.6-.9.9-1.1 2.1-1.9 2.6-3.3.2-.8.2-1.7.1-2.5-.1-.5-.3-1.1-.6-1.5-.3-.3-.7-.4-1-.7.6-1 1.9-1.7 3-1.8.1 0-.1-1.2 0-1.2-1.5.2-3 1.2-3.3 2.7 0 0 0-.1-.1-.1v1.2c.1.5.5.5.8.7.4.2.7.6.9 1 .1.2.1.4.2.6 0 .1 0 .2-.1.4-.3 1-1 1.8-1.8 2.5-.7.6-1.4 1.3-1.6 2.3-.2.8-.2 2.1.3 2.8-.7 1-1.4 1.9-2.1 2.9-.1.2 0 .5 0 .8l-25.3-1.9c3.5-5.6 6.6-11.1 9.6-16.6zM3.2 295.8c5.4-8.1 10.5-16.4 15.5-24.8l41.9 3.1c-.2.3-.3.6-.4.9-.1.4-.1.9-.1 1.4 0 .6.2 1 .4 1.6.1.2.1.4.2.6v.1l-.3 1.2c-.3 1.2-.8 4.1.5 5-.8 1-1.8 1.8-2.9 2.6-.2.1.2 1.1 0 1.2 1.4-1 2.6-2.1 3.6-3.5.1-.1 0-.9 0-1.2v-.1c-1-.1-1.3-.9-1.5-1.7v-.1c.1-.3.2-.6.2-1 .2-.6.3-1.1.4-1.7 0-.8.1-1.7-.2-2.4-.1-.3-.2-.6-.4-.8 0-.1 0-.2.1-.2.2-.6.7-1 1.1-1.5v-.2L100 277c-1 .8-1.2 2.1-1.2 3.3 0 .7 0 1.3.3 1.9.4.8 1.3 1.1 1.7 1.8-.4 1-1.2 1.8-1.2 3v1.3c.1.6.6.8.8 1.2-.3.9-.8 1.8-1.2 2.6-.2.3.2.9 0 1.2.5-1 1.3-2.2 1.4-3.4v.1-.4c0-.3.1-.8 0-1.1-.1-.3-.3-.5-.5-.6-.2-.1-.3-.3-.4-.4.4-1 1.2-1.8 1.3-2.9v-1.1c-.1-.5-.3-1-.8-1.3-.4-.3-.8-.6-1-1.1-.1-.2-.2-.5-.2-.7v-.1c.4-1 .7-1.9 1.8-2.3.1 0 0-.5 0-.8l5.3.4c-.7 1.3-1.4 2.8-1.2 4.3v.1-.1.3c.1.7.7 1.2.9 1.9.2.8.1 1.5-.1 2.2-.5 1.6-1.6 3-2.7 4.3-.1.1 0 .4 0 .6v.6c.9-1 1.7.4 1.8 1.3.1 1.3-.5 2.8-1.1 4-1.2 2.1-3.2 3.6-5.1 5.1-.2.2.2 1.1 0 1.2 2.8-2.2 5.6-4.5 6.2-8.2.1-.8.1-1.6.1-2.4 0-.5-.2-1.9-.7-2.4 1-1.5 1.9-3 1.9-4.9V284c-.1-1.1-.7-1.9-1-2.8.3-1.2 1.1-2.5 1.7-3.5v-.1l9.2.7c-.9.7-1.6 1.8-1.7 3v1.1c0 .3 0 .7.3.9.5.3 1.3-.6 1.7-.2-.1.6-.2 1.3-.4 1.9-.2.9-.4 1.8-.5 2.8-.1.4.1.9 0 1.2.3-1.6.7-3.3 1-4.9 0-.2 0-.4.1-.7v-1c0-.5-.3-.8-.8-.5-.2.1-.5.3-.7.3-.3 0-.4-.1-.5-.3v-.1l.3-.9c.6-1.1 1.6-1.9 2.8-2.2v-.4l9.3.7c-2.8 4.4-5.1 9.2-6.9 14.1-.6 1.7-1.2 3.5-1.7 5.3-.5 1.6-1 3.3-1.1 5 0 .4-.1.8-.1 1.2-.1.1-.1.4-.1.8l-98.4-7.7V293 297.8l-15.2-1.2-.2-.8zm161.6 22.5L2.1 308.2l.9-9.8 113.9 9c.2 1.4.7 2.6 1.8 3.4 2.1 1.4 5.1 1.3 7.5.9.2 0 .5 0 .7-.1 7.4 1.5 15.1.9 22.6.5 3.8-.2 7.6-.3 11.4-.5 2.1-.1 4.1-.3 6.1-.7l-2.2 7.4zm24.8-13.9c-2.1 0-4.3-.1-6.4-.1-3.5 0-7 0-10.4.1.8-1.6 1.6-3.1 2.4-4.7 3.4-6.6 6.6-13.3 9.8-20.1.7-1.4 1.3-2.8 1.9-4.3 3.8.3 7.6.4 11.4.4.1.2.2.4.4.5v-.5h1.3c-.1.5 0 1.9.1 1.9 0 1.1.1 2 .6 3-.1-.2-.1-.6 0-1v1V275c0-.7.1-1.4.1-2.1.1-1.7.2-3.4.5-5 .3-3 .9-6 1.5-9 1.2-5.8 2.9-11.6 4.8-17.2 3.5-10.5 7.3-21.9 15.3-29.9 3.5-3.5 7.8-6.2 12.5-7.5 1.5.4 3 1 4.4 1.8-.1-.1 0-1.7 0-1.9 0-.2.2-1.8 0-1.9-.7-.4-1.4-.8-2.2-1.1v-1.3c-.8.1-1.5.3-2.3.5-4-1.1-8.2-1-12.2.3 3.1-6.7 10.4-10.2 17.4-11.6 4.4-.9 9-1.5 13.5-1.6 2.2-.1 4.3.2 6.3 1.2s3.6 2.5 5.7 3.4c-.1 0 0-.6 0-1.1.1.2.2.4.4.7-.2-.3 0-1.5 0-1.9 0-.5.2-1.5 0-1.9-.8-1.5-1.7-3-2.3-4.6-.3-.8-.6-1.5-.8-2.3 0-.1-.1-.4-.1-.7.6-3.1 2.4-6 4.1-8.6 2.1-3.4 4.5-6.5 7.2-9.4-1.4 3.2-1.7 6.3-1.6 9.8 0 3.5 1 6.5 2.8 9.5 1.9 3.3 4.1 6.5 6.7 9.3 2.3 2.4 6.4 5.4 9.5 2.3.2-.2 0-1.6 0-1.9s-.2-1.7 0-1.9c-3 3-7 .2-9.3-2.2-3-3.1-5.4-6.7-7.4-10.5-1-1.8-1.8-3.6-2.1-5.6v-.1c.1-.4.1-.8.2-1.2.2-1 .5-2 .9-3 1.5-3.8 4-7.2 6.8-10.2.2-.2 0-1.6 0-1.9s-.2-1.6 0-1.9c-.4.4-.8.9-1.2 1.3 0-.5-.1-.9 0-1-5.7 5.1-10.5 11-14.2 17.6-1 1.7-1.8 3.4-2.3 5.3-.4 1.6-.3 3.3-.3 5v.3c0-.1 0-.2.1-.5 0 .2 0 .4-.1.5.1 2.1.5 4 1.3 5.8-1.3-.8-2.5-1.7-3.9-2.4-2-1-4.1-1.3-6.3-1.2-4.5.1-9.1.7-13.5 1.6-2.8.6-5.6 1.5-8.2 2.8 0-.2 0-.4-.1-.4-2.4-1.2-4-3.3-4.8-5.8-.2-.6-.4-1.2-.5-1.9-.1-.4-.1-.9-.2-1.3v-.5c0-.5.1-1 .1-1.5l.3-2.7v-1.1c2.7-5.7 5.5-11.4 8.2-17.2 6.5-14 12.2-28.6 12.6-44.2v-3.6c-.4 13.4-4.7 26.3-10.1 38.5-5.5 12.5-11.9 24.6-17.1 37.3-5.5 13.3-10.1 26.9-14.9 40.4-4.6 12.9-9.5 25.7-15 38.2-.2.1-.3.3-.5.4v.9c-.1.3-.2.5-.3.8-1 2.3-2.1 4.7-3.1 7h-.2v.6c-2.2 4.9-4.4 9.7-6.8 14.5-1.7 3.6-3.5 7.1-5.3 10.6-.9 1.8-1.9 3.7-2.8 5.5-.1.2-.5 1-1 1.7h-.1v.2c-.3.5-.7 1-1 1.2 0-.3 0-.5-.1-.7-.2-.4-.5 0-.6.3-.1.3-.1.8 0 1.2-2.5.6-5.1.9-7.6 1-3.9.2-7.8.4-11.6.5-7.1.3-14.2.9-21.2-.3.1-.4.3-.8.4-1.2l2.4-6.6c.2-.5 0-1.3 0-1.9 0-.5-.2-1.4 0-1.9-1.2 3.3-2.4 6.6-3.5 9.9-.1.3-.2.7-.3.9-.2.4-.2.5-.4.5-.3-.1-.6-.1-.8-.2 0 0 0 .1.1.3-.3 0-.6.1-.9.1-1.1.1-2.2.1-3.2 0-1.8-.2-3.8-.9-4.6-2.7.1-.3.1-.5.2-.8l1.2-4.5c1.7-5.5 4.1-10.9 7.1-15.9 1.5-2.4 3-4.8 4.8-7l2.7-3.3c.9-1 1.9-2.1 3.4-2.3 2.7-.4 4.6 2.6 5.4 4.8.9 2.6 1.2 5.4 3.4 7.3v-.1c.5-16.9 3.3-33.6 6.2-50.2 2.9-16.4 6.1-32.8 7.4-49.4.6-7.3.8-14.6.6-21.9.3-.1.7-.2 1-.3.2-.1.1-3.4 0-3.8-.1-.3-.2-.5-.2-.8.1.2.1.5 0 .8l-.9.3v-1.2 1.2c-5.2 1.2-9.6-3-13-6.6-1.9-2-3.7-4.1-4.5-6.7-.2-.6-.4-1.2-.5-1.8v-.4c.2-1 .4-2 .8-2.9.3-.1.7-.1 1-.2.2 0-.1-3.7 0-3.8-.2 0-.4.1-.6.1v-.8c-.1.3-.3.6-.4.8-2.3.5-4.5 1.4-6.8 1.5 1-1 1.7-2.2 2.2-3.5 1-2.9.8-6.3.7-9.3 0-1.9-.1-4-.7-5.9 1.6-2.4 2-5.7 2.7-8.4.8-3.3 1.7-6.6 2.5-9.9 1.8-7.2 3.4-14.3 5.1-21.5v.1c2.6 13.9 13.1 25.7 26.5 30 0 .1 0 .2-.1.3 0-.1.1-.2.1-.3l2.1.6c-.3-.1.3-3.7 0-3.8-.2-.1-.4-.1-.6-.2 3.6-7.4 8.8-13.9 15.2-19.1-3.2 9.3-5.7 18.8-7.7 28.5-.2 1.2.2 2.5 0 3.8 2.4-11.4 5.6-22.7 9.5-33.7 1.1-.9 2.3-1.7 3.5-2.5.2-.1 0-1.7 0-1.9 0-.2-.2-1.8 0-1.9-1.1.7-2.1 1.4-3.1 2.2 0-.4-.1-.8 0-1-.2.5-.3.9-.5 1.4-8.1 6.1-14.5 14.4-18.5 23.8-13.4-4.3-24-16.2-26.6-30.1.1.5.1 1 0 1.5-.1-.5-.1-1 0-1.5v-.2c-.1.3-.2.6-.2 1-.5 2.1-1 4.2-1.4 6.3-.5 2.3-1.1 4.5-1.6 6.8-.4 1.7-.8 3.4-1.2 5.2l-2.4 9.9c-.8 3-1.3 6.2-2.5 9.1-1.1 2.8-3.6 4.2-6.1 5.7-2.6 1.5-5.3 2.9-8 4.3-5.5 2.7-11.1 5.1-16.8 7.2-6.2 2.2-12.6 4.1-19.1 5.5l-2.7.3c-.8-.1-1.7-.3-2.5-.6-1.6-.7-2.7-2-3.7-3.4-.8-1.1-1.9-2.8-3.4-3-.3 0-.3 0-.4.3-.1.2-.2.5-.3.8-.2.5-.3 1-.4 1.5-.1.5-.2 1-.2 1.6-11.7-2.9-22.3-9.7-29.8-19.2C38 105 33.9 93.5 32.2 81.9c-.5-3.5-.8-7-.9-10.5v-1.3.1c0-.9 0-1.8.1-2.6.1-1.8.2-3.6.4-5.4v-1c.3.1.5.3.8.5-.1-.1 0-1.7 0-1.9 0-.2.1-1.7 0-1.9-.3-.2-.6-.3-.9-.5v-.1.1c-13-7-23.6-18.2-30-31.6.3-.1.7-.1 1.1-.1 1.3 0 2.6.2 3.9.4 2.7.3 5.5.6 8.2.9 5.5.7 10.9 1.5 16.4 2.5 5.4 1 10.8 2.1 16.2 3.3 4.8 1.1 10.1 2 14.3 4.9 1.3.9 2.4 2 3.4 3.3-.6.8-1.3 1.5-2.1 2.1-1.4 1.2-3 2.3-4.7 3-1.6.7-3.4 1.1-5.1.4-.7-.3-1.4-.8-1.9-1.4-.4-.5-.6-1.1-.8-1.5v-1.2c0-.2-.1-.4 0-.5v.1c-.1.4-.1.7-.2 1.1-.1.9 0 1.8 0 2.6v.7c0 .7.2 1.3.6 2 1.1 1.7 3.1 2.5 5.1 2.2 2.2-.3 4.2-1.7 5.9-3 1.7-1.3 3.3-2.8 4.2-4.7v-.2c.1.1.1.2.2.3.6 1 1 2.2 1.3 3.3.2.6.3 1.2.4 1.8 0 .2.1.5.1.7V51c0-.5 0-1.1.1-1.6.1-.2 0-2.2 0-2.4-.1-3.5-.9-6.9-3.2-9.9-3.5-4.6-9-6.1-14.3-7.4-11.7-2.9-23.6-5-35.6-6.6 17.6-3.5 34.8-8.7 52.7-10.8 19.8-2.3 40.7-.4 57.3 11.5 5.8 4.2 10.8 9.5 14.4 15.6-5 4-9.6 8.5-13.9 13.2-10.9 12-19.4 26-26.2 40.6-3.9 8.3-7.2 17-10.2 25.7 0-.3-.1-.5-.1-.8C90.9 93.4 94.3 68 106.3 46c3.2-5.8 7-11.4 11.3-16.4.2-.2-.2-1 0-1.2C101 47.6 94 72.7 91 97.2c-.9 6.9-1.4 13.8-1.9 20.8-3.8-27.1-3.7-55.4 8-80.7 2.9-6.2 6.5-12.1 10.8-17.5.2-.3-.2-1 0-1.2-17.1 21.5-22 49.6-21 76.4.3 8 1.1 15.9 2.2 23.8v1.9c0-.5.1-1 .1-1.5v.4c-.1.4.1.9 0 1.2l.1-.4c0 .1 0 .3.1.4v-.6c5.3-15.5 11.8-30.7 20.4-44.7 8.2-13.2 18.2-25.3 30.4-35.1 1.1 1.9 2 3.9 2.7 6-.2-.5 0-1.4 0-1.9s.2-1.4 0-1.9c-.4-1.1-.9-2.2-1.4-3.3 6.3-4.9 13.1-9.1 20.3-12.5.2-.1-.2-1.2 0-1.2-7.4 3.5-14.3 7.8-20.7 12.9-3.2-6.5-7.9-12.1-13.5-16.6 1.8-.1 3.6-.5 5.4-1.1 3.9-1.2 7.9-2.5 11.4-4.8 3.1-2 5.8-4.7 7.1-8.2.3-.7.4-1.3.5-1.9.5 1.2.9 2.5 1.2 3.9.2.9.4 1.9.5 2.9.1.5.1 1 .1 1.5-.2 2-.4 3.9-1 5.8-.4 1.6-.9 3.6-2.4 4.4-.2.1 0 1.7 0 1.9 0 .2.2 1.8 0 1.9 1.3-.8 1.9-2.3 2.3-3.9v.7c7.3-1.7 14.8-.5 22 1.2 7.1 1.7 14.1 3.6 21.1 5.6 7.1 2 14.2 4.3 21 7.1 6.8 2.8 13.3 6.3 19.8 9.7 6.4 3.4 12.8 6.9 18.5 11.4v.9c.1.3.3.5.6.5 1.5.5 3.3.4 4.8.2 1.6-.3 3.1-.8 4.4-1.6l-2.7 5.4v3.1c0 .1.1.4 0 .5.1-.2.2-.3.2-.5 10.3 11.9 18 26 23.5 40.7 6 15.9 9.6 32.6 12.3 49.3 1.4 9 2.6 18.1 3.7 27.1l-1.2-1.8c.2.3 0 1.5 0 1.9 0 .4-.2 1.5 0 1.9 3.8 6 9.3 10.7 15.3 14.3 3.1 1.9 6.3 3.5 9.6 4.9.9.4 2.5 1.2 4.1 1.7h-.1c-2 .8-4.1 1.6-6.1 2.4-2.9 1.2-5.9 2.3-8.8 3.4l-.3-.3s.1.2.1.4c-1.2.5-2.3.9-3.5 1.3-.1 0 0 1.7 0 1.9 0 .2.1 1.8 0 1.9.6-.2 1.3-.5 1.9-.7 0 .5-.1 1.5 0 1.5 3.6 1.6 5.9 4.9 7.6 8.3 2 3.9 3.8 8.1 5.1 12.3.7 2.2 1.2 4.5 1.6 6.8.2 1.1.3 2.2.4 3.3 0 .1.1.2 0 .5v.6-.3c-.1.7-.1 1.4-.2 2.1-.6 4.4-2.3 8.5-4.3 12.5-1.8 3.5-4.3 7.1-8.3 8.1 0-1.6-.2-3.2-.6-4.8-1.1-4.4-3.6-8.3-7.2-11.1.2.1 0 1.7 0 1.9v1.8c2.3 1.8 4.2 4.1 5.5 6.7.6 1.3 1.2 2.6 1.5 4 .2.5.3 1.1.4 1.7h-.1c-.1 0-.1.2-.1.5-.1 0-.3 0-.4-.3v1.2-.5.5c-7.9-.3-15.7-1.5-23.5-3.1-10.5-2.1-21.1-4.4-31.9-4.2-19.5.3-38.7 8.1-52.7 21.6-4.2 4-7.9 8.5-11 13.3h-.2s-.1.2-.1.4c0 .1-.1.2-.1.2-.5.1-1.3-.1-1.6-.1-1.2.2-2.1.2-3.1.2zm37.3-121.1c.4 2.3 1.3 4.6 2.9 6.2-3.4 2.3-6.2 5.3-7.4 9.5-.2.6-.1 1.3 0 2-.6.2-1.2.5-1.8.8-.1.1 0 1.7 0 1.9 0 .2.2 1.8 0 1.9 2.5-1.2 5.1-1.9 7.8-2.1-6.9 4.3-11.8 11.6-15.1 19-2.6 5.8-4.7 11.9-6.7 18-2 6.3-3.7 12.6-4.8 19.1-.9 5.6-1.3 11.3-1.2 17-.1-.3-.2-.5-.3-.8v-.2h.1c.1 0 0-3.8 0-3.8h-2c-.4-.7-.8-1.5-1-2.2.1-.2.2-.5.2-.7v-.1c0-.1 0-.1.1-.2v-3.1c0-.1-.1-.4 0-.6 0 .1 0 .2-.1.3-1.4-.5-2.8-1-4.2-1.4.4-.6.8-1.3 1.1-2 .4-1 .5-1.9.6-2.9v-2.5c2.5-6.1 4.9-12.3 7.2-18.5 5.3-14.2 10-28.6 15.5-42.8 2.7-6.9 5.5-13.7 8.6-20.4l.4-.8c-.1.9-.1 1.8-.1 2.7-.1 2.3-.2 4.6.2 6.7zM197 268.8v3.1h-.4c-2.7 0-5.4-.1-8.1-.3.8-1.7 1.5-3.3 2.2-5 2.1.8 4.2 1.5 6.3 2.2zm209 21.8c-.5 2.3-1.3 4.4-2.4 6.5-2.1 4-5.1 7.5-8.5 10.5-6.8 6.2-15 10.9-23.5 14.4-18 7.3-37.5 9.2-56.7 9.5-22 .4-44.2-.8-66 2.7-10.6 1.7-21.1 4.3-31.3 7.9-8.6 3-18.4 7.2-27.2 2.6-3.4-1.7-6.2-4.6-7.1-8.4 0-.2-.1-.4-.1-.6 0-.5.1-1.1.1-1.2.2-1.3.5-2.7.9-4 .6-2.2 1.2-4.3 2-6.5 2-5.6 4.7-10.9 7.9-15.9.1 0 .1 0 .2-.1.2-.1.3-.2.3-.4v-.1c0-.1.1-.3.1-.4 1.5-2.2 3-4.3 4.7-6.4 12-14.6 29.2-24.3 47.8-27.2 10-1.6 20-.9 29.9.8 10.6 1.8 21 4.5 31.7 5.3 18.7 1.5 37.7-3 53.9-12.4 4-2.3 7.7-4.9 11.3-7.8.2-.1 0-1.6 0-1.9 0-.3-.2-1.7 0-1.9-15 12.1-33.9 19.2-53.1 20.3-.8 0-1.6.1-2.4.1 1.8-1.6 3.2-3.7 4.2-5.9 2.3-4.4 4.1-9.2 4.5-14.1.4-4.5.2-9.2-.6-13.7-1-5.1-2.9-10-5.1-14.7-1.1-2.3-2.3-4.8-3.9-6.8 14.2 11.5 29.8 21.1 46.3 28.8 4.4 2 9 3.9 13.5 5.7 4.5 1.7 9.1 3.4 13.2 5.9 8.2 4.9 13.7 13.7 15.2 23.1.1.6.2 1.1.2 1.7 0 .3 0 .5.1.8.2 1.5.1 2.6-.1 3.8zM327.4 252v-.7c-.1-.1-.1.1 0 .7zm0-.7c-.1-.1-.1.1 0 .7v-.7zm0 0c-.1-.1-.1.1 0 .7v-.7zm0 0c-.1-.1-.1.1 0 .7v-.7zm0 0c-.1-.1-.1.1 0 .7v-.7zm0 0c-.1-.1-.1.1 0 .7v-.7zm0 0c-.1-.1-.1.1 0 .7v-.7zm0 0c-.1-.1-.1.1 0 .7v-.7zm0 0c-.1-.1-.1.1 0 .7v-.7zm0 0c-.1-.1-.1.1 0 .7v-.7z"/>
  <path fill="#FBCCAD" d="m167.2 310.8-2.3 7.5L2.1 308.2l.9-9.8 113.9 9c.2 1.4.7 2.6 1.8 3.4 2.1 1.4 5.1 1.3 7.5.9.2 0 .5 0 .7-.1 7.4 1.5 15.1.9 22.6.5 3.8-.2 7.6-.3 11.4-.5 2.2-.2 4.2-.4 6.3-.8zM117.3 278.3v.4c-1.2.3-2.2 1.1-2.8 2.2-.1.3-.3.6-.3.9v.1c.1.2.2.3.5.3s.5-.2.7-.3c.5-.2.7.1.8.5v1c0 .2 0 .4-.1.7-.3 1.6-.6 3.3-1 4.9.1-.4-.1-.8 0-1.2.2-.9.4-1.8.5-2.8.1-.6.3-1.2.4-1.9-.3-.4-1.2.5-1.7.2-.3-.2-.3-.6-.3-.9v-1.1c.1-1.2.8-2.3 1.7-3l-9.2-.7v.1c-.5 1-1.3 2.3-1.7 3.5.3 1 1 1.7 1 2.8v1.5c0 1.9-.9 3.4-1.9 4.9.5.5.7 1.9.7 2.4 0 .8 0 1.6-.1 2.4-.5 3.7-3.4 6.1-6.2 8.2.2-.2-.2-1.1 0-1.2 1.9-1.5 3.9-3 5.1-5.1.7-1.2 1.2-2.7 1.1-4-.1-.9-.9-2.3-1.8-1.3v-.6c0-.2-.1-.5 0-.6 1-1.3 2.1-2.7 2.7-4.3.2-.8.4-1.4.1-2.2-.2-.7-.8-1.2-.9-1.9v-.3.1-.1c-.2-1.5.5-3 1.2-4.3l-5.3-.4c0 .3.1.8 0 .8-1.1.4-1.4 1.3-1.8 2.3v.1c0 .2.1.5.2.7.2.5.6.8 1 1.1.5.4.7.8.8 1.3v1.1c-.1 1.1-.9 1.9-1.3 2.9.1.2.2.3.4.4.2.2.5.3.5.6.1.3 0 .8 0 1.1v.4-.1c-.1 1.2-.9 2.4-1.4 3.4.2-.3-.2-.9 0-1.2.4-.8.9-1.7 1.2-2.6-.3-.4-.8-.6-.8-1.2V287c.1-1.1.9-2 1.2-3-.4-.7-1.3-1.1-1.7-1.8-.3-.6-.3-1.3-.3-1.9 0-1.3.2-2.6 1.2-3.3l-38.6-2.8v.2c-.4.5-.8.9-1.1 1.5 0 .1-.1.2-.1.2.2.2.3.6.4.8.3.7.2 1.6.2 2.4 0 .6-.2 1.2-.4 1.7-.1.3-.2.6-.2 1v.1c.2.8.5 1.6 1.5 1.7v.1c0 .3.1 1.1 0 1.2-1 1.4-2.2 2.6-3.6 3.5.2-.1-.2-1.1 0-1.2 1.1-.7 2-1.6 2.9-2.6-1.3-.9-.8-3.8-.5-5l.3-1.2v-.1c-.1-.2-.1-.4-.2-.6-.2-.6-.4-1-.4-1.6 0-.4 0-.9.1-1.4.1-.3.2-.6.4-.9l-41.7-3c-4.9 8.4-10.1 16.6-15.5 24.8l-.1.6 15.2 1.2V292.8v4.7l98.4 7.7c0-.4 0-.7.1-.8 0-.4.1-.8.1-1.2.1-1.7.7-3.4 1.1-5 .5-1.8 1-3.5 1.7-5.3 1.8-4.9 4.1-9.6 6.9-14.1l-9.3-.5zm-90.8 3c-.2 1.9-1 3.8-2.5 5-.8.6-1.6.9-2.6 1.1-1 .2-1.8.4-2.5 1.1-.5.6-.9 1.3-1.2 2 .1.2 0 .5 0 .7v3.6c0 .1-.1.6 0 .7-.3-.9-.5-1.9-.5-2.9v-.5c-.2-.1-.2-2.9 0-3.3 0-.4 0-.9.1-1.3.1-1.7.9-3.9 2.6-4.7.9-.5 1.9-.4 2.9-.8.8-.3 1.5-.9 2.1-1.5.6-.7 1.1-1.5 1.3-2.4v-.2c-.1-.7 0-1.5 0-2.3 0-.8.2-1.8 0-2.5.2 1.1.3 2.1.3 3.2.1 1.8.1 3.4 0 5zm7.4 12.4c-.2-1-.3-2.1-.3-3.1 0 .6.2 1.3.3 1.9.1.3-.1.8 0 1.2zm4.1-9.2c-.4 1.4-1.2 2.7-2.4 3.6-.5.4-1.3.7-1.7 1.2-.2.3-.3.8-.3 1.2v-1.2c0-.8.2-1.3.9-1.8.6-.4 1.2-.7 1.7-1.2 1-1 1.6-2.4 2-3.8.4-1.7.3-2.8 0-4.5-.1-.4.1-.9 0-1.2.5 2.4.6 5.3-.2 7.7zm6.4 5.9c.2-.3-.2-.9 0-1.2.7-1.3 1.4-2.6 2-3.9.4-1 .9-2.2 1.1-3.4-.3-.7-.9-1.1-1.1-1.8-.2-.5-.1-1.1-.1-1.7 0-1.3.4-2.6 1.7-3.2-.2.1.2 1.2 0 1.2-.5.3-1 .7-1.3 1.2-.1.2-.2.5-.3.8v.2c.2.7.6 1 1 1.6.2.3.3.6.3.9V282.4v-.2c-.1 1.2-.5 2.3-.9 3.5-.7 1.6-1.5 3.1-2.4 4.7zm10-14c-.9 1.8-.3 3.8-.5 5.8-.1 1.3-.7 2.3-1.7 3.2-1 .9-2 1.6-2.4 2.9.2.8.8 1.5.8 2.4v1.4c-.1 1.4-.8 2.5-1.6 3.6-.6.8-1.4 1.6-1.7 2.6.1.2.2.2.5.3.1 0-.1 1.1 0 1.2-.9-.2-.7-2-.5-2.7.3-1 1.3-2 1.9-2.8.7-.9 1.2-1.9 1.4-3-.2-.8-.7-1.4-.8-2.3V287.6c.1-1.8 1.6-2.6 2.8-3.8 2.5-2.4.5-5.9 1.9-8.7-.3.4.1.9-.1 1.3zm12.1 3.5v1.7c0 1.4 0 2.8-.1 4.1v1.5c-.1 1.9-.2 3.9-1.3 5.5s-2.9 2.5-3.5 4.3v.1c.1.1.1.3.1.4.1.3.4.6.6.7.6.3.6.1.8-.5.2-.6.3-1.1.5-1.7-.1.4.1.9 0 1.2-.2.7-.3 1.4-.6 2-.2.4-.1.4-.5.2-.2-.1-.3-.2-.5-.3-.5-.5-.6-1.1-.6-1.7v-1.5c.1-1 .8-1.8 1.5-2.5.8-.8 1.7-1.5 2.3-2.5.6-1 .8-2.2 1-3.4.1-.7.1-1.3.2-2 0-1.4.1-2.7.1-4.1v-2.7 1.2zm10.3 13.5c.2.7.2 1.4.2 2v.4c.1.9 0 2 0 2.9 0 1-.1 1.9-.1 2.9v-1.2c0-.5.1-1.1.1-1.7v-2.9c0-.2 0-.4-.1-.6-.2-1.2-1.2-2.1-1.3-3.4V290.6c.1-.9.3-1.8.7-2.7.4-.9 1.2-2.1 1.2-3.1 0-.2 0-.1-.1-.4-.1-.3-.3-.6-.4-1-.3-.5-.6-1-.8-1.6-.5-1.5-.3-3.5.3-4.9-.1.3.2.9 0 1.2-.8 1.8-.1 2.8.7 4.4.4.8.5 1.6.5 2.5 0 2.2-1.5 3.9-1.9 6 .2.9.7 1.5 1 2.4zm12.1-2.2c.2-.2-.2-1 0-1.2.2-.2.2-.3.3-.5-.1-.4-.2-.7-.4-1.1-.3-.7-.7-1.3-.7-2 0-.6-.1-1.2.1-1.8.2-.6.5-1.2.7-1.8-.5-1.1-1.9-1.6-2.2-2.8-.1-.5-.1-1.1-.1-1.6 0-.8.5-1.5 1.1-2-.2.2.2 1 0 1.2-.4.4-.7.8-1 1.3.1.2.2.4.3.5.5.7 1.4 1.2 1.7 2 .3.6.2 1.4.2 2.1-.1.9-.6 1.6-.8 2.4.3 1 1 1.9 1.1 3 .2.6.3 1.7-.3 2.3zm3.8-3.5c-.1 1.6-.6 3.2-1 4.7-.4 1.6-.9 3.3-1.2 4.9 0 .2-.1.4-.1.5v.1c0 .2.2.8.2.9.2.5.6 1 1.1 1.3.2.1-.2 1.1 0 1.2-1-.6-1.3-1.7-1.3-2.8 0-1 0-2 .2-2.9.3-1.7.9-3.5 1.3-5.2.4-1.5 1.1-3.1.4-4.7-.1-.3.1-.8 0-1.1.5.9.5 2 .4 3.1zm20 14.1c-.5 0-.9.2-1.2.6v-1.3c.3-.4.7-.6 1.2-.6v-2V301.8zM125 258.1c0 .1-.1.2-.1.3 0-.1 0-.2.1-.3l-52.4-2.8c.1 0 .2.1.3.1.2.1-.2 1.2 0 1.2-1.4-.7-3.2-.3-3.7 1.2.1.3.3.6.5.9.2.4.4.9.4 1.4 0 .8.1 1.6-.1 2.4-.3 1.2-1 2.2-1.7 3.2-.3.5-.7 1-.9 1.5 0 .1-.1.2-.1.3l.1.1c.2.1-.1.9 0 1.2-.4-.4-.2-1.1-.2-1.6 0-.8.4-1.4.8-2.1.5-.8 1.1-1.5 1.5-2.4.2-.4.4-.8.5-1.2 0-.1.1-.4.2-.6v-.3c-.2-.8-.9-1.3-.9-2.2v-1.5c.1-1 .8-1.6 1.6-1.8L31 253.2l-2.5-.1c0 .4 0 .7-.1.9-3 5.5-6.1 11-9.3 16.4l25.3 1.9c0-.3-.1-.6 0-.8.7-1 1.4-1.9 2.1-2.9-.5-.8-.5-2-.3-2.8.2-.9.9-1.6 1.6-2.3.8-.7 1.5-1.5 1.8-2.5 0-.1.1-.2.1-.4-.1-.2-.1-.4-.2-.6-.2-.4-.5-.8-.9-1-.4-.2-.7-.2-.8-.7V257c0 .1 0 .1.1.1.3-1.5 1.8-2.5 3.3-2.7-.1 0 .1 1.2 0 1.2-1.1.2-2.4.8-3 1.8.3.2.8.4 1 .7.4.4.6 1 .6 1.5.1.8.1 1.8-.1 2.5-.5 1.4-1.7 2.2-2.6 3.3-.2.3-.4.5-.6.9-.1.1-.1.3-.2.4.1.2.2.5.2.5.2.2.4.4.6.5v1.2c-.8 1.1-1.5 2.1-2.3 3.2l13.3 1c-.3-.4-.4-.9-.5-1.4-.1-.5-.1-.9-.1-1.4-.1.2-.1-.6 0-.6 0-.4 0-.9.3-1.2.4-.5 1.2-.5 1.8-.8.6-.3 1.1-.8 1.5-1.4.9-1.4 1.1-3.1 1.2-4.7v1.2c-.2 2.4-.6 5.7-3.4 6.4-.6.2-.9.3-1.2.8v.1c.1.3.1.6.2.9.3 1 1.4 2.2 2.5 1.3-.1.1 0 .5 0 .6v.3l1 .1.3-.3c-.1.1-.1.2 0 .3l45 3.3c.1-.1.2-.3.2-.4-.1.1-.1.3 0 .4l10.5.8c.1 0 .2-.1.3-.1v.1l9.8.7c.5-.9 1.1-1.7 1.7-2.5 1.1-1.5 2.2-3 3.3-4.4.9-1.1 1.8-2.4 3.1-3.1 2.6-1.5 5.1.7 6.2 3 1.2 2.4 1.3 5.4 3 7.6.2.3.5.9 1 .6.1-.1 0-1.2 0-1.4 0-.8.1-1.6.1-2.3.1-1.7.2-3.5.3-5.2.3-3.7.7-7.5 1.1-11.2l-22.3-1.1zm-83.6 4.4c-.4.3-.8.5-1.3.6-.1 0-.6-.1-.7 0-.1.1-.1.7-.2.9-.2 1.3-.5 2.5-.9 3.7.1-.4-.1-.9 0-1.2.3-1 .6-1.9.8-2.9.1-.5.2-1 .3-1.4 0-.1 0-.2.1-.2h.8c.8-.2 1.4-.7 1.8-1.4.2-.4.4-.8.5-1.2 0-.2.1-.4.1-.6V257c0 1.6.3 4.2-1.3 5.5zm40.2 4.4c-.2.6-.6 1.3-1.2 1.6-.7.3-1.4.1-2 .8-.1.1-.2.3-.2.4 0 0-.1.2-.1.4v.1c0 .2.1.4.2.6.1.3.3 1 .6 1.2.1.2.1.1.2-.1 0-.1.1-.2.2-.2.2-.2.3-.5.5-.7-.2.3.2 1 0 1.2-.2.2-.3.5-.5.7-.1.1-.2.2-.2.4 0 .1-.1.2-.1 0-.2-.1-.5-.9-.6-1.2-.2-.5-.3-1.1-.3-1.6 0-1 0-2.4 1.1-2.8.7-.3 1.4-.1 2-.8.4-.6.6-1.3.8-2 .5-1.9.5-3.8.1-5.7-.1-.4.1-.8 0-1.2.5 2.6.5 6.1-.5 8.9zm18.2-7.4c-1.3-.6-2.7-.2-3.8.6-.6.5-1.1 1-1.6 1.6-.2.3-.5.6-.7.9.3.2.7.3 1 .5.4.3.7.7.7 1.2.1.7.1 1.5 0 2.1-.2 1.3-1.3 2.1-2 3.1-.4.5-.8 1.1-.9 1.8v.4c.1.3.2.7.3 1 .1.3-.1.8 0 1.1-.7-1.5-.6-3.7.3-5 .6-.9 1.5-1.6 2-2.5l.3-.6c0-.1 0-.1.1-.2 0-.1 0-.2-.1-.3-.1-.2-.2-.4-.4-.5-.6-.6-1.4-.4-1.5-1.3v-1.2.1c0-.4.1-.7.4-1.1 1.3-1.8 3.5-4 5.9-2.9.1 0-.2 1.1 0 1.2zm10.6 8.3c-.6.7-1.3 1.3-2 1.8-.8.5-1.6 1-1.9 2 0 .1 0 .2-.1.2 0 .2.1.4.1.4.2.4.4.7.8 1 .7.5 1.6.7 2.5.4v-.9c.2-.3.5-.7.7-1v1.2c-.2.3-.4.7-.6 1 0 .4.1.8 0 .9-1.8.6-3.4-.7-3.5-2.5v-1.5c.1-.9.7-1.6 1.4-2.1 1.5-1.1 2.8-2.1 3.8-3.8.4-.8.8-1.6 1-2.4.1-.5.2-.9.2-1.4v-.5c0-.2 0-.4-.1-.6-.1-.4.1-.9 0-1.2.3 3.1-.3 6.5-2.3 9z"/>
  <path fill="#FDEBE3" d="M220.6 205.6c2.5-1.2 5.1-1.9 7.8-2.1-6.9 4.3-11.8 11.6-15.1 19-2.6 5.8-4.7 11.9-6.7 18-2 6.3-3.7 12.6-4.8 19.1-.9 5.6-1.3 11.3-1.2 17-.1-.3-.2-.5-.3-.8v-.2h.1c.1 0 0-3.8 0-3.8h-2c-.4-.7-.8-1.5-1-2.2.1-.2.2-.5.2-.7v-.1c0-.1 0-.1.1-.2v-3.1c0-.1-.1-.4 0-.6 0 .1 0 .2-.1.3-1.4-.5-2.8-1-4.2-1.4.4-.6.8-1.3 1.1-2 .4-1 .5-1.9.6-2.9v-2.5c2.5-6.1 4.9-12.3 7.2-18.5 5.3-14.2 10-28.6 15.5-42.8 2.7-6.9 5.5-13.7 8.6-20.4l.4-.8c-.1.9-.1 1.8-.1 2.7 0 2.2-.1 4.5.2 6.7.4 2.3 1.3 4.6 2.9 6.2-3.4 2.3-6.2 5.3-7.4 9.5-.2.6-.1 1.3 0 2-.6.2-1.2.5-1.8.8-.1.1 0 1.7 0 1.9-.1.2.1 1.8 0 1.9z"/>
  <path fill="#EF7F07" d="M34.6 97.9c-2.8-2.9-7.7-3.4-11.5-3.6-3.7-.2-7.5 0-11.1.6 2.3-1.5 4.5-3.2 6.6-5.1 4.3-3.7 8.2-7.8 12.1-12 .2-.2.6-1.3.6-1.6v-1c0 .8.1 1.5.1 2.3.3 6.4 1.2 12.9 2.9 19.1 0 .5.2.9.3 1.3z"/>
  <path fill="#E4610E" d="M47.2 121.5c-1.7-.6-3.5-1.2-5.2-1.7-4.1-1.2-8.3-1.9-12.4-3.2-7-2.1-13.4-6-18.4-11.2-1.4-1.4-2.6-2.9-3.8-4.5-.3-.4-.5-.7-.8-1.1 5.4-1.4 11-2 16.5-1.7 4.5.2 10.6.8 12.8 5.4-.2-.3 0-1.1 0-1.6 2.5 7.1 6.3 13.8 11.3 19.6zM155.8 205.9c-2.3 14.4-5.3 28.7-7.4 43.1-.4 2.8-.8 5.5-1.1 8.3l-21.4-1.1c4.5-11.2 6.8-23.1 9.4-34.9l8.7-39.9c1.6-7.5 3.2-14.9 4.8-22.3.1-.4.1-.8 0-1.2 3.1 2.9 6.8 5.1 10.8 4.2.5 14.6-1.5 29.3-3.8 43.8z"/>
  <path fill="#EF7F07" d="M406.4 287.1c-.1 1.2-.2 2.3-.5 3.5-.5 2.3-1.3 4.4-2.4 6.5-2.1 4-5.1 7.5-8.5 10.5-6.8 6.2-15 10.9-23.5 14.4-18 7.3-37.5 9.2-56.7 9.5-22 .4-44.2-.8-66 2.7-10.6 1.7-21.1 4.3-31.3 7.9-8.6 3-18.4 7.2-27.2 2.6-3.4-1.7-6.2-4.6-7.1-8.4 0-.2-.1-.4-.1-.6 0-.5.1-1.1.1-1.2.2-1.3.5-2.7.9-4 .6-2.2 1.2-4.3 2-6.5 2-5.6 4.7-10.9 7.9-15.9.1 0 .1 0 .2-.1.2-.1.3-.2.3-.4v-.1c0-.1.1-.3.1-.4 1.5-2.2 3-4.3 4.7-6.4 12-14.6 29.2-24.3 47.8-27.2 10-1.6 20-.9 29.9.8 10.6 1.8 21 4.5 31.7 5.3 18.7 1.5 37.7-3 53.9-12.4 4-2.3 7.7-4.9 11.3-7.8.2-.1 0-1.6 0-1.9 0-.3-.2-1.7 0-1.9-15 12.1-33.9 19.2-53.1 20.3-.8 0-1.6.1-2.4.1 1.8-1.6 3.2-3.7 4.2-5.9 2.3-4.4 4.1-9.2 4.5-14.1.4-4.5.2-9.2-.6-13.7-1-5.1-2.9-10-5.1-14.7-1.1-2.3-2.3-4.8-3.9-6.8 14.2 11.5 29.8 21.1 46.3 28.8 4.4 2 9 3.9 13.5 5.7 4.5 1.7 9.1 3.4 13.2 5.9 8.2 4.9 13.7 13.7 15.2 23.1.1.6.2 1.1.2 1.7.5.5.5.8.5 1.1z"/>
  <path fill="#EF7F07" d="M323.3 211.2c2-.8 4.1-1.5 6.1-2.4h.1c-1.6-.5-3.2-1.3-4.1-1.7-3.3-1.5-6.5-3-9.6-4.9-6.1-3.6-11.6-8.3-15.3-14.3-.2-.4 0-1.4 0-1.9 0-.4.2-1.6 0-1.9l1.2 1.8c-1.1-9-2.3-18.1-3.7-27.1-2.7-16.8-6.3-33.5-12.3-49.3-5.6-14.7-13.2-28.8-23.5-40.7-.1.2-.2.3-.2.5.1-.1 0-.4 0-.5v-3.1l2.7-5.4c-1.4.8-2.9 1.4-4.4 1.6-1.5.2-3.3.3-4.8-.2-.3-.1-.5-.2-.6-.5-.1-.2 0-.6 0-.9-5.7-4.5-12.1-8-18.5-11.4-6.5-3.4-13-6.9-19.8-9.7-6.8-2.8-13.9-5.1-21-7.1-7-2-14-3.9-21.1-5.6-7.2-1.7-14.7-2.8-22-1.2.1 0 .1-.3 0-.7-.4 1.6-1 3.2-2.3 3.9.2-.1 0-1.7 0-1.9 0-.2-.1-1.8 0-1.9 1.5-.9 1.9-2.9 2.4-4.4.5-1.9.7-3.8 1-5.8 0-.5-.1-1-.1-1.5-.1-1-.3-1.9-.5-2.9-.3-1.3-.7-2.6-1.2-3.9-.1.6-.3 1.3-.5 1.9-1.3 3.4-4.1 6.2-7.1 8.2-3.5 2.2-7.5 3.5-11.4 4.8-1.8.6-3.6 1-5.4 1.1 5.6 4.5 10.4 10.1 13.5 16.6 6.4-5 13.3-9.4 20.7-12.9-.2.1.2 1.2 0 1.2-7.2 3.4-14 7.6-20.3 12.5.5 1.1 1 2.2 1.4 3.3.2.5 0 1.3 0 1.9 0 .5-.2 1.4 0 1.9-.8-2.1-1.7-4.1-2.7-6-12.1 9.8-22.2 21.8-30.4 35.1-8.6 14-15.1 29.1-20.4 44.7v.6c0-.1 0-.3-.1-.4l-.1.4c.1-.4-.1-.9 0-1.2v-.4c0 .5-.1 1-.1 1.5v-1.9c-1.1-7.9-1.9-15.8-2.2-23.8-.9-26.9 3.9-54.9 21-76.4-.2.2.2 1 0 1.2-4.3 5.4-7.9 11.3-10.8 17.5-11.8 25.2-11.8 53.6-8 80.7.5-6.9 1.1-13.9 1.9-20.8C93.9 73 100.8 48 117.4 29c-.2.2.2 1 0 1.2-4.4 5-8.1 10.5-11.3 16.4C94 68.6 90.7 94 89 118.7c0 .3.1.5.1.8 3-8.7 6.3-17.3 10.2-25.7 6.8-14.7 15.4-28.6 26.2-40.6 4.3-4.8 8.9-9.2 13.9-13.2-3.4-6.5-8.4-11.8-14.2-16-16.6-11.9-37.5-13.8-57.3-11.5-17.9 2.1-35.1 7.3-52.7 10.8 12 1.5 23.8 3.7 35.6 6.6 5.3 1.3 10.9 2.8 14.3 7.4 2.3 3 3 6.4 3.2 9.9.1.1.1 2.2 0 2.4 0 .5 0 1.1-.1 1.6V49c0-.2-.1-.5-.1-.7-.1-.6-.2-1.2-.4-1.8-.3-1.2-.8-2.3-1.3-3.3-.1-.1-.1-.2-.2-.3v.2c-.9 2-2.5 3.5-4.2 4.7-1.8 1.3-3.7 2.6-5.9 3-2 .3-4-.5-5.1-2.2-.4-.6-.5-1.3-.6-2v-.7c0-.8-.1-1.8 0-2.6l-.2 1.5v.2c-.3.6-.5 1.2-.7 1.8-.1.2-.1.5-.2.6v.2c.3 1.5 1 2.9 2 4 2.1 2.2 5.6 3.1 8.5 1.7v1.8c0 .2.1 1.8 0 1.9-.5.3-1.1.4-1.7.5v.2c-.7.3-1.2.8-1.5 1.4.3.6.6 1.1 1 1.6 1.5 1.8 3.6 3 6 3.4v-2.5c0-.2 0-.5.1-.7.1-.5.3-1 .6-1.4.6-.9 1.3-1.7 2.1-2.4v3.6c-.7.6-1.3 1.2-1.8 2-.1.2-.2.3-.4.5.6.8 1.6 1.3 2.5.9V67.9c-.8.4-1.7 0-2.3-.6 0 0-.1-.1-.1-.2v.7c-3-.3-6-2-7.5-4.7-.4-.7-.6-1.4-.7-2.1-.1-1.2-.1-2.5 0-3.7-2.3-.3-4.5-1.6-5.7-3.5-1-1.6-1.2-3.4-1.3-5.2-.1.3-.1-2.2 0-2.6-8.6 11.2-16.4 11.7-16.4 11.7.2.2 0 1.7 0 1.9 0 .2-.1 1.8 0 1.9-.3-.1-.5-.3-.8-.5v1c-.2 1.8-.3 3.6-.4 5.4 0 .9-.1 1.8-.1 2.6.2 1.4.1 1.2 0 .7v.5c.1 3.5.4 7 .9 10.5 1.7 11.6 5.8 23 13.1 32.3 7.5 9.5 18.1 16.3 29.8 19.2 0-.5.1-1 .2-1.6.1-.5.2-1 .4-1.5.1-.3.2-.5.3-.8.1-.3.1-.3.4-.3 1.5.1 2.6 1.9 3.4 3 1 1.4 2 2.7 3.7 3.4.8.3 1.6.6 2.5.6l2.7-.3c6.5-1.4 12.8-3.3 19.1-5.5 5.8-2.1 11.4-4.5 16.8-7.2 2.7-1.4 5.4-2.8 8-4.3 2.5-1.4 5-2.8 6.1-5.7 1.1-2.9 1.7-6.1 2.5-9.1l2.4-9.9c.4-1.7.8-3.4 1.2-5.2.5-2.3 1.1-4.5 1.6-6.8.5-2.1 1-4.2 1.4-6.3.1-.3.2-.6.2-1v.2c2.6 13.9 13.2 25.7 26.6 30.1 3.9-9.4 10.4-17.7 18.5-23.8.2-.5.3-.9.5-1.4-.1.3-.1.7 0 1 1-.8 2-1.5 3.1-2.2-.2.1 0 1.7 0 1.9 0 .2.2 1.8 0 1.9-1.2.8-2.4 1.6-3.5 2.5-4 11-7.2 22.2-9.5 33.7.2-1.2-.2-2.5 0-3.8 2-9.7 4.6-19.2 7.7-28.5-6.3 5.2-11.5 11.7-15.2 19.1.2.1.4.1.6.2.3.1-.3 3.7 0 3.8l-2.1-.6c0 .1-.1.2-.1.3 0-.1 0-.2.1-.3-13.4-4.4-23.9-16.2-26.5-30v-.1c-1.6 7.2-3.3 14.4-5.1 21.5-.8 3.3-1.6 6.6-2.5 9.9-.7 2.7-1.1 6-2.7 8.4.6 1.9.7 4.1.7 5.9.1 3.1.3 6.4-.7 9.3-.5 1.3-1.2 2.5-2.2 3.5 2.3-.1 4.5-1.1 6.8-1.5.1-.3.2-.5.4-.8-.1.2-.1.5 0 .8.2 0 .4-.1.6-.1-.1 0 .2 3.7 0 3.8-.3 0-.7.1-1 .2-.4.9-.7 1.9-.8 2.9v.4c.1.6.2 1.2.5 1.8.9 2.6 2.7 4.7 4.5 6.7 3.3 3.5 7.8 7.8 13 6.6v-1.2 1.2l.9-.3v-.8c.1.3.2.5.2.8.1.3.2 3.7 0 3.8-.3.1-.6.2-1 .3.2 7.3 0 14.6-.6 21.9-1.3 16.6-4.5 33-7.4 49.4-3 16.6-5.8 33.3-6.2 50.2v.1c-2.2-1.9-2.5-4.7-3.4-7.3-.8-2.2-2.7-5.2-5.4-4.8-1.4.2-2.5 1.3-3.4 2.3l-2.7 3.3c-1.7 2.2-3.3 4.6-4.8 7-3 5-5.4 10.3-7.1 15.9-.5 1.5-.9 3-1.2 4.5-.1.2-.1.5-.2.8.8 1.8 2.8 2.5 4.6 2.7 1.1.1 2.2.1 3.2 0 .3 0 .6-.1.9-.1 0-.2 0-.3-.1-.3.3.1.6.1.8.2.2-.1.2-.1.4-.5l.3-.9c1.2-3.3 2.4-6.6 3.5-9.9-.2.5 0 1.4 0 1.9s.2 1.4 0 1.9l-2.4 6.6c-.1.4-.3.8-.4 1.2 7 1.1 14.2.6 21.2.3 3.9-.2 7.8-.3 11.6-.5 2.6-.1 5.2-.4 7.6-1 0-.4-.1-.9 0-1.2.1-.3.4-.7.6-.3.1.2.1.4.1.7.3-.2.7-.7 1-1.2v-.2h.1c.5-.8.9-1.5 1-1.7 1-1.8 1.9-3.7 2.8-5.5 1.8-3.5 3.6-7.1 5.3-10.6 2.3-4.8 4.6-9.6 6.8-14.5v-.6h.2c1.1-2.3 2.1-4.7 3.1-7 .1-.3.2-.6.3-.8v-.9c.2-.1.4-.2.5-.4 5.4-12.6 10.4-25.3 15-38.2 4.8-13.5 9.5-27.1 14.9-40.4 5.2-12.7 11.6-24.8 17.1-37.3 5.4-12.2 9.7-25 10.1-38.5v3.6c-.4 15.6-6.1 30.3-12.6 44.2-2.7 5.8-5.5 11.4-8.2 17.2v1.1l-.3 2.7c0 .5-.1 1-.1 1.5v.5c0 .4.1.9.2 1.3.1.6.3 1.2.5 1.9.9 2.5 2.4 4.6 4.8 5.8 0 0 .1.2.1.4 2.6-1.3 5.4-2.2 8.2-2.8 4.4-.9 9-1.5 13.5-1.6 2.2-.1 4.3.2 6.3 1.2 1.4.7 2.6 1.6 3.9 2.4-.7-1.8-1.2-3.7-1.3-5.8 0-.1 0-.3.1-.5 0 .2-.1.4-.1.5v-.3c0-1.7-.1-3.4.3-5 .4-1.9 1.3-3.7 2.3-5.3 3.7-6.6 8.6-12.6 14.2-17.6-.1.1-.1.6 0 1 .4-.5.8-.9 1.2-1.3-.2.2 0 1.5 0 1.9s.2 1.7 0 1.9c-2.8 3-5.3 6.4-6.8 10.2-.4 1-.7 2-.9 3-.1.4-.1.8-.2 1.2v.1c.3 2 1.1 3.9 2.1 5.6 2 3.7 4.5 7.4 7.4 10.5 2.3 2.4 6.3 5.2 9.3 2.2-.2.2 0 1.6 0 1.9s.2 1.7 0 1.9c-3 3.1-7.2.1-9.5-2.3-2.6-2.8-4.8-6-6.7-9.3-1.8-3-2.8-6-2.8-9.5 0-3.4.2-6.6 1.6-9.8-2.7 2.9-5.1 6.1-7.2 9.4-1.7 2.6-3.5 5.5-4.1 8.6 0 .3.1.6.1.7.2.8.4 1.6.8 2.3.6 1.6 1.5 3.1 2.3 4.6.2.4 0 1.4 0 1.9 0 .4-.2 1.5 0 1.9-.1-.2-.2-.4-.4-.7v1.1c-2.1-.9-3.7-2.4-5.7-3.4s-4.1-1.3-6.3-1.2c-4.5.1-9.1.7-13.5 1.6-7 1.4-14.3 5-17.4 11.6 3.9-1.3 8.2-1.4 12.2-.3.8-.2 1.5-.4 2.3-.5-.1 0 0 .6 0 1.3.7.3 1.5.7 2.2 1.1.2.1 0 1.7 0 1.9 0 .2-.1 1.8 0 1.9-1.4-.8-2.9-1.4-4.4-1.8-4.8 1.3-9 4-12.5 7.5-8 8-11.8 19.4-15.3 29.9-1.9 5.6-3.6 11.4-4.8 17.2-.6 3-1.1 6-1.5 9-.2 1.7-.3 3.4-.5 5 0 .7-.1 1.4-.1 2.1v5.6-1c0 .4-.1.8 0 1-.5-1-.6-1.9-.6-3-.2 0-.2-1.4-.1-1.9h-1.3v.5c-.1-.2-.2-.4-.4-.5-3.8 0-7.6-.1-11.4-.4-.6 1.4-1.3 2.9-1.9 4.3-3.1 6.8-6.4 13.5-9.8 20.1-.8 1.6-1.6 3.1-2.4 4.7 3.5-.1 7-.2 10.4-.1 2.1 0 4.3 0 6.4.1 1 0 1.9 0 2.8.1.3 0 1.1.2 1.6.1 0-.1.1-.2.1-.2 0-.2 0-.4.1-.4h.2c3.2-4.8 6.9-9.3 11-13.3 14-13.5 33.2-21.3 52.7-21.6 10.8-.2 21.4 2.2 31.9 4.2 7.8 1.5 15.6 2.8 23.5 3.1v-.5.5-1.8c.1.2.3.3.4.3 0-.3 0-.5.1-.5h.1c-.1-.6-.2-1.1-.4-1.7-.4-1.4-.9-2.7-1.5-4-1.3-2.6-3.2-4.9-5.5-6.7v-1.8c0-.2.2-1.8 0-1.9 3.6 2.8 6.1 6.8 7.2 11.1.4 1.6.5 3.2.6 4.8 4-1 6.5-4.6 8.3-8.1 2-3.9 3.7-8.1 4.3-12.5.1-.7.1-1.4.2-2.1-.1-.6-.1-.8 0-.7-.1-1.1-.2-2.2-.4-3.3-.4-2.3-.9-4.6-1.6-6.8-1.3-4.2-3-8.4-5.1-12.3-1.8-3.4-4.1-6.7-7.6-8.3-.1 0-.1-1 0-1.5-.6.2-1.3.5-1.9.7.1 0 0-1.7 0-1.9 0-.2-.1-1.8 0-1.9 1.2-.5 2.3-.9 3.5-1.3 0-.2 0-.3-.1-.4l.3.3c3.4-1 6.3-2.2 9.3-3.3zM80.3 122c-3.7.7-7.4.5-11-.6v.9c-3.8 0-6.8-2.7-8.5-5.8-.9-1.7-1.4-3.5-1.5-5.4v-.6c-.1.1-.3.2-.4.3.2-.2 0-1.5 0-1.9 0-.3-.2-1.6 0-1.9l.3-.3c0-.4.1-.9.1-1.3.6-4.2 4.1-6.2 7.8-7.4 4.4-1.5 9-2.5 13.6-3.2-.1 0 .2 3.7 0 3.8-4.1.6-8.1 1.4-12 2.7-3 .9-6.4 2.1-8.2 4.9 1.3-.4 3-.3 4.2-.3 2.4-.1 4.8.1 7.1.3 3.8.4 7.9.8 11.5 2.3 1.5.6 3.4 1.6 4 3.2.5 1.4.2 3.2.2 4.6-.2 3.8-4 5-7.2 5.7zm8.3-.4c-.3 1.2-1.4 2.2-2.6 2.4v-1.2c1.2-.2 2.3-1.2 2.6-2.4V121.6zm3.4-5.9 1.3-1.3v1.3c-.5.4-.9.9-1.3 1.3v-1.3zm2.4 10.6c-.4.7-.9 1.3-1.3 2V127c.4-.7.9-1.3 1.3-2v1.3zm151.3-16.8c0 .4-.1.8-.4 1.2-.7 1.2-1.8 2.2-2.6 3.3-.9 1.1-1.8 2.3-2.7 3.4-3.8 4.7-7.6 9.3-11.4 13.8.2-.2 0-1.5 0-1.9 0-.3-.2-1.6 0-1.9 3.1-3.6 6.1-7.3 9.1-11 1.5-1.9 3-3.7 4.5-5.6.7-.9 1.5-1.8 2.2-2.7.3-.3.6-.7.8-1.1 0-.2.1-1.8 0-1.9.8.3.5 2 .5 2.7 0 .6.1 1.1 0 1.7z"/>
  <path fill="#E4610E" d="M65.1 41c-.6.8-1.3 1.5-2.1 2.1-1.4 1.2-3 2.3-4.7 3-1.6.7-3.4 1.1-5.1.4-.7-.3-1.4-.8-1.9-1.4-.4-.5-.6-1.1-.8-1.5v-1.2c0-.2-.1-.4 0-.5v.1c-.1.4-.1.7-.2 1.1l-.2 1.5v-3.1c0-.1-.1-.4 0-.5-.8 1.7-1.1 3.4-1.1 5.2-8.6 11.2-16.4 11.7-16.4 11.7-.3-.2-.6-.3-.9-.5v-.1.1c-13-7-23.6-18.2-30-31.6.3-.1.7-.1 1.1-.1 1.3 0 2.6.2 3.9.4 2.7.3 5.5.6 8.2.9 5.5.7 10.9 1.5 16.4 2.5 5.4 1 10.8 2.1 16.2 3.3 4.8 1.1 10.1 2 14.3 4.9 1.2.9 2.3 2.1 3.3 3.3z"/>
  <path fill="#1D1D1B" d="M87.4 116.3c-.1 3.7-3.9 5-7 5.6-3.7.7-7.4.5-11-.6v.9c-3.8 0-6.8-2.7-8.5-5.8-.9-1.7-1.4-3.5-1.5-5.4v-.6c-.1.1-.3.2-.4.3.2-.2 0-1.5 0-1.9 0-.3-.2-1.6 0-1.9l.3-.3c0-.4.1-.9.1-1.3.6-4.2 4.1-6.2 7.8-7.4 4.4-1.5 9-2.5 13.6-3.2-.1 0 .2 3.7 0 3.8-4.1.6-8.1 1.4-12 2.7-3 .9-6.4 2.1-8.2 4.9 1.3-.4 3-.3 4.2-.3 2.4-.1 4.8.1 7.1.3 3.8.4 7.9.8 11.5 2.3 1.5.6 3.4 1.6 4 3.2.3 1.5 0 3.3 0 4.7zM26.5 281.3c-.2 1.9-1 3.8-2.5 5-.8.6-1.6.9-2.6 1.1-1 .2-1.8.4-2.5 1.1-.5.6-.9 1.3-1.2 2 .1.2 0 .5 0 .7v3.6c0 .1-.1.6 0 .7-.3-.9-.5-1.9-.5-2.9v-.5c-.2-.1-.2-2.9 0-3.3 0-.4 0-.9.1-1.3.1-1.7.9-3.9 2.6-4.7.9-.5 1.9-.4 2.9-.8.8-.3 1.5-.9 2.1-1.5.6-.7 1.1-1.5 1.3-2.4v-.2c-.1-.7 0-1.5 0-2.3 0-.8.2-1.8 0-2.5.2 1.1.3 2.1.3 3.2.1 1.8.1 3.4 0 5zM33.9 293.7c-.2-1-.3-2.1-.3-3.1 0 .6.2 1.3.3 1.9.1.3-.1.8 0 1.2zM38 284.5c-.4 1.4-1.2 2.7-2.4 3.6-.5.4-1.3.7-1.7 1.2-.2.3-.3.8-.3 1.2v-1.2c0-.8.2-1.3.9-1.8.6-.4 1.2-.7 1.7-1.2 1-1 1.6-2.4 2-3.8.4-1.7.3-2.8 0-4.5-.1-.4.1-.9 0-1.2.5 2.4.6 5.3-.2 7.7zM46.3 278.4v.2c.2.7.6 1 1 1.6.2.3.3.6.3.9V282.4v-.2c-.1 1.2-.5 2.3-.9 3.5-.6 1.7-1.4 3.2-2.3 4.8.2-.3-.2-.9 0-1.2.7-1.3 1.4-2.6 2-3.9.4-1 .9-2.2 1.1-3.4-.3-.7-.9-1.1-1.1-1.8-.2-.7-.2-1.3-.1-1.8-.1-1.4.3-2.6 1.6-3.2-.2.1.2 1.2 0 1.2-.5.3-1 .7-1.3 1.2-.1.2-.2.5-.3.8zM54.4 276.4c-.9 1.8-.3 3.8-.5 5.8-.1 1.3-.7 2.3-1.7 3.2-1 .9-2 1.6-2.4 2.9.2.8.8 1.5.8 2.4v1.4c-.1 1.4-.8 2.5-1.6 3.6-.6.8-1.4 1.6-1.7 2.6.1.2.2.2.5.3.1 0-.1 1.1 0 1.2-.9-.2-.7-2-.5-2.7.3-1 1.3-2 1.9-2.8.7-.9 1.2-1.9 1.4-3-.2-.8-.7-1.4-.8-2.3V287.6c.1-1.8 1.6-2.6 2.8-3.8 2.5-2.4.5-5.9 1.9-8.7-.3.4.1.9-.1 1.3zM66.5 281.5c0 1.4 0 2.8-.1 4.1.1-1.3.1-2.7.1-4.1zM66.4 285.7v1.5c-.1 1.9-.2 3.9-1.3 5.5s-2.9 2.5-3.5 4.3v.1c.1.1.1.3.1.4.1.3.4.6.6.7.6.3.6.1.8-.5.2-.6.3-1.1.5-1.7-.1.4.1.9 0 1.2-.2.7-.3 1.4-.6 2-.2.4-.1.4-.5.2-.2-.1-.3-.2-.5-.3-.5-.5-.6-1.1-.6-1.7v-1.5c.1-1 .8-1.8 1.5-2.5.8-.8 1.7-1.5 2.3-2.5.6-1 .8-2.2 1-3.4.2-.5.2-1.2.2-1.8zM66.5 279v2.6-2.7.1zM76.9 301.6v-1.2c0-.5.1-1.1.1-1.7 0 1-.1 2-.1 2.9zM77 298.7v-2.9c.2 1 .1 2 0 2.9zM76.8 293.4c.2.7.2 1.4.2 2v.4c0-.2 0-.4-.1-.6-.2-1.2-1.2-2.1-1.3-3.4V290.6c.1-.9.3-1.8.7-2.7.4-.9 1.2-2.1 1.2-3.1 0-.2 0-.1-.1-.4-.1-.3-.3-.6-.4-1-.3-.5-.6-1-.8-1.6-.5-1.5-.3-3.5.3-4.9-.1.3.2.9 0 1.2-.8 1.8-.1 2.8.7 4.4.4.8.5 1.6.5 2.5 0 2.2-1.5 3.9-1.9 6 .2.9.7 1.5 1 2.4zM88.9 291.2c.2-.2-.2-1 0-1.2.2-.2.2-.3.3-.5-.1-.4-.2-.7-.4-1.1-.3-.7-.7-1.3-.7-2 0-.6-.1-1.2.1-1.8.2-.6.5-1.2.7-1.8-.5-1.1-1.9-1.6-2.2-2.8-.1-.5-.1-1.1-.1-1.6 0-.8.5-1.5 1.1-2-.2.2.2 1 0 1.2-.4.4-.7.8-1 1.3.1.2.2.4.3.5.5.7 1.4 1.2 1.7 2 .3.6.2 1.4.2 2.1-.1.9-.6 1.6-.8 2.4.3 1 1 1.9 1.1 3 .2.6.3 1.7-.3 2.3zM90.5 297.8s0 .1 0 0c0 .3.2.9.2 1 .2.5.6 1 1.1 1.3.2.1-.2 1.1 0 1.2-1-.6-1.3-1.7-1.3-2.8 0-1 0-2 .2-2.9.3-1.7.9-3.5 1.3-5.2.4-1.5 1.1-3.1.4-4.7-.1-.3.1-.8 0-1.1.4 1 .4 2.1.4 3.1-.1 1.6-.6 3.2-1 4.7-.4 1.6-.9 3.3-1.2 4.9-.1.2-.1.3-.1.5zM112.7 300.8v1.1c-.5 0-.9.2-1.2.6v-1.3c.3-.4.7-.6 1.2-.6v-2 2.2zM41.4 262.5c-.4.3-.8.5-1.3.6-.1 0-.6-.1-.7 0-.1.1-.1.7-.2.9-.2 1.3-.5 2.5-.9 3.7.1-.4-.1-.9 0-1.2.3-1 .6-1.9.8-2.9.1-.5.2-1 .3-1.4 0-.1 0-.2.1-.2h.8c.8-.2 1.4-.7 1.8-1.4.2-.4.4-.8.5-1.2 0-.2.1-.4.1-.6V257c0 1.6.3 4.2-1.3 5.5zM82 257.7c.1.4-.1.9 0 1.2.4 1.9.3 3.8-.1 5.7-.2.7-.4 1.4-.8 2-.5.7-1.2.5-2 .8-1.2.5-1.1 1.8-1.1 2.8 0 .6.1 1.1.3 1.6.1.3.3 1 .6 1.2 0 .2.1.1.1 0 .1-.1.1-.2.2-.4.2-.2.3-.5.5-.7.2-.3-.2-1 0-1.2-.2.2-.3.5-.5.7 0 .1-.1.2-.2.2-.1.3-.1.3-.2.1-.2-.1-.5-.9-.6-1.2-.1-.2-.1-.4-.2-.6v-.1c0-.1.1-.3.1-.4.1-.1.1-.3.2-.4.5-.7 1.2-.5 2-.8.7-.2 1-.9 1.2-1.6 1.1-2.5 1.1-6 .5-8.9zM78.1 270c-.1-.3-.1-.2 0 0zM99.8 259.5c-1.3-.6-2.7-.2-3.8.6-.6.5-1.1 1-1.6 1.6-.2.3-.5.6-.7.9.3.2.7.3 1 .5.4.3.7.7.7 1.2.1.7.1 1.5 0 2.1-.2 1.3-1.3 2.1-2 3.1-.4.5-.8 1.1-.9 1.8v.4c.1.3.2.7.3 1 .1.3-.1.8 0 1.1-.7-1.5-.6-3.7.3-5 .6-.9 1.5-1.6 2-2.5l.3-.6c0-.1 0-.1.1-.2 0-.1 0-.2-.1-.3-.1-.2-.2-.4-.4-.5-.6-.6-1.4-.4-1.5-1.3v-1.2.1c0-.4.1-.7.4-1.1 1.3-1.8 3.5-4 5.9-2.9.1 0-.2 1.1 0 1.2zM106.4 271.5c0 .1 0 .2-.1.2 0 .2.1.4.1.4.2.4.4.7.8 1 .7.5 1.6.7 2.5.4v-.9c.2-.3.5-.7.7-1v1.2c-.2.3-.4.7-.6 1 0 .4.1.8 0 .9-1.8.6-3.4-.7-3.5-2.5v-1.5c.1-.9.7-1.6 1.4-2.1 1.5-1.1 2.8-2.1 3.8-3.8.4-.8.8-1.6 1-2.4.1-.5.2-.9.2-1.4v-.5c0-.2 0-.4-.1-.6-.1-.4.1-.9 0-1.2.5 3.1-.1 6.5-2.2 9-.6.7-1.3 1.3-2 1.8-.9.6-1.7 1.1-2 2z"/>
  <path fill="none" d="M49.1 46.2s-.1 0 0 0M50.6 42l-.2 1.2M50.2 44.6v.2"/>
  <circle fill="#FFF" cx="75.6" cy="117" r="2.9"/>
</svg>
