<svg version="1.2" baseProfile="tiny" xmlns="http://www.w3.org/2000/svg" viewBox="0 0 385.38 389.18" overflow="visible" xml:space="preserve">
  <path fill="#F3BE9A" d="M50.6 210.3 15.36 362.36c-.36.18-.74.31-1.06.41-1 .32-2.07.4-3.11.26-1.3-.17-2.55-.69-3.57-1.49l32.3-153.31c2.28.65 4.63 1.09 6.93 1.47 1.25.21 2.5.4 3.75.6zM95.83 381.12c-.4.2-.84.36-1.27.48-1.76.47-3.62.69-5.45.69-1.55.01-3.17-.21-4.35-1.3-.1-.09-.19-.18-.27-.28V213.73c3.33.11 6.67.14 9.99.07l1.35 167.32z"/>
  <path fill="#EF7E01" d="M124.16 85.95c-2.16 1.2-4.65 1.89-7.3 1.89-1.14 0-2.26-.13-3.33-.38 3.55-.45 7.09-.95 10.63-1.51zM128.42 82.43c-.57.69-1.21 1.33-1.9 1.9-5.23.86-10.48 1.6-15.74 2.22-1.43-.62-2.74-1.46-3.89-2.48 0 0 0-.01-.01-.01-.52-.94-1.05-1.87-1.55-2.82 2.88.01 5.75.07 8.63.18 4.83.19 9.65.53 14.46 1.01zM129.03 81.65c.01-.22.01-.41-.01-.41-.96-.1-1.92-.19-2.89-.27.21-.13.42-.27.62-.44 1.56-1.32 2.13-3.47 2.47-5.39.35-1.9.36-3.82.34-5.75-.03-2.32-.43-4.58-1.52-6.65-.04-.07-.07-.14-.11-.21 1.06 1.15 1.94 2.45 2.6 3.88 0 .31.15.97.01 1.25.11-.22.19-.44.25-.67.74 1.78 1.15 3.73 1.15 5.77 0 3.32-1.08 6.4-2.91 8.89zM119.11 65.53c-.4 1.65-.45 3.3-.45 4.99 0 1.69.07 3.34.49 4.98.45 1.75 1.21 3.7 2.51 5 .04.04.08.08.12.11-5.7-.41-11.4-.61-17.11-.62-.11-.21-.22-.42-.32-.63 2.32-3.39 4.1-7.14 5.28-11.09.01-.04.02-.1.02-.16.01.03.01.04.02.07-.01-.03-.01-.06-.01-.09v-.02c0-.13-.01-.27-.01-.35v-1.23c.07-.7.16-1.4.02-2.06-.33-1.47-.61-2.94-.86-4.42 2.12-1.35 4.58-2.18 7.23-2.32-.69 1.75-.69 3.76-.46 5.61-.07-.56.01-1.13.02-1.7.01-.05.01-.09.02-.13.05-.22.1-.44.17-.66.16-.52.38-1.01.65-1.48.35-.6.77-1.15 1.24-1.64h.01c1.79.1 3.48.51 5.06 1.18-.61.56-1.14 1.24-1.38 1.59-1.07 1.52-1.83 3.26-2.26 5.07zM163.42 88.63c-3.19-.27-6.09-1.55-8.4-3.52 2.8 1.19 5.59 2.36 8.4 3.52zM176.1 63.67c.07.79.1 1.59.1 2.4-.07-.74-.35-1.76-.44-2.13-.07-.3-.14-.6-.23-.89-2.74-2.79-6.56-4.52-10.76-4.52-.08 0-.16 0-.24.01 1.05.85 1.71 2.39 2.12 3.61.67 1.97.88 4.01.89 6.08v.29c0 .18 0 .37-.01.55v.01c.02.26.04.45-.01.27-.07 3.46-.65 6.75-2.53 9.79-1.11 1.81-2.49 3.44-4.81 2.74-1.89-.56-3.27-2.24-4-4-.69-1.65-.79-3.38-.79-5.14-.03.06-.02-.15-.01-.39v-.03c0-2.04.17-4.03.58-6.04.45-2.26 1.4-4.91 3.06-6.61-.57.23-1.13.51-1.66.81-1.3 2.39-2.08 5.06-2.76 7.69.2-.78-.2-1.72 0-2.5.36-1.41.76-2.83 1.25-4.21-3.74 2.75-6.17 7.17-6.17 12.15 0 3.54 1.22 6.8 3.28 9.38 4.25 1.81 8.5 3.59 12.77 5.34.23.09.45.19.68.28 7.54-.82 13.44-7.23 13.44-15 0-3.8-1.41-7.28-3.75-9.94zm-.31 7.33c.06-.73-.18-1.52-.04-2.24.1-.48.19-.97.25-1.45.03-.25.06-.49.08-.74.05-1 .07-.92.06.24.03-.05.05-.11.06-.19-.01 1.48-.13 2.96-.41 4.38zM143.64 64.33c-.43.04-.85.07-1.28.08-1.69.06-3.39-.03-5.06-.27 1.17-.49 2.42-.84 3.64-.71.92.09 1.82.45 2.7.9z"/>
  <path fill="#EF7E01" d="M174.73 61c-2.74-2.17-6.2-3.47-9.96-3.47-2.28 0-4.45.48-6.42 1.34 1.84-2.67 4.55-4.88 7.98-4.37 3.04.45 5.72 2.35 7.44 4.84.37.53.69 1.09.96 1.66zM130.82 64.39c-.01.1-.04.18-.07.26-1.2-2.04-2.81-3.78-4.75-5.12 0-.01-.02-.01-.02-.01-.15-.18-.32-.34-.49-.48-.01-.08-.03-.16-.06-.24-.37-1.01-1.06-1.02-1.77-.62h-.01c-1.54-.72-3.21-1.21-4.97-1.41.82-.66 1.75-1.24 2.77-1.51 1.22-.33 2.29-.04 3.39.51 1.96.98 3.89 2.05 4.86 4.12.49 1.07.73 2.24.95 3.39.05.24.1.49.14.74.02.1.03.23.03.37z"/>
  <path fill="#EF7E01" d="M210.36 54.48c-1.26-9.54-2.41-19.12-4.47-28.53-1.03-4.7-2.29-9.35-3.91-13.88-.7-1.95-1.4-3.99-2.33-5.83.38 1.99.64 4.01.78 6.03.3 4.23.29 8.58-.12 12.8-.45 4.65-1.49 9.24-3.13 13.62-.76 2.06-1.62 4.12-2.85 5.95-.59.88-1.27 1.7-2.06 2.4-.42.37-.72.73-1.07.08-.15-.28-.11-.57-.12-.87-.01-.85-.01-1.71-.01-2.56 0-.07.02-1.39.03-.68v.07c.04.22.14.39.29.54.2.26.4.23.58-.07.31-.15.64-.56.87-.81.56-.57 1.05-1.19 1.49-1.85.98-1.46 1.71-3.08 2.37-4.7 1.44-3.58 2.48-7.32 3.12-11.12.34-2.03.56-4.07.67-6.13.02-.41-.04-.92.03-1.35-.01-.2-.02-.4-.03-.59-.06-1.09-.14-2.18-.27-3.26-.22-1.92-.54-3.82-.96-5.7-.32-1.41-.69-2.83-1.68-3.87-.03-.01-.06-.02-.09-.02-.59-.06-1.13.15-1.43.61 0 .19-.03.33-.08.38-8.18 6.89-16.49 13.98-22.21 23.12-.03.55-.06 1.3.01 1.34-.21-.11-.42-.21-.63-.31-.09.13-.17.26-.25.4.07-.11.09-.28.09-.48-10.4-5.04-22.74-4.78-33.62-1.42-.01.34-.01.64.07.73-4.02-4.39-8.04-8.77-12.05-13.16-2.5-2.73-4.96-5.6-7.82-7.95 1.35 3.52 2.44 7.13 3.29 10.81 1.8 7.77 2.38 15.77 2.16 23.74.04-.06.08-.14.1-.23-.03.16.02.39.02.55v2.65c0 .15.02.39-.02.55-.24 1.07-2.41-.01-2.94-.24-.56-.24-1.11-.53-1.63-.86.01.07.02.14.02.18 0 .44.01.88.01 1.33 0 .44-.01.88-.01 1.32 0 .06.03.45-.01.55-.16.32-.46.12-.74-.19 0 .38 0 .7.01.7-1.69-.32-3.44.14-4.82 1.11.56.19 1.11.42 1.64.69.05.02.01.48.01.55.01.44.01.88.01 1.32s0 .88-.01 1.32c0 0-.02.55-.01.56-1.26-.64-2.62-1.06-4.02-1.25-.07-.01-.02-1.73-.02-1.87v-1.33c.01-.11-.03-.41.02-.55.74-2.33 2.93-4.03 5.33-4.35 0-.01-.01-.01-.01-.02-.77-1.57-1.33-3.23-1.68-4.94-.04-.17-.02-.37-.02-.55v-2.65c0-.12.04-.41.02-.55.14.68.31 1.35.53 2.01-.03-.83-.03-2.49.03-2.73v-.01c.01-.39.04-.76.1-1.14 0 .14.03.3.03.44v1.34c.03.17.07.34.11.5.14.52.35 1.02.6 1.49.53.96 1.27 1.78 2.13 2.45.89.69 1.9 1.21 2.95 1.61.41.16 1.58.69 2.11.37 0-.1 0-.19.01-.28.38-6.95-.61-14.28-2.32-21.17-.85-3.39-1.9-6.72-3.16-9.98-.63-1.61-1.27-3.23-2.04-4.78-.03-.06-.07-.13-.11-.2-.42-.28-.85-.54-1.29-.79-.05-.03-.08-.19-.08-.39-.08-.02-.15-.03-.22-.03 0 .05-.01.11-.02.16-2.37 9.75-5.13 19.49-6.82 29.38-.86 5.05-1.4 10.24-1.16 15.36.15 3.21.48 6.41.98 9.58 2.32-1.4 5.03-2.22 7.91-2.27l.09-.15c1.14-1.8 3.16-3.53 5.32-3.88 1.22-.19 2.26.3 3.33.84.95.49 1.91 1 2.74 1.7 1.85 1.56 2.34 3.93 2.75 6.2.19 1.05.21 2.07.21 3.13v.55c.23.41.44.83.62 1.27.34-.29.68-.56 1.04-.82 0-.06.01-.1.02-.1.04-.01.09-.01.13-.01h.01c.8-.59 1.65-1.12 2.53-1.57 0-.03 0-.04-.01-.04.02 0 .04.01.06.01.12-.07.25-.14.38-.2 1.56-.78 3.4-1.62 5.18-1.43 1.58.16 3.15 1.09 4.55 1.91.1-.01.2-.02.26.01.05.02.09.07.11.12.01-.01.01-.03.01-.04v.07c.01.02.02.05.02.08.03.02.06.03.09.05.6.35 1.18.71 1.75 1.09.08-.01.17-.03.25-.04-.01 0-.02.09-.01.21.71.47 1.4.98 2.08 1.5 1.34-3.05 3.6-5.6 6.43-7.31.46-1.11 1.01-2.18 1.68-3.19 1.62-2.46 4.12-4.84 7.26-4.73 2.78.09 5.41 1.57 7.27 3.58 1.67 1.81 2.72 4.09 3.18 6.5 3.07 2.93 4.98 7.06 4.98 11.62 0 7.7-5.44 14.16-12.67 15.72 8.04 3.3 16.13 6.5 24.25 9.61 1.76-1.47 3.47-3.02 5.12-4.61 1.21-1.17 2.4-2.37 3.54-3.59 0-.01 0-.02.01-.04-.01-.11-.01-.22 0-.34v-.45l.01.01c.16.2.35.26.55.22.95-1.01 1.87-2.04 2.78-3.08-.07.08-.09.26-.09.49.39-.45.76-.91 1.12-1.37 1.31-1.72 2.46-3.55 3.42-5.48 1.83-3.64 2.98-7.58 3.41-11.63v-.01c-.64-4.86-1.29-9.72-1.94-14.58zm-80.52-2.83v.51c0 .07-.01.15-.01.22-.08.09-.25.09-.33-.01-.01-.11-.01-.22-.01-.34v-.39c-.01-.59-.01-1.18-.01-1.77s0-1.17.01-1.76v-.52c0-.07.01-.14.01-.22.08.1.25.1.33.01.01.11.01.22.01.34v.39c.01.59.01 1.18.01 1.77 0 .59 0 1.18-.01 1.77zm19.46-5.01c0 .17 0 .35-.01.52 0 .07 0 .14-.01.21 0 .05-.02.08-.07.09-.07.02-.16-.02-.2-.07-.02-.02-.03-.03-.04-.05v-.02l-.01-.01v-.1c0-.03-.01-.21-.01-.25v-.39c-.01-.59-.01-1.18-.01-1.77s0-1.18.01-1.77v-.39c0-.03.01-.23.01-.25v-.1c.01-.01.01-.01.01-.02.01-.02.02-.03.04-.05 0 .06.01.11 0 .17.04.04.1.07.16.08.02 0 .05-.01.07-.02.03-.02.04-.05.04-.08.01.12.02.23.01.35.01.13.01.26.01.39.01.59.01 1.18.01 1.76 0 .59 0 1.18-.01 1.77zm41.5-.62c-.07.68-1.12-.62-1.21-.73-.44-.58-.84-1.2-1.17-1.85-.7-1.36-1.14-2.85-1.3-4.37-.08-.86-.07-1.73-.08-2.6 0-.34-.01-.69-.01-1.04-.95 1.22-1.64 2.63-2.04 4.13v.01c.22.41.58.72 1.1.73.05 0 0 3.75 0 3.75-.18 0-.34-.04-.49-.11 0 .25 0 .51-.01.76 0 .05-.05.45-.01.55-.69-1.77-3.03-1.8-4.62-1.7-.36.02-.73.05-1.09.1 1.04.78 1.92 1.78 2.56 2.93.07.12.02.42.02.55v2.66s-.05.48-.02.54c-1.39-2.52-3.94-4.28-6.8-4.69-.07-.01-.02-1.73-.02-1.87 0-.44 0-.88.01-1.33 0 .01-.03-.49.01-.55 1.29-1.57 3.39-1.98 5.33-2.09 1.12-.06 2.62-.07 3.64.55 0-.42.01-.84.02-1.25V39c-.02-.61-.01-.85.02-.71 0-.39.02-.78.08-1.18.35-2.39 1.45-4.62 3.11-6.36-.01.01-.02.04-.01.08.23-.44.54-.83.92-1.18-.04.04.02.47.02.55v2.65c0-.03.02.51-.02.55-.8.73-1.27 1.69-1.5 2.73.05.35.13.7.22 1.04.3 1.17.79 2.3 1.42 3.34.33.53.7 1.04 1.1 1.51.12.14.77.75.82.25-.12 1.24.12 2.51 0 3.75z"/>
  <path fill="#EF7E01" d="M152.77 92.54c-2.14.27-4.3.18-6.44-.05-1.23-.13-2.48-.28-3.7-.48-1.19-.2-2.11-.74-3.07-1.43-.13-.09-.03-.47.01-.79 0-.14-.01-.3-.01-.46 0-.17-.01-.35-.01-.52-.73-5.03-1.14-10.1-1.26-15.18v-.21c-.03-.04-.05-.09-.07-.13-.49-.87-1.01-1.72-1.58-2.54-.59-.86-1.23-1.69-1.91-2.48-.46-.53-1.12-1.6-1.93-1.61h-.01c-.27.2-.54.4-.81.62.62 1.71.96 3.56.96 5.48 0 4.4-1.76 8.38-4.62 11.28 1.24-.21 2.49-.43 3.73-.65-.06.01.08 1.23 0 1.25-1.82.32-3.65.63-5.47.93-2.71 2.05-6.07 3.27-9.72 3.27-2.03 0-3.98-.38-5.77-1.08-.61.08-1.21.15-1.82.22.59.93 1.19 1.84 1.81 2.74 7.33-1.53 14.66-3.11 21.97-4.74-.08.02.09 1.23 0 1.25-5.63 1.25-11.26 2.48-16.89 3.67-1.44.31-2.88.61-4.33.91 2.98 4.25 6.28 8.28 9.86 12.05 2.42 2.53 4.95 4.94 7.62 7.21 2.68 2.28 5.66 4.43 9.28 4.72.01 0 .03.06.03.16 5.4.97 10.91 1.09 16.36.43 8.26-1.02 16-3.71 23.14-7.58-8.69-5.04-17.15-10.46-25.35-16.26zm-16.61-13.58s0-.18.01-.18c.38-.04.71-.33.81-.7v.19c.01.14.01.29.01.44s0 .29-.01.44v.18c-.1.37-.43.66-.81.7-.01 0-.01-.17-.01-.18v-.89zm-1.69-2.73c.45-.49.91-.98 1.36-1.48v1.07c0-.01.01.17 0 .18-.45.5-.91.99-1.36 1.48v-1.06s-.01-.17 0-.19zm-1.14 5.86c.44-.49.78-1.05 1-1.67-.01.05.01.14.01.19v.88c0 .03.01.14-.01.18-.22.62-.56 1.18-1 1.67.01-.02-.01-.16-.01-.19v-.88s-.01-.17.01-.18zm6.09 8.22c-3.57 1.81-8.1 3.89-11.94 1.93v.37c-.5-.3-.88-.7-1.16-1.2-.18-.32.17-.94 0-1.25.04.08.09.16.15.23v-.02c.24.1.44.23.61.39 0 0 0 .02.01.01 3.91 2.32 8.64.16 12.33-1.71-.16.08.18 1.16 0 1.25z"/>
  <path fill="#EF7E01" d="M191.41 99.8c-8.53-3.28-17.03-6.66-25.49-10.14h-.02c-.37.03-.75.04-1.13.04-4.88 0-9.27-2.19-12.21-5.64h-.01c-1.41-.6-2.82-1.2-4.23-1.81v.24c-.27.35-.53.69-.8 1.04v-1.25c.07-.09.14-.19.22-.28-.29-.12-.58-.24-.87-.37-.16-.06.14-1.18 0-1.25 1.44.62 2.89 1.25 4.33 1.86-1.59-2.5-2.52-5.46-2.52-8.63 0-1.94.35-3.8.98-5.52-.63-.48-1.29-.94-1.95-1.36-3.29.55-6.27 2.45-8.18 5.18-.23.34-.45.69-.65 1.05-.1.18-.18.44-.31.6-.05.24-.1.27-.16.09l-.03-.06c.11 2.96.33 5.91.66 8.85.2 1.77.57 3.53.72 5.3 0 .05.01.1 0 .15.03.52.01 1.06.01 1.58v.01c.89.62 1.76 1.09 2.86 1.28 1.22.2 2.47.35 3.7.48 1.62.17 3.25.27 4.87.19-2.39-1.71-4.76-3.45-7.11-5.22-.2-.15.2-1.1 0-1.25.37.28.75.56 1.12.83-.01-.31.14-1.1.04-1.13 14.79 4.83 29.24 10.66 43.24 17.44.99-.75 1.96-1.51 2.92-2.3zm-46.74-17.46c-.28.39-.56.78-.83 1.17-.01-.03-.01-.06-.01-.09v-1.11c0-.02 0-.03.01-.05.27-.39.55-.78.83-1.17v1.25zm1.15-6.17c-.26.49-.66.91-1.14 1.19.01-.01-.01-.16-.01-.18v-.89s0-.17.01-.18c.48-.28.88-.7 1.14-1.19.01.03.01.06.01.08v.99c0 .01.01.15-.01.18z"/>
  <path fill="#EF7E01" d="M187.47 102.85c-2.64 1.94-5.39 3.73-8.24 5.34-6.81-3.92-13.49-8.07-20.02-12.45-1.75-1.18-3.49-2.37-5.22-3.59 0-.35-.07-1.03-.03-1.04-.39.08-.79.14-1.19.18-2.46-1.72-4.88-3.49-7.29-5.3 14.35 4.69 28.38 10.33 41.99 16.86z"/>
  <path fill="#F3BE9A" d="M142.23 198.68c0-.14.02-.22.05-.23-29.03 13.73-62.07 11.38-92.91 6.64-6.77-1.04-14.13-2.22-19.36-6.96.01-.17 0-.35 0-.52 0-.16-.08-.6-.01-.73-.13.24-.25.61-.42.85-.13-.12-.26-.24-.38-.37.07.07.09.27.09.54-.01-.01-.01-.03-.01-.04-.05-.16-.09-.33-.13-.49-.16-.66-.27-1.33-.34-2-.04-.33-.06-.65-.08-.97 0-.13-.01-.26-.02-.39v-.16c.03-2.65.17-5.39-.15-8.05l.15.01c4.43 4.64 10.34 7.34 16.47 8.99 6.95 1.87 14.2 2.64 21.33 3.4 16.13 1.7 32.62 2 48.48-1.83 7.82-1.89 15.39-4.77 22.34-8.82.73.69 1.41 1.43 2.04 2.17 2 2.32 3.94 4.66 6.04 6.87-.98.82-2.04 1.52-3.18 2.09z"/>
  <path fill="#FEECE3" d="M190.63 115.69c-7.15 13.72-18.14 25.76-26.37 38.69-3.29 5.17-6.19 10.58-8.32 16.32-2.31-.75-4.25-2.19-6.25-3.54-2.27-1.55-4.66-2.6-7.27-3.45-2.81-.91-5.63-1.8-8.45-2.7-2.7-.86-5.41-1.81-8.27-1.87-.01-.08-.01-.16-.01-.24 0-.76.05-1.4-.35-2.07.1.18.09.59.05 1-.06-.63-.11-1.25-.14-1.88 0-.04 0-.07-.01-.11.04-.55.06-1.11.1-1.65.17-2.16.47-4.31.84-6.45.7-4.06 1.67-8.06 2.51-12.09 1.36-6.49 2.24-13.19 1.83-19.83 2.17 1.72 4.54 3.2 7.29 3.63.01.07.02.11.05.11 15.25 2.99 30.48-1.08 43.53-8.9 3.05 1.73 6.13 3.41 9.24 5.03zM194.69 106.43c-1 2.84-2.21 5.59-3.57 8.28-2.91-1.52-5.79-3.09-8.66-4.69 2.79-1.74 5.48-3.64 8.04-5.68 1.4.68 2.8 1.38 4.19 2.09zM196.16 101.62c-.32 1.27-.69 2.51-1.11 3.74-1.19-.61-2.38-1.21-3.58-1.8.44-.37.88-.73 1.31-1.1.57-.49 1.13-.98 1.69-1.49.57.22 1.13.44 1.69.65zM196.83 98.8c-.12.56-.24 1.12-.38 1.67-.33-.11-.67-.24-1-.38.47-.42.92-.85 1.38-1.29z"/>
  <path fill="#CFD2D3" d="m110.33 109.04-.18 40.88v.01c-.07.15-.02.78 0 1.09l-.15 34.6-80.8-1.8c-.27-.27-.54-.55-.8-.83.08.08.05.48.02.81l-24.12-.54-2.27-75.2 108.3.98z"/>
  <path fill="#EF7E01" d="M125.2 158.39c.01.25.01.5.03.75-.08 0-.16 0-.24.01-.01 0-.01.04-.02.1-2.64-.69-5.36 1.66-7.19 3.3-2.25 2.03-4.17 4.4-5.71 7.01l.08-18.26c4.2-1.89 9.33-1.43 13.08 1.32-.08 1.92-.07 3.85-.03 5.77z"/>
  <path fill="#F3BE9A" d="M135.52 186.07c-12.36 6.75-26.41 9.86-40.42 10.63-8.46.46-16.95.1-25.39-.68-7.37-.69-14.85-1.46-22.08-3.11-5.76-1.32-11.46-3.4-16.1-7.04l79.08 1.76v.18c.07-.06.14-.12.22-.17 0-.01 0-.01.01 0h.13v-.11c.72-.55 1.5-1.02 2.32-1.41 1.93.79 4.44.86 6.3.85 2.28 0 4.56-.17 6.82-.53 1.66-.26 3.37-.68 4.52-1.97h.01c1.71.02 3.22.65 4.58 1.6z"/>
  <path fill="#EF7E01" d="M217.02 108.07c-6.71-2.41-13.4-4.87-20.07-7.41.15-.78.29-1.57.4-2.36 1.48-1.43 2.92-2.9 4.32-4.41.54-.14 1.28-1.05 1.58-1.36 1.82-1.92 3.39-4.06 4.71-6.34.14-.24.28-.49.41-.74l.03.12c2.48 7.64 5.35 15.16 8.62 22.5z"/>
  <path d="M287.02 310.37c-.04-.23-.08-.46-.13-.69.1.16.16.37.13.69z"/>
  <path d="M287.02 310.37c-.04-.23-.08-.46-.13-.69.1.16.16.37.13.69zM226.77 371.45c0 .04-.01.06-.01.08-.01.02-.02.03-.03.03h-.01v.01c-.01 0-.03.01-.04.01-.01-.09-.01-.19-.01-.29 0-.79 0-1.56.03-2.33.03.35.05.65.05.72 0 .06.01.27.02.53.02.43.04 1.01 0 1.24zM281.06 376.23c-.24.17-.47.34-.71.52.18-.13-.02-1.63-.02-1.87 0-.17-.08-.95-.06-1.45.24-.25.48-.49.72-.74-.21.22.02 1.56.02 1.87 0 .25.12 1.21.05 1.67zM324.78 360.46c-.19-.09-.38-.17-.57-.26.01 0 .02.04.03.1v.01l.54.15z"/>
  <path fill="#EF7E01" d="M385.22 317.11v.03l-.03.6c-.03.6-.08 1.19-.14 1.79-.53 5.62-2.1 11.16-4.43 16.3-4.29 9.49-11.43 17.86-20.66 22.84-9.58 5.17-21.23 6.51-31.59 3.16-.02-.6-.03-1.06.02-1.07-1.25.18-2.44.01-3.61-.3-.19-.09-.38-.17-.57-.26.01 0 .02.04.03.1-.76-.22-1.51-.5-2.27-.76-1.96-.68-3.96-1.15-6.04-1.27-4.34-.26-8.67.73-12.73 2.17-8.19 2.9-15.91 7.38-22.85 12.56-.05.04-.08.21-.08.43-7.24 7.19-17.15 11.48-27.34 11.96-9.15.43-21.79-2.27-25.42-11.97-.19-.52-.35-1.05-.48-1.59-.06-.25-.12-.89-.17-1.29v-.01c.02-.24.04-.46.06-.58.13-.78.33-1.55.57-2.3.84-2.65 2.25-5.11 3.91-7.33 3.32-4.44 7.72-8.09 12.33-11.11 9.44-6.18 20.36-9.87 31.28-12.52.77.3 1.5.02 2.15-.5 13.9-3.19 28.11-4.66 42.28-6.11.02.43.01.75-.08.78 3.74-1.19 7.35-3.52 9.05-7.19.8-1.73.97-3.53.98-5.41s.13-3.82-.48-5.62c-.72-2.09-2.28-3.59-4-4.9-1.79-1.36-3.68-2.61-5.63-3.76-3.67-2.16-7.55-3.9-11.59-5.23v-1.01c0-.09.04-.5-.02-.55-1.96-1.63-3.44-3.79-4.27-6.21.04.11-.01.48-.01.55-.01.44-.01.88-.01 1.33 0 .44 0 .88.01 1.32 0 .16-.04.4.01.55.45 1.3 1.08 2.53 1.89 3.64-1.99.7-4.22.6-6.24-.03-3-.93-5.52-2.9-7.94-4.83.03-1.84-.01-3.69-.1-5.52-.23-4.72-1.09-9.41-2.6-13.9-1.47-4.39-3.55-8.55-6.2-12.34.48.3.95.61 1.41.95.01.23.03.41.07.43.34.13.68.26 1.02.38l.01.01c.17.12.33.25.49.38-.03-.03-.05-.1-.05-.22 7.25 2.74 14.73 4.86 22.34 6.3 3.83.73 7.72 1.38 11.62 1.64 1.4.09 2.82.11 4.21-.02l-.48.42c-.04.04-.02.59-.02.55v2.65c0 .08.06.52.02.55l2.91-2.52c.07 1.06.2 2.37.06 2.4 11.2-2.57 22.85.24 32.8 5.64 9.34 5.08 18.08 12.57 22.92 22.19 1.19 2.36 2.13 4.84 2.75 7.41.34 1.4.58 2.83.74 4.27.06.51.11 1.03.14 1.55 0 .01.02.19.05.4z"/>
  <path d="M281.06 376.23c-.24.17-.47.34-.71.52.18-.13-.02-1.63-.02-1.87 0-.17-.08-.95-.06-1.45.24-.25.48-.49.72-.74-.21.22.02 1.56.02 1.87 0 .25.12 1.21.05 1.67z"/>
  <path fill="#E46108" d="M152.3 330.12c-7.8.46-15.61.52-23.42.17-4.02-.18-8.05-.47-12.06-.86-3.19-.31-6.94-1.3-10.13-.37-.31.04-.61.11-.9.2.78-2.56 2.15-4.93 4.02-6.87.04-.04.01-.57.01-.55v-2.65c0-.09-.06-.5-.01-.55-2.58 2.68-4.21 6.16-4.65 9.85-.04.32-.04.65-.04.98-.95.33-1.89.74-2.9.8-.97.07-2.08-.2-2.65-1.01.25-4.97.85-9.93 3.13-14.41 1.38-2.72 3.26-5.19 4.98-7.7 1.12-1.62 2.64-3.55 4.6-3.82 0 .21.02.35.05.36 4.56 1.37 7.51 6.03 12.36 6.64 0 .27-.01.45-.03.45 3.91-.43 7.84-.73 11.78-.88 1.93-.07 3.87-.1 5.8-.1.96 0 1.93.01 2.9.03.4.01 1.19-.1 1.75.01l5.41 20.28z"/>
  <path fill="#F3BE9A" d="M173.18 355.5c-.76-.27-1.61-.34-2.54-.14-2.51.55-4.56 2.52-6.18 4.62v-.08c0-.07.02-.72-.01-.73-1.1-.24-2.14-.83-2.8-1.73l-39.21-147.08c3.6-.86 7.15-1.89 10.63-3.13l33.74 124.71c-.02.41 0 .7.07.72.04.01.09.02.13.03l6.17 22.81z"/>
  <path fill="#E46108" d="M191.44 323.63c-.64 2.21-1.32 4.41-2.03 6.6-7.08 1.47-14.28.28-21.29-1.08l-8.29-30.67c1.21-2.4 2.41-4.78 3.62-7.17.05-.09.01-.49.01-.55 0-.44.01-.88.01-1.32s-.01-.88-.01-1.33c0-.07.07-.31.15-.51-.05 1.4-.05 2.81-.03 4.22.05 3.88.5 7.79 1.67 11.5 1.17 3.68 3.08 7.06 5.85 9.77 2.68 2.63 5.92 4.6 9.18 6.42 3.4 1.9 7.16 4.28 11.16 4.12z"/>
  <path fill="#FEECE3" d="M189.72 291.89c-.19.18-.02 1.59-.02 1.87 0 .02 0 .06.01.1v.04c-.03.47.02.95.08 1.44.01.01.01.02 0 .02 0 .14-.03.24-.07.28.03-.03.06-.05.09-.08.05.54.08 1.07-.03 1.56.15-.66.32-1.32.5-1.98 2.75-2.44 5.63-4.72 8.64-6.81-1.92 3.15-3.32 6.64-4.34 10.18-1.21 4.21-2.15 8.59-2.61 12.94-.3 2.72-.42 5.6-.21 8.41-4.12.31-7.99-2.15-11.48-4.1-3.55-1.98-7.09-4.15-9.89-7.14-2.9-3.1-4.71-7-5.71-11.1-.56-2.32-.89-4.69-1.02-7.07-.01-.2-.02-.39-.02-.59v-.1c.09-.76.1-1.54.18-2.31.1-.94.23-1.87.39-2.79.97-.46 1.88-1.07 2.7-1.82.2-.18.02-1.6.02-1.87 0-.28-.22-1.7-.02-1.88-.79.72-1.66 1.31-2.58 1.77-.01-.32 0-.64.06-.94-.06.33-.12.66-.17.99-1.36.66-2.83 1.02-4.37 1.09.02-.36.02-.71.04-1.04.05-.97.06-1.95.06-2.92v-.08c.01-.13.01-.31 0-.46 0-.08-.01-.15-.01-.2 0-.7 0-1.41-.02-2.11-.09-3.87-.79-7.68-1.79-11.4-2.2-8.1-5.73-15.78-7.72-23.93-.62-2.52-1.07-5.08-1.36-7.66-.15-1.4-.26-2.81-.31-4.21-.01-.08-.02-.2-.03-.33v-.2c.01-.21.01-.42.02-.62.03-.85.08-1.7.15-2.55.09-1.25-.1-2.51 0-3.75l-.14.41v.05c-.03-.97-.39-2.04-.11-2.89-1.08 3.28-1.69 6.61-1.96 10.01-.4-2.63-1.87-5.12-2.98-7.49-2.28-4.94-4.56-9.87-6.84-14.82 1.83-.73 3.64-1.51 5.43-2.36.04-.02.07-.17.08-.39 2.14-.84 3.97-2.36 5.18-4.33l.18.18c6.17 5.81 13.22 10.6 20.46 14.97 3.87 2.33 7.81 4.55 11.74 6.75 5.17 14.81 15.11 27.82 28.03 36.7.9.62 1.82 1.22 2.75 1.8.31.19.65.45 1.02.7-6.87 5.23-12.62 11.95-16.7 19.58-2.03 3.8-3.62 7.82-4.74 11.98-.19.17-.37.33-.56.5z"/>
  <path fill="#EF7E01" d="M290.94 290.64c-.07-1.13-.19-2.27-.34-3.4-1.17-8.63-4.54-16.92-9.89-23.81-.25-.31-.02-1.49-.02-1.87 0-.13.03-.41.06-.71-3.67-2.1-7.7-3.53-11.9-4.2-.22-.03.16-3.72 0-3.75 4.69.74 9.18 2.44 13.17 4.98-3.2-5.27-5.83-10.87-8.17-16.59-2.91-7.12-5.44-14.39-8.07-21.62-2.78-7.65-5.55-15.3-8.33-22.95-5.61-15.43-11.21-30.87-16.82-46.31-1.92-.43-3.84-.88-5.76-1.32-.1-.02-.02-1.72-.02-1.87s.06-1.87.02-1.88c1.39.32 2.77.64 4.16.95-1.82-2.07-3.4-4.35-4.9-6.66-6.24-9.59-11.74-19.65-16.45-30.07-.96-.34-1.91-.68-2.87-1.03-6.05-2.18-12.08-4.42-18.1-6.7-.29 1.3-.62 2.59-1 3.87.57.29 1.14.58 1.71.88.18.09-.16 1.17 0 1.25l-2.04-1.05c-.9 2.87-2.02 5.69-3.31 8.42 8.26 4.28 16.7 8.22 25.29 11.82.16.06-.14 1.19 0 1.25-5.71-2.39-11.36-4.93-16.93-7.63-2.97-1.44-5.92-2.92-8.85-4.45-9.65 19.85-27.01 35.11-35.16 55.74-.08 1.09-.28 2.6-.08 2.65-.28-.08-.55-.17-.81-.26v-.01c-2.2-.8-4.06-2.21-6.01-3.52-2.21-1.49-4.56-2.5-7.1-3.33-2.89-.94-5.78-1.85-8.68-2.78-2.64-.84-5.3-1.75-8.1-1.79 0 .2.01.35.04.36-2.86-1.37-5.91 1.26-7.9 3.05-2.26 2.04-4.18 4.42-5.72 7.04l-.04 8.36c.59.43 1.31.75 2.08.97v-.03c0-.36-.09-.9.02-1.25 1.38-4.39 3.31-8.58 5.73-12.5-.03.06.01.29.01.37v.88c0 .28.14 1.02-.01 1.25-2.21 3.59-4.02 7.4-5.36 11.38 1.86.46 3.96.47 5.5.45.33 0 .67-.01 1-.03 1.85-5.82 7.45-9.37 10.37-14.57-.15.26.01.96.01 1.25s.13 1-.01 1.25c-2.47 4.4-6.85 7.62-9.27 12.02 1.55-.08 3.09-.24 4.61-.5 1.23-.2 2.46-.52 3.47-1.23 0-.39.01-.66.05-.66.24-.02.48-.03.71-.03.06-.06.11-.12.16-.18-.02.03-.02.1-.02.19h.01c2.82.08 5.1 1.82 7.04 3.85.15-.08.31-.18.46-.27-.11.07-.11.34-.08.68l.01.01c.65.7 1.25 1.43 1.83 2.13 5.37 6.53 11.53 12.09 18.45 16.94 7.04 4.92 14.54 9.13 22.02 13.31.19.1.02 1.66.02 1.87 0 .11-.04.72-.05 1.22 1.07 2.79 2.31 5.51 3.73 8.15 3.4 6.34 7.73 12.19 12.8 17.31 2.54 2.56 5.26 4.94 8.14 7.1 1.43 1.08 2.91 2.11 4.43 3.08.43.28 2.77 1.95 3.77 2.08 0-.17.01-.3.06-.34.19-.17.3-.02.34.23.02-.02.03-.04.04-.07v.11c3.06-2.11 6.31-3.91 9.71-5.39 4.33-1.87 9.78-4.18 14.49-2.56.41.14-.36 3.63 0 3.75-3.05-1.05-6.21-.35-9.19.59-2.32.73-4.59 1.62-6.8 2.65-13.84 6.48-24.93 18.5-30.32 32.76 7.01-5.95 14.88-10.81 23.35-14.41-.11.04.02 1.7.02 1.87 0 .18.11 1.82-.02 1.88-2.65 1.13-5.24 2.38-7.76 3.75-.01.03-.02.05-.04.06-5.6 3.49-9.33 9.14-11.63 15.23-1.32 3.48-2.21 7.11-2.93 10.75-.38 1.88-.72 3.77-.95 5.67-.06.48-.1.96-.14 1.44-.01.11-.02.23-.02.35.23.94.16 2.08.35 3.04.02.09.03.17.03.26.09 0 .18-.02.28-.04h.01c.01-.07.03-.13.05-.2-.02.06-.03.13-.04.2.08-.01.17-.02.25-.04-.2.04.25 3.7 0 3.75-.09.02-.18.03-.27.04-.72 2.69-1.5 5.36-2.33 8.02.07 1.03.18 2.23.01 2.27-.26.06-.53.12-.79.17-3.11 9.61-6.89 19-11.29 28.1-.01.2-.03.4-.03.56 0 .31-.13.96-.01 1.25-.8-1.91-2.02-4.15-3.79-5.32l-.26.07-.08-.28c-.95-.55-2.05-.78-3.31-.5-2.51.55-4.55 2.52-6.17 4.61 0 .32 0 .65-.01.97 0 .1-.01.73-.01.73-.13-.03-.26-.06-.39-.1 0 .08-.01.14-.03.16-3.06 4.01-5.78 8.4-7.6 13.14 2.12 1.21 4.56 1.79 6.99 1.67 0-.67.04-1.33.13-1.98.19-1.43.53-2.85.91-4.24.76-2.86 1.81-5.63 3.1-8.28-.14.28.01.94.01 1.25s.13.97-.01 1.25c-1.03 2.11-1.9 4.29-2.6 6.53-.33 1.08-.63 2.17-.88 3.27-.14.59-.27 1.19-.38 1.79-.03.13-.05.27-.07.4.81-.05 1.61-.18 2.41-.4.87-.23 1.68-.67 2.56-.89.94-.25 1.76-.06 2.67.19 0-.03.01-.05.02-.07 1.78-3.88 3.68-7.72 5.7-11.49-.04.07 0 .29 0 .37.01.29.01.59.01.88 0 .3 0 .59-.01.89 0 .03.03.3 0 .36-1.64 3.06-3.2 6.18-4.68 9.32 1.75.43 3.51.76 5.3.97 4.29.5 8.64.41 12.95.1 2.21-.17 4.41-.39 6.61-.63.8-.08 1.77-.09 2.66-.28.01-.09.02-.14.04-.15.53-.2 1.05-.4 1.58-.6.17-.15.33-.33.45-.54-.06.1-.08.23-.08.4 8.33-3.16 16.76-6.07 24.91-9.65-.07.03-.05.63-.03 1.15.08-1.84.3-3.63.91-5.44.92-2.7 2.41-5.2 4.16-7.44 3.61-4.64 8.38-8.43 13.35-11.51 8.93-5.52 19.04-8.99 29.24-11.47 0-.29-.01-.53-.07-.58.24.2.47.34.7.43.72-.18 1.44-.35 2.17-.51.87-.7 1.58-1.85 2.05-2.66 1.23-2.13 2.3-4.35 3.24-6.62 1.95-4.74 3.25-9.71 3.98-14.78-.01.05-.01.1-.01.15-.14 1.18.17 2.42.01 3.6-.55 3.8-1.42 7.55-2.64 11.18 1.43-4.14 2.66-8.91 3.22-12.79 0-.05.01-.09.01-.14.01-.01 0-.01 0-.01-.04-.23-.08-.46-.13-.69v-.01c-.01-.08-.02-.16-.04-.24-1.05-5.36-3.26-10.44-6.4-14.9-.24-.35-.02-1.47-.02-1.88 0-.35.21-1.6.02-1.87 3.14 4.46 5.35 9.54 6.4 14.9.14.7.26 1.41.36 2.12.04.26.04.59.11.85.1.36-.14.63.19.07.5-.84.77-1.98 1.08-2.9.69-2.08 1.24-4.2 1.64-6.35.1-.56.2-1.12.28-1.68.1-.67.19-1.34.27-2.02.04-.41.08-.82.12-1.24 0-.05.01-.09.01-.14.01-.01.01-.02 0-.04.01-.16.02-.31.03-.46v-.13c0-.23-.01-.39-.06-.43.03.02.06.05.09.07.02-.26.03-.51.04-.77 0-.09.01-.27.01-.44v-.07c-.02-.5-.04-.98-.08-1.48zm-133-115.57c-.22-.05.19-2.45 0-2.5 14.77 3.81 29.39-2.47 41.82-10.05-.14.08-.11.43-.05.85.38-.56.77-1.11 1.17-1.66-.03.05.01.3.01.37v1.77s.02.32-.01.36c-1.66 2.27-3.17 4.64-4.51 7.11.04-.07-.01-.29-.01-.37v-1.76c0-.04-.02-.31.01-.37.5-.92 1.02-1.82 1.58-2.71-12.03 7.07-25.95 12.59-40.01 8.96zm45.67 43.41c-5.98 2.1-12.3 3.01-18.62 2.69-.07 0 .02-2.5 0-2.5 6.32.32 12.64-.59 18.62-2.69-.24.08.28 2.4 0 2.5zm-2.95-50.52c.14-.13-.01-1.05-.01-1.25 0-.19-.12-1.11.01-1.25 4.44-4.33 10.92-6.23 17-4.97.04.01.06.14.06.34.07-.05.15-.09.23-.13-.02.01.01.33.01.37v1.77c0-.05.01.35-.01.36-2.15 1.07-3.96 2.75-5.18 4.83.03-.07-.01-.29-.01-.37v-1.77c0-.02-.02-.31.01-.36.63-1.08 1.42-2.05 2.34-2.88-5.29-.34-10.63 1.58-14.45 5.31zm17.97 49.29c0 .03 0 .08-.01.15v1.1c-2.99-2.36-7.07-1.86-10.58-1.34.1-.01-.14-2.48 0-2.5 3.15-.47 6.75-.92 9.62.7-1.02-3.04-2.32-5.99-3.86-8.8-.05-.08-.01-.28-.01-.37-.01-.3-.01-.59-.01-.88 0-.3 0-.59.01-.89 0 0 .03-.32.01-.36 2.07 3.77 3.69 7.78 4.82 11.94.1.38.01.87.01 1.25z"/>
  <path fill="none" d="M329.17 317.6c-.08.42-.2.84-.33 1.25-.27.79-.63 1.55-1.07 2.25-1.84 2.9-4.84 4.79-8.03 5.88-.02-.4-.02-.68.01-.68-13.25 1.35-26.53 2.71-39.58 5.48.84-1.58 1.6-3.21 2.28-4.87.24-.57.47-1.17.7-1.79.01-.02.02-.04.03-.07.21-.56.41-1.14.61-1.74 1.43-4.14 2.66-8.91 3.22-12.79 0-.05.01-.09.01-.14.05.24.09.49.13.74.05.35.1.71.14 1.06.06.47-.18.85.22.29.64-.9.92-2.41 1.26-3.45.72-2.27 1.27-4.59 1.65-6.95.26-1.63.44-3.27.55-4.92 2.46 1.96 5.03 3.99 8.08 4.94 2.48.77 5.27.74 7.55-.55-.01.36.02.61.12.64 3.75 1.18 7.39 2.7 10.85 4.58 1.79.98 3.54 2.05 5.22 3.2 1.59 1.1 3.26 2.23 4.53 3.7 1.04 1.2 1.56 2.49 1.85 3.94z"/>
  <path d="M383.99 306.01c-3-10.68-11.11-19.21-20.12-25.28-10.49-7.06-23.46-11.43-36.1-9.22.33-.28.65-.57.98-.85.03-.02.02-.25.01-.4.36-.16.71-.34 1.06-.54.15-.08.02-1.66.02-1.87 0-.2-.17-1.79-.02-1.88-3.27 1.86-7.02 2.14-10.7 1.9-3.9-.25-7.79-.91-11.62-1.64-7.46-1.41-14.79-3.48-21.91-6.14.01-.31-.01-.59-.11-.73-8.79-12.2-13.59-26.63-18.68-40.63-5.61-15.45-11.22-30.91-16.84-46.37-2.61-7.2-5.23-14.4-7.84-21.61 1.05.25 2.11.49 3.16.73-.04-.01.02-1.73.02-1.87 0-.16.08-1.85-.02-1.88-.33-.08-.67-.15-1-.23-.01-.15-.03-.26-.08-.29-3.79-2.57-6.63-6.17-9.16-9.94-2.75-4.1-5.31-8.34-7.75-12.62-2.67-4.69-5.18-9.47-7.51-14.34 4.77 1.7 9.55 3.36 14.34 5-.12-.04.14-1.2 0-1.25-5.03-1.72-10.05-3.47-15.06-5.27-1.73-3.67-3.36-7.39-4.89-11.15-1.83-4.5-3.52-9.05-5.05-13.66 1.89-3.92 3-8.17 3.3-12.52.03-.42.03-.91.01-1.39.09.62.17 1.24.25 1.86-.16-1.22.17-2.52 0-3.75-1.33-10.03-2.59-20.08-4.02-30.11-1.35-9.39-3-18.79-6.01-27.81-.85-2.53-1.78-5.04-2.88-7.48-.4-.87-.89-1.95-1.86-2.29-.12-.04-.24-.07-.36-.08-.13-.15-.28-.28-.44-.41.05.04.06.19.06.4-.56.04-1.07.36-1.28.93-.02.05-.03.11-.04.17-4.22 3.56-8.47 7.17-12.38 11.09s-7.47 8.15-10.32 12.95c-10.49-5.15-22.98-4.87-33.96-1.44-.06.02-.09.12-.11.28-3.9-4.26-7.8-8.51-11.69-12.77-3.15-3.44-6.22-7.09-10.13-9.66-.62-1.06-1.4-1.78-2.18-.89-.47.55-.24 1.66-.24 2.31 0 .25-.02.56-.04.87v.01c-1.95 7.85-4.02 15.69-5.55 23.63-1.62 8.34-2.02 16.86-1.6 25.35.1 2.01.27 4.02.51 6.01-2.22 1.43-4.06 3.39-5.36 5.71-1.28 2.31-2.02 4.98-2.02 7.81 0 2.61.62 5.08 1.73 7.25-9 .06-18 .64-26.94 1.72-5 .61-9.97 1.38-14.92 2.3-.08.01.07 1.23 0 1.25 14.03-2.6 28.29-3.95 42.56-4.03.23.39.49.77.76 1.13l.01.01v.01c.78 1.57 1.61 3.12 2.47 4.65-10.34 1.13-20.72 1.83-31.12 2.1-.02 0 0 1.25 0 1.25 10.63-.28 21.24-1.01 31.81-2.18.57.99 1.16 1.97 1.78 2.94-11.94 2.47-23.9 4.79-35.89 6.98-5.67 1.04-11.34 2.04-17.02 3.01-.08.01.06 1.24 0 1.25 17.93-3.07 35.8-6.44 53.61-10.13 5.16 8 11.42 15.28 18.58 21.58.63.56 1.28 1.12 1.95 1.67.01.24.02.46.05.69.13.99.19 1.97.27 2.96.01.08.01.14.02.19-.01.02-.01.05-.01.08-.03.57-.06 1.13-.1 1.7-.15 1.87-.4 3.73-.7 5.58-.6 3.62-1.43 7.21-2.21 10.79-.79 3.65-1.54 7.31-1.95 11.02-.07.61-.12 1.22-.17 1.84 0-.1-.02-.17-.05-.2-3.75-2.79-8.92-3.27-13.14-1.38l.17-40.74h-1l.01-1-110.33-1-.01 1-1 .03 2.33 77.19 1-.03-.02 1 24.96.56v.84c0 .8-.14 1.72.02 2.5.14.67.24 1.34.3 2.02.04.4.06.79.07 1.19v.05c-.01 1.31-.02 2.62-.01 3.94.01 1.34.01 2.69.16 4.03.07.67.18 1.34.34 2 .04.16.08.33.13.49.04.33.1.33.2 0 .03-.04.07-.08.1-.13 2.4 2.33 5.31 3.84 8.43 4.9L5.02 364.17l1 .21c-.01.16-.01.31.03.39 1.29 2.16 3.78 3.37 6.26 3.33 1.21-.02 2.45-.35 3.47-1.02.53-.35.73-.73.8-1.26v-.03c.02-.12.03-.25.03-.39.01-.41.01-.81.01-1.21l.35.08 35.6-153.67c6.08.9 12.19 1.66 18.31 2.24 3.86.36 7.73.65 11.61.81v168.06h.72v.15c.01.99.09 1.92.55 2.81 1.04 2.02 3.09 2.61 5.22 2.62 1.27.01 2.54-.1 3.79-.31 1.11-.19 2.32-.4 3.31-.97.88-.5 1.48-1.31 1.54-2.34.03-.65.04-1.3.02-1.96l1.19-.01-1.35-168c6.93-.29 13.83-1.03 20.65-2.39.79-.16 1.58-.32 2.36-.5l25.4 95.28h-.08c-.6-.01-1.19-.02-1.79-.03-1.34-.02-2.67-.02-4.01 0-5.1.07-10.2.4-15.26.96 0-.26-.02-.44-.06-.44-4.16-.52-6.93-4.03-10.51-5.88.02-.43.02-.84-.05-.87-2.87-1.16-5 1.48-6.45 3.57-1.8 2.63-3.78 5.22-5.17 8.09-2.64 5.4-3.27 11.5-3.47 17.43-.02.7.15 1.55.27 2.32v.79c0 .16-.04.41.01.55.46 1.14 1.77 1.52 2.9 1.44 1.22-.07 2.32-.64 3.47-.99 0 .09-.02.15-.04.16.31-.14.63-.26.95-.36.01 0 .02 0 .02-.01.02 0 .05-.01.07-.01v-.01c3.19-.92 6.94.07 10.13.38 4.01.39 8.04.68 12.06.86 8.13.36 16.28.28 24.4-.22l7.42 27.82.59-.16v.07c0 .12 0 .23.01.34.22.44.53.82.88 1.14-2.97 4.27-5.47 8.93-6.86 13.95-.15.55-.02 1.32-.02 1.88 0 .29.05.64.07.98 0 .13 0 .24.01.34 0 .2-.01.38-.06.55.03-.1.06-.21.09-.31.02.05.04.09.06.11 3.06 2.1 6.96 2.83 10.57 1.85.87-.23 1.68-.67 2.56-.89.97-.25 1.84-.03 2.79.22 2.05.54 4.11.95 6.22 1.2 4.29.5 8.64.41 12.95.1 2.21-.17 4.41-.39 6.61-.63 1.34-.14 3.21-.07 4.28-1.03 8.43-3.21 16.97-6.14 25.23-9.77.02 2.46.32 4.8 1.47 7.02 1.15 2.23 2.91 4.08 4.94 5.54 4.2 3.02 9.36 4.44 14.46 4.89 12.31 1.08 24.91-3.65 33.44-12.59.04-.04.06-.12.07-.21-.24.17-.47.34-.71.52.18-.13-.02-1.63-.02-1.87 0-.17-.08-.95-.06-1.45-7.24 7.19-17.15 11.48-27.34 11.96-9.15.43-21.79-2.27-25.42-11.97-.19-.52-.35-1.05-.48-1.59-.06-.25-.12-.89-.17-1.29v-.01c.02-.24.04-.46.06-.58.13-.78.33-1.55.57-2.3.84-2.65 2.25-5.11 3.91-7.33 3.32-4.44 7.72-8.09 12.33-11.11 9.44-6.18 20.36-9.87 31.28-12.52.77.3 1.5.02 2.15-.5 13.9-3.19 28.11-4.66 42.28-6.11.02.43.01.75-.08.78 3.74-1.19 7.35-3.52 9.05-7.19.8-1.73.97-3.53.98-5.41s.13-3.82-.48-5.62c-.72-2.09-2.28-3.59-4-4.9-1.79-1.36-3.68-2.61-5.63-3.76-3.67-2.16-7.55-3.9-11.59-5.23v-1.01c0-.09.04-.5-.02-.55-1.96-1.63-3.44-3.79-4.27-6.21.04.11-.01.48-.01.55-.01.44-.01.88-.01 1.33 0 .44 0 .88.01 1.32 0 .16-.04.4.01.55.45 1.3 1.08 2.53 1.89 3.64-1.99.7-4.22.6-6.24-.03-3-.93-5.52-2.9-7.94-4.83.03-1.84-.01-3.69-.1-5.52-.23-4.72-1.09-9.41-2.6-13.9-1.47-4.39-3.55-8.55-6.2-12.34.48.3.95.61 1.41.95.01.23.03.41.07.43.34.13.68.26 1.02.38l.01.01c.17.12.33.25.49.38-.03-.03-.05-.1-.05-.22 7.25 2.74 14.73 4.86 22.34 6.3 3.83.73 7.72 1.38 11.62 1.64 1.4.09 2.82.11 4.21-.02l-.48.42c-.04.04-.02.59-.02.55v2.65c0 .08.06.52.02.55l2.91-2.52c.07 1.06.2 2.37.06 2.4 11.2-2.57 22.85.24 32.8 5.64 9.34 5.08 18.08 12.57 22.92 22.19 1.19 2.36 2.13 4.84 2.75 7.41.34 1.4.58 2.83.74 4.27.06.51.11 1.03.14 1.55 0 .01.02.19.05.4v.03l-.03.6c-.03.6-.08 1.19-.14 1.79-.53 5.62-2.1 11.16-4.43 16.3-4.29 9.49-11.43 17.86-20.66 22.84-9.58 5.17-21.23 6.51-31.59 3.16-.02-.6-.03-1.06.02-1.07-1.25.18-2.44.01-3.61-.3l-.54-.15v-.01c-.76-.22-1.51-.5-2.27-.76-1.96-.68-3.96-1.15-6.04-1.27-4.34-.26-8.67.73-12.73 2.17-8.19 2.9-15.91 7.38-22.85 12.56-.05.04-.08.21-.08.43.24-.25.48-.49.72-.74-.21.22.02 1.56.02 1.87 0 .25.12 1.21.05 1.67 6.75-4.96 14.23-9.24 22.14-12.04 4.06-1.44 8.39-2.44 12.73-2.17 2.08.13 4.08.59 6.04 1.27.93.33 1.86.67 2.81.92 10.43 4.65 22.69 4.08 32.99-.69 9.98-4.63 17.77-13.21 22.45-23.07 2.49-5.24 4.17-10.93 4.79-16.71.62-5.8.57-12.09-1.02-17.73zM217.02 108.07c-6.71-2.41-13.4-4.87-20.07-7.41.15-.78.29-1.57.4-2.36 1.48-1.43 2.92-2.9 4.32-4.41.54-.14 1.28-1.05 1.58-1.36 1.82-1.92 3.39-4.06 4.71-6.34.14-.24.28-.49.41-.74l.03.12c2.48 7.64 5.35 15.16 8.62 22.5zm-109.37-58.7c-.24-5.12.3-10.31 1.16-15.36 1.69-9.89 4.45-19.63 6.82-29.38.01-.05.02-.11.02-.16.07 0 .14.01.22.03 0 .2.03.36.08.39.44.25.87.51 1.29.79.04.07.08.14.11.2.77 1.55 1.41 3.17 2.04 4.78 1.26 3.26 2.31 6.59 3.16 9.98 1.71 6.89 2.7 14.22 2.32 21.17-.01.09-.01.18-.01.28-.53.32-1.7-.21-2.11-.37-1.05-.4-2.06-.92-2.95-1.61-.86-.67-1.6-1.49-2.13-2.45-.25-.47-.46-.97-.6-1.49-.04-.16-.08-.33-.11-.5v-1.34c0-.14-.03-.3-.03-.44-.06.38-.09.75-.1 1.14v.01c-.06.24-.06 1.9-.03 2.73-.22-.66-.39-1.33-.53-2.01.02.14-.02.43-.02.55v2.65c0 .18-.02.38.02.55.35 1.71.91 3.37 1.68 4.94 0 .01.01.01.01.02-2.4.32-4.59 2.02-5.33 4.35-.05.14-.01.44-.02.55v1.33c0 .14-.05 1.86.02 1.87 1.4.19 2.76.61 4.02 1.25-.01-.01.01-.56.01-.56.01-.44.01-.88.01-1.32s0-.88-.01-1.32c0-.07.04-.53-.01-.55-.53-.27-1.08-.5-1.64-.69 1.38-.97 3.13-1.43 4.82-1.11-.01 0-.01-.32-.01-.7.28.31.58.51.74.19.04-.1.01-.49.01-.55 0-.44.01-.88.01-1.32 0-.45-.01-.89-.01-1.33 0-.04-.01-.11-.02-.18.52.33 1.07.62 1.63.86.53.23 2.7 1.31 2.94.24.04-.16.02-.4.02-.55v-2.65c0-.16-.05-.39-.02-.55-.02.09-.06.17-.1.23.22-7.97-.36-15.97-2.16-23.74-.85-3.68-1.94-7.29-3.29-10.81 2.86 2.35 5.32 5.22 7.82 7.95 4.01 4.39 8.03 8.77 12.05 13.16-.08-.09-.08-.39-.07-.73 10.88-3.36 23.22-3.62 33.62 1.42 0 .2-.02.37-.09.48.08-.14.16-.27.25-.4.21.1.42.2.63.31-.07-.04-.04-.79-.01-1.34 5.72-9.14 14.03-16.23 22.21-23.12.05-.05.08-.19.08-.38.3-.46.84-.67 1.43-.61.03 0 .06.01.09.02.99 1.04 1.36 2.46 1.68 3.87.42 1.88.74 3.78.96 5.7.13 1.08.21 2.17.27 3.26.01.19.02.39.03.59-.07.43-.01.94-.03 1.35-.11 2.06-.33 4.1-.67 6.13-.64 3.8-1.68 7.54-3.12 11.12-.66 1.62-1.39 3.24-2.37 4.7-.44.66-.93 1.28-1.49 1.85-.23.25-.56.66-.87.81-.18.3-.38.33-.58.07-.15-.15-.25-.32-.29-.54v-.07c-.01-.71-.03.61-.03.68 0 .85 0 1.71.01 2.56.01.3-.03.59.12.87.35.65.65.29 1.07-.08.79-.7 1.47-1.52 2.06-2.4 1.23-1.83 2.09-3.89 2.85-5.95 1.64-4.38 2.68-8.97 3.13-13.62.41-4.22.42-8.57.12-12.8-.14-2.02-.4-4.04-.78-6.03.93 1.84 1.63 3.88 2.33 5.83 1.62 4.53 2.88 9.18 3.91 13.88 2.06 9.41 3.21 18.99 4.47 28.53.65 4.86 1.3 9.72 1.94 14.58v.01c-.43 4.05-1.58 7.99-3.41 11.63-.96 1.93-2.11 3.76-3.42 5.48-.36.46-.73.92-1.12 1.37 0-.23.02-.41.09-.49-.91 1.04-1.83 2.07-2.78 3.08-.04.01-.08.01-.11.01-.16 0-.31-.07-.44-.23l-.01-.01v.45c-.01.12-.01.23 0 .34-.01.02-.01.03-.01.04-1.14 1.22-2.33 2.42-3.54 3.59-1.65 1.59-3.36 3.14-5.12 4.61-8.12-3.11-16.21-6.31-24.25-9.61 3.62-.78 6.78-2.78 9.05-5.56 2.26-2.77 3.62-6.31 3.62-10.16 0-4.56-1.91-8.69-4.98-11.62-.46-2.41-1.51-4.69-3.18-6.5-1.86-2.01-4.49-3.49-7.27-3.58-3.14-.11-5.64 2.27-7.26 4.73-.67 1.01-1.22 2.08-1.68 3.19-2.83 1.71-5.09 4.26-6.43 7.31-.68-.52-1.37-1.03-2.08-1.5-.01-.12 0-.21.01-.21-.08.01-.17.03-.25.04-.57-.38-1.15-.74-1.75-1.09-.03-.02-.06-.03-.09-.05 0-.03-.01-.06-.02-.08v-.07c0 .01 0 .03-.01.04-.02-.05-.06-.1-.11-.12-.06-.03-.16-.02-.26-.01-1.4-.82-2.97-1.75-4.55-1.91-1.78-.19-3.62.65-5.18 1.43-.13.06-.26.13-.38.2-.02 0-.04-.01-.06-.01.01 0 .01.01.01.04-.88.45-1.73.98-2.53 1.57h-.01c-.04 0-.09 0-.13.01-.01 0-.02.04-.02.1-.36.26-.7.53-1.04.82-.18-.44-.39-.86-.62-1.27v-.55c0-1.06-.02-2.08-.21-3.13-.41-2.27-.9-4.64-2.75-6.2-.83-.7-1.79-1.21-2.74-1.7-1.07-.54-2.11-1.03-3.33-.84-2.16.35-4.18 2.08-5.32 3.88l-.09.15c-2.88.05-5.59.87-7.91 2.27-.5-3.17-.83-6.37-.98-9.58zm45.12 41.92c-2.46-1.72-4.88-3.49-7.29-5.3 14.35 4.69 28.38 10.33 41.99 16.86-2.64 1.94-5.39 3.73-8.24 5.34-6.81-3.92-13.49-8.07-20.02-12.45-1.75-1.18-3.49-2.37-5.22-3.59 0-.27-.04-.74-.04-.95 0-.05 0-.09.01-.09-.39.08-.79.14-1.19.18zm-13.01-3.4c.01-.05 0-.1 0-.15-.15-1.77-.52-3.53-.72-5.3-.33-2.94-.55-5.89-.66-8.85l.03.06c.06.18.11.15.16-.09.13-.16.21-.42.31-.6.2-.36.42-.71.65-1.05 1.91-2.73 4.89-4.63 8.18-5.18.66.42 1.32.88 1.95 1.36-.63 1.72-.98 3.58-.98 5.52 0 3.17.93 6.13 2.52 8.63-1.44-.61-2.89-1.24-4.33-1.86.14.07-.16 1.19 0 1.25.29.13.58.25.87.37-.08.09-.15.19-.22.28v1.25c.27-.35.53-.69.8-1.04v-.24c1.41.61 2.82 1.21 4.23 1.81h.01c2.94 3.45 7.33 5.64 12.21 5.64.38 0 .76-.01 1.13-.04h.02c8.46 3.48 16.96 6.86 25.49 10.14-.96.79-1.93 1.55-2.92 2.3-14-6.78-28.45-12.61-43.24-17.44.1.03-.05.82-.04 1.13-.37-.27-.75-.55-1.12-.83.2.15-.2 1.1 0 1.25 2.35 1.77 4.72 3.51 7.11 5.22-1.62.08-3.25-.02-4.87-.19-1.23-.13-2.48-.28-3.7-.48-1.1-.19-1.97-.66-2.86-1.28v-.01c0-.52.02-1.06-.01-1.58zm-2.46-23.75c1.17-.49 2.42-.84 3.64-.71.92.09 1.82.45 2.7.9-.43.04-.85.07-1.28.08-1.69.06-3.39-.03-5.06-.27zm17.3 4.03c.68-2.63 1.46-5.3 2.76-7.69.53-.3 1.09-.58 1.66-.81-1.66 1.7-2.61 4.35-3.06 6.61-.41 2.01-.58 4-.58 6.04v.03c-.01.24-.02.45.01.39 0 1.76.1 3.49.79 5.14.73 1.76 2.11 3.44 4 4 2.32.7 3.7-.93 4.81-2.74 1.88-3.04 2.46-6.33 2.53-9.79.05.18.03-.01.01-.27v-.01c.01-.18.01-.37.01-.55 0 .08-.01.18-.03.28-.02-.28-.03-.55 0-.49.02.03.02.08.03.14v-.22c-.01-2.07-.22-4.11-.89-6.08-.41-1.22-1.07-2.76-2.12-3.61.08-.01.16-.01.24-.01 4.2 0 8.02 1.73 10.76 4.52.09.29.16.59.23.89.09.37.37 1.39.44 2.13 0-.81-.03-1.61-.1-2.4 1.17 1.33 2.11 2.86 2.75 4.54.65 1.68 1 3.5 1 5.4 0 7.77-5.9 14.18-13.44 15-.23-.09-.45-.19-.68-.28-4.27-1.75-8.52-3.53-12.77-5.34-2.06-2.58-3.28-5.84-3.28-9.38 0-4.98 2.43-9.4 6.17-12.15-.49 1.38-.89 2.8-1.25 4.21-.2.78.2 1.72 0 2.5zm3.75-9.3c1.84-2.67 4.55-4.88 7.98-4.37 3.04.45 5.72 2.35 7.44 4.84.37.53.69 1.09.96 1.66-2.74-2.17-6.2-3.47-9.96-3.47-2.28 0-4.45.48-6.42 1.34zm5.07 29.76c-3.19-.27-6.09-1.55-8.4-3.52 2.8 1.19 5.59 2.36 8.4 3.52zm27.08 15.71c1.4.68 2.8 1.38 4.19 2.09-1 2.84-2.21 5.59-3.57 8.28-2.91-1.52-5.79-3.09-8.66-4.69 2.79-1.74 5.48-3.64 8.04-5.68zm.97-.78c.44-.37.88-.73 1.31-1.1.57-.49 1.13-.98 1.69-1.49.57.22 1.13.44 1.69.65-.32 1.27-.69 2.51-1.11 3.74-1.19-.61-2.38-1.21-3.58-1.8zm3.98-3.47c.47-.42.92-.85 1.38-1.29-.12.56-.24 1.12-.38 1.67-.33-.11-.67-.24-1-.38zm-66.43-18.85c-.96-.1-1.92-.19-2.89-.27.21-.13.42-.27.62-.44 1.56-1.32 2.13-3.47 2.47-5.39.35-1.9.36-3.82.34-5.75-.03-2.32-.43-4.58-1.52-6.65-.04-.07-.07-.14-.11-.21.79.86 1.49 1.81 2.06 2.83.2.34.37.69.54 1.05 0 .21.07.59.07.89 0 .14-.02.27-.06.36.11-.22.19-.44.25-.67.74 1.78 1.15 3.73 1.15 5.77 0 3.32-1.08 6.4-2.91 8.89.01-.22.01-.41-.01-.41zM126 59.53c0-.01-.02-.01-.02-.01-.15-.18-.32-.34-.49-.48-.01-.08-.03-.16-.06-.24-.37-1.01-1.06-1.02-1.77-.62h-.01c-1.54-.72-3.21-1.21-4.97-1.41.82-.66 1.75-1.24 2.77-1.51 1.22-.33 2.29-.04 3.39.51 1.96.98 3.89 2.05 4.86 4.12.49 1.07.73 2.24.95 3.39.05.24.1.49.14.74.02.1.03.23.03.37v.01c-.01.09-.04.17-.07.25-.9-1.53-2.03-2.89-3.36-4.04-.44-.39-.91-.75-1.39-1.08zm3.52 11.22v-.51c.03.23.05.46 0 .51zm-26.27 6.4c-.12-.23-.23-.47-.34-.7.19.4-.02 1.43-.02 1.87v.1c-.72-1.75-1.11-3.66-1.11-5.66 0-5.14 2.58-9.69 6.52-12.42.23 1.85.53 3.7.89 5.53v.01c-1.36 4.05-3.37 7.86-5.94 11.27zm1.1 2.21c2.32-3.39 4.1-7.14 5.28-11.09.01-.04.02-.1.02-.16.01.03.01.04.02.07-.01-.03-.01-.06-.01-.09v-.02c0-.13-.01-.27-.01-.35v-1.23c.07-.7.16-1.4.02-2.06-.33-1.47-.61-2.94-.86-4.42 2.12-1.35 4.58-2.18 7.23-2.32-.44 1.11-.6 2.32-.6 3.53 0 .7.06 1.4.14 2.08-.07-.56.01-1.13.02-1.7.01-.05.01-.09.02-.13.05-.22.1-.44.17-.66.16-.52.38-1.01.65-1.48.35-.6.77-1.15 1.24-1.64h.01c1.79.1 3.48.51 5.06 1.18-.61.56-1.14 1.24-1.38 1.59-1.07 1.52-1.83 3.26-2.26 5.07-.4 1.65-.45 3.3-.45 4.99s.07 3.34.49 4.98c.45 1.75 1.21 3.7 2.51 5 .04.04.08.08.12.11-5.7-.41-11.4-.61-17.11-.62-.11-.21-.22-.42-.32-.63zm14.39-9.03c0 .06-.01.11-.01.16-.02-.18-.01-.38-.04-.57.02.15.04.29.05.41zm-11.85 13.74s0-.01-.01-.01c-.52-.94-1.05-1.87-1.55-2.82 2.88.01 5.75.07 8.63.18 4.83.19 9.65.53 14.46 1.01-.57.69-1.21 1.33-1.9 1.9-5.23.86-10.48 1.6-15.74 2.22-1.43-.62-2.74-1.46-3.89-2.48zm17.27 1.88c-2.16 1.2-4.65 1.89-7.3 1.89-1.14 0-2.26-.13-3.33-.38 3.55-.45 7.09-.95 10.63-1.51zm-15.63.86c-.1-.16-.2-.32-.3-.49.24.16.48.3.73.44-.15.03-.29.04-.43.05zm20.78 24.26c-2.67-2.27-5.2-4.68-7.62-7.21-3.58-3.77-6.88-7.8-9.86-12.05 1.45-.3 2.89-.6 4.33-.91 5.63-1.19 11.26-2.42 16.89-3.67.09-.02-.08-1.23 0-1.25-7.31 1.63-14.64 3.21-21.97 4.74-.62-.9-1.22-1.81-1.81-2.74.61-.07 1.21-.14 1.82-.22 1.79.7 3.74 1.08 5.77 1.08 3.65 0 7.01-1.22 9.72-3.27 1.82-.3 3.65-.61 5.47-.93.08-.02-.06-1.24 0-1.25-1.24.22-2.49.44-3.73.65 2.86-2.9 4.62-6.88 4.62-11.28 0-1.92-.34-3.77-.96-5.48.27-.22.54-.42.81-.62h.01c.81.01 1.47 1.08 1.93 1.61.68.79 1.32 1.62 1.91 2.48.57.82 1.09 1.67 1.58 2.54.02.04.04.09.07.13v.21c.12 5.08.53 10.15 1.26 15.18 0 .17.01.35.01.52 0 .16.01.32.01.46-.04.32-.14.7-.01.79.96.69 1.88 1.23 3.07 1.43 1.22.2 2.47.35 3.7.48 2.14.23 4.3.32 6.44.05 8.2 5.8 16.66 11.22 25.35 16.26-7.14 3.87-14.88 6.56-23.14 7.58-5.45.66-10.96.54-16.36-.43 0-.1-.02-.16-.03-.16-3.62-.29-6.6-2.44-9.28-4.72zm-3.97 43.12c.17-2.16.47-4.31.84-6.45.7-4.06 1.67-8.06 2.51-12.09 1.36-6.49 2.24-13.19 1.83-19.83 2.17 1.72 4.54 3.2 7.29 3.63.01.07.02.11.05.11 15.25 2.99 30.48-1.08 43.53-8.9 3.05 1.73 6.13 3.41 9.24 5.03-7.15 13.72-18.14 25.76-26.37 38.69-3.29 5.17-6.19 10.58-8.32 16.32-2.31-.75-4.25-2.19-6.25-3.54-2.27-1.55-4.66-2.6-7.27-3.45-2.81-.91-5.63-1.8-8.45-2.7-2.7-.86-5.41-1.81-8.27-1.87-.01-.08-.01-.16-.01-.24 0-.76.05-1.4-.35-2.07.1.18.09.59.05 1-.06-.63-.11-1.25-.14-1.88 0-.04 0-.07-.01-.11.04-.55.06-1.11.1-1.65zm-13.19-2.89c4.2-1.89 9.33-1.43 13.08 1.32-.08 1.92-.07 3.85-.03 5.77.01.25.01.5.03.75-.08 0-.16 0-.24.01-.01 0-.01.04-.02.1-2.64-.69-5.36 1.66-7.19 3.3-2.25 2.03-4.17 4.4-5.71 7.01l.08-18.26zm-1.32 36.34h.14v-.11c.72-.55 1.5-1.02 2.32-1.41 1.93.79 4.44.86 6.3.85 2.28 0 4.56-.17 6.82-.53 1.66-.26 3.37-.68 4.52-1.97h.01c1.71.02 3.22.65 4.58 1.6-12.36 6.75-26.41 9.86-40.42 10.63-8.46.46-16.95.1-25.39-.68-7.37-.69-14.85-1.46-22.08-3.11-5.76-1.32-11.46-3.4-16.1-7.04l79.08 1.76v.18c.07-.06.14-.12.22-.17zm-82.41-3.84-24.12-.54-2.27-75.2 108.3.98-.18 40.88v.01c-.07.15-.02.78 0 1.09l-.15 34.6-80.8-1.8c-.27-.27-.54-.55-.8-.83.08.08.05.48.02.81zM15.36 362.36c-.36.18-.74.31-1.06.41-1 .32-2.07.4-3.11.26-1.3-.17-2.55-.69-3.57-1.49l32.3-153.31c2.28.65 4.63 1.09 6.93 1.47 1.25.21 2.5.4 3.75.6L15.36 362.36zm79.2 19.24c-1.76.47-3.62.69-5.45.69-1.55.01-3.17-.21-4.35-1.3-.1-.09-.19-.18-.27-.28V213.73c3.33.11 6.67.14 9.99.07l1.35 167.32c-.4.2-.84.36-1.27.48zM49.37 205.09c-6.77-1.04-14.13-2.22-19.36-6.96.01-.17 0-.35 0-.52 0-.16-.08-.6-.01-.73-.13.24-.25.61-.42.85-.13-.12-.26-.24-.38-.37.07.07.09.27.09.54-.01-.01-.01-.03-.01-.04-.05-.16-.09-.33-.13-.49-.16-.66-.27-1.33-.34-2-.04-.33-.06-.65-.08-.97.09 2.32-.04 1.56-.03.78 0-.39.01-.78.01-1.17v-.16c.03-2.65.17-5.39-.15-8.05l.15.01c4.43 4.64 10.34 7.34 16.47 8.99 6.95 1.87 14.2 2.64 21.33 3.4 16.13 1.7 32.62 2 48.48-1.83 7.82-1.89 15.39-4.77 22.34-8.82.73.69 1.41 1.43 2.04 2.17 2 2.32 3.94 4.66 6.04 6.87-.98.82-2.04 1.52-3.18 2.09 0-.14.02-.22.05-.23-29.03 13.73-62.07 11.38-92.91 6.64zm140.33 88.67c0 .02 0 .06.01.1v.04c-.03.47.02.95.08 1.44.01.01.01.02 0 .02 0 .14-.03.24-.07.28.03-.03.06-.05.09-.08.05.54.08 1.07-.03 1.56.15-.66.32-1.32.5-1.98 2.75-2.44 5.63-4.72 8.64-6.81-1.92 3.15-3.32 6.64-4.34 10.18-1.21 4.21-2.15 8.59-2.61 12.94-.3 2.72-.42 5.6-.21 8.41-4.12.31-7.99-2.15-11.48-4.1-3.55-1.98-7.09-4.15-9.89-7.14-2.9-3.1-4.71-7-5.71-11.1-.56-2.32-.89-4.69-1.02-7.07-.01-.2-.02-.39-.02-.59v-.1c.09-.76.1-1.54.18-2.31.1-.94.23-1.87.39-2.79.97-.46 1.88-1.07 2.7-1.82.2-.18.02-1.6.02-1.87 0-.28-.22-1.7-.02-1.88-.79.72-1.66 1.31-2.58 1.77v-.21c0-.25.01-.49.06-.73-.06.33-.12.66-.17.99-1.36.66-2.83 1.02-4.37 1.09.02-.36.02-.71.04-1.04.05-.97.06-1.95.06-2.92v-.08c.01-.13.01-.31 0-.46 0-.08-.01-.15-.01-.2 0-.7 0-1.41-.02-2.11-.09-3.87-.79-7.68-1.79-11.4-2.2-8.1-5.73-15.78-7.72-23.93-.62-2.52-1.07-5.08-1.36-7.66-.15-1.4-.26-2.81-.31-4.21-.01-.08-.02-.2-.03-.33v-.2c0 .04 0 .08-.01.12-.02-.12-.02-.23.01-.31v.19c.01-.21.01-.42.02-.62.03-.85.08-1.7.15-2.55.09-1.25-.1-2.51 0-3.75l-.14.41c-.04-.96-.39-2-.11-2.84-1.08 3.28-1.69 6.61-1.96 10.01-.4-2.63-1.87-5.12-2.98-7.49-2.28-4.94-4.56-9.87-6.84-14.82 1.83-.73 3.64-1.51 5.43-2.36.04-.02.07-.17.08-.39 2.14-.84 3.97-2.36 5.18-4.33l.18.18c6.17 5.81 13.22 10.6 20.46 14.97 3.87 2.33 7.81 4.55 11.74 6.75 5.17 14.81 15.11 27.82 28.03 36.7.9.62 1.82 1.22 2.75 1.8.31.19.65.45 1.02.7-6.87 5.23-12.62 11.95-16.7 19.58-2.03 3.8-3.62 7.82-4.74 11.98-.19.17-.37.33-.56.5-.19.18-.02 1.59-.02 1.87zm-12.06 66.65c-.49-1.04-1.11-2.11-1.87-3l-6.58-24.3c6.23 1.18 12.6 2.13 18.88 1.12-2.94 8.52-6.4 16.85-10.36 24.96-.13.27-.1.77-.07 1.22zm-9.52-31.26-8.29-30.67c1.21-2.4 2.41-4.78 3.62-7.17.05-.09.01-.49.01-.55 0-.44.01-.88.01-1.32s-.01-.88-.01-1.33c0-.07.07-.31.15-.51-.05 1.4-.05 2.81-.03 4.22.05 3.88.5 7.79 1.67 11.5 1.17 3.68 3.08 7.06 5.85 9.77 2.68 2.63 5.92 4.6 9.18 6.42 3.4 1.9 7.16 4.28 11.16 4.12-.64 2.21-1.32 4.41-2.03 6.6-7.08 1.47-14.28.28-21.29-1.08zm-31.93-121.01c1.98 4.29 3.96 8.57 5.94 12.86.97 2.11 1.95 4.21 2.92 6.32.44.95.87 1.9 1.2 2.89.12.36.2.72.28 1.08-.01.18-.01.37-.01.55 0 .19.01.39.03.6v1.29c0-.27.01-.54.03-.81.05.61.09 1.24-.04 1.74.39-1.52.42-3.34.3-5.01.33-2.65.96-5.27 1.79-7.79.03-.1.06-.21.07-.32-.57 8.22.04 16.19 2.26 24.17 2.25 8.14 5.83 15.88 7.74 24.12.52 2.21.91 4.46 1.09 6.73.04.34.04.71.07 1.05-.04.59-.06 1.19-.14 1.78-.13 1.01-.38 1.95-1.22 2.59-.17.14-.05 2.01 0 3.06v.69c1.83.14 3.62-.16 5.24-.86-.07.89-.11 1.78-.13 2.67-1.4 2.76-3.01 5.71-4.44 8.5l-24.21-89.49c.41-.15.81-.31 1.22-.47-.01.07-.01.13-.01.19 0 .49-.19 1.41.02 1.87zm-11.52 101.48c.01.26.02.51.02.7-.02-.02-.03-.13-.03-.29 0-.11 0-.25.01-.41zm4.21 20.67c-4.02-.18-8.05-.47-12.06-.86-3.19-.31-6.94-1.3-10.13-.37-.31.04-.61.11-.9.2.78-2.56 2.15-4.93 4.02-6.87.04-.04.01-.57.01-.55v-2.65c0-.09-.06-.5-.01-.55-2.58 2.68-4.21 6.16-4.65 9.85-.04.32-.04.65-.04.98-.95.33-1.89.74-2.9.8-.97.07-2.08-.2-2.65-1.01.25-4.97.85-9.93 3.13-14.41 1.38-2.72 3.26-5.19 4.98-7.7 1.12-1.62 2.64-3.55 4.6-3.82 0 .21.02.35.05.36 4.56 1.37 7.51 6.03 12.36 6.64 0 .27-.01.45-.03.45 3.91-.43 7.84-.73 11.78-.88 1.93-.07 3.87-.1 5.8-.1.96 0 1.93.01 2.9.03.4.01 1.19-.1 1.75.01l5.41 20.28c-7.8.46-15.61.52-23.42.17zm32.77 27.15-39.21-147.08c3.6-.86 7.15-1.89 10.63-3.13l33.74 124.71c-.02.41 0 .7.07.72.04.01.09.02.13.03l6.17 22.81c-.76-.27-1.61-.34-2.54-.14-2.51.55-4.56 2.52-6.18 4.62v-.08c0-.07.02-.72-.01-.73-1.1-.24-2.14-.83-2.8-1.73zm167.57-40.09c0 .01 0 .02-.01.03-.13-1.63.18-.95.01-.03zm-30.17-15.26c2.48.77 5.27.74 7.55-.55-.01.36.02.61.12.64 3.75 1.18 7.39 2.7 10.85 4.58 1.79.98 3.54 2.05 5.22 3.2 1.59 1.1 3.26 2.23 4.53 3.7 1.04 1.2 1.56 2.49 1.85 3.94-.08.42-.2.84-.33 1.25-.27.79-.63 1.55-1.07 2.25-1.84 2.9-4.84 4.79-8.03 5.88-.02-.4-.02-.68.01-.68-13.25 1.35-26.53 2.71-39.58 5.48.84-1.58 1.6-3.21 2.28-4.87.24-.57.47-1.17.7-1.79.01-.02.02-.04.03-.07.21-.56.41-1.14.61-1.74 1.43-4.14 2.66-8.91 3.22-12.79 0-.05.01-.09.01-.14.05.24.09.49.13.74.05.35.1.71.14 1.06.06.47-.18.85.22.29.64-.9.92-2.41 1.26-3.45.72-2.27 1.27-4.59 1.65-6.95.26-1.63.44-3.27.55-4.92 2.46 1.96 5.03 3.99 8.08 4.94zm-12.16 7.59c.1.16.16.37.13.69-.04-.23-.08-.46-.13-.69zm3.71-22.44c.15 1.13.27 2.27.34 3.4.04.5.06.98.08 1.48v.07c0 .17-.01.35-.01.44-.01.26-.02.51-.04.77-.03-.02-.06-.05-.09-.07.05.04.06.2.06.43v.13c-.01.15-.02.3-.03.46.01.02.01.03 0 .04 0 .05-.01.09-.01.14-.04.42-.08.83-.12 1.24-.08.67-.17 1.35-.27 2.02-.08.56-.18 1.12-.28 1.68-.4 2.15-.95 4.27-1.64 6.35-.31.92-.58 2.06-1.08 2.9-.33.56-.09.29-.19-.07-.07-.26-.07-.59-.11-.85-.1-.71-.22-1.42-.36-2.12-1.05-5.36-3.26-10.44-6.4-14.9.19.27-.02 1.52-.02 1.87 0 .41-.22 1.53.02 1.88 3.14 4.46 5.35 9.54 6.4 14.9.02.08.03.16.04.24-.2-.32-.53-.47-.47-1.14 0-.05 0-.1.01-.15-.73 5.07-2.03 10.04-3.98 14.78-.94 2.27-2.01 4.49-3.24 6.62-.47.81-1.18 1.96-2.05 2.66-.73.16-1.45.33-2.17.51-.23-.09-.46-.23-.7-.43.06.05.07.29.07.58-10.2 2.48-20.31 5.95-29.24 11.47-4.97 3.08-9.74 6.87-13.35 11.51-1.75 2.24-3.24 4.74-4.16 7.44-.61 1.81-.83 3.6-.91 5.44-.02-.52-.04-1.12.03-1.15-8.15 3.58-16.58 6.49-24.91 9.65 0-.17.02-.3.08-.4-.12.21-.28.39-.45.54-.53.2-1.05.4-1.58.6-.02.01-.03.06-.04.15-.89.19-1.86.2-2.66.28-2.2.24-4.4.46-6.61.63-4.31.31-8.66.4-12.95-.1-1.79-.21-3.55-.54-5.3-.97 1.48-3.14 3.04-6.26 4.68-9.32.03-.06 0-.33 0-.36.01-.3.01-.59.01-.89 0-.29 0-.59-.01-.88 0-.08-.04-.3 0-.37-2.02 3.77-3.92 7.61-5.7 11.49-.01.02-.02.04-.02.07-.91-.25-1.73-.44-2.67-.19-.88.22-1.69.66-2.56.89-.8.22-1.6.35-2.41.4.02-.13.04-.27.07-.4.11-.6.24-1.2.38-1.79.25-1.1.55-2.19.88-3.27.7-2.24 1.57-4.42 2.6-6.53.14-.28.01-.94.01-1.25s-.15-.97-.01-1.25c-1.29 2.65-2.34 5.42-3.1 8.28-.38 1.39-.72 2.81-.91 4.24-.09.65-.13 1.31-.13 1.98-.21.01-.42.02-.63.02-2.22 0-4.42-.58-6.36-1.69.91-2.37 2.05-4.65 3.33-6.84 1.3-2.2 2.74-4.3 4.27-6.3.02-.02.03-.08.03-.16.13.04.26.07.39.1 0 0 .01-.63.01-.73.01-.32.01-.65.01-.97 1.62-2.09 3.66-4.06 6.17-4.61 1.26-.28 2.36-.05 3.31.5l.08.28.26-.07c.89.58 1.63 1.44 2.26 2.38.63.95 1.13 1.98 1.53 2.94-.12-.29.01-.94.01-1.25 0-.16.02-.36.03-.56 4.4-9.1 8.18-18.49 11.29-28.1.26-.05.53-.11.79-.17.17-.04.06-1.24-.01-2.27.83-2.66 1.61-5.33 2.33-8.02.09-.01.18-.02.27-.04.25-.05-.2-3.71 0-3.75-.08.02-.17.03-.25.04.01-.07.02-.14.04-.2-.02.07-.04.13-.05.2h-.01c-.1.02-.19.04-.28.04 0-.09-.01-.17-.03-.26-.19-.96-.12-2.1-.35-3.04 0-.12.01-.24.02-.35.04-.48.08-.96.14-1.44.23-1.9.57-3.79.95-5.67.72-3.64 1.61-7.27 2.93-10.75 2.3-6.09 6.03-11.74 11.63-15.23.02-.01.03-.03.04-.06 2.52-1.37 5.11-2.62 7.76-3.75.13-.06.02-1.7.02-1.88 0-.17-.13-1.83-.02-1.87-8.47 3.6-16.34 8.46-23.35 14.41 2.7-7.13 6.82-13.7 11.99-19.3 5.18-5.59 11.41-10.22 18.33-13.46 2.21-1.03 4.48-1.92 6.8-2.65 2.98-.94 6.14-1.64 9.19-.59-.36-.12.41-3.61 0-3.75-4.71-1.62-10.16.69-14.49 2.56-3.4 1.48-6.65 3.28-9.71 5.39v-.11c-.01.03-.02.05-.04.07-.04-.25-.15-.4-.34-.23-.05.04-.06.17-.06.34-1-.13-3.34-1.8-3.77-2.08-1.52-.97-3-2-4.43-3.08-2.88-2.16-5.6-4.54-8.14-7.1-5.07-5.12-9.4-10.97-12.8-17.31-1.42-2.64-2.66-5.36-3.73-8.15.01-.5.05-1.11.05-1.22 0-.21.17-1.77-.02-1.87-7.48-4.18-14.98-8.39-22.02-13.31-6.92-4.85-13.08-10.41-18.45-16.94-.58-.7-1.18-1.43-1.83-2.13v-.01h-.01c-.01-.12-.02-.23-.02-.32 0-.18.03-.31.1-.36-.15.09-.31.19-.46.27-1.94-2.03-4.22-3.77-7.04-3.85h-.01c0-.09 0-.16.02-.19-.05.06-.1.12-.16.18-.23 0-.47.01-.71.03-.04 0-.05.27-.05.66-1.01.71-2.24 1.03-3.47 1.23-1.52.26-3.06.42-4.61.5 2.42-4.4 6.8-7.62 9.27-12.02.14-.25.01-.96.01-1.25s-.16-.99-.01-1.25c-2.92 5.2-8.52 8.75-10.37 14.57-.33.02-.67.03-1 .03-1.54.02-3.64.01-5.5-.45 1.34-3.98 3.15-7.79 5.36-11.38.15-.23.01-.97.01-1.25v-.88c0-.08-.04-.31-.01-.37-2.42 3.92-4.35 8.11-5.73 12.5-.11.35-.02.89-.02 1.25v.03c-.77-.22-1.49-.54-2.08-.97l.04-8.36c1.54-2.62 3.46-5 5.72-7.04 1.99-1.79 5.04-4.42 7.9-3.05-.03-.01-.04-.16-.04-.36 2.8.04 5.46.95 8.1 1.79 2.9.93 5.79 1.84 8.68 2.78 2.54.83 4.89 1.84 7.1 3.33 1.95 1.31 3.81 2.72 6.01 3.52v.01c.26.09.53.18.81.26-.2-.05 0-1.56.08-2.65 8.15-20.63 25.51-35.89 35.16-55.74 2.93 1.53 5.88 3.01 8.85 4.45 5.57 2.7 11.22 5.24 16.93 7.63-.14-.06.16-1.19 0-1.25-8.59-3.6-17.03-7.54-25.29-11.82 1.29-2.73 2.41-5.55 3.31-8.42l2.04 1.05c-.16-.08.18-1.16 0-1.25-.57-.3-1.14-.59-1.71-.88.38-1.28.71-2.57 1-3.87 6.02 2.28 12.05 4.52 18.1 6.7.96.35 1.91.69 2.87 1.03 4.71 10.42 10.21 20.48 16.45 30.07 1.5 2.31 3.08 4.59 4.9 6.66-1.39-.31-2.77-.63-4.16-.95.04.01-.02 1.73-.02 1.88 0 .15-.08 1.85.02 1.87 1.92.44 3.84.89 5.76 1.32 5.61 15.44 11.21 30.88 16.82 46.31 2.78 7.65 5.55 15.3 8.33 22.95 2.63 7.23 5.16 14.5 8.07 21.62 2.34 5.72 4.97 11.32 8.17 16.59-3.99-2.54-8.48-4.24-13.17-4.98.16.03-.22 3.72 0 3.75 4.2.67 8.23 2.1 11.9 4.2-.03.3-.06.58-.06.71 0 .38-.23 1.56.02 1.87 5.35 6.89 8.72 15.18 9.89 23.81zm94.63 29.97c.01.2.02.39-.01.43 0-.15 0-.29.01-.43z"/>
  <path d="M129.49 52.03c0 .12 0 .23.01.34.08.1.25.1.33.01 0-.07.01-.15.01-.22v-.51c.01-.59.01-1.18.01-1.77 0-.59 0-1.18-.01-1.77v-.39c0-.12 0-.23-.01-.34-.08.09-.25.09-.33-.01 0 .08-.01.15-.01.22v.52c-.01.59-.01 1.17-.01 1.76 0 .59 0 1.18.01 1.77v.39zM148.95 46.96c0 .04.01.22.01.25v.1l.01.01v.02c.01.02.02.03.04.05.04.05.13.09.2.07.05-.01.07-.04.07-.09.01-.07.01-.14.01-.21.01-.17.01-.35.01-.52.01-.59.01-1.18.01-1.77 0-.58 0-1.17-.01-1.76 0-.13 0-.26-.01-.39.01-.12 0-.23-.01-.35 0 .03-.01.06-.04.08-.02.01-.05.02-.07.02-.06-.01-.12-.04-.16-.08.01-.06 0-.11 0-.17-.02.02-.03.03-.04.05 0 .01 0 .01-.01.02v.1c0 .02-.01.22-.01.25v.39c-.01.59-.01 1.18-.01 1.77s0 1.18.01 1.77v.39zM182.43 50.33c-.03-.06.02-.54.02-.54v-2.66c0-.13.05-.43-.02-.55-.64-1.15-1.52-2.15-2.56-2.93.36-.05.73-.08 1.09-.1 1.59-.1 3.93-.07 4.62 1.7-.04-.1.01-.5.01-.55.01-.25.01-.51.01-.76.15.07.31.11.49.11 0 0 .05-3.75 0-3.75-.52-.01-.88-.32-1.1-.73v-.01c.4-1.5 1.09-2.91 2.04-4.13 0 .35.01.7.01 1.04.01.87 0 1.74.08 2.6.16 1.52.6 3.01 1.3 4.37.33.65.73 1.27 1.17 1.85.09.11 1.14 1.41 1.21.73.12-1.24-.12-2.51 0-3.75-.05.5-.7-.11-.82-.25-.4-.47-.77-.98-1.1-1.51-.63-1.04-1.12-2.17-1.42-3.34-.09-.34-.17-.69-.22-1.04.23-1.04.7-2 1.5-2.73.04-.04.02-.58.02-.55V30.2c0-.08-.06-.51-.02-.55-.38.35-.69.74-.92 1.18-.01-.04 0-.07.01-.08-1.66 1.74-2.76 3.97-3.11 6.36-.06.4-.08.79-.08 1.18-.03-.14-.04.1-.02.71v.1c-.01.41-.02.83-.02 1.25-1.02-.62-2.52-.61-3.64-.55-1.94.11-4.04.52-5.33 2.09-.04.06-.01.56-.01.55-.01.45-.01.89-.01 1.33 0 .14-.05 1.86.02 1.87 2.86.41 5.41 2.17 6.8 4.69zM176.2 66.62c-.01.08-.03.14-.06.19.01-1.16-.01-1.24-.06-.24-.02.25-.05.49-.08.74-.06.48-.15.97-.25 1.45-.14.72.1 1.51.04 2.24.28-1.42.4-2.9.41-4.38zM139.42 89.06c-3.69 1.87-8.42 4.03-12.33 1.71-.01.01-.01-.01-.01-.01-.17-.16-.37-.29-.61-.39v.02c-.06-.07-.11-.15-.15-.23.17.31-.18.93 0 1.25.04.07.1.12.14.19.01.01.01.02.01.02 0 .01.01.01.01.01.26.39.58.73 1 .98v-.37c3.84 1.96 8.37-.12 11.94-1.93.18-.09-.16-1.17 0-1.25zM133.32 83.15c0 .03.02.17.01.19.44-.49.78-1.05 1-1.67.02-.04.01-.15.01-.18v-.88c0-.05-.02-.14-.01-.19-.22.62-.56 1.18-1 1.67-.02.01-.01.18-.01.18v.88zM134.47 77.48c.45-.49.91-.98 1.36-1.48.01-.01 0-.19 0-.18v-1.07c-.45.5-.91.99-1.36 1.48-.01.02 0 .19 0 .19v1.06zM144.67 82.34v-1.25c-.28.39-.56.78-.83 1.17-.01.02-.01.03-.01.05v1.11c0 .03 0 .06.01.09.27-.39.55-.78.83-1.17zM145.82 76.17c.02-.03.01-.17.01-.18V75c0-.02 0-.05-.01-.08-.26.49-.66.91-1.14 1.19-.01.01-.01.18-.01.18v.89c0 .02.02.17.01.18.48-.28.88-.7 1.14-1.19zM136.98 79.33v-.18c.01-.15.01-.29.01-.44 0-.15 0-.3-.01-.44v-.19c-.1.37-.43.66-.81.7-.01 0-.01.18-.01.18v.89c0 .01 0 .18.01.18.38-.04.71-.33.81-.7zM196.37 168.82c-.03.06-.01.33-.01.37v1.76c0 .08.05.3.01.37 1.34-2.47 2.85-4.84 4.51-7.11.03-.04.01-.36.01-.36v-1.77c0-.07-.04-.32-.01-.37-.4.55-.79 1.1-1.17 1.66-.06-.42-.09-.77.05-.85-12.43 7.58-27.05 13.86-41.82 10.05.19.05-.22 2.45 0 2.5 14.06 3.63 27.98-1.89 40.01-8.96-.56.89-1.08 1.79-1.58 2.71zM215.11 162.65c-.92.83-1.71 1.8-2.34 2.88-.03.05-.01.34-.01.36v1.77c0 .08.04.3.01.37 1.22-2.08 3.03-3.76 5.18-4.83.02-.01.01-.41.01-.36v-1.77c0-.04-.03-.36-.01-.37-.08.04-.16.08-.23.13 0-.2-.02-.33-.06-.34-6.08-1.26-12.56.64-17 4.97-.13.14-.01 1.06-.01 1.25 0 .2.15 1.12.01 1.25 3.82-3.73 9.16-5.65 14.45-5.31zM203.61 215.98c-5.98 2.1-12.3 3.01-18.62 2.69.02 0-.07 2.5 0 2.5 6.32.32 12.64-.59 18.62-2.69.28-.1-.24-2.42 0-2.5zM213.8 204.06c.02.04-.01.36-.01.36-.01.3-.01.59-.01.89 0 .29 0 .58.01.88 0 .09-.04.29.01.37 1.54 2.81 2.84 5.76 3.86 8.8-2.87-1.62-6.47-1.17-9.62-.7-.14.02.1 2.49 0 2.5 3.51-.52 7.59-1.02 10.58 1.34v-1.1c.01-.07.01-.12.01-.15 0-.38.09-.87-.01-1.25-1.13-4.16-2.75-8.17-4.82-11.94z"/>
  <circle fill="#FFF" cx="122.75" cy="67.6" r="2.32"/>
  <circle fill="#FFF" cx="159.95" cy="67.6" r="2.32"/>
</svg>
