<svg version="1.2" baseProfile="tiny" xmlns="http://www.w3.org/2000/svg" viewBox="0 0 474.8 466.1" overflow="visible" xml:space="preserve">
  <path d="M71.8 72.5v.6-.5c-.1 0 0-.1 0-.1zM107.3 98.6v-.8c-.2-1.5-1-2.9-1.8-4.3-.7-1.3-1.5-2.5-2.4-3.6-1.7-2-4.2-3.5-6.9-3.1-5.1.7-8.9 5.9-9.4 10.8.1-1.2-.1-2.5 0-3.8.3-2.8 1.6-5.5 3.6-7.5 2-2.1 5.1-3.8 8.1-3.1 3.2.8 5.3 3.6 6.9 6.3.8 1.4 1.9 3 2 4.6 0 1.5 0 3.1-.1 4.5zM108.2 108.6v1.1c-.7.5-1.3 1.1-2 1.6V110c.7-.6 1.3-1.1 2-1.6v.2zM244.5 246.9c-1.7 5.6-3.8 11.1-6.2 16.4v-3.7c2.1-4.7 4-9.5 5.5-14.4-.7 0-1.9.8-2.2 1-1.3.7-2.7 1.4-4 2.1-2.7 1.4-5.4 2.9-8.1 4.4v-1.8c0-.2-.1-1.8 0-1.9 2.7-1.5 5.4-3 8.1-4.4 1.3-.7 2.7-1.4 4-2.1.4-.2 2.6-1.7 2.8-.6.1.5 0 1.2 0 1.8v1.5c.1.4.2 1.2.1 1.7zM179.1 204.1v.6c-.7 2.8-2 5.5-3.7 7.8.1-.1 0-.5 0-.5v-3.1c1.8-2.3 3.1-5 3.7-7.8v1.8c.1.4 0 .8 0 1.2zM213.5 197.5c-3.5.9-6.3 3.5-7.6 6.9v-3.7c.3-.9.8-1.7 1.3-2.4-9.1 1.1-17.8 4.5-25.3 9.8.2-.1 0-1.6 0-1.9 0-.2-.2-1.8 0-1.9 8.8-6.3 19.2-9.8 30-10.2v.3c.5-.2 1.1-.4 1.6-.6-.1 0 0 1.7 0 1.9.1.1.1 1.7 0 1.8zM165.9 213.2v-.6.6z"/>
  <path d="M474.7 392.9c-.3-7.7-4.4-14.8-9.3-20.6-5.3-6.2-11.9-11.4-18.7-15.9-7-4.6-14.5-8.5-22.4-11-6.2-2-12.5-2.9-19-3.6.1-.8.1-1.4-.1-1.5-.8-.2-1.7-.5-2.5-.9v-.6.3c-.4-6.2-2.7-16.7-3-18.2-1.9-8.7-4.4-17.3-7.4-25.7-1.4-3.8-2.9-7.6-4.5-11.3 1.4-1.7 2.4-3.7 2.8-5.9.2-1 .3-2 .3-3 .1-.2.1-1.7 0-2v-1.3c-.1-2.1-.7-4.1-2-5.9-3-4.1-8-6.4-11.9-9.4-4.5-3.5-8.7-7.5-12.5-11.8-7.8-8.5-15-17.7-22-27s-13.7-19-20-28.8c-6.5-10.2-12.6-20.7-18.4-31.4v-.2c.1-3.1.6-7.6-2.7-9.3-1.7-.9-3.2 0-4.7.9-1.2.8-2.7 2-4.2 1v.3c-17.7-8.4-36.1-15.2-55-20.4-5.2-1.4-10.4-2.7-15.6-3.8.1-.4.3-.8.4-1.2.1-.2.1-.5.1-.9.2-.1.3-.2.5-.4.2-.1 0-1.6 0-1.9v-1.8c-3 2.1-7.1 4.6-10.6 2.2-1.5-1-2.6-2.6-3.6-4.1-.7-1-1.3-2.1-1.9-3.2.5-1.5.9-3.1 1.4-4.7.9-3.1 1.8-6.3 2.7-9.5 7.7.4 15.3 1 22.9 2 11.3 1.4 22.5 3.5 33.5 6.2-.1 0 .1-1.2 0-1.2-18.4-4.5-37.2-7.3-56.1-8.2 2-7.7 3.3-15.6 1.8-23.5-1.1-5.9-3.6-11.5-5.8-17.1-2.3-6.1-4.6-12.1-6.9-18.2L186.8 4.7c-.3-.8-.6-1.7-1-2.6l-.3-.9c0-.1 0-.1-.1-.2 0-.4 0-.8.1-1.1-.1.3-.1.6-.2.9-.1-.2-.1-.3-.2-.5-.1.1-.2.3-.3.4-.6.4-1.1 1.6-1.5 2.1l-1.5 2.1c-1.9 2.8-3.8 5.6-5.7 8.5-3.7 5.8-7.3 11.7-10.7 17.7-.1.1-.1.2-.1.4-7.8-4.6-16.1-8.8-25.2-10.3-9.6-1.7-19.4.3-27.5 5.8-1.9 1.3-3.7 2.8-5.3 4.5-4.6-3.5-9.2-7.1-13.8-10.6-2.2-1.7-4.5-3.4-6.7-5.2-1.2-.9-2.4-1.8-3.5-2.7-.5-.4-1.5-1.4-2.3-1.3 0-.4 0-.9.1-1.3-.1.5-.3.9-.4 1.4 0 0-.1 0-.1.1-.1.1-.1.3-.1.7 0 .1 0 .2-.1.2-.1-.1-.2-.1-.3-.2.1 0 0 .8 0 1.3-1.8 6.7-3 13.5-3.4 20.4-.2 3.8-.2 7.6-.1 11.3 0 1.8.1 3.6.3 5.4.1 1.1.2 2.2.3 3.2v.4c-2.8 3.6-4.8 7.8-5.5 12.5-.4 2.6-.3 5.2-.3 7.9.1 2.6.4 5.1 1.1 7.6 1.5 5.5 4.7 10.5 9.2 14-.4 1.2-.9 2.3-1.3 3.5C64.6 93.6 48.2 88.5 31 87.2c-7.4-.5-14.9-.4-22.3.7-.1 0 0 1.2 0 1.2 24.4-3.5 48.8 2.7 71.3 12-.7 2-1.5 4-2.2 6-.4 1-.6 2-.8 3h-1.2c-9.2 0-18.4 1-27.4 3.1-.1 0 .1 1.2 0 1.2 9-2.1 18.2-3.1 27.4-3.1h1.1c-.1 1-.1 2-.1 3.1-4.4.2-8.9.6-13.3 1-14 1.5-27.9 4.2-41.4 8.2-7.6 2.2-15 4.8-22.3 7.8-.2.1.1 1.2 0 1.2 24.5-9.9 50.7-15.7 77.1-17 .2 2 1 3.7 2.2 5.5 3.1 4.5 6.3 9 9.8 13.3 6.9 8.7 14.3 17 22.3 24.7 3.9 3.8 7.9 7.6 13 9.7 1 .4 2 .7 3 1-.5 3-1.2 6-2.1 8.9 0-.1-.1-.1-.2-.2v.7c-.8.5-3 .2-3.5.2-1.6 0-3.2-.1-4.7-.2-3.1-.2-6-.8-9-1.6-1.4-.4-2.8-.7-4.3-.8-1.5-.1-3-.2-4.5-.7-2.5-.8-4.8-2.2-7.1-3.4-5.5-6.3-10.8-12.7-15.9-19.3-2.5-3.3-5-6.6-7.4-10v-1.1l-.6.3-.9-1.2c.2.2 0 1.1 0 1.6-15.5 7-30.8 14.2-46.2 21.6-4.5 2.2-9 4.4-13.6 6.6-.1.1 0 1.5 0 1.8v.3c0 .3-.2 1.6 0 1.9 8.2 8.9 15.9 18.3 23.5 27.7-.4 1.1-.9 2.2-1.6 3.2-2 3-6 4.3-6 8.3 0 2-.2 3.9.6 5.8.8 2.1 1.9 3.8 2.2 6.1.3 2.3.1 4.6 1.1 6.7.9 1.8 2.4 3.2 4 4.4 3.9 2.8 8.3 5.1 12.4 7.6 8.9 5.3 17.9 10.5 26.9 15.6 12 6.8 24 13.3 36.2 19.7-1.8 6.1-3.7 12.2-6.3 18.1-2.8 6.5-6.6 12.4-10.9 18-4.2 5.4-8.6 11.1-13.8 15.7-5.1 4.6-11.4 7-17.5 10-10.9 5.3-20.4 13.4-27.5 23.1-1.8 2.4-3.4 4.9-4.9 7.5-.7 1.2-1.4 2.5-2 3.8-.5 1.1-.8 2.1-1 3.2v1c0 1.1-.2 2.5.2 3.6.5 1 1.7 1.5 2.7 1.8 1.3.3 2.6.2 3.9.2 2-.1 4.1-.3 6.2-.4 16-.9 32-1.4 48-2 1 .3 2.2.3 3.3-.2v1.8c0 1.3 0 2.6 1.2 3.4 1 .8 2.3 1 3.5 1.2 2.2.4 4.4.7 6.6 1 0 .2 0 .4.1.4 2.4 1.3 4.8 2.6 7.4 3.3 2.8.8 5.6.6 8.4.1 4.8-.9 9.6-2 14.4-3-3 3.7-5.8 7.6-8.5 11.5-1.5 2.2-3.1 4.5-4.2 6.9-1 2.2-1.4 4.3-1.4 6.6-.1-.1-.1 1.4 0 1.6 0 2.1.2 4 1.5 5.7 1.5 2 3.8 3.3 6.2 2.5 1.3.9 3.2 1.5 4.5 1.9 5.4 1.9 11.2 2.5 16.9 2.7 12.8.6 25.7 1 38.5.2 5.7-.3 12.4-.4 17.5-3.4 0 .2-.1.4-.1.6-.3 2.1-.2 4.3-.1 6.5v1.4h.7c.3 0 .7 0 1-.1 1.6-.1 3.2-.2 4.7-.3 5.8-.3 11.6-.7 17.4-1.1 11.3-.8 22.5-1.9 33.8-2.6 9.2-.6 19-.6 27.5 3.3l1.2.6v1.3c.7.3 1.3.1 1.8-.3 1 .6 1.9 1.2 2.8 1.9 0 0-.1-.2-.1-.4.1.1.2.1.3.2.4.2 1.3.7 1.7.6.4-.2 1.2-1.8 1.4-2.2 1.6-2.7 2.9-5.5 4-8.5.3-.9.6-1.7.9-2.6 8.5-8.1 17.2-16.3 27.3-22.5 10.1-6.1 21.5-9.8 33.1-12.2 6.5-1.4 13.1-2.4 19.8-3.2v-.1c.1 0 .3.1.4.1 3.4 1 6.9 1.7 10.5 2-.2.1-.4.2-.6.2-16.8 6.5-35.1 8-52.2 13.6-7.4 2.4-14.7 5.6-21.1 10.1-6.2 4.3-12.5 10.2-15.4 17.4-1.3 3.3-1.5 7.2-1.1 10.7.5 4 3.4 7.2 6.2 9.9 5.5 5.3 12.5 8.9 19.8 11.1 16.7 4.9 34.3 1.8 50.5-3.5 17.7-5.8 35-13.2 51.7-21.3 8.2-4 16.3-8.1 24.1-12.6 6.3-3.6 12.6-7.7 17.2-13.5 2.2-2.7 3.9-5.8 4.8-9.2 1.5-3.3 1.5-7 1.3-10.5zm-73.9-63.7c.4 2.1.8 4.3 1.1 6.4l.6 3.6c-6.6-2.9-11.8-8.5-18.2-11.9-4-2.1-8.4-3.1-12.9-2.6-4.8.6-9.4 2.6-13.3 5.4-4 2.8-7.4 6.4-10.6 10.1-3.4 3.9-6.6 7.9-9.7 12-2.2 2.8-4.3 5.7-6.4 8.6-.1-.2-.2-.3-.3-.5.1.2.1.5.1.9-3.8 5.4-7.5 10.8-11 16.4-4.6 7.4-9 14.9-13 22.6 2.8-7.9 5.9-15.7 9.3-23.3 10.1-22.4 23-43.6 38.3-62.8 4.3-5.3 8.7-10.6 13.4-15.6 4.2-4.5 9-8.8 14.8-10.9.1 0 .1-.1.2-.1.3-.1.6-.2 1-.3 0 0 .1-.1.1-.2.9-.5 1.8-1.2 2.6-2 6.3 14.2 11 29 13.9 44.2zm-1.8 11.9c-.4 0-.8-.1-1.3-.1-9.2-.8-18.4-2.4-27.3-4.9-3.6-1-7.1-2.1-10.6-3.3 6.5-4.1 14.3-6 21.8-3 6.5 2.6 11.5 7.8 17.4 11.3zM221.7 129.7c19.1 4.2 37.9 10 56 17.6 5.1 2.1 10.2 4.4 15.2 6.8v-.3c1.4.9 2.9-.2 4.1-1 1.4-.9 3-1.8 4.7-.9.9.4 1.6 1.2 2 2.1.2.5.3.9.5 1.4-.1.5-.2 1-.2 1.5-.4-.7-.8-1.5-1.2-2.2.2.4 0 1.5 0 1.9 0 .5-.2 1.5 0 1.9.2.4.5.9.7 1.3-.2 1-.4 1.9-.5 2.9-1.4 7.2-3 14.3-5 21.4v-.7.9c-.7 2.6-1.4 5.2-2.2 7.8-.3 1.2.4 2.6 0 3.8.8-2.6 1.5-5.3 2.3-7.9l2.4 33.9 1.2 17.4c.4 5.6.9 11.2.7 16.8-.1 3.1-.4 6.3-1 9.4-.3 1.5-.6 3-1 4.5-.1.6-.3 1.3-.5 1.8-.1.1-.3.4-.5.5 0-.2 0-.4-.1-.5-.2-.3-.3.1-.4.5v-.2 1.6c0 .3-.2 1.3 0 1.9-4.5 5.2-8.6 10.8-12.4 16.5-8.5 12.9-15.8 26.5-23.3 39.9l-12.6 22.5c1.1-4.8 1.8-9.8 2-14.8.5-10-.2-20-.6-29.9-.4-10.4 0-21 3.5-30.9 3.3-9.2 9.2-17.1 15.9-24.1 1.6-1.7 3.3-3.4 5.1-5 .5 1.4 1 2.9 1.5 4.4 3.2 9.8 5.8 19.8 8.5 29.7-.3-1.2.3-2.6 0-3.8-3-11.4-6.1-22.9-9.9-34.1-2.1-6.1-4.5-12.1-7.2-18-3.9-8.5-8.8-16.4-14-24.1-5.5-8.1-11.2-16.2-16.8-24.3-6.4-9.2-12.7-18.4-19.1-27.7.2.2.1 1 0 1.5-.2-2-.4-4-.5-6.1v-.8c0-.5 0-1 .1-1.6 0-1 .1-2 .2-3 .2-1.9.4-3.8.8-5.7.5-2.9 1.2-5.7 2.1-8.5-.6.9-.7 2-.5 2zm9.1 42.9c-2.9-1.7-5.8-3.4-8.6-5.1-1.3-3.7-2.2-7.6-2.8-11.4 3.8 5.4 7.6 10.9 11.4 16.5zM185.3 6.5c0-.6.2-1.3.3-1.9.3.5.5 1.3.7 1.9.6 1.6 1.2 3.1 1.8 4.7 1.1 2.8 2.1 5.6 3.2 8.4 2.2 5.8 4.4 11.5 6.5 17.3 4.3 11.3 8.7 22.6 12.9 33.9 1 2.7 1.9 5.4 2.5 8.2.3 1.3.4 2.7.5 4 0 .4 0 .7-.1 1.1-.1.9-.2 1.7-.3 2.6-.7 4.2-1.7 8.4-2.9 12.6-.8 0-1.7-.1-2.5-.1-6.5-.2-13.1-.2-19.6 0 1-1.8 2.5-3.3 4.7-3.8.1 0 0-1.7 0-1.9 0-.1-.1-1.9 0-1.9-3.6.8-5.2 4.3-6.2 7.6-.9-1.8-1.6-3.6-2.1-5.5 1.2-.7 2.3-1.5 3.3-2.4 1.4-1.2 2.6-2.5 3.7-4 .7 1.9 1.8 3.6 3.2 5.1-.1 0-.1.1-.2.1-.2.1 0 1.6 0 1.9 0 .2.2 1.8 0 1.9 4.5-3.1 6.3-8.5 6.5-13.8.1-2.9.1-5.7-.3-8.6-.4-3.3-1.1-6.6-1.8-9.8-2.7-13.3-5.9-26.5-9.6-39.5-1-3.6-2.1-7.1-3-10.7-.5-1.8-.8-3.7-1.1-5.6 0-.3-.1-.6-.1-.9V6.5zm-.9-1c.2-.3.4-.8.7-1l.1-.1v4.1c0 3.1.6 6.1 1.3 9.1 1.6 6.4 3.6 12.8 5.3 19.2 1.7 6.6 3.4 13.3 4.9 20 1.5 6.5 3 13.1 4 19.7.2 1.1.3 2.2.4 3.3v.6c0 .3-.1.6-.1.9-.2 1.4-.5 2.8-1 4.1-.9 2.4-2.2 4.5-4.1 6.2v-1.9c-1.3-1.1-2.3-2.4-3.2-3.9 1.7-2.6 2.9-5.6 3.5-8.7.5-2.6.7-5.3.7-7.9v-1c0-2.7-.2-5.4-.7-8.1-1.3-6.7-4.2-14-9.2-18.7-4.8-4.5-11.4-6.1-17.7-7.5-.7-.4-1.4-.9-2.1-1.3 5.3-9.3 11-18.4 17.2-27.1zm-14 32.7v-.4c4.7 1 9.5 2.3 13.6 4.9 4.9 3.1 8 8.3 10 13.6 1.1 2.7 1.9 5.6 2.3 8.5.2 1.3.3 2.6.4 3.9 0 .3 0 .6-.1 1l-.3 2.4c-.7 4.1-2.3 8.1-4.8 11.4-.2-.5-.4-1-.5-1.6v2.3c-.4.5-.9 1.1-1.4 1.6-1.7 1.8-3.7 3.3-5.8 4.4-.1-.4-.1-.8-.2-1.2v1.3c-6.2 3.4-13.8 4-20.2.3-4.8-2.7-10-6.5-12.6-11.5-1.2-2.2-1.9-4.7-2.2-7.2-.1-.7-.2-1.5-.2-2.2v-.3c.1-1.6.3-3.1.5-4.7 1-6.2 2.8-12.7 6.2-18 3.4-5 9-9.1 15.3-8.5zm-46.5-12.4c10.1-2.8 20.5-.7 29.9 3.5 3.9 1.7 7.6 3.7 11.2 5.8-3.9 1.3-7.3 4.2-9.6 7.6-1.1 1.6-2 3.4-2.8 5.2 0-.5.1-1 .1-1.2 0-.3.3-2.3 0-2.5-7.9-6-18.6-6.7-27.9-3.9-5.4 1.6-10.3 4.5-14.6 8-1.5-3.2-4.3-5.6-7.6-6.6 4.9-7.7 12.6-13.5 21.3-15.9zm-30-1c3.9 3 7.9 6 11.8 9.1-1.2 1.4-2.3 2.9-3.3 4.6-.2.3 0 1.5 0 1.9 0 .3.1 1 .1 1.4-1.9-.6-4-.7-6-.3 0-.2 0-.5-.1-.7-1.6-6.8-3.7-14-7.7-19.9 1.7 1.2 3.5 2.5 5.2 3.9zM77.3 49c-.2-1.8-.3-3.5-.4-5.3-.1-3.2.1-6.7.5-10.3.6-5.7 1.7-11.3 3.3-16.8 8.8 5.4 12.6 15.3 15 24.9-3 .8-5.7 2.5-8.2 4.2-2.7 1.9-5.3 3.9-7.6 6.3-.7.7-1.2 1.3-1.8 2.1 0-1-.2-2.1-.1-3 0 .1-.2 1.3-.3 1.4.1 0-.1-1.1-.1-1.2-.2-.8-.3-1.6-.3-2.3zm-3.6 32.8c-.9-2.3-1.5-4.6-1.8-7-.1-.5-.1-1.1-.2-1.7 0 .2 0 .5-.1.8v-1.3c-.1-.5.1-1 .1-.2.1-1.2.3-2.4.5-3.5 1.2-5.4 4.3-10.1 8.2-13.9 2.1-2.1 4.5-3.9 6.9-5.6 2.6-1.8 5.3-3.5 8.4-4.2 4.8-1.2 9.9.6 12.9 4.4-3.1 2.7-5.9 5.8-8.4 9-3.6 4.6-6.6 9.6-9.5 14.7v-.2c-.1.2-.1.3-.2.5-.1.1-.1.2-.2.3-.1.1-.1.3-.1.5l-7.8 20.4c0-.5.1-1.1-.1-1.2-3.7-3.1-6.8-7.1-8.6-11.8zm6.4 23.6c.5-1.2.9-2.5 1.4-3.7 1.5.6 2.9 1.2 4.3 1.8 1.3.6 2.5 1.1 3.8 1.7.3 1.3.7 2.7 1.3 3.9.4.8.8 1.5 1.4 2.2-.8-.1-1.7-.2-2.6-.4-3.8-.5-7.7-.8-11.6-.8.7-1.5 1.4-3.1 2-4.7zm-2.6 8.6c-.1-.2-.1-.4-.2-.6.1-.7.3-1.3.5-2 4 .1 8 .4 12 .8 2.2.3 4.4.6 6.6 1 1.7.3 3.4.6 4.9 1.5-2-.4-4-.4-6.1-.5-3.5-.1-7.1-.1-10.7-.1-2.3 0-4.6.1-6.9.2 0 0-.1-.1-.1-.3zm25.4.3v.9c-.3-.1-.6-.2-.9-.2 0-.3.2-.8 0-.9-1.1-.9-2.4-1.3-3.7-1.6.6-.3 1.2-.7 1.7-1.2.3-.2.5-.5.7-.8 1.3.6 2.6 1.3 3.9 1.9-.6.6-1.2 1.2-1.8 1.7.1 0 .1.2.1.2zm21.1 72.3c.5-1.1.9-2.3 1.2-3.5.1-.1.2-.3.2-.5v-.5c1-3.2 1.7-6.5 2.2-9.9.1-.8 0-1.6 0-2.4 3.9 1 8 1.1 12 .6 10.7-1.3 20.1-6.8 29.6-11.6-6.9 14-9.3 29.8-7.7 45.3.4 4 1.1 8.2 3 11.8l-3 3.6c-2.7 3.1-5.3 6.3-7.9 9.4-2.3 2.8-4.8 5.5-7.6 7.8-1.4-.1-2.9-.3-4.3-.5-8.6-1.2-17-3.4-25.3-6.2-2.5-.8-4.9-1.8-7.4-2.7 0-.8-.1-1.5 0-1.5-.8.1-1.5-.3-1.8-.9.1-.2.1-.4.2-.6.3-.7.6-1.4.9-2 .7-1.2 1.6-2.4 2.6-3.4 2-2.1 4.6-3.6 7.4-4.4 0 0 .1-.4 0-.9.6-.1 1.1-.2 1.7-.5v.2h.3v-.5c.9-.6 1.6-1.4 2-2.5.3-1.2-.3-2.6 0-3.8-.7 2.5-3.5 3.7-5.9 3.2-2.8-.7-4.8-3-6.2-5.4-1.3-2.2-2.5-4.5-3.6-6.9 2.9 1.4 6.6.4 9.5-.9 4.3-1.6 6.2-5.6 7.9-9.9zm-17.4 39v1c-4.9-1.9-9.8-4-14.7-6.1-4.9-2.1-9.8-4.3-14.6-6.5.9-.5 1.8-1.1 2.6-1.6l6.6-4.2c3.9 2.2 7.6 4.7 11 7.5 1.7 1.4 3.3 2.9 4.8 4.5 1.3 1.3 2.6 2.7 4.2 3.5v1.1c.1.3.1.6.1.8zm-4.1-9c-1.6-1.6-3.2-3.1-4.9-4.6-2.5-2.1-5.1-4-7.9-5.7 4.9-3 9.8-6.1 14.6-9 .1 0 .1-.4.1-.8 1.5 4.2 3.4 8.2 5.7 12 1 1.7 2.3 3.3 4 4.4-2.1 1.3-4 3.1-5.3 5.2-.5.8-1 1.7-1.4 2.7 0-.3 0-.5-.1-.5-2-.8-3.4-2.3-4.8-3.7zm1.7-24.4c-.4-1.2-.8-2.3-1.2-3.5 1.9 2 3.9 4 5.8 6-.3 0-.6-.1-.9-.1-1.5-.3-2.8-1.3-3.7-2.4zm-3.5-11.7c1.7.3 3.5.2 5.2.6 1.8.4 3.6 1 5.4 1.3 3.5.7 7.2.9 10.8 1 .5 0 1.1.1 1.7.1-1.1 3-2.6 6.1-5.1 8.1-1.5 1.2-3.2 1.9-4.9 2.5-.9.3-1.8.5-2.8.7 0-.5.1-1.3 0-1.5-4.4-4.4-8.7-8.9-13-13.5.9.2 1.8.5 2.7.7zm1.9 7.7v.2c0-.1-.1-.1 0-.2-.1 0 0 0 0 0zM9.8 173.9c15.1-7.3 30.2-14.5 45.4-21.5 4.4-2 8.7-4 13.1-6 7.1 9.9 14.6 19.5 22.6 28.7 0 .4 0 .8.1.8.4.2.8.4 1.1.6 2.8 3.2 5.7 6.4 8.6 9.5.5.6 1.1 1.2 1.6 1.7 0 2.2.1 4.4 1 6.3-5 3.1-10.1 6.2-15.1 9.3-.5.3-1 .6-1.5 1-.1 0-.1-.1-.2-.1v.2c-2.1 1.3-4.2 2.6-6.3 4-2.2 1.4-4.3 2.8-6.8 3.6-1.9-.9-3.7-1.8-5.5-2.8-.7-.3-1.3-.7-2-1.1 11.1-6 22.3-11.6 33.8-16.9v-.1c.1-.2.1-1.1.2-1.3-.1 0-.2.1-.3.1-1.6.8-3.2 1.5-4.9 2.3-1.6.8-3.2 1.5-4.9 2.3-1.1.5-2.2 1-3.2 1.6-.1 0-.1.1-.2.1-2.9 1.4-5.8 2.8-8.6 4.3-4.4 2.2-8.7 4.5-13.1 6.9-7.4-3.9-14.6-8.2-21.6-12.7 0 0 0-.1-.1-.1-2.1-2.9-6.2-1.3-8.3.8-.3.3-.5.6-.8.9-2.6-3.2-5.3-6.4-8.1-9.4-1.5-1.6-3-3.1-4.5-4.6-.8-.8-1.6-1.6-2.5-2.4-.6-.5-1.4-1.1-1.9-1.7v-.6c17-9.3 34.1-18.2 51.5-26.8v-.2c.1.3-.2 1 0 1.2 10.5 12.7 21 25.4 31.6 38.1.1.2.3.4.4.5-.2-.2.2-1 0-1.2-10.6-12.9-21.3-25.8-32-38.6 0-.3-.2-1 0-1-17.9 8.8-35.7 18.1-53.2 27.7-.2.1.2 1.2 0 1.2.5-.2.9-.5 1.4-.7v1.1-.1c.2.7.8 1 1.3 1.6 2 1.8 3.9 3.7 5.8 5.6 3.4 3.5 6.7 7.2 9.8 11.1-.8 1.3-1.3 2.8-1.9 4.2 0-.5.1-1.2 0-1.6l-.3-.6c0 .1.1.2.1.3-7.1-8.5-14.1-17.2-21.6-25.5zm77.5 207.3V380c-1.1 0-2.1.1-3.2.1-1.7-.5-3.2-1.8-4-3.4-.9-1.6-1.1-3.3-1.2-5.1v-1.2c.1-1.1.2-2.2.3-3.4.8-7.5 2.8-14.9 5.8-21.9.2-.4 0-1.4 0-1.9s-.2-1.4 0-1.9c-3.6 8.2-5.7 16.9-6.1 25.8-.2 3.6-.5 7.8.5 11.3.2.6.4 1.1.7 1.7-15.9.5-31.8 1-47.7 2-2.2.1-7 1-8.7-1.2.6-1.3 1.4-2.7 2-3.8 1-1.8 2-3.5 3.1-5.2 2.2-3.4 4.7-6.5 7.5-9.5 5.5-6 12-11.1 19.1-15 3.9-2.1 8-3.8 11.9-5.8 4.1-2.1 7.6-4.7 10.8-8 3.3-3.3 6.2-6.9 9.1-10.5 3-3.7 6-7.5 8.5-11.6 5.7-9.2 8.8-19.5 11.9-29.8.1-.4.1-.8.1-1.2 3.3 1.7 6.6 3.4 9.8 5.1-1.1 2.6-2.9 5-5.1 6.6-2.2 1.6-5.8 2.7-7.9.4v4.4-.2c.1-.4 0-.3.3-.2.2.1.4.3.6.4 0 .1 0 .1.1.2 2.4 3.6 6.8 4.7 10.8 5.8 4.8 1.3 9.6 2.4 14.6 1.8-2.4 3.5-3.9 7.5-4.5 11.6-.7 4.3-.6 9 0 13.4 1.1 7.7 4.4 15.5 9.3 21.8-4-.2-8 1.3-11.9.5-3.2-1.6-6.5-3-9.8-4.3-2.8-1.1-5.4-1.6-7.9.3-2.2 1.7-3.8 4.2-5.5 6.4-3.5 4.6-6.7 9.6-9.1 14.9-1.2 2.7-2.3 5.5-3 8.3-.4 1.7-.7 3.3-.8 4.9-.3-.4-.4-.9-.4-1.4zm30.8-95.1c2.3 1.2 4.5 2.3 6.8 3.5 4.6 2.3 9.3 4.6 13.9 6.9l6.9 3.3c2.2 1.1 4.4 2.2 6.8 2.9 4.7 1.3 9.7-.7 14.2-2s8.9-2.8 13.3-4.3c17.7-6.4 34.6-15.1 50.1-25.9 1-.7 2.1-1.5 3.1-2.2-1.3 6.1-2.8 19.8 6.9 27.2-.5.6-.9 1.2-1.3 1.8 0-.4-.1-.9.1-1-4.2 4.6-8.8 9.7-9.3 16.3-.1 1.4-.1 2.9-.1 4.4 0 1.3.1 2.7.5 4 .2.6.5 1.1.8 1.6-7.9 2-15.9 4.2-22.5 9-3.1 2.3-5.9 5.1-7.9 8.4-2.2 3.6-3.2 7.7-3.5 11.8-.2 2.3-.1 4.7-.1 7 0 .9 0 1.9.1 2.9-.1.2-.1.3-.2.5-.2.5 0 1.4 0 1.9s.2 1.4 0 1.9c.3-.8.6-1.6 1-2.3.2.2.3.4.5.5-.1-.1 0-1.1 0-1.6.8-1.5 1.8-2.9 2.9-4.2-.4 1.7-.7 3.4-.9 5.1-.3 3.2-.3 6.6-.1 9.8.1 1.7.4 3.4.7 5 .1.5.2.9.3 1.3-3.3.6-6.5 1.8-9.7 2.5-3.2.7-6.5 1.3-9.8 1.8 0-.6 0-1.3-.4-1.6.1.1.1.5.1.9-.4.1-1-.3-1.4-.5-.8-.4-1.6-.8-2.3-1.2-1.4-.8-2.7-1.6-4-2.5-2.7-1.9-5.2-4.1-7.4-6.5-4.4-4.7-8-10.2-10.3-16.2-.8-2-1.4-4-1.8-6-.1-.5-.2-1.1-.3-1.6 0-.2-.1-.6-.1-1 .7-1.7 1.5-3.3 2.3-4.8.2-.4 0-1.4 0-1.9v-1.3c0-.1-.1-.5 0-.5-.7 1.3-1.3 2.6-1.9 3.9-.1-.6-.1-1.3 0-1.8-.2 1-.4 1.9-.5 2.9-2 4.9-3 10-3.1 15.3-7.3-2.1-13.1-7.7-17.1-14-2.4-3.8-4.4-7.9-5.8-12.2-.7-2.3-1.3-4.6-1.6-7-.1-.6-.1-1.2-.2-1.8V322.9c0-.7.1-1.4.2-2.1.7-4.8 2.6-9.4 5.6-13.3.2-.3 0-1.5 0-1.9 0-.1 0-.3-.1-.6h.1c.2 0-.2-3.7 0-3.8-5.3 1-10.6-.2-15.8-1.6-2-.5-4.2-1.1-6.2-2 .7-.3 1.4-.6 2.1-1 2.9-1.9 5-5.1 6.1-8.4.5-.8.3-1.6.3-2.1zm-3.7 105.1c-2.7.5-5.5.7-8.2 0-.8-.2-1.7-.5-2.5-.8.1-1 .2-2.1 0-2.1-2.2-.9-3.1-2.7-3.6-4.8 0-.1 0-.3.1-.4.2-.7.4-1.4.6-2 .5-1.4 1.3-2.8 2-4.1.2-.4 0-1.4 0-1.9s-.2-1.5 0-1.9c-.9 1.8-1.9 3.6-2.5 5.5-.5 1.8-.5 3.5-.5 5.3 0 1.2.1 2.5.4 3.7-2-.3-4-.6-6.1-.9-2-.3-5.2-.3-6.4-2.3v-.1c.2 1.1-.5 2-.3 1 .1-.4.1-.7.2-1.1-.1-.2-.1-.3-.2-.5.1.1.1.3.2.5.1-.3.1-.6.2-.9.3-1.4.7-2.7 1.1-4.1.8-2.5 1.9-5 3-7.4 2.4-4.8 5.4-9.4 8.6-13.7 1.6-2 3.1-4.3 5.1-6 2.2-1.8 4.6-1.8 7.2-.8 2.8 1 5.6 2.2 8.4 3.5 0 .2 0 .3.1.3.8.4 1.6.6 2.4.8 2.6 1.3 5.2 2.7 7.8 4.1-.1-.1 0-1.7 0-1.9 0-.2.2-1.8 0-1.9-.3-.2-.6-.3-.9-.5 2.7-.4 5.4-.7 8.1.2v-.7c.2.2.3.4.5.5 3.2 3.2 7.1 5.8 11.5 7v.2-.2c.4.1.8.2 1.3.3-.2-.1.3-3.7 0-3.8-.4-.1-.7-.2-1-.3.4-3.9 1.4-7.7 2.8-11.3 0 2 .1 3.9.5 5.9.9 4.2 2.5 8.3 4.6 12 3.9 7.1 9.6 13.2 16.3 17.6l1.5.9c-6.6.7-13.3.9-19.9.6-2.5-1.3-4.9-2.6-7.4-3.8-1.1-.6-2.3-1.3-3.5-1.7-1.5-.5-2.7 0-4 .7-4 2.1-7.4 5.3-10.4 8.7 0-.6-.1-1.1 0-1.1-5.7 1.3-11.4 2.6-17.1 3.7zm72.3 36.4c-5.9.5-11.9.7-17.8.7s-11.9-.2-17.9-.3c-5.4-.2-10.8-.3-16.1-1.1-2.9-.4-5.7-1.1-8.5-2.1-.3-.1-.7-.2-1.1-.4v-2c.4-1 1-2 1.4-2.9.9-1.7 1.8-3.3 2.9-4.8 2.1-3.1 4.5-5.9 7.2-8.4.2-.2 0-1.6 0-1.9v-1.3c0-.1-.1-.5 0-.5-3.4 3.2-6.4 6.9-8.8 10.9-1.1 1.9-2.3 4-3 6.1-.3 1-.2 2.1-.2 3.1v1.4c-1.3-.5-2.6-1.1-3.5-2v-.6c0-.2-.1-1.8 0-1.9-.9.4-.7 1.3-.7 2.1v1.5c-1.3-.1-2.6-.7-3.6-1.6-.7-.7-1.3-1.5-1.7-2.3-.2-.4-.4-.9-.5-1.3v-.1c1.2-4.7 4-8.6 6.8-12.6 2.9-4.1 5.9-8.2 9.2-12 3.1-3.5 6.5-6.9 10.6-9.2 1.2-.7 2.4-1.3 3.8-1 1.4.3 2.6 1.1 3.9 1.8l6.3 3.3v.6c.4 0 .8 0 1.3.1l.6.3v-.3c7.5.3 15 0 22.4-1 3.9-.5 7.8-1.2 11.7-2.1 4-.9 8-2.4 12.1-2.9.2 0-.1-3.7 0-3.8-.3 0-.7.1-1 .1-.1-.7-.1-1.5 0-2.2 0 .3-.1.7-.2 1-.1.3.1.6-.2.3-.3-.3-.4-1.1-.5-1.5-.3-1-.6-2.1-.8-3.2-.2-1-.4-2-.5-3-.1-.6-.1-1.2-.1-1.9v-.3c.2-4.1 1.2-8.4 3.1-12.1.1-.3.3-.5.4-.7.7-.6 1.4-1.2 2.2-1.8.2-.1.4-.3.6-.4.2-.1.4-.1.7-.1.9-.1 2 .1 2.7-.7.3-.3.4-.6.4-1v-1.1c0-.8.2-1.8 0-2.6-.1-.5-.2-.3-.7 0-.5.2-.9.5-1.3.7-.6.3-1.1.7-1.6 1-.2 0-.4.1-.6.1-1 .3-1.7 1.2-2.3 2-2.5 2.2-4.5 4.9-5.9 7.8-.8-1-.8-2.4-.9-3.7v-.8c0-.7.1-1.3.2-2 .1-1 .3-1.9.5-2.9.8-3.4 2.3-6.6 4.5-9.4 4.5-5.7 11-9.3 17.7-11.6 4.2-1.5 8.6-2.6 12.9-3.7.2 0 .1-1.1 0-2.1 1 .1 2.1-.3 2.5-1.3.2-.5 0-1.4 0-1.9s-.2-1.4 0-1.9c-.8 2.1-3.5 1.5-4.5 0-.6-.9-.8-2-1.1-3.1 0-.1 0-.3.1-.4.1-.7.3-1.3.4-2 1.3-4.6 4.4-8.3 7.6-11.8v1c-.1-.1-.1 3 0 2.7 0 1.1.1 2.1.4 3.1 1.8 5.9 8.1 8.3 13.3 10.2-.1 0 0-1.7 0-1.9 0-.2.1-1.8 0-1.9-4.6-1.7-9.6-3.6-12.3-7.9-.6-.9-1-1.9-1.2-3 0-.2.1-.4.1-.6.6-2.1 1.8-3.9 3.6-5.2.2-.1 0-1.6 0-1.9 0-.2-.2-1.8 0-1.9l-.1.1c-10.5-7.8-6.7-24.3-5.9-27.6h.1c.1 0 .1-.2.1-.5 0-.5-.1-1.2-.1-1.3 0-.2-.2-1.7 0-1.9-14.8 11-30.9 20.1-48 27-8.5 3.5-17.3 6.4-26.2 8.7-2.3.6-4.7 1.3-7.1 1-2.4-.3-4.6-1.4-6.8-2.4-4.5-2.2-9.1-4.4-13.6-6.6-18-8.9-35.8-18.2-53.4-27.9-8.7-4.8-17.4-9.8-26-14.8-4.3-2.5-8.7-5.1-13-7.7-2.2-1.3-4.4-2.6-6.5-4-1.8-1.1-3.6-2.1-5.1-3.5-1.5-1.3-2.7-2.9-3.2-4.8-.6-2.3-.3-4.7-.9-6.9-.5-1.7-1.4-3.3-2.1-5 .1-.2.1-.3.2-.5.5-.8 1.2-1.5 1.9-2.1 1.4-1.2 2.8-2.3 3.8-3.9 1.1-1.7 1.7-3.7 2.4-5.6 1.3-3.2 3.3-6.4 7.1-6.8 1.1-.1 2.2.1 3 .8 0 .2 0 .4.1.5 9.8 6.3 19.9 12 30.3 17.2 0 .4 0 .6-.1.7.3-.1.6-.2.8-.3 5 2.5 10.2 4.8 15.3 7.1 16 6.9 32.3 13.9 49.5 16.7 2.5.4 5 .7 7.5 1 0 .1 0 .2-.1.2l.2-.2c7.5.7 15.1.8 22.6 1v-3.8c-6.3-.1-12.7-.2-19-.7 1.4-1.4 2.7-2.9 3.9-4.4 2.7-3.1 5.3-6.3 7.9-9.4 5.3-6.4 10.7-12.7 16-19.1.2-.3 0-1.5 0-1.9 0-.3-.2-1.6 0-1.9-3.9 4.6-7.7 9.2-11.6 13.8v-1.1c0 .4 0 .8-.2.9-.3.1-.5-.6-.7-.8-.5-.9-1-1.8-1.4-2.8-.7-1.7-1.2-3.6-1.5-5.4-.4-1.9-.6-3.9-.8-5.9-.1-1.1-.2-2.1-.2-3.2v-.9c0-.1.1-1.2 0-.3v.2V192.9c.3-8 2-16 4.8-23.5 1.6-4.2 3.6-8.3 5.9-12.2.6-.3 1.1-.5 1.7-.8.1-.1 0-1.7 0-1.9s-.2-1.8 0-1.9c-14 6.6-28.7 16.9-45 13.4-8.1-1.7-13.9-7.6-19.6-13.3-5.8-5.8-11.4-11.9-16.6-18.2-3-3.6-5.8-7.3-8.6-11.1-1.3-1.8-2.7-3.7-3.9-5.5-.6-.8-1.1-1.7-1.6-2.5 1.3-.1 2.7-.1 4-.2 3.9-.1 7.7-.1 11.6 0 3.7.1 7.8-.1 11.1 1.8-.2.2-.4.4-.7.5v1.3c.8-.5 1.4-1.2 1.7-2v-1c-.2.6-.6 1.1-1 1.5-.1-.1.2-1.1 0-1.2-.6-.4-1.3-.6-1.9-.8.8-.8 1.7-1.6 2.5-2.4l.6.3c-.2-.1.2-1.2 0-1.2l-.6-.3v-.1l-.1.1c-1.4-.7-2.8-1.3-4.2-2 .6-1.1 1-2.4 1.1-3.7.3-2.2.2-4.6.1-6.9-.2-3.6-1.4-8.4-4.9-9.9 0-.4 0-.7-.1-.8-4.8-1.2-7.5 4-8.1 7.9-.3 2.3-.3 4.7-.1 6.9 0 .3.1.5.1.8l-7.5-3.3c.6-1.6 1.2-3.1 1.8-4.7 2.3-6.1 4.6-12.1 6.9-18.2v.3c0 .2.1.6 0 .7 5.2-9.2 11.1-18.3 19.3-25.2 7.7-6.4 17.5-10.5 27.7-9.8 5.3.3 10.4 2 14.7 5.1-1.5 3.7-2.4 7.6-3.1 11.4-.5 2.7-.7 5.3-.7 8s-.1 5.5.4 8.2c.5 2.9 1.5 5.6 3 8.1 1.7 2.6 4.1 4.7 6.6 6.5 4.7 3.5 9.7 6.3 15.7 5.9 3.4-.2 6.7-1.3 9.7-3 .2 1.8.7 3.5 1.2 5.2-10.1.4-20.2 1.4-30.3 2.9 0-.6-.1-1.2-.1-1.8-.3-3.6-1.4-7.1-3.2-10.2-1.8-3.1-4.2-6-7.3-7.8-1.7-1.1-3.7-1.8-5.8-1.4-1.8.3-3.4 1.4-4.8 2.6-3.5 3.1-6.2 7.2-8.2 11.4-.2.4 0 1.4 0 1.9s.2 1.5 0 1.9c2-4.1 4.7-8.2 8.1-11.3 1.5-1.4 3.4-2.6 5.5-2.8 2.3-.2 4.4.9 6.2 2.2 3.3 2.4 5.8 5.8 7.4 9.5.8 1.9 1.4 3.8 1.7 5.8v.1c-2.3.3-4.5.7-6.8 1.1l-4.8.9c.2-2 .2-4 0-5.9-.2-2.4-.7-4.9-2.6-6.6-1.8-1.5-4.1-2.1-6.3-2.6 0-.3 0-.6.1-.7-3.4 2.8-5.5 6.9-5.7 11.3-.1 2.6-.1 5.1.4 7.6-3.5 1.1-6.8 2.7-9.1 5.5-.1.1-.1.2-.1.3h-.2V112c-.3.5-.7.9-1.1 1.3-.8.2-1.7.3-2.5.5-.1 0 .1 1.2 0 1.2.3-.1.6-.1.9-.2V115.7c.5-.3 1.1-.7 1.5-1.2 4.2-.8 8.5-1.4 12.7-1.8 1.2 1.6 2.9 3.1 5.1 2.7 1.7-.3 3-1.7 4-3.1 13.6 0 27.2 2.5 40 7.3 5.8 2.2 11.4 4.8 16.7 7.9-.2-.1.2-1.1 0-1.2-16.9-9.8-36.4-15-56-15.2 1-1.9 1.5-3.8 1.8-5.8.4-.1.8-.2 1.2-.2 3.5-.7 7.1-1.2 10.7-1.8v.5c-.1.9-.1 1.8-.3 2.6-.2 1.2.2 2.5 0 3.8.4-2.2.5-4.6.5-6.9 6.3-.9 12.5-1.7 18.9-2.2 3.9-.3 7.9-.5 11.8-.7.2.4.3.8.5 1.2v3.1c.2-.6.4-1.3.6-2 .1.2.2.5.4.8v-1.9c.2-.4.3-.9.5-1.3 7.5-.3 15-.2 22.4.1-.3 1.1-.6 2.1-.9 3.2-.9 3.2-1.8 6.4-2.8 9.6-.2-.4-.3-.8-.5-1.1v2.8c-2.7 9-5.7 17.9-8.9 26.7-.2.5 0 1.4 0 1.9s.2 1.4 0 1.9c3.4-9.4 6.6-18.9 9.4-28.4.7 1.6 1.6 3.1 2.5 4.5 1 1.6 2.1 3.2 3.7 4.2 2.9 2 6.1.7 8.9-1-2.2 7.4-3 14.9-2.9 22.7 0 6.5.8 12.9 2.4 19.2-12-7.2-23.9-14.5-35.7-22.2-10.2-6.6-20.5-13.3-31.4-18.7 1.6-.3 3.3-.6 4.9-1 .1 0-.1-1.2 0-1.2-2.3.6-4.6 1-6.8 1.3-3.8-1.8-7.7-3.5-11.7-4.9-4.5-1.6-9.1-2.9-13.8-3.9-.8-.2-1.6-.3-2.4-.4v-.5c-.2.1-.3.3-.5.4-.2 0-.3-.1-.5-.1-.9-.1-1.9-.3-2.6.4-.1.1-.2.4-.3.6-.1.4-.1.8 0 1.1v.1-.1c.1.2.1.3.2.4-.2-.2.1-.8.1-1.1.4-.4 1.1-.4 1.9-.4-.2.2-.4.4-.6.5v1.3c.6-.5 1.2-1.1 1.9-1.6.4.1.8.2 1 .2 2 .4 3.9.8 5.8 1.2 3.9 1 7.7 2.2 11.5 3.6 2.7 1 5.4 2.2 8 3.4-12.1 1.4-24.5-.2-35.9-4.8.1 0 0 .3 0 .6-1.6 1.1-3.4 1.9-5.3 2.6-2.3.9-4.6 1.7-7 2.2-4.2.9-8.8.5-12-2.6.2.2-.2 1 0 1.2 3.2 3.1 7.8 3.5 12 2.6 2.3-.5 4.6-1.3 6.8-2.2 2.1-.8 4.2-1.7 6-3.1 11.9 4.7 24.9 6.1 37.5 4.3 4.1 1.9 8 4 11.9 6.3 14.6 8.4 28.4 18.2 42.8 27 4.9 3 9.8 6 14.8 8.9.5 1.8 1.1 3.7 1.8 5.5-.2-.5 0-1.4 0-1.9s.2-1.4 0-1.9c-.1-.3-.2-.6-.3-.8 3.2 1.9 6.3 3.7 9.5 5.6 6.9 9.9 13.7 19.8 20.6 29.8 5.3 7.7 10.4 15.5 14.5 23.9 2.9 5.9 5.4 12 7.7 18.2-6.8 6.6-13.2 13.8-17.5 22.3-4.6 9.1-6.1 19.2-6.3 29.2-.2 10.3.6 20.6.8 30.9.2 10.4-1.1 20.8-4.8 30.6-3.4 9.1-8.4 17.4-14.2 25.1-5.8 7.7-12.5 14.6-19.3 21.4-5 5-10.4 10.7-12.9 17.5-3.4 3.3-8.6 3.8-13.5 4.2zM123.2 112c.1 0 .1 0 0 0v-1c1.8-1.2 3.8-2 5.9-2.6.3 1.1.7 2.2 1.3 3.2-2.5.2-5 .5-7.6.9.2-.1.3-.3.4-.5zm-.6-.2v.8c-.6.1-1.1.2-1.7.3.6-.6 1.3-1.2 2.1-1.6-.2.1-.3.3-.4.5zM298.7 423c-.1.1-.1.3-.1.6-1.1 3.2-2.4 6.3-4.1 9.2-.4.8-.9 1.5-1.3 2.2-.1.2-.5 1-.7 1.1-.2.1-.8-.2-1-.2-.9-.3-1.6-.9-2.1-1.5.4-1.5.6-3.1.7-3.7.8-3.9 1.7-7.8 2.5-11.7 1.7-8 3.4-15.9 5.2-23.9 3.4-15.9 6.9-31.8 10.3-47.8 1.9-8.9 3.9-17.9 5.8-26.8.3-1.2-.3-2.6 0-3.8-6.9 31.8-13.8 63.7-20.6 95.6-.9 4.4-1.9 8.8-2.8 13.2-.5 2.1-.8 4.4-1.4 6.5-.1.3-.3.7-.5 1 0-.1-.1-.2-.1-.3 0 .1.1.2.1.4-.2.3-.4.6-.7.9-6.8-4-14.9-5.1-22.8-5.1-10.4 0-20.8 1.3-31.1 2.1l-17.1 1.2-8.7.6c-1.3.1-2.7.2-4 .2-.7 0-1.3.1-2 .1-.3 0-2.2.3-2.5.2 0-.5.1-1.1.2-1.6.2-1.1.5-2.2.8-3.2.1-.2.2-.5.3-.7 0 0 0-.1.1-.2.7-1.7 1.5-3.3 2.4-4.9 2.4-3.9 5.4-7.3 8.5-10.6 6.5-6.8 13.3-13.3 19.1-20.7 5.9-7.4 11-15.3 14.7-24 1-2.2 1.8-4.4 2.5-6.7 0 .3 0 .6-.1.7 8.3-14.8 16.6-29.7 25-44.4 7.2-12.7 14.8-25.3 24.1-36.5 5.2-6.2 11-12 17.5-16.9.2-.1 0-1.6 0-1.9 0-.2-.2-1.7 0-1.9-5.4 4.1-10.3 8.8-14.8 13.9.2-.6.3-1.2.4-1.8.4-1.7.7-3.3.9-5 .8-6 .8-12.1.7-18.1-.2-6.9-.7-13.7-1.2-20.6-.5-6.9-1-13.9-1.4-20.8-.5-6.7-.9-13.4-1.4-20.1 1.5-5.6 2.9-11.3 4.1-17 .4-2.1.9-4.3 1.2-6.4.2-1 .4-1.9.5-2.9 10.2 19.1 21.7 37.5 34.4 55 6.6 9.1 13.5 17.9 20.8 26.5 7 8.3 14.5 15.9 23.5 22 2.2 1.4 4.3 2.9 6 4.9.8 1 1.5 2 1.9 3.2.2.5.3 1 .4 1.5-.6 2.9-2 5.6-4 7.6 0-.1-.1-.2-.1-.3 0 .1.1.2.1.3-1.1 1-2.3 1.9-3.7 2.5-5.2 1.9-9.6 5.5-13.5 9.4-4.2 4.3-8.1 8.9-12 13.6-7.8 9.5-15 19.5-21.6 29.9-13.1 20.8-23.7 43.2-31.2 66.6-.4 1.3-.8 2.5-1.2 3.8-.1.3-.3.5-.4.8-.1.2-.1.5-.1.9-1.4 4.7-2.7 9.3-4.3 13.9l-.1-.1zm45.6-30.8c-11.3 3.8-21.5 9.7-30.7 17.3-4.5 3.7-8.8 7.7-13 11.7 1-3.2 1.9-6.5 2.9-9.7 0-.1.1-.3.1-.4 8-16.2 17.3-31.8 27.9-46.5 4.5 6.8 12.6 10 19.9 13 6.6 2.8 13.2 5.8 20 8.4-9.2 1.4-18.3 3.2-27.1 6.2zm130.3 4.1c-.1.5-.1 1-.2 1.6-.3 1.7-.8 3.4-1.5 5-2.8 6.5-8.2 11.4-13.9 15.3-6.6 4.5-13.9 8.2-21 11.9-16.2 8.3-32.8 15.7-49.8 22.1-16.2 6.1-33.4 11.6-50.9 10-7.4-.7-14.7-2.6-21.3-6-3.3-1.7-6.4-3.8-9.2-6.3-2.7-2.5-5.7-5.4-6.8-9-.1-.4-.2-.8-.3-1.3.1-.8.3-1.6.5-2.3.6-1.9 1.5-3.6 2.5-5.3 2-3.2 4.6-6.2 7.4-8.8 5.6-5.1 12.2-9 19.2-11.9 15.8-6.7 33-8.5 49.4-13 14.3-4 28.9-10.6 38.1-22.8 2.1-2.8 3.8-5.8 5.2-9 .2-.5 0-1.4 0-1.9s-.2-1.4 0-1.9c-4.9 11.7-15 20-26.3 25.5v-1c-9.8.3-19.2-2.8-28.2-6.5-4.7-1.9-9.4-3.9-14-5.9-4.1-1.7-8.3-3.4-12.2-5.5-3.1-1.7-6.1-3.8-8.4-6.5.9-1.2 1.8-2.4 2.7-3.7 3.1-4.1 6.2-8.1 9.5-12.1 3.2-3.8 6.5-7.6 10.3-10.9.7-.6 1.4-1.1 2.1-1.6-.1.7-.1 1.2.1 1.2 8.4 3.1 17.1 5.5 26 7.1 9 1.6 18.1 2 27.1 3.2 16.4 2.2 31.4 9.7 44.3 20 6.1 4.9 11.8 10.5 15.7 17.3 1.9 3.3 3.3 6.8 3.9 10.5 0 .4.1.8.1 1.1v.6c0 .4-.1.7-.1.8z"/>
  <path fill="#BB93DD" d="M135.5 351.7c-4-.2-8 1.3-11.9.5-3.2-1.6-6.5-3-9.8-4.3-2.8-1.1-5.4-1.6-7.9.3-2.2 1.7-3.8 4.2-5.5 6.4-3.5 4.6-6.7 9.6-9.1 14.9-1.2 2.7-2.3 5.5-3 8.3-.4 1.7-.7 3.3-.8 4.9 0-.5-.1-1.1-.1-1.6V380c-1.1 0-2.1.1-3.2.1-1.7-.5-3.2-1.8-4-3.4-.9-1.6-1.1-3.3-1.2-5.1v-1.2c.1-1.1.2-2.2.3-3.4.8-7.5 2.8-14.9 5.8-21.9.2-.4 0-1.4 0-1.9s-.2-1.4 0-1.9c-3.6 8.2-5.7 16.9-6.1 25.8-.2 3.6-.5 7.8.5 11.3.2.6.4 1.1.7 1.7-15.9.5-31.8 1-47.7 2-2.2.1-7 1-8.7-1.2.6-1.3 1.4-2.7 2-3.8 1-1.8 2-3.5 3.1-5.2 2.2-3.4 4.7-6.5 7.5-9.5 5.5-6 12-11.1 19.1-15 3.9-2.1 8-3.8 11.9-5.8 4.1-2.1 7.6-4.7 10.8-8 3.3-3.3 6.2-6.9 9.1-10.5 3-3.7 6-7.5 8.5-11.6 5.7-9.2 8.8-19.5 11.9-29.8.1-.4.1-.8.1-1.2 3.3 1.7 6.6 3.4 9.8 5.1-1.1 2.6-2.9 5-5.1 6.6-2.2 1.6-5.8 2.7-7.9.4v4.4-.2c.1-.4 0-.3.3-.2.2.1.4.3.6.4 0 .1 0 .1.1.2 2.4 3.6 6.8 4.7 10.8 5.8 4.8 1.3 9.6 2.4 14.6 1.8-2.4 3.5-3.9 7.5-4.5 11.6-.7 4.3-.6 9 0 13.4.7 7.8 4.1 15.6 9 21.9z"/>
  <path fill="#EDEDED" d="M99.9 190.1c-.1.1-.2.1-.3.2-1.6.8-3.3 1.5-4.9 2.3-1.6.8-3.2 1.5-4.9 2.3-1.1.5-2.2 1-3.2 1.6-.1 0-.1.1-.2.1-2.9 1.4-5.8 2.8-8.6 4.3-4.4 2.2-8.7 4.5-13.1 6.9-7.4-3.9-14.6-8.2-21.6-12.7 0 0 0-.1-.1-.1-2.1-2.9-6.2-1.3-8.3.8-.3.3-.5.6-.8.9-2.6-3.2-5.3-6.4-8.1-9.4-1.5-1.6-3-3.1-4.5-4.6-.8-.8-1.6-1.6-2.5-2.4-.6-.5-1.4-1.1-1.9-1.7v-.6c17-9.3 34.1-18.2 51.5-26.8v-.2c.1.3-.2 1 0 1.2 10.5 12.4 21 25.1 31.5 37.9z"/>
  <path fill="#C2C6C9" d="M103.2 194.2c-5 3.1-10.1 6.2-15.1 9.3-.5.3-1 .6-1.5 1-.1 0-.1-.1-.2-.1v.2c-2.1 1.3-4.2 2.6-6.3 4-2.2 1.4-4.3 2.8-6.8 3.6-1.9-.9-3.7-1.8-5.5-2.8-.7-.3-1.3-.7-2-1.1 11.1-6 22.3-11.6 33.8-16.9v-.1c0-.2-.2-1-.1-1.2.1 0 .2-.1.3-.1.1.2.3.4.4.5-.2-.2.2-1 0-1.2-10.6-12.9-21.3-25.8-32-38.6 0-.3-.2-1 0-1-17.9 8.8-35.7 18.1-53.2 27.7-.2.1.2 1.2 0 1.2.5-.2.9-.5 1.4-.7v1.1-.1c.2.7.8 1 1.3 1.6 2 1.8 3.9 3.7 5.8 5.6 3.4 3.5 6.7 7.2 9.8 11.1-.8 1.3-1.3 2.8-1.9 4.2 0-.5.1-1.2 0-1.6l-.3-.6c0 .1.1.2.1.3-7-8.7-14.1-17.3-21.6-25.6 15.1-7.3 30.2-14.5 45.4-21.5 4.4-2 8.7-4 13.1-6 7.1 9.9 14.6 19.5 22.6 28.7 0 .4 0 .8.1.8.4.2.8.4 1.1.6 2.8 3.2 5.7 6.4 8.6 9.5.5.6 1.1 1.2 1.6 1.7.1 2.3.2 4.6 1.1 6.5z"/>
  <path fill="#BB93DD" d="M108.8 49.7c-3.1 2.7-5.9 5.8-8.4 9-3.6 4.6-6.6 9.6-9.5 14.7v-.2c-.1.2-.1.3-.2.5-.1.1-.1.2-.2.3-.1.1-.1.3-.1.5l-7.8 20.4c0-.5.1-1.1-.1-1.2-4-2.9-7.1-7-8.9-11.6-.9-2.3-1.5-4.6-1.8-7-.1-.5-.1-1.1-.2-1.7v-.6c.1-1.2.3-2.4.5-3.5 1.2-5.4 4.3-10.1 8.2-13.9 2.1-2.1 4.5-3.9 6.9-5.6 2.6-1.8 5.3-3.5 8.4-4.2 5.1-1.6 10.1.3 13.2 4.1zM196.8 68.7c0 .3 0 .6-.1 1l-.3 2.4c-.7 4.1-2.3 8.1-4.8 11.4-.2-.5-.4-1-.5-1.6v2.3c-.4.5-.9 1.1-1.4 1.6-1.7 1.8-3.7 3.3-5.8 4.4-.1-.4-.1-.8-.2-1.2v1.3c-6.2 3.4-13.8 4-20.2.3-4.8-2.7-10-6.5-12.6-11.5-1.2-2.2-1.9-4.7-2.2-7.2-.1-.7-.2-1.5-.2-2.2v-.3c.1-1.6.3-3.1.5-4.7 1-6.2 2.8-12.7 6.2-18 3.3-5.1 8.8-9.2 15.2-8.6v-.4c4.7 1 9.5 2.3 13.6 4.9 4.9 3.1 8 8.3 10 13.6 1.1 2.7 1.9 5.6 2.3 8.5.3 1.4.4 2.7.5 4zM399 341.1c-.4 0-.8-.1-1.3-.1-9.2-.8-18.4-2.4-27.3-4.9-3.6-1-7.1-2.1-10.6-3.3 6.5-4.1 14.3-6 21.8-3 6.5 2.6 11.5 7.8 17.4 11.3zM371.3 386c-9.2 1.4-18.2 3.2-27.1 6.1-11.3 3.8-21.5 9.7-30.7 17.3-4.5 3.7-8.8 7.7-13 11.7 1-3.2 1.9-6.5 2.9-9.7 0-.1.1-.3.1-.4 8-16.2 17.3-31.8 27.9-46.5 4.5 6.8 12.6 10 19.9 13 6.7 3 13.3 6 20 8.5z"/>
  <path fill="#67CFEE" d="M402.5 339.2c-6.6-2.9-11.8-8.5-18.2-11.9-4-2.1-8.4-3.1-12.9-2.6-4.8.6-9.4 2.6-13.3 5.4-4 2.8-7.4 6.4-10.6 10.1-3.4 3.9-6.6 7.9-9.7 12-2.2 2.8-4.3 5.7-6.4 8.6-.1-.2-.2-.3-.3-.5.1.2.1.5.1.9-3.8 5.4-7.5 10.8-11 16.4-4.6 7.4-9 14.9-13 22.6 2.8-7.9 5.9-15.7 9.3-23.3 10.1-22.4 23-43.6 38.3-62.8 4.3-5.3 8.7-10.6 13.4-15.6 4.2-4.5 9-8.8 14.8-10.9.1 0 .1-.1.2-.1.3-.1.6-.2 1-.3 0 0 .1-.1.1-.2.9-.5 1.8-1.2 2.6-2 6.3 14.1 11.1 28.9 14 44.1.4 2.1.8 4.3 1.1 6.4.1 1.3.4 2.5.5 3.7zM303.9 156.9c-.4-.7-.8-1.5-1.2-2.2.2.4 0 1.5 0 1.9 0 .5-.2 1.5 0 1.9.2.4.5.9.7 1.3-.2 1-.4 1.9-.5 2.9-1.4 7.2-3 14.3-5 21.4v-.7.9c-.7 2.6-1.4 5.2-2.2 7.8-.3 1.2.4 2.6 0 3.8.8-2.6 1.5-5.3 2.3-7.9l2.4 33.9 1.2 17.4c.4 5.6.9 11.2.7 16.8-.1 3.1-.4 6.3-1 9.4-.3 1.5-.6 3-1 4.5-.1.6-.3 1.3-.5 1.8-.1.1-.3.4-.5.5 0-.2 0-.4-.1-.5-.2-.3-.3.1-.4.5v-.2 1.6c0 .3-.2 1.3 0 1.9-4.5 5.2-8.6 10.8-12.4 16.5-8.5 12.9-15.8 26.5-23.3 39.9l-12.6 22.5c1.1-4.8 1.8-9.8 2-14.8.5-10-.2-20-.6-29.9-.4-10.4 0-21 3.5-30.9 3.3-9.2 9.2-17.1 15.9-24.1 1.6-1.7 3.3-3.4 5.1-5 .5 1.4 1 2.9 1.5 4.4 3.2 9.8 5.8 19.8 8.5 29.7-.3-1.2.3-2.6 0-3.8-3-11.4-6.1-22.9-9.9-34.1-2.1-6.1-4.5-12.1-7.2-18-3.9-8.5-8.8-16.4-14-24.1-5.5-8.1-11.2-16.2-16.8-24.3-6.4-9.2-12.7-18.4-19.1-27.7.2.2.1 1 0 1.5-.2-2-.4-4-.5-6.1v-.8c0-.5 0-1 .1-1.6 0-1 .1-2 .2-3 .2-1.9.4-3.8.8-5.7.5-2.9 1.2-5.7 2.1-8.5-.1 1-.2 2.1 0 2.2 19.1 4.2 37.9 10 56 17.6 5.1 2.1 10.2 4.4 15.2 6.8v-.3c1.4.9 2.9-.2 4.1-1 1.4-.9 3-1.8 4.7-.9.9.4 1.6 1.2 2 2.1.2.5.3.9.5 1.4-.6.3-.6.8-.7 1.3z"/>
  <path fill="#67CFEE" d="M386.8 281.3c0-.1-.1-.2-.1-.3 0 .1.1.3.1.3-1.1 1.1-2.4 2-3.8 2.6-5.2 1.9-9.6 5.5-13.5 9.4-4.2 4.3-8.1 8.9-12 13.6-7.8 9.5-15 19.5-21.6 29.9-13.1 20.8-23.7 43.2-31.2 66.6-.4 1.3-.8 2.5-1.2 3.8-.1.3-.3.5-.4.8-.1.2-.1.5-.1.9-1.4 4.7-2.7 9.3-4.3 13.9l-.1.1c-.1.1-.1.3-.1.6-1.1 3.2-2.4 6.3-4.1 9.2-.4.8-.9 1.5-1.3 2.2-.1.2-.5 1-.7 1.1-.2.1-.8-.2-1-.2-.9-.3-1.6-.9-2.1-1.5.4-1.5.6-3.1.7-3.7.8-3.9 1.7-7.8 2.5-11.7 1.7-8 3.4-15.9 5.2-23.9 3.4-15.9 6.9-31.8 10.3-47.8 1.9-8.9 3.9-17.9 5.8-26.8.3-1.2-.3-2.6 0-3.8-6.9 31.8-13.8 63.7-20.6 95.6-.9 4.4-1.9 8.8-2.8 13.2-.5 2.1-.8 4.4-1.4 6.5-.1.3-.3.7-.5 1 0-.1-.1-.2-.1-.3 0 .1.1.2.1.4-.2.3-.4.6-.7.9-6.8-4-14.9-5.1-22.8-5.1-10.4 0-20.8 1.3-31.1 2.1l-17.1 1.2-8.7.6c-1.3.1-2.7.2-4 .2-.7 0-1.3.1-2 .1-.3 0-2.2.3-2.5.2 0-.5.1-1.1.2-1.6.2-1.1.5-2.2.8-3.2.1-.2.2-.5.3-.7 0 0 0-.1.1-.2.7-1.7 1.5-3.3 2.4-4.9 2.4-3.9 5.4-7.3 8.5-10.6 6.5-6.8 13.3-13.3 19.1-20.7 5.9-7.4 11-15.3 14.7-24 1-2.2 1.8-4.4 2.5-6.7 0 .3 0 .6-.1.7 8.3-14.8 16.6-29.7 25-44.4 7.2-12.7 14.8-25.3 24.1-36.5 5.2-6.2 11-12 17.5-16.9.2-.1 0-1.6 0-1.9 0-.2-.2-1.7 0-1.9-5.4 4.1-10.3 8.8-14.8 13.9.2-.6.3-1.2.4-1.8.4-1.7.7-3.3.9-5 .8-6 .8-12.1.7-18.1-.2-6.9-.7-13.7-1.2-20.6-.5-6.9-1-13.9-1.4-20.8-.5-6.7-.9-13.4-1.4-20.1 1.5-5.6 2.9-11.3 4.1-17 .4-2.1.9-4.3 1.2-6.4.2-1 .4-1.9.5-2.9 10.2 19.1 21.7 37.5 34.4 55 6.6 9.1 13.5 17.9 20.8 26.5 7 8.3 14.5 15.9 23.5 22 2.2 1.4 4.3 2.9 6 4.9.8 1 1.5 2 1.9 3.2.2.5.3 1 .4 1.5-.5 2.7-1.8 5.3-3.9 7.3z"/>
  <path fill="#EF800B" d="M230.8 172.6c-2.9-1.7-5.8-3.4-8.6-5.1-1.3-3.7-2.2-7.6-2.8-11.4 3.8 5.4 7.6 10.9 11.4 16.5z"/>
  <path fill="#FDEAE3" d="M161.5 204.3c.4 4 1.1 8.2 3 11.8l-3 3.6c-2.7 3.1-5.3 6.3-7.9 9.4-2.3 2.8-4.8 5.5-7.6 7.8-1.4-.1-2.9-.3-4.3-.5-8.6-1.2-17-3.4-25.3-6.2-2.5-.8-4.9-1.8-7.4-2.7 0-.8-.1-1.5 0-1.5-.8.1-1.5-.3-1.8-.9.1-.2.1-.4.2-.6.3-.7.6-1.4.9-2 .7-1.2 1.6-2.4 2.6-3.4 2-2.1 4.6-3.6 7.4-4.4 0 0 .1-.4 0-.9.6-.1 1.1-.2 1.7-.5v.2h.3v-.5c.9-.6 1.6-1.4 2-2.5.3-1.2-.3-2.6 0-3.8-.7 2.5-3.5 3.7-5.9 3.2-2.8-.7-4.8-3-6.2-5.4-1.3-2.2-2.5-4.5-3.6-6.9 2.9 1.4 6.6.4 9.5-.9 4.4-2 6.4-6 8-10.3.5-1.1.9-2.3 1.2-3.5.1-.1.2-.3.2-.5v-.5c1-3.2 1.7-6.5 2.2-9.9.1-.8 0-1.6 0-2.4 3.9 1 8 1.1 12 .6 10.7-1.3 20.1-6.8 29.6-11.6-7 14.4-9.4 30.2-7.8 45.7zM240.1 295.4c-.5.6-.9 1.2-1.3 1.8 0-.4-.1-.9.1-1-4.2 4.6-8.8 9.7-9.3 16.3-.1 1.4-.1 2.9-.1 4.4 0 1.3.1 2.7.5 4 .2.6.5 1.1.8 1.6-7.9 2-15.9 4.2-22.5 9-3.1 2.3-5.9 5.1-7.9 8.4-2.2 3.6-3.2 7.7-3.5 11.8-.2 2.3-.1 4.7-.1 7 0 .9 0 1.9.1 2.9-.1.2-.1.3-.2.5-.2.5 0 1.4 0 1.9s.2 1.4 0 1.9c.3-.8.6-1.6 1-2.3.2.2.3.4.5.5-.1-.1 0-1.1 0-1.6.8-1.5 1.8-2.9 2.9-4.2-.4 1.7-.7 3.4-.9 5.1-.3 3.2-.3 6.6-.1 9.8.1 1.7.4 3.4.7 5 .1.5.2.9.3 1.3-3.3.6-6.5 1.8-9.7 2.5-3.2.7-6.5 1.3-9.8 1.8 0-.6 0-1.3-.4-1.6.1.1.1.5.1.9-.4.1-1-.3-1.4-.5-.8-.4-1.6-.8-2.3-1.2-1.4-.8-2.7-1.6-4-2.5-2.7-1.9-5.2-4.1-7.4-6.5-4.4-4.7-8-10.2-10.3-16.2-.8-2-1.4-4-1.8-6-.1-.5-.2-1.1-.3-1.6 0-.2-.1-.6-.1-1 .7-1.7 1.5-3.3 2.3-4.8.2-.4 0-1.4 0-1.9v-1.3c0-.1-.1-.5 0-.5-.7 1.3-1.3 2.6-1.9 3.9-.1-.6-.1-1.3 0-1.8-.2 1-.4 1.9-.5 2.9-2 4.9-3 10-3.1 15.3-7.3-2.1-13.1-7.7-17.1-14-2.4-3.8-4.4-7.9-5.8-12.2-.7-2.3-1.3-4.6-1.6-7-.1-.6-.1-1.2-.2-1.8V322.8c0-.7.1-1.4.2-2.1.7-4.8 2.6-9.4 5.6-13.3.2-.3 0-1.5 0-1.9 0-.1 0-.3-.1-.6h.1c.2 0-.2-3.7 0-3.8-5.3 1-10.6-.2-15.8-1.6-2-.5-4.2-1.1-6.2-2 .7-.3 1.4-.6 2.1-1 2.9-1.9 5-5.1 6.1-8.4.2-.5 0-1.2 0-1.8 2.3 1.2 4.5 2.3 6.8 3.5 4.6 2.3 9.3 4.6 13.9 6.9l6.9 3.3c2.2 1.1 4.4 2.2 6.8 2.9 4.7 1.3 9.7-.7 14.2-2s8.9-2.8 13.3-4.3c17.7-6.4 34.6-15.1 50.1-25.9 1-.7 2.1-1.5 3.1-2.2-1 5.7-2.5 19.4 7.2 26.9z"/>
  <path fill="#EF800B" d="M122.9 111.3c-.1.2-.2.4-.4.5v.8c-.6.1-1.1.2-1.7.3.7-.6 1.4-1.1 2.1-1.6zM130.5 111.7c-2.5.2-5 .5-7.6.9.1-.2.2-.4.4-.5v-.9c1.8-1.2 3.8-2 5.9-2.6.3 1 .7 2 1.3 3.1zM102.9 114.1v1.1c-.3-.1-.6-.2-.9-.2 0-.3.2-.8 0-.9-1.1-.9-2.4-1.3-3.7-1.6.6-.3 1.2-.7 1.7-1.2.3-.2.5-.5.7-.8 1.3.6 2.6 1.3 3.9 1.9l-1.7 1.7zM101.3 114.8c-2-.4-4-.4-6.1-.5-3.5-.1-7.1-.1-10.7-.1-2.3 0-4.6.1-6.9.2-.1-.2-.1-.3-.2-.4-.1-.2-.1-.4-.2-.6.1-.7.3-1.3.5-2 4 .1 8 .4 12 .8 2.2.3 4.4.6 6.6 1 1.8.4 3.5.7 5 1.6zM92.4 111.4c-.8-.1-1.7-.2-2.6-.4-3.8-.5-7.7-.8-11.6-.8.6-1.6 1.3-3.2 1.9-4.7.5-1.2.9-2.5 1.4-3.7 1.5.6 2.9 1.2 4.3 1.8 1.3.6 2.5 1.1 3.8 1.7.3 1.3.7 2.7 1.3 3.9.5.8.9 1.5 1.5 2.2z"/>
  <path fill="#E4610E" d="M95.7 41.5c-3 .8-5.7 2.5-8.2 4.2-2.7 1.9-5.3 3.9-7.6 6.3-.7.7-1.2 1.3-1.8 2.1 0-1-.2-2.1-.1-3 0 .1-.2 1.3-.3 1.4.1 0-.1-1.1-.1-1.2-.1-.8-.2-1.5-.2-2.3-.2-1.8-.3-3.5-.4-5.3-.1-3.2.1-6.7.5-10.3.6-5.7 1.7-11.3 3.3-16.8 8.6 5.5 12.4 15.3 14.9 24.9zM201 79.8v.6c0 .3-.1.6-.1.9-.2 1.4-.5 2.8-1 4.1-.9 2.4-2.2 4.5-4.1 6.2v-1.9c-1.3-1.1-2.3-2.4-3.2-3.9 1.7-2.6 2.9-5.6 3.5-8.7.5-2.6.7-5.3.7-7.9v-1c0-2.7-.2-5.4-.7-8.1-1.3-6.7-4.2-14-9.2-18.7-4.8-4.5-11.4-6.1-17.7-7.5-.7-.4-1.4-.9-2.1-1.3 5.3-9.3 11-18.3 17.2-27.1.2-.3.4-.8.7-1l.1-.1v4.1c0 3.1.6 6.1 1.3 9.1 1.6 6.4 3.6 12.8 5.3 19.2 1.7 6.6 3.4 13.3 4.9 20 1.5 6.5 3 13.1 4 19.7.2 1.1.4 2.2.4 3.3zM176.6 384.4c-6.6.7-13.3.9-19.9.6-2.5-1.3-4.9-2.6-7.4-3.8-1.1-.6-2.3-1.3-3.5-1.7-1.5-.5-2.7 0-4 .7-4 2.1-7.4 5.3-10.4 8.7 0-.6-.1-1.1 0-1.1-5.7 1.2-11.3 2.6-17.1 3.6-2.7.5-5.5.7-8.2 0-.8-.2-1.7-.5-2.5-.8.1-1 .2-2.1 0-2.1-2.2-.9-3.1-2.7-3.6-4.8 0-.1 0-.3.1-.4.2-.7.4-1.4.6-2 .5-1.4 1.3-2.8 2-4.1.2-.4 0-1.4 0-1.9s-.2-1.5 0-1.9c-.9 1.8-1.9 3.6-2.5 5.5-.5 1.8-.5 3.5-.5 5.3 0 1.2.1 2.5.4 3.7-2-.3-4-.6-6.1-.9-2-.3-5.2-.3-6.4-2.3V384.4c.1-.3.1-.6.2-.9.3-1.4.7-2.7 1.1-4.1.8-2.5 1.9-5 3-7.4 2.4-4.8 5.4-9.4 8.6-13.7 1.6-2 3.1-4.3 5.1-6 2.2-1.8 4.6-1.8 7.2-.8 2.8 1 5.6 2.2 8.4 3.5 0 .2 0 .3.1.3.8.4 1.6.6 2.4.8 2.6 1.3 5.2 2.7 7.8 4.1-.1-.1 0-1.7 0-1.9 0-.2.2-1.8 0-1.9-.3-.2-.6-.3-.9-.5 2.7-.4 5.4-.7 8.1.2v-.7c.2.2.3.4.5.5 3.2 3.2 7.1 5.8 11.5 7v.2-.2c.4.1.8.2 1.3.3-.2-.1.3-3.7 0-3.8-.4-.1-.7-.2-1-.3.4-3.9 1.4-7.7 2.8-11.3 0 2 .1 3.9.5 5.9.9 4.2 2.5 8.3 4.6 12 3.9 7.1 9.6 13.2 16.3 17.6.4.5.9.8 1.4 1.1zM114.1 212.8c-2.1 1.3-4 3.1-5.3 5.2-.5.8-1 1.7-1.4 2.7 0-.3 0-.5-.1-.5-1.9-.8-3.3-2.2-4.7-3.7-1.6-1.6-3.2-3.1-4.9-4.6-2.5-2.1-5.1-4-7.9-5.7 4.9-3 9.8-6.1 14.6-9 .1 0 .1-.4.1-.8 1.5 4.2 3.4 8.2 5.7 12 .9 1.7 2.2 3.4 3.9 4.4zM123.8 183.4c-1.1 3-2.6 6.1-5.1 8.1-1.5 1.2-3.2 1.9-4.9 2.5-.9.3-1.8.5-2.8.7 0-.5.1-1.3 0-1.5-4.4-4.4-8.7-8.9-13-13.5.9.4 1.7.7 2.7.8 1.7.3 3.5.2 5.2.6 1.8.4 3.6 1 5.4 1.3 3.5.7 7.2.9 10.8 1 .6-.1 1.2 0 1.7 0z"/>
  <path fill="#EF800B" d="M474.7 395.6v.7c-.1.5-.1 1-.2 1.6-.3 1.7-.8 3.4-1.5 5-2.8 6.5-8.2 11.4-13.9 15.3-6.6 4.5-13.9 8.2-21 11.9-16.2 8.3-32.8 15.7-49.8 22.1-16.2 6.1-33.4 11.6-50.9 10-7.4-.7-14.7-2.6-21.3-6-3.3-1.7-6.4-3.8-9.2-6.3-2.7-2.5-5.7-5.4-6.8-9-.1-.4-.2-.8-.3-1.3.1-.8.3-1.6.5-2.3.6-1.9 1.5-3.6 2.5-5.3 2-3.2 4.6-6.2 7.4-8.8 5.6-5.1 12.2-9 19.2-11.9 15.8-6.7 33-8.5 49.4-13 14.3-4 28.9-10.6 38.1-22.8 2.1-2.8 3.8-5.8 5.2-9 .2-.5 0-1.4 0-1.9s-.2-1.4 0-1.9c-4.9 11.7-15 20-26.3 25.5v-1c-9.8.3-19.2-2.8-28.2-6.5-4.7-1.9-9.4-3.9-14-5.9-4.1-1.7-8.3-3.4-12.2-5.5-3.1-1.7-6.1-3.8-8.4-6.5.9-1.2 1.8-2.4 2.7-3.7 3.1-4.1 6.2-8.1 9.5-12.1 3.2-3.8 6.5-7.6 10.3-10.9.7-.6 1.4-1.1 2.1-1.6-.1.7-.1 1.2.1 1.2 8.4 3.1 17.1 5.5 26 7.1 9 1.6 18.1 2 27.1 3.2 16.4 2.2 31.4 9.7 44.3 20 6.1 4.9 11.8 10.5 15.7 17.3 1.9 3.3 3.3 6.8 3.9 10.5 0 .4.1.8.1 1.1-.2.3-.1.5-.1.7zM102.4 40.2c0 .3.1 1 .1 1.4-1.9-.6-4-.7-6-.3 0-.2 0-.5-.1-.7-1.6-6.8-3.7-14-7.7-19.9 1.7 1.3 3.4 2.6 5.2 4 3.9 3 7.9 6 11.8 9.1-1.2 1.4-2.3 2.9-3.3 4.6-.2.3 0 1.4 0 1.8zM213.7 83c0 .4 0 .7-.1 1.1-.1.9-.2 1.7-.3 2.6-.7 4.2-1.7 8.4-2.9 12.6-.8 0-1.7-.1-2.5-.1-6.5-.2-13.1-.2-19.6 0 1-1.8 2.5-3.3 4.7-3.8.1 0 0-1.7 0-1.9 0-.1-.1-1.9 0-1.9-3.6.8-5.2 4.3-6.2 7.6-.9-1.8-1.6-3.6-2.1-5.5 1.2-.7 2.3-1.5 3.3-2.4 1.4-1.2 2.6-2.5 3.7-4 .7 1.9 1.8 3.6 3.2 5.1-.1 0-.1.1-.2.1-.2.1 0 1.6 0 1.9 0 .2.2 1.8 0 1.9 4.5-3.1 6.3-8.5 6.5-13.8.1-2.9.1-5.7-.3-8.6-.4-3.3-1.1-6.6-1.8-9.8-2.7-13.3-5.9-26.5-9.6-39.5-1-3.6-2.1-7.1-3-10.7-.5-1.8-.8-3.7-1.1-5.6 0-.3-.1-.6-.1-.9V6.5c0-.6.2-1.3.3-1.9.3.5.5 1.3.7 1.9.6 1.6 1.2 3.1 1.8 4.7 1.1 2.8 2.1 5.6 3.2 8.4 2.2 5.8 4.4 11.5 6.5 17.3 4.3 11.3 8.7 22.6 12.9 33.9 1 2.7 1.9 5.4 2.5 8.2.2 1.3.4 2.6.5 4z"/>
  <path fill="#EF800B" d="M267.4 228.4c-4.1-8.4-9.2-16.2-14.5-23.9-6.8-10-13.7-19.9-20.6-29.8-3.2-1.9-6.3-3.7-9.5-5.6.1.3.2.6.3.8.2.5 0 1.3 0 1.9 0 .5-.2 1.4 0 1.9-.7-1.8-1.3-3.6-1.8-5.5-4.9-2.9-9.9-5.9-14.8-8.9-14.4-8.8-28.2-18.6-42.8-27-3.9-2.2-7.9-4.3-11.9-6.3-12.6 1.8-25.6.4-37.5-4.3-1.8 1.4-3.9 2.3-6 3.1-2.2.8-4.5 1.7-6.8 2.2-4.2.9-8.8.5-12-2.6-.2-.2.2-1 0-1.2 3.2 3.1 7.8 3.5 12 2.6 2.4-.5 4.7-1.4 7-2.2 1.9-.7 3.7-1.5 5.3-2.6 0-.3.1-.5 0-.6 11.4 4.6 23.8 6.2 35.9 4.8-2.6-1.2-5.3-2.3-8-3.4-3.8-1.4-7.6-2.6-11.5-3.6-1.9-.5-3.9-.9-5.8-1.2-.2 0-.6-.1-1-.2-.6.5-1.2 1.1-1.9 1.6v-1.3c.2-.2.4-.4.6-.5-.8 0-1.5 0-1.9.4 0 .3-.2.9-.1 1.1-.1-.1-.2-.3-.2-.4v.1-.1c-.1-.3-.1-.7 0-1.1.1-.3.2-.5.3-.6.7-.7 1.7-.5 2.6-.4.2 0 .3.1.5.1.2-.1.3-.3.5-.4v.5c.8.1 1.6.3 2.4.4 4.7 1 9.3 2.3 13.8 3.9 4 1.4 7.9 3.1 11.7 4.9 2.3-.3 4.6-.8 6.8-1.3-.1 0 .1 1.2 0 1.2-1.6.4-3.3.7-4.9 1 10.9 5.4 21.2 12 31.4 18.7 11.7 7.7 23.7 15 35.7 22.2-1.6-6.2-2.4-12.7-2.4-19.2 0-7.7.8-15.3 2.9-22.7-2.7 1.7-6 2.9-8.9 1-1.6-1-2.7-2.7-3.7-4.2-.9-1.4-1.8-2.9-2.5-4.5-2.9 9.6-6 19.1-9.4 28.4.2-.5 0-1.3 0-1.9 0-.5-.2-1.4 0-1.9 3.2-8.8 6.2-17.7 8.9-26.7v-2.8c.2.4.3.8.5 1.1 1-3.2 1.9-6.4 2.8-9.6.3-1.1.6-2.1.9-3.2-7.5-.3-15-.4-22.4-.1-.2.4-.4.9-.5 1.3v1.9c-.1-.3-.3-.5-.4-.8-.2.7-.4 1.4-.6 2v-3.1c-.2-.4-.4-.8-.5-1.2-3.9.2-7.9.4-11.8.7-6.3.5-12.6 1.3-18.9 2.2.1 2.3-.1 4.7-.5 6.9.2-1.2-.2-2.5 0-3.8.2-.9.2-1.8.3-2.6v-.5c-3.6.5-7.2 1.1-10.7 1.8-.4.1-.8.2-1.2.2-.3 2-.9 4-1.8 5.8 19.6.1 39 5.3 56 15.2.2.1-.2 1.1 0 1.2-5.3-3.1-10.9-5.8-16.7-7.9-12.8-4.8-26.4-7.3-40-7.3-1 1.4-2.3 2.7-4 3.1-2.2.4-3.9-1.1-5.1-2.7-4.3.3-8.5.9-12.7 1.8-.5.5-1 .8-1.5 1.2V115c-.3.1-.6.1-.9.2.1 0-.1-1.2 0-1.2.8-.2 1.6-.3 2.5-.5.4-.4.8-.8 1.1-1.3v1.1h.2c0-.1 0-.2.1-.3 2.3-2.9 5.6-4.5 9.1-5.5-.5-2.4-.5-5-.4-7.6.2-4.4 2.3-8.5 5.7-11.3-.1.1-.1.3-.1.7 2.2.5 4.5 1.1 6.3 2.6 1.9 1.6 2.5 4.2 2.6 6.6.1 2 .1 4 0 5.9l4.8-.9c2.3-.4 4.5-.8 6.8-1.1v-.1c-.3-2-.9-3.9-1.7-5.8-1.6-3.7-4.2-7.1-7.4-9.5-1.8-1.3-3.9-2.4-6.2-2.2-2.1.2-4 1.4-5.5 2.8-3.4 3.1-6.1 7.2-8.1 11.3.2-.4 0-1.4 0-1.9s-.2-1.5 0-1.9c2-4.2 4.8-8.3 8.2-11.4 1.4-1.2 3-2.3 4.8-2.6 2-.3 4 .4 5.8 1.4 3 1.9 5.5 4.8 7.3 7.8 1.8 3.1 2.9 6.6 3.2 10.2 0 .6.1 1.2.1 1.8 10-1.5 20.1-2.4 30.3-2.9-.6-1.7-1-3.4-1.2-5.2-3 1.7-6.3 2.8-9.7 3-6.1.4-11-2.4-15.7-5.9-2.5-1.9-4.9-3.9-6.6-6.5-1.6-2.4-2.6-5.2-3-8.1-.5-2.7-.4-5.5-.4-8.2 0-2.7.3-5.4.7-8 .7-3.8 1.6-7.7 3.1-11.4-4.3-3.1-9.4-4.8-14.7-5.1-10.2-.6-20 3.4-27.7 9.8C102 60.7 96 69.7 90.9 79c.1-.1 0-.6 0-.7V78c-2.6 5.9-4.9 11.9-7.2 18-.6 1.6-1.2 3.1-1.8 4.7 2.5 1.1 5 2.1 7.5 3.3 0-.3-.1-.5-.1-.8-.2-2.3-.2-4.7.1-6.9.6-3.9 3.3-9.1 8.1-7.9.1 0 .1.3.1.8 3.5 1.5 4.7 6.3 4.9 9.9.1 2.3.2 4.6-.1 6.9-.1 1.3-.5 2.6-1.1 3.7 1.4.7 2.8 1.4 4.2 2 0 0 .1 0 .1-.1v.1l.6.3c.2.1-.2 1.2 0 1.2l-.6-.3c-.8.8-1.6 1.6-2.5 2.4.7.2 1.3.5 1.9.8.2.1-.2 1.1 0 1.2.4-.4.8-.9 1-1.5v1.3c-.3.8-.9 1.5-1.7 2v-1.3c.2-.2.5-.3.7-.5-3.3-1.9-7.4-1.7-11.1-1.8-3.9-.1-7.7-.1-11.6 0-1.3 0-2.7.1-4 .2.5.9 1 1.7 1.6 2.5 1.3 1.9 2.6 3.7 3.9 5.5 2.8 3.8 5.6 7.5 8.6 11.1 5.2 6.4 10.8 12.5 16.6 18.2 5.7 5.7 11.5 11.6 19.6 13.3 16.3 3.5 31-6.8 45-13.4-.1.1 0 1.7 0 1.9s.1 1.8 0 1.9c-.6.3-1.1.5-1.7.8-2.3 3.9-4.3 8-5.9 12.2-2.8 7.5-4.5 15.5-4.8 23.5V194.9v-.2c.1-.9 0 .2 0 .3v.9c0 1.1.1 2.1.2 3.2.2 2 .4 3.9.8 5.9.3 1.8.8 3.7 1.5 5.4.4 1 .8 1.9 1.4 2.8.1.2.4.9.7.8.2 0 .2-.5.2-.9v1.1c3.9-4.6 7.7-9.2 11.6-13.8-.2.2 0 1.5 0 1.9 0 .3.2 1.6 0 1.9-5.3 6.4-10.7 12.7-16 19.1-2.7 3.1-5.3 6.3-7.9 9.4-1.3 1.5-2.6 3-3.9 4.4 6.3.5 12.6.6 19 .7v3.8c-7.5-.1-15.1-.2-22.6-1l-.2.2s0-.1.1-.2c-2.5-.2-5-.6-7.5-1-17.3-2.9-33.6-9.8-49.5-16.7-5.2-2.2-10.3-4.6-15.3-7.1-.3.1-.6.2-.8.3.1 0 .1-.3.1-.7-10.4-5.2-20.5-10.9-30.3-17.2-.1 0-.1-.2-.1-.5-.8-.7-1.9-.9-3-.8-3.8.4-5.8 3.5-7.1 6.8-.7 1.9-1.4 3.9-2.4 5.6-1 1.6-2.4 2.7-3.8 3.9-.7.6-1.4 1.3-1.9 2.1-.1.2-.2.3-.2.5.6 1.7 1.6 3.2 2.1 5 .6 2.3.3 4.7.9 6.9.5 1.9 1.7 3.5 3.2 4.8 1.6 1.3 3.4 2.4 5.1 3.5 2.2 1.3 4.4 2.7 6.5 4 4.3 2.6 8.6 5.1 13 7.7 8.6 5 17.3 10 26 14.8 17.6 9.7 35.4 19 53.4 27.9 4.5 2.2 9 4.4 13.6 6.6 2.2 1 4.4 2.1 6.8 2.4 2.4.3 4.8-.4 7.1-1 8.9-2.3 17.6-5.3 26.2-8.7 17.1-6.9 33.2-16 48-27-.2.1 0 1.6 0 1.9 0 .2.1.8.1 1.3 0 .2 0 .5-.1.5h-.1c-.9 3.3-4.6 19.9 5.9 27.6l.1-.1c-.2.1 0 1.6 0 1.9 0 .2.2 1.8 0 1.9-1.8 1.3-3 3.1-3.6 5.2-.1.2-.1.4-.1.6.2 1.1.7 2.1 1.2 3 2.7 4.4 7.7 6.2 12.3 7.9.1 0 0 1.7 0 1.9 0 .2-.1 1.8 0 1.9-5.2-1.9-11.5-4.4-13.3-10.2-.3-1-.4-2.1-.4-3.1-.1.3-.1-2.8 0-2.7v-1c-3.2 3.5-6.3 7.2-7.6 11.8-.2.7-.3 1.3-.4 2 0 .2 0 .3-.1.4.2 1.1.4 2.1 1.1 3.1 1 1.5 3.7 2.1 4.5 0-.2.5 0 1.4 0 1.9s.2 1.4 0 1.9c-.4 1-1.4 1.5-2.5 1.3.1 1 .2 2.1 0 2.1-4.3 1.1-8.7 2.2-12.9 3.7-6.7 2.4-13.2 6-17.7 11.6-2.2 2.8-3.7 6-4.5 9.4-.2.9-.4 1.9-.5 2.9-.1.6-.1 1.3-.2 2v.8c.1 1.3.1 2.7.9 3.7 1.4-2.9 3.4-5.6 5.9-7.8.5-.9 1.3-1.7 2.3-2 .2-.1.4-.1.6-.1.5-.3 1.1-.7 1.6-1 .4-.2.9-.5 1.3-.7.5-.2.6-.4.7 0 .2.8 0 1.8 0 2.6v1.1c0 .4-.2.7-.4 1-.7.7-1.8.6-2.7.7-.2 0-.5 0-.7.1-.2.1-.4.2-.6.4-.8.5-1.5 1.1-2.2 1.8-.2.2-.3.5-.4.7-1.9 3.7-2.8 8-3.1 12.1v.3c0 .6.1 1.2.1 1.9.1 1 .3 2 .5 3 .2 1.1.5 2.1.8 3.2.1.4.2 1.1.5 1.5.2.3.1 0 .2-.3s.1-.6.2-1c-.1.7 0 1.4 0 2.2.3 0 .6-.1 1-.1-.1 0 .2 3.7 0 3.8-4.1.4-8.1 2-12.1 2.9-3.9.9-7.8 1.5-11.7 2.1-7.4 1-14.9 1.3-22.4 1v.3l-.6-.3c-.4 0-.9 0-1.3-.1v-.6l-6.3-3.3c-1.2-.6-2.5-1.5-3.9-1.8-1.4-.3-2.6.4-3.8 1-4.1 2.3-7.6 5.6-10.6 9.2-3.3 3.8-6.3 7.9-9.2 12-2.8 4-5.6 7.9-6.8 12.6v.1c.1.5.3.9.5 1.3.4.9 1 1.7 1.7 2.3 1 1 2.3 1.6 3.6 1.6V422c0-.8-.2-1.8.7-2.1-.1 0 0 1.7 0 1.9v.6c.8 1 2.2 1.6 3.5 2V423c0-1-.1-2.1.2-3.1.7-2.1 1.9-4.2 3-6.1 2.4-4 5.3-7.7 8.8-10.9v1.8c0 .3.2 1.7 0 1.9-2.7 2.5-5.1 5.3-7.2 8.4-1.1 1.5-2 3.2-2.9 4.8-.5.9-1 1.9-1.4 2.9v2c.4.1.8.3 1.1.4 2.7 1 5.6 1.6 8.5 2.1 5.3.8 10.7.9 16.1 1.1 6 .2 11.9.3 17.9.3s11.9-.2 17.8-.7c4.9-.4 10.1-.9 14.2-3.8 2.5-6.8 7.9-12.5 12.9-17.5 6.8-6.8 13.5-13.7 19.3-21.4 5.8-7.7 10.8-16.1 14.2-25.1 3.7-9.8 5-20.2 4.8-30.6-.2-10.3-1-20.6-.8-30.9.2-10.1 1.7-20.2 6.3-29.2 4.3-8.5 10.7-15.7 17.5-22.3-2.7-6.7-5.2-12.8-8.1-18.7zM108.2 109.5v.2c-.7.5-1.3 1.1-2 1.6V110c.7-.6 1.3-1.1 2-1.6v1.1zM96.1 86.9c-5.1.7-8.9 5.9-9.4 10.8.1-1.2-.1-2.5 0-3.8.3-2.8 1.6-5.5 3.6-7.5 2-2.1 5.1-3.8 8.1-3.1 3.2.8 5.3 3.6 6.9 6.3.8 1.4 1.9 3 2 4.6.1 1.4.1 3 0 4.5v-.8c-.2-1.5-1-2.9-1.8-4.3-.7-1.3-1.5-2.5-2.4-3.6-1.8-2-4.3-3.5-7-3.1zm9.3 14.5c-.2-.3.2-.9 0-1.2 0 .1.1.1.1.2v-.1c.7-1 1.9-1.3 3-1.4 1.4-.1 2.8-.1 4.2 0 2.9.2 5.8 1 8.5 2.1v.3c.4-.2.8-.4 1.2-.7-.2.1.2 1.1 0 1.2-1.9 1.3-4.2 1.6-6.2 2.7-1.7 1-3.2 2.3-4.3 3.9-.3.4-.5.9-.8 1.3-.2.4-.3 1.1-.6 1.4.9 2.7 1.6 5.4 2.2 8.2.1.4-.1.8 0 1.2-.7-3.3-1.6-6.5-2.6-9.7v-.4c-.1-.2-.2-.3-.2-.5l-.9-1.8c-1.2-2-2.4-4.3-3.6-6.7zm73.7 103.3c-.7 2.8-2 5.5-3.7 7.8.1-.1 0-.5 0-.5v-3.1c1.8-2.3 3.1-5 3.7-7.8v3.1c0 .1.1.3 0 .5zm34.4-7.2c-3.5.9-6.3 3.5-7.6 6.9v-3.7c.3-.9.8-1.7 1.3-2.4-9.1 1.1-17.8 4.5-25.3 9.8.2-.1 0-1.6 0-1.9 0-.2-.2-1.8 0-1.9 8.8-6.3 19.2-9.8 30-10.2v.3c.5-.2 1.1-.4 1.6-.6-.1 0 0 1.7 0 1.9.1.1.1 1.7 0 1.8zm5.9 186.4c-4.7-.4-9.3-.8-14-1.2-.1 0 .1-3.7 0-3.8 4.7.4 9.3.8 14 1.2.1.1-.1 3.8 0 3.8zm25.1-137c-1.7 5.6-3.8 11.1-6.2 16.4v-3.7c2.1-4.7 4-9.5 5.5-14.4-.7 0-1.9.8-2.2 1-1.3.7-2.7 1.4-4 2.1-2.7 1.4-5.4 2.9-8.1 4.4v-1.8c0-.2-.1-1.8 0-1.9 2.7-1.5 5.4-3 8.1-4.4 1.3-.7 2.7-1.4 4-2.1.4-.2 2.6-1.7 2.8-.6.1.5 0 1.2 0 1.8v1.5c.1.4.2 1.2.1 1.7z"/>
  <path d="M122.4 101.9c-1.9 1.3-4.2 1.6-6.2 2.7-1.7 1-3.2 2.3-4.3 3.9-.3.4-.5.9-.8 1.3-.2.4-.3 1.1-.6 1.4.9 2.7 1.6 5.4 2.2 8.2.1.4-.1.8 0 1.2-.7-3.3-1.6-6.5-2.6-9.7v-.4c-.1-.2-.2-.3-.2-.5l-.9-1.8c-1.2-2.3-2.3-4.6-3.5-6.9-.2-.3.2-.9 0-1.2 0 .1.1.1.1.2v-.1c.7-1 1.9-1.3 3-1.4 1.4-.1 2.8-.1 4.2 0 2.9.2 5.8 1 8.5 2.1v.3c.4-.2.8-.4 1.2-.7-.3.3.1 1.3-.1 1.4zM219.4 383.9c-4.7-.4-9.3-.8-14-1.2-.1 0 .1-3.7 0-3.8 4.7.4 9.3.8 14 1.2.1.1-.1 3.8 0 3.8zM104.4 297.7v-.6.6zM87.7 384.3v-.1.1z"/>
  <circle fill="#FFF" cx="95" cy="103.5" r="3"/>
  <circle fill="#FFF" cx="133.9" cy="103.5" r="3"/>
</svg>
