<svg version="1.1" id="_Слой_2" xmlns="http://www.w3.org/2000/svg" x="0" y="0" viewBox="0 0 438.3 540.9" style="enable-background:new 0 0 438.3 540.9" xml:space="preserve">
  <style>
    .st0{fill:#1d1d1b}.st1{fill:#f08111}.st2{fill:#e4610e}.st3{fill:#0b1515}.st4{fill:#152020}
  </style>
  <path class="st0" d="M132.1 191.7zM132.1 191.6v.1-.1zM434.1 461.1c-4.5-8.6-11.9-15.7-19.3-21.8-7.5-6.1-15.7-11.3-24.4-15.4-4.3-2-8.8-3.8-13.3-5.3-5-1.6-10.2-3-15.2-4.8-9.5-3.4-17.6-9.2-25.1-15.9-2.1-1.9-4.2-3.9-6.2-6 3.1-1.4 6.3-2.9 9.3-4.4.1-.1.1-1.2 0-1.7.8-.8 1.5-1.6 2.3-2.4 3.5-4 6.9-8.6 9.1-13.5 1-2.4 1-4.8.9-7.4 0-2.2-.7-4.2-1.9-6-1.3-2-3-3.8-4.6-5.6-1.8-2-3.5-4-5-6.2-2.8-4-5-8.4-7.2-12.9.9-1.3 1.7-2.6 2.5-3.9.2-.4 0-1.5 0-1.9s.2-1.5 0-1.9c-12-17.6-23.4-35.7-34.1-54.2-6.5-11.3-12.8-22.7-18.8-34.3 1.4 1.4 2.8 2.9 4.2 4.3-.2-.2.2-1 0-1.3-1.9-1.9-3.7-3.8-5.6-5.7-3.4-6.5-6.6-13.1-9.8-19.7-4-8.2-7.8-16.5-11.5-24.8v-2.7h.1c.4-.1-.3-3.7 0-3.8h-.1c0-8.5.1-17 .3-25.5l3 1.5c10.2 5.4 20.2 11 30.1 17-.2-.1.2-1.1 0-1.3-10.8-6.5-21.8-12.7-33-18.5.1-6.5.3-13 .5-19.5l.3-.3c.3-.3.5-.7.7-1.1 5.1 2.6 10.1 5.3 15 8 11 6.1 21.8 12.6 32.6 19.2-.2-.1.2-1.1 0-1.3-15.5-9.4-31.1-18.8-47.3-27 .3-1.4.1-2.9 0-4.2-.2-2.7-2.8-5-4.6-6.8-3.8-3.9-8.2-7.1-12.9-9.8l1.5-3.6c2.1-5.1 4.3-10.3 5.3-15.8 1-4.9.9-10.2.5-15.2-.5-5.8-1.6-11.5-2.6-17.2l-3-17.7-3.9-22.5c-.1-2-.3-3.9-.5-5.9-.1-1.2-.9-6.3-2.2-10-.1-.4-.1-.8-.2-1.1v.8c-.6-1.6-1.3-2.9-2.2-3.4V.2l-.6.3c-.4 0-.7 0-1.1.3 0 0-.1.1-.1.3-13 7-19.7 21.3-30.1 31.2-1.5 1.4-3.1 2.8-4.8 4-.8.6-1.7 1.2-2.6 1.7-.2.1-.5.3-.7.4 0-.1-.1-.1-.1-.2-.3-.1-.7-.2-1-.2 0-.1 0-.1.1-.1-.1 0-.1 0-.2.1-8-1.8-16.2-1.7-24.3-1.5-7.2.2-14.6.8-21 4.1-.4-.5-.9-1.2-1-1.3-.6-.8-1.2-1.6-1.8-2.3l-3.9-5.1c-2.6-3.4-5.2-6.8-7.7-10.3-3.8-5.4-7.1-11.1-10.3-16.8-.4-1.5-1-3.3-2.3-4.1-.2-.3-.4-.6-.5-.9.1.1.1.4.1.7-.1 0-.2-.1-.3-.1 0-.3 0-.5.1-.6-2.9 3.1-4.3 7.1-5.4 11.1-1.3 4.7-2.4 9.4-3.5 14-2.1 9.6-3.8 19.2-5.1 28.9-.7 5.5-1.3 11-1.7 16.5V69c-.2 4-1.4 7.9-3.4 11.4v-1.2c0 .4-.1.9-.1 1.3v.5c-.3 0-.6-.1-.9-.1-1.5-.1-3.1-.2-4.5.6-2.1.8-2.1 4.7-2.1 6.6v2.2c0 2.8.1 5.6.5 8.4.1.4.1.9.2 1.3-5.5-1.3-11-2.5-16.5-3.6-8.6-1.7-17.2-2.9-25.9-3.4-8.7-.4-17.3.2-25.9 1.2-9.7 1.7-19.5 3.3-29.4 3.3v1.3c17.4-.2 34.5-4.6 51.9-4.2 15.6.4 30.9 3.6 46 7.1.4 1.9 1.2 3.7 2.8 4.8-.2.6-.5 1.3-.7 1.9-.4.9-.7 1.8-.9 2.8-2.7.2-5.4.5-8.1.9-12.2 1.6-24.2 4.5-36.2 6.9-6.8 1.3-13.6 2.4-20.4 3.1-.1 0 0 1.3 0 1.3 13.3-1.2 26.3-4.3 39.4-6.9 6.4-1.3 12.9-2.5 19.4-3.3 1.9-.2 3.9-.4 5.8-.6 0 .3-.1.5-.1.8 0 1.6-.1 3.4.2 5 .2 1 .5 2 .9 3-7.9 2.1-15.6 5.3-22.9 9.4-7 4-13.7 8.6-20.2 13.4-7 5.1-13.9 10.3-20.7 15.6-7.8 6-15.4 12.2-22.9 18.5-.2.2.2 1.1 0 1.3 13.3-11.2 27-21.9 41.1-32.3 13-9.6 26.6-19 42.2-23.8 1.3-.4 2.6-.8 3.9-1.1.2.4.4.9.5 1.3 2.9 6.9 7.3 13 12.1 18.7 2 2.5 4.1 4.9 6.2 7.3-1.8 1.7-3.7 3.4-5.5 5l-3.6 3.3c-1.1 1-2.7 2.1-3.5 3.4l-.3.6v-.1.2c-.3.9-.1 1.9-.1 2.7v1.5-.1c.1.9.2 1.7.5 2.7 1 3.1 1.6 6.3 1.9 9.5.6 6.6.1 13.2 0 19.8 0 3 0 6 .2 9 .1 1.4.3 2.9 1.1 4.1.8 1.1 2.2 1.9 3.4 2.6.1 0 .1.1.2.1.1 4.7.1 9.4.2 14.1-.6 15.4-1.3 30.9-2.4 46.3-1.5 20.8-3.9 41.5-7.9 62-2.2 11.5-5 22.8-8.4 34v.1L84.6 372c-.1 0-.1 3.4 0 3.8 2.6 11.4 4.1 23.2 3.7 34.9-.1 2.3-.2 4.5-.1 6.8.1 2.2 1.6 2.8 3.6 2.7 1 0 2.1-.1 3.1-.1-.4 1.6-.7 3.2-.8 4.9-3.4-1-7 .2-9 3.2-1.7 2.6-1.9 5.7-1.8 8.7v1.6c0 2 .4 3.9.8 5.8.4 1.8.8 4 1.9 5.6 1.1 1.6 3 2.5 4.8 3.1 1.9.7 3.9 1.2 6 1.5 4.8.7 9.7.4 14.5 0-.5 4-.3 8.1-.2 12 .1 1.9 0 3.8 2.3 4.1 2.5.4 5 .6 7.4.7 2.9.2 5.9.3 8.8.2 1.4 0 2.8-.1 4.1-.1.6 0 2-.4 2.8-.1 0 .5 0 1 .1 1 .3.1.4-.2.5-.6l.1.1v-.3c0-.2.1-.5.1-.8 1 2 3.7 2.5 5.8 2.8 3.6.4 7.2.6 10.8.8 7.3.5 14.6.7 21.9.3 3.7-.2 7.3-.6 10.9-1.2 3.3-.6 7-1.1 10.1-2.4.9-.4 1.5-.8 2.1-1.4 9.1-1.6 18.3.3 27.4 1.2 9.6.9 19.3 1.3 29 1.2 9.8-.1 19.5-.8 29.2-1.9 4.8-.6 9.6-1.3 14.4-2.1 3.9-.7 9-.9 11.9-3.9 1.7-1.7 2.6-4 3.6-6.1 1.2-2.5 2.4-5.1 3.6-7.6 1.1-2.3 2.2-4.5 3.2-6.8.4 1.6 1.4 3.1 2.1 4.5 2.1 4 4.4 7.9 7.4 11.3 6.6 7.5 16.8 10.1 26.4 11.3 1.5.2 3 .3 4.5.4-5.4 1.4-10.8 2.4-16.3 3.3-20 3.2-40.3 3.9-60.5 5-5.7.3-11.5.6-17.2 1-5.2.3-10.5.5-15.7.9-8.4.8-17.4 3.2-21.3 11.5-1.6 3.5-1.9 7.2-1.8 11 0 3.9.5 7.6 1.9 11.2 3.2 8.1 10.4 13.7 18.1 17.3 8.9 4.1 18.8 6 28.4 7.3 10.8 1.5 21.8 1.9 32.7 1.7 11.1-.2 22.1-.9 33.2-1.8 11-.8 21.9-1.6 32.8-3.3 18.8-3 38.3-9.7 51-24.6 5.9-6.9 9.9-15.5 11-24.6 1.1-9.1.3-18.1-3.8-25.9zm-149.7-219c9.9 18.9 20.5 37.4 31.8 55.5 6 9.6 12.2 19.1 18.5 28.5-.7 1.2-1.5 2.4-2.3 3.5-.3-.6-.6-1.2-.9-1.9.1.5-.1 1.4-.1 1.8s-.1 1-.1 1.5c-4 5.8-8.5 11.3-13.5 16.3-.2.2 0 1.6 0 1.9s.2 1.7 0 1.9c5.4-5.4 10.3-11.4 14.5-17.7 1.7 3.7 3.5 7.3 5.5 10.8 2.3 4 5.1 7.6 8.3 11 1.4 1.5 2.8 3.1 4 4.9.5.8.9 1.5 1.3 2.4.2.4.3.9.5 1.3v.2c0 .3-.1.5-.1.7-.2.6-.4 1.1-.6 1.7-.5 1.1-1.1 2.2-1.7 3.3-1.1 2-2.4 3.9-3.8 5.7-1.5 2-3.2 4-4.9 5.9-.9 1-1.9 1.9-2.9 2.9-.2.1-.9 1-1.3 1.2 0 0-.1 0-.1.1-.3 0-.6-.4-.7-.9 0-.5-.1-1 0-1.3-.3.8-.2 1.7-.2 2.6-2.5 1.2-5.1 2.3-7.6 3.5l-1.5-1.5c.2.2 0 1.6 0 1.9v.3c-23.5 10.1-48.2 17.3-73.5 21.3-8.1 1.3-16.2 2.2-24.3 2.8 0-.5-.1-1-.2-1.4-1.2-4.8-7.1-2.8-10.5-2.4-.6.1-1.2.1-1.8.1 7.6-27.1 15.3-54.3 22.3-81.6 3.7-14.4 7.2-28.8 10.2-43.3 2.8-13.3 4.6-26.9 3.9-40.6-.3-6-1.6-12.4-5.4-17.2-4.1-5.2-10.9-7.8-17.4-6.7-.2 0 .2 3.7 0 3.8 5.5-.9 11.3.7 15.4 4.5 4 3.6 6 8.8 6.9 14 .2 1.3.4 2.5.5 3.8.1.8.1 1.6.1 2.4v1.9c-.1 3.7-.3 7.4-.7 11.1-.7 7-2 13.9-3.5 20.7-5.9 27.5-13.1 54.6-20.6 81.7-4.2 15.2-8.4 30.4-12.7 45.5-18.9 1.4-37.8-2-56.6-3.9-5.5-.5-11.1-1-16.6-1.1h-1.4c1.8-5.3 3.6-10.5 5.4-15.8 2.3-6.7 4.6-13.5 6.3-20.4 3.5-14 4.4-28.6 5.8-42.9 1.4-14.7 2.6-29.4 3.7-44.1l1.5-21.3c.4-5.6.9-11.5 3.6-16.5 3.5-6.5 10.9-8.9 17.3-11.5 7.4-3 14.9-5.8 22.5-8.3.4-.1-.3-3.6 0-3.8-6.8 2.2-13.6 4.7-20.2 7.4-3.2 1.3-6.4 2.6-9.6 4-2.8 1.3-5.6 2.8-7.7 5.1-3.7 4.1-4.9 9.9-5.5 15.2-.7 6.6-.9 13.3-1.4 19.9-1.1 14.9-2.3 29.7-3.6 44.6-.7 7.3-1.4 14.5-2.1 21.8-.7 7.2-1.5 14.4-3 21.4-1.5 7-3.6 13.8-5.8 20.6 0-.9-.1-1.8 0-1.8-2.6.3-5.1.8-7.5 1.6v-.1c.2-.5 0-1.3 0-1.9s-.2-1.3 0-1.9l-.6 1.8c-.1-1.1-.3-2.1-.9-3-1.5-2.6-4.5-3.7-7.2-2.4-1.2.5-2.2 1.5-2.8 2.6.9-10.7 1.8-21.3 2.6-32 2.1-26.6 3.5-53.2 3.5-79.9 0-13.7-.4-27.4-1.1-41.1 7.9 0 15.9-.2 23.5-2.5 4.1-1.3 8-3.1 11.9-4.7 4.1-1.7 8.2-3.2 12.3-4.7 16.7-5.9 33.6-11.4 50.6-16.6 3.3-1 6.5-2 9.8-3 6.3 6.6 12.5 13.3 18.6 20 6.2 6.7 12.4 13.4 18.7 20 1.6 3.8 3.4 7.3 5.2 10.8zm-60.9 203.6c0 .4-.2 1.4 0 1.8-.2.8-.5 1.6-.7 2.5-.1.2-.1.5-.1.7-1.3 1.4-3.1 2.3-5.1 2.6-2.1.3-4.2.1-6.2-.1-2.4-.3-4.8-.5-7.2-.8-.5 0-1-.1-1.6-.1 0-.3 0-.5.1-.6-.1.2-.3.4-.4.6-9-.8-18-1.3-27.1-1.4-9.6-.1-19.2.2-28.7.9-1.4.1-2.9.2-4.4.4 0-.3 0-.5.1-.7-.1.2-.3.5-.4.7-.9.1-1.8.1-2.7.2-2.1.2-4.4.7-6.4.5-1.9-.2-3-1.5-3.4-3.3-.1-.3-.1-1.2-.1-1.3 0-1.2 0-2.5.1-3.7.1-2.5.1-4.9.1-7.4.3-.1.6-.1 1-.2.3-.1-.3-3.7 0-3.8-.3.1-.6.1-.9.2 0-2.3.1-4.6.1-6.9.1 0 .3 0 .4.1-.2 0 .2-3.7 0-3.8h-.3c.1-3.8.1-7.5.2-11.2v-1c.8-.6 1.9-1 2.9-1.1 1.9-.3 4-.2 5.9-.2 0 .5.1 1 0 1.4.1-.5.3-.9.5-1.3 4.6 0 9.2.3 13.9.6 9.4.8 18.7 2 28 3.1 9.3 1 18.6 1.8 27.9 1.6 2 0 4-.2 6.1-.3 0 .2 0 .4-.1.5 0-.2.1-.4.2-.5 2.6-.2 5.2-.5 7.8-.8 1.6-.2 3.4-.1 4.6 1.1 0 .9.1 3.4 0 3.4.4 0 .7-.1 1-.1v.6c-.5 9-1.9 18-4.3 26.7-.1-.5-.3-.9-.6-1.3 0 .1-.2 1.4-.2 1.7zM104 433.3c-.9-.5-1.3-1.4-1.4-2.4-.3-1.3-.3-2.5-.2-3.8.3-2.4 1.1-4.8 2.4-6.8v-.1c.7.1 1.4.2 2.2.3 2.6.4 5.1 1 7.5 1.8v.1c-.6 2.3-.8 4.8-.9 7.2-.1 2.1-.2 4.4 1.1 6.1-.2-.3.2-1 0-1.3-.6-.8-.9-1.6-1-2.5 0-.3-.1-.5-.1-.8v-.4c0-.5.1-1 .1-1.5.2-2.2.4-4.5 1.1-6.6v-.2c2.2.7 4.4 1.5 6.5 2.4v.2h.6c.5.2 1.1.5 1.6.7v-.6c.3 0 .7 0 1 .1 1.6.5 3.2.9 4.9 1.2-.1 2.3-.1 4.6-.1 7-2.2.5-4.4 1-6.7 1.5s-4.6 1.1-7 1.2c-4 .1-7.8-1.5-11.7-2 .1-.3.2-.7.1-.8zm10.4-219c5.5 3.2 11.5 5.7 17.6 7.5v1.2h1.4c1.5 26 1.5 52 .3 78.1-1.2 25.5-3.4 50.9-5.6 76.2-.1.6-.1 1.1-.1 1.8-1.2 14.1-2.5 28.2-3.7 42.3v.1h-.5c0-.4 0-.8-.1-1.2-1.4-6.5-3.3-12.9-5.8-19-1.3-3-2.6-6-4.2-8.9-.7-1.3-1.4-2.6-1.9-4-.3-.8-.5-1.5-.7-2.3-.1-.4-.1-.7-.2-1.1 0-.2-.1-1-.1-1.4 0-.4.1-.9.1-1.3.1-.8.1-1.6.2-2.4.1-1.8.3-3.6.4-5.5.3-3.6.5-7.3.8-10.9l1.5-21.3c.5-7.1 1-14.2 1.2-21.3.2-6.8.1-13.7 0-20.5l-.6-42.6c-.1-9.4-.3-18.8-.4-28.1.2-4.6.3-9.2.5-13.9-.1-.6-.1-1-.1-1.5zm32.4 168.8c-.1.2-.1.4-.2.5-2.5 7.3-5 14.5-7.5 21.8-1.8 0-3.6 0-5.4.1-1.9.1-4.1.6-4.9 2.5-.2.4 0 1.4 0 1.9s.2 1.4 0 1.9c.2-.5.6-.9.9-1.2-.1 4.1-.1 8.1-.2 12.2-.3 0-.6-.1-1-.2v-.8l-3.9-.3h-.1c1.1-13.1 2.3-26.2 3.5-39.4.1 1.7.8 3.3 1.6 4.8.7 1.3 1.8 2.8 3.4 2.9 1.9.2 3.3-1.6 4.2-3 .7-1.1 1.3-2.3 1.9-3.6v1.6c2.5-.8 5.1-1.4 7.7-1.7zm-14.7-191.4c-.4.7-1-.1-1.2-.5-.4-.7-.8-1.5-1.1-2.2-.1-.4-.3-.7-.4-1.1.1-.2.1-.4.2-.6.6-1.2 1.6-2.3 2.5-3.2 1.2-1.2 2.5-2.4 3.7-3.7.5.4.9.7 1.4 1v-3.6l-1.2-.9c1-.7 1.7-1.8 2.1-2.9.2-.6.3-1.2.4-1.8V171c2.1 1.8 4.3 3.4 6.9 4.5 4 1.8 8.4 2.3 12.7 2.7 4.9.5 9.7.6 14.6.6l2.4.2c-2.4 1.2-4.7 2.4-7.1 3.5-4.8 2.4-9.7 4.8-14.5 7.3-4.3 2.1-8.5 4.4-13.1 5.9l-.6-.3v-.2c0 .1 0 .1-.1.2-2.5-1.2-5.1-1.8-7.7-2.7v-.6l.1-.4zm8.3 7.7h.1-.1c5.2-1.6 9.9-4.3 14.6-6.6 5.4-2.7 10.7-5.4 16.1-8.1 10.7-5.4 21.4-10.7 32.2-16.1 3.3-1.6 6.6-3.3 9.8-4.9 9 7.9 17.5 16.4 25.8 25-9.8 3-19.5 6.1-29.2 9.2-8.4 2.7-16.8 5.5-25.1 8.4-4.1 1.4-8.3 2.9-12.4 4.5-4 1.6-8 3.4-12 4.9-8.4 3.1-17.2 3.5-26 3.5.2-.6.3-1.2.5-1.8.6-2.1 1.2-4.1 1.7-6.2l3.3-11.7c.2 0 .4 0 .7-.1zm73.6-36.2c.1 0 .2-.1.3-.1v.3c-.1 0-.2-.1-.3-.2zm63.7 65.7c-11.8-12.4-23.3-25.2-35.1-37.6 5.1-1.5 10.2-3.1 15.3-4.6 6.2 14.3 12.8 28.3 19.8 42.2zm-17.4-41.4v1.1c-.4-.8-.7-1.6-1-2.3.3-.1.6-.2 1-.3v1.5zm.3-28c-.1 4.8-.1 9.7-.2 14.5v8.2c-.8.2-1.7.5-2.5.7-.3-.8-.7-1.6-1-2.4.2.4 0 1.4 0 1.9 0 .2 0 .5-.1.8-5.7 1.7-11.3 3.4-17 5.1l-.4-.4c-8.1-8.4-16.4-16.7-25.1-24.5 1.2-.7 2.4-1.4 3.5-2.2 5.2-2.7 10.5-5.4 15.6-8.2 3.2-1.7 6.3-3.5 9.5-5.4 6 2.9 11.9 5.8 17.8 8.9 0 1.1-.1 2.1-.1 3zm-26.1-24.6c-.9 2.1-1.9 4.2-2.9 6.3-6.5-3-13.1-5.8-19.8-8.5-7.1-2.9-14.3-5.9-21.6-8.4 3.2.3 6.5.4 9.7-.1 4.2-.6 8.4-2.4 10.8-6 .7-1 1.2-2.2 1.5-3.4 1.5.4 3 .8 4.4 1.2 7.7 2.2 15.2 4.9 22.6 7.9-1.6 3.6-3.1 7.3-4.7 11zm6-10.5c6.6 2.7 13 5.7 19.4 8.9-.2.1-.4.3-.6.4-1.9 1.3-3.8 2.5-5.7 3.8-3.7 2.4-7.5 4.7-11.4 7-.6.3-1.1.6-1.7 1-.3-.1-.5-.3-.8-.4-2.2-1.1-4.5-2.1-6.7-3.1.2-.5.4-.9.6-1.4 2.5-5.4 4.7-10.8 6.9-16.2zm-8 18.5c2.3 1 4.5 2.1 6.8 3.1-4.3 2.4-8.6 4.8-12.9 7 2.5-3.1 4.4-6.5 6.1-10.1zm28.2 12.5c-5.5-2.9-11.1-5.6-16.6-8.3 1.3-.8 2.7-1.6 4-2.4 2.4-1.5 4.8-3 7.1-4.5 2-1.3 4.3-2.5 6-4.2-.2 6.5-.4 12.9-.5 19.4zm-5.8-32.3c1.6 1.4 3.2 2.9 4.6 4.4 1 1.1 2.1 2.2 2.7 3.5-.2.4-.5.7-.8 1v-1.8c0 .6 0 1.2-.1 1.9l-.4.4c-3.2-1.6-6.4-3.2-9.6-4.7-3.4-1.6-6.8-3.1-10.3-4.5 1-2.6 2.1-5.2 3.1-7.8 0 .1 0 .2.1.2 3.8 2.1 7.4 4.5 10.7 7.4zM108.1 72.9v1.6c1.5-19.6 4.8-39 9.8-58 1.2-4.3 2.5-8.7 5.5-12.2.4.1.7.2 1 .4l2.4 4.2c.3 1.2.4 2.3.6 3.2.9 4.3 1.7 8.6 2.5 12.9 1.5 8.6 2.9 17.8 2.8 26.4 0 2.7-.2 5.5-.5 8.2-.1.6-.1 1.1-.2 1.7-.1.6 0 1.4-.3 1.9-.1.1-.1.2-.2.3 0-.2-.1-.4 0-.6 0 .1-.1.2-.1.2 0-.4 0-.7-.1-.7-.7-.2-.9.3-1 .8v-.1.7c-.6 0-1.2-.4-1.6-.8-1-.9-1.9-2-2.7-3.1-1.3-1.8-2.2-3.8-2.8-6V53c0-.1-.1-.5 0-.6-.1.1-.1.3-.2.4 0-.2-.1-.4-.1-.6V53.1c-.8 1.4-1.4 3-1.6 4.6-.2 1.3-.3 2.7-.3 4v2.5c0 1 .1 2.1.4 3.1-4.3-.9-8.9.4-12 3.5v3.8c2.2-.2 4.3.8 5.6 2.6V73.9c0-.1.1-.4 0-.6-.4-.6-.9-1.1-1.5-1.6 3.3-1.4 7.2-1.5 10.6 0-.1 0 0-.4 0-.9.3.2.7.3 1 .3-.2 0 .2-3.7 0-3.8-2.4-.4-3.5-2.9-3.8-5.1V62c.1-.7.2-1.3.4-2 .3-1.3.9-2.6 1.6-3.8.6 2.5 1.6 4.8 3.1 6.9.8 1.1 1.7 2.2 2.7 3.1.4.4 1 .8 1.6.8.2 0 .3 0 .4-.1.4.1.8-.1 1-.5.2-.5.2-1.4.3-1.9l.3-2.4c.5-5.2.5-10.4.4-15.5-.2-11-2-21.9-4.1-32.8-.2-1.2-.4-2.3-.7-3.5 3.4 6 7 11.9 11.1 17.5l8.7 11.4 2.1 2.7c0 .1.1.2.2.3 0 .6.1 1.1.1 1.3 0 .3.2 2.4 0 2.5 6.7-4 14.6-4.7 22.3-4.8 7.9-.2 15.8-.2 23.6 1.4 0 .2 0 .3.1.3.1.1.3 0 .6-.2.4.1.8.2 1.3.3-.1 0-.1-.4-.1-.9.4-.3.8-.5.9-.6.9-.6 1.9-1.2 2.7-1.8 3.3-2.4 6.2-5.3 8.9-8.3 5.6-6.4 10.3-13.5 16.3-19.5 3.1-3.1 6.7-5.9 10.7-7.8 1.2.1 2.1 1.8 2.8 3.7.9 5.2 1.8 10.5 2.7 15.7V24.8c0 1.4-.1 2.8-.3 4.3-.9 9.9-3.6 19.6-6.9 29-1 2.7-2 5.3-3 8-.5 1.3-1 2.7-1.5 4-.2.6-.4 1.5-.8 2-.1.2-.1.3-.1.4 0 0 0-.1-.1-.4-.2-.3-.2-.8-.3-1.2.2.7 0 1.5 0 2.3-1.4.5-4.1-.9-4.9-1.3-2.4-1.2-4.5-2.9-6.2-4.9-1.6-2-2.7-4.5-3.1-7.1v-.1c.1-.6.2-1.2.4-1.7.4-1.3 1-2.5 1.7-3.6.2-.3 0-1.5 0-1.9v-1.3c0-.1-.1-.5 0-.6-.3.4-.5.8-.8 1.3 0-.2 0-.4.1-.5-1.1 2.3-2.2 4.7-3 7.1-.8 2.3-1.7 4.8-2 7.3-.1.7-.1 1.4-.1 2.1-.2 0-.2 2.2 0 2 0 .7 0 1.4.1 2 0 .2.1.4.2.6-1 0-2.1.2-2.9.4-2 .5-4.1 1.1-6 2.1-1.8.9-3.5 2.1-4.5 3.9-.3.4-.4.9-.5 1.3v-.2.4c-.1.8 0 1.7 0 2.6 0 .4-.1 1 .2 1.3.4.4 1.1.3 1.5.4 2.9.2 5.6 1.3 7.9 3-.1-.1 0-1.7 0-1.9V84c-1.5-1.1-3.2-2-5-2.5-.9-.3-1.8-.4-2.7-.5h-.1c.4-.4.8-.7 1.2-1 1.3-1 2.8-1.6 4.4-2.2 1.7-.6 3.4-1.2 5.1-1.4 1.7-.3 3.8 0 4.4 1.9-.1-.5 0-1.3 0-1.8.1.1.3.2.5.3-.1-.1 0-1.7 0-1.9 0-.2.2-1.8 0-1.9-1.5-.8-2.7-2.1-3.3-3.7-.1-.2-.1-.4-.2-.7.1-.7.3-1.4.5-2.2.8-2.7 1.7-5.4 2.8-8v2.5c.1 2.5.4 4.9 1.6 7.2 1.4 2.7 3.7 4.9 6.3 6.5 1.1.7 6.7 4 7.2 1.2 0-.2 0-.3.1-.5.2-.5.3-1.1.4-1.4.5-1.3 1-2.6 1.5-4 1-2.7 2.1-5.4 3-8.2 1.9-5.3 3.6-10.7 4.9-16.3 1.6-6.8 2.5-14 2.5-21.1 2.8 16.4 5.7 32.8 8.4 49.2.5 2.8.9 5.7 1 8.6 0 .1 0 1.2.1 1.7 0 .5 0 .9-.1 1.4-.1 1.4-.3 2.8-.6 4.2-1 5.1-3.1 10-5 14.8-2.4 6-4.8 12-7.3 18-8.9-3.6-18-6.8-27.3-9.2v-.4c.1-2 .2-4.1-.2-6.1-.4-2.3-1.4-4.6-2.4-6.6-1-1.9-2.5-3.3-4.5-4.2-1.9-.8-3.9-1.1-5.9-1.4-2.7-.4-5.4-.8-8-1.2-5.8-.8-11.6-2-17.5-2.5-2.6-.3-5 .1-7 1.8-1.6 1.3-2.7 3.2-2.9 5.3-.2-.2-.4-.4-.5-.6v-.6.5c-4.1-4.3-9.9-6.6-15.8-7.2-3.8-.4-7.6-.1-11.3.5-3.2.5-6.9 1-9.7 2.7-.1-.4-.2-.9-.4-1.3-.9-2.9-2.1-5.8-4.7-7.5-1.5-1-3.3-1.4-5.1-1.8-2.1-.4-4.3-.8-6.5-1.1-1.2-.2-2.5-.3-3.7-.4.7-2.1 1.3-5 1.5-8zm55.8 29c0 .1 0 0 0 0-.1 0 0 0 0 0zm-46.8 41.7c-4.6-5.3-9.1-10.7-12.7-16.7-.9-1.6-1.8-3.2-2.6-4.9 6.7-1.6 13.6-2.4 20.6-2.3l-.1.1v1.3c.5-.5 1-.9 1.6-1.3h.7v-.5c.8-.5 1.6-.9 2.4-1.3.1 0 0-.6 0-.6v-.6c-1.1.5-2.1 1.1-3.1 1.8-7.7-.2-15.2.7-22.6 2.5-.7-1.6-1.4-3.2-1.9-4.9-.1-.4-.2-.7-.3-1.1.2-.8.4-1.6.7-2.3 0-.1.1-.2.1-.3 4.1-.3 8.3-.5 12.3-.2 2.4.2 4.8.5 7.1 1.2-.1.1-.2.1-.4.2-.1 0 0 .6 0 .6V114.9c.6-.3 1.2-.6 1.8-1 .5.2.9.3 1.4.5.5.2 1.6 1.1 2.2.9.3-.1.3-.2.4-.3V113.8l-.1.1c-.1-.3-.2-.5-.4-.3-.1.1-.1.2 0 .4-.6 0-1.5-.5-2.2-.8.5-.3.9-.5 1.4-.7.1 0 0-.6 0-.6V111.3c-.9.5-1.8.9-2.7 1.4-1.1-.4-2.3-.8-3.5-1-2.7-.6-5.4-.8-8.1-.8-2.9 0-5.9.1-8.8.3.5-1.3 1-2.6 1.5-4 2.7 1.2 5.9 1.2 8.8 1.5 3.4.3 7.4 1.2 10.5-.6 2.6 1 5.2 2.2 7.7 3.7-.2-.1.2-1.1 0-1.3-2.1-1.3-4.4-2.3-6.6-3.2.8-.6 1.5-1.4 2.2-2.1 1.1-1.1 2.2-2.4 2.5-4 .2-1.4.2-2.8.1-4.2 2.7-1.4 6-1.8 8.8-2.3 3.8-.6 7.7-.9 11.5-.6 5.9.6 11.8 2.9 15.9 7.2.1 2.3.4 4.5 1.1 6.7-4.5.2-9 .7-13.5 1.4-.1 0 0 1 0 1.2-.5.4-1 .8-1.4 1.3v1.3c1.2-1.5 2.9-2.5 4.8-2.9v-.1c2.3-.3 4.6-.5 6.9-.7l-.9.9v1.3c.6-.5 1.1-1.1 1.7-1.6V109.5c.9-.1 1.9-.1 2.8-.2.4 1.3 1 2.4 1.7 3.6 1.8 3 4.5 5.3 7.5 7-6.7-1.2-13.5-1.8-20.3-2.4.5-.3 1-.7 1.5-1v-1.2c-1 .6-2 1.4-3 2.1-1.8-.1-3.5-.3-5.3-.5 0 0-.1 1.3 0 1.3 1.4.1 2.8.3 4.2.4v1c.4-.3.8-.6 1.1-.9 9 .8 18.1 1.4 26.8 3.5 10 2.4 19.5 6.4 29 10.2 7.7 3.1 15.4 6.4 22.9 9.8-1.3 2.5-2.8 4.9-4.6 7.2-2.4 3.1-5.3 5.9-8.6 8.1-2.2 1.1-4.4 2.2-6.5 3.3-7.7-6.7-15.6-13-24.1-18.8-11.4-7.8-23.6-14.6-36.2-20.2.1.1-.2 1.2 0 1.3 21.7 9.6 41.5 22.7 59.4 38.3-9.1 4.6-18.3 9.1-27.4 13.7-1.4.3-10.4.1-10.4.1-4.1 0-8.1-.1-12.2-.4-3.8-.3-7.7-.6-11.4-1.6-6.8-1.9-11.9-6.7-16.5-11.8-3.7-4.1-7.4-8.3-11.1-12.5-.1-.5-.1-1.1 0-1.2l-.6.6c-.9-1.7-2.2-3.2-3.5-4.7zm-8 19.1c1.4-1.3 2.8-2.5 4.2-3.8 2.6-2.4 5.1-4.7 7.7-7 2.6 3 5.3 5.9 7.9 8.9 2.9 3.3 5.8 6.8 9.1 9.8-.2.4-.4.8-.6 1.1-.6.9-1.4 1.6-2.4 2.1-.9.4-1.9.6-2.9.5-1.1-.6-2.2-1-3.4-1.3v3.2c0 .1-.1.5 0 .5 1 .8 2.2 1.2 3.4 1.3l1.5.9c-.9.9-1.8 1.7-2.6 2.6-.7.8-1.3 1.6-1.6 2.5-.4.9-.4 1.9-.4 2.9 0 1.3-.1 2.6.1 3.9.1.3.1.6.2.9l-1.2-.6c-3.4-1.9-6.4-4.7-9-7.6-2.7-3-5.1-6.3-7.5-9.6-2-2.8-3.8-5.7-4.8-9 .7-.9 1.6-1.6 2.3-2.2zm4.5 46.6V210.1c-1.7-1-3.5-2-4.2-4-.8-2.3-.7-5.1-.7-7.4 0-2.4.1-4.9.2-7.4.1-4.4.2-8.8 0-13.2-.1-2-.3-4.1-.6-6.1.9 1.9 2.1 3.6 3.3 5.4 2.4 3.3 4.8 6.6 7.5 9.6 2.6 2.9 5.5 5.7 9 7.6 3.4 1.9 7.2 2.5 10.8 3.9-.8 3-1.7 5.9-2.5 8.9-.6 2.1-1.2 4.1-1.7 6.2-.3 1-.6 2.1-.9 3.1-.1.3-.2 1.1-.6 1.4-.1-.5-.1-1.1 0-1.4-.2.5-.5 1-.7 1.4-4.2-1.2-8.4-2.7-12.4-4.6-2.2-1-4.3-2.2-6.4-3.4-.1 0-.1-.1-.2-.1.1-.1.1-.4.1-.7zm.1 4.6c.2.1.4.2.6.4-.1 4.1-.3 8.3-.4 12.5-.1-4.3-.2-8.6-.2-12.9zM92.2 416c-.9.1-1.9.1-2.7-.3-.4-.2-.8-.5-1-1-.1-.1-.1-.3-.1-.5.1-2.2.1-4.5.1-6.7 0-5.5-.2-11-.7-16.4-.5-5.3-1.3-10.5-2.3-15.8 3.2-.4 6.4-.9 9.5-1.3 0 .3 0 .5.1.5 3.6.4 7.1.7 10.7 1.1.9.1 1.7.2 2.6.3.5 0 .9.1 1.4.1.2 0 .6.1.8 0 .2-.2.1-.6.1-.9V373c0-.2.1-.8 0-1-.1-.1-.2-.3-.3-.1 0 .1 0 .2-.1.3-.4.1-.8-.1-1.1-.1-.6-.1-1.2-.1-1.8-.2-1.4-.1-2.7-.3-4.1-.4-2.4-.3-4.7-.5-7.1-.7 5.5-19 9.3-38.5 11.9-58.1 2.7-20.6 4.1-41.3 5.1-62.1.3-6.7.6-13.4.8-20 .3 22.5.6 45 .9 67.4.1 7.5.2 14.9-.1 22.4-.3 7.1-.8 14.2-1.3 21.3-.5 7-1 14-1.5 21.1-.5 6.7-1.2 13.5-1.2 20.3 0 3.4.1 6.6 1.5 9.8 1.5 3.3 3.3 6.4 4.8 9.8 2.6 6 4.6 12.2 6.1 18.6-.4 0-.7 0-1-.1-8-3.6-16.5-5.4-25.2-5.5 0-.4-.1-.8.1-1-.2.3-.4.6-.5 1-1.6.2-3 .2-4.4.3zm2 12.4c.1 0 .2.1.3.1-.3-.1.2-2.6.1-3.4.3-1.8.8-3.6 1.7-5.4 2.6 0 5.2.1 7.9.4-1.2 2.3-1.9 4.9-2 7.5 0 1.1 0 2.3.1 3.4.1 1 .3 2.2 1 3-.4 0-.9-.1-1.4-.1-1.8 0-3.7.2-5.3-.5-.9-.4-1.6-.9-2.1-1.7-.3-.4-.4-.9-.5-1.4 0-.1 0-.2-.1-.3.2-.5.3-1.1.3-1.6zm42.8 36.8c0 .7-.1 1.4-.1 2.1-.5-.3-1.4-.1-1.9 0-1.2.1-2.4.1-3.6.2-3.4.1-6.8 0-10.2-.2v-.3c-.7 0-1-.8-1-1.9v.2c0 .4-.1 1.2 0 1.9-1.2-.1-2.5-.2-3.7-.3-1.8-.2-4.7.1-5.2-2.1-.3-1.1-.2-2.3-.2-3.4v-1.3c0-.8.1-1.7.2-2.5.5-3.9 1.9-7.9 4.8-10.7 3.2-3.1 8.2-4.3 12.1-1.9-.1-.1 0-1.7 0-1.9 0-.2.2-1.8 0-1.9-3.5-2.1-8-1.4-11.1 1-3.3 2.6-5.1 6.6-5.7 10.7 0 .1 0 .3-.1.5 0-1.1-.1-3 0-3-6 .4-12.3.9-18.2-.7-1.3-1.8-1.3-4-1.3-6.1.1-2.6.1-5.2.2-7.8v-1.2c-.1 3.3-.2 6.5-.2 9.8 0 1.7 0 3.5.6 5.1-1.1-.3-2.2-.7-3.2-1.2-1.5-.7-2.9-1.7-3.6-3.1-.9-1.6-1.2-3.6-1.6-5.4-.2-.9-.4-1.8-.5-2.8v-.9c.2-1.5.7-3 1.5-4.3 1.9-3 5.5-4.4 8.9-3.4V431c0 1.5-.1 3.1.7 4.4 1.7 3.2 6.1 2.3 9 2.5 4.1.3 8 2.1 12.1 2 2.4-.1 4.7-.6 7-1.2l6.6-1.5c0 1.3-.1 2.6-.1 3.9-.1 2.6-.1 5.3-.1 7.9 0 1.7-.2 3.6.5 5.3.8 2.2 2.9 2.5 5 2.3 1.7-.2 3.4-.3 5.1-.5-.8 1.6-1.4 3.4-1.9 5.1-.4 1.2-.8 2.6-.8 4zm62 .4-1.5.3c-.1 0-.1.4-.1.8-.6.3-1.3.6-2 .8-2.8.8-5.7 1.4-8.6 1.9-5.4.9-10.8 1.3-16.2 1.4l.3-.6c.7-1.4 1.3-2.7 2-4.1 1.3-2.8 2.5-5.6 3.6-8.5.1-.4-.1-.9 0-1.3-1.1 2.9-2.4 5.7-3.6 8.5-.6 1.4-1.3 2.7-2 4.1-.3.7-.7 1.3-1.1 1.8-5.5.1-10.9-.2-16.4-.5 0-.1 0-.1.1-.1-.1 0-.1.1-.2.1h-.5c1.3-4.3 2.9-8.6 4.8-12.7.2-.4-.2-.9 0-1.3-2.1 4.5-3.8 9.1-5.1 13.9h-.8c-3.1-.2-6.2-.3-9.3-.7-1.2-.2-2.4-.4-3.4-1-.4-.3-.8-.6-1.2-1-.2-.3-.4-.7-.5-1 .7-3.7 2.5-7.3 4.4-10.5h.5c19.6-1.7 39.3-1.6 58.9.1-.3 2.5 0 5.2-.9 7.6-.1.7-.6 1.4-1.2 2zm127.8-15.8c-1.3-2-2.4-4.1-3.5-6.2-.4-.7-.8-1.4-1.1-2.2.7-1.5 1.5-3.1 2.2-4.6.8 1.7 1.5 3.5 2 5.3.4 1.3.6 2.6.9 3.9l.3 2.1c.1.9.1 4.1.1.6v2.2c-.4-.3-.7-.7-.9-1.1zm.3-7.7c-.4-2.4-1.1-4.8-2-7.1 0-.1.1-.2.1-.3.2-.4 0-1.4 0-1.9s-.2-1.5 0-1.9c-.3.7-.6 1.4-1 2 0-.1-.1-.2-.1-.2-2.7-5.9-7-11-12.3-14.7.1.1 0 1.7 0 1.9 0 .3-.2 1.7 0 1.9 4.7 3.2 8.5 7.5 11.2 12.4l.3.6c-.6 1.2-1.2 2.5-1.8 3.7v-.4c0-.4-.2-1.6 0-1.9-.5.7-.6 1.3-.6 2.2v1.5l-2.1 4.5c-2.1 4.4-3.9 8.9-6.3 13.1-1 1.8-2.3 3.2-4.1 4.1s-3.9 1.2-5.9 1.6c-4.8.9-9.5 1.6-14.3 2.3-19.3 2.5-38.8 3.1-58.2 1.5-5.5-.4-10.9-1.2-16.3-1.7-4.3-.4-8.6-.6-12.9 0 .5-3.1.1-6.7 1.5-9.4 1.7.2 3.4.3 5 .5 4.7.5 11.2 2.1 15-1.6 1.4-1.3 2.1-3 2.1-5 0-.7.1-1.4.1-2.1 2-7.5 3.3-15.3 3.9-23.1.2-2.2.3-4.4.3-6.6v-.2c30-2.3 59.7-9 87.8-20 3.7-1.4 7.3-3 11-4.5 2.4 2.3 4.1 5.1 5.3 8.3.6 1.6 1.1 3.4 1.4 5.1.2 1 .3 2 .4 3 .1.6.1 1.3.1 1.9 0 .4 0 1.6.1.9-.3 8-.9 16.2-2.7 24-1 4.1-2.4 8.1-4.4 11.9-.1-2.2-.2-4.2-.6-6.3zm110.2 44.6c-.9 4.3-2.5 8.5-4.6 12.4-8.7 16.1-26 25.6-43.2 30.1-10.3 2.7-20.9 4-31.5 4.9-10.7.9-21.4 1.8-32.1 2.4-21.2 1.2-42.7 1.2-63.5-3.8-8.4-2-16.9-5.1-23.5-10.8-3.1-2.6-5.7-5.8-7.4-9.4-.8-1.8-1.5-3.6-1.9-5.5-.2-.9-.4-1.8-.5-2.7 0-.4-.1-.8-.1-1.1 0 .2 0 .5-.1.8v-1.3c0-.5.1-1 .1 0 .3-3.5 1.5-7 3.7-9.8 2.5-3.3 6.2-5.4 10.1-6.6 4.2-1.3 8.7-1.6 13.1-1.9l16.5-.9c20.3-1.1 40.8-1.8 61-4.1 18.5-2.1 37.1-5.8 54-14.1 4-2 8-4.2 11.7-6.7.2-.1 0-1.6 0-1.9 0-.2-.2-1.8 0-1.9-7.6 5-15.7 8.9-24.2 11.9v-.3c-9.5 1.2-19.1.6-28.3-2-4.3-1.2-8.5-2.8-12.1-5.6-2.6-2.1-4.8-4.6-6.7-7.4 4-7.5 5.3-16 6.1-24.5.4-4.4.8-8.8.8-13.2 0-4.3 0-8.6-1.1-12.9-.3-1.1-.6-2.2-1-3.3 4.8 4.7 9.8 9.1 15.4 12.9 4.1 2.7 8.4 5 13 6.7 4.8 1.8 9.8 3.1 14.7 4.7 18 5.7 34.5 15.6 47.8 29.1 6.6 6.6 12.3 14.4 14.1 23.7.2 1 .4 2 .5 3.1.1.5.1 1 .1 1.5v1.2-.3c-.2 2.2-.5 4.4-.9 6.6z"/>
  <path class="st1" d="M327.6 451c-.3-.4-.5-.8-.8-1.3-1.3-2-2.4-4.1-3.5-6.2-.4-.7-.8-1.4-1.1-2.2.7-1.5 1.5-3.1 2.2-4.6.8 1.7 1.5 3.5 2 5.3.4 1.3.6 2.6.9 3.9l.3 2.1c.1.9.1 4.1.1.6v2c-.1.3-.1.4-.1.4zM201.2 455.9c-.3 2.5 0 5.2-.9 7.6-.3.8-.8 1.5-1.3 2.1l-1.5.3c-.1 0-.1.4-.1.8-.6.3-1.3.6-2 .8-2.8.8-5.7 1.4-8.6 1.9-5.4.9-10.8 1.3-16.2 1.4l.3-.6c.7-1.4 1.3-2.7 2-4.1 1.3-2.8 2.5-5.6 3.6-8.5.1-.4-.1-.9 0-1.3-1.1 2.9-2.4 5.7-3.6 8.5-.6 1.4-1.3 2.7-2 4.1-.3.7-.7 1.3-1.1 1.8-5.5.1-10.9-.2-16.4-.5 0-.1 0-.1.1-.1-.1 0-.1.1-.2.1h-.5c1.3-4.3 2.9-8.6 4.8-12.7.2-.4-.2-.9 0-1.3-2.1 4.5-3.8 9.1-5.1 13.9h-.8c-3.1-.2-6.2-.3-9.3-.7-1.2-.2-2.4-.4-3.4-1-.4-.3-.8-.6-1.2-1-.2-.3-.4-.7-.5-1 .7-3.7 2.5-7.3 4.4-10.5h.5c19.7-1.8 39.4-1.8 59 0z"/>
  <path class="st1" d="M438.2 480.1c-.1 2.2-.4 4.4-.9 6.6-.9 4.3-2.5 8.5-4.6 12.4-8.7 16.1-26 25.6-43.2 30.1-10.3 2.7-20.9 4-31.5 4.9-10.7.9-21.4 1.8-32.1 2.4-21.2 1.2-42.7 1.2-63.5-3.8-8.4-2-16.9-5.1-23.5-10.8-3.1-2.6-5.7-5.8-7.4-9.4-.8-1.8-1.5-3.6-1.9-5.5-.2-.9-.4-1.8-.5-2.7 0-.4-.1-.8-.1-1.1v-.5c.3-3.5 1.5-7 3.7-9.8 2.5-3.3 6.2-5.4 10.1-6.6 4.2-1.3 8.7-1.6 13.1-1.9l16.5-.9c20.3-1.1 40.8-1.8 61-4.1 18.5-2.1 37.1-5.8 54-14.1 4-2 8-4.2 11.7-6.7.2-.1 0-1.6 0-1.9 0-.2-.2-1.8 0-1.9-7.6 5-15.7 8.9-24.2 11.9v-.3c-9.5 1.2-19.1.6-28.3-2-4.3-1.2-8.5-2.8-12.1-5.6-2.6-2.1-4.8-4.6-6.7-7.4 4-7.5 5.3-16 6.1-24.5.4-4.4.8-8.8.8-13.2 0-4.3 0-8.6-1.1-12.9-.3-1.1-.6-2.2-1-3.3 4.8 4.7 9.8 9.1 15.4 12.9 4.1 2.7 8.4 5 13 6.7 4.8 1.8 9.8 3.1 14.7 4.7 18 5.7 34.5 15.6 47.8 29.1 6.6 6.6 12.3 14.4 14.1 23.7.2 1 .4 2 .5 3.1.1.5.1 1 .1 1.5-.1-.2-.2-.1 0 .9z"/>
  <path class="st1" d="M334.7 412.4c-.3 8-.9 16.2-2.7 24-1 4.1-2.4 8.1-4.4 11.9 0-2-.1-4.1-.5-6.1-.4-2.4-1.1-4.8-2-7.1 0-.1.1-.2.1-.3.2-.4 0-1.4 0-1.9s-.2-1.5 0-1.9c-.3.7-.6 1.4-1 2 0-.1-.1-.2-.1-.2-2.7-5.9-7-11-12.3-14.7.1.1 0 1.7 0 1.9 0 .3-.2 1.7 0 1.9 4.7 3.2 8.5 7.5 11.2 12.4l.3.6c-.6 1.2-1.2 2.5-1.8 3.7v-.4c0-.4-.2-1.6 0-1.9-.5.7-.6 1.3-.6 2.2v1.5l-2.1 4.5c-2.1 4.4-3.9 8.9-6.3 13.1-1 1.8-2.3 3.2-4.1 4.1s-3.9 1.2-5.9 1.6c-4.8.9-9.5 1.6-14.3 2.3-19.3 2.5-38.8 3.1-58.2 1.5-5.5-.4-10.9-1.2-16.3-1.7-4.3-.4-8.6-.6-12.9 0 .5-3.1.1-6.7 1.5-9.4 1.7.2 3.4.3 5 .5 4.7.5 11.2 2.1 15-1.6 1.4-1.3 2.1-3 2.1-5 0-.7.1-1.4.1-2.1 2-7.5 3.3-15.3 3.9-23.1.2-2.2.3-4.4.3-6.6v-.2c30-2.3 59.7-9 87.8-20 3.7-1.4 7.3-3 11-4.5 2.4 2.3 4.1 5.1 5.3 8.3.6 1.6 1.1 3.4 1.4 5.1.2 1 .3 2 .4 3 .1.6.1 1.3.1 1.9v.7z"/>
  <path class="st2" d="M102.4 431.1c.1 1 .3 2.2 1 3-.4 0-.9-.1-1.4-.1-1.8 0-3.7.2-5.3-.5-.9-.4-1.6-.9-2.1-1.7-.3-.4-.4-.9-.5-1.4 0-.1 0-.2-.1-.3.1-.6.1-1.2.2-1.8.1 0 .2.1.3.1-.3-.1.2-2.6.1-3.4.3-1.8.8-3.6 1.7-5.4 2.6 0 5.2.1 7.9.4-1.2 2.3-1.9 4.9-2 7.5 0 1.3 0 2.4.2 3.6z"/>
  <path class="st2" d="M129.5 426.4c-.1 2.3-.1 4.6-.1 7-2.2.5-4.4 1-6.7 1.5s-4.6 1.1-7 1.2c-4 .1-7.8-1.5-11.7-2 .1-.3.1-.7 0-.8-.9-.5-1.3-1.4-1.4-2.4-.3-1.3-.3-2.5-.2-3.8.3-2.4 1.1-4.8 2.4-6.8v-.1c.7.1 1.4.2 2.2.3 2.6.4 5.1 1 7.5 1.8v.1c-.6 2.3-.8 4.8-.9 7.2-.1 2.1-.2 4.4 1.1 6.1-.2-.3.2-1 0-1.3-.6-.8-.9-1.6-1-2.5 0-.3-.1-.5-.1-.8v-.4c0-.5.1-1 .1-1.5.2-2.2.4-4.5 1.1-6.6v-.2c2.2.7 4.4 1.5 6.5 2.4v.2h.6c.5.2 1.1.5 1.6.7v-.6c.3 0 .7 0 1 .1 1.7.6 3.3 1 5 1.2z"/>
  <path class="st1" d="M134.6 456.5c-2.1.2-4.2-.1-5-2.3-.6-1.6-.5-3.6-.5-5.3 0-2.6.1-5.3.1-7.9 0-1.3.1-2.6.1-3.9l-6.6 1.5c-2.3.5-4.6 1.1-7 1.2-4.2.1-8-1.8-12.1-2-3-.2-7.3.8-9-2.5-.7-1.4-.7-2.9-.7-4.4v-2.6c-3.4-.9-6.9.4-8.9 3.4-.8 1.3-1.3 2.8-1.5 4.3v.9c.1.9.3 1.9.5 2.8.4 1.8.8 3.7 1.6 5.4.8 1.5 2.1 2.4 3.6 3.1 1 .5 2.1.9 3.2 1.2-.6-1.6-.6-3.4-.6-5.1 0-3.3.1-6.5.2-9.8v1.2c-.1 2.6-.1 5.2-.2 7.8-.1 2.1 0 4.3 1.3 6.1 5.9 1.6 12.2 1.1 18.2.7v3c0-.1 0-.3.1-.5.7-4 2.4-8.1 5.7-10.7 3.1-2.4 7.6-3.1 11.1-1 .2.1 0 1.6 0 1.9 0 .2-.1 1.8 0 1.9-3.9-2.3-8.9-1.2-12.1 1.9-2.9 2.8-4.3 6.8-4.8 10.7-.1.8-.2 1.6-.2 2.5-.1.7-.1.5 0 1.3 0 1.1-.1 2.3.2 3.4.5 2.2 3.4 1.9 5.2 2.1 1.2.1 2.5.2 3.7.3-.1-.6-.1-1.4 0-1.9v-.2c0 1.1.3 2 1 1.9v.2c3.4.2 6.8.3 10.2.2 1.2 0 2.4-.1 3.6-.2.5 0 1.4-.2 1.9 0 0-.7.1-1.4.1-2.1 0-1.4.3-2.7.7-4 .5-1.8 1.2-3.5 1.9-5.1-1.6.3-3.3.4-5 .6zm-9.2-7.8c-1.8 2.9-3.2 6-4.1 9.3-.2.7-.9 3.6-1.1 6 .1-1.4.2-2.8.4-4.2.8-4.4 2.4-8.5 4.7-12.3-.1.3.3.9.1 1.2z"/>
  <path class="st3" d="M138 170.5c-.2.4-.4.8-.6 1.1-.6.9-1.4 1.6-2.4 2.1-.9.4-1.9.6-2.9.5-1.1-.6-2.2-1-3.4-1.3v3.2c0 .1-.1.5 0 .5 1 .8 2.2 1.2 3.4 1.3l1.5.9c-.9.9-1.8 1.7-2.6 2.6-.7.8-1.3 1.6-1.6 2.5-.4.9-.4 1.9-.4 2.9 0 1.3-.1 2.6.1 3.9.1.3.1.6.2.9l-1.2-.6c-3.4-1.9-6.4-4.7-9-7.6-2.7-3-5.1-6.3-7.5-9.6-2-2.8-3.8-5.7-4.8-9 .6-.8 1.5-1.4 2.3-2.1 1.4-1.3 2.8-2.5 4.2-3.8 2.6-2.4 5.1-4.7 7.7-7 2.6 3 5.3 5.9 7.9 8.9 2.9 3.2 5.8 6.7 9.1 9.7zM262.2 131.1c-.2.4-.5.7-.8 1v-1.8c0 .6 0 1.2-.1 1.9l-.4.4c-3.2-1.6-6.4-3.2-9.6-4.7-3.4-1.6-6.8-3.1-10.3-4.5 1-2.6 2.1-5.2 3.1-7.8 0 .1 0 .2.1.2 3.8 2 7.5 4.5 10.7 7.3 1.6 1.4 3.2 2.9 4.6 4.4 1 1.1 2 2.2 2.7 3.6zM239.4 146.1c-4.3 2.4-8.6 4.8-12.9 7 2.4-3.1 4.4-6.6 6.1-10.2 2.2 1 4.5 2.1 6.8 3.2zM259.9 133.2c-.2.1-.4.3-.6.4-1.9 1.3-3.8 2.5-5.7 3.8-3.7 2.4-7.5 4.7-11.4 7-.6.3-1.1.6-1.7 1-.3-.1-.5-.3-.8-.4-2.2-1-4.5-2.1-6.7-3.1.2-.5.4-.9.6-1.4 2.4-5.3 4.6-10.7 6.8-16.1 6.7 2.7 13.1 5.7 19.5 8.8z"/>
  <path class="st4" d="M138.9 198.7c-.8 3-1.7 5.9-2.5 8.9-.6 2.1-1.2 4.1-1.7 6.2-.3 1-.6 2.1-.9 3.1-.1.3-.2 1.1-.6 1.4-.1-.5-.1-1.1 0-1.4-.2.5-.5 1-.7 1.4-4.2-1.2-8.4-2.7-12.4-4.6-2.2-1-4.3-2.2-6.4-3.4-.1 0-.1-.1-.2-.1v-.8V210.2c-1.7-1-3.5-2-4.2-4-.8-2.3-.7-5.1-.7-7.4 0-2.5.1-4.9.2-7.4.1-4.4.2-8.8 0-13.2-.1-2-.3-4.1-.6-6.1.9 1.9 2.1 3.6 3.3 5.4 2.4 3.3 4.8 6.6 7.5 9.6 2.6 3 5.5 5.7 9 7.6 3.5 1.9 7.3 2.5 10.9 4zM238.9 188.7c-9.8 3-19.5 6.1-29.2 9.2-8.4 2.7-16.8 5.5-25.1 8.4-4.1 1.4-8.3 2.9-12.4 4.5-4 1.6-8 3.4-12 4.9-8.4 3.1-17.2 3.5-26 3.5.2-.6.3-1.2.5-1.8.6-2.1 1.2-4.1 1.7-6.2l3.3-11.7c.2-.1.5-.1.7-.2h.1v-.1c5.1-1.6 9.8-4.2 14.6-6.6 5.4-2.7 10.7-5.4 16.1-8.1 10.7-5.4 21.4-10.7 32.2-16.1 3.3-1.6 6.6-3.3 9.8-4.9 8.9 8.1 17.4 16.6 25.7 25.2zM261.2 136c-.2 6.5-.4 12.9-.5 19.4-5.5-2.9-11.1-5.6-16.6-8.3 1.3-.8 2.7-1.6 4-2.4 2.4-1.5 4.8-3 7.1-4.5 2-1.3 4.3-2.6 6-4.2zM260.7 156.6c0 1 0 2-.1 2.9-.1 4.8-.1 9.7-.2 14.5v8.2c-.8.2-1.7.5-2.5.7-.3-.8-.7-1.6-1-2.4.2.4 0 1.4 0 1.9 0 .2 0 .5-.1.8-5.7 1.7-11.3 3.4-17 5.1l-.4-.4c-8.1-8.4-16.4-16.7-25.1-24.5 1.2-.7 2.4-1.4 3.5-2.2 5.2-2.7 10.5-5.4 15.6-8.2 3.2-1.7 6.3-3.5 9.5-5.4 6 3 11.9 6 17.8 9zM277.7 228.9c-11.8-12.4-23.3-25.2-35.1-37.6 5.1-1.5 10.2-3.1 15.3-4.6 6.2 14.3 12.8 28.3 19.8 42.2zM228.5 417.9v.6c-.5 9-1.9 18-4.3 26.7-.1-.5-.3-.9-.6-1.3.2.3 0 1.5 0 1.9 0 .4-.2 1.4 0 1.8-.2.8-.5 1.6-.7 2.5-.1.2-.1.5-.1.7-1.3 1.4-3.1 2.3-5.1 2.6-2.1.3-4.2.1-6.2-.1-2.4-.3-4.8-.5-7.2-.8-.5 0-1-.1-1.6-.1 0-.3 0-.5.1-.6-.1.2-.3.4-.4.6-9-.8-18-1.3-27.1-1.4-9.6-.1-19.2.2-28.7.9-1.4.1-2.9.2-4.4.4 0-.3 0-.5.1-.7-.1.2-.3.5-.4.7-.9.1-1.8.1-2.7.2-2.1.2-4.4.7-6.4.5-1.9-.2-3-1.5-3.4-3.3-.1-.3-.1-1.2-.1-1.3 0-1.2 0-2.5.1-3.7.1-2.5.1-4.9.1-7.4.3-.1.6-.1 1-.2.3-.1-.3-3.7 0-3.8-.3.1-.6.1-.9.2 0-2.3.1-4.6.1-6.9.1 0 .3 0 .4.1-.2 0 .2-3.7 0-3.8h-.3c.1-3.8.1-7.5.2-11.2v-1c.8-.6 1.9-1 2.9-1.1 1.9-.3 4-.2 5.9-.2 0 .5.1 1 0 1.4.1-.5.3-.9.5-1.3 4.6 0 9.2.3 13.9.6 9.4.8 18.7 2 28 3.1 9.3 1 18.6 1.8 27.9 1.6 2 0 4-.2 6.1-.3 0 .2 0 .4-.1.5 0-.2.1-.4.2-.5 2.6-.2 5.2-.5 7.8-.8 1.6-.2 3.4-.1 4.6 1.1 0 .9.1 3.4 0 3.4.1-.3.5-.3.8-.3z"/>
  <path class="st4" d="M146.8 383.1c-.1.2-.1.4-.2.5-2.5 7.3-5 14.5-7.5 21.8-1.8 0-3.6 0-5.4.1-1.9.1-4.1.6-4.9 2.5-.2.4 0 1.4 0 1.9s.2 1.4 0 1.9c.2-.5.6-.9.9-1.2-.1 4.1-.1 8.1-.2 12.2-.3 0-.6-.1-1-.2v-.8l-3.9-.3h-.1c1.1-13.1 2.3-26.2 3.5-39.4.1 1.7.8 3.3 1.6 4.8.7 1.3 1.8 2.8 3.4 2.9 1.9.2 3.3-1.6 4.2-3 .7-1.1 1.3-2.3 1.9-3.6v1.6c2.5-.8 5.1-1.4 7.7-1.7zM123.1 421.4c-.4 0-.7 0-1-.1-8-3.6-16.5-5.4-25.2-5.5 0-.4-.1-.8.1-1-.2.3-.4.6-.5 1-1.4 0-2.8 0-4.2.1-.9.1-1.9.1-2.7-.3-.4-.2-.8-.5-1-1-.1-.1-.1-.3-.1-.5.1-2.2.1-4.5.1-6.7 0-5.5-.2-11-.7-16.4-.5-5.3-1.3-10.5-2.3-15.8 3.2-.4 6.4-.9 9.5-1.3 0 .3 0 .5.1.5 3.6.4 7.1.7 10.7 1.1.9.1 1.7.2 2.6.3.5 0 .9.1 1.4.1.2 0 .6.1.8 0 .2-.2.1-.6.1-.9v-2.1c0-.2.1-.8 0-1-.1-.1-.2-.3-.3-.1 0 .1 0 .2-.1.3-.4.1-.8-.1-1.1-.1-.6-.1-1.2-.1-1.8-.2-1.4-.1-2.7-.3-4.1-.4-2.4-.3-4.7-.5-7.1-.7 5.5-19 9.3-38.5 11.9-58.1 2.7-20.6 4.1-41.3 5.1-62.1.3-6.7.6-13.4.8-20 .3 22.5.6 45 .9 67.4.1 7.5.2 14.9-.1 22.4-.3 7.1-.8 14.2-1.3 21.3-.5 7-1 14-1.5 21.1-.5 6.7-1.2 13.5-1.2 20.3 0 3.4.1 6.6 1.5 9.8 1.5 3.3 3.3 6.4 4.8 9.8 2.4 6.2 4.4 12.4 5.9 18.8z"/>
  <path class="st4" d="M133.7 301.1c-1.2 25.5-3.4 50.9-5.6 76.2-.1.6-.1 1.1-.1 1.8-1.2 14.1-2.5 28.2-3.7 42.3v.1h-.5c0-.4 0-.8-.1-1.2-1.4-6.5-3.3-12.9-5.8-19-1.3-3-2.6-6-4.2-8.9-.7-1.3-1.4-2.6-1.9-4-.3-.8-.5-1.5-.7-2.3-.1-.4-.1-.7-.2-1.1 0-.2-.1-1-.1-1.4 0-.4.1-.9.1-1.3.1-.8.1-1.6.2-2.4.1-1.8.3-3.6.4-5.5.3-3.6.5-7.3.8-10.9l1.5-21.3c.5-7.1 1-14.2 1.2-21.3.2-6.8.1-13.7 0-20.5l-.6-42.6c-.1-9.4-.3-18.8-.4-28.1.2-4.6.3-9.2.5-13.9v-1.3c5.5 3.2 11.5 5.7 17.6 7.5v1.2h1.4c1.4 25.9 1.4 51.9.2 77.9z"/>
  <path class="st4" d="M351.9 363.9c-.1-.5-.3-.9-.5-1.3-.3-.8-.8-1.6-1.3-2.4-1.1-1.8-2.6-3.3-4-4.9-3.1-3.4-5.9-7-8.3-11-2-3.5-3.8-7.1-5.5-10.8-4.3 6.4-9.1 12.3-14.5 17.7.2-.2 0-1.6 0-1.9s-.2-1.7 0-1.9c5-5 9.5-10.5 13.5-16.3-.1-.5.1-1.1.1-1.5 0-.4.2-1.3.1-1.8.3.6.6 1.2.9 1.9.8-1.2 1.5-2.4 2.3-3.5-6.4-9.4-12.6-18.9-18.5-28.5-11.3-18.1-21.9-36.6-31.8-55.5l-5.4-10.5c-6.3-6.6-12.5-13.3-18.7-20-6.2-6.7-12.3-13.4-18.6-20-3.3 1-6.5 2-9.8 3-16.9 5.3-33.8 10.7-50.6 16.6-4.1 1.5-8.2 3-12.3 4.7-3.9 1.6-7.9 3.4-11.9 4.7-7.6 2.3-15.6 2.5-23.5 2.5.7 13.7 1.1 27.4 1.1 41.1 0 26.7-1.4 53.3-3.5 79.9-.8 10.7-1.7 21.3-2.6 32 .6-1.2 1.6-2.1 2.8-2.6 2.7-1.3 5.8-.2 7.2 2.4.5 1 .8 2 .9 3l.6-1.8c-.1.5 0 1.3 0 1.9s.1 1.3 0 1.9v.1c2.4-.8 4.9-1.4 7.5-1.6-.1 0 0 .9 0 1.8 2.3-6.8 4.4-13.6 5.8-20.6 1.5-7.1 2.3-14.2 3-21.4.7-7.3 1.4-14.5 2.1-21.8 1.4-14.9 2.6-29.7 3.6-44.6.5-6.6.7-13.3 1.4-19.9.6-5.4 1.8-11.1 5.5-15.2 2.1-2.3 4.9-3.8 7.7-5.1 3.1-1.4 6.3-2.7 9.6-4 6.7-2.7 13.4-5.1 20.2-7.4-.3.1.4 3.6 0 3.8-7.6 2.5-15.1 5.2-22.4 8.2-6.5 2.6-13.8 5-17.3 11.5-2.7 5-3.2 10.9-3.6 16.5l-1.5 21.3c-1.1 14.7-2.3 29.5-3.7 44.1-1.4 14.3-2.3 28.9-5.8 42.9-1.7 6.9-4 13.6-6.3 20.4-1.8 5.3-3.6 10.5-5.4 15.8h1.4c5.6.1 11.1.6 16.6 1.1 18.8 1.9 37.6 5.3 56.6 3.9 4.2-15.2 8.5-30.4 12.7-45.5 7.5-27.1 14.8-54.2 20.6-81.7 1.5-6.9 2.8-13.8 3.5-20.7.4-3.7.6-7.4.7-11.1v-1.9c0-.8-.1-1.6-.1-2.4-.1-1.3-.3-2.5-.5-3.8-.9-5.2-2.9-10.4-6.9-14-4.1-3.8-9.9-5.4-15.4-4.5.2 0-.2-3.7 0-3.8 6.5-1.1 13.3 1.5 17.4 6.7 3.8 4.9 5.1 11.2 5.4 17.2.8 13.6-1.1 27.3-3.9 40.6-3 14.5-6.5 28.9-10.2 43.3-7 27.3-14.7 54.4-22.3 81.6.6 0 1.2-.1 1.8-.1 3.5-.3 9.4-2.3 10.5 2.4.1.5.2.9.2 1.4 8.1-.6 16.3-1.5 24.3-2.8 25.3-4 50-11.2 73.5-21.3v-.3c0-.3.2-1.7 0-1.9l1.5 1.5c2.5-1.1 5.1-2.3 7.6-3.5 0-.9-.1-1.8.2-2.6-.1.3-.1.9 0 1.3s.4.9.7.9c0 0 .1 0 .1-.1.4-.3 1.1-1.1 1.3-1.2 1-.9 2-1.9 2.9-2.9 1.8-1.9 3.4-3.8 4.9-5.9 1.4-1.8 2.6-3.7 3.8-5.7.6-1.1 1.2-2.1 1.7-3.3.2-.5.5-1.1.6-1.7 0-.2.1-.4.1-.7.1-.3.1-.4.1-.4zM135.2 245.7c0-.7.1-1.4.4-2.1 1-2.9 4.1-5 7.2-4.3 1.4.3 2.6 1.4 3.3 2.7.3.6.5 1.3.6 2v.6c3.4.5 7.4 1.8 10.2-.8-.1 0 0 .5 0 .5v3.1c-2.8 2.5-6.7 1.2-10.1.8 0 .6 0 1.2-.1 1.8-.2 1.5-1 2.8-2.1 3.8-2.3 1.9-5.5 1.4-7.5-.6-1-1-1.6-2.3-1.8-3.7-.1-1.1-.1-2.5-.1-3.8zm15.4 114.7c-2.7.3-5.5 0-8.1-.8 0 .8 0 1.5-.1 2.2-.3 1.7-1.6 3.3-3.2 3.9-3.2 1.2-6.7-1.2-7.6-4.3-.4-1.5-.4-3.2-.3-4.8v-1c.1-1.6.6-3.3 1.5-4.6 1.7-2.5 5.8-4.3 8.2-1.6 1 1.2 1.2 2.8 1.2 4.3v.5c0 .1.1.9.1 1.6 2.7.9 5.5 1.2 8.3.9-.1 0 .2 3.7 0 3.7zm2.9-21.2c-2.7-.2-5.3-.4-8-.6 0 .2-.1.4-.1.6-.5 1.9-1.9 3.9-3.5 5.1-3 2.3-6.7 0-7.9-3.1-.7-1.7-.5-3.7-.5-5.5 0-1.7.2-3.4 1.1-4.9 1.8-3 6.3-4.4 9.1-2 1.2 1 1.9 2.6 1.9 4.1 0 .6.1 1.2.1 1.8 2.6.2 5.1.4 7.7.6.2.1 0 3.9.1 3.9zm.5-19.3c-2.3-.5-4.7-.6-7.1-.1v-.5c-.9 3.1-2.4 6.3-6 6.4-3 .1-5.2-2.8-5.8-5.5-.4-1.7-.2-3.5-.2-5.3 0-1.4.4-2.9 1.2-4.1 1.9-2.7 6.6-2.1 9-.3 1.2.9 2 2.2 2.1 3.7.1-.3.1-.7.2-1-.2.9 0 1.8.1 2.7 2.1-.3 4.3-.3 6.4.2.4.1-.2 3.7.1 3.8zm3-25.1c-2.4 1.4-5.2 1.8-7.9 1.1v.2c0 2.1.1 4.1-1.2 5.9-1.8 2.4-5.3 3.4-7.9 1.8-1.3-.8-2.3-2-2.7-3.5-.2-.8-.2-1.6-.2-2.4v-2.8c0-.3.1-.6.1-.9.5-3.2 3.8-6.3 7.1-5.9 1.4.2 2.8 1.1 3.4 2.4v-.4c.7 1 1.1 2 1.3 3.1v-1.3c2.7.7 5.6.4 8-1.1v3.8zm1-24.3-8.1.9v.4c-.1 1.8-.8 3.5-2.1 4.8-2.2 2.3-6 2.5-8.6.6-1.4-1-2.2-2.6-2.4-4.4 0-.5-.1-1-.1-1.4-.1-.5-.1-2.8 0-2.7v-.5c0-1 .1-1.9.4-2.8.5-1.8 1.7-3.4 3.5-4.2 1.6-.7 3.4-.8 5-.1 1.6.7 2.8 2.1 3.4 3.8.1.2.1.4.1.5v-.4s.1-.5 0-.5c.4.9.6 1.8.6 2.7v.5l8.1-.9c.1-.1.4 3.7.2 3.7z"/>
  <path class="st0" d="M150.6 360.4c-2.7.3-5.5 0-8.1-.8 0 .8 0 1.5-.1 2.2-.3 1.7-1.6 3.3-3.2 3.9-3.2 1.2-6.7-1.2-7.6-4.3-.4-1.5-.4-3.2-.3-4.8v-1c.1-1.6.6-3.3 1.5-4.6 1.7-2.5 5.8-4.3 8.2-1.6 1 1.2 1.2 2.8 1.2 4.3v.5c0 .1.1.9.1 1.6 2.7.9 5.5 1.2 8.3.9-.1 0 .2 3.7 0 3.7zM153.5 339.2c-2.7-.2-5.3-.4-8-.6 0 .2-.1.4-.1.6-.5 1.9-1.9 3.9-3.5 5.1-3 2.3-6.7 0-7.9-3.1-.7-1.7-.5-3.7-.5-5.5 0-1.7.2-3.4 1.1-4.9 1.8-3 6.3-4.4 9.1-2 1.2 1 1.9 2.6 1.9 4.1 0 .6.1 1.2.1 1.8 2.6.2 5.1.4 7.7.6.2.1 0 3.9.1 3.9zM154 319.9c-2.3-.5-4.7-.6-7.1-.1v-.5c-.9 3.1-2.4 6.3-6 6.4-3 .1-5.2-2.8-5.8-5.5-.4-1.7-.2-3.5-.2-5.3 0-1.4.4-2.9 1.2-4.1 1.9-2.7 6.6-2.1 9-.3 1.2.9 2 2.2 2.1 3.7.1-.3.1-.7.2-1-.2.9 0 1.8.1 2.7 2.1-.3 4.3-.3 6.4.2.4.1-.2 3.7.1 3.8zM157 292.9v-1.8c-2.4 1.4-5.3 1.8-8 1.1v1.3c-.2-1.1-.5-2.1-1.3-3.1v.4c-.6-1.3-1.9-2.3-3.4-2.4-3.3-.4-6.6 2.7-7.1 5.9-.1.3-.1.6-.1.9v2.8c0 .8 0 1.6.2 2.4.4 1.4 1.4 2.7 2.7 3.5 2.6 1.6 6.1.6 7.9-1.8 1.3-1.8 1.2-3.8 1.2-5.9v-.2c2.6.7 5.5.3 7.9-1.1v-2zm-9.1 1.4v.4-.4zM158 270.5l-8.1.9v.4c-.1 1.8-.8 3.5-2.1 4.8-2.2 2.3-6 2.5-8.6.6-1.4-1-2.2-2.6-2.4-4.4 0-.5-.1-1-.1-1.4-.1-.5-.1-2.8 0-2.7v-.5c0-1 .1-1.9.4-2.8.5-1.8 1.7-3.4 3.5-4.2 1.6-.7 3.4-.8 5-.1 1.6.7 2.8 2.1 3.4 3.8.1.2.1.4.1.5v-.4s.1-.5 0-.5c.4.9.6 1.8.6 2.7v.5l8.1-.9c.1-.1.4 3.7.2 3.7zM156.8 245.8v-1.3c0-.1-.1-.5 0-.5-2.8 2.6-6.7 1.2-10.2.8v-.6c0-.7-.2-1.4-.6-2-.7-1.3-1.9-2.3-3.3-2.7-3.1-.7-6.2 1.5-7.2 4.3-.2.7-.3 1.4-.4 2.1 0 1.3-.1 2.7 0 4 .1 1.4.7 2.7 1.8 3.7 2 2 5.3 2.5 7.5.6 1.1-1 1.9-2.3 2.1-3.8.1-.6.1-1.2.1-1.8 3.4.5 7.3 1.8 10.1-.8v-.5c.1-.6.1-1 .1-1.5zm-21.5 3.1c0-.1 0-.3.1-.4-.1.1-.1.2-.1.4zm.1-1.8c-.1-.3-.1-.5-.2-.8 0-.9.3-.9.2.8z"/>
  <path d="M175.1 179c-2.4 1.2-4.7 2.4-7.1 3.5-4.8 2.4-9.7 4.8-14.5 7.3-4.3 2.1-8.5 4.4-13.1 5.9l-.6-.3v-.2c0 .1 0 .1-.1.2-2.5-1.2-5.1-1.8-7.7-2.7v-1c-.4.7-1-.1-1.2-.5-.4-.7-.8-1.5-1.1-2.2-.1-.4-.3-.7-.4-1.1.1-.2.1-.4.2-.6.6-1.2 1.6-2.3 2.5-3.2 1.2-1.2 2.5-2.4 3.7-3.7.5.4.9.7 1.4 1v-3.6l-1.2-.9c1-.7 1.7-1.8 2.1-2.9.2-.6.3-1.2.4-1.8V171c2.1 1.8 4.3 3.4 6.9 4.5 4 1.8 8.4 2.3 12.7 2.7 4.9.5 9.7.6 14.6.6l2.5.2z" style="fill:#a79d99"/>
  <path class="st1" d="M239.2 123.8c-1.5 3.7-3.1 7.4-4.7 11.1-.9 2.1-1.9 4.2-2.9 6.3-6.5-3-13.1-5.8-19.8-8.5-7.1-2.9-14.3-5.9-21.6-8.4 3.2.3 6.5.4 9.7-.1 4.2-.6 8.4-2.4 10.8-6 .7-1 1.2-2.2 1.5-3.4 1.5.4 3 .8 4.4 1.2 7.7 2.1 15.2 4.8 22.6 7.8z"/>
  <path class="st1" d="M208.1 132.4c-9.5-3.8-19.1-7.8-29-10.2-8.8-2.1-17.8-2.8-26.8-3.5-.4.3-.8.6-1.1.9v-1c-1.4-.1-2.8-.2-4.2-.4-.1 0 0-1.2 0-1.3 1.8.2 3.5.3 5.3.5l3-2.1v1.2c-.5.3-1 .6-1.5 1 6.8.6 13.6 1.2 20.3 2.4-3-1.7-5.6-4-7.5-7-.7-1.1-1.3-2.3-1.7-3.6-.9.1-1.9.1-2.8.2V110.1c-.6.5-1.1 1.1-1.7 1.6v-1.3l.9-.9c-2.3.2-4.6.4-6.9.7v.1c-1.9.4-3.6 1.4-4.8 2.9v-1.3c.4-.5.9-.9 1.4-1.3 0-.2-.1-1.2 0-1.2 4.5-.7 9-1.2 13.5-1.4-.6-2.2-1-4.4-1.1-6.7-4.1-4.3-10-6.6-15.9-7.2-3.8-.4-7.7-.1-11.5.6-2.9.5-6.2.9-8.8 2.3.1 1.4.1 2.8-.1 4.2-.3 1.6-1.4 2.9-2.5 4-.7.7-1.4 1.5-2.2 2.1 2.3.9 4.5 2 6.6 3.2.2.1-.2 1.1 0 1.3-2.5-1.4-5.1-2.7-7.7-3.7-3.1 1.8-7.1.9-10.5.6-2.9-.2-6.1-.3-8.8-1.5-.5 1.3-1 2.6-1.5 4 2.9-.2 5.9-.3 8.8-.3 2.7 0 5.5.2 8.1.8 1.2.2 2.3.6 3.5 1 .9-.5 1.8-.9 2.7-1.4V111.9c0 .1.1.6 0 .6-.5.2-.9.5-1.4.7.7.4 1.6.8 2.2.8v-.4c.2-.3.3 0 .4.3l.1-.1v1.2c0 .1 0 .2-.4.3-.6.1-1.7-.7-2.2-.9-.4-.2-.9-.4-1.4-.5-.6.3-1.2.6-1.8 1V113.7c.1-.1.2-.1.4-.2-2.3-.7-4.7-1-7.1-1.2-4.1-.3-8.2-.1-12.3.2 0 .1-.1.2-.1.3-.3.8-.5 1.5-.7 2.3.1.4.2.7.3 1.1.5 1.7 1.2 3.3 1.9 4.9 7.3-1.8 14.9-2.7 22.6-2.5.9-.7 2-1.3 3.1-1.8v1.2c-.8.4-1.6.8-2.4 1.3v.5h-.7c-.5.4-1.1.8-1.6 1.3v-1.3l.1-.1c-6.9 0-13.8.7-20.6 2.3.8 1.7 1.7 3.3 2.6 4.9 3.6 6 8.1 11.4 12.7 16.7l3.9 4.5.6-.6c-.1.1-.1.7 0 1.2 3.7 4.2 7.3 8.4 11.1 12.5 4.6 5.1 9.6 10 16.5 11.8 3.7 1 7.6 1.3 11.4 1.6 4 .3 8.1.4 12.2.4 0 0 8.9.2 10.4-.1 9.1-4.5 18.3-9.1 27.4-13.7-17.9-15.5-37.7-28.6-59.4-38.3-.2-.1.1-1.2 0-1.3 12.7 5.6 24.8 12.4 36.2 20.3 8.4 5.8 16.4 12.1 24.1 18.8 2.2-1.1 4.4-2.2 6.5-3.3 3.2-2.3 6.1-5 8.6-8.1 1.7-2.3 3.2-4.7 4.6-7.2-8-3.3-15.6-6.6-23.3-9.7zm-77.9-34.3c.5-.4 1.1-.4 1.6.1 6.7-2.4 14.3-1.4 20.1 2.6.1 0 0 .6 0 .9v.3c0 .4 0 .9-.2 1.2-.4.6-1.4.9-2 1.2-.8.4-1.5.7-2.3 1-3.1 1.2-6 2.5-8.2 5.1-.5.6-1 1.2-1.4 1.9-.2.3-.4.7-.6 1l-.2.4s-.1-.6-.2-.7c-.4-1.7-.9-3.3-1.5-4.9-1.3-3.2-3-6.1-5.1-8.8v-1.3zm-1.7 14.6c.6-1.6 1.9-2.8 3.5-3.2v1.2c-1.6.4-2.9 1.6-3.5 3.2V112.7zm29.2 19.2v1.3c-2.9 0-5.6-1.8-8.4-2.4-2.8-.6-5.7-.7-8.6-.6-6.2 0-12.3-.3-18.4-1.6-.1 0 .1-1.2 0-1.3 6.1 1.3 12.2 1.6 18.4 1.6 2.9 0 5.9.1 8.8.7 2.7.5 5.3 2.2 8.2 2.3z"/>
  <path class="st1" d="M252.6 84.3c0 .5 0 .9-.1 1.4-.1 1.4-.3 2.8-.6 4.2-1 5.1-3.1 10-5 14.8-2.4 6-4.8 12-7.3 18-8.9-3.6-18-6.8-27.3-9.2v-.4c.1-2 .2-4.1-.2-6.1-.4-2.3-1.4-4.6-2.4-6.6-1-1.9-2.5-3.3-4.5-4.2-1.9-.8-3.9-1.1-5.9-1.4-2.7-.4-5.4-.8-8-1.2-5.8-.8-11.6-2-17.5-2.5-2.6-.3-5 .1-7 1.8-1.6 1.3-2.7 3.2-2.9 5.3-.2-.2-.4-.4-.5-.6V97v.5c-4.1-4.3-9.9-6.6-15.8-7.2-3.8-.4-7.6-.1-11.3.5-3.2.5-6.9 1-9.7 2.7-.1-.4-.2-.9-.4-1.3-.9-2.9-2.1-5.8-4.7-7.5-1.5-1-3.3-1.4-5.1-1.8-2.1-.4-4.3-.8-6.5-1.1-1.2-.2-2.5-.3-3.7-.4 1.1-2.7 1.8-5.6 2-8.6v1.6l1.3.2c2.2-.2 4.3.8 5.6 2.6V73.9c0-.1.1-.4 0-.6-.4-.6-.9-1.1-1.5-1.6 3.3-1.4 7.2-1.5 10.6 0-.1 0 0-.4 0-.9.3.2.7.3 1 .3-.2 0 .2-3.7 0-3.8-2.4-.4-3.5-2.9-3.8-5.1V62c.1-.7.2-1.3.4-2 .3-1.3.9-2.6 1.6-3.8.6 2.5 1.6 4.8 3.1 6.9.8 1.1 1.7 2.2 2.7 3.1.4.4 1 .8 1.6.8.2 0 .3 0 .4-.1.4.1.8-.1 1-.5.2-.5.2-1.4.3-1.9l.3-2.4c.5-5.2.5-10.4.4-15.5-.2-11-2-21.9-4.1-32.8-.2-1.2-.4-2.3-.7-3.5 3.4 6 7 11.9 11.1 17.5l8.7 11.4 2.1 2.7c0 .1.1.2.2.3 0 .6.1 1.1.1 1.3 0 .3.2 2.4 0 2.5 6.7-4 14.6-4.7 22.3-4.8 7.9-.2 15.8-.2 23.6 1.4 0 .2 0 .3.1.3.1.1.3 0 .6-.2.4.1.8.2 1.3.3-.1 0-.1-.4-.1-.9 0 0 18.3 5.3 19.3 9.2-1.1 2.3-2.2 4.7-3 7.1-.8 2.3-1.7 4.8-2 7.3-.1.7-.1 1.4-.1 2.1-.2 0-.2 2.2 0 2 0 .7 0 1.4.1 2 0 .2.1.4.2.6-1 0-2.1.2-2.9.4-2 .5-4.1 1.1-6 2.1-1.8.9-3.5 2.1-4.5 3.9-.3.4-.4.9-.5 1.3v-.2.4c-.1.8 0 1.7 0 2.6 0 .4-.1 1 .2 1.3.4.4 1.1.3 1.5.4 2.9.2 5.6 1.3 7.9 3-.1-.1 0-1.7 0-1.9v-1.9c-1.5-1.1-3.2-2-5-2.5-.9-.3-1.8-.4-2.7-.5h-.1c.4-.4.8-.7 1.2-1 1.3-1 2.8-1.6 4.4-2.2 1.7-.6 3.4-1.2 5.1-1.4 1.7-.3 3.8 0 4.4 1.9-.1-.5 0-1.3 0-1.8.1.1.3.2.5.3-.1-.1 0-1.7 0-1.9 0-.2.2-1.8 0-1.9-1.5-.8-2.7-2.1-3.3-3.7-.1-.2-.1-.4-.2-.7.1-.7.3-1.4.5-2.2.8-2.7 1.7-5.4 2.8-8v2.5c.1 2.5.4 4.9 1.6 7.2 1.4 2.7 3.7 4.9 6.3 6.5 1.1.7 6.7 4 7.2 1.2 0-.2 0-.3.1-.5.2-.5.3-1.1.4-1.4.5-1.3 1-2.6 1.5-4 1-2.7 2.1-5.4 3-8.2 1.9-5.3 3.6-10.7 4.9-16.3 1.6-6.8 2.5-14 2.5-21.1 2.8 16.4 5.7 32.8 8.4 49.2.5 2.8.9 5.7 1 8.6-.6.9-.5 1.9-.5 2.4z"/>
  <path class="st2" d="M132.8 51.4c0 2.7-.2 5.5-.5 8.2-.1.6-.1 1.1-.2 1.7-.1.6 0 1.4-.3 1.9-.1.1-.1.2-.2.3 0-.2-.1-.4 0-.6 0 .1-.1.2-.1.2 0-.4 0-.7-.1-.7-.7-.2-.9.3-1 .8v-.1.7c-.6 0-1.2-.4-1.6-.8-1-.9-1.9-2-2.7-3.1-1.3-1.8-2.2-3.8-2.8-6V53c0-.1-.1-.5 0-.6-.1.1-.1.3-.2.4 0-.2-.1-.4-.1-.6V53.1c-.8 1.4-1.4 3-1.6 4.6-.2 1.3-.3 2.7-.3 4v2.5c0 1 .1 2.1.4 3.1-4.3-.9-8.9.4-12 3.5v3.8l-1.3-.2c1.5-19.6 4.8-39 9.8-58 1.2-4.3 2.5-8.7 5.5-12.2.4.1.7.2 1 .4l2.4 4.2c.3 1.2.4 2.3.6 3.2.9 4.3 1.7 8.6 2.5 12.9 1.5 8.7 2.8 17.8 2.8 26.5zM243 24.6v.7c0 1.4-.1 2.8-.3 4.3-.9 9.9-3.6 19.6-6.9 29-1 2.7-2 5.3-3 8-.5 1.3-1 2.7-1.5 4-.2.6-.4 1.5-.8 2-.1.2-.1.3-.1.4 0 0 0-.1-.1-.4-.2-.3-.2-.8-.3-1.2.2.7 0 1.5 0 2.3-1.4.5-4.1-.9-4.9-1.3-2.4-1.2-4.5-2.9-6.2-4.9-1.6-2-2.7-4.5-3.1-7.1v-.1c.1-.6.2-1.2.4-1.7.4-1.3 1-2.5 1.7-3.6.2-.3 0-1.5 0-1.9v-1.3c0-.1-.1-.5 0-.6-.3.4-.5.8-.8 1.3 0-.2 0-.4.1-.5-1-3.9-19.3-9.2-19.3-9.2.4-.3.8-.5.9-.6.9-.6 1.9-1.2 2.7-1.8 3.3-2.4 6.2-5.3 8.9-8.3 5.6-6.4 10.3-13.5 16.3-19.5 3.1-3.1 6.7-5.9 10.7-7.8 1.2.1 2.1 1.8 2.8 3.7.9 5.2 1.8 10.5 2.7 15.7 0-.1.1.1.1.4z"/>
  <path class="st0" d="M229.1 502.7v.5-.1c-.1-.1-.1-.3 0-.4zM438.2 479.7v.5c-.1-1.1-.1-1.1 0-.9v.1c-.1.1 0 .2 0 .3zM125.4 448.7c-1.8 2.9-3.2 6-4.1 9.3-.2.7-.9 3.6-1.1 6 .1-1.4.2-2.8.4-4.2.8-4.4 2.4-8.5 4.7-12.3-.1.3.3.9.1 1.2zM151.9 101.7v.3c0 .4 0 .9-.2 1.2-.4.6-1.4.9-2 1.2-.8.4-1.5.7-2.3 1-3.1 1.2-6 2.5-8.2 5.1-.5.6-1 1.2-1.4 1.9-.2.3-.4.7-.6 1l-.2.4s-.1-.6-.2-.7c-.4-1.7-.9-3.3-1.5-4.9-1.3-3.2-3-6.1-5.1-8.8-.1-.1-.1-1.2 0-1.3.5-.4 1.1-.4 1.6.1 6.7-2.4 14.3-1.4 20.1 2.6.1 0 0 .5 0 .9zM132 110.8c-1.6.4-2.9 1.6-3.5 3.2v-1.3c.6-1.6 1.9-2.8 3.5-3.2v.6c0 .1.1.7 0 .7zM157.7 133.1c-2.9 0-5.6-1.8-8.4-2.4-2.8-.6-5.7-.7-8.6-.6-6.2 0-12.3-.3-18.4-1.6-.1 0 .1-1.2 0-1.3 6.1 1.3 12.2 1.6 18.4 1.6 2.9 0 5.9.1 8.8.7 2.8.6 5.4 2.4 8.2 2.4v1.2z"/>
</svg>
