<svg version="1.1" id="_Слой_2" xmlns="http://www.w3.org/2000/svg" x="0" y="0" viewBox="0 0 395.5 448.1" style="enable-background:new 0 0 395.5 448.1" xml:space="preserve">
  <style>
    .st0{fill:#1d1d1b}.st1{fill:#cb5f18}.st2{fill:#9d9d9c}.st3{fill:#878787}.st4{fill:#c6c6c6}.st5{fill:#efe7e2}.st6{fill:#e77e0c}.st7{fill:#fff}
  </style>
  <path class="st0" d="M161.3 55.7v3.2c-.9-1.2-2.5-1.7-3.9-1.6-.6.1-1.2.2-1.8.4 1.4 1.6 2.6 3.5 3.5 5.5.1.1 0 .4 0 .6V67c-1.4-3.1-3.4-5.8-6-7.9-.2.1-.4.2-.5.3V55.6c.1-.1.2-.1.4-.2v-.3l.2.2c1.3-.8 2.8-1.6 4.3-1.7 1.5-.1 3 .3 3.9 1.6 0 0-.1.4-.1.5zM104.8 101.5v1.1c-.5.2-1 .3-1.5.5v-1.3c.5-.2 1-.3 1.5-.5v.2zM128 95V96.2c-.2.3-.6.5-1 .5v-1.2c.4 0 .8-.2 1-.5zM180.5 186.2c-9.5 7.3-17.5 16.4-23.4 26.8.2-.4 0-1.4 0-1.9s-.2-1.5 0-1.9c5.9-10.4 13.9-19.5 23.4-26.8-.2.1 0 1.6 0 1.9s.2 1.7 0 1.9zM209.1 225.8v.5c-.3.2-.5.4-.7.6 0 .5.1 1 .1 1.4 0 .5.2 1.4 0 1.9-3.1 8.5-8.6 16.1-15.8 21.8.2-.1 0-1.6 0-1.9s-.2-1.7 0-1.9c7-5.5 12.3-12.8 15.5-21.1l-5.7 4.5c-1.1.9-2.3 1.8-3.4 2.6-.6.5-1.9 1.8-2.6.9-.1-.1 0-.4 0-.5v-3.1c.8.8 2.1-.6 2.7-1 1.1-.9 2.2-1.7 3.3-2.6 2.2-1.7 4.5-3.5 6.7-5.2v1.8c0 .4-.1.8-.1 1.3zM48.3 367.5c-.1.4-.8.4-.8 0-1.3-6.9-.5-14.7-.5-21.7 0-7.8-.6-15.8.3-23.6.1-.4.6-.4.7 0 1 7.7.6 15.8.6 23.6 0 7.1.9 14.8-.3 21.7zM249.7 291.5v-.2.2zM191.1 73.9v1.8V73.9zm0-3.4c0 .9-.1 2.3 0 3.3 0-.8 0-1.6.1-2.4-.1-.3-.1-.6-.1-.9zM190.7 82.2V82v.2z"/>
  <path class="st0" d="M394.2 354.2c-1.4-4.3-3.8-8.3-6.5-11.9-5.3-6.9-12.4-12.4-20.5-15.6-9.5-3.8-20-4.2-30-5.8-18.8-2.9-37.6-10.9-48.9-26.8-2.4-3.3-4.3-6.9-5.7-10.6v-.6c0-.1-.1-.5 0-.5-.1.1-.2.3-.3.4 0-.4 0-.7-.1-.8-17-19.6-34-39.4-48-61.4-7.1-11.3-13.2-23.1-18.4-35.5-5.5-13-10.4-26.4-15.5-39.6-2.5-6.4-4.9-12.7-7.3-19.1 7.8 3.2 15.6 6.4 23.3 10 7.4 3.4 14.7 7.2 21.6 11.6-.2-.1.2-1.1 0-1.3-12.4-7.9-26-13.7-39.5-19.2l-6-2.4c-2-5.3-4-10.5-6.1-15.8 2.8.8 5.7 1.5 8.5 2.3 6 1.7 12 3.5 17.9 5.3-.1 0 .1-1.2 0-1.3-9-2.7-17.9-5.4-27-7.8l-2.1-5.4c.3-.6.6-1.3.9-1.9 12.6 1.3 25.2 3.1 37.7 5.3 8.5 1.5 16.9 3.2 25.3 5.1-.1 0 .1-1.2 0-1.3-20.6-4.7-41.4-8.2-62.4-10.4.7-1.5 1.4-3.1 2-4.7 1.6-4 2.9-8.1 3.5-12.4.1-.4 1-3.5 1-3.5 0-11-.4-20.5-1-31.5-.3-5.5-.7-10.9-1.2-16.4-.5-5.2-.9-10.4-2.2-15.4-1.1-3.9-2.9-7.5-4.9-11-.5-1.2-1.1-2.3-2-3.3-.1-.2-.2-.3-.3-.5 0-.3-.1-.6-.1-.6-.1-.1-.2-.1-.2 0v-.1.1c0 .1-.1.2-.1.4-.4.3-.9.7-1.1.8-.6.5-1.2 1.1-1.8 1.6-1.2 1.1-2.2 2.3-3.3 3.6-2 2.4-3.7 5-5.4 7.7-3.4 5.4-6.4 11.1-10.1 16.3-1.2 1.6-3.9 6.1-6.6 5.9 0-.1 0-.2-.1-.3-14.8-5-31.6-8.2-46.3-1.2v-.1.1c-.1 0-.1.1-.2.1-5.4-4.7-10.8-9.5-16.2-14.2-2.6-2.3-5.3-4.7-7.9-7-2.2-1.9-4.5-3.7-7.1-5.1 0-.3 0-.5-.1-.6-.5-.7-1.4-.6-1.9 0-.6.7-.5 1.9-.5 2.8 0 2.6 0 5.2.1 7.8.1 5.5.1 11.1.2 16.6.1 10.8.1 21.5.3 32.3.1 2 .1 4.1.2 6.1-.4.9-.6 2-.7 3-.1 1.2.1 2.5 0 3.8.1-.9.3-1.8.6-2.6v2.1c0 .1.1.4 0 .6.1-.3.4-.5.6-.7 0 .4.1.8.1 1.2-.8 5.2-2 10.4-3.5 15.4-.4 1.2-.9 2.3-1.3 3.6-11.3 2.9-22.2 7.1-32.6 12.3-6.6 3.3-12.9 7.1-19 11.2-.2.1.2 1.1 0 1.3 15.6-10.6 33-18.5 51.3-23.4-.1.6-.2 1.1-.3 1.7v-.1.4c0 1.2-.1 2.4 0 3.6.1 1.1 1 1.9 1.8 2.8.3.3.5.6.7.8-6.1 2.7-12.2 5.5-18.3 8.5-5.5 2.7-10.9 5.4-16.3 8.1-.2.1.2 1.2 0 1.3 11.7-5.9 23.4-11.8 35.4-17 1.8 2 3.6 4 5.4 5.9-10.7 6.2-20.9 12.7-30.6 19.8-6.1 4.4-12 9-17.7 13.9-.2.2.2 1.1 0 1.3 15.2-12.8 31.6-24.1 48.9-33.8 5 5.4 10.1 10.7 15.3 15.8 4.1 4.1 8.3 8 12.6 11.9 0 .5 0 1 .1 1.1 1.3.9 1.4 2.8 1.6 4.2.1.9.3 1.9.4 2.8 0 .4.1.8.1 1.2-.1.4 0 1-.1 1.4-.1.4-.1.8-.2 1.3-.2.8-.4 1.6-.7 2.4-.6 1.7-1.5 3.2-2.6 4.6-1.1 1.4-2.4 2.6-3.6 3.9-1.1 1.1-2.3 2.3-3.7 3.1-2.3 1.4-5.9 1.5-7.3-1.2.2.4 0 1.4 0 1.9s-.2 1.4 0 1.9l.1.1v.4c1.4 2.5 3.8 4.1 6.2 5.4 1.3.7 2.7 1.4 4.2 1.6 1.2.1 2.5 0 3.7-.2-3.3 10.8-4.4 22-4.3 33.3.1 5.9.6 11.8 1.8 17.6.2 1.2.5 2.4.8 3.6-10.5 13.6-18.7 29-24.1 45.3 0 .1 0 .1-.1.2-6.1 3-12.3 5.8-18.7 8.2 0 0-.1.3-.1.5-2.4-4.7-4.8-9.5-7.2-14.2 1.9-4.8 3.5-9.8 4.6-14.8v.5c0 .3.1.6.6.5.3-.1.4-.3.4-.5v-1c0-.5.1-1.1 0-1.6 0-.4 0-.4 0 0v-.1c-.1-.8-.6-1.5-1-2.2-.9-1.8-1.9-3.6-2.9-5.4-2-3.6-4.1-7.2-6.4-10.6-2-3.2-4.1-6.6-6.8-9.2-2.8-2.7-6.8-4.4-10.6-2.9l-.3-.6c.1.1.1.5 0 .8v.5c0 .3-.1 1 0 1.3.1.1.1.2.1.3 0 .2 0 .4-.1.4.1 0 .2-.1.2-.1 2.1 3.9 3.7 8.1 4.8 12.4-.9 2.5-1.9 5-3.3 7.3l-4.2 3c-1.4 1-2.8 2.1-4.5 2.4v-.8.4c-3.1-4.9-6.3-9.9-9.4-14.8.1.2 0 1 0 1.3v.1c-.1-.6-.3-1.3 0-1.4-2.9 2.1-4.2 5.5-4.5 9-.3 3-.2 6.1.4 9 .3 2 .9 3.9 1.5 5.8v.4l.1-.1c.6 1.8 1.4 3.5 2.2 5.3-1.7 1.6-3.4 3.2-5.2 4.8-.4.3-.8.6-.8 1.1-.1.8-.1 1.6 0 2.4.1.5.4.8.7 1.2.5.5 1 1.1 1.5 1.6.4.5.9 1 1.3 1.5.1.2.2.3.4.3.1 0 .3-.2.4-.3l.9-.6c1.1-.7 2.3-1.4 3.4-2 .6-.3 1.1-.6 1.7-.8.3-.1.7-.3.9-.5l.9 1.2c-1 .4-1.9.9-2.8 1.6v2.6c.6 1.1 1.4 2.4 2.6 2.8 1 .4 2.3.1 2.7-.9v-2.6c-.5 1-1.8 1.2-2.7.9-.6-.2-1-.6-1.4-1.1.9-.5 1.8-.9 2.7-1.2v-.5c2.1 2.9 5 7.3 8.9 7.1 1.2-.1 1.9 1.7 2.4 2.5.7 1.2 1.5 2.3 2.2 3.5-1.2 1.3-2.2 2.8-2.8 4.5-.9 2.4-.8 4.9-.7 7.3 0 2.2.4 4.4 1.5 6.4.6 1 1.3 2 2.1 2.8l.3.3c-6-.1-12.1-.3-18.1-.5-.2-7-.4-14-.6-21.1 0-1-.9-1.5-1.7-1.4-3.6-.9-7.4-1-11.1-.2-.1 0-.1.6 0 1.3H.8l.6 24.1c-.7.1-1.3.5-1.3 1.4.1 17.7.2 35.5.3 53.2 0 1.7 2.3 1.9 2.9.6 7.1 0 14.3 0 21.4-.1 12 0 24-.1 36.1-.1h8.1v2.4c-.2-.1-.3-.3-.5-.5v3.1c0 .1-.1.5 0 .5 4 4.3 10.4 2.9 15.3 1.5v-.1c1.1.3 2.3.2 3.4 0 1.3-.1 2.6-.3 3.9-.4 1.8-.2 3.6-.4 5.3-.6-1.4 1.8-2.8 3.5-4.1 5.3-.1.1-.1.4-.1.6-.1-.2-.2-.3-.2-.5v1.8c0 .6-.2 1.4 0 1.9.8 2.4 3.2 3.5 5.5 3.8 2.8.4 5.6-.3 8.4-.2v.1-.1c.4 0 .8.1 1.2.1 2.2 1.5 4.7 2.4 7.3 2.5 4 .1 8-1.6 11.7-2.7 3.9-1.2 7.7-2.3 11.6-3.5 2.1-.6 4.3-1.4 5.9-2.8v.4c10.4.6 20.7 1.1 31 1.7 5.1.3 10.1.6 15.2.8 3.4.2 6.8.2 10.1-.6-2.1 3.7-3.7 7.7-4.7 12.1-1 4.8-1.1 9.8-1 14.7 0 4.8.3 9.7 1 14.5.7 4.6 2.1 9.4 5.3 13 2.8 3.1 6.8 5.4 11 5.1 4.6-.3 8.1-3.7 11.5-6.5 3.6-3 7.5-5.8 11.5-8.3 8.1-5.1 16.8-9.2 25.8-12.6 19-7.2 39-11.2 58.8-15.2 10.5-2.2 21.1-4.4 31.5-7.1 5.2-1.4 10.4-2.9 15.5-4.6 4.5-1.5 9.1-3.3 13.3-5.6 7.9-4.5 15-11.8 16.1-21.2.3-4.4.1-8.9-1.2-12.9zM190.7 124.3l-15-6c1.8-3.5 3.6-6.9 5.4-10.4 1.2.3 2.4.6 3.7.9 1.9 5.2 3.9 10.4 5.9 15.5zm-6.5-16.8c-.9-.2-1.7-.4-2.6-.6.4-.9.9-1.7 1.3-2.6.4 1 .8 2.1 1.3 3.2zm6.7-27.2s0 .1 0 0c0 .1 0 0 0 0zM70.8 108.7c-.7-.8-1.4-1.6-2.2-2.5-.5-.5-.9-1-1.3-1.6.4-1.1.8-2.3 1.2-3.4v-.1c6.7-1.7 13.5-3 20.4-3.9 3-.4 6.1-.7 9.1-.9.6 1.1 1.4 1.9 2.5 2.5.2.1.5.3.7.4-1.8.5-3.6 1.1-5.4 1.6-5.1 1.6-10.2 3.3-15.2 5.3-3 1.2-6 2.4-9 3.7-.2-.4-.5-.8-.8-1.1zm28 93.1c.8-6.2 2.2-12.4 4.2-18.3.2-.5.1-1 0-1.6.1 0 .3 0 .4-.1.3 0-.2-3.7 0-3.8-1.6.3-3.1.6-4.7.5-1.6-.2-3-.9-4.3-1.6-.2-.1-.4-.3-.7-.4 1.1-.3 2.1-.9 2.9-1.5 3.1-2.5 6.4-5.7 8.1-9.3 1.7-3.6 1.6-7.5 1.6-11.4 0-1.8-.2-3.7-.4-5.5 0-.3-.1-.6-.1-.9 7.9 3.4 16.6 4.7 25.1 3.8 8.2-.9 15.8-4 22.7-8.5-2.2 7.4-4.6 14.8-5.5 22.5-.9 7.2-.7 14.6.2 21.8.5 4.7 1.4 9.4 2.3 14.1-1.6 5.6-2.5 11.5-3.1 17.3-4.3 18.9-7.9 38-10.8 57.1l-2.4 16.5c0 .3-.1.6-.1.9 0 .2-.1.4-.1.7v-2.5c-1.8 0-3-1.4-3.9-2.9-1.1-1.8-1.9-3.8-2.6-5.8-.6-2-1.1-4-1.3-6.1 0-.2.1-.4.1-.6.3-.3.5-.6.8-.9.1-.1.1-.6.1-1.1.2-.3.4-.4.5-.1-.2-.4 0-1.4 0-1.9.1-.2.3-.4.4-.6.2-.4 0-1.5 0-1.9v-1.3c0-.1-.1-.5 0-.5-1.9 3.2-5.8 4.6-9.4 4-2.3-.4-4.3-1.4-6.1-2.8.2 0 .5-.1.7-.2 1.1-.4 1.9-1.3 2.5-2.2.6-1 .7-2.1.7-3.1.4.3.9.6 1.3 1-.1-.1 0-1.7 0-1.9 0-.3.2-1.7 0-1.9-4.1-2.8-7.6-6.3-10.4-10.4-3-4.5-5-9.5-6.3-14.7-2.9-11.3-3.8-22.7-2.4-33.9zM109 342.5c-.1-.3-.1-.6-.2-1v-.1c-.1-.5-.2-1.1-.2-1.6 0-.1 0-.3.1-.4.1-.5.2-1.1.3-1.6.4-2 1.2-3.9 2.3-5.7 2-3.2 5.1-5.7 8.6-7.2.1 0 .1-.3.1-.6 1.1-.1 2.2-.1 3.3 0-.1 0 .1-3.7 0-3.8-2.5-.2-5 .1-7.4.8 1.2-1.8 2.5-3.4 4.1-4.8 3.1-2.7 7-3.3 11-3.6-2.1 13.2-3.8 26.5-5.2 39.9-.1-.1-.2-.2-.4-.3-.6-.1-1.3.2-1.9.3l-2.4.3c-1.5.2-3.1.3-4.6.3-4.3.2-8.6.3-12.9.3v-2.3c-.1-1.8-.2-3.7-.3-5.5 1.9-.3 3.7-.5 5.6-.8 0 .1 0 .3.1.4.1.2.2.4.2.6V344.2c-.2-.4-.1-1.1-.2-1.7zm10.9-29.7c-2.9 2.5-4.9 6-6.8 9.3 0 .1-.1.2-.1.3-.2.1-.3.1-.5.2v3.6c.1-.1.2-.1.4-.2-1.3 1.5-2.3 3.1-3.1 4.9-.9 2.3-1.3 4.8-1.4 7.3v3.1c-1.8.3-3.7.5-5.5.8-.2-4.7-.4-9.3-.6-14 .7 0 1.4-.5 1.3-1.4-.2-7-.5-13.9-.7-20.9 8.9-8.9 15.1-20.1 23.3-29.6 0 2.4.1 4.7.6 7.1.6 2.6 1.4 5.1 2.6 7.4.9 1.8 2.2 4.1 4.5 4.3-.9 4.7-1.7 9.3-2.5 14-4.1.4-8.2 1-11.5 3.8zm-43.1-27.3c.1 0 .1-.8.1-1.3 5.5-16.1 13.7-31.3 24.2-44.7.1-.1.1-.3.1-.6 1 3.9 2.4 7.8 4.3 11.4 2.6 4.9 6.2 9.1 10.5 12.5-.1.2-.3.4-.4.6-.7.8-1.6 1.5-2.6 1.8-2 .5-4.3-.4-5.5-2.1v3.1c0 .1-.1.5 0 .5.4.6 1 1.1 1.6 1.5v.5c2.4 3.2 5.7 6.1 9.8 6.8 1.9.3 3.8 0 5.5-.7-7.4 9.1-13.3 19.3-21.6 27.6 0-.8-.1-1.6-.1-2.4 0-1.2-1.2-1.7-2.1-1.4-2.3-.7-4.7-1-7.2-1.3-2.4-.2-4.9-.6-7.1.5 0 0-.1.1-.1.3-.7 0-1.4.5-1.4 1.5.1 5.6.3 11.2.4 16.8-4.9 0-9.7.1-14.6.2-3.9-7.7-7.9-15.4-11.8-23.1 6.3-2.4 12.2-5.1 18-8zm-21.9-25.7v.1-.1zm-.2-.5c.1.1.1.2.2.3-.1.2-.1.5-.2.7 0-.5-.2-1-.2-1.4 0 .2.1.3.2.4zm-47.6-5.2c-.1-.1 0-.3 0-.5v.5zm2 8.8c-.6-1.7-1.1-3.5-1.4-5.3-.2-.8-.3-1.7-.4-2.5-.1-.5-.1-1-.1-1.5v-.2c0-.2.1-.3.1-.4.3-3.5 1.6-6.9 4.5-9v.1c2.7 4.2 5.3 8.4 8 12.5-3.6 2-7.1 4.2-10.6 6.5-.1 0-.1-.1-.1-.2zm6.1 15c-.3.2-.7.3-1 .5-1.2.6-2.3 1.2-3.5 1.9-.3.2-.5.3-.8.5-.2.1-.6.5-.8.5-.1.1-.2.1-.2-.1-.1-.1-.1-.1-.1-.2l-.3-.3c-.2-.3-.5-.5-.7-.8-.4-.5-.9-1-1.3-1.5l-.3-.3c.2-.2.4-.3.6-.5.6-.6 1.3-1.1 1.9-1.7l3.6-3.3c.9 1.8 1.9 3.5 3 5.1-.1.1-.1.1-.1.2zm1.4-.6c0-.4 0-.8-.2-1.1-.2-.3-.5-.4-.8-.3-.6-1-1.3-1.9-1.9-2.9-.5-.8-1-1.7-1.4-2.5v-.5c-.1 0-.1.1-.2.1-.9-1.6-1.6-3.3-2.3-4.9 3.3-2.1 6.6-4.1 9.9-6v.5c.4-.2.6-.5.6-.9.1-.3.1-.6 0-.9.1.2.2.3.3.5v1c1.9-.2 3.4-1.4 4.9-2.5l4.2-3c.3-.2.6-.5.9-.7.1-.1 0-.8 0-1.1 1.1-2.1 2-4.3 2.7-6.6v-1.1c0-.5.1-.9 0-1.4-.9-4.1-2.3-8-4.1-11.8 6.7-1.7 11.7 5.5 14.9 10.4 2.1 3.3 4.2 6.6 6.2 10 1 1.7 1.9 3.4 2.9 5.1l.9 1.8c-5.7 4.2-11.3 8.5-17.2 12.4-5.7 3.7-11.7 7-17.9 9.8-.7-1.1-1.6-2.2-2.4-3.4zm13.3 12.4c-.4-.6-.9-1.9-1.7-2.4v-.3c-3.3.7-5.8-2-7.7-4.4 5.7-2.7 11.2-5.7 16.5-9.1 6-3.9 11.7-8.3 17.4-12.5-1.2 4.9-2.7 9.8-4.7 14.5 0 0 0-.1-.1-.1v.1c-.1.1-.1.3-.2.4-.1.3 0 .9 0 1.3s.1.9 0 1.3c.1-.1.1-.3.2-.5 2.6 5.2 5.3 10.3 7.9 15.5v.5c.1 0 .2-.1.3-.1 3.9 7.6 7.7 15.1 11.6 22.7-3.2 0-6.3.1-9.5.1.4-1.5.4-3.1.2-4.7 0 .1.1.1.1.2v-2.6 1.4c-.1-.1-.1-.1-.1-.2v-.2c-.1.3 0 .6 0 .9v.2l-.3-1.8c.1.3 0 .7 0 1-.1-.5-.2-1-.4-1.5-.3-.7-.8-1.4-1.3-1.9.7-.2 1.4-.4 1.9-.9.1-.1.2-.2.3-.4v.1c.1 0 .1-.1.1-.2v1.7-2c.1-.2.1-.4.1-.5v-1.2.1c-.1-1.3-1.2-2-2.3-2.6-1.4-.7-2.9-1.3-4.5-1.5-.1-2.2-.1-4.3-.1-6.5 0-1.2-1.1-1.6-2-1.4-.9-1-2.3-1-3.5-1-1.4 0-2.9-.1-4.3-.1-.6 0-1.2.1-1.8.3-.8-.8-2.6-.5-2.6 1v1.8c-.6-.3-1.3-.5-2-.6-1.5-.2-3 .1-4.3.9-.2-.3-.4-.7-.6-1-1-1.3-1.8-2.5-2.6-3.8zm23.8 12.6c1 .3 2.1.7 2.4 1.6-.4 1-1.4 1.5-2.4 1.7 0-.1.1-.3.1-.4-.1-.9-.1-1.9-.1-2.9zm2.5 2.3c.1-.7.1-1.5-.3-2.1-.1-.2-.3-.4-.6-.6.6.2 1.3.5 1.9.7 1.1.5 2.5 1.1 3 2.2-.7 1.4-3 1.5-4.4 1.7-.5.1-.9.1-1.4.2 1-.4 1.8-1 1.8-2.1zm-9.2 9.8c0 .2.1.3.1.5 0 .1 0 .4.1.5 0 .1 0 .1.1-.1v.3c.4 1.5 1.2 2.9 2.2 4.1l.9.9c-1.6.1-3.2.1-4.7 0h-.2c.5-.7.9-1.4 1.1-2.3.4-1.3.4-2.6.4-3.9zm2.3-4c-.4.6-.7 1.3-1.1 2-.2.3-.3.6-.5.9-.1.2-.2.4-.3.5-.1.1-.1.2-.1.3-.1.1-.1.2-.1.1-.1-.1-.1-.3-.1-.5s-.1-.3-.1-.5c-.1-.3-.1-.6-.2-.9l-.6-1.8c-.3-.8-.8-1.6-1.2-2.4 1.9.1 3.7.2 5.6.1-.1.1-.1.2-.2.3-.4.7-.8 1.3-1.1 1.9zm-1.9-4.5c-1.8-.1-3.5-.3-5.3-.6.1-.2.1-.4.1-.6v-10.9c.2-.1.5-.1.7-.1 1.1-.1 2.2 0 3.3 0 1.2 0 2.4 0 3.6.2.3 0 .5.1.7.2.1 3.7.2 7.4.2 11.1 0 .3.1.5.2.7-1.1.1-2.3.1-3.5 0zm-10.4-.3c-.7-.2-1.6-.3-2.2-.8.4-.7 1.2-1.2 2.1-1.5.1.2.3.4.4.6v-.7c.3-.1.6-.2.9-.2v.1-.1 1.3-.1c.1.7.4 1.2 1.1 1.6.5.3 1.1.5 1.7.7h-.3c-1.3-.4-2.5-.6-3.7-.9zm1.1 1.5c-1.6.1-3.1 1.3-3.6 2.8.1-1.3.2-2.7.2-4 .4.7 1.6.9 2.5 1.1.3 0 .6 0 .9.1zm-.2-7.3v-2.3c.2 0 .3.1.5.1.3.1.6.2.8.4v3.4c-.6.1-1.3.2-1.9.5 0-.2 0-.5-.1-.6-.1-.1-.2-.3-.2-.4.3-.2.5-.4.8-.6.1 0 .1-.6.1-.5zm1.3 3.1v1.5c-.4-.2-.7-.5-.9-.9.2-.3.6-.5.9-.6zm-2.4-5.6c-.5.3-.9.7-1.3 1l-.6-.9c.5-.1 1-.2 1.6-.2 0 .1.1.1.3.1zm-6 14c-1.1-1.6-1.9-3.4-2.2-5.3 0-.3.1-.5.1-.8.2-.9.5-1.8.9-2.6.8-1.7 2.1-3.2 3.6-4.4l.1-.1c.1 0 .2-.1.3-.1.3.4.6.9.8 1.3-1 .9-1.9 1.9-2.6 3-.1.1 0 .5 0 .5v2.6c0 .1.1.5 0 .5 1.2-1.6 2.6-3.1 4.2-4.4.1.2.3.5.4.7-.2.1-.5.3-.7.4-.7.5-1 1-1.1 1.6v-.1 1.3-.1c0 .1.1.2.1.3-.1 1.5-.2 3-.3 4.4v1.2c0-.1.1-.2.1-.2v.1h-.1v.2c0 .1-.1.8 0 1v.1-.1 1.4c0-.5 0-.9.1-1.4l.1.1c.1.2.1.4.2.6.1.4.3.9.5 1.3.4.8 1 1.6 1.6 2.3l.1.1h-1.3c-.2-.2-.4-.4-.5-.6 0-.6.1-1.2 0-1.8 0-.1-.1-.2-.2-.1v.1h-.4c0-.2 0-.4-.1-.7v.6c-.6-.2-1.3-.8-1.7-1.1-.7-.3-1.4-1-2-1.8zm15.4 61.6c-12 0-24 .1-36.1.1H3.3c-.1-17.5-.2-35-.3-52.6 0-.9-.7-1.4-1.4-1.4L1 296.2c3.2-.7 6.5-.7 9.7-.1.2 8 .4 16.1.6 24.1 0 1.9 3 1.9 3 0v-.8c7.5.2 15.1.4 22.6.6.4 0 .8-.1 1-.4.7.4 1.4.7 2.1.9l.6.6v-.4c1.2.4 2.4.7 3.6.8v.1c.1 0 .1-.1.2-.2 1.6.2 3.2.3 4.8.2 2.7-.1 6.6-.4 8.9-2.2.2 0 .3.1.5.1 4.1 0 8.3-.1 12.4-.1l.1.1v-.1c5.3-.1 10.6-.1 15.8-.2.3 0 .6-.1.8-.2.4-.2.7-.6.7-1.3-.2-6-.3-12-.5-18 1.8-.4 3.7-.1 5.5 0 2.1.2 4.2.5 6.3 1 .3 8.7.6 17.3.9 26 0 .9.8 1.4 1.5 1.5v1c.2 4.3.4 8.7.6 13h-.2c-.1 0 0 1.7 0 1.9v1.9h.4l.3 6.9v.9c-1.8 0-3.6 0-5.4.1v.7c-1.6-2-3.2-3.9-4.8-5.9-.8-.9-1.5-2.1-2.4-2.9-.9-.8-1.9-.2-2.8.3-3.6 2-6.3 5.4-8.7 8.7-2.9 3.9-6 7.8-8.4 12.1-1 1.9-1.8 3.9-2 6H46.2zM91 377c-1.3.1-2.6.3-3.9.4-1.2.1-2.4.3-3.6-.1v.2c-.2 0-.3.1-.5.1.7-3.2 2.1-6.3 4.2-8.8.1 0 0-.5 0-.5v-2.6c0-.1-.1-.5 0-.5-2.7 3.3-4.3 7.5-4.6 11.8v.9c-4.5 1.2-9.7 2-13.5-1.1 0-.5.1-1 0-1.5.1-.3.1-.6.2-1 .3-1 .7-1.9 1.1-2.9 1-1.9 2.2-3.7 3.4-5.4 2.4-3.4 4.7-6.8 7.3-10 1.1-1.4 2.3-2.7 3.6-3.9 1.2-1.1 2.9-2.5 4.6-3 1.1-.3 1.6.6 2.2 1.4.7.9 1.4 1.8 2.2 2.6 1.4 1.8 2.9 3.5 4.3 5.3-.1-.1-.1-.5-.1-.8 4.8-.1 9.7-.1 14.5-.2 2.4-.1 4.9-.1 7.3-.4 1.1-.1 2.3-.2 3.4-.4.5-.1 1.6-.5 2.2-.3v.4c-.3 3.1-.6 6.2-.8 9.3-.1 1.3 0 2.8-.4 4.1-.2.5-.7.9-1.1.9-.1 0-.1 0-.2-.1-.1 0-.1-.1-.2-.2 0-.4 0-.7.1-.8-.1.1-.2.2-.2.3v.1c-.1.1-.1.3-.1.4-2.8-1.1-5.7-2.2-8.5-3.3-1.5-.6-3.1-1.4-4.7-1.4-1.7 0-2.6 1.1-3.5 2.3-2.3 2.9-4.5 5.8-6.7 8.6v-.8c-2.8.3-5.4.6-8 .9zm98.9 8.6c-5.1-.2-10.3-.6-15.4-.8-9.8-.5-19.7-1.1-29.5-1.6 4.4-10.1 8.7-20.2 13.1-30.2v.5c4-1 8.2-1.5 12.4-1.3v.3-.3h.9v-1.4c.8.3 1.7.1 2.5-.1 1.6-.4 3.1-1.1 4.6-1.6l8.4-3-3.6 3.3c-.1.1 0 .5 0 .6V350.6c1.9-1.6 3.7-3.3 5.4-5.1v-1.3l-.1.1v-.2c-3.4 1.2-6.7 2.4-10.1 3.6-1.5.5-3 1.2-4.6 1.6-.8.2-1.7.3-2.5.1v-1.1h-.4c1.1-7.5 3.4-14.8 6.9-21.6 3.6-7.2 9.3-15.8 18.4-15.3v-2.1c1.5 1.1 2.7 2.5 3.3 4.3v-1.8c0-.5.2-1.4 0-1.9-1-2.8-3.4-4.7-6-5.8-1.6-.6-3.2-1-4.9-1.3h-.3c4.6-3.3 10.4-4.6 16-5.6 4-.7 8.2-1.6 12.3-1.1 4.3.6 7.8 3.2 11 5.8-.1 0-.1-.3-.1-.6.8.4 1.6.6 2.6.7 0 0 .1-3.7 0-3.8-2-.1-3.7-1-5-2.5-1.4-1.5-1.9-3.3-2.3-5.3 0-.5.1-1 .2-1.4.2-1 .4-1.9.7-2.9.5-1.7 1.2-3.4 2.1-5 2.3-4.3 5.8-8 10-10.5-.9 2.4-.8 5-.8 7.6.1 7.1 5.1 12.9 10.1 17.4 1.1 1 3.1 2 4.2.4.1-.2.2-.5.2-.7v-3.5c-.3 1.5-2 1.8-3.2 1.1-1.4-.7-2.5-2.2-3.6-3.3-2.5-2.6-5-5.4-6.5-8.8-.4-.8-.7-1.7-.9-2.6-.1-.4-.2-.8-.2-1.2.3-1.3.5-2.5 1.1-3.8.9-1.9 2.3-3.5 3.9-4.8.8-.3 1.5-.6 2.3-.8.1 0 .1-.3.1-.6 0 0 .1-.1.2-.1s0-1.7 0-1.9-.1-1.8 0-1.9c-.9.4-1.8.9-2.6 1.5-5.3 2.1-9.9 5.8-13.1 10.6-3.7 5.5-5.2 12.4-4.3 19 0 .2.1.4.1.6-2-1.2-4-2.1-6.4-2.4-2.5-.3-5-.1-7.6.3-4.4-3.3-8-7.4-10.8-12.1-1.6-2.8-3-5.7-4.4-8.6-1.1-2.4-2.3-4.8-3-7.3.7-4.6 1.1-9.3 1.4-14v-3.6c-.3 5.4-.8 10.8-1.7 16.2 0-.1 0-.3-.1-.4.1.3 0 .6 0 1-.6 3.4-1.3 6.8-2.1 10.2-2.2 8.9-5.4 17.5-9 26-7.3 17.4-14.9 34.6-22.4 51.9-4.2 9.8-8.5 19.6-12.7 29.4-.1.2-.1.5-.1.9-1.6 1.9-4.1 2.8-6.5 3.6-3.9 1.2-7.8 2.4-11.8 3.5-3.7 1.1-7.6 2.8-11.5 2.7-2.6 0-5.1-.9-7.3-2.3 0-.1 0-.2-.1-.2h-.2c-.1-.1-.3-.2-.4-.3.6-2.9 1.5-5.7 2.6-8.4.1-.1 0-.5 0-.5v-2.6c0-.1-.1-.4 0-.5-1.5 3.8-2.6 7.7-3.2 11.7-.2-.2-.5-.4-.7-.6.1.1.1.7 0 1.2-2.6 0-5.2.6-7.8.2-1.4-.2-2.9-.7-4-1.7 4.1-5.2 8.2-10.5 12.3-15.7.9-1.2 1.9-2.3 3.5-2.3s3.2.9 4.7 1.4c3 1.1 6 2.3 8.9 3.5.1.1.2.1.3.1.3.1.5.2.8.3v-.7c.2-.4.3-1 .4-1.4.2-1.6.3-3.3.4-4.9.3-3.8.7-7.6 1.1-11.4l.1-.1v-.1c.1-.4.1-1 0-1.3.2-1.6.3-3.3.5-4.9 1.3-11.9 2.9-23.7 4.9-35.5l.3-1.8h.4c.1 0 0-1.3 0-2.4.9-5.3 1.8-10.6 2.9-15.9.1-.5.1-1 0-1.6 2.5-18.3 5.6-36.5 9.3-54.6 1-5 2.1-9.9 3.2-14.9v1.8c.1-1 .1-1.9.2-2.9 0-.1 0-.2.1-.3.1-.4.1-.7.1-1.1 1.1-11.6 3.9-23.5 11.5-32.6-2.3 7-2.9 14.4-2.4 21.9 0-.9.1-2.3 0-3.4 0-.4 0-.9-.1-1.3v-.4c0-1 .1-1.9.2-2.9.2-1.8.5-3.5.8-5.2.8-3.5 1.9-6.8 3.4-10 .1-.2.1-.6.1-1l1.1-1.1c.2-.2 0-1.6 0-1.9s-.2-1.7 0-1.9c-5.8 5.4-9.3 12.2-11.5 19.5-2.1-10.5-3.8-21.3-2.8-32 .8-9 3.7-17.6 6.2-26.2l.9-.6c4.2-2.9 8-6.2 11.8-9.5.2-.2 0-1.6 0-1.9s-.2-1.7 0-1.9c-6.6 5.9-13.7 11.6-21.9 15.2-7.9 3.4-16.7 4.6-25.3 3.6-4.9-.6-9.6-1.9-14.1-3.9.1 0 0 1.3 0 1.7-.1-.2-.1-.5-.2-.7.1-.5.1-1.4 0-1.5-6.9-6.3-13.7-12.7-20.2-19.4-2.2-2.3-4.4-4.5-6.5-6.8 5-2.8 10.1-5.4 15.3-7.9.3-.2.7-.3 1-.5.6.4 1.3.6 2 .8 2.2.7 4.6 1 6.9 1.1 4.8.3 9.6-.5 14.1-2.3.1-.1-.1-1.2 0-1.3-4.5 1.7-9.3 2.5-14.1 2.3-2.3-.1-4.6-.4-6.8-1.1-.3-.1-.5-.2-.8-.3 4.8-2.3 9.7-4.4 14.6-6.4v.4c.5-.3 1-.5 1.5-.8V100.9l2.1-.9c.1-.1-.1-1.2 0-1.3-6.6 2.6-13.1 5.5-19.6 8.5-1-.6-1.8-1.3-2.2-2.4.1.4-.2.9 0 1.3.3.7.7 1.2 1.2 1.6-5.4 2.6-10.8 5.4-16.1 8.3-.8-.8-1.5-1.6-2.3-2.4-1-1.1-2-2.2-2.9-3.3 7.1-3 14.2-5.7 21.6-8 5.8-1.8 12-4.1 18.1-3.6v-1.3c-1-.1-1.9-.1-2.9 0 .4-.2.7-.5 1-.8v-1h.6v-1.3h-2.7c.8-1.6 1.2-3.2 1.2-5V89c0-.1.1-.2.1-.4.1.4.2.8.3 1.1-.2-.5 0-1.4 0-1.9 0-.6.1-1.3 0-1.9-1.8-5.7-2.5-13.9-9-16.4-6.6-2.5-11.6 4.9-13.1 10.3-.3 1.2.3 2.6 0 3.8 1.1-4 4.2-9.1 8.4-10.4-.7 1.5-1 3.2-1.1 4.9.1 3.9.1 7.6.8 11 .4 1.8.9 4.1 1.8 6-9.6.7-19.2 2.3-28.5 4.6.4-1.4.8-2.8 1.2-4.3 1-3.9 1.8-7.7 2.3-11.7.1-.4.1-.8 0-1.2.1.9.3 1.7.4 2.6-.2-1.2.2-2.5 0-3.8l-.3-1.8c.2-.1.4-.1.5-.1.9-.1 1.6.3 2.4.6.8.4 1.8 1 2.7.7.4-.1.5-.3.5-.6v.1-3c0-.2.1-.5 0-.7 0-.1-.1-.1-.1-.2v.4c-.3.4-1.3.2-1.7.1-.8-.2-1.5-.7-2.3-1-.7-.3-1.6-.4-2.3-.1.4-.7.9-1.4 1.5-2 1.6-1.6 4.4-3.2 6.6-1.8v-1.2c.3.1.7.1 1.1-.1.2-.1 0-1.7 0-1.9s-.2-1.8 0-1.9c-1.6.9-2.8-2-3.2-3.1-.3-.8-.6-1.6-.7-2.5-.1-.4-.1-.7-.2-1.1.4-3.1 1.6-6.1 3.7-8.4 0 2.7.1 5.5.8 8.2.7 2.9 2.8 8.1 6.7 6.2V66c.1-.4 0-1.6 0-1.8 0-.2-.1-1.8 0-1.9-3.4 1.6-5.4-2.1-6.3-4.7-.6-1.9-1-4-1.1-6.1v-.1c.2-.2 0-1.6 0-1.9v-1.3c0-.1-.1-.5 0-.6-.1.1-.1.1-.1.2v-1.2 1.2c-2.8 3.1-3.8 7-3.9 11.1-.1-.1-.1 2.3 0 2.3 0 1.6.1 3.3.6 4.9.1.3.2.8.4 1.3-1.7.1-3.3 1.2-4.4 2.4-.9.9-1.6 1.9-2.1 3-.6-7.1-.5-14.3-.6-21.4-.1-9.8-.2-19.6-.3-29.5 0-2.8-.1-5.6-.1-8.4v-2c0-1 .3 0 .1.7 0-.1.1-.3.1-.4.2-.4.6-.7.9-.8 0 .2 0 .3.1.4.2.1.4.2.7.3 8.4 11 13.8 24.1 15.6 37.9.3 2.1.5 4.2.6 6.4 0 .5.1 1 .1 1.4v1.2c0 1-.1 2.1-.2 3.1-.1 1.1.1 2.7 0 3.6 1.1-16-1.5-32.1-9.1-46.4-.8-1.5-1.7-3-2.6-4.4l3 2.4c2.7 2.3 5.4 4.7 8.1 7.1 5.3 4.7 10.6 9.3 15.9 13.9 0 .2 0 .4-.1.4.1-.1.3-.1.4-.2l.4.4v-.6c14.3-6.7 30.4-3.8 44.9.9 0 .1 0 .2.1.2 2.7 2 5.7-2.6 7.1-4.4 1.9-2.5 3.6-5.2 5.2-7.9 3.3-5.4 6.3-11.1 10.2-16.1 1.1-1.4 2.3-2.8 3.5-4.1.6-.6 1.2-1.2 1.9-1.8.3-.3 1.2-.8 1.7-1.3.3.3.5.6.7.8.6 1 1.2 1.9 1.8 2.9.9 2.1 1.4 4.4 1.7 6.6.7 4.9 1.1 9.8 1.2 14.7.3 9.1-1.5 18.6-5.6 26.8-1 2-2.2 3.9-3.5 5.7-.7.9-1.4 1.8-2.2 2.7-.4.4-.7.8-1.1 1.2l-.2.2v-1.4l-.3-.9c.1.3.1.6.1.9-.1 0-.1 0-.2-.1v-.4c-.1.1-.1.2-.1.3-1.6-.5-2.2-2.3-2.6-3.8-.3-1.3-.6-2.5-.9-3.8-.1-.7-.3-1.4-.4-2.1 0-.2-.1-.3-.1-.5 1.1-3.8 4.4-5.9 6.8-8.9.2-.3 0-1.5 0-1.9s-.2-1.6 0-1.9c-.2.3-.5.5-.7.8v-.6c-3.6 1.6-6.4 4.4-9 7.3-1.3 1.4-2.7 2.9-3.3 4.8-.3 1-.2 2-.2 3 0 1.1-.1 2.4.3 3.5v-2.9c.3-.8.7-1.5 1.1-2.1 1-1.4 2.1-2.6 3.3-3.8l1.8-1.8v.1c-.4 1.3-.4 2.6-.4 3.9V54c.1 2.5.5 5 1.1 7.5.4 1.8.9 4.6 2.7 5.6 0 1 0 2.3.2 2.3.3.1 2.3-2.4 2.5-2.7.9-1 1.7-2.1 2.4-3.2 2.9-4.3 4.9-9.1 6.3-14.1 2.9-10.8 2.5-22.5 1.5-33.6-.2-1.8-.3-3.6-.5-5.5.9 1.6 1.6 3.3 2.3 5 1.7 4.5 2.3 9.3 2.8 14.1 1.1 10.5 1.8 21 2.2 31.5.1 3.2.1 6.4 0 9.6 0 .8 0 1.6-.1 2.4v1.9c0 .8-.1 1.6-.3 2.4-.3 1.8-.6 3.6-1.1 5.4-1 3.7-2.4 7.3-3.9 10.8-.7 1.6-1.5 3.3-2.3 4.9-9.1-.9-18.2-1.6-27.3-2.1-2-.1-4.1-.2-6.1-.3.3-.4.6-.9.9-1.4.9-1.9 1.6-3.9 1.7-6 0-.7.1-1.5.1-2.3.2 1.2.3 2.4.3 3.5 0 .6 0 .6 0 0V87c0-3.6-.6-7-1.8-10.4-1-2.7-2.6-5.5-5-7.2-2.6-1.8-6-2-8.9-.6-2.8 1.4-4.7 4.1-5.3 7.2-.3 1.2.2 2.6 0 3.8.6-2.8 2.2-5.4 4.7-6.9 1.2-.7 2.5-1.1 3.8-1.2-.5 2.1-.6 4.3-.7 6.4v3.2c0 2.2.3 4.4.8 6.5.4 2 .9 4.1 1.8 6 .3.6.7 1.2 1.1 1.7-2.7-.1-5.5-.1-8.2-.1.1-.1.3-.3.4-.5v-1.2c-.4.5-.9 1-1.3 1.5v.2h-4v1.3c.2.6.7.8 1.3.6.1 0 0-.3 0-.6 4.5 0 8.9.1 13.4.2.4.2.9.4 1.4.5.8.1 1.5 0 2.1-.3 11.4.4 22.8 1.2 34.2 2.4v.1c-1 2-2 3.9-3 5.9-10.3-2.6-20.8-4.7-31.3-6-6.2-.8-12.4-1.2-18.6-1.4v1.3c16.7.4 33.1 3.3 49.3 7.2-1.4 2.7-2.8 5.4-4.2 8.2-.2.4 0 1.4 0 1.9v.6c-6.7-2.6-13.4-5.3-20.1-7.8-.5-.2-1-.4-1.5-.5v-.4c-.2.1-.4.1-.6.2-7-2.7-14.1-5.3-21.2-7.9v-.3l-.2.2-.9-.3c.1 0-.1 1 0 1.2v1.3l.9-.9 19.5 7.2c-5.2 1.2-10.6 1.8-16 1.6-3.1-.1-6.2-.4-9.2-1-2.2-.4-4.9-1-5.7-3.3.1.4-.1.9 0 1.3.8 2.3 3.4 2.9 5.5 3.3 3.1.6 6.3.9 9.5 1 6.1.2 12.1-.5 18-2.1 7.1 2.7 14.2 5.5 21.3 8.3.3.1.6.2.9.4 5.4 2.1 10.8 4.2 16.1 6.4 2.4 6.1 4.7 12.3 7.1 18.4 5.1 13.3 10.1 26.6 15.4 39.8 5 12.5 10.8 24.6 17.8 36.2 6.7 11.1 14.3 21.6 22.3 31.8 8.2 10.4 16.8 20.5 25.5 30.5h-.1c-1.6-.6-3.3-.9-5-1-1.6-.1-3.3 0-5 .3-.8.1-1.6.4-2.3.6-.5.2-.7.2-1-.2-.2-.3-.4-.6-.4-1 .2 1.2-.2 2.5 0 3.8 0 .3.1.6.3.9.1.1.2.3.3.4.3.2.3.1.6 0 .8-.3 1.5-.5 2.3-.6 1.7-.3 3.4-.5 5.1-.3 1.7.1 3.3.5 4.9 1 .4.1 1 .4 1.5.5v.1c4.5 7.3 9 14.7 13.6 22 2 3.3 4.6 6.7 5.4 10.6.4 1.8.6 3.6.7 5.5-.1-.1-.1-.3-.2-.4-1.3-2.3-2.8-4.4-4.5-6.4-3.4-4.1-7.5-7.5-12-10.2.1.1 0 1.7 0 1.9 0 .2-.2 1.8 0 1.9 3.8 2.3 7.3 5.1 10.4 8.3.3.3.6.7.9 1 0 .5-.2 1.5 0 1.8 3.5 3.5 5.8 8.2 6.4 13.1v.5c0 .6-.1 1.1-.2 1.7-.2 1.3-.6 2.5-1.1 3.7-.9 2-2.5 3.6-4.6 4.1-1.4.2-2.7.3-4 .5-10.4 1.3-20.7 3.4-30.8 6-9.8 2.6-19.6 5.7-28.8 9.9-10.9 4.9-21.5 12-28.7 21.7-4 2.2-8.5 2.2-12.9 2zm-5.7-82.2v2.6c0 .1.1.5 0 .5.5-.6 1.2-.5 1.8-.4.8.1 1.6.2 2.5.4 1.7.3 3.4.6 5 1.3h.1c-7.6 1.1-12.5 8.7-15.8 15.1-4 7.9-6.5 16.5-7.4 25.4-3.6-.1-7.3.2-10.8 1 2.4-5.6 4.9-11.3 7.3-16.9 3.8-8.7 7.6-17.4 11.3-26.2 3.6-8.5 7-17 9.4-26 1.3-4.9 2.4-9.9 3.1-15 .7 2.7 2 5.2 3.1 7.8 1.4 2.9 2.8 5.9 4.4 8.6 2.5 4.3 5.7 8 9.5 11.1-1.1.2-2.3.4-3.4.6-7 1.3-14.5 3.1-19.4 8.6-.1.1-.1.2-.1.4-.2.1-.5.2-.6.4v.7zM105.9 98.1c.7-.6 1.2-1.4 1.7-2.2h2.4c-.5.4-1 .8-1.6 1V97.8c-.8.1-1.6.2-2.5.3zm194.7 231.6v-.4l.3.9c0 .5.1 1 0 1.5 0-.7-.1-1.4-.3-2zm94 36.5c-1.2 4.3-3.6 8.2-6.6 11.4-6.5 6.8-15.6 10.3-24.3 13.1-10 3.3-20.2 5.8-30.5 8-19.7 4.3-39.7 7.6-59.1 13.5-17.8 5.4-35.2 12.9-49.8 24.5-3.4 2.7-6.8 6.4-11.2 7.4-4 1-8.1-.7-11.2-3.3-7.4-6.3-7.6-17.5-7.9-26.5v-1.6c0-.7.1-1.4.1-2.1.1-1.4.3-2.8.5-4.2.4-2.1.9-4.2 1.6-6.2 1.4-4.1 3.4-7.9 5.9-11.5.2-.3.5-.6.7-1h.1v-.2c5-6.8 11.6-12.2 18.9-16.5 8.3-4.9 17.4-8.3 26.5-11.3 9.7-3.1 19.7-5.6 29.8-7.5 5.3-1 10.5-1.8 15.9-2.4v.1c.4 0 .8-.1 1.2-.2 14.5-1.6 29.1-1.9 43.7-.9 5 .4 9.9.9 14.8 1.5-.1 0 .2-3.7 0-3.8-17.9-2.4-36-2.8-53.9-1.2 1.1-2.5 1.4-5.6 1.4-8.3v-2.1c0-1.1-.1-2.1-.3-3.1.3-1.2.1-2.7.1-3.9v-.2c0-.9-.3-1.6-.7-2.4-.1-3.1-.3-6.2-.8-9.2-.7-3.9-3.1-7.3-5.2-10.6-.2-.4-.4-.7-.6-1 7.5 7.7 17.3 13.3 27.6 16.6 9.5 3.1 19.3 4.1 29.1 5.4 9.2 1.3 18.1 3.6 25.9 9 7 4.8 12.8 11.4 16.3 19 1 2.2 1.9 4.5 2.3 7 .1.4.1.9.2 1.3v.2c0 1-.2 2.1-.5 3.2z"/>
  <path class="st1" d="M89 62.3c-.1 1.1.1 2.7 0 3.6l-.3.6c.1-.4 0-1.6 0-1.8 0-.2-.1-1.8 0-1.9-3.4 1.6-5.4-2.1-6.3-4.7-.6-1.9-1-4-1.1-6.1v-.1c.2-.2 0-1.6 0-1.9v-1.3c0-.1-.1-.5 0-.6-.1.1-.1.1-.1.2v-1.2 1.2c-2.8 3.1-3.8 7-3.9 11.1-.1-.1-.1 2.3 0 2.3 0 1.6.1 3.3.6 4.9.1.3.2.8.4 1.3-1.7.1-3.3 1.2-4.4 2.4-.9.9-1.6 1.9-2.1 3-.6-7.1-.5-14.3-.6-21.4-.1-9.8-.2-19.6-.3-29.5 0-2.8-.1-5.6-.1-8.4v-2c0-1 .3 0 .1.7 0-.1.1-.3.1-.4.2-.4.6-.7.9-.8 0 .2 0 .3.1.4.2.1.4.2.7.3 8.4 11 13.8 24.1 15.6 37.9.3 2.1.5 4.2.6 6.4 0 .5.1 1 .1 1.4v1.2c.1 1.1.1 2.1 0 3.2zM179.4 56c-1 2-2.2 3.9-3.5 5.7-.7.9-1.4 1.8-2.2 2.7-.4.4-.7.8-1.1 1.2l-.2.2v-1.4l-.3-.9c.1.3.1.6.1.9-.1 0-.1 0-.2-.1v-.4c-.1.1-.1.2-.1.3-1.6-.5-2.2-2.3-2.6-3.8-.3-1.3-.6-2.5-.9-3.8-.1-.7-.3-1.4-.4-2.1 0-.2-.1-.3-.1-.5 1.1-3.8 4.4-5.9 6.8-8.9.2-.3 0-1.5 0-1.9s-.2-1.6 0-1.9c-.2.3-.5.5-.7.8v-.6c-3.6 1.6-6.4 4.4-9 7.3-1.3 1.4-2.7 2.9-3.3 4.8-.8-4.3-11.9-14-11.9-14 2.7 2 5.7-2.6 7.1-4.4 1.9-2.5 3.6-5.2 5.2-7.9 3.3-5.4 6.3-11.1 10.2-16.1 1.1-1.4 2.3-2.8 3.5-4.1.6-.6 1.2-1.2 1.9-1.8.3-.3 1.2-.8 1.7-1.3.3.3.5.6.7.8.6 1 1.2 1.9 1.8 2.9.9 2.1 1.4 4.4 1.7 6.6.7 4.9 1.1 9.8 1.2 14.7.5 9.3-1.3 18.9-5.4 27z"/>
  <path class="st2" d="M60.3 304.8c-.7 1.5-3 1.6-4.4 1.7-.5.1-.9.1-1.4.2.9-.4 1.7-1 1.8-2.1.1-.7.1-1.5-.3-2.1-.1-.2-.3-.4-.6-.6.6.2 1.3.5 1.9.7 1.1.5 2.5 1.1 3 2.2z"/>
  <path class="st2" d="M56.1 303.9c-.4 1-1.4 1.5-2.4 1.7 0-.1.1-.3.1-.4 0-1 0-1.9-.1-2.9 1 .3 2 .8 2.4 1.6zM39.2 302.9v1.5c-.4-.2-.7-.5-.9-.9.2-.3.6-.5.9-.6z"/>
  <path class="st2" d="M41 306.4h-.3c-1.2-.2-2.5-.4-3.7-.7-.7-.2-1.6-.3-2.2-.8.4-.7 1.2-1.2 2.1-1.5.1.2.3.4.4.6v-.7c.3-.1.6-.2.9-.2v.1-.1 1.3-.1c.1.7.4 1.2 1.1 1.6.5.1 1.1.3 1.7.5zM50.9 306c-1.2.1-2.4 0-3.6 0-1.8-.1-3.5-.3-5.3-.6.1-.2.1-.4.1-.6v-10.9c.2-.1.5-.1.7-.1 1.1-.1 2.2 0 3.3 0 1.2 0 2.4 0 3.6.2.3 0 .5.1.7.2.1 3.7.2 7.4.2 11.1.2.2.2.5.3.7z"/>
  <path class="st3" d="M60.3 307.9v3c-.1-.1-.1-.1-.1-.2v-.2c-.1.3 0 .6 0 .9v.2l-.3-1.8c.1.3 0 .7 0 1-.1-.5-.2-1-.4-1.5-.3-.7-.8-1.4-1.3-1.9.7-.2 1.4-.4 1.9-.9.1-.1.2-.2.3-.4v.1c.1 0 .1-.1.1-.2-.2.8-.2 1.4-.2 1.9zM50.5 308.2c-.1.1-.1.2-.2.3-.3.6-.7 1.2-1 1.8-.4.6-.7 1.3-1.1 2-.2.3-.3.6-.5.9-.1.2-.2.4-.3.5-.1.1-.1.2-.1.3-.1.1-.1.2-.1.1-.1-.1-.1-.3-.1-.5s-.1-.3-.1-.5c-.1-.3-.1-.6-.2-.9l-.6-1.8c-.3-.8-.8-1.6-1.2-2.4 1.8.2 3.6.3 5.5.2zM50.3 320.5c-1.6.1-3.2.1-4.7 0h-.2c.5-.7.9-1.4 1.1-2.3.4-1.2.4-2.5.4-3.8 0 .2.1.3.1.5 0 .1 0 .4.1.5 0 .1 0 .1.1-.1v.3c.4 1.5 1.2 2.9 2.2 4.1.3.2.6.5.9.8z"/>
  <path class="st3" d="m103.2 352.9-.3-6.9h-.4v-3.8h.2c-.2-4.4-.4-8.7-.6-13v-1c-.7 0-1.4-.5-1.5-1.5-.3-8.6-.6-17.3-.9-26-2.1-.5-4.2-.8-6.3-1-1.8-.2-3.7-.4-5.5 0 .2 6 .3 12 .5 18 0 .6-.3 1-.7 1.3-.2.1-.5.2-.8.2-5.3 0-10.6.1-15.8.2v.1l-.1-.1c-4.1 0-8.3.1-12.4.1-.2 0-.4 0-.5-.1-2.3 1.8-6.2 2.1-8.9 2.2-1.6.1-3.2 0-4.8-.2-.1 0-.1.1-.2.2v-.1c-1.2-.2-2.4-.5-3.6-.8v.4l-.6-.6-2.1-.9c-.2.2-.6.4-1 .4-7.5-.2-15.1-.4-22.6-.6v.8c0 1.9-3 1.9-3 0-.2-8-.4-16.1-.6-24.1-3.2-.6-6.5-.6-9.7.1l.6 22.9c.7 0 1.4.5 1.4 1.4.1 17.5.2 35 .3 52.6h6.9c12 0 24-.1 36.1-.1 7.6 0 15.1-.1 22.6-.1.2-2.1.9-4.1 2-6 2.4-4.3 5.5-8.2 8.4-12.1 2.4-3.3 5.1-6.7 8.7-8.7.9-.5 1.9-1.1 2.8-.3.9.8 1.6 2 2.4 2.9 1.6 2 3.2 3.9 4.8 5.9v-.7c1.8 0 3.6 0 5.4-.1-.2-.3-.2-.6-.2-.9zm-93-14.5c-.5-1.4-.4-3-.4-4.4 0-1.4.2-2.7.9-3.9.5-.8 1.1-1.4 1.9-1.9 0-.2 0-.3.1-.3 1.1-.9 2.7-.6 3.8.2 1 .7 1.7 1.8 2.1 3 .4 1.3.3 2.6.3 3.9 0 1.2-.1 2.3-.5 3.4-.9 2.2-3.1 4-5.5 3-1.4-.6-2.2-1.7-2.7-3zM20.8 360c0 .6 0 1.2-.1 1.8-.2 1.5-.8 2.9-1.6 4.2-.7 1.1-1.9 2.1-3.3 2-1.4-.1-2.4-1.5-3.1-2.5-.7-1.2-1.2-2.5-1.2-3.9-.1-1.4-.2-2.9.2-4.3.3-1.2.9-2.3 1.9-3.1.3-.3.6-.5 1.1-.7v-.3c1.4-.6 2.9-.3 4.1.6 1.2.9 1.8 2.3 2 3.8 0 .4.1.8.1 1.1-.1-.1-.1.7-.1 1.3zm27.5 7.5c-.1.4-.8.4-.8 0-1.3-6.9-.5-14.7-.5-21.7 0-7.8-.6-15.8.3-23.6.1-.4.6-.4.7 0 1 7.7.6 15.8.6 23.6 0 7.1.9 14.8-.3 21.7z"/>
  <path class="st0" d="M20.8 360c0 .6 0 1.2-.1 1.8-.2 1.5-.8 2.9-1.6 4.2-.7 1.1-1.9 2.1-3.3 2-1.4-.1-2.4-1.5-3.1-2.5-.7-1.2-1.2-2.5-1.2-3.9-.1-1.4-.2-2.9.2-4.3.3-1.2.9-2.3 1.9-3.1.3-.3.6-.5 1.1-.7v-.3c1.4-.6 2.9-.3 4.1.6 1.2.9 1.8 2.3 2 3.8 0 .4.1.8.1 1.1-.1-.1-.1.7-.1 1.3zM18.5 331c-.4-1.2-1.1-2.3-2.1-3-1.1-.8-2.6-1.1-3.8-.2 0 0-.1.2-.1.3-.8.5-1.4 1.1-1.9 1.9-.7 1.2-.9 2.6-.9 3.9 0 1.5-.1 3 .4 4.4.4 1.3 1.3 2.4 2.5 2.9 2.4 1.1 4.6-.8 5.5-3 .4-1.1.5-2.2.5-3.4.2-1.2.3-2.5-.1-3.8zm.3 2.8c0 .1 0 .3-.1.4-.1-1.3.1-.9.1-.4z"/>
  <path class="st4" d="M60 316.7c.4-1.5.4-3.1.2-4.7 0 .1.1.1.1.2V306c.1-.2.1-.4.1-.5v-1.2.1c-.1-1.3-1.2-2-2.3-2.6-1.4-.7-2.9-1.3-4.5-1.5-.1-2.2-.1-4.3-.1-6.5 0-1.2-1.1-1.6-2-1.4-.9-1-2.3-1-3.5-1-1.4 0-2.9-.1-4.3-.1-.6 0-1.2.1-1.8.3-.8-.8-2.6-.5-2.6 1v1.8c-.6-.3-1.3-.5-2-.6-1.5-.2-3 .1-4.3.9-.2-.3-.4-.7-.6-1-.8-1.3-1.6-2.6-2.4-3.8-.4-.6-.9-1.9-1.7-2.4v-.3c-3.3.7-5.8-2-7.7-4.4 5.7-2.7 11.2-5.7 16.5-9.1 6-3.9 11.7-8.3 17.4-12.5-1.2 4.9-2.7 9.8-4.7 14.5 0 0 0-.1-.1-.1v.1c-.1.1-.1.3-.2.4-.1.3 0 .9 0 1.3s.1.9 0 1.3c.1-.1.1-.3.2-.5 2.6 5.2 5.3 10.3 7.9 15.5v.5c.1 0 .2-.1.3-.1 3.9 7.6 7.7 15.1 11.6 22.7-3.2-.2-6.3-.2-9.5-.1zM15.2 277.7v.1c-.3.2-.7.3-1 .5-1.2.6-2.3 1.2-3.5 1.9-.3.2-.5.3-.8.5-.2.1-.6.5-.8.5-.1.1-.2.1-.2-.1-.1-.1-.1-.1-.1-.2l-.3-.3c-.2-.3-.5-.5-.7-.8-.4-.5-.9-1-1.3-1.5l-.3-.3c.2-.2.4-.3.6-.5.6-.6 1.3-1.1 1.9-1.7l3.6-3.3c.8 1.9 1.9 3.6 2.9 5.2zM19.7 256.7c-3.6 2-7.1 4.2-10.6 6.5 0-.1-.1-.2-.1-.3-.6-1.7-1.1-3.5-1.4-5.3-.2-.8-.3-1.7-.4-2.5-.1-.5-.1-1-.1-1.5v-.2c0-.2.1-.3.1-.4.3-3.5 1.6-6.9 4.5-9v.1c2.7 4.2 5.4 8.4 8 12.6z"/>
  <path class="st4" d="M54.3 258.6c-5.7 4.2-11.3 8.5-17.2 12.4-5.7 3.7-11.7 7-17.9 9.8-.9-1.1-1.7-2.3-2.6-3.5 0-.4 0-.8-.2-1.1-.2-.3-.5-.4-.8-.3-.6-1-1.3-1.9-1.9-2.9-.5-.8-1-1.7-1.4-2.5v-.5c-.1 0-.1.1-.2.1-.9-1.6-1.6-3.3-2.3-4.9 3.3-2.1 6.6-4.1 9.9-6v.5c.4-.2.6-.5.6-.9.1-.3.1-.6 0-.9.1.2.2.3.3.5v1c1.9-.2 3.4-1.4 4.9-2.5l4.2-3c.3-.2.6-.5.9-.7.1-.1 0-.8 0-1.1 1.1-2.1 2-4.3 2.7-6.6v-1.1c0-.5.1-.9 0-1.4-.9-4.1-2.3-8-4.1-11.8 6.7-1.7 11.7 5.5 14.9 10.4 2.1 3.3 4.2 6.6 6.2 10 1 1.7 1.9 3.4 2.9 5.1.5.7.8 1.3 1.1 1.9z"/>
  <path class="st5" d="M184.2 302.8v3.1c0 .1.1.5 0 .5.5-.6 1.2-.5 1.8-.4.8.1 1.6.2 2.5.4 1.7.3 3.4.6 5 1.3h.1c-7.6 1.1-12.5 8.7-15.8 15.1-4 7.9-6.5 16.5-7.4 25.4-3.6-.1-7.3.2-10.8 1 2.4-5.6 4.9-11.3 7.3-16.9 3.8-8.7 7.6-17.4 11.3-26.2 3.6-8.5 7-17 9.4-26 1.3-4.9 2.4-9.9 3.1-15 .7 2.7 2 5.2 3.1 7.8 1.4 2.9 2.8 5.9 4.4 8.6 2.5 4.3 5.7 8 9.5 11.1-1.1.2-2.3.4-3.4.6-7 1.3-14.5 3.1-19.4 8.6-.1.1-.1.2-.1.4-.2.3-.4.4-.6.6zM148.3 187.3c.5 4.7 1.4 9.4 2.3 14.1-1.6 5.6-2.5 11.5-3.1 17.3-4.3 18.9-7.9 38-10.8 57.1l-2.4 16.5c0 .3-.1.6-.1.9 0 .2-.1.4-.1.7v-2.5c-1.8 0-3-1.4-3.9-2.9-1.1-1.8-1.9-3.8-2.6-5.8-.6-2-1.1-4-1.3-6.1 0-.2.1-.4.1-.6.3-.3.5-.6.8-.9.1-.1.1-.6.1-1.1.2-.3.4-.4.5-.1-.2-.4 0-1.4 0-1.9.1-.2.3-.4.4-.6.2-.4 0-1.5 0-1.9v-1.3c0-.1-.1-.5 0-.5-1.9 3.2-5.8 4.6-9.4 4-2.3-.4-4.3-1.4-6.1-2.8.2 0 .5-.1.7-.2 1.1-.4 1.9-1.3 2.5-2.2.6-1 .7-2.1.7-3.1.4.3.9.6 1.3 1-.1-.1 0-1.7 0-1.9 0-.3.2-1.7 0-1.9-4.1-2.8-7.6-6.3-10.4-10.4-3-4.5-5-9.5-6.3-14.7-2.9-11-3.9-22.3-2.4-33.6.8-6.2 2.2-12.4 4.2-18.3.2-.5.1-1 0-1.6.1 0 .3 0 .4-.1.3 0-.2-3.7 0-3.8-1.6.3-3.1.6-4.7.5-1.6-.2-3-.9-4.3-1.6-.2-.1-.4-.3-.7-.4 1.1-.3 2.1-.9 2.9-1.5 3.1-2.5 6.4-5.7 8.1-9.3 1.7-3.6 1.6-7.5 1.6-11.4 0-1.8-.2-3.7-.4-5.5 0-.3-.1-.6-.1-.9 7.9 3.4 16.6 4.7 25.1 3.8 8.2-.9 15.8-4 22.7-8.5-2.2 7.4-4.6 14.8-5.5 22.5-.9 6.9-.7 14.3.2 21.5z"/>
  <path class="st1" d="M125.3 356.4v.3c-.3 3.1-.6 6.2-.8 9.3-.1 1.3 0 2.8-.4 4.1-.2.5-.7.9-1.1.9-.1 0-.1 0-.2-.1-.1 0-.1-.1-.2-.2 0-.4 0-.7.1-.8-.1.1-.2.2-.2.3v.1c-.1.1-.1.3-.1.4-2.8-1.1-5.7-2.2-8.5-3.3-1.5-.6-3.1-1.4-4.7-1.4-1.7 0-2.6 1.1-3.5 2.3-2.3 2.9-4.5 5.8-6.7 8.6v-.8c-2.6.3-5.3.6-7.9.9-1.3.1-2.6.3-3.9.4-1.2.1-2.4.3-3.6-.1v.2c-.2 0-.3.1-.5.1.7-3.2 2.1-6.3 4.2-8.8.1 0 0-.5 0-.5v-2.6c0-.1-.1-.5 0-.5-2.7 3.3-4.3 7.5-4.6 11.8v.9c-4.5 1.2-9.7 2-13.5-1.1 0-.5.1-1 0-1.5.1-.3.1-.6.2-1 .3-1 .7-1.9 1.1-2.9 1-1.9 2.2-3.7 3.4-5.4 2.4-3.4 4.7-6.8 7.3-10 1.1-1.4 2.3-2.7 3.6-3.9 1.2-1.1 2.9-2.5 4.6-3 1.1-.3 1.6.6 2.2 1.4.7.9 1.4 1.8 2.2 2.6 1.4 1.8 2.9 3.5 4.3 5.3-.1-.1-.1-.5-.1-.8 4.8-.1 9.7-.1 14.5-.2 2.4-.1 4.9-.1 7.3-.4 1.1-.1 2.3-.2 3.4-.4.4 0 1.4-.4 2.1-.2 0-.1 0 0 0 0z"/>
  <path class="st1" d="M130.8 312.9c-2.1 13.2-3.8 26.5-5.2 39.9-.1-.1-.2-.2-.4-.3-.6-.1-1.3.2-1.9.3l-2.4.3c-1.5.2-3.1.3-4.6.3-4.3.2-8.6.3-12.9.3v-2.3c-.1-1.8-.2-3.7-.3-5.5 1.9-.3 3.7-.5 5.6-.8 0 .1 0 .3.1.4.1.2.2.4.2.6V344.2c0-.6.1-1.3 0-1.9-.1-.3-.1-.6-.2-1v-.1c-.1-.5-.2-1.1-.2-1.6 0-.1 0-.3.1-.4.1-.5.2-1.1.3-1.6.4-2 1.2-3.9 2.3-5.7 2-3.2 5.1-5.7 8.6-7.2.1 0 .1-.3.1-.6 1.1-.1 2.2-.1 3.3 0-.1 0 .1-3.7 0-3.8-2.5-.2-5 .1-7.4.8 1.2-1.8 2.5-3.4 4.1-4.8 3-2.4 6.9-3.1 10.8-3.4zM36.9 317h-1.3c-.2-.2-.4-.4-.5-.6 0-.6.1-1.2 0-1.8 0-.1-.1-.2-.2-.1v.1h-.4c0-.2 0-.4-.1-.7 0-.5 0-.9.1-1.4l.1.1c.1.2.1.4.2.6.1.4.3.9.5 1.3.4.8 1 1.6 1.6 2.3v.2zM38.1 307.1c-1.6.1-3.1 1.3-3.6 2.8.1-1.3.2-2.7.2-4 .4.7 1.6.9 2.5 1.1.3 0 .6 0 .9.1zM39.2 298v3.4c-.6.1-1.3.2-1.9.5 0-.2 0-.5-.1-.6-.1-.1-.2-.3-.2-.4.3-.2.5-.4.8-.6v-2.8c.2 0 .3.1.5.1.4.1.6.3.9.4zM36.8 297.3c-.5.3-.9.7-1.3 1l-.6-.9c.5-.1 1-.2 1.6-.2 0 .1.1.1.3.1z"/>
  <path class="st1" d="M36.4 302.4c-.2.1-.5.3-.7.4-.7.5-1 1-1.1 1.6v-.1 1.3-.1c0 .1.1.2.1.3-.1 1.5-.2 3-.3 4.4v1.2c0-.1.1-.2.1-.2v.1h-.1v.2c0 .1-.1.8 0 1v.1-.1 2c-.6-.2-1.3-.8-1.7-1.1-.7-.6-1.4-1.3-2-2.1-1.1-1.6-1.9-3.4-2.2-5.3 0-.3.1-.5.1-.8.2-.9.5-1.8.9-2.6.8-1.7 2.1-3.2 3.6-4.4l.1-.1c.1 0 .2-.1.3-.1.3.4.6.9.8 1.3-1 .9-1.9 1.9-2.6 3-.1.1 0 .5 0 .5v2.6c0 .1.1.5 0 .5 1.2-1.6 2.6-3.1 4.2-4.4.2.4.3.6.5.9zM124.4 274.8c-7.4 9.1-13.3 19.3-21.6 27.6 0-.8-.1-1.6-.1-2.4 0-1.2-1.2-1.7-2.1-1.4-2.3-.7-4.7-1-7.2-1.3-2.4-.2-4.9-.6-7.1.5 0 0-.1.1-.1.3-.7 0-1.4.5-1.4 1.5.1 5.6.3 11.2.4 16.8-4.9 0-9.7.1-14.6.2-3.9-7.7-7.9-15.4-11.8-23.1 6.1-2.3 12-5 17.8-7.9.1 0 .1-.8.1-1.3 5.5-16.1 13.7-31.3 24.2-44.7.1-.1.1-.3.1-.6 1 3.9 2.4 7.8 4.3 11.4 2.6 4.9 6.2 9.1 10.5 12.5-.1.2-.3.4-.4.6-.7.8-1.6 1.5-2.6 1.8-2 .5-4.3-.4-5.5-2.1v3.1c0 .1-.1.5 0 .5.4.6 1 1.1 1.6 1.5v.5c2.4 3.2 5.7 6.1 9.8 6.8 2 .2 4-.1 5.7-.8z"/>
  <path class="st6" d="M395.1 361.4c-.4-2.4-1.2-4.7-2.3-7-3.6-7.6-9.4-14.2-16.4-19-7.8-5.3-16.7-7.7-25.9-9-9.9-1.4-19.6-2.3-29.1-5.4-10.3-3.4-20.1-8.9-27.6-16.6.2.4.4.7.6 1 2 3.4 4.5 6.7 5.2 10.6.5 3 .7 6.1.8 9.2.4.7.6 1.5.7 2.4v.2c0 1.2.2 2.7-.1 3.9.1 1 .2 2.1.3 3.1v2.1c0 2.7-.3 5.8-1.4 8.3 18-1.6 36.1-1.3 53.9 1.2.2 0-.1 3.7 0 3.8-4.9-.7-9.9-1.2-14.8-1.5-14.5-1.1-29.2-.8-43.7.9-.4.1-.8.2-1.2.2v-.1c-5.3.6-10.6 1.4-15.9 2.4-10.1 1.9-20 4.4-29.8 7.5-9.1 3-18.2 6.4-26.5 11.3-7.3 4.3-13.9 9.7-18.9 16.5v.2h-.1c-.2.3-.5.6-.7 1-2.5 3.5-4.5 7.4-5.9 11.5-.7 2-1.2 4.1-1.6 6.2-.2 1.4-.4 2.8-.5 4.2 0 .7-.1 1.4-.1 2.1v1.6c.3 8.9.5 20.1 7.9 26.5 3 2.6 7.2 4.2 11.2 3.3 4.4-1 7.8-4.7 11.2-7.4 14.6-11.7 32-19.1 49.8-24.5 19.4-5.8 39.3-9.2 59.1-13.5 10.3-2.2 20.5-4.8 30.5-8 8.7-2.9 17.9-6.3 24.3-13.1 3-3.2 5.5-7.1 6.6-11.4.3-1.1.5-2.2.6-3.3v-.2c-.1-.3-.1-.8-.2-1.2zm-33.1-9.1v2.1c-3-.9-4.6-4.5-7.9-4.5v-3.8c1.5 0 2.6.7 3.7 1.6-4.3-5.2-10.1-9.1-16.7-10.8-.3-.1.3-3.7 0-3.8 9.1 2.4 16.9 8.8 20.9 17.4.1.3.1 1 0 1.8zM110.1 95.9c-.5.4-1 .8-1.6 1V97.8c-.9.1-1.7.2-2.5.3.7-.6 1.2-1.4 1.7-2.2h2.4zM101.3 99.2c-1.8.5-3.6 1.1-5.4 1.6-5.1 1.6-10.2 3.3-15.2 5.3-3 1.2-6 2.4-9 3.7-.3-.4-.6-.7-1-1.1-.7-.8-1.4-1.6-2.2-2.5-.5-.5-.9-1-1.3-1.6.4-1.1.8-2.3 1.2-3.4v-.1c6.7-1.7 13.5-3 20.4-3.9 3-.4 6.1-.7 9.1-.9.6 1.1 1.4 1.9 2.5 2.5.4.2.6.3.9.4zM184.2 107.5c-.9-.2-1.7-.4-2.6-.6.4-.9.9-1.7 1.3-2.6.4 1 .8 2.1 1.3 3.2zM190.7 124.3l-15-6c1.8-3.5 3.6-6.9 5.4-10.4 1.2.3 2.4.6 3.7.9 1.9 5.2 3.9 10.4 5.9 15.5z"/>
  <path class="st6" d="M301.1 335.8c-.6-5-2.8-9.6-6.4-13.1-.2-.2-.1-1.3 0-1.8-.3-.3-.6-.7-.9-1-3-3.3-6.5-6.1-10.4-8.3-.2-.1 0-1.6 0-1.9 0-.2.1-1.8 0-1.9 4.5 2.7 8.6 6.2 12 10.2 1.7 2 3.2 4.1 4.5 6.4.1.1.1.3.2.4-.1-1.9-.3-3.7-.7-5.5-.8-3.9-3.3-7.3-5.4-10.6-4.5-7.4-9-14.7-13.6-22v-.1c-.5-.1-1.1-.4-1.5-.5-1.6-.5-3.2-.9-4.9-1-1.7-.1-3.4 0-5.1.3-.8.1-1.6.4-2.3.6-.3.1-.3.2-.6 0-.1-.1-.2-.3-.3-.4-.2-.3-.3-.6-.3-.9-.2-1.2.2-2.5 0-3.8.1.4.2.7.4 1 .3.5.5.4 1 .2.8-.3 1.5-.5 2.3-.6 1.6-.3 3.3-.4 5-.3 1.7.1 3.4.5 5 1h.1c-8.6-10-17.3-20.1-25.5-30.5-8-10.2-15.6-20.8-22.3-31.8-7-11.5-12.7-23.7-17.8-36.2-5.3-13.2-10.3-26.5-15.4-39.8-2.4-6.1-4.7-12.3-7.1-18.4-5.4-2.2-10.8-4.3-16.1-6.4-.3-.1-.6-.2-.9-.4-7.1-2.8-14.2-5.5-21.3-8.3-5.9 1.6-11.9 2.3-18 2.1-3.2-.1-6.4-.4-9.5-1-2.1-.4-4.7-1-5.5-3.3-.1-.4.1-.9 0-1.3.9 2.3 3.6 2.9 5.7 3.3 3.1.6 6.1.9 9.2 1 5.4.2 10.8-.4 16-1.6-6.5-2.4-13-4.9-19.5-7.2l-.9.9V102c-.1-.2.1-1.2 0-1.2l.9.3.2-.2v.3c7.1 2.6 14.1 5.2 21.2 7.9.2-.1.4-.1.6-.2v.4c.5.2 1 .4 1.5.5 6.7 2.6 13.5 5.2 20.1 7.8v-.6c0-.4-.2-1.5 0-1.9 1.4-2.7 2.8-5.4 4.2-8.2-16.2-4-32.6-6.9-49.3-7.2v-1.3c6.2.1 12.4.6 18.6 1.4 10.6 1.3 21 3.4 31.3 6 1-1.9 2-3.9 3-5.9v-.1c-11.4-1.1-22.8-1.9-34.2-2.4-.6.3-1.3.5-2.1.3-.5-.1-1-.2-1.4-.5-4.5-.1-8.9-.2-13.4-.2 0 .3.1.6 0 .6-.6.2-1.1 0-1.3-.6v-1.3h4v-.2c.4-.5.9-1 1.3-1.5V96c-.1.2-.3.3-.4.5 2.7 0 5.5.1 8.2.1-.5-.5-.8-1.1-1.1-1.7-.9-1.9-1.4-4-1.8-6-.5-2.1-.7-4.3-.8-6.5v-3.2c0-2.2.2-4.3.7-6.4-1.3.1-2.6.5-3.8 1.2-2.5 1.5-4.1 4.1-4.7 6.9.2-1.2-.3-2.5 0-3.8.6-3 2.5-5.8 5.3-7.2 2.9-1.4 6.3-1.2 8.9.6 2.4 1.7 4 4.5 5 7.2 1.3 3.3 1.8 6.8 1.8 10.4v2.7c0 .6 0 .6 0 0 0-1.2-.1-2.4-.3-3.5 0 .8 0 1.5-.1 2.3-.1 2.1-.8 4.1-1.7 6-.3.5-.5 1-.9 1.4 2 .1 4.1.2 6.1.3 9.1.5 18.2 1.2 27.3 2.1.8-1.6 1.5-3.3 2.3-4.9 1.5-3.5 2.9-7.1 3.9-10.8.5-1.8.9-3.6 1.1-5.4l.3-2.4V74c-.1-1 0-2.4 0-3.3v.9c.1-3.2.1-6.4 0-9.6-.4-10.5-1.1-21-2.2-31.5-.5-4.8-1.1-9.6-2.8-14.1-.6-1.7-1.4-3.4-2.3-5 .2 1.9.4 3.7.5 5.5 1 11.1 1.4 22.8-1.5 33.6-1.3 5-3.4 9.8-6.3 14.1-.8 1.1-1.6 2.2-2.4 3.2-.3.3-2.2 2.8-2.5 2.7-.2-.1-.2-1.3-.2-2.3-1.8-.9-2.3-3.8-2.7-5.6-.6-2.5-1-4.9-1.1-7.5v-1.3c0-1.3 0-2.6.4-3.9v-.1l-1.8 1.8c-1.1 1.2-2.3 2.4-3.3 3.8-.5.7-.9 1.4-1.1 2.1v2.9c-.4-1.1-.3-2.3-.3-3.5 0-1-.1-2 .2-3-.8-4.3-11.9-14-11.9-14s-.1-.1-.1-.2c-14.4-4.7-30.6-7.6-44.9-.9v.6c-.1-.1-.3-.2-.4-.4-.1.1-.2.1-.4.2.1 0 .1-.2.1-.4-5.3-4.6-10.6-9.3-15.9-13.9-2.7-2.4-5.4-4.8-8.1-7.1l-3-2.4c.9 1.4 1.8 2.9 2.6 4.4 7.6 14.3 10.2 30.3 9.1 46.4l-.3.6v.1c-3.9 1.9-6-3.3-6.7-6.2-.6-2.7-.8-5.4-.8-8.2-2.1 2.4-3.4 5.3-3.7 8.4 0 .4.1.7.2 1.1.2.8.4 1.7.7 2.5.4 1.1 1.6 4 3.2 3.1-.1.1 0 1.7 0 1.9s.1 1.8 0 1.9c-.4.2-.8.2-1.1.1v1.2c-2.2-1.4-5 .2-6.6 1.8-.6.6-1.1 1.3-1.5 2 .7-.3 1.6-.2 2.3.1.8.3 1.5.7 2.3 1 .4.1 1.4.3 1.7-.1v-.4c0 .1.1.1.1.2.1.2 0 .5 0 .7V81v-.1c0 .3-.2.5-.5.6-.9.2-1.9-.4-2.7-.7-.8-.4-1.5-.6-2.4-.6-.2 0-.4 0-.5.1l.3 1.8c.2 1.2-.2 2.5 0 3.8-.2-.9-.3-1.7-.4-2.6v1.2c-.6 3.9-1.4 7.8-2.3 11.7-.4 1.4-.8 2.8-1.2 4.3 9.4-2.4 18.9-3.9 28.5-4.6-.9-1.9-1.4-4.2-1.8-6-.3-4.2-.3-7.9-.2-11.4.1-1.7.4-3.4 1.1-4.9C92 75 88.9 80 87.8 84c.3-1.1-.3-2.6 0-3.8 1.5-5.4 6.5-12.8 13.1-10.3s7.2 10.6 9 16.4c.2.5 0 1.3 0 1.9 0 .5-.2 1.4 0 1.9-.1-.4-.2-.8-.3-1.1 0 .2 0 .3-.1.4v.3c0 1.8-.4 3.4-1.2 5h2.7V96h-.6v1c-.3.3-.6.6-1 .8 1-.1 1.9-.1 2.9 0v1.3c-6.1-.5-12.4 1.8-18.1 3.6-7.3 2.3-14.5 5.1-21.6 8 1 1.1 2 2.2 2.9 3.3.8.8 1.5 1.6 2.3 2.4 5.3-2.9 10.6-5.7 16.1-8.3-.5-.4-.9-1-1.2-1.6-.2-.4.1-.9 0-1.3.5 1.1 1.3 1.8 2.2 2.4 6.4-3.1 12.9-5.9 19.6-8.5-.1.1.1 1.2 0 1.3l-2.1.9V101.6c-.5.3-1 .5-1.5.8v-.4c-4.9 2-9.8 4.1-14.6 6.4.3.1.5.2.8.3 2.2.6 4.5 1 6.8 1.1 4.8.3 9.6-.5 14.1-2.3-.1.1.1 1.2 0 1.3-4.5 1.7-9.3 2.5-14.1 2.3-2.3-.1-4.7-.4-6.9-1.1-.7-.2-1.4-.5-2-.8-.3.2-.7.3-1 .5-5.2 2.5-10.3 5.1-15.3 7.9 2.1 2.3 4.3 4.6 6.5 6.8 6.5 6.7 13.3 13.2 20.2 19.4.2.2.1 1 0 1.5.1.2.2.5.2.7 0-.4.1-1.7 0-1.7 4.5 2 9.3 3.3 14.1 3.9 8.6 1 17.4-.2 25.3-3.6 8.2-3.6 15.3-9.3 21.9-15.2-.2.2 0 1.6 0 1.9s.2 1.7 0 1.9c-3.8 3.4-7.6 6.6-11.8 9.5l-.9.6c-2.5 8.6-5.4 17.2-6.2 26.2-1 10.7.7 21.5 2.8 32 2.2-7.3 5.7-14.1 11.5-19.5-.2.2 0 1.6 0 1.9s.2 1.7 0 1.9l-1.1 1.1c0 .4 0 .7-.1 1-1.5 3.2-2.6 6.6-3.4 10-.4 1.7-.6 3.5-.8 5.2-.1 1-.2 1.9-.2 2.9v.4c0 .4 0 .9.1 1.3.1 1 0 2.4 0 3.4-.5-7.4.1-14.8 2.4-21.9-7.5 9-10.3 21-11.5 32.6 0 .4 0 .8-.1 1.1 0 .1 0 .2-.1.3-.1 1-.2 1.9-.2 2.9v-1.8c-1.1 5-2.2 9.9-3.2 14.9-3.7 18.1-6.8 36.3-9.3 54.6 0 .5.1 1.1 0 1.6-1 5.3-1.9 10.6-2.9 15.9 0 1.1.1 2.4 0 2.4h-.4l-.3 1.8c-1.9 11.8-3.5 23.6-4.9 35.5-.2 1.6-.3 3.3-.5 4.9 0 .3.1 1 0 1.3v.1c0 .1-.1.1-.1.1-.4 3.8-.8 7.6-1.1 11.4-.1 1.6-.2 3.3-.4 4.9 0 .4-.1 1-.4 1.4v.7c-.3-.1-.5-.2-.8-.3-.1 0-.2-.1-.3-.1-3-1.1-6-2.3-8.9-3.5-1.5-.6-3.1-1.4-4.7-1.4-1.7 0-2.6 1.1-3.5 2.3-4.1 5.2-8.2 10.5-12.3 15.7 1.1.9 2.6 1.5 4 1.7 2.6.4 5.2-.2 7.8-.2 0-.5.1-1.1 0-1.2.2.2.5.4.7.6.6-4 1.7-7.9 3.2-11.7-.1.1 0 .4 0 .5v3.1c-1.1 2.7-1.9 5.5-2.6 8.4.1.1.3.2.4.3h.2s0 .1.1.2c2.2 1.4 4.6 2.3 7.3 2.3 3.9 0 7.8-1.6 11.5-2.7 3.9-1.2 7.9-2.3 11.8-3.5 2.4-.7 4.9-1.6 6.5-3.6 0-.3 0-.6.1-.9 4.2-9.8 8.5-19.6 12.7-29.4 7.5-17.3 15.1-34.5 22.4-51.9 3.6-8.5 6.8-17.1 9-26 .8-3.4 1.5-6.8 2.1-10.2 0-.3.1-.7 0-1 0 .1.1.3.1.4.9-5.4 1.4-10.8 1.7-16.2 0 .9.1 2.5 0 3.6-.2 4.7-.7 9.4-1.4 14 .7 2.5 1.9 4.9 3 7.3 1.4 2.9 2.8 5.9 4.4 8.6 2.8 4.7 6.4 8.9 10.8 12.1 2.5-.4 5.1-.6 7.6-.3 2.4.3 4.4 1.2 6.4 2.4 0-.2-.1-.4-.1-.6-.9-6.6.6-13.4 4.3-19 3.2-4.8 7.8-8.5 13.1-10.6.8-.6 1.7-1.1 2.6-1.5-.1 0 0 1.7 0 1.9s.1 1.8 0 1.9c-.1 0-.1.1-.2.1 0 .4 0 .6-.1.6-.8.2-1.6.5-2.3.8-1.6 1.2-3 2.9-3.9 4.8-.6 1.2-.9 2.5-1.1 3.8.1.4.1.8.2 1.2.2.9.5 1.7.9 2.6 1.5 3.4 3.9 6.2 6.5 8.8 1.1 1.1 2.2 2.5 3.6 3.3 1.2.6 3 .4 3.2-1.1v-.3V295.6c0 .3-.1.5-.2.7-1.1 1.7-3.1.6-4.2-.4-5-4.6-10.1-10.3-10.1-17.4 0-2.6-.1-5.1.8-7.6-4.1 2.6-7.6 6.2-10 10.5-.9 1.6-1.6 3.3-2.1 5-.3 1-.5 1.9-.7 2.9-.1.5-.1 1-.2 1.4.4 2 .9 3.8 2.3 5.3 1.3 1.5 3 2.4 5 2.5.1 0 0 3.8 0 3.8-1 0-1.8-.3-2.6-.7 0 .3 0 .5.1.6-3.3-2.7-6.7-5.3-11-5.8-4.1-.5-8.3.4-12.3 1.1-5.5 1-11.3 2.4-16 5.6h.3c1.7.3 3.3.6 4.9 1.3 2.7 1.1 5.1 3 6 5.8.2.5 0 1.3 0 1.9v1.8c-.6-1.8-1.8-3.2-3.3-4.3v2.1c-9.1-.5-14.8 8.1-18.4 15.3-3.5 6.8-5.8 14.1-6.9 21.6h.4v1.1c.8.2 1.7.1 2.5-.1 1.6-.4 3.1-1.1 4.6-1.6 3.4-1.2 6.8-2.4 10.1-3.6v.2l.1-.1v1.3c-1.7 1.8-3.5 3.5-5.4 5.1V350.3c0-.1-.1-.6 0-.6l3.6-3.3-8.4 3c-1.5.5-3 1.2-4.6 1.6-.8.2-1.7.3-2.5.1v1.4h-.9v.3-.3c-4.2-.1-8.3.3-12.4 1.3v-.5c-4.4 10.1-8.7 20.2-13.1 30.2 9.8.5 19.7 1.1 29.5 1.6 5.1.3 10.3.6 15.4.8 4.4.2 8.9.1 13-1.7 7.1-9.6 17.8-16.8 28.7-21.7 9.3-4.2 19-7.3 28.8-9.9 10.1-2.7 20.4-4.7 30.8-6 1.4-.2 2.7-.3 4-.5 2.1-.6 3.7-2.2 4.6-4.1.6-1.2.9-2.4 1.1-3.7.1-.6.2-1.1.2-1.7-.1-.5-.1-.6-.2-.8zM152.5 55.7c.1-.1.2-.1.4-.2v-.3l.2.2c1.3-.8 2.8-1.6 4.3-1.7 1.5-.1 3 .3 3.9 1.6.1.1 0 .4 0 .6v3.2c-.9-1.2-2.5-1.7-3.9-1.6-.6.1-1.2.2-1.8.4 1.4 1.6 2.6 3.5 3.5 5.5.1.1 0 .4 0 .6v3.2c-1.4-3.1-3.4-5.8-6-7.9-.2.1-.4.2-.5.3v-3.2c-.1-.1-.1-.7-.1-.7zm-47.7 46.6v.2c-.5.2-1 .3-1.5.5v-1.3c.5-.2 1-.3 1.5-.5v1.1zm23.2-6.2s0 .1 0 0c-.2.4-.6.6-1 .6v-1.2c.4 0 .8-.2 1-.5v1.1zm-8.9-1.1c.1.6.1 1.2.2 1.9.1 1.3.1 2.6.1 3.9v5.8c0-.1.1-.3.1-.4-.1.4 0 .9 0 1.3s.1.9 0 1.3c-.1.2-.1.4-.2.6.1-.2 0-.4 0-.7v.6-2.5c.1-1.9.1-3.8.1-5.7 0-1-.1-1.9-.2-2.9-.1-.5-.1-.9-.1-1.4 0-.1-.1-.9-.3-.6v.1-.1c-.1-.2-.1-.4-.1-.7-.1-.3-.5-1.3-.5-1.4-.4-1-1-1.9-1.6-2.8-1.3-1.9-2.9-3.5-4.8-4.7-.2-.1.2-1.1 0-1.3.1 0 .1.1.2.1v-.8c3.1-.4 6.1-.7 9.2-.6 2.6.1 5.5.5 7.6 2.1l.2-.2c-.1.1-.1.2 0 .3.3.2.5.4.7.6.1.1 0 .4 0 .7v.5c-.3-.1-.6-.1-.9-.2v-.5c-1.3 1.6-2.9 1.9-4.8 2.5-1.9.6-3.7 2.4-4.7 4.1 0 0-.1.3-.3.6.1.3.1.4.1.5zm61.4 91.2c-9.5 7.3-17.5 16.4-23.4 26.8.2-.4 0-1.4 0-1.9s-.2-1.5 0-1.9c5.9-10.4 13.9-19.5 23.4-26.8-.2.1 0 1.6 0 1.9s.2 1.7 0 1.9zm28.6 40.1c-.3.2-.5.4-.7.6 0 .5.1 1 .1 1.4 0 .5.2 1.4 0 1.9-3.1 8.5-8.6 16.1-15.8 21.8.2-.1 0-1.6 0-1.9s-.2-1.7 0-1.9c7-5.5 12.3-12.8 15.5-21.1l-5.7 4.5c-1.1.9-2.3 1.8-3.4 2.6-.6.5-1.9 1.8-2.6.9-.1-.1 0-.4 0-.5v-3.1c.8.8 2.1-.6 2.7-1 1.1-.9 2.2-1.7 3.3-2.6 2.2-1.7 4.5-3.5 6.7-5.2v3.1c-.1-.1 0 .5-.1.5zm-6.7 125.4c-4.2-3.2-9.8-4.1-14.7-2.4.1 0-.1-1.2 0-1.3 5-1.6 10.5-.7 14.7 2.4.2.2-.2 1.2 0 1.3z"/>
  <path class="st0" d="M129.7 87.5v.5c-.3-.1-.6-.1-.9-.2v-.5c-1.3 1.6-2.9 1.9-4.8 2.5-1.9.6-3.7 2.4-4.7 4.1 0 0-.1.3-.3.6v.4c.1.6.1 1.2.2 1.9.1 1.3.1 2.6.1 3.9v5.8c0-.1.1-.3.1-.4-.1.4 0 .9 0 1.3s.1.9 0 1.3c-.1.2-.1.4-.2.6.1-.2 0-.4 0-.7v.6-2.5c.1-1.9.1-3.8.1-5.7 0-1-.1-1.9-.2-2.9-.1-.5-.1-.9-.1-1.4 0-.1-.1-.9-.3-.6v.1-.1c-.1-.2-.1-.4-.1-.7-.1-.3-.5-1.3-.5-1.4-.4-1-1-1.9-1.6-2.8-1.3-1.9-2.9-3.5-4.8-4.7-.2-.1.2-1.1 0-1.3.1 0 .1.1.2.1v-.8c3.1-.4 6.1-.7 9.2-.6 2.6.1 5.5.5 7.6 2.1l.2-.2c-.1.1-.1.2 0 .3.3.2.5.4.7.6.1.1.1.5.1.8zM362 352.3v2.1c-3-.9-4.6-4.5-7.9-4.5v-3.8c1.5 0 2.6.7 3.7 1.6-4.3-5.2-10.1-9.1-16.7-10.8-.3-.1.3-3.7 0-3.8 9.1 2.4 16.9 8.8 20.9 17.4.1.3.1 1 0 1.8zM202.4 351.7c-4.2-3.2-9.8-4.1-14.7-2.4.1 0-.1-1.2 0-1.3 5-1.6 10.5-.7 14.7 2.4.2.2-.2 1.2 0 1.3z"/>
  <ellipse class="st7" cx="103.3" cy="86.6" rx="3.4" ry="4.4"/>
  <ellipse class="st7" cx="146.7" cy="87.1" rx="3.4" ry="4.4"/>
</svg>
