<svg width="132" height="132" viewBox="0 0 132 132" fill="none" xmlns="http://www.w3.org/2000/svg">
<path d="M129.827 33.3362L129.807 33.3538L129.789 33.3724L101.313 61.8804C99.1182 64.0777 99.1182 67.9223 101.313 70.1196L129.789 98.6276C131.203 100.044 131.203 102.624 129.789 104.04L103.92 129.938C102.506 131.354 99.931 131.354 98.5169 129.938L70.0413 101.43C67.8459 99.2323 64.0037 99.2323 61.8083 101.43L33.3327 129.938C31.9186 131.354 29.3438 131.354 27.9297 129.938L2.0611 104.04C0.6463 102.624 0.6463 100.044 2.0611 98.6276L30.5366 70.1196C32.7313 67.9223 32.7313 64.0777 30.5366 61.8804L2.0611 33.3724C0.6463 31.956 0.6463 29.3763 2.0611 27.9599L27.9297 2.06184C29.3438 0.646055 31.9186 0.646054 33.3327 2.06184L61.8083 30.5698C64.0037 32.7677 67.8459 32.7677 70.0413 30.5698L98.5169 2.06184C99.931 0.646054 102.506 0.646054 103.92 2.06184L129.789 27.9599C131.426 29.599 131.369 31.9462 129.827 33.3362Z" stroke="url(#paint0_linear_92_15)" stroke-width="2"/>
<defs>
<linearGradient id="paint0_linear_92_15" x1="0" y1="66" x2="132" y2="66" gradientUnits="userSpaceOnUse">
<stop stop-color="#FF7A8A"/>
<stop offset="1" stop-color="#5454FF"/>
</linearGradient>
</defs>
</svg>
