<svg viewBox="0 0 224 68" fill="none" xmlns="http://www.w3.org/2000/svg">
  <path d="M96.8663 33.5605c0-15.414-22.8663-15.414-22.8663 0 0 15.4459 22.8663 15.4459 22.8663 0Zm-17.0064 0c0-8.0255 11.1783-8.0255 11.1783 0 0 8.0892-11.1783 8.0892-11.1783 0ZM106.948 27.4777h8.089v-5.0955h-13.885v22.293h5.796V27.4777ZM124.832 44.6752V36.172c.732 0 1.433 0 2.197-.1274l4.905 8.6306h6.337v-.8917l-6.051-9.809c4.427-2.8344 4.3-7.0382 4.3-11.5923h-5.86c0 4.1719.286 8.4395-5.414 8.4395h-.414v-8.4395h-5.796v22.293h5.796ZM142.921 44.6752h6.147l10.573-21.4332v-.8598h-6.178l-3.822 8.2165h-.159l-4.204-8.2165h-6.37v.8598l7.516 13.6306-3.503 7.1975v.6051ZM174.576 34.7157v9.9595h5.356V24.3219h-1.882l-10.249 10.0174v-9.9305h-5.298v20.2953h1.853l10.22-9.9884ZM203.945 22.3822H185.41v22.293h5.828V27.6369h6.879v17.0383h5.828v-22.293ZM212.917 27.4777v17.1975h5.637V27.4777H224v-5.0955h-16.561v5.0955h5.478Z" fill="#0254B3"/>
  <mask id="a" style="mask-type:alpha" maskUnits="userSpaceOnUse" x="74" y="22" width="150" height="24">
    <path d="M96.8663 33.5605c0-15.414-22.8663-15.414-22.8663 0 0 15.4459 22.8663 15.4459 22.8663 0Zm-17.0064 0c0-8.0255 11.1783-8.0255 11.1783 0 0 8.0892-11.1783 8.0892-11.1783 0ZM106.948 27.4777h8.089v-5.0955h-13.885v22.293h5.796V27.4777ZM124.832 44.6752V36.172c.732 0 1.433 0 2.197-.1274l4.905 8.6306h6.337v-.8917l-6.051-9.809c4.427-2.8344 4.3-7.0382 4.3-11.5923h-5.86c0 4.1719.286 8.4395-5.414 8.4395h-.414v-8.4395h-5.796v22.293h5.796ZM142.921 44.6752h6.147l10.573-21.4332v-.8598h-6.178l-3.822 8.2165h-.159l-4.204-8.2165h-6.37v.8598l7.516 13.6306-3.503 7.1975v.6051ZM174.576 34.7157v9.9595h5.356V24.3219h-1.882l-10.249 10.0174v-9.9305h-5.298v20.2953h1.853l10.22-9.9884ZM203.945 22.3822H185.41v22.293h5.828V27.6369h6.879v17.0383h5.828v-22.293ZM212.917 27.4777v17.1975h5.637V27.4777H224v-5.0955h-16.561v5.0955h5.478Z" fill="#000"/>
  </mask>
  <g mask="url(#a)">
    <path fill="#1EA3E0" d="M65.8935 4.62885h178.344v28.952H65.8935z"/>
  </g>
  <path d="M33.9993 0C15.2225 0 0 15.2214 0 34s15.2225 34 33.9993 34C52.7762 68 68 52.7786 68 34S52.7775 0 33.9993 0Zm0 66.6805c-18.0486 0-32.68251-14.6315-32.68251-32.6832 0-18.0517 14.63121-32.68319 32.68251-32.68319 6.7067-.01044 13.2526 2.05238 18.7416 5.90603-.8014.57365-2.6078 1.86606-4.6691 3.36456-4.2475-2.55884-9.1138-3.90757-14.0725-3.90024C18.9138 6.68446 6.68432 18.9142 6.68432 34c-.00889 5.6987 1.77287 11.2561 5.09358 15.8873l1.0849-.7432C9.69266 44.7316 7.99173 39.4332 8.00112 34c0-14.3575 11.64098-25.99872 25.99818-25.99872 4.5305-.00674 8.9833 1.17641 12.913 3.43102-2.2986 1.6871-4.7274 3.5097-6.329 4.8225-1.5148 1.2436-3.2194 2.8343-4.9173 4.5282-.3544.3526-.7065.7088-1.0564 1.0686-1.1934 1.2206-2.3624 2.4669-3.4364 3.6508-.3309.3616-.6519.7187-.9629 1.0713-.6048.6781-1.169 1.3291-1.6761 1.9258-3.0622 3.6032-8.1368 11.7401-8.1368 11.7401l3.0988 3.0215s2.441-2.2485 4.7274-4.3017c2.2864-2.0532 6.8999-6.5474 8.8731-8.7553.8584-.9588 2.5061-2.898 4.3138-5.114 2.3542-2.8872 4.9824-6.2383 6.4945-8.5247.6631-.9982 1.3195-2.0939 1.9338-3.1775 3.1619 2.4255 5.7227 5.5466 7.4839 9.1213 1.7613 3.5748 2.6756 7.5071 2.6721 11.4922 0 14.3575-11.6396 25.9973-25.9968 25.9973-4.5412.0068-9.0042-1.1822-12.9401-3.4473l-.6632 1.1405c4.1381 2.3815 8.8303 3.6313 13.6046 3.6236 15.0923 0 27.315-12.2229 27.315-27.3155.0035-4.22-.9725-8.3833-2.8511-12.1621-1.8785-3.7789-4.6084-7.0702-7.9748-9.6149 1.1459-2.1021 2.0681-4.00067 2.4709-4.8442 4.2457 3.0201 7.7068 7.0126 10.0939 11.644 2.3871 4.6313 3.6309 9.7668 3.6273 14.9772 0 18.049-14.6326 32.6805-32.6812 32.6805Z" fill="#134A8C"/>
  <path d="M56.6248 44.1535V25.0901H41.4105l7.0776 8.4854-7.0776 10.578h15.2143ZM5.81098 43.9121c1.49174-.7934 2.59698 1.7169.90589 2.1698-1.48224.7798-2.57527-1.7087-.90589-2.1698Zm.21969.4828c-1.12558.2997-.54244 1.7236.46787 1.2056 1.14321-.3051.55329-1.7318-.46787-1.2056ZM6.01711 40.3414c.12205 0 .23461.3987.13562.461l-1.94875.5466 2.13589.1491c.10849.0109.11663.1357.14917.2279.03255.0922.06917.2048-.00949.2712l-1.76296 1.2205 1.94739-.5424c.13562.0122.15867.2834.17223.396.01356.1125-2.29049.7242-2.33253.6536-.13561-.1424-.29428-.6455-.12341-.8042 0-.0135 1.34392-.9682 1.39545-1.0062-.08001-.0122-1.68837-.1356-1.71956-.1533-.22783-.0189-.35259-.5424-.30648-.7214-.08815-.1017 2.2376-.6605 2.26743-.6984ZM5.32685 38.2203c.34716-.0949.47328.3757.54245.6442.35937 1.4918-2.34745 1.8986-2.53188.4163-.09086-.3702.07458-.9371.5221-.7119-.84486 1.7168 2.59155 1.2029 1.31409-.1818-.12884-.1193.05017-.1437.15324-.1668ZM5.3933 36.0207c.13561.0542.13561.3946.08543.5153-.34445.2265-1.10795.3512-.93436.9168.03797.0081.99132-.1275 1.02522-.0977.07188.1031.13562.4164.01763.495-.04475-.0095-2.33117.2712-2.37185.2414-.06781-.1058-.13562-.4177-.01763-.4936l.92758-.099c.05154-.6076-.74179-.4666-1.06998-.6862-.04882-.1696-.14781-.5751.16816-.4408.3309.1085.85436.1356 1.01709.4841.13155-.4516.77706-.6468 1.15271-.8353ZM5.32278 33.6732c.11663.0379.12747.4611.01356.5031-.20342 0-1.40765.042-1.58395.0312.20478.099 1.39138.8788 1.61107 1.0103.11799.0882.10307.3499.04204.4625-.03932.0298-2.34337.0569-2.38677.0678-.11798-.0394-.12476-.4611-.01221-.5045.20207 0 1.40766-.0421 1.5826-.0312-.19664-.099-1.39545-.8815-1.60972-1.0117-.08001-.0488-.07594-.1356-.08001-.2292-.00407-.0936-.02577-.2197.07187-.24l2.35152-.0583ZM2.36372 31.2606c.64552.0163.64958 1.1649.12883 1.3656-.30512.1248-.36208-.122-.27122-.3648.09493-.0651.24953-.0258.29157-.1804.10577-.2305-.06645-.3715-.25224-.438-.01628-.1044-.04475-.3756.10306-.3824Zm3.09874-.0977c.11256.0489.08544.4706-.03255.5032-.20206-.0177-1.40494-.0828-1.57988-.1099.19528.118 1.30866.9995 1.51615 1.15.10306.0868.09492.4313-.03526.4706l-2.34745-.1451c-.11391-.0488-.08408-.4719.03255-.5045.2007.0149 1.40494.0827 1.57852.1085-.18714-.1153-1.31137-1.0008-1.51343-1.1486-.07594-.057-.06374-.1438-.05967-.2374.00407-.0935-.00678-.2197.09357-.2319l2.34745.1451ZM3.69815 28.0465c.07458.019.19121.0203.18985.1099l-.13561.8136 1.97587.335c.11256.0624.02034.2712.00949.3824-.01763.0556-.03254.1221-.09357.1167l-2.22946-.3757c-.02186-.0014-.04314-.0077-.06235-.0182-.0192-.0105-.03588-.0252-.04886-.0428-.08272 0 .18444-1.23.1763-1.2775.03255-.0827.11663-.0542.21834-.0434ZM5.25497 25.8184c1.68024.2197 1.13101 2.9008-.50854 2.2959-1.66396-.2197-1.12016-2.8832.50854-2.2959Zm-.10171.5221c-1.43613-.3662-1.26661 1.3941.05018 1.31.93437.0502.81232-1.2788-.05018-1.31Z" fill="#134A8C"/>
  <path d="M6.7901 24.0187c.35124.0828.23732.5561.16681.8232-.40684 1.4837-2.97262.5425-2.42204-.8476.09764-.3688.51397-.7865.80011-.3743-1.56632 1.1026 1.69651 2.2974 1.2395.4693-.05425-.1641.11663-.1045.21562-.0706ZM7.08031 22.4863c.30513.2848.56008.6089.36344 1.0117-.0556.1112-.13561.2956-.27936.2712-.09357-.0339-.3336-.0814-.32682-.1953.19257-.1356.27122-.3621.06238-.5356-.07459-.0231-2.01249.1979-2.00028.0732.01085-.1492.09086-.472.28343-.4665.34988-.0109 1.01438-.0543 1.35612-.0434-.27122-.2143-.73909-.6781-.9981-.9141-.09493-.0908.06644-.5017.19256-.495.02263.0121.04322.0277.06103.0461l1.2856 1.2477ZM9.50235 20.3761c.08679.0746-.05018.2401-.08544.3228-.04882.2183-.54245-.1872-.63602-.1899l-.73909 1.4796c.05832.0732.67806.2224.53296.3946-.0434.0787-.09493.2875-.20749.2631l-.79875-.3987c-.12477-.0393-.03391-.1587 0-.2319-.33497-.5858-.93166-.8706-1.49852-1.2721-.08408-.0596-.12747-.1098-.08272-.2034.8964-1.8064.32276-1.2693 2.48713-.3363.05017-.0732.09628-.316.23054-.2265l.7974.3987Zm-2.74479-.4678-.25902.5194c.4882.3499 1.01709.6129 1.30052 1.1256l.45023-.9005-1.49173-.7445ZM10.0353 18.0219c.3255.0149 0 .4068-.11663.4977 0 .0122-.54244-.1207-.55736-.1221l-.48685.7961c.01356.0203.36209.4136.36073.4285 0 .1505-.21291.5737-.36615.2984l-1.47818-1.8051c-.11391-.1139.21834-.6455.36616-.5872l2.27828.4937Zm-2.15081.0217.71739.8516.36751-.6021-1.0849-.2495ZM9.96614 15.4859c.56826.3621.39866 1.0401 0 1.4782l.64416.4638c.0678.1356-.1478.3634-.2617.4204-.0421.0081-1.80503-1.3033-1.843-1.3196-.02094-.0113-.03909-.0271-.05313-.0463-.01404-.0192-.02361-.0414-.02803-.0647-.00442-.0234-.00356-.0475.0025-.0705.00606-.023.01718-.0444.03255-.0626.3214-.4773.853-1.3059 1.50665-.7987Zm-.27936.4488c-.30649-.2508-.56415.057-.71603.3079l.67806.4923c.22376-.2346.36889-.5967.03797-.8002ZM12.4004 14.6667c.2956.2062.0162.6035-.1478.8273-.9195 1.2314-2.96452-.5872-1.9407-1.6789.2265-.3079.7676-.5425.8815-.0543-1.86057.4489.7323 2.7598.9805.8924.0109-.1722.1478-.0543.2265.0135ZM12.4085 11.9083c.0502.0556.1438.1235.0977.1953l-.4367.4489 1.4443 1.3874c.0542.0867-.0611.1668-.1167.2386-.0556.0719-.1464.1777-.2346.1275l-1.4388-1.3873-.4313.4489c-.1152.0515-.2875-.1533-.3132-.255 0-.0393 1.2205-1.2639 1.2286-1.2938.0705-.0515.1424.0407.2007.0895ZM15.0692 11.5571c.5764.6347-.3268 1.3819-.8299 1.702-.0977 0-1.6274-1.6925-1.6152-1.7888.1356-.24.6103-.6035.83-.7486.4611-.3214 1.1201.2197.8476.7228.1194-.0786.2637-.1106.4052-.0898.1415.0207.2705.0928.3623.2024Zm-1.1866-.339c-.2251-.2713-.5112.0298-.6943.202l.4326.4787c.1993-.164.514-.4258.2617-.6807Zm.8137.7024c-.2712-.3159-.6076.0516-.8232.2523l.4747.5235c.1993-.1858.6238-.4774.3431-.7758h.0054ZM16.8905 10.8207c.042.0624.1193.1356.0624.2021l-.9832.7757c-.1682.2929-1.4402-1.7074-1.5501-1.7399-.2522-.20211.9344-.85713.9968-.9819.1071-.04068.3065.21699.2441.31056l-.6984.54246.3729.47738.5913-.46246c.0746-.04069.1356.05289.179.10716.0434.0542.118.1356.0597.1966l-.5913.4652.4285.5424.7052-.5506c.0773-.0352.1329.0597.1831.1153ZM18.903 9.60696c.0176.14511-.2645.29021-.3906.30242-.0461 0-.556-.83539-.5872-.85844l-.773.51533c.0095.03526.5791.82993.5669.87063-.0583.1126-.3038.316-.4299.2455-.0122-.0421-1.3209-1.93795-1.31-1.98813.0597-.11256.3038-.31734.4285-.24411l.5058.75809.7744-.51534-.5072-.75808c-.0176-.14647.2644-.28886.3919-.30242.0488.00813 1.2978 1.94743 1.3304 1.97455ZM21.0267 8.41626c0 .14646-.2889.27123-.415.27123-.0448-.00678-.4841-.88014-.5113-.90455l-.8136.44753c0 .03526.5058.87607.4909.91675-.0692.10714-.3296.28886-.4503.2075-.0081-.04476-1.1499-2.04508-1.135-2.0939.0691-.10578.3295-.29021.4488-.20613l.4381.79877.8136-.44753-.4393-.79877c0-.14647.2888-.27123.4149-.27123.0489.0122 1.127 2.0505 1.1582 2.08033ZM22.8045 6.79159c.2441.53026-.1112.97101-.64 1.16765-.1465.01356-.6578.4204-.7432.14646l-.8937-2.07626c-.0108-.02984 0-.05153.0285-.07459.1031-.05967.3295-.2197.4353-.12476l.339.78792c.5032-.25767 1.2124-.47194 1.4741.17358Zm-.4597.24411c-.1492-.39871-.575-.20207-.8625-.06509l.3119.72554c.2943-.10985.7174-.28751.5506-.66045Zm1.4999.13562c0 .12612-.3811.2875-.4652.20071l-.9303-2.16984c0-.12612.3811-.28886.4652-.20071l.9303 2.16984ZM26.2328 6.38882c0 .12341-.4068.2536-.4787.15595-.0597-.19528-.4407-1.33716-.4801-1.51074-.0379.22512-.4475 1.58398-.5112 1.83215-.0434.12748-.3662.24682-.4516.13562l-.7228-2.23629c0-.12477.4068-.25225.48-.1546.0597.19257.4394 1.33716.4801 1.50803.0393-.21698.4489-1.58805.5126-1.8308.0244-.09221.1112-.11256.198-.13561.0868-.02306.2034-.08679.2509 0l.7228 2.23629Zm-1.2286-2.84791c.3431.80284-1.5989 1.09712-1.2477.30513.3798-.20478.2523.1112.5425.13561.2549.01357.3214-.19799.316-.39463.0854-.05154.3268-.17902.3892-.0434v-.00271ZM29.3573 5.69583c-.0407.14239-.3811.17087-.5058.13561-.2563-.32141-.4516-1.07-.9995-.84488l.1967.97507c-.0339.14375-.3553.16545-.4747.13562-.0434-.02577-.4638-2.29732-.4841-2.33394.038-.13561.3566-.16409.4773-.13561.0367.02034.1845.9154.2021.9493.6089 0 .396-.78249.5845-1.12967.1641-.06509.5587-.20071.4529.12748-.0759.33904-.0501.86251-.3878 1.05644.4665.08137.7174.69842.9384 1.06458ZM31.6614 4.19321c.3865 1.64908-2.3204 2.07491-2.3298.32277-.3757-1.63145 2.3094-2.05457 2.3298-.32277Zm-.5221.08951c-.1628-1.47278-1.7494-.69706-1.2111.50584.2794.89099 1.4809.31056 1.2111-.50584Z" fill="#134A8C"/>
  <path d="M34.0047 5.31204c-.0352.11798-.4597.13561-.5031.01763l-.0678-2.00303-.5343.01762c-.1437.77165.0285 2.15086-1.0144 2.13323-.0651-.0312-.0569-.11121-.0637-.18444-.0583-.46245.3621-.04475.457-.93303.1519-.34717-.0407-1.18121.2807-1.41853.0407 0 1.3561-.08137 1.3263-.00678.029.03279.0441.0756.042.11934l.0773 2.25799ZM36.4254 5.4151c-.0447.11392-.4692.09087-.5017-.02576l.1017-1.99897-.533-.02712c-.2115.75402-.1424 2.07355-1.1432 2.04914-.1085 0-.1003-.10985-.0976-.198-.019-.46651.3648-.01491.5356-.89099.179-.33225.0597-1.1812.4069-1.39005.0393.00949 1.3561.03526 1.3222.10578.0252.0354.0363.07891.0312.12205l-.1221 2.25392ZM38.3999 5.5236c-.0135.07458-.0135.18172-.099.18714l-1.2381-.15053c-.3268.08679.1994-2.22544.1451-2.32579-.0339-.32141 1.2666.05967 1.3995.01627.1044.04747.0611.37023-.0502.39328l-.8801-.11798-.0759.60213.7445.09493c.08.02441.0542.12883.0488.20207-.0054.07323-.0135.17901-.0976.18036l-.7445-.09493-.0895.69571.8882.11256c.0814.02441.0529.13019.0488.20478ZM40.8762 6.81058c-.0515.10307-.2454.01356-.3349 0-.2238.00949.0406-.57501.0203-.66316l-1.6192-.33496c-.0556.07458-.0407.71333-.2455.61569-.0868-.0217-.301-.01763-.3078-.13562l.1817-.86793c.0068-.13562.1451-.07324.2238-.05832.48-.47465.6034-1.12424.8462-1.7752.0366-.09628.0732-.15053.1749-.13561 1.9773.40684 1.31-.01356.9629 2.3163.0827.03119.3295.01356.278.16545l-.1804.87336Zm-.2522-2.77197-.5682-.11798c-.213.56144-.3323 1.14052-.7554 1.54601l.9859.20342.3377-1.63145ZM44.0563 7.10893c-.099.11121-.3594-.03797-.4733-.08679-.1613-.37159.1831-1.17442-.4475-1.24766l-.2983.94931c-.0516.0895-.1723.0217-.2618 0-.0895-.0217-.2224-.04882-.2088-.15054l.2983-.9493c-.5641-.30106-.7363.55467-1.0849.76622-.1763-.02305-.6089-.10306-.3512-.33768.2482-.29292.4855-.82318.9208-.82725-.3444-.26173-.2278-.872-.2305-1.25443.0746-.10443.5004.03254.4922.17358.0177.36345-.1546 1.0239.3757 1.08492l.2848-.88963c.0488-.08951.1708-.01763.259 0 .0881.01763.2224.04882.2115.15053l-.282.88285c.5316.28479.693-.50991 1.0089-.72147.1763.02306.5859.09358.3404.3309-.2183.27123-.4312.74046-.8231.74724.3729.30785.2535.94795.2698 1.3792ZM14.2393 57.1427c-.6957.5614-1.8104-.2292-.9669-.5886.0651.2278.259.3784.4936.2346.0475-.0637.4665-1.9962.5818-1.9447.1356.0583.4244.2414.3553.4245-.1031.339-.2713.9913-.4069 1.3168.2916-.1844.891-.4882 1.2016-.6605.1193-.0623.461.2279.4068.3459-.0196.0178-.0415.0328-.0651.0447l-1.6002.8273ZM16.2518 59.5037c-.1031.0705-.4462-.1858-.4069-.3051l1.2083-1.6274-.7526-.5587-1.2083 1.6274c-.1058.0678-.4475-.1872-.4069-.3065.114-.0394 1.4063-2.1699 1.584-1.8796 2.0382 1.5432 1.5622.6523-.0176 3.0499ZM19.1742 59.3654c-.3309.5981-1.0266.4719-1.4917.1017l-.4272.6781c-.1275.0773-.377-.1248-.4421-.236-.0122-.0461 1.2015-1.9162 1.2124-1.9555.0099-.022.0245-.0414.0429-.057.0183-.0155.04-.0268.0632-.0329.0233-.0061.0476-.0069.0713-.0024.0236.0045.0459.0143.0653.0285.5004.2957 1.3738.7798.9059 1.4755Zm-.4733-.2536c.2333-.3268-.0949-.5669-.3594-.7038l-.4529.7201c.2522.2088.6252.3322.8123-.0163ZM20.4042 61.7997c0 .3309-.4177.0244-.5126-.0882-.0109 0 .0909-.5533.0909-.5709l-.8341-.4462c-.0203.0149-.3973.392-.4068.3906-.1532.0081-.5926-.1804-.3241-.3526l1.7318-1.6043c.1098-.1234.6672.1831.6183.3349l-.3634 2.3367Zm-.1519-2.1698-.8137.7784.6306.3349.1831-1.1133ZM22.7272 62.2052c-.3458.7987-1.413.2712-1.9189-.0556-.0461-.0882.8829-2.2105.9778-2.239.2794.0298.8137.3105 1.0374.4543.4896.2916.2713 1.1256-.3132 1.0849.1222.0777.2117.1974.2517.3365.0399.1392.0276.2882-.0348.4189Zm-.4868-.1967c.179-.381-.3024-.5424-.5777-.655l-.2862.6564c.2523.1112.6984.3824.8639-.0014Zm.3119-1.0415c.16-.3228-.2427-.4584-.4774-.556l-.2617.5994c.2278.1153.6021.297.7323-.0434h.0068ZM24.7804 63.6644c-.0759.0976-.4841-.0434-.4828-.1668l.6659-1.9217-.5113-.1776c-.4204.678-.7241 1.9786-1.6924 1.6735-.1505-.0462-.0163-.2577.0095-.3486.0257-.0556.0502-.1166.1139-.0949.6781-.0692.8286-1.0619 1.1934-1.6152.0515-.1017.0949-.1532.1993-.1193l1.169.4068c.3363-.0325-.6998 2.2607-.6645 2.3638ZM26.9014 64.1011c-.0244.0718-.0393.1803-.1248.1736l-1.2205-.3228c-.3404.0447.4964-2.2105.4557-2.319.0095-.3269 1.2639.2292 1.4036.2048.099.061.0122.3797-.1018.3878l-.8706-.2305-.1573.5953.7364.194c.0786.0352.0366.1356.023.2102-.0135.0745-.0379.1776-.1234.1681l-.735-.1939-.1817.6862.876.2319c.076.0366.0339.1397.0204.2143ZM29.3587 64.7154c-.0895.118-.3974.0244-.4977-.0556-.0312-.0353.1844-.9995.179-1.0374l-.9262-.1723c-.0177.0326-.1655 1.0131-.2035 1.0334-.122.0407-.4434.0163-.4855-.1248.0204-.0393.4069-2.3434.4503-2.3719.122-.0393.4461-.0162.4855.1248l-.1682.91.9262.1709.1682-.9087c.0895-.1193.3973-.0244.4977.0556.0298.0434-.4312 2.334-.4258 2.376ZM32.0791 65.0124c-.0529.1126-.4801.0719-.5086-.0488.0231-.2048.1275-1.4213.1614-1.5989-.0665.0922-.1356.1953-.217.2834-.1519.099-.9872 1.4362-1.2395 1.2694-.0908-.0177-.2278 0-.2332-.1045l.2264-2.3719c.0543-.1139.4815-.0718.5099.0489-.0217.2034-.1356 1.4212-.16 1.5961.1234-.1857 1.0551-1.2978 1.2124-1.4917.0597-.076.1478-.0597.2427-.0529.095.0068.2224 0 .2319.1017l-.2264 2.3692ZM34.5011 65.0626c-.0678.1288-.3865.0854-.4991.0285-.0339-.0299.0109-.9412 0-.9765-.6048-.1356-.6672.5167-.834.9249-.0271.0651-.0881.0746-.16.08-.156 0-.5099.0502-.3594-.2088.1424-.2984.2292-.8259.5818-.9493-.6957-.1356-.6157-1.1853.0461-1.3168.2631-.057.9222-.0923 1.2083 0 .0159.0161.028.0355.0355.0568.0075.0213.0102.0441.0079.0666l-.0271 2.2946Zm-.4869-2.0641c-.2969-.0081-.7621-.0542-.7458.354-.019.4068.4421.3838.7377.377l.0081-.731ZM38.1721 64.7873c-.0298.1207-.4543.1654-.5072.0515-.0176-.2048-.1546-1.4185-.1573-1.5975-.0841.2142-.7798 1.4755-.895 1.7087-.0583.118-.2441.0963-.3513.1072-.2454.1681-.3064-2.3977-.3702-2.4411.0298-.1234.457-.1641.5099-.0529.0176.2034.1519 1.4199.156 1.5962.084-.2061.7797-1.4796.895-1.7061.0434-.0867.1356-.0881.2265-.1003.0908-.0122.2197-.0434.2482.0542l.2454 2.3801ZM41.7034 64.0929c-.0149.1248-.4326.217-.5004.1126l-.4421-1.9786-.9153.2048.4421 1.9854c-.0163.1247-.434.2156-.5004.1112.0447-.1112-.7242-2.4818-.3879-2.4262 2.5048-.5519 1.5202-.7716 2.304 1.9908ZM43.5057 61.7916c.2374.6414-.3146 1.0849-.9004 1.1988l.2359.7676c-.0244.1478-.3417.2047-.4678.1817-.0434-.0231-.6645-2.1698-.6876-2.197-.0098-.022-.0146-.046-.0141-.0702.0005-.0241.0063-.0479.0171-.0695.0108-.0216.0262-.0406.0451-.0556s.041-.0256.0645-.0311c.5506-.1886 1.4876-.5344 1.7073.2753Zm-.5004.1925c-.0949-.3905-.4909-.2983-.7675-.1885l.2508.8137c.3201-.0542.6578-.2549.5167-.6252ZM46.1515 61.2599c.8137 1.5149-1.7317 2.6391-2.1982.9263-.7947-1.5013 1.7263-2.6174 2.1982-.9263Zm-.4895.2252c-.5425-1.4009-1.8986-.2265-1.0537.8136.5072.7975 1.5324-.084 1.0537-.8136Z" fill="#134A8C"/>
  <path d="M48.7458 59.9011c.2943.5167.0135 1.074-.4801 1.3493.099.1967.2414.3337-.0583.4408-.2631.1817-.2902-.0149-.3919-.2102-1.1934.716-2.0993-1.1297-.8801-1.7169-.1045-.2075-.2292-.3078.0651-.4258.2712-.1709.278-.0095.3851.1939.5085-.259 1.1134-.1885 1.3602.3689Zm-1.6274.2034c-.6333.3323-.1098 1.3562.5262 1.028l-.5262-1.028Zm1.1785.0502c-.0275-.0694-.0693-.1321-.1227-.1842-.0535-.052-.1173-.0921-.1874-.1178-.07-.0256-.1447-.0361-.2191-.0308-.0744.0053-.1469.0263-.2126.0616l.5262 1.0279c.0652-.0341.1228-.0811.1693-.1382.0465-.0571.0808-.1231.101-.1938.0202-.0708.0257-.145.0163-.218-.0094-.073-.0335-.1433-.071-.2067ZM50.9902 59.8373c.0352.0678.1044.1519.0407.2102l-1.0755.6673c-.202.278-1.2652-1.8783-1.3723-1.9231-.2319-.2319 1.036-.7621 1.1133-.8801.1126-.0298.2848.2509.2116.3404l-.7649.4747.3241.5221.6469-.4069c.0787-.0325.1248.0678.1682.1275.0434.0597.1044.1505.0379.2048l-.6468.4068.3756.6049.7703-.4788c.08-.0366.1261.0692.1709.1302Z" fill="#134A8C"/>
  <path d="M52.6826 58.4215c.2373.2713-.1356.5967-.3567.7744-1.2205.9751-2.7597-1.3304-1.4768-2.1414.3011-.2441.891-.3377.8788.1709-1.9406-.0339.0163 2.8954.735 1.1256.0543-.1722.1546-.0149.2197.0705Z" fill="#134A8C"/>
  <path d="M54.3588 57.045c.2563.2604-.0963.6062-.2997.7974-1.1446 1.0592-2.8479-1.1323-1.6274-2.0342.2821-.2712.8652-.4068.8883.1085-1.9379.1031.221 2.8873.8137 1.0714.0434-.1655.1586-.0299.2251.0569ZM56.4011 55.5302c.0515.1126-.255.4069-.3662.3553-.1356-.1505-1.0008-1.0171-1.1133-1.1568.0284.1099.0569.2333.0759.3486l.2821 1.5473c.023.1465-.1695.2713-.2712.3418-.0061.0052-.0132.0091-.0208.0115-.0077.0024-.0157.0033-.0237.0025-.008-.0007-.0157-.0031-.0227-.0069-.0071-.0038-.0133-.009-.0183-.0153-.019-.0393-1.6789-1.6911-1.6761-1.7413.0434-.1207.2441-.3688.381-.3241.1356.1478 1.0008 1.0185 1.1134 1.1555-.061-.2143-.3051-1.645-.3567-1.8986-.0176-.0936.0516-.1506.1167-.2184.0651-.0678.1464-.1695.2291-.1112l1.6708 1.7101ZM57.4236 52.5101c1.4199.9669-.3092 3.1408-1.5188 1.8389-1.3982-.9615.3159-3.1178 1.5188-1.8389Zm-.3309.4258c-.8001-.8679-1.8036.3241-.8584.99.811.8828 1.8185-.3201.8584-.99ZM59.8362 51.2461c.0691.1357-.1465.3689-.2618.4272-.0447.0122-.8272-.5913-.8638-.6021l-.5425.7676c.0217.0298.8476.5777.8503.6211-.0136.1275-.1736.4068-.3187.3865-.0271-.0353-1.9501-1.3562-1.9582-1.4118.0163-.1274.1736-.4068.3187-.3865l.7526.5425.5425-.7676-.7527-.5424c-.0691-.1357.1465-.3689.2617-.4272.0489-.0095 1.9312 1.3792 1.9719 1.3927ZM61.1611 48.8376c.3309.0122.0068.4191-.1112.5072 0 .0122-.5425-.1153-.5669-.1166l-.4828.8137c.0136.0203.373.4136.3716.4299 0 .1519-.2075.5831-.3661.3065l-1.527-1.8091c-.1167-.1139.2142-.6578.3648-.6008l2.3176.4692Zm-2.1793.0529.7391.853.3648-.6157-1.1039-.2373ZM62.3436 46.7071c.0882.0868-.1003.4747-.2224.4584l-1.8294-.8869-.236.4868c.6198.4964 1.8783.9493 1.4606 1.8769-.0624.1451-.2577-.0135-.3445-.0501-.0529-.0326-.1098-.0638-.0813-.1235.0122-.678-.9561-.9493-1.4619-1.3764-.095-.0638-.1356-.1126-.0963-.213l.5424-1.112c.0082-.3363 2.163.9615 2.2688.9398ZM62.5674 44.0911c.5628.2034.6224.7757.3838 1.3005-.0977.114-.179.8137-.4408.6781-.0339-.0271-2.1386-.8204-2.1576-.8679-.0095-.1288.0719-.4367.2157-.453l.7987.3174c.1749-.5588.5303-1.2626 1.2002-.9751Zm-.1533.5045c-.4068-.1872-.5641.3024-.678.6103l.7445.2942c.1288-.297.3417-.7553-.0665-.9045ZM63.9994 42.0474c.1072.1017-.0217.3973-.1125.4868-.038.0272-.9724-.2942-1.0117-.2929l-.2712.9019c.0298.0203.9873.2712 1.0035.3159.0271.1262-.0339.4435-.179.4693-.0366-.0244-2.2823-.6673-2.3054-.7134-.0258-.1261.0326-.4448.1777-.4678l.8855.2712.2712-.9019-.8855-.2712c-.1071-.1017.0217-.396.1112-.4882.0461-.0258 2.2728.6903 2.3162.6903ZM63.7974 39.4395c.5831.1017.7458.651.6062 1.207-.0733.1288-.0285.7893-.3065.7038-.0393-.0203-2.2512-.4272-2.2783-.4706-.0325-.1234-.0068-.4421.1356-.4827l.8544.1722c.0664-.5628.2997-1.2843.9886-1.1297Zm.9113-.6523c.1098.0665.0203.4828-.1004.5031l-2.3406-.4692c-.1085-.0692-.0204-.4841.1017-.5045l2.3393.4706Zm-.971 1.1758c-.4177-.1044-.5004.3634-.5506.6781l.7852.1586c.076-.3065.1722-.7662-.2346-.8367ZM64.8579 36.2973c.3078-.1722.183.3784.1098.5072-.042.0258-.9493.3716-.9954.3933l.8544.5642c.1193.1017.0474.4068-.0095.5289-.0936.061-1.0944-.7364-1.1961-.7771-.1221.0217-1.169.5424-1.2653.4679-.0217-.1357-.0352-.4666.1085-.5425l.8761-.3512-.7839-.5167c-.1207-.095-.0461-.3947 0-.514.1085-.0665 1.0239.6781 1.131.7187l1.1704-.4787ZM62.8155 33.1605c.076 0 .1913-.0094.2089.076v.632l2.0342.0081c.1003.0258.0718.1641.0813.2577-.0108.0922.0163.2319-.0827.2563l-2.0342-.0082c-.0203.0434.0461.6944-.0501.6862-.099.019-.3323.0624-.3716-.0569l.0081-1.7766c.0122-.0868.1289-.0691.2061-.0746ZM64.8104 31.2863c.0773 0 .1844-.0217.2048.0624l.08 1.264c.1492.3092-2.2539.2251-2.3434.2983-.3146.0949-.1817-1.2721-.2495-1.3968.0271-.1126.3566-.1356.4-.0244l.0556.8977.6144-.0393-.0475-.7594c.0081-.0855.118-.0787.1912-.0882.0732-.0095.1817-.0203.1994.0638l.0474.7594.7093-.0434-.057-.9059c.0095-.0868.1207-.0787.1953-.0882ZM64.527 28.9538c.259-.2414.2712.3227.2278.4665-.0353.0352-.8354.5872-.8747.6184l.9642.3458c.1356.0692.1438.3852.1166.5153-.0773.0814-1.2395-.4556-1.3466-.4705-.1139.0501-1.0049.8136-1.1174.754-.0543-.1261-.1451-.4448-.0244-.5533l.7675-.5493-.8828-.316c-.1356-.0637-.1356-.3729-.1166-.5004.0895-.0908 1.1554.4137 1.2693.4286l1.0171-.7391ZM64.1445 26.4937c.1438.038.175.358.1357.4815-.0204.042-.9941.2156-1.0266.2346l.1993.9221c.0366 0 .9981-.2386 1.032-.2115.0841.0963.1858.4068.0719.4963-.0447 0-2.319.5276-2.3624.4977-.084-.0976-.1871-.4068-.0718-.495l.9045-.1952-.1993-.9222-.9046.1966c-.1437-.0366-.1749-.358-.1356-.4814.0231-.0434 2.3176-.5018 2.3569-.5235ZM62.1348 24.0269c1.5731-.6889 2.4952 1.9325.7499 2.2648-1.5582.6726-2.4736-1.9271-.7499-2.2648Zm.1858.5045c-1.1609.217-.6862 1.7019.381 1.2544 1.1785-.2156.6957-1.7087-.381-1.2544ZM62.4019 21.419c.1248-.0068.2862.3919.1926.4733l-1.8836.7635.2034.5018c.7838-.1288 1.965-.7581 2.3732.1722.0637.1424-.1831.1817-.2712.2224-.0584.0163-.1207.038-.1465-.023-.4977-.4652-1.3453.0746-2.0016.1641-.1099.0285-.1777.0298-.2224-.0705l-.4638-1.146c-.2414-.236 2.1657-.9642 2.2199-1.0578ZM59.9962 19.3292c1.4334-.9493 2.7895 1.4768 1.1283 2.102-1.4199.9303-2.7665-1.4741-1.1283-2.102Zm.2712.4651c-1.1066.4069-.3838 1.7929.5899 1.1704 1.1175-.4136.3933-1.8023-.5913-1.1649l.0014-.0055ZM58.1424 18.2551c.0691-.0339.1613-.1112.2183-.042l.4353.7133 1.7358-1.0578c.1451-.0163.2374.2509.2889.3607.0081.034 0 .0597-.0217.0774l-1.9555 1.1934c-.0164.0134-.0357.0231-.0563.0282s-.0421.0055-.0629.0012-.0404-.0132-.0573-.026c-.0169-.0128-.0308-.0293-.0405-.0482l-.6238-1.0225c-.0272-.0828.0556-.118.1397-.1777ZM58.6401 15.0722c.1193-.0339.3702.3133.2969.415-.1695.1166-1.1554.8368-1.31.9276.2292-.0339 1.6681-.0556 1.9284-.0705.1356 0 .3499.2712.2713.3933l-1.9393 1.386c-.1234.0366-.2143-.1858-.2807-.2713-.0271-.0515-.0638-.1098-.0163-.1491.1668-.1167 1.1568-.8354 1.3087-.9263-.2211.0299-1.6721.0556-1.9271.0692-.0963 0-.1424-.0733-.198-.1478-.0556-.0746-.1464-.1696-.0759-.2428l1.942-1.3833ZM54.6992 15.2363c.5668-.5614 1.607.8137.8313 1.0849-.4272-.3078-.0583-.2888-.1356-.598-.0868-.2441-.3106-.2238-.4923-.1356-.0922-.0651-.3051-.2414-.2034-.3513Zm2.1806-2.2634c.1153-.0447.396.2794.3323.3865-.1587.1356-1.0782.9358-1.2206 1.0402.3079-.0393 1.6871-.2509 2.0098-.2211.0787.076.2875.236.2116.3499l-1.8077 1.5515c-.118.0461-.396-.2821-.3336-.3879.1559-.1356 1.0849-.9357 1.2205-1.0388-.217.0475-1.6599.2021-1.9122.2373-.0949.0122-.1478-.0597-.2115-.1356-.0638-.0759-.16-.156-.0963-.236l1.8077-1.546Z" fill="#134A8C"/>
  <path d="M24.2244 52.4979c-.0253-.0245-.0591-.0382-.0943-.0382-.0351 0-.0689.0137-.0942.0382-.0312.0271-.0882.0813-.1641.1546-1.0442.9059-5.0719 3.3903-6.4606 3.2954-.0786 0-.1776-.0244-.2007-.0814-.1356-.3377.9819-1.546 1.7969-2.4275.815-.8815 1.5148-1.645 1.5785-2.041.0077-.043.0042-.0872-.01-.1285s-.0388-.0783-.0713-.1075c-.3784-.3363-2.2648.1546-5.3282 1.0022-1.2829.3553-2.5062.6944-3.1571.8002 1.0849-.7039 3.6141-2.8222 5.2197-4.177 1.8593-1.569 5.3174-4.9445 5.3174-4.9445l-2.5129-2.5916c-1.2449.8774-4.5091 5.7297-5.0909 6.5244-.514.7025-3.2357 4.5676-3.4052 5.289-.0101.0179-.0157.0379-.0163.0583 0 .036.0143.0705.0397.0959.0254.0255.0599.0398.0959.0398h.0244c.5099 0 1.9257-.392 3.5612-.8449 1.7847-.4937 4.7641-1.3182 5.0692-1.0673-.0556.3214-.8286 1.1595-1.5094 1.8986-1.272 1.3792-2.0342 2.2498-1.8497 2.7123.0596.1519.2047.236.4326.2536h.103c1.1677 0 3.5693-1.3033 5.1926-2.3706-.6645.7188-1.3208 1.5311-1.3317 1.9475-.0027.0452.0038.0906.0192.1333.0154.0427.0393.0817.0703.1148.0753.0748.1653.1331.2642.1714.099.0383.2048.0557.3108.0511.5221 0 1.0849-.3554 1.1215-.3771.016-.0091.03-.0214.0411-.0361.0111-.0147.0191-.0315.0234-.0493.0044-.0179.0051-.0365.0021-.0547-.003-.0181-.0097-.0355-.0197-.051-.01-.0155-.023-.0288-.0382-.0391-.0153-.0103-.0325-.0174-.0506-.0208-.0181-.0034-.0367-.0031-.0546.0008-.018.004-.035.0116-.0499.0224-.0095 0-.9642.5967-1.3562.1939-.0098-.0158-.0141-.0344-.0122-.0528.0122-.4842 1.4253-1.9963 2.4221-2.947.0718-.0637.1356-.1207.179-.1695.0212-.0256.0322-.0582.031-.0915-.0013-.0332-.0147-.0649-.0378-.0888Z" fill="#DE211A"/>
  <path d="M27.81 32.3835c0-.8463.5221-1.6532 1.2042-1.8593.6605-.1994 1.4118.1247 1.9203.8286.6292.8679.7052 1.862.2048 2.6553-.5954.9493-1.7142 1.1188-2.4492.2713-.4502-.5154-.7106-1.1975-1.0564-1.8037l.1763-.0922Zm2.3054 1.8023c.6781 0 1.0849-.5032.9642-1.2206-.1492-.8692-.7025-1.4524-1.4592-1.8158-.693-.3323-1.447.1708-1.4917.9343-.057.9304 1.0605 2.1075 1.9921 2.1021h-.0054ZM33.5559 31.1602l-1.4375-.8964c.198.4204.4394.7405.4855 1.0849.0461.3445-.0841.7459-.1722 1.1134-.0621.026-.1287.0394-.196.0394s-.1339-.0134-.196-.0394c-.0868-.0705-.1356-.3594-.0935-.3878.6984-.4706.198-.9575.0176-1.4172-.1099-.278-.3078-.5208-.5289-.8829-.0597.3418-.0949.5425-.1356.75l-.2387-.0231c.0394-.372.1023-.7412.1885-1.1052.0136-.0475.4069-.0665.5574.0189.4611.2604.8896.5778 1.367.8978-.0543-.933-.8029-1.7047-.5127-2.6051l.2184-.0475 1.4008 1.9664.114-.7093h.2102c-.0317.3689-.0633.7387-.095 1.1094-.1925-.019-.4543.0339-.5641-.0719-.2875-.2712-.5086-.6225-.8639-1.0849.2469.8259.4462 1.4917.6442 2.159l-.1695.1315ZM36.1732 25.1742c.6374.0773 1.1147.1234 1.588.198.4421.0691.8815.2373 1.3195.2332.3363 0 .7662-.1464.3607-.6658-.061-.0787.0068-.2577.015-.3893.1356.057.3905.1248.3865.1682-.0339.3309-.0163.7432-.2048.9697-.4679.5614-1.1337.4515-1.763.2875-.5072-.1357-1.0049-.3079-1.5337-.472-.0502.67.9967.9263.4068 1.7481l-1.4768-1.9976-.1641.636-.1804-.0312.1953-1.3019.1844-.0461.7066.8232c-.0597-.4692-.1275-.8137-.1356-1.1582-.0116-.2414.0296-.4826.1207-.7065.0528-.1193.2712-.1655.4068-.2455.0122.1553.0122.3113 0 .4665-.061.5303-.16 1.0578-.2319 1.4837ZM35.864 27.123c.0827.1532.122.1912.122.2291-.0067.5968-.0244 1.3223-.6536 1.4918-.6292.1695-1.0008-.4624-1.2626-.9981-.2929-.6021-.5031-1.2273-.023-1.8335.1085-.1356.3214-.2034.5004-.2618.0407-.0135.2088.1872.1966.2075-.0812.1471-.196.273-.3349.3675-.4489.2319-.3743.5642-.2007.9087.0867.2063.2172.3914.3824.5424.2503.1629.515.3027.7906.4177l.3079-.6998c.042-.1003.0867-.1871.1749-.3715Z" fill="#fff"/>
  <path d="m40.468 27.0457 1.0849-.8707 6.1215 7.4588-7.3623 10.974H28.13l-.1681-4.2719 2.1793-2.0044 4.0982-.2617 1.3656-2.993-1.1921-1.6274 1.2504-.8028 1.5975 2.3719-2.0627 4.4468-4.4467.3187-1.3263 1.2598.1153 2.0627h9.92l6.3928-9.4157-5.3852-6.6451ZM19.7994 24.7022c-.0882 1.6274-.5859 4.7872.0827 8.6794l1.8158.7933 1.9257-2.3176.2563-5.8993s1.9474-.7947 4.4454-2.7272l2.8479 2.2784c-.3309.3616-.6519.7187-.9629 1.0713l-1.8986-1.4836s-1.6558 1.2395-2.9929 1.6748l-.2306 5.544-2.936 3.6331-3.5733-1.5691s-1.0754-8.0501 0-11.2764c1.0754-3.2262 3.6615-4.1552 5.3173-4.8238 1.6558-.6686 5.1723-1.8891 6.1324-1.3941.6916.3567 3.9043 2.6486 5.6401 3.8976-.3544.3526-.7065.7088-1.0564 1.0686 0 0-4.4752-3.1354-4.9919-3.5138-.5167-.3783-5.3173.9887-7.4098 2.296-2.0925 1.3073-2.3271 2.4411-2.4112 4.0684ZM16.1351 24.9341v6.7225l1.588 1.744V22.8999l-1.588 2.0342Z" fill="#D5241D"/>
  <path d="M33.3958 46.1579h-3.9232l-3.3537 4.1457h3.9233l3.3536-4.1457Zm-6.5337 4.0101 3.134-3.8745h3.119l-3.134 3.8745h-3.119Z" fill="#134A8C"/>
  <path d="m29.3207 44.9373-5.4069 6.6845h6.6193l5.4068-6.6845h-6.6192Zm.0705.1357h5.6117l-5.1886 6.4132h-5.6102l5.1871-6.4132Z" fill="#134A8C"/>
  <path d="m31.5976 51.7764-5.3512 6.6166h1.8741l4.1755-5.1628h2.5251l-3.9775 4.9201-.1953.2427h1.8674l5.3513-6.6166h-6.2694Zm.3675 6.481h-1.0347l4.1755-5.1628h-3.5083l-4.1755 5.1628h-.8855l5.1316-6.3454h5.4339l-5.0447 6.2383-.0923.1071ZM38.1884 51.7764l-1.1758 1.4538h2.4139L35.251 58.393h1.7942l4.1809-5.1628h2.2376l1.1758-1.4538h-6.4511Zm4.7139 1.3182h-2.2322l-4.1755 5.1628h-.9642l4.1755-5.1628h-2.4126l.9561-1.1826h5.6049l-.4774.5913-.4746.5913ZM55.0165 44.9373h-1.2503l-2.4411 3.0229h-2.5332l2.441-3.0229h-1.7345l-3.515 4.3397h4.2663l-.716.8856h-4.265l-1.1758 1.4538h6.0402l5.4069-6.6845-.5235.0054Zm-10.6388 6.5489.9561-1.1826h4.2663l.9358-1.1568h-4.2664l3.2954-4.0684h.9127l-2.4411 3.0228h3.3537l2.441-3.0228h.9005l-5.1872 6.4078h-5.1668ZM36.7373 44.9373l-5.4109 6.6845h1.6274l4.3097-5.3283h3.0269l1.0971-1.3562h-4.6502Zm-.0868 1.2206-4.3097 5.3283h-.7255l5.1871-6.4132h3.8812l-.438.5424-.4394.5425h-3.1557ZM48.423 44.9373h-2.441l-3.7781 2.0817 1.6897-2.0817h-1.8457l-5.4069 6.6845h1.8471l1.9664-2.4316.5424 2.4316h2.2702l-.769-3.4202 5.9249-3.2643Zm-5.8313 6.5489h-1.4822L40.567 49.06l-.1546-.6536-2.4912 3.0798h-.9994l5.1871-6.4132h.9995l-2.3312 2.8845 5.2346-2.8818h1.1216l-1.984 1.0849h-.0163l-3.3252 1.8471.7838 3.4785Z" fill="#004B94"/>
</svg>
